M48
; DRILL file {KiCad (5.1.2-1)-1} date Sunday, 25 August 2019 at 09:23:59 pm
; FORMAT={-:-/ absolute / inch / decimal}
; #@! TF.CreationDate,2019-08-25T21:23:59+10:00
; #@! TF.GenerationSoftware,Kicad,Pcbnew,(5.1.2-1)-1
; #@! TF.FileFunction,Plated,1,2,PTH
FMAT,2
INCH
T1C0.0157
T2C0.0295
T3C0.1098
%
G90
G05
T1
X3.9115Y-4.06
X4.1971Y-4.0671
X4.23Y-4.03
X4.27Y-3.92
X4.27Y-3.98
X4.375Y-3.9006
X4.375Y-3.94
X4.375Y-3.99
X4.39Y-4.04
X4.4228Y-4.0685
X4.43Y-3.86
X4.43Y-5.06
X4.69Y-4.75
X4.77Y-4.16
X4.8Y-3.86
X4.8Y-4.19
X4.84Y-3.83
X4.8415Y-4.12
X4.87Y-4.07
X4.9Y-3.78
X4.92Y-4.0685
X4.94Y-3.74
X5.05Y-4.0685
X5.08Y-5.2058
X5.09Y-4.27
X5.2Y-4.03
X5.43Y-3.8
X5.4488Y-3.7312
X5.46Y-3.93
X5.5442Y-3.7458
X5.55Y-5.04
X5.6Y-3.79
X5.95Y-4.79
X6.0Y-4.84
X6.03Y-4.71
X6.06Y-3.58
X6.07Y-4.77
X6.35Y-3.93
X6.3888Y-3.91
X6.4065Y-4.07
T2
X6.17Y-5.13
X6.2487Y-5.13
X6.3275Y-5.13
X6.67Y-3.9725
X6.67Y-4.0513
X6.67Y-4.13
X4.02Y-3.88
X4.02Y-3.9587
X4.02Y-4.0375
X4.02Y-4.1162
X4.02Y-4.195
X4.02Y-4.2737
X4.02Y-4.3524
X5.87Y-3.01
X5.9487Y-3.01
X6.0275Y-3.01
X6.1062Y-3.01
X4.02Y-2.21
X4.02Y-2.2887
X4.02Y-2.3675
X4.02Y-2.4462
X4.02Y-2.525
X4.02Y-2.6037
X4.02Y-2.6824
X4.02Y-2.7612
X6.1838Y-3.63
X6.2625Y-3.63
X6.3413Y-3.63
X6.42Y-3.63
X4.02Y-4.63
X4.02Y-4.7087
X4.02Y-4.7875
X4.02Y-4.8662
X5.57Y-5.13
X5.6487Y-5.13
X5.7275Y-5.13
X5.8062Y-5.13
X6.67Y-4.4938
X6.67Y-4.5725
X6.67Y-4.6513
X6.67Y-4.73
X4.2688Y-1.96
X4.3476Y-1.96
X4.4263Y-1.96
X4.505Y-1.96
X4.5838Y-1.96
X4.6625Y-1.96
X4.7413Y-1.96
X4.82Y-1.96
X5.1626Y-3.63
X5.2413Y-3.63
X5.3201Y-3.63
X5.3988Y-3.63
X5.4776Y-3.63
X5.5563Y-3.63
X5.635Y-3.63
X5.7138Y-3.63
X5.7925Y-3.63
X5.8713Y-3.63
X5.95Y-3.63
X6.37Y-2.2088
X6.37Y-2.2876
X6.37Y-2.3663
X6.37Y-2.445
X6.37Y-2.5238
X6.37Y-2.6025
X6.37Y-2.6813
X6.37Y-2.76
X5.02Y-5.13
X5.0987Y-5.13
X5.1775Y-5.13
X5.2562Y-5.13
X5.0688Y-1.96
X5.1476Y-1.96
X5.2263Y-1.96
X5.305Y-1.96
X5.3838Y-1.96
X5.4625Y-1.96
X5.5413Y-1.96
X5.62Y-1.96
X4.37Y-5.13
X4.4487Y-5.13
X4.5275Y-5.13
X4.6062Y-5.13
X4.685Y-5.13
X5.8838Y-1.96
X5.9625Y-1.96
X6.0413Y-1.96
X6.12Y-1.96
X4.27Y-3.01
X4.3487Y-3.01
X4.4275Y-3.01
X4.5062Y-3.01
X4.585Y-3.01
X4.6637Y-3.01
X4.7424Y-3.01
X4.8212Y-3.01
X4.2313Y-3.63
X4.3101Y-3.63
X4.3888Y-3.63
X4.4676Y-3.63
X4.5463Y-3.63
X4.625Y-3.63
X4.7038Y-3.63
X4.7825Y-3.63
X4.8613Y-3.63
X4.94Y-3.63
X5.07Y-3.01
X5.1487Y-3.01
X5.2275Y-3.01
X5.3062Y-3.01
X5.385Y-3.01
X5.4637Y-3.01
X5.5424Y-3.01
X5.6212Y-3.01
T3
X6.44Y-1.88
X3.98Y-1.92
X3.97Y-3.58
X6.72Y-3.58
X3.97Y-5.18
X6.72Y-5.18
X6.44Y-3.08
X3.97Y-3.08
T0
M30
