G04 #@! TF.GenerationSoftware,KiCad,Pcbnew,(5.1.2-1)-1*
G04 #@! TF.CreationDate,2019-08-25T21:24:03+10:00*
G04 #@! TF.ProjectId,Bus,4275732e-6b69-4636-9164-5f7063625858,rev?*
G04 #@! TF.SameCoordinates,Original*
G04 #@! TF.FileFunction,Copper,L1,Top*
G04 #@! TF.FilePolarity,Positive*
%FSLAX46Y46*%
G04 Gerber Fmt 4.6, Leading zero omitted, Abs format (unit mm)*
G04 Created by KiCad (PCBNEW (5.1.2-1)-1) date 2019-08-25 21:24:03*
%MOMM*%
%LPD*%
G04 APERTURE LIST*
%ADD10O,1.200000X1.750000*%
%ADD11C,0.100000*%
%ADD12C,1.200000*%
%ADD13C,3.790000*%
%ADD14O,1.750000X1.200000*%
%ADD15C,0.800000*%
%ADD16C,0.250000*%
G04 APERTURE END LIST*
D10*
X131130000Y-92202000D03*
X133130000Y-92202000D03*
X135130000Y-92202000D03*
X137130000Y-92202000D03*
X139130000Y-92202000D03*
X141130000Y-92202000D03*
X143130000Y-92202000D03*
X145130000Y-92202000D03*
X147130000Y-92202000D03*
X149130000Y-92202000D03*
D11*
G36*
X151504505Y-91328204D02*
G01*
X151528773Y-91331804D01*
X151552572Y-91337765D01*
X151575671Y-91346030D01*
X151597850Y-91356520D01*
X151618893Y-91369132D01*
X151638599Y-91383747D01*
X151656777Y-91400223D01*
X151673253Y-91418401D01*
X151687868Y-91438107D01*
X151700480Y-91459150D01*
X151710970Y-91481329D01*
X151719235Y-91504428D01*
X151725196Y-91528227D01*
X151728796Y-91552495D01*
X151730000Y-91576999D01*
X151730000Y-92827001D01*
X151728796Y-92851505D01*
X151725196Y-92875773D01*
X151719235Y-92899572D01*
X151710970Y-92922671D01*
X151700480Y-92944850D01*
X151687868Y-92965893D01*
X151673253Y-92985599D01*
X151656777Y-93003777D01*
X151638599Y-93020253D01*
X151618893Y-93034868D01*
X151597850Y-93047480D01*
X151575671Y-93057970D01*
X151552572Y-93066235D01*
X151528773Y-93072196D01*
X151504505Y-93075796D01*
X151480001Y-93077000D01*
X150779999Y-93077000D01*
X150755495Y-93075796D01*
X150731227Y-93072196D01*
X150707428Y-93066235D01*
X150684329Y-93057970D01*
X150662150Y-93047480D01*
X150641107Y-93034868D01*
X150621401Y-93020253D01*
X150603223Y-93003777D01*
X150586747Y-92985599D01*
X150572132Y-92965893D01*
X150559520Y-92944850D01*
X150549030Y-92922671D01*
X150540765Y-92899572D01*
X150534804Y-92875773D01*
X150531204Y-92851505D01*
X150530000Y-92827001D01*
X150530000Y-91576999D01*
X150531204Y-91552495D01*
X150534804Y-91528227D01*
X150540765Y-91504428D01*
X150549030Y-91481329D01*
X150559520Y-91459150D01*
X150572132Y-91438107D01*
X150586747Y-91418401D01*
X150603223Y-91400223D01*
X150621401Y-91383747D01*
X150641107Y-91369132D01*
X150662150Y-91356520D01*
X150684329Y-91346030D01*
X150707428Y-91337765D01*
X150731227Y-91331804D01*
X150755495Y-91328204D01*
X150779999Y-91327000D01*
X151480001Y-91327000D01*
X151504505Y-91328204D01*
X151504505Y-91328204D01*
G37*
D12*
X151130000Y-92202000D03*
D13*
X100838000Y-78232000D03*
X163576000Y-78232000D03*
X170688000Y-131572000D03*
X100838000Y-131572000D03*
X170688000Y-90932000D03*
X100838000Y-90932000D03*
X101092000Y-48768000D03*
X163576000Y-47752000D03*
D10*
X122458000Y-76454000D03*
X120458000Y-76454000D03*
X118458000Y-76454000D03*
X116458000Y-76454000D03*
X114458000Y-76454000D03*
X112458000Y-76454000D03*
X110458000Y-76454000D03*
D11*
G36*
X108832505Y-75580204D02*
G01*
X108856773Y-75583804D01*
X108880572Y-75589765D01*
X108903671Y-75598030D01*
X108925850Y-75608520D01*
X108946893Y-75621132D01*
X108966599Y-75635747D01*
X108984777Y-75652223D01*
X109001253Y-75670401D01*
X109015868Y-75690107D01*
X109028480Y-75711150D01*
X109038970Y-75733329D01*
X109047235Y-75756428D01*
X109053196Y-75780227D01*
X109056796Y-75804495D01*
X109058000Y-75828999D01*
X109058000Y-77079001D01*
X109056796Y-77103505D01*
X109053196Y-77127773D01*
X109047235Y-77151572D01*
X109038970Y-77174671D01*
X109028480Y-77196850D01*
X109015868Y-77217893D01*
X109001253Y-77237599D01*
X108984777Y-77255777D01*
X108966599Y-77272253D01*
X108946893Y-77286868D01*
X108925850Y-77299480D01*
X108903671Y-77309970D01*
X108880572Y-77318235D01*
X108856773Y-77324196D01*
X108832505Y-77327796D01*
X108808001Y-77329000D01*
X108107999Y-77329000D01*
X108083495Y-77327796D01*
X108059227Y-77324196D01*
X108035428Y-77318235D01*
X108012329Y-77309970D01*
X107990150Y-77299480D01*
X107969107Y-77286868D01*
X107949401Y-77272253D01*
X107931223Y-77255777D01*
X107914747Y-77237599D01*
X107900132Y-77217893D01*
X107887520Y-77196850D01*
X107877030Y-77174671D01*
X107868765Y-77151572D01*
X107862804Y-77127773D01*
X107859204Y-77103505D01*
X107858000Y-77079001D01*
X107858000Y-75828999D01*
X107859204Y-75804495D01*
X107862804Y-75780227D01*
X107868765Y-75756428D01*
X107877030Y-75733329D01*
X107887520Y-75711150D01*
X107900132Y-75690107D01*
X107914747Y-75670401D01*
X107931223Y-75652223D01*
X107949401Y-75635747D01*
X107969107Y-75621132D01*
X107990150Y-75608520D01*
X108012329Y-75598030D01*
X108035428Y-75589765D01*
X108059227Y-75583804D01*
X108083495Y-75580204D01*
X108107999Y-75579000D01*
X108808001Y-75579000D01*
X108832505Y-75580204D01*
X108832505Y-75580204D01*
G37*
D12*
X108458000Y-76454000D03*
D14*
X102108000Y-110552000D03*
X102108000Y-108552000D03*
X102108000Y-106552000D03*
X102108000Y-104552000D03*
X102108000Y-102552000D03*
X102108000Y-100552000D03*
D11*
G36*
X102757505Y-97953204D02*
G01*
X102781773Y-97956804D01*
X102805572Y-97962765D01*
X102828671Y-97971030D01*
X102850850Y-97981520D01*
X102871893Y-97994132D01*
X102891599Y-98008747D01*
X102909777Y-98025223D01*
X102926253Y-98043401D01*
X102940868Y-98063107D01*
X102953480Y-98084150D01*
X102963970Y-98106329D01*
X102972235Y-98129428D01*
X102978196Y-98153227D01*
X102981796Y-98177495D01*
X102983000Y-98201999D01*
X102983000Y-98902001D01*
X102981796Y-98926505D01*
X102978196Y-98950773D01*
X102972235Y-98974572D01*
X102963970Y-98997671D01*
X102953480Y-99019850D01*
X102940868Y-99040893D01*
X102926253Y-99060599D01*
X102909777Y-99078777D01*
X102891599Y-99095253D01*
X102871893Y-99109868D01*
X102850850Y-99122480D01*
X102828671Y-99132970D01*
X102805572Y-99141235D01*
X102781773Y-99147196D01*
X102757505Y-99150796D01*
X102733001Y-99152000D01*
X101482999Y-99152000D01*
X101458495Y-99150796D01*
X101434227Y-99147196D01*
X101410428Y-99141235D01*
X101387329Y-99132970D01*
X101365150Y-99122480D01*
X101344107Y-99109868D01*
X101324401Y-99095253D01*
X101306223Y-99078777D01*
X101289747Y-99060599D01*
X101275132Y-99040893D01*
X101262520Y-99019850D01*
X101252030Y-98997671D01*
X101243765Y-98974572D01*
X101237804Y-98950773D01*
X101234204Y-98926505D01*
X101233000Y-98902001D01*
X101233000Y-98201999D01*
X101234204Y-98177495D01*
X101237804Y-98153227D01*
X101243765Y-98129428D01*
X101252030Y-98106329D01*
X101262520Y-98084150D01*
X101275132Y-98063107D01*
X101289747Y-98043401D01*
X101306223Y-98025223D01*
X101324401Y-98008747D01*
X101344107Y-97994132D01*
X101365150Y-97981520D01*
X101387329Y-97971030D01*
X101410428Y-97962765D01*
X101434227Y-97956804D01*
X101458495Y-97953204D01*
X101482999Y-97952000D01*
X102733001Y-97952000D01*
X102757505Y-97953204D01*
X102757505Y-97953204D01*
G37*
D12*
X102108000Y-98552000D03*
D10*
X107476000Y-92202000D03*
X109476000Y-92202000D03*
X111476000Y-92202000D03*
X113476000Y-92202000D03*
X115476000Y-92202000D03*
X117476000Y-92202000D03*
X119476000Y-92202000D03*
X121476000Y-92202000D03*
X123476000Y-92202000D03*
D11*
G36*
X125850505Y-91328204D02*
G01*
X125874773Y-91331804D01*
X125898572Y-91337765D01*
X125921671Y-91346030D01*
X125943850Y-91356520D01*
X125964893Y-91369132D01*
X125984599Y-91383747D01*
X126002777Y-91400223D01*
X126019253Y-91418401D01*
X126033868Y-91438107D01*
X126046480Y-91459150D01*
X126056970Y-91481329D01*
X126065235Y-91504428D01*
X126071196Y-91528227D01*
X126074796Y-91552495D01*
X126076000Y-91576999D01*
X126076000Y-92827001D01*
X126074796Y-92851505D01*
X126071196Y-92875773D01*
X126065235Y-92899572D01*
X126056970Y-92922671D01*
X126046480Y-92944850D01*
X126033868Y-92965893D01*
X126019253Y-92985599D01*
X126002777Y-93003777D01*
X125984599Y-93020253D01*
X125964893Y-93034868D01*
X125943850Y-93047480D01*
X125921671Y-93057970D01*
X125898572Y-93066235D01*
X125874773Y-93072196D01*
X125850505Y-93075796D01*
X125826001Y-93077000D01*
X125125999Y-93077000D01*
X125101495Y-93075796D01*
X125077227Y-93072196D01*
X125053428Y-93066235D01*
X125030329Y-93057970D01*
X125008150Y-93047480D01*
X124987107Y-93034868D01*
X124967401Y-93020253D01*
X124949223Y-93003777D01*
X124932747Y-92985599D01*
X124918132Y-92965893D01*
X124905520Y-92944850D01*
X124895030Y-92922671D01*
X124886765Y-92899572D01*
X124880804Y-92875773D01*
X124877204Y-92851505D01*
X124876000Y-92827001D01*
X124876000Y-91576999D01*
X124877204Y-91552495D01*
X124880804Y-91528227D01*
X124886765Y-91504428D01*
X124895030Y-91481329D01*
X124905520Y-91459150D01*
X124918132Y-91438107D01*
X124932747Y-91418401D01*
X124949223Y-91400223D01*
X124967401Y-91383747D01*
X124987107Y-91369132D01*
X125008150Y-91356520D01*
X125030329Y-91346030D01*
X125053428Y-91337765D01*
X125077227Y-91331804D01*
X125101495Y-91328204D01*
X125125999Y-91327000D01*
X125826001Y-91327000D01*
X125850505Y-91328204D01*
X125850505Y-91328204D01*
G37*
D12*
X125476000Y-92202000D03*
D11*
G36*
X157092505Y-129428204D02*
G01*
X157116773Y-129431804D01*
X157140572Y-129437765D01*
X157163671Y-129446030D01*
X157185850Y-129456520D01*
X157206893Y-129469132D01*
X157226599Y-129483747D01*
X157244777Y-129500223D01*
X157261253Y-129518401D01*
X157275868Y-129538107D01*
X157288480Y-129559150D01*
X157298970Y-129581329D01*
X157307235Y-129604428D01*
X157313196Y-129628227D01*
X157316796Y-129652495D01*
X157318000Y-129676999D01*
X157318000Y-130927001D01*
X157316796Y-130951505D01*
X157313196Y-130975773D01*
X157307235Y-130999572D01*
X157298970Y-131022671D01*
X157288480Y-131044850D01*
X157275868Y-131065893D01*
X157261253Y-131085599D01*
X157244777Y-131103777D01*
X157226599Y-131120253D01*
X157206893Y-131134868D01*
X157185850Y-131147480D01*
X157163671Y-131157970D01*
X157140572Y-131166235D01*
X157116773Y-131172196D01*
X157092505Y-131175796D01*
X157068001Y-131177000D01*
X156367999Y-131177000D01*
X156343495Y-131175796D01*
X156319227Y-131172196D01*
X156295428Y-131166235D01*
X156272329Y-131157970D01*
X156250150Y-131147480D01*
X156229107Y-131134868D01*
X156209401Y-131120253D01*
X156191223Y-131103777D01*
X156174747Y-131085599D01*
X156160132Y-131065893D01*
X156147520Y-131044850D01*
X156137030Y-131022671D01*
X156128765Y-130999572D01*
X156122804Y-130975773D01*
X156119204Y-130951505D01*
X156118000Y-130927001D01*
X156118000Y-129676999D01*
X156119204Y-129652495D01*
X156122804Y-129628227D01*
X156128765Y-129604428D01*
X156137030Y-129581329D01*
X156147520Y-129559150D01*
X156160132Y-129538107D01*
X156174747Y-129518401D01*
X156191223Y-129500223D01*
X156209401Y-129483747D01*
X156229107Y-129469132D01*
X156250150Y-129456520D01*
X156272329Y-129446030D01*
X156295428Y-129437765D01*
X156319227Y-129431804D01*
X156343495Y-129428204D01*
X156367999Y-129427000D01*
X157068001Y-129427000D01*
X157092505Y-129428204D01*
X157092505Y-129428204D01*
G37*
D12*
X156718000Y-130302000D03*
D10*
X158718000Y-130302000D03*
X160718000Y-130302000D03*
D11*
G36*
X129152505Y-75580204D02*
G01*
X129176773Y-75583804D01*
X129200572Y-75589765D01*
X129223671Y-75598030D01*
X129245850Y-75608520D01*
X129266893Y-75621132D01*
X129286599Y-75635747D01*
X129304777Y-75652223D01*
X129321253Y-75670401D01*
X129335868Y-75690107D01*
X129348480Y-75711150D01*
X129358970Y-75733329D01*
X129367235Y-75756428D01*
X129373196Y-75780227D01*
X129376796Y-75804495D01*
X129378000Y-75828999D01*
X129378000Y-77079001D01*
X129376796Y-77103505D01*
X129373196Y-77127773D01*
X129367235Y-77151572D01*
X129358970Y-77174671D01*
X129348480Y-77196850D01*
X129335868Y-77217893D01*
X129321253Y-77237599D01*
X129304777Y-77255777D01*
X129286599Y-77272253D01*
X129266893Y-77286868D01*
X129245850Y-77299480D01*
X129223671Y-77309970D01*
X129200572Y-77318235D01*
X129176773Y-77324196D01*
X129152505Y-77327796D01*
X129128001Y-77329000D01*
X128427999Y-77329000D01*
X128403495Y-77327796D01*
X128379227Y-77324196D01*
X128355428Y-77318235D01*
X128332329Y-77309970D01*
X128310150Y-77299480D01*
X128289107Y-77286868D01*
X128269401Y-77272253D01*
X128251223Y-77255777D01*
X128234747Y-77237599D01*
X128220132Y-77217893D01*
X128207520Y-77196850D01*
X128197030Y-77174671D01*
X128188765Y-77151572D01*
X128182804Y-77127773D01*
X128179204Y-77103505D01*
X128178000Y-77079001D01*
X128178000Y-75828999D01*
X128179204Y-75804495D01*
X128182804Y-75780227D01*
X128188765Y-75756428D01*
X128197030Y-75733329D01*
X128207520Y-75711150D01*
X128220132Y-75690107D01*
X128234747Y-75670401D01*
X128251223Y-75652223D01*
X128269401Y-75635747D01*
X128289107Y-75621132D01*
X128310150Y-75608520D01*
X128332329Y-75598030D01*
X128355428Y-75589765D01*
X128379227Y-75583804D01*
X128403495Y-75580204D01*
X128427999Y-75579000D01*
X129128001Y-75579000D01*
X129152505Y-75580204D01*
X129152505Y-75580204D01*
G37*
D12*
X128778000Y-76454000D03*
D10*
X130778000Y-76454000D03*
X132778000Y-76454000D03*
X134778000Y-76454000D03*
X136778000Y-76454000D03*
X138778000Y-76454000D03*
X140778000Y-76454000D03*
X142778000Y-76454000D03*
D14*
X169418000Y-100902000D03*
X169418000Y-102902000D03*
D11*
G36*
X170067505Y-104303204D02*
G01*
X170091773Y-104306804D01*
X170115572Y-104312765D01*
X170138671Y-104321030D01*
X170160850Y-104331520D01*
X170181893Y-104344132D01*
X170201599Y-104358747D01*
X170219777Y-104375223D01*
X170236253Y-104393401D01*
X170250868Y-104413107D01*
X170263480Y-104434150D01*
X170273970Y-104456329D01*
X170282235Y-104479428D01*
X170288196Y-104503227D01*
X170291796Y-104527495D01*
X170293000Y-104551999D01*
X170293000Y-105252001D01*
X170291796Y-105276505D01*
X170288196Y-105300773D01*
X170282235Y-105324572D01*
X170273970Y-105347671D01*
X170263480Y-105369850D01*
X170250868Y-105390893D01*
X170236253Y-105410599D01*
X170219777Y-105428777D01*
X170201599Y-105445253D01*
X170181893Y-105459868D01*
X170160850Y-105472480D01*
X170138671Y-105482970D01*
X170115572Y-105491235D01*
X170091773Y-105497196D01*
X170067505Y-105500796D01*
X170043001Y-105502000D01*
X168792999Y-105502000D01*
X168768495Y-105500796D01*
X168744227Y-105497196D01*
X168720428Y-105491235D01*
X168697329Y-105482970D01*
X168675150Y-105472480D01*
X168654107Y-105459868D01*
X168634401Y-105445253D01*
X168616223Y-105428777D01*
X168599747Y-105410599D01*
X168585132Y-105390893D01*
X168572520Y-105369850D01*
X168562030Y-105347671D01*
X168553765Y-105324572D01*
X168547804Y-105300773D01*
X168544204Y-105276505D01*
X168543000Y-105252001D01*
X168543000Y-104551999D01*
X168544204Y-104527495D01*
X168547804Y-104503227D01*
X168553765Y-104479428D01*
X168562030Y-104456329D01*
X168572520Y-104434150D01*
X168585132Y-104413107D01*
X168599747Y-104393401D01*
X168616223Y-104375223D01*
X168634401Y-104358747D01*
X168654107Y-104344132D01*
X168675150Y-104331520D01*
X168697329Y-104321030D01*
X168720428Y-104312765D01*
X168744227Y-104306804D01*
X168768495Y-104303204D01*
X168792999Y-104302000D01*
X170043001Y-104302000D01*
X170067505Y-104303204D01*
X170067505Y-104303204D01*
G37*
D12*
X169418000Y-104902000D03*
D14*
X161798000Y-56104000D03*
X161798000Y-58104000D03*
X161798000Y-60104000D03*
X161798000Y-62104000D03*
X161798000Y-64104000D03*
X161798000Y-66104000D03*
X161798000Y-68104000D03*
D11*
G36*
X162447505Y-69505204D02*
G01*
X162471773Y-69508804D01*
X162495572Y-69514765D01*
X162518671Y-69523030D01*
X162540850Y-69533520D01*
X162561893Y-69546132D01*
X162581599Y-69560747D01*
X162599777Y-69577223D01*
X162616253Y-69595401D01*
X162630868Y-69615107D01*
X162643480Y-69636150D01*
X162653970Y-69658329D01*
X162662235Y-69681428D01*
X162668196Y-69705227D01*
X162671796Y-69729495D01*
X162673000Y-69753999D01*
X162673000Y-70454001D01*
X162671796Y-70478505D01*
X162668196Y-70502773D01*
X162662235Y-70526572D01*
X162653970Y-70549671D01*
X162643480Y-70571850D01*
X162630868Y-70592893D01*
X162616253Y-70612599D01*
X162599777Y-70630777D01*
X162581599Y-70647253D01*
X162561893Y-70661868D01*
X162540850Y-70674480D01*
X162518671Y-70684970D01*
X162495572Y-70693235D01*
X162471773Y-70699196D01*
X162447505Y-70702796D01*
X162423001Y-70704000D01*
X161172999Y-70704000D01*
X161148495Y-70702796D01*
X161124227Y-70699196D01*
X161100428Y-70693235D01*
X161077329Y-70684970D01*
X161055150Y-70674480D01*
X161034107Y-70661868D01*
X161014401Y-70647253D01*
X160996223Y-70630777D01*
X160979747Y-70612599D01*
X160965132Y-70592893D01*
X160952520Y-70571850D01*
X160942030Y-70549671D01*
X160933765Y-70526572D01*
X160927804Y-70502773D01*
X160924204Y-70478505D01*
X160923000Y-70454001D01*
X160923000Y-69753999D01*
X160924204Y-69729495D01*
X160927804Y-69705227D01*
X160933765Y-69681428D01*
X160942030Y-69658329D01*
X160952520Y-69636150D01*
X160965132Y-69615107D01*
X160979747Y-69595401D01*
X160996223Y-69577223D01*
X161014401Y-69560747D01*
X161034107Y-69546132D01*
X161055150Y-69533520D01*
X161077329Y-69523030D01*
X161100428Y-69514765D01*
X161124227Y-69508804D01*
X161148495Y-69505204D01*
X161172999Y-69504000D01*
X162423001Y-69504000D01*
X162447505Y-69505204D01*
X162447505Y-69505204D01*
G37*
D12*
X161798000Y-70104000D03*
D11*
G36*
X141852505Y-129428204D02*
G01*
X141876773Y-129431804D01*
X141900572Y-129437765D01*
X141923671Y-129446030D01*
X141945850Y-129456520D01*
X141966893Y-129469132D01*
X141986599Y-129483747D01*
X142004777Y-129500223D01*
X142021253Y-129518401D01*
X142035868Y-129538107D01*
X142048480Y-129559150D01*
X142058970Y-129581329D01*
X142067235Y-129604428D01*
X142073196Y-129628227D01*
X142076796Y-129652495D01*
X142078000Y-129676999D01*
X142078000Y-130927001D01*
X142076796Y-130951505D01*
X142073196Y-130975773D01*
X142067235Y-130999572D01*
X142058970Y-131022671D01*
X142048480Y-131044850D01*
X142035868Y-131065893D01*
X142021253Y-131085599D01*
X142004777Y-131103777D01*
X141986599Y-131120253D01*
X141966893Y-131134868D01*
X141945850Y-131147480D01*
X141923671Y-131157970D01*
X141900572Y-131166235D01*
X141876773Y-131172196D01*
X141852505Y-131175796D01*
X141828001Y-131177000D01*
X141127999Y-131177000D01*
X141103495Y-131175796D01*
X141079227Y-131172196D01*
X141055428Y-131166235D01*
X141032329Y-131157970D01*
X141010150Y-131147480D01*
X140989107Y-131134868D01*
X140969401Y-131120253D01*
X140951223Y-131103777D01*
X140934747Y-131085599D01*
X140920132Y-131065893D01*
X140907520Y-131044850D01*
X140897030Y-131022671D01*
X140888765Y-130999572D01*
X140882804Y-130975773D01*
X140879204Y-130951505D01*
X140878000Y-130927001D01*
X140878000Y-129676999D01*
X140879204Y-129652495D01*
X140882804Y-129628227D01*
X140888765Y-129604428D01*
X140897030Y-129581329D01*
X140907520Y-129559150D01*
X140920132Y-129538107D01*
X140934747Y-129518401D01*
X140951223Y-129500223D01*
X140969401Y-129483747D01*
X140989107Y-129469132D01*
X141010150Y-129456520D01*
X141032329Y-129446030D01*
X141055428Y-129437765D01*
X141079227Y-129431804D01*
X141103495Y-129428204D01*
X141127999Y-129427000D01*
X141828001Y-129427000D01*
X141852505Y-129428204D01*
X141852505Y-129428204D01*
G37*
D12*
X141478000Y-130302000D03*
D10*
X143478000Y-130302000D03*
X145478000Y-130302000D03*
X147478000Y-130302000D03*
D14*
X102108000Y-70134000D03*
X102108000Y-68134000D03*
X102108000Y-66134000D03*
X102108000Y-64134000D03*
X102108000Y-62134000D03*
X102108000Y-60134000D03*
X102108000Y-58134000D03*
D11*
G36*
X102757505Y-55535204D02*
G01*
X102781773Y-55538804D01*
X102805572Y-55544765D01*
X102828671Y-55553030D01*
X102850850Y-55563520D01*
X102871893Y-55576132D01*
X102891599Y-55590747D01*
X102909777Y-55607223D01*
X102926253Y-55625401D01*
X102940868Y-55645107D01*
X102953480Y-55666150D01*
X102963970Y-55688329D01*
X102972235Y-55711428D01*
X102978196Y-55735227D01*
X102981796Y-55759495D01*
X102983000Y-55783999D01*
X102983000Y-56484001D01*
X102981796Y-56508505D01*
X102978196Y-56532773D01*
X102972235Y-56556572D01*
X102963970Y-56579671D01*
X102953480Y-56601850D01*
X102940868Y-56622893D01*
X102926253Y-56642599D01*
X102909777Y-56660777D01*
X102891599Y-56677253D01*
X102871893Y-56691868D01*
X102850850Y-56704480D01*
X102828671Y-56714970D01*
X102805572Y-56723235D01*
X102781773Y-56729196D01*
X102757505Y-56732796D01*
X102733001Y-56734000D01*
X101482999Y-56734000D01*
X101458495Y-56732796D01*
X101434227Y-56729196D01*
X101410428Y-56723235D01*
X101387329Y-56714970D01*
X101365150Y-56704480D01*
X101344107Y-56691868D01*
X101324401Y-56677253D01*
X101306223Y-56660777D01*
X101289747Y-56642599D01*
X101275132Y-56622893D01*
X101262520Y-56601850D01*
X101252030Y-56579671D01*
X101243765Y-56556572D01*
X101237804Y-56532773D01*
X101234204Y-56508505D01*
X101233000Y-56484001D01*
X101233000Y-55783999D01*
X101234204Y-55759495D01*
X101237804Y-55735227D01*
X101243765Y-55711428D01*
X101252030Y-55688329D01*
X101262520Y-55666150D01*
X101275132Y-55645107D01*
X101289747Y-55625401D01*
X101306223Y-55607223D01*
X101324401Y-55590747D01*
X101344107Y-55576132D01*
X101365150Y-55563520D01*
X101387329Y-55553030D01*
X101410428Y-55544765D01*
X101434227Y-55538804D01*
X101458495Y-55535204D01*
X101482999Y-55534000D01*
X102733001Y-55534000D01*
X102757505Y-55535204D01*
X102757505Y-55535204D01*
G37*
D12*
X102108000Y-56134000D03*
D11*
G36*
X163442505Y-91328204D02*
G01*
X163466773Y-91331804D01*
X163490572Y-91337765D01*
X163513671Y-91346030D01*
X163535850Y-91356520D01*
X163556893Y-91369132D01*
X163576599Y-91383747D01*
X163594777Y-91400223D01*
X163611253Y-91418401D01*
X163625868Y-91438107D01*
X163638480Y-91459150D01*
X163648970Y-91481329D01*
X163657235Y-91504428D01*
X163663196Y-91528227D01*
X163666796Y-91552495D01*
X163668000Y-91576999D01*
X163668000Y-92827001D01*
X163666796Y-92851505D01*
X163663196Y-92875773D01*
X163657235Y-92899572D01*
X163648970Y-92922671D01*
X163638480Y-92944850D01*
X163625868Y-92965893D01*
X163611253Y-92985599D01*
X163594777Y-93003777D01*
X163576599Y-93020253D01*
X163556893Y-93034868D01*
X163535850Y-93047480D01*
X163513671Y-93057970D01*
X163490572Y-93066235D01*
X163466773Y-93072196D01*
X163442505Y-93075796D01*
X163418001Y-93077000D01*
X162717999Y-93077000D01*
X162693495Y-93075796D01*
X162669227Y-93072196D01*
X162645428Y-93066235D01*
X162622329Y-93057970D01*
X162600150Y-93047480D01*
X162579107Y-93034868D01*
X162559401Y-93020253D01*
X162541223Y-93003777D01*
X162524747Y-92985599D01*
X162510132Y-92965893D01*
X162497520Y-92944850D01*
X162487030Y-92922671D01*
X162478765Y-92899572D01*
X162472804Y-92875773D01*
X162469204Y-92851505D01*
X162468000Y-92827001D01*
X162468000Y-91576999D01*
X162469204Y-91552495D01*
X162472804Y-91528227D01*
X162478765Y-91504428D01*
X162487030Y-91481329D01*
X162497520Y-91459150D01*
X162510132Y-91438107D01*
X162524747Y-91418401D01*
X162541223Y-91400223D01*
X162559401Y-91383747D01*
X162579107Y-91369132D01*
X162600150Y-91356520D01*
X162622329Y-91346030D01*
X162645428Y-91337765D01*
X162669227Y-91331804D01*
X162693495Y-91328204D01*
X162717999Y-91327000D01*
X163418001Y-91327000D01*
X163442505Y-91328204D01*
X163442505Y-91328204D01*
G37*
D12*
X163068000Y-92202000D03*
D10*
X161068000Y-92202000D03*
X159068000Y-92202000D03*
X157068000Y-92202000D03*
D14*
X102108000Y-123602000D03*
X102108000Y-121602000D03*
X102108000Y-119602000D03*
D11*
G36*
X102757505Y-117003204D02*
G01*
X102781773Y-117006804D01*
X102805572Y-117012765D01*
X102828671Y-117021030D01*
X102850850Y-117031520D01*
X102871893Y-117044132D01*
X102891599Y-117058747D01*
X102909777Y-117075223D01*
X102926253Y-117093401D01*
X102940868Y-117113107D01*
X102953480Y-117134150D01*
X102963970Y-117156329D01*
X102972235Y-117179428D01*
X102978196Y-117203227D01*
X102981796Y-117227495D01*
X102983000Y-117251999D01*
X102983000Y-117952001D01*
X102981796Y-117976505D01*
X102978196Y-118000773D01*
X102972235Y-118024572D01*
X102963970Y-118047671D01*
X102953480Y-118069850D01*
X102940868Y-118090893D01*
X102926253Y-118110599D01*
X102909777Y-118128777D01*
X102891599Y-118145253D01*
X102871893Y-118159868D01*
X102850850Y-118172480D01*
X102828671Y-118182970D01*
X102805572Y-118191235D01*
X102781773Y-118197196D01*
X102757505Y-118200796D01*
X102733001Y-118202000D01*
X101482999Y-118202000D01*
X101458495Y-118200796D01*
X101434227Y-118197196D01*
X101410428Y-118191235D01*
X101387329Y-118182970D01*
X101365150Y-118172480D01*
X101344107Y-118159868D01*
X101324401Y-118145253D01*
X101306223Y-118128777D01*
X101289747Y-118110599D01*
X101275132Y-118090893D01*
X101262520Y-118069850D01*
X101252030Y-118047671D01*
X101243765Y-118024572D01*
X101237804Y-118000773D01*
X101234204Y-117976505D01*
X101233000Y-117952001D01*
X101233000Y-117251999D01*
X101234204Y-117227495D01*
X101237804Y-117203227D01*
X101243765Y-117179428D01*
X101252030Y-117156329D01*
X101262520Y-117134150D01*
X101275132Y-117113107D01*
X101289747Y-117093401D01*
X101306223Y-117075223D01*
X101324401Y-117058747D01*
X101344107Y-117044132D01*
X101365150Y-117031520D01*
X101387329Y-117021030D01*
X101410428Y-117012765D01*
X101434227Y-117006804D01*
X101458495Y-117003204D01*
X101482999Y-117002000D01*
X102733001Y-117002000D01*
X102757505Y-117003204D01*
X102757505Y-117003204D01*
G37*
D12*
X102108000Y-117602000D03*
D10*
X155098000Y-76454000D03*
X153098000Y-76454000D03*
X151098000Y-76454000D03*
D11*
G36*
X149472505Y-75580204D02*
G01*
X149496773Y-75583804D01*
X149520572Y-75589765D01*
X149543671Y-75598030D01*
X149565850Y-75608520D01*
X149586893Y-75621132D01*
X149606599Y-75635747D01*
X149624777Y-75652223D01*
X149641253Y-75670401D01*
X149655868Y-75690107D01*
X149668480Y-75711150D01*
X149678970Y-75733329D01*
X149687235Y-75756428D01*
X149693196Y-75780227D01*
X149696796Y-75804495D01*
X149698000Y-75828999D01*
X149698000Y-77079001D01*
X149696796Y-77103505D01*
X149693196Y-77127773D01*
X149687235Y-77151572D01*
X149678970Y-77174671D01*
X149668480Y-77196850D01*
X149655868Y-77217893D01*
X149641253Y-77237599D01*
X149624777Y-77255777D01*
X149606599Y-77272253D01*
X149586893Y-77286868D01*
X149565850Y-77299480D01*
X149543671Y-77309970D01*
X149520572Y-77318235D01*
X149496773Y-77324196D01*
X149472505Y-77327796D01*
X149448001Y-77329000D01*
X148747999Y-77329000D01*
X148723495Y-77327796D01*
X148699227Y-77324196D01*
X148675428Y-77318235D01*
X148652329Y-77309970D01*
X148630150Y-77299480D01*
X148609107Y-77286868D01*
X148589401Y-77272253D01*
X148571223Y-77255777D01*
X148554747Y-77237599D01*
X148540132Y-77217893D01*
X148527520Y-77196850D01*
X148517030Y-77174671D01*
X148508765Y-77151572D01*
X148502804Y-77127773D01*
X148499204Y-77103505D01*
X148498000Y-77079001D01*
X148498000Y-75828999D01*
X148499204Y-75804495D01*
X148502804Y-75780227D01*
X148508765Y-75756428D01*
X148517030Y-75733329D01*
X148527520Y-75711150D01*
X148540132Y-75690107D01*
X148554747Y-75670401D01*
X148571223Y-75652223D01*
X148589401Y-75635747D01*
X148609107Y-75621132D01*
X148630150Y-75608520D01*
X148652329Y-75598030D01*
X148675428Y-75589765D01*
X148699227Y-75583804D01*
X148723495Y-75580204D01*
X148747999Y-75579000D01*
X149448001Y-75579000D01*
X149472505Y-75580204D01*
X149472505Y-75580204D01*
G37*
D12*
X149098000Y-76454000D03*
D10*
X128748000Y-49784000D03*
X130748000Y-49784000D03*
X132748000Y-49784000D03*
X134748000Y-49784000D03*
X136748000Y-49784000D03*
X138748000Y-49784000D03*
X140748000Y-49784000D03*
D11*
G36*
X143122505Y-48910204D02*
G01*
X143146773Y-48913804D01*
X143170572Y-48919765D01*
X143193671Y-48928030D01*
X143215850Y-48938520D01*
X143236893Y-48951132D01*
X143256599Y-48965747D01*
X143274777Y-48982223D01*
X143291253Y-49000401D01*
X143305868Y-49020107D01*
X143318480Y-49041150D01*
X143328970Y-49063329D01*
X143337235Y-49086428D01*
X143343196Y-49110227D01*
X143346796Y-49134495D01*
X143348000Y-49158999D01*
X143348000Y-50409001D01*
X143346796Y-50433505D01*
X143343196Y-50457773D01*
X143337235Y-50481572D01*
X143328970Y-50504671D01*
X143318480Y-50526850D01*
X143305868Y-50547893D01*
X143291253Y-50567599D01*
X143274777Y-50585777D01*
X143256599Y-50602253D01*
X143236893Y-50616868D01*
X143215850Y-50629480D01*
X143193671Y-50639970D01*
X143170572Y-50648235D01*
X143146773Y-50654196D01*
X143122505Y-50657796D01*
X143098001Y-50659000D01*
X142397999Y-50659000D01*
X142373495Y-50657796D01*
X142349227Y-50654196D01*
X142325428Y-50648235D01*
X142302329Y-50639970D01*
X142280150Y-50629480D01*
X142259107Y-50616868D01*
X142239401Y-50602253D01*
X142221223Y-50585777D01*
X142204747Y-50567599D01*
X142190132Y-50547893D01*
X142177520Y-50526850D01*
X142167030Y-50504671D01*
X142158765Y-50481572D01*
X142152804Y-50457773D01*
X142149204Y-50433505D01*
X142148000Y-50409001D01*
X142148000Y-49158999D01*
X142149204Y-49134495D01*
X142152804Y-49110227D01*
X142158765Y-49086428D01*
X142167030Y-49063329D01*
X142177520Y-49041150D01*
X142190132Y-49020107D01*
X142204747Y-49000401D01*
X142221223Y-48982223D01*
X142239401Y-48965747D01*
X142259107Y-48951132D01*
X142280150Y-48938520D01*
X142302329Y-48928030D01*
X142325428Y-48919765D01*
X142349227Y-48913804D01*
X142373495Y-48910204D01*
X142397999Y-48909000D01*
X143098001Y-48909000D01*
X143122505Y-48910204D01*
X143122505Y-48910204D01*
G37*
D12*
X142748000Y-49784000D03*
D14*
X169418000Y-114142000D03*
X169418000Y-116142000D03*
X169418000Y-118142000D03*
D11*
G36*
X170067505Y-119543204D02*
G01*
X170091773Y-119546804D01*
X170115572Y-119552765D01*
X170138671Y-119561030D01*
X170160850Y-119571520D01*
X170181893Y-119584132D01*
X170201599Y-119598747D01*
X170219777Y-119615223D01*
X170236253Y-119633401D01*
X170250868Y-119653107D01*
X170263480Y-119674150D01*
X170273970Y-119696329D01*
X170282235Y-119719428D01*
X170288196Y-119743227D01*
X170291796Y-119767495D01*
X170293000Y-119791999D01*
X170293000Y-120492001D01*
X170291796Y-120516505D01*
X170288196Y-120540773D01*
X170282235Y-120564572D01*
X170273970Y-120587671D01*
X170263480Y-120609850D01*
X170250868Y-120630893D01*
X170236253Y-120650599D01*
X170219777Y-120668777D01*
X170201599Y-120685253D01*
X170181893Y-120699868D01*
X170160850Y-120712480D01*
X170138671Y-120722970D01*
X170115572Y-120731235D01*
X170091773Y-120737196D01*
X170067505Y-120740796D01*
X170043001Y-120742000D01*
X168792999Y-120742000D01*
X168768495Y-120740796D01*
X168744227Y-120737196D01*
X168720428Y-120731235D01*
X168697329Y-120722970D01*
X168675150Y-120712480D01*
X168654107Y-120699868D01*
X168634401Y-120685253D01*
X168616223Y-120668777D01*
X168599747Y-120650599D01*
X168585132Y-120630893D01*
X168572520Y-120609850D01*
X168562030Y-120587671D01*
X168553765Y-120564572D01*
X168547804Y-120540773D01*
X168544204Y-120516505D01*
X168543000Y-120492001D01*
X168543000Y-119791999D01*
X168544204Y-119767495D01*
X168547804Y-119743227D01*
X168553765Y-119719428D01*
X168562030Y-119696329D01*
X168572520Y-119674150D01*
X168585132Y-119653107D01*
X168599747Y-119633401D01*
X168616223Y-119615223D01*
X168634401Y-119598747D01*
X168654107Y-119584132D01*
X168675150Y-119571520D01*
X168697329Y-119561030D01*
X168720428Y-119552765D01*
X168744227Y-119546804D01*
X168768495Y-119543204D01*
X168792999Y-119542000D01*
X170043001Y-119542000D01*
X170067505Y-119543204D01*
X170067505Y-119543204D01*
G37*
D12*
X169418000Y-120142000D03*
D11*
G36*
X122802505Y-48910204D02*
G01*
X122826773Y-48913804D01*
X122850572Y-48919765D01*
X122873671Y-48928030D01*
X122895850Y-48938520D01*
X122916893Y-48951132D01*
X122936599Y-48965747D01*
X122954777Y-48982223D01*
X122971253Y-49000401D01*
X122985868Y-49020107D01*
X122998480Y-49041150D01*
X123008970Y-49063329D01*
X123017235Y-49086428D01*
X123023196Y-49110227D01*
X123026796Y-49134495D01*
X123028000Y-49158999D01*
X123028000Y-50409001D01*
X123026796Y-50433505D01*
X123023196Y-50457773D01*
X123017235Y-50481572D01*
X123008970Y-50504671D01*
X122998480Y-50526850D01*
X122985868Y-50547893D01*
X122971253Y-50567599D01*
X122954777Y-50585777D01*
X122936599Y-50602253D01*
X122916893Y-50616868D01*
X122895850Y-50629480D01*
X122873671Y-50639970D01*
X122850572Y-50648235D01*
X122826773Y-50654196D01*
X122802505Y-50657796D01*
X122778001Y-50659000D01*
X122077999Y-50659000D01*
X122053495Y-50657796D01*
X122029227Y-50654196D01*
X122005428Y-50648235D01*
X121982329Y-50639970D01*
X121960150Y-50629480D01*
X121939107Y-50616868D01*
X121919401Y-50602253D01*
X121901223Y-50585777D01*
X121884747Y-50567599D01*
X121870132Y-50547893D01*
X121857520Y-50526850D01*
X121847030Y-50504671D01*
X121838765Y-50481572D01*
X121832804Y-50457773D01*
X121829204Y-50433505D01*
X121828000Y-50409001D01*
X121828000Y-49158999D01*
X121829204Y-49134495D01*
X121832804Y-49110227D01*
X121838765Y-49086428D01*
X121847030Y-49063329D01*
X121857520Y-49041150D01*
X121870132Y-49020107D01*
X121884747Y-49000401D01*
X121901223Y-48982223D01*
X121919401Y-48965747D01*
X121939107Y-48951132D01*
X121960150Y-48938520D01*
X121982329Y-48928030D01*
X122005428Y-48919765D01*
X122029227Y-48913804D01*
X122053495Y-48910204D01*
X122077999Y-48909000D01*
X122778001Y-48909000D01*
X122802505Y-48910204D01*
X122802505Y-48910204D01*
G37*
D12*
X122428000Y-49784000D03*
D10*
X120428000Y-49784000D03*
X118428000Y-49784000D03*
X116428000Y-49784000D03*
X114428000Y-49784000D03*
X112428000Y-49784000D03*
X110428000Y-49784000D03*
X108428000Y-49784000D03*
X133508000Y-130302000D03*
X131508000Y-130302000D03*
X129508000Y-130302000D03*
D11*
G36*
X127882505Y-129428204D02*
G01*
X127906773Y-129431804D01*
X127930572Y-129437765D01*
X127953671Y-129446030D01*
X127975850Y-129456520D01*
X127996893Y-129469132D01*
X128016599Y-129483747D01*
X128034777Y-129500223D01*
X128051253Y-129518401D01*
X128065868Y-129538107D01*
X128078480Y-129559150D01*
X128088970Y-129581329D01*
X128097235Y-129604428D01*
X128103196Y-129628227D01*
X128106796Y-129652495D01*
X128108000Y-129676999D01*
X128108000Y-130927001D01*
X128106796Y-130951505D01*
X128103196Y-130975773D01*
X128097235Y-130999572D01*
X128088970Y-131022671D01*
X128078480Y-131044850D01*
X128065868Y-131065893D01*
X128051253Y-131085599D01*
X128034777Y-131103777D01*
X128016599Y-131120253D01*
X127996893Y-131134868D01*
X127975850Y-131147480D01*
X127953671Y-131157970D01*
X127930572Y-131166235D01*
X127906773Y-131172196D01*
X127882505Y-131175796D01*
X127858001Y-131177000D01*
X127157999Y-131177000D01*
X127133495Y-131175796D01*
X127109227Y-131172196D01*
X127085428Y-131166235D01*
X127062329Y-131157970D01*
X127040150Y-131147480D01*
X127019107Y-131134868D01*
X126999401Y-131120253D01*
X126981223Y-131103777D01*
X126964747Y-131085599D01*
X126950132Y-131065893D01*
X126937520Y-131044850D01*
X126927030Y-131022671D01*
X126918765Y-130999572D01*
X126912804Y-130975773D01*
X126909204Y-130951505D01*
X126908000Y-130927001D01*
X126908000Y-129676999D01*
X126909204Y-129652495D01*
X126912804Y-129628227D01*
X126918765Y-129604428D01*
X126927030Y-129581329D01*
X126937520Y-129559150D01*
X126950132Y-129538107D01*
X126964747Y-129518401D01*
X126981223Y-129500223D01*
X126999401Y-129483747D01*
X127019107Y-129469132D01*
X127040150Y-129456520D01*
X127062329Y-129446030D01*
X127085428Y-129437765D01*
X127109227Y-129431804D01*
X127133495Y-129428204D01*
X127157999Y-129427000D01*
X127858001Y-129427000D01*
X127882505Y-129428204D01*
X127882505Y-129428204D01*
G37*
D12*
X127508000Y-130302000D03*
D11*
G36*
X155822505Y-48910204D02*
G01*
X155846773Y-48913804D01*
X155870572Y-48919765D01*
X155893671Y-48928030D01*
X155915850Y-48938520D01*
X155936893Y-48951132D01*
X155956599Y-48965747D01*
X155974777Y-48982223D01*
X155991253Y-49000401D01*
X156005868Y-49020107D01*
X156018480Y-49041150D01*
X156028970Y-49063329D01*
X156037235Y-49086428D01*
X156043196Y-49110227D01*
X156046796Y-49134495D01*
X156048000Y-49158999D01*
X156048000Y-50409001D01*
X156046796Y-50433505D01*
X156043196Y-50457773D01*
X156037235Y-50481572D01*
X156028970Y-50504671D01*
X156018480Y-50526850D01*
X156005868Y-50547893D01*
X155991253Y-50567599D01*
X155974777Y-50585777D01*
X155956599Y-50602253D01*
X155936893Y-50616868D01*
X155915850Y-50629480D01*
X155893671Y-50639970D01*
X155870572Y-50648235D01*
X155846773Y-50654196D01*
X155822505Y-50657796D01*
X155798001Y-50659000D01*
X155097999Y-50659000D01*
X155073495Y-50657796D01*
X155049227Y-50654196D01*
X155025428Y-50648235D01*
X155002329Y-50639970D01*
X154980150Y-50629480D01*
X154959107Y-50616868D01*
X154939401Y-50602253D01*
X154921223Y-50585777D01*
X154904747Y-50567599D01*
X154890132Y-50547893D01*
X154877520Y-50526850D01*
X154867030Y-50504671D01*
X154858765Y-50481572D01*
X154852804Y-50457773D01*
X154849204Y-50433505D01*
X154848000Y-50409001D01*
X154848000Y-49158999D01*
X154849204Y-49134495D01*
X154852804Y-49110227D01*
X154858765Y-49086428D01*
X154867030Y-49063329D01*
X154877520Y-49041150D01*
X154890132Y-49020107D01*
X154904747Y-49000401D01*
X154921223Y-48982223D01*
X154939401Y-48965747D01*
X154959107Y-48951132D01*
X154980150Y-48938520D01*
X155002329Y-48928030D01*
X155025428Y-48919765D01*
X155049227Y-48913804D01*
X155073495Y-48910204D01*
X155097999Y-48909000D01*
X155798001Y-48909000D01*
X155822505Y-48910204D01*
X155822505Y-48910204D01*
G37*
D12*
X155448000Y-49784000D03*
D10*
X153448000Y-49784000D03*
X151448000Y-49784000D03*
X149448000Y-49784000D03*
D11*
G36*
X111372505Y-129428204D02*
G01*
X111396773Y-129431804D01*
X111420572Y-129437765D01*
X111443671Y-129446030D01*
X111465850Y-129456520D01*
X111486893Y-129469132D01*
X111506599Y-129483747D01*
X111524777Y-129500223D01*
X111541253Y-129518401D01*
X111555868Y-129538107D01*
X111568480Y-129559150D01*
X111578970Y-129581329D01*
X111587235Y-129604428D01*
X111593196Y-129628227D01*
X111596796Y-129652495D01*
X111598000Y-129676999D01*
X111598000Y-130927001D01*
X111596796Y-130951505D01*
X111593196Y-130975773D01*
X111587235Y-130999572D01*
X111578970Y-131022671D01*
X111568480Y-131044850D01*
X111555868Y-131065893D01*
X111541253Y-131085599D01*
X111524777Y-131103777D01*
X111506599Y-131120253D01*
X111486893Y-131134868D01*
X111465850Y-131147480D01*
X111443671Y-131157970D01*
X111420572Y-131166235D01*
X111396773Y-131172196D01*
X111372505Y-131175796D01*
X111348001Y-131177000D01*
X110647999Y-131177000D01*
X110623495Y-131175796D01*
X110599227Y-131172196D01*
X110575428Y-131166235D01*
X110552329Y-131157970D01*
X110530150Y-131147480D01*
X110509107Y-131134868D01*
X110489401Y-131120253D01*
X110471223Y-131103777D01*
X110454747Y-131085599D01*
X110440132Y-131065893D01*
X110427520Y-131044850D01*
X110417030Y-131022671D01*
X110408765Y-130999572D01*
X110402804Y-130975773D01*
X110399204Y-130951505D01*
X110398000Y-130927001D01*
X110398000Y-129676999D01*
X110399204Y-129652495D01*
X110402804Y-129628227D01*
X110408765Y-129604428D01*
X110417030Y-129581329D01*
X110427520Y-129559150D01*
X110440132Y-129538107D01*
X110454747Y-129518401D01*
X110471223Y-129500223D01*
X110489401Y-129483747D01*
X110509107Y-129469132D01*
X110530150Y-129456520D01*
X110552329Y-129446030D01*
X110575428Y-129437765D01*
X110599227Y-129431804D01*
X110623495Y-129428204D01*
X110647999Y-129427000D01*
X111348001Y-129427000D01*
X111372505Y-129428204D01*
X111372505Y-129428204D01*
G37*
D12*
X110998000Y-130302000D03*
D10*
X112998000Y-130302000D03*
X114998000Y-130302000D03*
X116998000Y-130302000D03*
X118998000Y-130302000D03*
D15*
X125476000Y-94996000D03*
X132080000Y-102362000D03*
X151130000Y-121666000D03*
X152400000Y-122936000D03*
X154178000Y-121158000D03*
X153162000Y-119634000D03*
X137922000Y-96520000D03*
X162274970Y-99314000D03*
X112522000Y-128524000D03*
X121920000Y-106426000D03*
X138684000Y-99822000D03*
X162724980Y-103378000D03*
X124460000Y-96012000D03*
X128270000Y-103341000D03*
X161290000Y-99822000D03*
X107442000Y-102362000D03*
X111126010Y-101346000D03*
X99351000Y-103124000D03*
X153923347Y-90932653D03*
X129032000Y-132227010D03*
X112522000Y-98044000D03*
X112338051Y-103341000D03*
X122936000Y-97282000D03*
X124968000Y-103341000D03*
X121920000Y-98044000D03*
X123698000Y-103378000D03*
X140822153Y-95143847D03*
X122973000Y-104648000D03*
X142240000Y-96266000D03*
X121158000Y-105664000D03*
X119126000Y-120650000D03*
X140970000Y-128016000D03*
X129286000Y-108458000D03*
X106605847Y-103303847D03*
X111506000Y-102616000D03*
X138399847Y-94772153D03*
X108458000Y-101092000D03*
X111126010Y-100076000D03*
X111126010Y-99075997D03*
X108458000Y-99568000D03*
D16*
X170618010Y-101976990D02*
X169693000Y-102902000D01*
X159143010Y-91001990D02*
X163656180Y-91001990D01*
X170618010Y-97963820D02*
X170618010Y-101976990D01*
X159068000Y-91077000D02*
X159143010Y-91001990D01*
X163656180Y-91001990D02*
X170618010Y-97963820D01*
X159068000Y-92202000D02*
X159068000Y-91077000D01*
X169693000Y-102902000D02*
X169418000Y-102902000D01*
X170618010Y-103827010D02*
X169693000Y-102902000D01*
X170618010Y-115216990D02*
X170618010Y-103827010D01*
X169693000Y-116142000D02*
X170618010Y-115216990D01*
X146403010Y-131502010D02*
X145478000Y-130577000D01*
X156492990Y-131502010D02*
X146403010Y-131502010D01*
X156718000Y-131277000D02*
X156492990Y-131502010D01*
X156718000Y-130302000D02*
X156718000Y-131277000D01*
X145478000Y-130577000D02*
X145478000Y-130302000D01*
X144552990Y-131502010D02*
X145478000Y-130577000D01*
X132433010Y-131502010D02*
X144552990Y-131502010D01*
X131508000Y-130577000D02*
X132433010Y-131502010D01*
X131508000Y-130577000D02*
X131508000Y-130302000D01*
X113923010Y-131502010D02*
X130582990Y-131502010D01*
X130582990Y-131502010D02*
X131508000Y-130577000D01*
X112998000Y-130577000D02*
X113923010Y-131502010D01*
X112998000Y-130302000D02*
X112998000Y-130577000D01*
X157388710Y-130972710D02*
X156718000Y-130302000D01*
X157918010Y-131502010D02*
X157388710Y-130972710D01*
X161101151Y-131502010D02*
X157918010Y-131502010D01*
X170618010Y-121985151D02*
X161101151Y-131502010D01*
X170618010Y-117067010D02*
X170618010Y-121985151D01*
X169693000Y-116142000D02*
X170618010Y-117067010D01*
X169418000Y-116142000D02*
X169693000Y-116142000D01*
X101833000Y-119602000D02*
X102108000Y-119602000D01*
X100076000Y-117845000D02*
X101833000Y-119602000D01*
X100076000Y-102309000D02*
X100076000Y-117845000D01*
X101833000Y-100552000D02*
X100076000Y-102309000D01*
X102108000Y-100552000D02*
X101833000Y-100552000D01*
X112998000Y-130217000D02*
X112998000Y-130302000D01*
X102383000Y-119602000D02*
X112998000Y-130217000D01*
X102108000Y-119602000D02*
X102383000Y-119602000D01*
X125476000Y-92202000D02*
X125476000Y-94996000D01*
X151130000Y-121412000D02*
X151130000Y-121666000D01*
X132080000Y-102362000D02*
X151130000Y-121412000D01*
X158718000Y-129254000D02*
X158718000Y-130302000D01*
X152400000Y-122936000D02*
X158718000Y-129254000D01*
X160718000Y-127698000D02*
X154178000Y-121158000D01*
X160718000Y-130302000D02*
X160718000Y-127698000D01*
X137922000Y-104394000D02*
X137922000Y-96520000D01*
X153162000Y-119634000D02*
X137922000Y-104394000D01*
X104802930Y-48007449D02*
X104802930Y-53439070D01*
X104802930Y-53439070D02*
X102108000Y-56134000D01*
X106926445Y-45883934D02*
X104802930Y-48007449D01*
X118527933Y-45883933D02*
X106926445Y-45883934D01*
X122428000Y-49784000D02*
X118527933Y-45883933D01*
X103920984Y-73759066D02*
X104395980Y-73284070D01*
X98207939Y-60034061D02*
X98207939Y-71635552D01*
X100331453Y-73759066D02*
X103920984Y-73759066D01*
X98207939Y-71635552D02*
X100331453Y-73759066D01*
X102108000Y-56134000D02*
X98207939Y-60034061D01*
X105288070Y-73284070D02*
X108458000Y-76454000D01*
X104395980Y-73284070D02*
X105288070Y-73284070D01*
X126652060Y-76454000D02*
X128778000Y-76454000D01*
X126144060Y-76962000D02*
X126652060Y-76454000D01*
X126144060Y-78588400D02*
X126144060Y-76962000D01*
X112358070Y-80354070D02*
X124378390Y-80354070D01*
X124378390Y-80354070D02*
X126144060Y-78588400D01*
X108458000Y-76454000D02*
X112358070Y-80354070D01*
X142077290Y-49113290D02*
X142748000Y-49784000D01*
X138847930Y-45883930D02*
X142077290Y-49113290D01*
X127246449Y-45883930D02*
X138847930Y-45883930D01*
X123346379Y-49784000D02*
X127246449Y-45883930D01*
X122428000Y-49784000D02*
X123346379Y-49784000D01*
X159908837Y-49926837D02*
X161798000Y-51816000D01*
X146304000Y-46228000D02*
X146426770Y-46228000D01*
X163453230Y-51816000D02*
X165698070Y-54060840D01*
X159908837Y-46731321D02*
X159908837Y-49926837D01*
X159405516Y-46228000D02*
X159908837Y-46731321D01*
X165698070Y-54060840D02*
X165698070Y-66203930D01*
X146426770Y-46228000D02*
X146770840Y-45883930D01*
X157734000Y-46228000D02*
X159405516Y-46228000D01*
X157389930Y-45883930D02*
X157734000Y-46228000D01*
X146770840Y-45883930D02*
X157389930Y-45883930D01*
X165698070Y-66203930D02*
X161798000Y-70104000D01*
X161798000Y-51816000D02*
X163453230Y-51816000D01*
X142748000Y-49784000D02*
X146304000Y-46228000D01*
X102383000Y-58134000D02*
X102108000Y-58134000D01*
X105252940Y-48193849D02*
X105252940Y-55264060D01*
X117252942Y-46333942D02*
X107112846Y-46333943D01*
X107112846Y-46333943D02*
X105252940Y-48193849D01*
X120428000Y-49509000D02*
X117252942Y-46333942D01*
X105252940Y-55264060D02*
X102383000Y-58134000D01*
X120428000Y-49784000D02*
X120428000Y-49509000D01*
X103734584Y-73309056D02*
X104209580Y-72834060D01*
X100517852Y-73309057D02*
X103734584Y-73309056D01*
X101833000Y-58134000D02*
X98657945Y-61309055D01*
X98657947Y-71449156D02*
X100517852Y-73309057D01*
X98657945Y-61309055D02*
X98657947Y-71449156D01*
X102108000Y-58134000D02*
X101833000Y-58134000D01*
X110458000Y-76179000D02*
X110458000Y-76454000D01*
X107113060Y-72834060D02*
X110458000Y-76179000D01*
X104209580Y-72834060D02*
X107113060Y-72834060D01*
X110458000Y-76729000D02*
X113633060Y-79904060D01*
X113633060Y-79904060D02*
X116360240Y-79904060D01*
X110458000Y-76454000D02*
X110458000Y-76729000D01*
X124191991Y-79904059D02*
X125694050Y-78402000D01*
X117961940Y-79904060D02*
X124191991Y-79904059D01*
X116360240Y-79904060D02*
X117961940Y-79904060D01*
X117961940Y-79904060D02*
X118110000Y-79904060D01*
X125694050Y-78402000D02*
X125694050Y-75911410D01*
X130778000Y-76179000D02*
X130778000Y-76454000D01*
X129529000Y-74930000D02*
X130778000Y-76179000D01*
X126675460Y-74930000D02*
X129529000Y-74930000D01*
X125694050Y-75911410D02*
X126675460Y-74930000D01*
X137572940Y-46333940D02*
X140748000Y-49509000D01*
X123767990Y-50984010D02*
X124831391Y-49920609D01*
X127432849Y-46333940D02*
X137572940Y-46333940D01*
X120503010Y-50984010D02*
X123767990Y-50984010D01*
X120428000Y-50909000D02*
X120503010Y-50984010D01*
X124831391Y-49920609D02*
X124831392Y-48935397D01*
X140748000Y-49509000D02*
X140748000Y-49784000D01*
X124831392Y-48935397D02*
X127432849Y-46333940D01*
X120428000Y-49784000D02*
X120428000Y-50909000D01*
X162073000Y-68104000D02*
X161798000Y-68104000D01*
X164659025Y-53658205D02*
X165248060Y-54247240D01*
X164527795Y-53658205D02*
X164659025Y-53658205D01*
X163193590Y-52324000D02*
X164527795Y-53658205D01*
X159458828Y-50113238D02*
X161669590Y-52324000D01*
X159458827Y-47190827D02*
X159458828Y-50113238D01*
X161669590Y-52324000D02*
X163193590Y-52324000D01*
X157203530Y-46333940D02*
X157547600Y-46678010D01*
X146613170Y-46678010D02*
X146957240Y-46333940D01*
X144272000Y-48896410D02*
X146490400Y-46678010D01*
X158946010Y-46678010D02*
X159458827Y-47190827D01*
X157547600Y-46678010D02*
X158946010Y-46678010D01*
X146957240Y-46333940D02*
X157203530Y-46333940D01*
X140748000Y-50909000D02*
X140823010Y-50984010D01*
X144272000Y-50048190D02*
X144272000Y-48896410D01*
X140823010Y-50984010D02*
X143336180Y-50984010D01*
X146490400Y-46678010D02*
X146613170Y-46678010D01*
X165248060Y-54247240D02*
X165248060Y-64928940D01*
X143336180Y-50984010D02*
X144272000Y-50048190D01*
X165248060Y-64928940D02*
X162073000Y-68104000D01*
X140748000Y-49784000D02*
X140748000Y-50909000D01*
X102383000Y-60134000D02*
X102108000Y-60134000D01*
X105702950Y-56814050D02*
X102383000Y-60134000D01*
X105702950Y-48380249D02*
X105702950Y-56814050D01*
X107299247Y-46783952D02*
X105702950Y-48380249D01*
X116552951Y-46783951D02*
X107299247Y-46783952D01*
X118428000Y-48659000D02*
X116552951Y-46783951D01*
X118428000Y-49784000D02*
X118428000Y-48659000D01*
X99107955Y-71262755D02*
X100704251Y-72859048D01*
X99107954Y-62859046D02*
X99107955Y-71262755D01*
X103548183Y-72859047D02*
X104023180Y-72384050D01*
X101833000Y-60134000D02*
X99107954Y-62859046D01*
X100704251Y-72859048D02*
X103548183Y-72859047D01*
X102108000Y-60134000D02*
X101833000Y-60134000D01*
X112458000Y-76179000D02*
X112458000Y-76454000D01*
X108663050Y-72384050D02*
X112458000Y-76179000D01*
X104023180Y-72384050D02*
X108663050Y-72384050D01*
X132778000Y-76179000D02*
X132778000Y-76454000D01*
X126489060Y-74479990D02*
X131078990Y-74479990D01*
X131078990Y-74479990D02*
X132778000Y-76179000D01*
X125244040Y-78215600D02*
X125244040Y-75725010D01*
X124005590Y-79454050D02*
X125244040Y-78215600D01*
X112458000Y-76729000D02*
X115183050Y-79454050D01*
X115183050Y-79454050D02*
X124005590Y-79454050D01*
X125244040Y-75725010D02*
X126489060Y-74479990D01*
X112458000Y-76454000D02*
X112458000Y-76729000D01*
X138748000Y-49509000D02*
X138748000Y-49784000D01*
X127619249Y-46783950D02*
X136022950Y-46783950D01*
X119803020Y-51434020D02*
X123954391Y-51434019D01*
X125281401Y-49121798D02*
X127619249Y-46783950D01*
X125281400Y-50107010D02*
X125281401Y-49121798D01*
X118428000Y-50059000D02*
X119803020Y-51434020D01*
X123954391Y-51434019D02*
X125281400Y-50107010D01*
X136022950Y-46783950D02*
X138748000Y-49509000D01*
X118428000Y-49784000D02*
X118428000Y-50059000D01*
X164798050Y-63378950D02*
X162073000Y-66104000D01*
X164798050Y-54433640D02*
X164798050Y-63378950D01*
X164472625Y-54108215D02*
X164798050Y-54433640D01*
X162073000Y-66104000D02*
X161798000Y-66104000D01*
X161483190Y-52774010D02*
X163007190Y-52774010D01*
X159008819Y-50299639D02*
X161483190Y-52774010D01*
X158634020Y-47128020D02*
X159008819Y-47502819D01*
X144780000Y-49024820D02*
X146676800Y-47128020D01*
X157058830Y-47128020D02*
X158634020Y-47128020D01*
X163007190Y-52774010D02*
X164341395Y-54108215D01*
X159008819Y-47502819D02*
X159008819Y-50299639D01*
X147143640Y-46783950D02*
X156714760Y-46783950D01*
X138748000Y-49784000D02*
X138748000Y-50059000D01*
X156714760Y-46783950D02*
X157058830Y-47128020D01*
X146676800Y-47128020D02*
X146799570Y-47128020D01*
X144780000Y-50176600D02*
X144780000Y-49024820D01*
X146799570Y-47128020D02*
X147143640Y-46783950D01*
X140123020Y-51434020D02*
X143522581Y-51434019D01*
X164341395Y-54108215D02*
X164472625Y-54108215D01*
X138748000Y-50059000D02*
X140123020Y-51434020D01*
X143522581Y-51434019D02*
X144780000Y-50176600D01*
X102383000Y-62134000D02*
X102108000Y-62134000D01*
X115002960Y-47233960D02*
X107485648Y-47233961D01*
X116428000Y-48659000D02*
X115002960Y-47233960D01*
X106152960Y-48566649D02*
X106152960Y-58364040D01*
X107485648Y-47233961D02*
X106152960Y-48566649D01*
X106152960Y-58364040D02*
X102383000Y-62134000D01*
X116428000Y-49784000D02*
X116428000Y-48659000D01*
X99557963Y-71076354D02*
X100890650Y-72409039D01*
X99557962Y-63559038D02*
X99557963Y-71076354D01*
X100983000Y-62134000D02*
X99557962Y-63559038D01*
X100890650Y-72409039D02*
X103361782Y-72409038D01*
X102108000Y-62134000D02*
X100983000Y-62134000D01*
X103361782Y-72409038D02*
X103836780Y-71934040D01*
X110213040Y-71934040D02*
X114458000Y-76179000D01*
X114458000Y-76179000D02*
X114458000Y-76454000D01*
X103836780Y-71934040D02*
X110213040Y-71934040D01*
X134778000Y-76179000D02*
X134778000Y-76454000D01*
X126302660Y-74029980D02*
X132628980Y-74029980D01*
X124794030Y-78029200D02*
X124794030Y-75538610D01*
X116733040Y-79004040D02*
X123819191Y-79004039D01*
X132628980Y-74029980D02*
X134778000Y-76179000D01*
X123819191Y-79004039D02*
X124794030Y-78029200D01*
X114458000Y-76729000D02*
X116733040Y-79004040D01*
X124794030Y-75538610D02*
X126302660Y-74029980D01*
X114458000Y-76454000D02*
X114458000Y-76729000D01*
X118253030Y-51884030D02*
X120130210Y-51884030D01*
X116428000Y-50059000D02*
X118253030Y-51884030D01*
X116428000Y-49784000D02*
X116428000Y-50059000D01*
X120130210Y-51884030D02*
X122174000Y-51884030D01*
X124140788Y-51884030D02*
X124140792Y-51884028D01*
X122174000Y-51884030D02*
X124140788Y-51884030D01*
X125731410Y-49308199D02*
X127805649Y-47233960D01*
X125731409Y-50293409D02*
X125731410Y-49308199D01*
X124140788Y-51884030D02*
X125731409Y-50293409D01*
X136748000Y-49509000D02*
X136748000Y-49784000D01*
X134472960Y-47233960D02*
X136748000Y-49509000D01*
X127805649Y-47233960D02*
X134472960Y-47233960D01*
X162073000Y-64104000D02*
X161798000Y-64104000D01*
X164348040Y-61828960D02*
X162073000Y-64104000D01*
X164348040Y-54620040D02*
X164348040Y-56201600D01*
X164154994Y-54558224D02*
X164286224Y-54558224D01*
X164348040Y-56201600D02*
X164348040Y-61711960D01*
X158558809Y-50486039D02*
X161296790Y-53224020D01*
X164286224Y-54558224D02*
X164348040Y-54620040D01*
X162820790Y-53224020D02*
X164154994Y-54558224D01*
X158558809Y-47814809D02*
X158558809Y-50486039D01*
X138573028Y-51884028D02*
X143708982Y-51884028D01*
X156872430Y-47578030D02*
X158322030Y-47578030D01*
X143708982Y-51884028D02*
X145230010Y-50363000D01*
X156528360Y-47233960D02*
X156872430Y-47578030D01*
X145230010Y-49333990D02*
X147330040Y-47233960D01*
X161296790Y-53224020D02*
X162820790Y-53224020D01*
X145230010Y-50363000D02*
X145230010Y-49333990D01*
X147330040Y-47233960D02*
X156528360Y-47233960D01*
X136748000Y-50059000D02*
X138573028Y-51884028D01*
X158322030Y-47578030D02*
X158558809Y-47814809D01*
X136748000Y-49784000D02*
X136748000Y-50059000D01*
X102383000Y-64134000D02*
X102108000Y-64134000D01*
X106602970Y-59914030D02*
X102383000Y-64134000D01*
X113452970Y-47683970D02*
X107672049Y-47683970D01*
X106602970Y-48753049D02*
X106602970Y-59914030D01*
X107672049Y-47683970D02*
X106602970Y-48753049D01*
X114428000Y-48659000D02*
X113452970Y-47683970D01*
X114428000Y-49784000D02*
X114428000Y-48659000D01*
X116458000Y-72088230D02*
X116458000Y-76454000D01*
X115881790Y-71512020D02*
X116458000Y-72088230D01*
X114943200Y-71512020D02*
X115881790Y-71512020D01*
X114915210Y-71484030D02*
X114943200Y-71512020D01*
X103650380Y-71484030D02*
X114915210Y-71484030D01*
X101077049Y-71959030D02*
X103175381Y-71959029D01*
X100007971Y-65959029D02*
X100007972Y-70889953D01*
X103175381Y-71959029D02*
X103650380Y-71484030D01*
X102108000Y-64134000D02*
X101833000Y-64134000D01*
X101833000Y-64134000D02*
X100007971Y-65959029D01*
X100007972Y-70889953D02*
X101077049Y-71959030D01*
X136778000Y-76179000D02*
X136778000Y-76454000D01*
X124344020Y-75352210D02*
X126116260Y-73579970D01*
X126116260Y-73579970D02*
X134178970Y-73579970D01*
X124344020Y-77842800D02*
X124344020Y-75352210D01*
X134178970Y-73579970D02*
X136778000Y-76179000D01*
X116458000Y-76454000D02*
X116458000Y-76729000D01*
X123632790Y-78554030D02*
X124344020Y-77842800D01*
X118283030Y-78554030D02*
X123632790Y-78554030D01*
X116458000Y-76729000D02*
X118283030Y-78554030D01*
X146997972Y-78554028D02*
X149098000Y-76454000D01*
X138603029Y-78554028D02*
X146997972Y-78554028D01*
X136778000Y-76729000D02*
X138603029Y-78554028D01*
X136778000Y-76454000D02*
X136778000Y-76729000D01*
X114428000Y-50059000D02*
X114428000Y-49784000D01*
X116703040Y-52334040D02*
X114428000Y-50059000D01*
X124327188Y-52334040D02*
X116703040Y-52334040D01*
X126181419Y-50479811D02*
X124327188Y-52334040D01*
X132922970Y-47683970D02*
X134748000Y-49509000D01*
X127992049Y-47683970D02*
X132922970Y-47683970D01*
X126181419Y-49494600D02*
X127992049Y-47683970D01*
X134748000Y-49509000D02*
X134748000Y-49784000D01*
X126181419Y-50479811D02*
X126181419Y-49494600D01*
X155448000Y-48536040D02*
X155448000Y-49784000D01*
X147516440Y-47683970D02*
X154595930Y-47683970D01*
X154595930Y-47683970D02*
X155448000Y-48536040D01*
X145680020Y-49520390D02*
X147516440Y-47683970D01*
X143895383Y-52334037D02*
X145680020Y-50549400D01*
X145680020Y-50549400D02*
X145680020Y-49520390D01*
X137023037Y-52334037D02*
X143895383Y-52334037D01*
X134748000Y-50059000D02*
X137023037Y-52334037D01*
X134748000Y-49784000D02*
X134748000Y-50059000D01*
X159338030Y-53674030D02*
X155448000Y-49784000D01*
X163898030Y-60278970D02*
X163898030Y-54937670D01*
X162634390Y-53674030D02*
X159338030Y-53674030D01*
X163898030Y-54937670D02*
X162634390Y-53674030D01*
X162073000Y-62104000D02*
X163898030Y-60278970D01*
X161798000Y-62104000D02*
X162073000Y-62104000D01*
X111052980Y-48133980D02*
X107858449Y-48133980D01*
X112428000Y-49509000D02*
X111052980Y-48133980D01*
X107858449Y-48133980D02*
X107052980Y-48939449D01*
X112428000Y-49784000D02*
X112428000Y-49509000D01*
X107052980Y-48939449D02*
X107052980Y-50038000D01*
X107052980Y-61464020D02*
X102108000Y-66409000D01*
X107052980Y-50038000D02*
X107052980Y-61464020D01*
X102988980Y-71509020D02*
X103463980Y-71034020D01*
X100457981Y-70703552D02*
X101263449Y-71509020D01*
X102108000Y-66134000D02*
X101833000Y-66134000D01*
X101833000Y-66134000D02*
X100457980Y-67509020D01*
X101263449Y-71509020D02*
X102988980Y-71509020D01*
X100457980Y-67509020D02*
X100457981Y-70703552D01*
X115101610Y-71034020D02*
X115129600Y-71062010D01*
X103463980Y-71034020D02*
X115101610Y-71034020D01*
X115129600Y-71062010D02*
X116068190Y-71062010D01*
X118458000Y-73451820D02*
X118458000Y-76454000D01*
X116068190Y-71062010D02*
X118458000Y-73451820D01*
X138778000Y-76179000D02*
X138778000Y-76454000D01*
X125929860Y-73129960D02*
X135728960Y-73129960D01*
X123894010Y-75165810D02*
X125929860Y-73129960D01*
X123446391Y-78104019D02*
X123894010Y-77656400D01*
X123894010Y-77656400D02*
X123894010Y-75165810D01*
X119833020Y-78104020D02*
X123446391Y-78104019D01*
X118458000Y-76729000D02*
X119833020Y-78104020D01*
X135728960Y-73129960D02*
X138778000Y-76179000D01*
X118458000Y-76454000D02*
X118458000Y-76729000D01*
X140153020Y-78104020D02*
X143512391Y-78104019D01*
X138778000Y-76729000D02*
X140153020Y-78104020D01*
X138778000Y-76454000D02*
X138778000Y-76729000D01*
X143512391Y-78104019D02*
X146998400Y-74618010D01*
X151098000Y-76179000D02*
X151098000Y-76454000D01*
X149537010Y-74618010D02*
X151098000Y-76179000D01*
X146998400Y-74618010D02*
X149537010Y-74618010D01*
X132748000Y-49509000D02*
X132748000Y-49784000D01*
X127372981Y-48939448D02*
X128178449Y-48133980D01*
X131372980Y-48133980D02*
X132748000Y-49509000D01*
X124513588Y-52784050D02*
X127372980Y-49924659D01*
X128178449Y-48133980D02*
X131372980Y-48133980D01*
X115153050Y-52784050D02*
X124513588Y-52784050D01*
X112428000Y-50059000D02*
X115153050Y-52784050D01*
X127372980Y-49924659D02*
X127372981Y-48939448D01*
X112428000Y-49784000D02*
X112428000Y-50059000D01*
X152072980Y-48133980D02*
X153448000Y-49509000D01*
X147702840Y-48133980D02*
X152072980Y-48133980D01*
X146130030Y-50735800D02*
X146130030Y-49706790D01*
X146130030Y-49706790D02*
X147702840Y-48133980D01*
X135473047Y-52784047D02*
X144081784Y-52784046D01*
X153448000Y-49509000D02*
X153448000Y-49784000D01*
X132748000Y-50059000D02*
X135473047Y-52784047D01*
X144081784Y-52784046D02*
X146130030Y-50735800D01*
X132748000Y-49784000D02*
X132748000Y-50059000D01*
X156011600Y-50984010D02*
X154373010Y-50984010D01*
X159151630Y-54124040D02*
X156011600Y-50984010D01*
X153448000Y-50059000D02*
X153448000Y-49784000D01*
X162447990Y-54124040D02*
X159151630Y-54124040D01*
X163448020Y-55124070D02*
X162447990Y-54124040D01*
X163448020Y-59578980D02*
X163448020Y-55124070D01*
X162923000Y-60104000D02*
X163448020Y-59578980D01*
X154373010Y-50984010D02*
X153448000Y-50059000D01*
X161798000Y-60104000D02*
X162923000Y-60104000D01*
X102383000Y-68134000D02*
X102108000Y-68134000D01*
X107502990Y-63014010D02*
X102383000Y-68134000D01*
X107502990Y-49125849D02*
X107502990Y-63014010D01*
X108044849Y-48583990D02*
X107502990Y-49125849D01*
X109502990Y-48583990D02*
X108044849Y-48583990D01*
X110428000Y-49509000D02*
X109502990Y-48583990D01*
X110428000Y-49784000D02*
X110428000Y-49509000D01*
X102766151Y-71059010D02*
X103241151Y-70584010D01*
X101449849Y-71059010D02*
X102766151Y-71059010D01*
X101833000Y-68134000D02*
X100907990Y-69059010D01*
X100907990Y-70517151D02*
X101449849Y-71059010D01*
X100907990Y-69059010D02*
X100907990Y-70517151D01*
X102108000Y-68134000D02*
X101833000Y-68134000D01*
X103241151Y-70584010D02*
X115288010Y-70584010D01*
X115316000Y-70612000D02*
X116254590Y-70612000D01*
X115288010Y-70584010D02*
X115316000Y-70612000D01*
X120458000Y-74815410D02*
X120458000Y-76454000D01*
X116254590Y-70612000D02*
X120458000Y-74815410D01*
X140778000Y-76179000D02*
X140778000Y-76454000D01*
X137278950Y-72679950D02*
X140778000Y-76179000D01*
X123444000Y-74979410D02*
X125743460Y-72679950D01*
X123444000Y-77470000D02*
X123444000Y-74979410D01*
X123259990Y-77654010D02*
X123444000Y-77470000D01*
X125743460Y-72679950D02*
X137278950Y-72679950D01*
X121890839Y-77470000D02*
X122074849Y-77654010D01*
X122074849Y-77654010D02*
X123259990Y-77654010D01*
X121158000Y-77470000D02*
X121890839Y-77470000D01*
X120458000Y-76770000D02*
X121158000Y-77470000D01*
X120458000Y-76454000D02*
X120458000Y-76770000D01*
X141703010Y-77654010D02*
X143325990Y-77654010D01*
X140778000Y-76729000D02*
X141703010Y-77654010D01*
X140778000Y-76454000D02*
X140778000Y-76729000D01*
X143325990Y-77654010D02*
X146812000Y-74168000D01*
X151087000Y-74168000D02*
X153098000Y-76179000D01*
X153098000Y-76179000D02*
X153098000Y-76454000D01*
X146812000Y-74168000D02*
X151087000Y-74168000D01*
X129822990Y-48583990D02*
X130748000Y-49509000D01*
X130748000Y-49509000D02*
X130748000Y-49784000D01*
X127822990Y-50111059D02*
X127822990Y-49125849D01*
X124699989Y-53234059D02*
X127822990Y-50111059D01*
X113603060Y-53234060D02*
X124699989Y-53234059D01*
X128364849Y-48583990D02*
X129822990Y-48583990D01*
X110428000Y-50059000D02*
X113603060Y-53234060D01*
X127822990Y-49125849D02*
X128364849Y-48583990D01*
X110428000Y-49784000D02*
X110428000Y-50059000D01*
X147889240Y-48583990D02*
X150522990Y-48583990D01*
X150522990Y-48583990D02*
X151448000Y-49509000D01*
X146580040Y-49893190D02*
X147889240Y-48583990D01*
X146580040Y-50922200D02*
X146580040Y-49893190D01*
X133073056Y-53234056D02*
X144268185Y-53234055D01*
X151448000Y-49509000D02*
X151448000Y-49784000D01*
X130748000Y-50909000D02*
X133073056Y-53234056D01*
X144268185Y-53234055D02*
X146580040Y-50922200D01*
X130748000Y-49784000D02*
X130748000Y-50909000D01*
X155963050Y-54574050D02*
X151448000Y-50059000D01*
X162998010Y-55720849D02*
X161851211Y-54574050D01*
X162998010Y-58028990D02*
X162998010Y-55720849D01*
X151448000Y-50059000D02*
X151448000Y-49784000D01*
X161851211Y-54574050D02*
X155963050Y-54574050D01*
X162923000Y-58104000D02*
X162998010Y-58028990D01*
X161798000Y-58104000D02*
X162923000Y-58104000D01*
X102383000Y-70134000D02*
X102108000Y-70134000D01*
X108428000Y-64089000D02*
X102383000Y-70134000D01*
X108428000Y-49784000D02*
X108428000Y-64089000D01*
X122458000Y-76179000D02*
X122458000Y-76454000D01*
X116413000Y-70134000D02*
X122458000Y-76179000D01*
X102108000Y-70134000D02*
X116413000Y-70134000D01*
X142778000Y-76179000D02*
X142778000Y-76454000D01*
X138828940Y-72229940D02*
X142778000Y-76179000D01*
X125557060Y-72229940D02*
X138828940Y-72229940D01*
X122458000Y-75329000D02*
X125557060Y-72229940D01*
X122458000Y-76454000D02*
X122458000Y-75329000D01*
X152636990Y-73717990D02*
X155098000Y-76179000D01*
X155098000Y-76179000D02*
X155098000Y-76454000D01*
X146625600Y-73717990D02*
X152636990Y-73717990D01*
X143889590Y-76454000D02*
X146625600Y-73717990D01*
X142778000Y-76454000D02*
X143889590Y-76454000D01*
X128748000Y-50059000D02*
X128748000Y-49784000D01*
X125122930Y-53684070D02*
X128748000Y-50059000D01*
X112053070Y-53684070D02*
X125122930Y-53684070D01*
X108428000Y-50059000D02*
X112053070Y-53684070D01*
X108428000Y-49784000D02*
X108428000Y-50059000D01*
X149448000Y-50059000D02*
X149448000Y-49784000D01*
X155493000Y-56104000D02*
X149448000Y-50059000D01*
X161798000Y-56104000D02*
X155493000Y-56104000D01*
X144454586Y-53684064D02*
X148354650Y-49784000D01*
X131523064Y-53684064D02*
X144454586Y-53684064D01*
X128748000Y-50909000D02*
X131523064Y-53684064D01*
X148354650Y-49784000D02*
X149448000Y-49784000D01*
X128748000Y-49784000D02*
X128748000Y-50909000D01*
X137130000Y-92477000D02*
X137130000Y-92202000D01*
X161874971Y-98914001D02*
X143567001Y-98914001D01*
X162274970Y-99314000D02*
X161874971Y-98914001D01*
X121920000Y-119126000D02*
X121920000Y-106426000D01*
X112522000Y-128524000D02*
X121920000Y-119126000D01*
X138684000Y-99822000D02*
X139674500Y-98831500D01*
X143484500Y-98831500D02*
X137130000Y-92477000D01*
X139674500Y-98831500D02*
X143484500Y-98831500D01*
X143567001Y-98914001D02*
X143484500Y-98831500D01*
X150105030Y-94302030D02*
X151618620Y-94302030D01*
X149130000Y-93327000D02*
X150105030Y-94302030D01*
X149130000Y-92202000D02*
X149130000Y-93327000D01*
X159580030Y-94302030D02*
X162999970Y-97721970D01*
X151618620Y-94302030D02*
X159580030Y-94302030D01*
X162999970Y-97721970D02*
X162999970Y-102870000D01*
X162999970Y-103103010D02*
X162724980Y-103378000D01*
X162999970Y-102870000D02*
X162999970Y-103103010D01*
X122401010Y-93953010D02*
X124460000Y-96012000D01*
X117476000Y-92202000D02*
X117476000Y-91927000D01*
X121859151Y-91001990D02*
X122401010Y-91543849D01*
X118401010Y-91001990D02*
X121859151Y-91001990D01*
X122401010Y-91543849D02*
X122401010Y-93953010D01*
X117476000Y-91927000D02*
X118401010Y-91001990D01*
X128270000Y-117094000D02*
X141478000Y-130302000D01*
X128270000Y-103341000D02*
X128270000Y-117094000D01*
X169143000Y-118142000D02*
X169418000Y-118142000D01*
X161290000Y-99822000D02*
X161290000Y-110289000D01*
X162025500Y-111024500D02*
X169143000Y-118142000D01*
X161290000Y-110289000D02*
X162025500Y-111024500D01*
X161798000Y-110797000D02*
X162025500Y-111024500D01*
X107252000Y-102552000D02*
X107442000Y-102362000D01*
X102108000Y-102552000D02*
X107252000Y-102552000D01*
X139130000Y-91927000D02*
X139130000Y-92202000D01*
X138204990Y-91001990D02*
X139130000Y-91927000D01*
X136746849Y-91001990D02*
X138204990Y-91001990D01*
X136204990Y-91543849D02*
X136746849Y-91001990D01*
X136204990Y-93157011D02*
X136204990Y-91543849D01*
X128016001Y-101346000D02*
X136204990Y-93157011D01*
X111126010Y-101346000D02*
X128016001Y-101346000D01*
X101833000Y-121602000D02*
X102108000Y-121602000D01*
X99351000Y-119120000D02*
X101833000Y-121602000D01*
X99351000Y-103124000D02*
X99351000Y-119120000D01*
X168293000Y-118142000D02*
X169418000Y-118142000D01*
X143894839Y-130302000D02*
X156054839Y-118142000D01*
X156054839Y-118142000D02*
X168293000Y-118142000D01*
X143478000Y-130302000D02*
X143894839Y-130302000D01*
X153542674Y-90551980D02*
X153923347Y-90932653D01*
X140505020Y-90551980D02*
X153542674Y-90551980D01*
X139130000Y-91927000D02*
X140505020Y-90551980D01*
X158684849Y-93402010D02*
X161867990Y-93402010D01*
X157993010Y-92710171D02*
X158684849Y-93402010D01*
X157993010Y-91543849D02*
X157993010Y-92710171D01*
X155407151Y-88957990D02*
X157993010Y-91543849D01*
X161867990Y-93402010D02*
X162397290Y-92872710D01*
X114445010Y-88957990D02*
X155407151Y-88957990D01*
X162397290Y-92872710D02*
X163068000Y-92202000D01*
X111476000Y-91927000D02*
X114445010Y-88957990D01*
X111476000Y-92202000D02*
X111476000Y-91927000D01*
X113476000Y-91927000D02*
X115995000Y-89408000D01*
X113476000Y-92202000D02*
X113476000Y-91927000D01*
X156218000Y-92202000D02*
X157068000Y-92202000D01*
X153424000Y-89408000D02*
X156218000Y-92202000D01*
X115995000Y-89408000D02*
X153424000Y-89408000D01*
X102108000Y-124452000D02*
X102108000Y-123602000D01*
X109883010Y-132227010D02*
X102108000Y-124452000D01*
X129032000Y-132227010D02*
X109883010Y-132227010D01*
X116550990Y-94015010D02*
X112522000Y-98044000D01*
X102108000Y-116902000D02*
X102108000Y-117602000D01*
X111772366Y-103341000D02*
X102108000Y-113005366D01*
X102108000Y-113005366D02*
X102108000Y-116902000D01*
X112338051Y-103341000D02*
X111772366Y-103341000D01*
X122100981Y-90551981D02*
X123476000Y-91927000D01*
X116550990Y-91543849D02*
X117542859Y-90551980D01*
X123476000Y-91927000D02*
X123476000Y-92202000D01*
X117542859Y-90551980D02*
X122100981Y-90551981D01*
X116550990Y-94015010D02*
X116550990Y-91543849D01*
X151805020Y-93852020D02*
X163449980Y-93852020D01*
X151130000Y-93177000D02*
X151805020Y-93852020D01*
X151130000Y-92202000D02*
X151130000Y-93177000D01*
X169418000Y-113292000D02*
X169418000Y-114142000D01*
X163449980Y-107323980D02*
X169418000Y-113292000D01*
X163449980Y-93852020D02*
X163449980Y-107323980D01*
X121476000Y-95822000D02*
X122936000Y-97282000D01*
X121476000Y-92202000D02*
X121476000Y-95822000D01*
X132658000Y-129177000D02*
X133508000Y-130027000D01*
X132383000Y-129177000D02*
X132658000Y-129177000D01*
X133508000Y-130027000D02*
X133508000Y-130302000D01*
X124968000Y-121762000D02*
X132383000Y-129177000D01*
X124968000Y-103341000D02*
X124968000Y-121762000D01*
X119476000Y-95600000D02*
X121920000Y-98044000D01*
X119476000Y-92202000D02*
X119476000Y-95600000D01*
X123698000Y-126492000D02*
X127508000Y-130302000D01*
X123698000Y-103378000D02*
X123698000Y-126492000D01*
X144055010Y-91656990D02*
X144055010Y-92926990D01*
X144710010Y-91001990D02*
X144055010Y-91656990D01*
X147130000Y-91927000D02*
X146204990Y-91001990D01*
X146204990Y-91001990D02*
X144710010Y-91001990D01*
X147130000Y-92202000D02*
X147130000Y-91927000D01*
X141838153Y-95143847D02*
X141771314Y-95143847D01*
X141771314Y-95143847D02*
X140822153Y-95143847D01*
X144055010Y-92926990D02*
X141838153Y-95143847D01*
X116123000Y-129177000D02*
X115848000Y-129177000D01*
X114998000Y-130027000D02*
X114998000Y-130302000D01*
X122973000Y-122327000D02*
X116123000Y-129177000D01*
X115848000Y-129177000D02*
X114998000Y-130027000D01*
X122973000Y-104648000D02*
X122973000Y-122327000D01*
X145130000Y-93376000D02*
X142240000Y-96266000D01*
X145130000Y-92202000D02*
X145130000Y-93376000D01*
X121158000Y-118618000D02*
X119126000Y-120650000D01*
X121158000Y-105664000D02*
X121158000Y-118618000D01*
X102383000Y-110552000D02*
X102108000Y-110552000D01*
X110401010Y-102533990D02*
X102383000Y-110552000D01*
X110401010Y-91543849D02*
X110401010Y-102533990D01*
X109859151Y-91001990D02*
X110401010Y-91543849D01*
X107476000Y-91927000D02*
X108401010Y-91001990D01*
X108401010Y-91001990D02*
X109859151Y-91001990D01*
X107476000Y-92202000D02*
X107476000Y-91927000D01*
X102383000Y-108552000D02*
X102108000Y-108552000D01*
X109476000Y-101459000D02*
X102383000Y-108552000D01*
X109476000Y-92202000D02*
X109476000Y-101459000D01*
X140970000Y-120142000D02*
X129286000Y-108458000D01*
X140970000Y-128016000D02*
X140970000Y-120142000D01*
X105631153Y-103303847D02*
X106605847Y-103303847D01*
X102383000Y-106552000D02*
X105631153Y-103303847D01*
X102108000Y-106552000D02*
X102383000Y-106552000D01*
X130556000Y-102616000D02*
X138399847Y-94772153D01*
X111506000Y-102616000D02*
X130556000Y-102616000D01*
X100695379Y-102381460D02*
X101599829Y-101477010D01*
X101599829Y-101477010D02*
X108072990Y-101477010D01*
X108072990Y-101477010D02*
X108458000Y-101092000D01*
X100695379Y-103414379D02*
X100695379Y-102381460D01*
X101833000Y-104552000D02*
X100695379Y-103414379D01*
X102108000Y-104552000D02*
X101833000Y-104552000D01*
X131130000Y-92477000D02*
X131130000Y-92202000D01*
X123531000Y-100076000D02*
X131130000Y-92477000D01*
X111126010Y-100076000D02*
X123531000Y-100076000D01*
X122672842Y-99075997D02*
X111126010Y-99075997D01*
X130746849Y-91001990D02*
X122672842Y-99075997D01*
X132204990Y-91001990D02*
X130746849Y-91001990D01*
X133130000Y-91927000D02*
X132204990Y-91001990D01*
X133130000Y-92202000D02*
X133130000Y-91927000D01*
X107442000Y-98552000D02*
X102108000Y-98552000D01*
X108458000Y-99568000D02*
X107442000Y-98552000D01*
M02*
