G04 #@! TF.GenerationSoftware,KiCad,Pcbnew,(5.1.2-1)-1*
G04 #@! TF.CreationDate,2019-08-26T08:27:29+10:00*
G04 #@! TF.ProjectId,Bus,4275732e-6b69-4636-9164-5f7063625858,rev?*
G04 #@! TF.SameCoordinates,Original*
G04 #@! TF.FileFunction,Profile,NP*
%FSLAX46Y46*%
G04 Gerber Fmt 4.6, Leading zero omitted, Abs format (unit mm)*
G04 Created by KiCad (PCBNEW (5.1.2-1)-1) date 2019-08-26 08:27:29*
%MOMM*%
%LPD*%
G04 APERTURE LIST*
%ADD10C,0.050000*%
G04 APERTURE END LIST*
D10*
X160528000Y-85852000D02*
X171958000Y-85852000D01*
X160528000Y-82804000D02*
X164338000Y-82804000D01*
X158242000Y-85852000D02*
X146304000Y-85852000D01*
X146304000Y-82804000D02*
X158242000Y-82804000D01*
X143510000Y-85852000D02*
X131826000Y-85852000D01*
X131826000Y-82804000D02*
X143510000Y-82804000D01*
X128778000Y-82804000D02*
X107950000Y-82804000D01*
X107950000Y-85852000D02*
X128778000Y-85852000D01*
X105410000Y-85852000D02*
X99568000Y-85852000D01*
X99568000Y-82804000D02*
X105410000Y-82804000D01*
X107950000Y-82804000D02*
X107950000Y-85852000D01*
X105410000Y-82804000D02*
X105410000Y-85852000D01*
X128778000Y-82804000D02*
X128778000Y-85852000D01*
X131826000Y-82804000D02*
X131826000Y-85852000D01*
X143510000Y-82804000D02*
X143510000Y-85852000D01*
X146304000Y-82804000D02*
X146304000Y-85852000D01*
X158242000Y-82804000D02*
X158242000Y-85852000D01*
X160528000Y-82804000D02*
X160528000Y-85852000D01*
X164338000Y-43434000D02*
X99568000Y-43434000D01*
X171958000Y-136652000D02*
X170688000Y-136652000D01*
X175768000Y-132842000D02*
X175768000Y-129032000D01*
X99568000Y-136652000D02*
X170688000Y-136652000D01*
X175768000Y-132842000D02*
G75*
G02X171958000Y-136652000I-3810000J0D01*
G01*
X175768000Y-89662000D02*
X175768000Y-129032000D01*
X99568000Y-136652000D02*
G75*
G02X95758000Y-132842000I0J3810000D01*
G01*
X95758000Y-89662000D02*
X95758000Y-132842000D01*
X171958000Y-85852000D02*
G75*
G02X175768000Y-89662000I0J-3810000D01*
G01*
X95758000Y-89662000D02*
G75*
G02X99568000Y-85852000I3810000J0D01*
G01*
X168148000Y-47244000D02*
X168148000Y-78994000D01*
X168148000Y-78994000D02*
G75*
G02X164338000Y-82804000I-3810000J0D01*
G01*
X95758000Y-78994000D02*
X95758000Y-47244000D01*
X99568000Y-82804000D02*
G75*
G02X95758000Y-78994000I0J3810000D01*
G01*
X164338000Y-43434000D02*
G75*
G02X168148000Y-47244000I0J-3810000D01*
G01*
X95758000Y-47244000D02*
G75*
G02X99568000Y-43434000I3810000J0D01*
G01*
M02*
