G04 #@! TF.GenerationSoftware,KiCad,Pcbnew,(5.1.2-1)-1*
G04 #@! TF.CreationDate,2019-08-26T08:27:29+10:00*
G04 #@! TF.ProjectId,Bus,4275732e-6b69-4636-9164-5f7063625858,rev?*
G04 #@! TF.SameCoordinates,Original*
G04 #@! TF.FileFunction,Soldermask,Top*
G04 #@! TF.FilePolarity,Negative*
%FSLAX46Y46*%
G04 Gerber Fmt 4.6, Leading zero omitted, Abs format (unit mm)*
G04 Created by KiCad (PCBNEW (5.1.2-1)-1) date 2019-08-26 08:27:29*
%MOMM*%
%LPD*%
G04 APERTURE LIST*
%ADD10C,0.100000*%
G04 APERTURE END LIST*
D10*
G36*
X171255626Y-129700783D02*
G01*
X171438831Y-129776669D01*
X171609777Y-129847477D01*
X171928503Y-130060443D01*
X172199557Y-130331497D01*
X172384961Y-130608974D01*
X172412524Y-130650225D01*
X172559217Y-131004374D01*
X172634000Y-131380334D01*
X172634000Y-131763666D01*
X172559217Y-132139626D01*
X172412524Y-132493775D01*
X172412523Y-132493777D01*
X172199557Y-132812503D01*
X171928503Y-133083557D01*
X171609777Y-133296523D01*
X171609776Y-133296524D01*
X171609775Y-133296524D01*
X171255626Y-133443217D01*
X170879666Y-133518000D01*
X170496334Y-133518000D01*
X170120374Y-133443217D01*
X169766225Y-133296524D01*
X169766224Y-133296524D01*
X169766223Y-133296523D01*
X169447497Y-133083557D01*
X169176443Y-132812503D01*
X168963477Y-132493777D01*
X168963476Y-132493775D01*
X168816783Y-132139626D01*
X168742000Y-131763666D01*
X168742000Y-131380334D01*
X168816783Y-131004374D01*
X168963476Y-130650225D01*
X168991039Y-130608974D01*
X169176443Y-130331497D01*
X169447497Y-130060443D01*
X169766223Y-129847477D01*
X169937169Y-129776669D01*
X170120374Y-129700783D01*
X170496334Y-129626000D01*
X170879666Y-129626000D01*
X171255626Y-129700783D01*
X171255626Y-129700783D01*
G37*
G36*
X101405626Y-129700783D02*
G01*
X101588831Y-129776669D01*
X101759777Y-129847477D01*
X102078503Y-130060443D01*
X102349557Y-130331497D01*
X102534961Y-130608974D01*
X102562524Y-130650225D01*
X102709217Y-131004374D01*
X102784000Y-131380334D01*
X102784000Y-131763666D01*
X102709217Y-132139626D01*
X102562524Y-132493775D01*
X102562523Y-132493777D01*
X102349557Y-132812503D01*
X102078503Y-133083557D01*
X101759777Y-133296523D01*
X101759776Y-133296524D01*
X101759775Y-133296524D01*
X101405626Y-133443217D01*
X101029666Y-133518000D01*
X100646334Y-133518000D01*
X100270374Y-133443217D01*
X99916225Y-133296524D01*
X99916224Y-133296524D01*
X99916223Y-133296523D01*
X99597497Y-133083557D01*
X99326443Y-132812503D01*
X99113477Y-132493777D01*
X99113476Y-132493775D01*
X98966783Y-132139626D01*
X98892000Y-131763666D01*
X98892000Y-131380334D01*
X98966783Y-131004374D01*
X99113476Y-130650225D01*
X99141039Y-130608974D01*
X99326443Y-130331497D01*
X99597497Y-130060443D01*
X99916223Y-129847477D01*
X100087169Y-129776669D01*
X100270374Y-129700783D01*
X100646334Y-129626000D01*
X101029666Y-129626000D01*
X101405626Y-129700783D01*
X101405626Y-129700783D01*
G37*
G36*
X117125617Y-129385420D02*
G01*
X117206399Y-129409925D01*
X117248335Y-129422646D01*
X117361424Y-129483094D01*
X117460554Y-129564447D01*
X117541906Y-129663575D01*
X117602354Y-129776664D01*
X117612040Y-129808596D01*
X117639580Y-129899382D01*
X117649000Y-129995027D01*
X117649000Y-130608973D01*
X117639580Y-130704618D01*
X117612040Y-130795404D01*
X117602354Y-130827336D01*
X117541906Y-130940425D01*
X117460554Y-131039554D01*
X117361425Y-131120906D01*
X117248336Y-131181354D01*
X117216404Y-131191040D01*
X117125618Y-131218580D01*
X116998000Y-131231149D01*
X116870383Y-131218580D01*
X116779597Y-131191040D01*
X116747665Y-131181354D01*
X116634576Y-131120906D01*
X116535447Y-131039554D01*
X116454096Y-130940427D01*
X116454095Y-130940425D01*
X116393647Y-130827336D01*
X116393645Y-130827333D01*
X116381237Y-130786427D01*
X116356420Y-130704618D01*
X116347000Y-130608973D01*
X116347000Y-129995028D01*
X116356420Y-129899383D01*
X116393645Y-129776669D01*
X116393646Y-129776665D01*
X116454094Y-129663576D01*
X116535447Y-129564446D01*
X116634575Y-129483094D01*
X116747664Y-129422646D01*
X116789600Y-129409925D01*
X116870382Y-129385420D01*
X116998000Y-129372851D01*
X117125617Y-129385420D01*
X117125617Y-129385420D01*
G37*
G36*
X119125617Y-129385420D02*
G01*
X119206399Y-129409925D01*
X119248335Y-129422646D01*
X119361424Y-129483094D01*
X119460554Y-129564447D01*
X119541906Y-129663575D01*
X119602354Y-129776664D01*
X119612040Y-129808596D01*
X119639580Y-129899382D01*
X119649000Y-129995027D01*
X119649000Y-130608973D01*
X119639580Y-130704618D01*
X119612040Y-130795404D01*
X119602354Y-130827336D01*
X119541906Y-130940425D01*
X119460554Y-131039554D01*
X119361425Y-131120906D01*
X119248336Y-131181354D01*
X119216404Y-131191040D01*
X119125618Y-131218580D01*
X118998000Y-131231149D01*
X118870383Y-131218580D01*
X118779597Y-131191040D01*
X118747665Y-131181354D01*
X118634576Y-131120906D01*
X118535447Y-131039554D01*
X118454096Y-130940427D01*
X118454095Y-130940425D01*
X118393647Y-130827336D01*
X118393645Y-130827333D01*
X118381237Y-130786427D01*
X118356420Y-130704618D01*
X118347000Y-130608973D01*
X118347000Y-129995028D01*
X118356420Y-129899383D01*
X118393645Y-129776669D01*
X118393646Y-129776665D01*
X118454094Y-129663576D01*
X118535447Y-129564446D01*
X118634575Y-129483094D01*
X118747664Y-129422646D01*
X118789600Y-129409925D01*
X118870382Y-129385420D01*
X118998000Y-129372851D01*
X119125617Y-129385420D01*
X119125617Y-129385420D01*
G37*
G36*
X129635617Y-129385420D02*
G01*
X129716399Y-129409925D01*
X129758335Y-129422646D01*
X129871424Y-129483094D01*
X129970554Y-129564447D01*
X130051906Y-129663575D01*
X130112354Y-129776664D01*
X130122040Y-129808596D01*
X130149580Y-129899382D01*
X130159000Y-129995027D01*
X130159000Y-130608973D01*
X130149580Y-130704618D01*
X130122040Y-130795404D01*
X130112354Y-130827336D01*
X130051906Y-130940425D01*
X129970554Y-131039554D01*
X129871425Y-131120906D01*
X129758336Y-131181354D01*
X129726404Y-131191040D01*
X129635618Y-131218580D01*
X129508000Y-131231149D01*
X129380383Y-131218580D01*
X129289597Y-131191040D01*
X129257665Y-131181354D01*
X129144576Y-131120906D01*
X129045447Y-131039554D01*
X128964096Y-130940427D01*
X128964095Y-130940425D01*
X128903647Y-130827336D01*
X128903645Y-130827333D01*
X128891237Y-130786427D01*
X128866420Y-130704618D01*
X128857000Y-130608973D01*
X128857000Y-129995028D01*
X128866420Y-129899383D01*
X128903645Y-129776669D01*
X128903646Y-129776665D01*
X128964094Y-129663576D01*
X129045447Y-129564446D01*
X129144575Y-129483094D01*
X129257664Y-129422646D01*
X129299600Y-129409925D01*
X129380382Y-129385420D01*
X129508000Y-129372851D01*
X129635617Y-129385420D01*
X129635617Y-129385420D01*
G37*
G36*
X131635617Y-129385420D02*
G01*
X131716399Y-129409925D01*
X131758335Y-129422646D01*
X131871424Y-129483094D01*
X131970554Y-129564447D01*
X132051906Y-129663575D01*
X132112354Y-129776664D01*
X132122040Y-129808596D01*
X132149580Y-129899382D01*
X132159000Y-129995027D01*
X132159000Y-130608973D01*
X132149580Y-130704618D01*
X132122040Y-130795404D01*
X132112354Y-130827336D01*
X132051906Y-130940425D01*
X131970554Y-131039554D01*
X131871425Y-131120906D01*
X131758336Y-131181354D01*
X131726404Y-131191040D01*
X131635618Y-131218580D01*
X131508000Y-131231149D01*
X131380383Y-131218580D01*
X131289597Y-131191040D01*
X131257665Y-131181354D01*
X131144576Y-131120906D01*
X131045447Y-131039554D01*
X130964096Y-130940427D01*
X130964095Y-130940425D01*
X130903647Y-130827336D01*
X130903645Y-130827333D01*
X130891237Y-130786427D01*
X130866420Y-130704618D01*
X130857000Y-130608973D01*
X130857000Y-129995028D01*
X130866420Y-129899383D01*
X130903645Y-129776669D01*
X130903646Y-129776665D01*
X130964094Y-129663576D01*
X131045447Y-129564446D01*
X131144575Y-129483094D01*
X131257664Y-129422646D01*
X131299600Y-129409925D01*
X131380382Y-129385420D01*
X131508000Y-129372851D01*
X131635617Y-129385420D01*
X131635617Y-129385420D01*
G37*
G36*
X133635617Y-129385420D02*
G01*
X133716399Y-129409925D01*
X133758335Y-129422646D01*
X133871424Y-129483094D01*
X133970554Y-129564447D01*
X134051906Y-129663575D01*
X134112354Y-129776664D01*
X134122040Y-129808596D01*
X134149580Y-129899382D01*
X134159000Y-129995027D01*
X134159000Y-130608973D01*
X134149580Y-130704618D01*
X134122040Y-130795404D01*
X134112354Y-130827336D01*
X134051906Y-130940425D01*
X133970554Y-131039554D01*
X133871425Y-131120906D01*
X133758336Y-131181354D01*
X133726404Y-131191040D01*
X133635618Y-131218580D01*
X133508000Y-131231149D01*
X133380383Y-131218580D01*
X133289597Y-131191040D01*
X133257665Y-131181354D01*
X133144576Y-131120906D01*
X133045447Y-131039554D01*
X132964096Y-130940427D01*
X132964095Y-130940425D01*
X132903647Y-130827336D01*
X132903645Y-130827333D01*
X132891237Y-130786427D01*
X132866420Y-130704618D01*
X132857000Y-130608973D01*
X132857000Y-129995028D01*
X132866420Y-129899383D01*
X132903645Y-129776669D01*
X132903646Y-129776665D01*
X132964094Y-129663576D01*
X133045447Y-129564446D01*
X133144575Y-129483094D01*
X133257664Y-129422646D01*
X133299600Y-129409925D01*
X133380382Y-129385420D01*
X133508000Y-129372851D01*
X133635617Y-129385420D01*
X133635617Y-129385420D01*
G37*
G36*
X143605617Y-129385420D02*
G01*
X143686399Y-129409925D01*
X143728335Y-129422646D01*
X143841424Y-129483094D01*
X143940554Y-129564447D01*
X144021906Y-129663575D01*
X144082354Y-129776664D01*
X144092040Y-129808596D01*
X144119580Y-129899382D01*
X144129000Y-129995027D01*
X144129000Y-130608973D01*
X144119580Y-130704618D01*
X144092040Y-130795404D01*
X144082354Y-130827336D01*
X144021906Y-130940425D01*
X143940554Y-131039554D01*
X143841425Y-131120906D01*
X143728336Y-131181354D01*
X143696404Y-131191040D01*
X143605618Y-131218580D01*
X143478000Y-131231149D01*
X143350383Y-131218580D01*
X143259597Y-131191040D01*
X143227665Y-131181354D01*
X143114576Y-131120906D01*
X143015447Y-131039554D01*
X142934096Y-130940427D01*
X142934095Y-130940425D01*
X142873647Y-130827336D01*
X142873645Y-130827333D01*
X142861237Y-130786427D01*
X142836420Y-130704618D01*
X142827000Y-130608973D01*
X142827000Y-129995028D01*
X142836420Y-129899383D01*
X142873645Y-129776669D01*
X142873646Y-129776665D01*
X142934094Y-129663576D01*
X143015447Y-129564446D01*
X143114575Y-129483094D01*
X143227664Y-129422646D01*
X143269600Y-129409925D01*
X143350382Y-129385420D01*
X143478000Y-129372851D01*
X143605617Y-129385420D01*
X143605617Y-129385420D01*
G37*
G36*
X145605617Y-129385420D02*
G01*
X145686399Y-129409925D01*
X145728335Y-129422646D01*
X145841424Y-129483094D01*
X145940554Y-129564447D01*
X146021906Y-129663575D01*
X146082354Y-129776664D01*
X146092040Y-129808596D01*
X146119580Y-129899382D01*
X146129000Y-129995027D01*
X146129000Y-130608973D01*
X146119580Y-130704618D01*
X146092040Y-130795404D01*
X146082354Y-130827336D01*
X146021906Y-130940425D01*
X145940554Y-131039554D01*
X145841425Y-131120906D01*
X145728336Y-131181354D01*
X145696404Y-131191040D01*
X145605618Y-131218580D01*
X145478000Y-131231149D01*
X145350383Y-131218580D01*
X145259597Y-131191040D01*
X145227665Y-131181354D01*
X145114576Y-131120906D01*
X145015447Y-131039554D01*
X144934096Y-130940427D01*
X144934095Y-130940425D01*
X144873647Y-130827336D01*
X144873645Y-130827333D01*
X144861237Y-130786427D01*
X144836420Y-130704618D01*
X144827000Y-130608973D01*
X144827000Y-129995028D01*
X144836420Y-129899383D01*
X144873645Y-129776669D01*
X144873646Y-129776665D01*
X144934094Y-129663576D01*
X145015447Y-129564446D01*
X145114575Y-129483094D01*
X145227664Y-129422646D01*
X145269600Y-129409925D01*
X145350382Y-129385420D01*
X145478000Y-129372851D01*
X145605617Y-129385420D01*
X145605617Y-129385420D01*
G37*
G36*
X147605617Y-129385420D02*
G01*
X147686399Y-129409925D01*
X147728335Y-129422646D01*
X147841424Y-129483094D01*
X147940554Y-129564447D01*
X148021906Y-129663575D01*
X148082354Y-129776664D01*
X148092040Y-129808596D01*
X148119580Y-129899382D01*
X148129000Y-129995027D01*
X148129000Y-130608973D01*
X148119580Y-130704618D01*
X148092040Y-130795404D01*
X148082354Y-130827336D01*
X148021906Y-130940425D01*
X147940554Y-131039554D01*
X147841425Y-131120906D01*
X147728336Y-131181354D01*
X147696404Y-131191040D01*
X147605618Y-131218580D01*
X147478000Y-131231149D01*
X147350383Y-131218580D01*
X147259597Y-131191040D01*
X147227665Y-131181354D01*
X147114576Y-131120906D01*
X147015447Y-131039554D01*
X146934096Y-130940427D01*
X146934095Y-130940425D01*
X146873647Y-130827336D01*
X146873645Y-130827333D01*
X146861237Y-130786427D01*
X146836420Y-130704618D01*
X146827000Y-130608973D01*
X146827000Y-129995028D01*
X146836420Y-129899383D01*
X146873645Y-129776669D01*
X146873646Y-129776665D01*
X146934094Y-129663576D01*
X147015447Y-129564446D01*
X147114575Y-129483094D01*
X147227664Y-129422646D01*
X147269600Y-129409925D01*
X147350382Y-129385420D01*
X147478000Y-129372851D01*
X147605617Y-129385420D01*
X147605617Y-129385420D01*
G37*
G36*
X158845617Y-129385420D02*
G01*
X158926399Y-129409925D01*
X158968335Y-129422646D01*
X159081424Y-129483094D01*
X159180554Y-129564447D01*
X159261906Y-129663575D01*
X159322354Y-129776664D01*
X159332040Y-129808596D01*
X159359580Y-129899382D01*
X159369000Y-129995027D01*
X159369000Y-130608973D01*
X159359580Y-130704618D01*
X159332040Y-130795404D01*
X159322354Y-130827336D01*
X159261906Y-130940425D01*
X159180554Y-131039554D01*
X159081425Y-131120906D01*
X158968336Y-131181354D01*
X158936404Y-131191040D01*
X158845618Y-131218580D01*
X158718000Y-131231149D01*
X158590383Y-131218580D01*
X158499597Y-131191040D01*
X158467665Y-131181354D01*
X158354576Y-131120906D01*
X158255447Y-131039554D01*
X158174096Y-130940427D01*
X158174095Y-130940425D01*
X158113647Y-130827336D01*
X158113645Y-130827333D01*
X158101237Y-130786427D01*
X158076420Y-130704618D01*
X158067000Y-130608973D01*
X158067000Y-129995028D01*
X158076420Y-129899383D01*
X158113645Y-129776669D01*
X158113646Y-129776665D01*
X158174094Y-129663576D01*
X158255447Y-129564446D01*
X158354575Y-129483094D01*
X158467664Y-129422646D01*
X158509600Y-129409925D01*
X158590382Y-129385420D01*
X158718000Y-129372851D01*
X158845617Y-129385420D01*
X158845617Y-129385420D01*
G37*
G36*
X160845617Y-129385420D02*
G01*
X160926399Y-129409925D01*
X160968335Y-129422646D01*
X161081424Y-129483094D01*
X161180554Y-129564447D01*
X161261906Y-129663575D01*
X161322354Y-129776664D01*
X161332040Y-129808596D01*
X161359580Y-129899382D01*
X161369000Y-129995027D01*
X161369000Y-130608973D01*
X161359580Y-130704618D01*
X161332040Y-130795404D01*
X161322354Y-130827336D01*
X161261906Y-130940425D01*
X161180554Y-131039554D01*
X161081425Y-131120906D01*
X160968336Y-131181354D01*
X160936404Y-131191040D01*
X160845618Y-131218580D01*
X160718000Y-131231149D01*
X160590383Y-131218580D01*
X160499597Y-131191040D01*
X160467665Y-131181354D01*
X160354576Y-131120906D01*
X160255447Y-131039554D01*
X160174096Y-130940427D01*
X160174095Y-130940425D01*
X160113647Y-130827336D01*
X160113645Y-130827333D01*
X160101237Y-130786427D01*
X160076420Y-130704618D01*
X160067000Y-130608973D01*
X160067000Y-129995028D01*
X160076420Y-129899383D01*
X160113645Y-129776669D01*
X160113646Y-129776665D01*
X160174094Y-129663576D01*
X160255447Y-129564446D01*
X160354575Y-129483094D01*
X160467664Y-129422646D01*
X160509600Y-129409925D01*
X160590382Y-129385420D01*
X160718000Y-129372851D01*
X160845617Y-129385420D01*
X160845617Y-129385420D01*
G37*
G36*
X115125617Y-129385420D02*
G01*
X115206399Y-129409925D01*
X115248335Y-129422646D01*
X115361424Y-129483094D01*
X115460554Y-129564447D01*
X115541906Y-129663575D01*
X115602354Y-129776664D01*
X115612040Y-129808596D01*
X115639580Y-129899382D01*
X115649000Y-129995027D01*
X115649000Y-130608973D01*
X115639580Y-130704618D01*
X115612040Y-130795404D01*
X115602354Y-130827336D01*
X115541906Y-130940425D01*
X115460554Y-131039554D01*
X115361425Y-131120906D01*
X115248336Y-131181354D01*
X115216404Y-131191040D01*
X115125618Y-131218580D01*
X114998000Y-131231149D01*
X114870383Y-131218580D01*
X114779597Y-131191040D01*
X114747665Y-131181354D01*
X114634576Y-131120906D01*
X114535447Y-131039554D01*
X114454096Y-130940427D01*
X114454095Y-130940425D01*
X114393647Y-130827336D01*
X114393645Y-130827333D01*
X114381237Y-130786427D01*
X114356420Y-130704618D01*
X114347000Y-130608973D01*
X114347000Y-129995028D01*
X114356420Y-129899383D01*
X114393645Y-129776669D01*
X114393646Y-129776665D01*
X114454094Y-129663576D01*
X114535447Y-129564446D01*
X114634575Y-129483094D01*
X114747664Y-129422646D01*
X114789600Y-129409925D01*
X114870382Y-129385420D01*
X114998000Y-129372851D01*
X115125617Y-129385420D01*
X115125617Y-129385420D01*
G37*
G36*
X113125617Y-129385420D02*
G01*
X113206399Y-129409925D01*
X113248335Y-129422646D01*
X113361424Y-129483094D01*
X113460554Y-129564447D01*
X113541906Y-129663575D01*
X113602354Y-129776664D01*
X113612040Y-129808596D01*
X113639580Y-129899382D01*
X113649000Y-129995027D01*
X113649000Y-130608973D01*
X113639580Y-130704618D01*
X113612040Y-130795404D01*
X113602354Y-130827336D01*
X113541906Y-130940425D01*
X113460554Y-131039554D01*
X113361425Y-131120906D01*
X113248336Y-131181354D01*
X113216404Y-131191040D01*
X113125618Y-131218580D01*
X112998000Y-131231149D01*
X112870383Y-131218580D01*
X112779597Y-131191040D01*
X112747665Y-131181354D01*
X112634576Y-131120906D01*
X112535447Y-131039554D01*
X112454096Y-130940427D01*
X112454095Y-130940425D01*
X112393647Y-130827336D01*
X112393645Y-130827333D01*
X112381237Y-130786427D01*
X112356420Y-130704618D01*
X112347000Y-130608973D01*
X112347000Y-129995028D01*
X112356420Y-129899383D01*
X112393645Y-129776669D01*
X112393646Y-129776665D01*
X112454094Y-129663576D01*
X112535447Y-129564446D01*
X112634575Y-129483094D01*
X112747664Y-129422646D01*
X112789600Y-129409925D01*
X112870382Y-129385420D01*
X112998000Y-129372851D01*
X113125617Y-129385420D01*
X113125617Y-129385420D01*
G37*
G36*
X157209242Y-129380404D02*
G01*
X157246337Y-129391657D01*
X157280515Y-129409925D01*
X157310481Y-129434519D01*
X157335075Y-129464485D01*
X157353343Y-129498663D01*
X157364596Y-129535758D01*
X157369000Y-129580474D01*
X157369000Y-131023526D01*
X157364596Y-131068242D01*
X157353343Y-131105337D01*
X157335075Y-131139515D01*
X157310481Y-131169481D01*
X157280515Y-131194075D01*
X157246337Y-131212343D01*
X157209242Y-131223596D01*
X157164526Y-131228000D01*
X156271474Y-131228000D01*
X156226758Y-131223596D01*
X156189663Y-131212343D01*
X156155485Y-131194075D01*
X156125519Y-131169481D01*
X156100925Y-131139515D01*
X156082657Y-131105337D01*
X156071404Y-131068242D01*
X156067000Y-131023526D01*
X156067000Y-129580474D01*
X156071404Y-129535758D01*
X156082657Y-129498663D01*
X156100925Y-129464485D01*
X156125519Y-129434519D01*
X156155485Y-129409925D01*
X156189663Y-129391657D01*
X156226758Y-129380404D01*
X156271474Y-129376000D01*
X157164526Y-129376000D01*
X157209242Y-129380404D01*
X157209242Y-129380404D01*
G37*
G36*
X141969242Y-129380404D02*
G01*
X142006337Y-129391657D01*
X142040515Y-129409925D01*
X142070481Y-129434519D01*
X142095075Y-129464485D01*
X142113343Y-129498663D01*
X142124596Y-129535758D01*
X142129000Y-129580474D01*
X142129000Y-131023526D01*
X142124596Y-131068242D01*
X142113343Y-131105337D01*
X142095075Y-131139515D01*
X142070481Y-131169481D01*
X142040515Y-131194075D01*
X142006337Y-131212343D01*
X141969242Y-131223596D01*
X141924526Y-131228000D01*
X141031474Y-131228000D01*
X140986758Y-131223596D01*
X140949663Y-131212343D01*
X140915485Y-131194075D01*
X140885519Y-131169481D01*
X140860925Y-131139515D01*
X140842657Y-131105337D01*
X140831404Y-131068242D01*
X140827000Y-131023526D01*
X140827000Y-129580474D01*
X140831404Y-129535758D01*
X140842657Y-129498663D01*
X140860925Y-129464485D01*
X140885519Y-129434519D01*
X140915485Y-129409925D01*
X140949663Y-129391657D01*
X140986758Y-129380404D01*
X141031474Y-129376000D01*
X141924526Y-129376000D01*
X141969242Y-129380404D01*
X141969242Y-129380404D01*
G37*
G36*
X127999242Y-129380404D02*
G01*
X128036337Y-129391657D01*
X128070515Y-129409925D01*
X128100481Y-129434519D01*
X128125075Y-129464485D01*
X128143343Y-129498663D01*
X128154596Y-129535758D01*
X128159000Y-129580474D01*
X128159000Y-131023526D01*
X128154596Y-131068242D01*
X128143343Y-131105337D01*
X128125075Y-131139515D01*
X128100481Y-131169481D01*
X128070515Y-131194075D01*
X128036337Y-131212343D01*
X127999242Y-131223596D01*
X127954526Y-131228000D01*
X127061474Y-131228000D01*
X127016758Y-131223596D01*
X126979663Y-131212343D01*
X126945485Y-131194075D01*
X126915519Y-131169481D01*
X126890925Y-131139515D01*
X126872657Y-131105337D01*
X126861404Y-131068242D01*
X126857000Y-131023526D01*
X126857000Y-129580474D01*
X126861404Y-129535758D01*
X126872657Y-129498663D01*
X126890925Y-129464485D01*
X126915519Y-129434519D01*
X126945485Y-129409925D01*
X126979663Y-129391657D01*
X127016758Y-129380404D01*
X127061474Y-129376000D01*
X127954526Y-129376000D01*
X127999242Y-129380404D01*
X127999242Y-129380404D01*
G37*
G36*
X111489242Y-129380404D02*
G01*
X111526337Y-129391657D01*
X111560515Y-129409925D01*
X111590481Y-129434519D01*
X111615075Y-129464485D01*
X111633343Y-129498663D01*
X111644596Y-129535758D01*
X111649000Y-129580474D01*
X111649000Y-131023526D01*
X111644596Y-131068242D01*
X111633343Y-131105337D01*
X111615075Y-131139515D01*
X111590481Y-131169481D01*
X111560515Y-131194075D01*
X111526337Y-131212343D01*
X111489242Y-131223596D01*
X111444526Y-131228000D01*
X110551474Y-131228000D01*
X110506758Y-131223596D01*
X110469663Y-131212343D01*
X110435485Y-131194075D01*
X110405519Y-131169481D01*
X110380925Y-131139515D01*
X110362657Y-131105337D01*
X110351404Y-131068242D01*
X110347000Y-131023526D01*
X110347000Y-129580474D01*
X110351404Y-129535758D01*
X110362657Y-129498663D01*
X110380925Y-129464485D01*
X110405519Y-129434519D01*
X110435485Y-129409925D01*
X110469663Y-129391657D01*
X110506758Y-129380404D01*
X110551474Y-129376000D01*
X111444526Y-129376000D01*
X111489242Y-129380404D01*
X111489242Y-129380404D01*
G37*
G36*
X102446855Y-122954140D02*
G01*
X102510618Y-122960420D01*
X102601404Y-122987960D01*
X102633336Y-122997646D01*
X102746425Y-123058094D01*
X102845554Y-123139446D01*
X102926906Y-123238575D01*
X102987354Y-123351664D01*
X102987355Y-123351668D01*
X103024580Y-123474382D01*
X103037149Y-123602000D01*
X103024580Y-123729618D01*
X102997040Y-123820404D01*
X102987354Y-123852336D01*
X102926906Y-123965425D01*
X102845554Y-124064554D01*
X102746425Y-124145906D01*
X102633336Y-124206354D01*
X102601404Y-124216040D01*
X102510618Y-124243580D01*
X102446855Y-124249860D01*
X102414974Y-124253000D01*
X101801026Y-124253000D01*
X101769145Y-124249860D01*
X101705382Y-124243580D01*
X101614596Y-124216040D01*
X101582664Y-124206354D01*
X101469575Y-124145906D01*
X101370446Y-124064554D01*
X101289094Y-123965425D01*
X101228646Y-123852336D01*
X101218960Y-123820404D01*
X101191420Y-123729618D01*
X101178851Y-123602000D01*
X101191420Y-123474382D01*
X101228645Y-123351668D01*
X101228646Y-123351664D01*
X101289094Y-123238575D01*
X101370446Y-123139446D01*
X101469575Y-123058094D01*
X101582664Y-122997646D01*
X101614596Y-122987960D01*
X101705382Y-122960420D01*
X101769145Y-122954140D01*
X101801026Y-122951000D01*
X102414974Y-122951000D01*
X102446855Y-122954140D01*
X102446855Y-122954140D01*
G37*
G36*
X102446855Y-120954140D02*
G01*
X102510618Y-120960420D01*
X102601404Y-120987960D01*
X102633336Y-120997646D01*
X102746425Y-121058094D01*
X102845554Y-121139446D01*
X102926906Y-121238575D01*
X102987354Y-121351664D01*
X102987355Y-121351668D01*
X103024580Y-121474382D01*
X103037149Y-121602000D01*
X103024580Y-121729618D01*
X102997040Y-121820404D01*
X102987354Y-121852336D01*
X102926906Y-121965425D01*
X102845554Y-122064554D01*
X102746425Y-122145906D01*
X102633336Y-122206354D01*
X102601404Y-122216040D01*
X102510618Y-122243580D01*
X102446855Y-122249860D01*
X102414974Y-122253000D01*
X101801026Y-122253000D01*
X101769145Y-122249860D01*
X101705382Y-122243580D01*
X101614596Y-122216040D01*
X101582664Y-122206354D01*
X101469575Y-122145906D01*
X101370446Y-122064554D01*
X101289094Y-121965425D01*
X101228646Y-121852336D01*
X101218960Y-121820404D01*
X101191420Y-121729618D01*
X101178851Y-121602000D01*
X101191420Y-121474382D01*
X101228645Y-121351668D01*
X101228646Y-121351664D01*
X101289094Y-121238575D01*
X101370446Y-121139446D01*
X101469575Y-121058094D01*
X101582664Y-120997646D01*
X101614596Y-120987960D01*
X101705382Y-120960420D01*
X101769145Y-120954140D01*
X101801026Y-120951000D01*
X102414974Y-120951000D01*
X102446855Y-120954140D01*
X102446855Y-120954140D01*
G37*
G36*
X170184242Y-119495404D02*
G01*
X170221337Y-119506657D01*
X170255515Y-119524925D01*
X170285481Y-119549519D01*
X170310075Y-119579485D01*
X170328343Y-119613663D01*
X170339596Y-119650758D01*
X170344000Y-119695474D01*
X170344000Y-120588526D01*
X170339596Y-120633242D01*
X170328343Y-120670337D01*
X170310075Y-120704515D01*
X170285481Y-120734481D01*
X170255515Y-120759075D01*
X170221337Y-120777343D01*
X170184242Y-120788596D01*
X170139526Y-120793000D01*
X168696474Y-120793000D01*
X168651758Y-120788596D01*
X168614663Y-120777343D01*
X168580485Y-120759075D01*
X168550519Y-120734481D01*
X168525925Y-120704515D01*
X168507657Y-120670337D01*
X168496404Y-120633242D01*
X168492000Y-120588526D01*
X168492000Y-119695474D01*
X168496404Y-119650758D01*
X168507657Y-119613663D01*
X168525925Y-119579485D01*
X168550519Y-119549519D01*
X168580485Y-119524925D01*
X168614663Y-119506657D01*
X168651758Y-119495404D01*
X168696474Y-119491000D01*
X170139526Y-119491000D01*
X170184242Y-119495404D01*
X170184242Y-119495404D01*
G37*
G36*
X102446855Y-118954140D02*
G01*
X102510618Y-118960420D01*
X102601404Y-118987960D01*
X102633336Y-118997646D01*
X102746425Y-119058094D01*
X102845554Y-119139446D01*
X102926906Y-119238575D01*
X102987354Y-119351664D01*
X102987355Y-119351668D01*
X103024580Y-119474382D01*
X103037149Y-119602000D01*
X103024580Y-119729618D01*
X103014681Y-119762249D01*
X102987354Y-119852336D01*
X102926906Y-119965425D01*
X102845554Y-120064554D01*
X102746425Y-120145906D01*
X102633336Y-120206354D01*
X102601404Y-120216040D01*
X102510618Y-120243580D01*
X102446855Y-120249860D01*
X102414974Y-120253000D01*
X101801026Y-120253000D01*
X101769145Y-120249860D01*
X101705382Y-120243580D01*
X101614596Y-120216040D01*
X101582664Y-120206354D01*
X101469575Y-120145906D01*
X101370446Y-120064554D01*
X101289094Y-119965425D01*
X101228646Y-119852336D01*
X101201319Y-119762249D01*
X101191420Y-119729618D01*
X101178851Y-119602000D01*
X101191420Y-119474382D01*
X101228645Y-119351668D01*
X101228646Y-119351664D01*
X101289094Y-119238575D01*
X101370446Y-119139446D01*
X101469575Y-119058094D01*
X101582664Y-118997646D01*
X101614596Y-118987960D01*
X101705382Y-118960420D01*
X101769145Y-118954140D01*
X101801026Y-118951000D01*
X102414974Y-118951000D01*
X102446855Y-118954140D01*
X102446855Y-118954140D01*
G37*
G36*
X169756855Y-117494140D02*
G01*
X169820618Y-117500420D01*
X169911404Y-117527960D01*
X169943336Y-117537646D01*
X170056425Y-117598094D01*
X170155554Y-117679446D01*
X170236906Y-117778575D01*
X170297354Y-117891664D01*
X170297355Y-117891668D01*
X170334580Y-118014382D01*
X170347149Y-118142000D01*
X170334580Y-118269618D01*
X170307040Y-118360404D01*
X170297354Y-118392336D01*
X170236906Y-118505425D01*
X170155554Y-118604554D01*
X170056425Y-118685906D01*
X169943336Y-118746354D01*
X169911404Y-118756040D01*
X169820618Y-118783580D01*
X169756855Y-118789860D01*
X169724974Y-118793000D01*
X169111026Y-118793000D01*
X169079145Y-118789860D01*
X169015382Y-118783580D01*
X168924596Y-118756040D01*
X168892664Y-118746354D01*
X168779575Y-118685906D01*
X168680446Y-118604554D01*
X168599094Y-118505425D01*
X168538646Y-118392336D01*
X168528960Y-118360404D01*
X168501420Y-118269618D01*
X168488851Y-118142000D01*
X168501420Y-118014382D01*
X168538645Y-117891668D01*
X168538646Y-117891664D01*
X168599094Y-117778575D01*
X168680446Y-117679446D01*
X168779575Y-117598094D01*
X168892664Y-117537646D01*
X168924596Y-117527960D01*
X169015382Y-117500420D01*
X169079145Y-117494140D01*
X169111026Y-117491000D01*
X169724974Y-117491000D01*
X169756855Y-117494140D01*
X169756855Y-117494140D01*
G37*
G36*
X102874242Y-116955404D02*
G01*
X102911337Y-116966657D01*
X102945515Y-116984925D01*
X102975481Y-117009519D01*
X103000075Y-117039485D01*
X103018343Y-117073663D01*
X103029596Y-117110758D01*
X103034000Y-117155474D01*
X103034000Y-118048526D01*
X103029596Y-118093242D01*
X103018343Y-118130337D01*
X103000075Y-118164515D01*
X102975481Y-118194481D01*
X102945515Y-118219075D01*
X102911337Y-118237343D01*
X102874242Y-118248596D01*
X102829526Y-118253000D01*
X101386474Y-118253000D01*
X101341758Y-118248596D01*
X101304663Y-118237343D01*
X101270485Y-118219075D01*
X101240519Y-118194481D01*
X101215925Y-118164515D01*
X101197657Y-118130337D01*
X101186404Y-118093242D01*
X101182000Y-118048526D01*
X101182000Y-117155474D01*
X101186404Y-117110758D01*
X101197657Y-117073663D01*
X101215925Y-117039485D01*
X101240519Y-117009519D01*
X101270485Y-116984925D01*
X101304663Y-116966657D01*
X101341758Y-116955404D01*
X101386474Y-116951000D01*
X102829526Y-116951000D01*
X102874242Y-116955404D01*
X102874242Y-116955404D01*
G37*
G36*
X169756855Y-115494140D02*
G01*
X169820618Y-115500420D01*
X169911404Y-115527960D01*
X169943336Y-115537646D01*
X170056425Y-115598094D01*
X170155554Y-115679446D01*
X170236906Y-115778575D01*
X170297354Y-115891664D01*
X170297355Y-115891668D01*
X170334580Y-116014382D01*
X170347149Y-116142000D01*
X170334580Y-116269618D01*
X170307040Y-116360404D01*
X170297354Y-116392336D01*
X170236906Y-116505425D01*
X170155554Y-116604554D01*
X170056425Y-116685906D01*
X169943336Y-116746354D01*
X169911404Y-116756040D01*
X169820618Y-116783580D01*
X169756855Y-116789860D01*
X169724974Y-116793000D01*
X169111026Y-116793000D01*
X169079145Y-116789860D01*
X169015382Y-116783580D01*
X168924596Y-116756040D01*
X168892664Y-116746354D01*
X168779575Y-116685906D01*
X168680446Y-116604554D01*
X168599094Y-116505425D01*
X168538646Y-116392336D01*
X168528960Y-116360404D01*
X168501420Y-116269618D01*
X168488851Y-116142000D01*
X168501420Y-116014382D01*
X168538645Y-115891668D01*
X168538646Y-115891664D01*
X168599094Y-115778575D01*
X168680446Y-115679446D01*
X168779575Y-115598094D01*
X168892664Y-115537646D01*
X168924596Y-115527960D01*
X169015382Y-115500420D01*
X169079145Y-115494140D01*
X169111026Y-115491000D01*
X169724974Y-115491000D01*
X169756855Y-115494140D01*
X169756855Y-115494140D01*
G37*
G36*
X169756855Y-113494140D02*
G01*
X169820618Y-113500420D01*
X169911404Y-113527960D01*
X169943336Y-113537646D01*
X170056425Y-113598094D01*
X170155554Y-113679446D01*
X170236906Y-113778575D01*
X170297354Y-113891664D01*
X170297355Y-113891668D01*
X170334580Y-114014382D01*
X170347149Y-114142000D01*
X170334580Y-114269618D01*
X170307040Y-114360404D01*
X170297354Y-114392336D01*
X170236906Y-114505425D01*
X170155554Y-114604554D01*
X170056425Y-114685906D01*
X169943336Y-114746354D01*
X169911404Y-114756040D01*
X169820618Y-114783580D01*
X169756855Y-114789860D01*
X169724974Y-114793000D01*
X169111026Y-114793000D01*
X169079145Y-114789860D01*
X169015382Y-114783580D01*
X168924596Y-114756040D01*
X168892664Y-114746354D01*
X168779575Y-114685906D01*
X168680446Y-114604554D01*
X168599094Y-114505425D01*
X168538646Y-114392336D01*
X168528960Y-114360404D01*
X168501420Y-114269618D01*
X168488851Y-114142000D01*
X168501420Y-114014382D01*
X168538645Y-113891668D01*
X168538646Y-113891664D01*
X168599094Y-113778575D01*
X168680446Y-113679446D01*
X168779575Y-113598094D01*
X168892664Y-113537646D01*
X168924596Y-113527960D01*
X169015382Y-113500420D01*
X169079145Y-113494140D01*
X169111026Y-113491000D01*
X169724974Y-113491000D01*
X169756855Y-113494140D01*
X169756855Y-113494140D01*
G37*
G36*
X102446855Y-109904140D02*
G01*
X102510618Y-109910420D01*
X102601404Y-109937960D01*
X102633336Y-109947646D01*
X102746425Y-110008094D01*
X102845554Y-110089446D01*
X102926906Y-110188575D01*
X102987354Y-110301664D01*
X102987355Y-110301668D01*
X103024580Y-110424382D01*
X103037149Y-110552000D01*
X103024580Y-110679618D01*
X102997040Y-110770404D01*
X102987354Y-110802336D01*
X102926906Y-110915425D01*
X102845554Y-111014554D01*
X102746425Y-111095906D01*
X102633336Y-111156354D01*
X102601404Y-111166040D01*
X102510618Y-111193580D01*
X102446855Y-111199860D01*
X102414974Y-111203000D01*
X101801026Y-111203000D01*
X101769145Y-111199860D01*
X101705382Y-111193580D01*
X101614596Y-111166040D01*
X101582664Y-111156354D01*
X101469575Y-111095906D01*
X101370446Y-111014554D01*
X101289094Y-110915425D01*
X101228646Y-110802336D01*
X101218960Y-110770404D01*
X101191420Y-110679618D01*
X101178851Y-110552000D01*
X101191420Y-110424382D01*
X101228645Y-110301668D01*
X101228646Y-110301664D01*
X101289094Y-110188575D01*
X101370446Y-110089446D01*
X101469575Y-110008094D01*
X101582664Y-109947646D01*
X101614596Y-109937960D01*
X101705382Y-109910420D01*
X101769145Y-109904140D01*
X101801026Y-109901000D01*
X102414974Y-109901000D01*
X102446855Y-109904140D01*
X102446855Y-109904140D01*
G37*
G36*
X102446855Y-107904140D02*
G01*
X102510618Y-107910420D01*
X102601404Y-107937960D01*
X102633336Y-107947646D01*
X102746425Y-108008094D01*
X102845554Y-108089446D01*
X102926906Y-108188575D01*
X102987354Y-108301664D01*
X102987355Y-108301668D01*
X103024580Y-108424382D01*
X103037149Y-108552000D01*
X103024580Y-108679618D01*
X102997040Y-108770404D01*
X102987354Y-108802336D01*
X102926906Y-108915425D01*
X102845554Y-109014554D01*
X102746425Y-109095906D01*
X102633336Y-109156354D01*
X102601404Y-109166040D01*
X102510618Y-109193580D01*
X102446855Y-109199860D01*
X102414974Y-109203000D01*
X101801026Y-109203000D01*
X101769145Y-109199860D01*
X101705382Y-109193580D01*
X101614596Y-109166040D01*
X101582664Y-109156354D01*
X101469575Y-109095906D01*
X101370446Y-109014554D01*
X101289094Y-108915425D01*
X101228646Y-108802336D01*
X101218960Y-108770404D01*
X101191420Y-108679618D01*
X101178851Y-108552000D01*
X101191420Y-108424382D01*
X101228645Y-108301668D01*
X101228646Y-108301664D01*
X101289094Y-108188575D01*
X101370446Y-108089446D01*
X101469575Y-108008094D01*
X101582664Y-107947646D01*
X101614596Y-107937960D01*
X101705382Y-107910420D01*
X101769145Y-107904140D01*
X101801026Y-107901000D01*
X102414974Y-107901000D01*
X102446855Y-107904140D01*
X102446855Y-107904140D01*
G37*
G36*
X102446855Y-105904140D02*
G01*
X102510618Y-105910420D01*
X102601404Y-105937960D01*
X102633336Y-105947646D01*
X102746425Y-106008094D01*
X102845554Y-106089446D01*
X102926906Y-106188575D01*
X102987354Y-106301664D01*
X102987355Y-106301668D01*
X103024580Y-106424382D01*
X103037149Y-106552000D01*
X103024580Y-106679618D01*
X102997040Y-106770404D01*
X102987354Y-106802336D01*
X102926906Y-106915425D01*
X102845554Y-107014554D01*
X102746425Y-107095906D01*
X102633336Y-107156354D01*
X102601404Y-107166040D01*
X102510618Y-107193580D01*
X102446855Y-107199860D01*
X102414974Y-107203000D01*
X101801026Y-107203000D01*
X101769145Y-107199860D01*
X101705382Y-107193580D01*
X101614596Y-107166040D01*
X101582664Y-107156354D01*
X101469575Y-107095906D01*
X101370446Y-107014554D01*
X101289094Y-106915425D01*
X101228646Y-106802336D01*
X101218960Y-106770404D01*
X101191420Y-106679618D01*
X101178851Y-106552000D01*
X101191420Y-106424382D01*
X101228645Y-106301668D01*
X101228646Y-106301664D01*
X101289094Y-106188575D01*
X101370446Y-106089446D01*
X101469575Y-106008094D01*
X101582664Y-105947646D01*
X101614596Y-105937960D01*
X101705382Y-105910420D01*
X101769145Y-105904140D01*
X101801026Y-105901000D01*
X102414974Y-105901000D01*
X102446855Y-105904140D01*
X102446855Y-105904140D01*
G37*
G36*
X170184242Y-104255404D02*
G01*
X170221337Y-104266657D01*
X170255515Y-104284925D01*
X170285481Y-104309519D01*
X170310075Y-104339485D01*
X170328343Y-104373663D01*
X170339596Y-104410758D01*
X170344000Y-104455474D01*
X170344000Y-105348526D01*
X170339596Y-105393242D01*
X170328343Y-105430337D01*
X170310075Y-105464515D01*
X170285481Y-105494481D01*
X170255515Y-105519075D01*
X170221337Y-105537343D01*
X170184242Y-105548596D01*
X170139526Y-105553000D01*
X168696474Y-105553000D01*
X168651758Y-105548596D01*
X168614663Y-105537343D01*
X168580485Y-105519075D01*
X168550519Y-105494481D01*
X168525925Y-105464515D01*
X168507657Y-105430337D01*
X168496404Y-105393242D01*
X168492000Y-105348526D01*
X168492000Y-104455474D01*
X168496404Y-104410758D01*
X168507657Y-104373663D01*
X168525925Y-104339485D01*
X168550519Y-104309519D01*
X168580485Y-104284925D01*
X168614663Y-104266657D01*
X168651758Y-104255404D01*
X168696474Y-104251000D01*
X170139526Y-104251000D01*
X170184242Y-104255404D01*
X170184242Y-104255404D01*
G37*
G36*
X102446855Y-103904140D02*
G01*
X102510618Y-103910420D01*
X102601404Y-103937960D01*
X102633336Y-103947646D01*
X102746425Y-104008094D01*
X102845554Y-104089446D01*
X102926906Y-104188575D01*
X102987354Y-104301664D01*
X102987355Y-104301668D01*
X103024580Y-104424382D01*
X103037149Y-104552000D01*
X103024580Y-104679618D01*
X102997040Y-104770404D01*
X102987354Y-104802336D01*
X102926906Y-104915425D01*
X102845554Y-105014554D01*
X102746425Y-105095906D01*
X102633336Y-105156354D01*
X102601404Y-105166040D01*
X102510618Y-105193580D01*
X102446855Y-105199860D01*
X102414974Y-105203000D01*
X101801026Y-105203000D01*
X101769145Y-105199860D01*
X101705382Y-105193580D01*
X101614596Y-105166040D01*
X101582664Y-105156354D01*
X101469575Y-105095906D01*
X101370446Y-105014554D01*
X101289094Y-104915425D01*
X101228646Y-104802336D01*
X101218960Y-104770404D01*
X101191420Y-104679618D01*
X101178851Y-104552000D01*
X101191420Y-104424382D01*
X101228645Y-104301668D01*
X101228646Y-104301664D01*
X101289094Y-104188575D01*
X101370446Y-104089446D01*
X101469575Y-104008094D01*
X101582664Y-103947646D01*
X101614596Y-103937960D01*
X101705382Y-103910420D01*
X101769145Y-103904140D01*
X101801026Y-103901000D01*
X102414974Y-103901000D01*
X102446855Y-103904140D01*
X102446855Y-103904140D01*
G37*
G36*
X169756855Y-102254140D02*
G01*
X169820618Y-102260420D01*
X169911404Y-102287960D01*
X169943336Y-102297646D01*
X170056425Y-102358094D01*
X170155554Y-102439446D01*
X170236906Y-102538575D01*
X170297354Y-102651664D01*
X170297355Y-102651668D01*
X170334580Y-102774382D01*
X170347149Y-102902000D01*
X170334580Y-103029618D01*
X170314472Y-103095905D01*
X170297354Y-103152336D01*
X170236906Y-103265425D01*
X170155554Y-103364554D01*
X170056425Y-103445906D01*
X169943336Y-103506354D01*
X169911404Y-103516040D01*
X169820618Y-103543580D01*
X169756855Y-103549860D01*
X169724974Y-103553000D01*
X169111026Y-103553000D01*
X169079145Y-103549860D01*
X169015382Y-103543580D01*
X168924596Y-103516040D01*
X168892664Y-103506354D01*
X168779575Y-103445906D01*
X168680446Y-103364554D01*
X168599094Y-103265425D01*
X168538646Y-103152336D01*
X168521528Y-103095905D01*
X168501420Y-103029618D01*
X168488851Y-102902000D01*
X168501420Y-102774382D01*
X168538645Y-102651668D01*
X168538646Y-102651664D01*
X168599094Y-102538575D01*
X168680446Y-102439446D01*
X168779575Y-102358094D01*
X168892664Y-102297646D01*
X168924596Y-102287960D01*
X169015382Y-102260420D01*
X169079145Y-102254140D01*
X169111026Y-102251000D01*
X169724974Y-102251000D01*
X169756855Y-102254140D01*
X169756855Y-102254140D01*
G37*
G36*
X102446855Y-101904140D02*
G01*
X102510618Y-101910420D01*
X102601404Y-101937960D01*
X102633336Y-101947646D01*
X102746425Y-102008094D01*
X102845554Y-102089446D01*
X102926906Y-102188575D01*
X102987354Y-102301664D01*
X102987355Y-102301668D01*
X103024580Y-102424382D01*
X103037149Y-102552000D01*
X103024580Y-102679618D01*
X102997040Y-102770404D01*
X102987354Y-102802336D01*
X102926906Y-102915425D01*
X102845554Y-103014554D01*
X102746425Y-103095906D01*
X102633336Y-103156354D01*
X102601404Y-103166040D01*
X102510618Y-103193580D01*
X102446855Y-103199860D01*
X102414974Y-103203000D01*
X101801026Y-103203000D01*
X101769145Y-103199860D01*
X101705382Y-103193580D01*
X101614596Y-103166040D01*
X101582664Y-103156354D01*
X101469575Y-103095906D01*
X101370446Y-103014554D01*
X101289094Y-102915425D01*
X101228646Y-102802336D01*
X101218960Y-102770404D01*
X101191420Y-102679618D01*
X101178851Y-102552000D01*
X101191420Y-102424382D01*
X101228645Y-102301668D01*
X101228646Y-102301664D01*
X101289094Y-102188575D01*
X101370446Y-102089446D01*
X101469575Y-102008094D01*
X101582664Y-101947646D01*
X101614596Y-101937960D01*
X101705382Y-101910420D01*
X101769145Y-101904140D01*
X101801026Y-101901000D01*
X102414974Y-101901000D01*
X102446855Y-101904140D01*
X102446855Y-101904140D01*
G37*
G36*
X169756855Y-100254140D02*
G01*
X169820618Y-100260420D01*
X169911404Y-100287960D01*
X169943336Y-100297646D01*
X170056425Y-100358094D01*
X170155554Y-100439446D01*
X170236906Y-100538575D01*
X170297354Y-100651664D01*
X170297355Y-100651668D01*
X170334580Y-100774382D01*
X170347149Y-100902000D01*
X170334580Y-101029618D01*
X170314472Y-101095905D01*
X170297354Y-101152336D01*
X170236906Y-101265425D01*
X170155554Y-101364554D01*
X170056425Y-101445906D01*
X169943336Y-101506354D01*
X169911404Y-101516040D01*
X169820618Y-101543580D01*
X169756855Y-101549860D01*
X169724974Y-101553000D01*
X169111026Y-101553000D01*
X169079145Y-101549860D01*
X169015382Y-101543580D01*
X168924596Y-101516040D01*
X168892664Y-101506354D01*
X168779575Y-101445906D01*
X168680446Y-101364554D01*
X168599094Y-101265425D01*
X168538646Y-101152336D01*
X168521528Y-101095905D01*
X168501420Y-101029618D01*
X168488851Y-100902000D01*
X168501420Y-100774382D01*
X168538645Y-100651668D01*
X168538646Y-100651664D01*
X168599094Y-100538575D01*
X168680446Y-100439446D01*
X168779575Y-100358094D01*
X168892664Y-100297646D01*
X168924596Y-100287960D01*
X169015382Y-100260420D01*
X169079145Y-100254140D01*
X169111026Y-100251000D01*
X169724974Y-100251000D01*
X169756855Y-100254140D01*
X169756855Y-100254140D01*
G37*
G36*
X102446855Y-99904140D02*
G01*
X102510618Y-99910420D01*
X102601404Y-99937960D01*
X102633336Y-99947646D01*
X102746425Y-100008094D01*
X102845554Y-100089446D01*
X102926906Y-100188575D01*
X102987354Y-100301664D01*
X102987355Y-100301668D01*
X103024580Y-100424382D01*
X103037149Y-100552000D01*
X103024580Y-100679618D01*
X102997040Y-100770404D01*
X102987354Y-100802336D01*
X102926906Y-100915425D01*
X102845554Y-101014554D01*
X102746425Y-101095906D01*
X102633336Y-101156354D01*
X102601404Y-101166040D01*
X102510618Y-101193580D01*
X102446855Y-101199860D01*
X102414974Y-101203000D01*
X101801026Y-101203000D01*
X101769145Y-101199860D01*
X101705382Y-101193580D01*
X101614596Y-101166040D01*
X101582664Y-101156354D01*
X101469575Y-101095906D01*
X101370446Y-101014554D01*
X101289094Y-100915425D01*
X101228646Y-100802336D01*
X101218960Y-100770404D01*
X101191420Y-100679618D01*
X101178851Y-100552000D01*
X101191420Y-100424382D01*
X101228645Y-100301668D01*
X101228646Y-100301664D01*
X101289094Y-100188575D01*
X101370446Y-100089446D01*
X101469575Y-100008094D01*
X101582664Y-99947646D01*
X101614596Y-99937960D01*
X101705382Y-99910420D01*
X101769145Y-99904140D01*
X101801026Y-99901000D01*
X102414974Y-99901000D01*
X102446855Y-99904140D01*
X102446855Y-99904140D01*
G37*
G36*
X102874242Y-97905404D02*
G01*
X102911337Y-97916657D01*
X102945515Y-97934925D01*
X102975481Y-97959519D01*
X103000075Y-97989485D01*
X103018343Y-98023663D01*
X103029596Y-98060758D01*
X103034000Y-98105474D01*
X103034000Y-98998526D01*
X103029596Y-99043242D01*
X103018343Y-99080337D01*
X103000075Y-99114515D01*
X102975481Y-99144481D01*
X102945515Y-99169075D01*
X102911337Y-99187343D01*
X102874242Y-99198596D01*
X102829526Y-99203000D01*
X101386474Y-99203000D01*
X101341758Y-99198596D01*
X101304663Y-99187343D01*
X101270485Y-99169075D01*
X101240519Y-99144481D01*
X101215925Y-99114515D01*
X101197657Y-99080337D01*
X101186404Y-99043242D01*
X101182000Y-98998526D01*
X101182000Y-98105474D01*
X101186404Y-98060758D01*
X101197657Y-98023663D01*
X101215925Y-97989485D01*
X101240519Y-97959519D01*
X101270485Y-97934925D01*
X101304663Y-97916657D01*
X101341758Y-97905404D01*
X101386474Y-97901000D01*
X102829526Y-97901000D01*
X102874242Y-97905404D01*
X102874242Y-97905404D01*
G37*
G36*
X135257618Y-91285420D02*
G01*
X135338400Y-91309925D01*
X135380336Y-91322646D01*
X135493425Y-91383094D01*
X135592554Y-91464446D01*
X135673906Y-91563575D01*
X135734354Y-91676664D01*
X135734355Y-91676668D01*
X135771580Y-91799382D01*
X135781000Y-91895027D01*
X135781000Y-92508973D01*
X135771580Y-92604618D01*
X135755834Y-92656524D01*
X135734354Y-92727336D01*
X135673906Y-92840425D01*
X135592554Y-92939553D01*
X135493424Y-93020906D01*
X135380335Y-93081354D01*
X135348403Y-93091040D01*
X135257617Y-93118580D01*
X135130000Y-93131149D01*
X135002382Y-93118580D01*
X134911596Y-93091040D01*
X134879664Y-93081354D01*
X134766575Y-93020906D01*
X134667447Y-92939554D01*
X134586094Y-92840424D01*
X134525646Y-92727335D01*
X134504166Y-92656523D01*
X134488420Y-92604617D01*
X134479000Y-92508972D01*
X134479000Y-91895027D01*
X134488420Y-91799382D01*
X134525645Y-91676668D01*
X134525645Y-91676667D01*
X134557957Y-91616217D01*
X134586095Y-91563574D01*
X134599493Y-91547249D01*
X134667447Y-91464446D01*
X134766576Y-91383094D01*
X134879665Y-91322646D01*
X134921601Y-91309925D01*
X135002383Y-91285420D01*
X135130000Y-91272851D01*
X135257618Y-91285420D01*
X135257618Y-91285420D01*
G37*
G36*
X111603618Y-91285420D02*
G01*
X111684400Y-91309925D01*
X111726336Y-91322646D01*
X111839425Y-91383094D01*
X111938554Y-91464446D01*
X112019906Y-91563575D01*
X112080354Y-91676664D01*
X112080355Y-91676668D01*
X112117580Y-91799382D01*
X112127000Y-91895027D01*
X112127000Y-92508973D01*
X112117580Y-92604618D01*
X112101834Y-92656524D01*
X112080354Y-92727336D01*
X112019906Y-92840425D01*
X111938554Y-92939553D01*
X111839424Y-93020906D01*
X111726335Y-93081354D01*
X111694403Y-93091040D01*
X111603617Y-93118580D01*
X111476000Y-93131149D01*
X111348382Y-93118580D01*
X111257596Y-93091040D01*
X111225664Y-93081354D01*
X111112575Y-93020906D01*
X111013447Y-92939554D01*
X110932094Y-92840424D01*
X110871646Y-92727335D01*
X110850166Y-92656523D01*
X110834420Y-92604617D01*
X110825000Y-92508972D01*
X110825000Y-91895027D01*
X110834420Y-91799382D01*
X110871645Y-91676668D01*
X110871645Y-91676667D01*
X110903957Y-91616217D01*
X110932095Y-91563574D01*
X110945493Y-91547249D01*
X111013447Y-91464446D01*
X111112576Y-91383094D01*
X111225665Y-91322646D01*
X111267601Y-91309925D01*
X111348383Y-91285420D01*
X111476000Y-91272851D01*
X111603618Y-91285420D01*
X111603618Y-91285420D01*
G37*
G36*
X107603618Y-91285420D02*
G01*
X107684400Y-91309925D01*
X107726336Y-91322646D01*
X107839425Y-91383094D01*
X107938554Y-91464446D01*
X108019906Y-91563575D01*
X108080354Y-91676664D01*
X108080355Y-91676668D01*
X108117580Y-91799382D01*
X108127000Y-91895027D01*
X108127000Y-92508973D01*
X108117580Y-92604618D01*
X108101834Y-92656524D01*
X108080354Y-92727336D01*
X108019906Y-92840425D01*
X107938554Y-92939553D01*
X107839424Y-93020906D01*
X107726335Y-93081354D01*
X107694403Y-93091040D01*
X107603617Y-93118580D01*
X107476000Y-93131149D01*
X107348382Y-93118580D01*
X107257596Y-93091040D01*
X107225664Y-93081354D01*
X107112575Y-93020906D01*
X107013447Y-92939554D01*
X106932094Y-92840424D01*
X106871646Y-92727335D01*
X106850166Y-92656523D01*
X106834420Y-92604617D01*
X106825000Y-92508972D01*
X106825000Y-91895027D01*
X106834420Y-91799382D01*
X106871645Y-91676668D01*
X106871645Y-91676667D01*
X106903957Y-91616217D01*
X106932095Y-91563574D01*
X106945493Y-91547249D01*
X107013447Y-91464446D01*
X107112576Y-91383094D01*
X107225665Y-91322646D01*
X107267601Y-91309925D01*
X107348383Y-91285420D01*
X107476000Y-91272851D01*
X107603618Y-91285420D01*
X107603618Y-91285420D01*
G37*
G36*
X109603618Y-91285420D02*
G01*
X109684400Y-91309925D01*
X109726336Y-91322646D01*
X109839425Y-91383094D01*
X109938554Y-91464446D01*
X110019906Y-91563575D01*
X110080354Y-91676664D01*
X110080355Y-91676668D01*
X110117580Y-91799382D01*
X110127000Y-91895027D01*
X110127000Y-92508973D01*
X110117580Y-92604618D01*
X110101834Y-92656524D01*
X110080354Y-92727336D01*
X110019906Y-92840425D01*
X109938554Y-92939553D01*
X109839424Y-93020906D01*
X109726335Y-93081354D01*
X109694403Y-93091040D01*
X109603617Y-93118580D01*
X109476000Y-93131149D01*
X109348382Y-93118580D01*
X109257596Y-93091040D01*
X109225664Y-93081354D01*
X109112575Y-93020906D01*
X109013447Y-92939554D01*
X108932094Y-92840424D01*
X108871646Y-92727335D01*
X108850166Y-92656523D01*
X108834420Y-92604617D01*
X108825000Y-92508972D01*
X108825000Y-91895027D01*
X108834420Y-91799382D01*
X108871645Y-91676668D01*
X108871645Y-91676667D01*
X108903957Y-91616217D01*
X108932095Y-91563574D01*
X108945493Y-91547249D01*
X109013447Y-91464446D01*
X109112576Y-91383094D01*
X109225665Y-91322646D01*
X109267601Y-91309925D01*
X109348383Y-91285420D01*
X109476000Y-91272851D01*
X109603618Y-91285420D01*
X109603618Y-91285420D01*
G37*
G36*
X113603618Y-91285420D02*
G01*
X113684400Y-91309925D01*
X113726336Y-91322646D01*
X113839425Y-91383094D01*
X113938554Y-91464446D01*
X114019906Y-91563575D01*
X114080354Y-91676664D01*
X114080355Y-91676668D01*
X114117580Y-91799382D01*
X114127000Y-91895027D01*
X114127000Y-92508973D01*
X114117580Y-92604618D01*
X114101834Y-92656524D01*
X114080354Y-92727336D01*
X114019906Y-92840425D01*
X113938554Y-92939553D01*
X113839424Y-93020906D01*
X113726335Y-93081354D01*
X113694403Y-93091040D01*
X113603617Y-93118580D01*
X113476000Y-93131149D01*
X113348382Y-93118580D01*
X113257596Y-93091040D01*
X113225664Y-93081354D01*
X113112575Y-93020906D01*
X113013447Y-92939554D01*
X112932094Y-92840424D01*
X112871646Y-92727335D01*
X112850166Y-92656523D01*
X112834420Y-92604617D01*
X112825000Y-92508972D01*
X112825000Y-91895027D01*
X112834420Y-91799382D01*
X112871645Y-91676668D01*
X112871645Y-91676667D01*
X112903957Y-91616217D01*
X112932095Y-91563574D01*
X112945493Y-91547249D01*
X113013447Y-91464446D01*
X113112576Y-91383094D01*
X113225665Y-91322646D01*
X113267601Y-91309925D01*
X113348383Y-91285420D01*
X113476000Y-91272851D01*
X113603618Y-91285420D01*
X113603618Y-91285420D01*
G37*
G36*
X115603618Y-91285420D02*
G01*
X115684400Y-91309925D01*
X115726336Y-91322646D01*
X115839425Y-91383094D01*
X115938554Y-91464446D01*
X116019906Y-91563575D01*
X116080354Y-91676664D01*
X116080355Y-91676668D01*
X116117580Y-91799382D01*
X116127000Y-91895027D01*
X116127000Y-92508973D01*
X116117580Y-92604618D01*
X116101834Y-92656524D01*
X116080354Y-92727336D01*
X116019906Y-92840425D01*
X115938554Y-92939553D01*
X115839424Y-93020906D01*
X115726335Y-93081354D01*
X115694403Y-93091040D01*
X115603617Y-93118580D01*
X115476000Y-93131149D01*
X115348382Y-93118580D01*
X115257596Y-93091040D01*
X115225664Y-93081354D01*
X115112575Y-93020906D01*
X115013447Y-92939554D01*
X114932094Y-92840424D01*
X114871646Y-92727335D01*
X114850166Y-92656523D01*
X114834420Y-92604617D01*
X114825000Y-92508972D01*
X114825000Y-91895027D01*
X114834420Y-91799382D01*
X114871645Y-91676668D01*
X114871645Y-91676667D01*
X114903957Y-91616217D01*
X114932095Y-91563574D01*
X114945493Y-91547249D01*
X115013447Y-91464446D01*
X115112576Y-91383094D01*
X115225665Y-91322646D01*
X115267601Y-91309925D01*
X115348383Y-91285420D01*
X115476000Y-91272851D01*
X115603618Y-91285420D01*
X115603618Y-91285420D01*
G37*
G36*
X117603618Y-91285420D02*
G01*
X117684400Y-91309925D01*
X117726336Y-91322646D01*
X117839425Y-91383094D01*
X117938554Y-91464446D01*
X118019906Y-91563575D01*
X118080354Y-91676664D01*
X118080355Y-91676668D01*
X118117580Y-91799382D01*
X118127000Y-91895027D01*
X118127000Y-92508973D01*
X118117580Y-92604618D01*
X118101834Y-92656524D01*
X118080354Y-92727336D01*
X118019906Y-92840425D01*
X117938554Y-92939553D01*
X117839424Y-93020906D01*
X117726335Y-93081354D01*
X117694403Y-93091040D01*
X117603617Y-93118580D01*
X117476000Y-93131149D01*
X117348382Y-93118580D01*
X117257596Y-93091040D01*
X117225664Y-93081354D01*
X117112575Y-93020906D01*
X117013447Y-92939554D01*
X116932094Y-92840424D01*
X116871646Y-92727335D01*
X116850166Y-92656523D01*
X116834420Y-92604617D01*
X116825000Y-92508972D01*
X116825000Y-91895027D01*
X116834420Y-91799382D01*
X116871645Y-91676668D01*
X116871645Y-91676667D01*
X116903957Y-91616217D01*
X116932095Y-91563574D01*
X116945493Y-91547249D01*
X117013447Y-91464446D01*
X117112576Y-91383094D01*
X117225665Y-91322646D01*
X117267601Y-91309925D01*
X117348383Y-91285420D01*
X117476000Y-91272851D01*
X117603618Y-91285420D01*
X117603618Y-91285420D01*
G37*
G36*
X119603618Y-91285420D02*
G01*
X119684400Y-91309925D01*
X119726336Y-91322646D01*
X119839425Y-91383094D01*
X119938554Y-91464446D01*
X120019906Y-91563575D01*
X120080354Y-91676664D01*
X120080355Y-91676668D01*
X120117580Y-91799382D01*
X120127000Y-91895027D01*
X120127000Y-92508973D01*
X120117580Y-92604618D01*
X120101834Y-92656524D01*
X120080354Y-92727336D01*
X120019906Y-92840425D01*
X119938554Y-92939553D01*
X119839424Y-93020906D01*
X119726335Y-93081354D01*
X119694403Y-93091040D01*
X119603617Y-93118580D01*
X119476000Y-93131149D01*
X119348382Y-93118580D01*
X119257596Y-93091040D01*
X119225664Y-93081354D01*
X119112575Y-93020906D01*
X119013447Y-92939554D01*
X118932094Y-92840424D01*
X118871646Y-92727335D01*
X118850166Y-92656523D01*
X118834420Y-92604617D01*
X118825000Y-92508972D01*
X118825000Y-91895027D01*
X118834420Y-91799382D01*
X118871645Y-91676668D01*
X118871645Y-91676667D01*
X118903957Y-91616217D01*
X118932095Y-91563574D01*
X118945493Y-91547249D01*
X119013447Y-91464446D01*
X119112576Y-91383094D01*
X119225665Y-91322646D01*
X119267601Y-91309925D01*
X119348383Y-91285420D01*
X119476000Y-91272851D01*
X119603618Y-91285420D01*
X119603618Y-91285420D01*
G37*
G36*
X121603618Y-91285420D02*
G01*
X121684400Y-91309925D01*
X121726336Y-91322646D01*
X121839425Y-91383094D01*
X121938554Y-91464446D01*
X122019906Y-91563575D01*
X122080354Y-91676664D01*
X122080355Y-91676668D01*
X122117580Y-91799382D01*
X122127000Y-91895027D01*
X122127000Y-92508973D01*
X122117580Y-92604618D01*
X122101834Y-92656524D01*
X122080354Y-92727336D01*
X122019906Y-92840425D01*
X121938554Y-92939553D01*
X121839424Y-93020906D01*
X121726335Y-93081354D01*
X121694403Y-93091040D01*
X121603617Y-93118580D01*
X121476000Y-93131149D01*
X121348382Y-93118580D01*
X121257596Y-93091040D01*
X121225664Y-93081354D01*
X121112575Y-93020906D01*
X121013447Y-92939554D01*
X120932094Y-92840424D01*
X120871646Y-92727335D01*
X120850166Y-92656523D01*
X120834420Y-92604617D01*
X120825000Y-92508972D01*
X120825000Y-91895027D01*
X120834420Y-91799382D01*
X120871645Y-91676668D01*
X120871645Y-91676667D01*
X120903957Y-91616217D01*
X120932095Y-91563574D01*
X120945493Y-91547249D01*
X121013447Y-91464446D01*
X121112576Y-91383094D01*
X121225665Y-91322646D01*
X121267601Y-91309925D01*
X121348383Y-91285420D01*
X121476000Y-91272851D01*
X121603618Y-91285420D01*
X121603618Y-91285420D01*
G37*
G36*
X123603618Y-91285420D02*
G01*
X123684400Y-91309925D01*
X123726336Y-91322646D01*
X123839425Y-91383094D01*
X123938554Y-91464446D01*
X124019906Y-91563575D01*
X124080354Y-91676664D01*
X124080355Y-91676668D01*
X124117580Y-91799382D01*
X124127000Y-91895027D01*
X124127000Y-92508973D01*
X124117580Y-92604618D01*
X124101834Y-92656524D01*
X124080354Y-92727336D01*
X124019906Y-92840425D01*
X123938554Y-92939553D01*
X123839424Y-93020906D01*
X123726335Y-93081354D01*
X123694403Y-93091040D01*
X123603617Y-93118580D01*
X123476000Y-93131149D01*
X123348382Y-93118580D01*
X123257596Y-93091040D01*
X123225664Y-93081354D01*
X123112575Y-93020906D01*
X123013447Y-92939554D01*
X122932094Y-92840424D01*
X122871646Y-92727335D01*
X122850166Y-92656523D01*
X122834420Y-92604617D01*
X122825000Y-92508972D01*
X122825000Y-91895027D01*
X122834420Y-91799382D01*
X122871645Y-91676668D01*
X122871645Y-91676667D01*
X122903957Y-91616217D01*
X122932095Y-91563574D01*
X122945493Y-91547249D01*
X123013447Y-91464446D01*
X123112576Y-91383094D01*
X123225665Y-91322646D01*
X123267601Y-91309925D01*
X123348383Y-91285420D01*
X123476000Y-91272851D01*
X123603618Y-91285420D01*
X123603618Y-91285420D01*
G37*
G36*
X131257618Y-91285420D02*
G01*
X131338400Y-91309925D01*
X131380336Y-91322646D01*
X131493425Y-91383094D01*
X131592554Y-91464446D01*
X131673906Y-91563575D01*
X131734354Y-91676664D01*
X131734355Y-91676668D01*
X131771580Y-91799382D01*
X131781000Y-91895027D01*
X131781000Y-92508973D01*
X131771580Y-92604618D01*
X131755834Y-92656524D01*
X131734354Y-92727336D01*
X131673906Y-92840425D01*
X131592554Y-92939553D01*
X131493424Y-93020906D01*
X131380335Y-93081354D01*
X131348403Y-93091040D01*
X131257617Y-93118580D01*
X131130000Y-93131149D01*
X131002382Y-93118580D01*
X130911596Y-93091040D01*
X130879664Y-93081354D01*
X130766575Y-93020906D01*
X130667447Y-92939554D01*
X130586094Y-92840424D01*
X130525646Y-92727335D01*
X130504166Y-92656523D01*
X130488420Y-92604617D01*
X130479000Y-92508972D01*
X130479000Y-91895027D01*
X130488420Y-91799382D01*
X130525645Y-91676668D01*
X130525645Y-91676667D01*
X130557957Y-91616217D01*
X130586095Y-91563574D01*
X130599493Y-91547249D01*
X130667447Y-91464446D01*
X130766576Y-91383094D01*
X130879665Y-91322646D01*
X130921601Y-91309925D01*
X131002383Y-91285420D01*
X131130000Y-91272851D01*
X131257618Y-91285420D01*
X131257618Y-91285420D01*
G37*
G36*
X133257618Y-91285420D02*
G01*
X133338400Y-91309925D01*
X133380336Y-91322646D01*
X133493425Y-91383094D01*
X133592554Y-91464446D01*
X133673906Y-91563575D01*
X133734354Y-91676664D01*
X133734355Y-91676668D01*
X133771580Y-91799382D01*
X133781000Y-91895027D01*
X133781000Y-92508973D01*
X133771580Y-92604618D01*
X133755834Y-92656524D01*
X133734354Y-92727336D01*
X133673906Y-92840425D01*
X133592554Y-92939553D01*
X133493424Y-93020906D01*
X133380335Y-93081354D01*
X133348403Y-93091040D01*
X133257617Y-93118580D01*
X133130000Y-93131149D01*
X133002382Y-93118580D01*
X132911596Y-93091040D01*
X132879664Y-93081354D01*
X132766575Y-93020906D01*
X132667447Y-92939554D01*
X132586094Y-92840424D01*
X132525646Y-92727335D01*
X132504166Y-92656523D01*
X132488420Y-92604617D01*
X132479000Y-92508972D01*
X132479000Y-91895027D01*
X132488420Y-91799382D01*
X132525645Y-91676668D01*
X132525645Y-91676667D01*
X132557957Y-91616217D01*
X132586095Y-91563574D01*
X132599493Y-91547249D01*
X132667447Y-91464446D01*
X132766576Y-91383094D01*
X132879665Y-91322646D01*
X132921601Y-91309925D01*
X133002383Y-91285420D01*
X133130000Y-91272851D01*
X133257618Y-91285420D01*
X133257618Y-91285420D01*
G37*
G36*
X137257618Y-91285420D02*
G01*
X137338400Y-91309925D01*
X137380336Y-91322646D01*
X137493425Y-91383094D01*
X137592554Y-91464446D01*
X137673906Y-91563575D01*
X137734354Y-91676664D01*
X137734355Y-91676668D01*
X137771580Y-91799382D01*
X137781000Y-91895027D01*
X137781000Y-92508973D01*
X137771580Y-92604618D01*
X137755834Y-92656524D01*
X137734354Y-92727336D01*
X137673906Y-92840425D01*
X137592554Y-92939553D01*
X137493424Y-93020906D01*
X137380335Y-93081354D01*
X137348403Y-93091040D01*
X137257617Y-93118580D01*
X137130000Y-93131149D01*
X137002382Y-93118580D01*
X136911596Y-93091040D01*
X136879664Y-93081354D01*
X136766575Y-93020906D01*
X136667447Y-92939554D01*
X136586094Y-92840424D01*
X136525646Y-92727335D01*
X136504166Y-92656523D01*
X136488420Y-92604617D01*
X136479000Y-92508972D01*
X136479000Y-91895027D01*
X136488420Y-91799382D01*
X136525645Y-91676668D01*
X136525645Y-91676667D01*
X136557957Y-91616217D01*
X136586095Y-91563574D01*
X136599493Y-91547249D01*
X136667447Y-91464446D01*
X136766576Y-91383094D01*
X136879665Y-91322646D01*
X136921601Y-91309925D01*
X137002383Y-91285420D01*
X137130000Y-91272851D01*
X137257618Y-91285420D01*
X137257618Y-91285420D01*
G37*
G36*
X139257618Y-91285420D02*
G01*
X139338400Y-91309925D01*
X139380336Y-91322646D01*
X139493425Y-91383094D01*
X139592554Y-91464446D01*
X139673906Y-91563575D01*
X139734354Y-91676664D01*
X139734355Y-91676668D01*
X139771580Y-91799382D01*
X139781000Y-91895027D01*
X139781000Y-92508973D01*
X139771580Y-92604618D01*
X139755834Y-92656524D01*
X139734354Y-92727336D01*
X139673906Y-92840425D01*
X139592554Y-92939553D01*
X139493424Y-93020906D01*
X139380335Y-93081354D01*
X139348403Y-93091040D01*
X139257617Y-93118580D01*
X139130000Y-93131149D01*
X139002382Y-93118580D01*
X138911596Y-93091040D01*
X138879664Y-93081354D01*
X138766575Y-93020906D01*
X138667447Y-92939554D01*
X138586094Y-92840424D01*
X138525646Y-92727335D01*
X138504166Y-92656523D01*
X138488420Y-92604617D01*
X138479000Y-92508972D01*
X138479000Y-91895027D01*
X138488420Y-91799382D01*
X138525645Y-91676668D01*
X138525645Y-91676667D01*
X138557957Y-91616217D01*
X138586095Y-91563574D01*
X138599493Y-91547249D01*
X138667447Y-91464446D01*
X138766576Y-91383094D01*
X138879665Y-91322646D01*
X138921601Y-91309925D01*
X139002383Y-91285420D01*
X139130000Y-91272851D01*
X139257618Y-91285420D01*
X139257618Y-91285420D01*
G37*
G36*
X141257618Y-91285420D02*
G01*
X141338400Y-91309925D01*
X141380336Y-91322646D01*
X141493425Y-91383094D01*
X141592554Y-91464446D01*
X141673906Y-91563575D01*
X141734354Y-91676664D01*
X141734355Y-91676668D01*
X141771580Y-91799382D01*
X141781000Y-91895027D01*
X141781000Y-92508973D01*
X141771580Y-92604618D01*
X141755834Y-92656524D01*
X141734354Y-92727336D01*
X141673906Y-92840425D01*
X141592554Y-92939553D01*
X141493424Y-93020906D01*
X141380335Y-93081354D01*
X141348403Y-93091040D01*
X141257617Y-93118580D01*
X141130000Y-93131149D01*
X141002382Y-93118580D01*
X140911596Y-93091040D01*
X140879664Y-93081354D01*
X140766575Y-93020906D01*
X140667447Y-92939554D01*
X140586094Y-92840424D01*
X140525646Y-92727335D01*
X140504166Y-92656523D01*
X140488420Y-92604617D01*
X140479000Y-92508972D01*
X140479000Y-91895027D01*
X140488420Y-91799382D01*
X140525645Y-91676668D01*
X140525645Y-91676667D01*
X140557957Y-91616217D01*
X140586095Y-91563574D01*
X140599493Y-91547249D01*
X140667447Y-91464446D01*
X140766576Y-91383094D01*
X140879665Y-91322646D01*
X140921601Y-91309925D01*
X141002383Y-91285420D01*
X141130000Y-91272851D01*
X141257618Y-91285420D01*
X141257618Y-91285420D01*
G37*
G36*
X143257618Y-91285420D02*
G01*
X143338400Y-91309925D01*
X143380336Y-91322646D01*
X143493425Y-91383094D01*
X143592554Y-91464446D01*
X143673906Y-91563575D01*
X143734354Y-91676664D01*
X143734355Y-91676668D01*
X143771580Y-91799382D01*
X143781000Y-91895027D01*
X143781000Y-92508973D01*
X143771580Y-92604618D01*
X143755834Y-92656524D01*
X143734354Y-92727336D01*
X143673906Y-92840425D01*
X143592554Y-92939553D01*
X143493424Y-93020906D01*
X143380335Y-93081354D01*
X143348403Y-93091040D01*
X143257617Y-93118580D01*
X143130000Y-93131149D01*
X143002382Y-93118580D01*
X142911596Y-93091040D01*
X142879664Y-93081354D01*
X142766575Y-93020906D01*
X142667447Y-92939554D01*
X142586094Y-92840424D01*
X142525646Y-92727335D01*
X142504166Y-92656523D01*
X142488420Y-92604617D01*
X142479000Y-92508972D01*
X142479000Y-91895027D01*
X142488420Y-91799382D01*
X142525645Y-91676668D01*
X142525645Y-91676667D01*
X142557957Y-91616217D01*
X142586095Y-91563574D01*
X142599493Y-91547249D01*
X142667447Y-91464446D01*
X142766576Y-91383094D01*
X142879665Y-91322646D01*
X142921601Y-91309925D01*
X143002383Y-91285420D01*
X143130000Y-91272851D01*
X143257618Y-91285420D01*
X143257618Y-91285420D01*
G37*
G36*
X157195618Y-91285420D02*
G01*
X157276400Y-91309925D01*
X157318336Y-91322646D01*
X157431425Y-91383094D01*
X157530554Y-91464446D01*
X157611906Y-91563575D01*
X157672354Y-91676664D01*
X157672355Y-91676668D01*
X157709580Y-91799382D01*
X157719000Y-91895027D01*
X157719000Y-92508973D01*
X157709580Y-92604618D01*
X157693834Y-92656524D01*
X157672354Y-92727336D01*
X157611906Y-92840425D01*
X157530554Y-92939553D01*
X157431424Y-93020906D01*
X157318335Y-93081354D01*
X157286403Y-93091040D01*
X157195617Y-93118580D01*
X157068000Y-93131149D01*
X156940382Y-93118580D01*
X156849596Y-93091040D01*
X156817664Y-93081354D01*
X156704575Y-93020906D01*
X156605447Y-92939554D01*
X156524094Y-92840424D01*
X156463646Y-92727335D01*
X156442166Y-92656523D01*
X156426420Y-92604617D01*
X156417000Y-92508972D01*
X156417000Y-91895027D01*
X156426420Y-91799382D01*
X156463645Y-91676668D01*
X156463645Y-91676667D01*
X156495957Y-91616217D01*
X156524095Y-91563574D01*
X156537493Y-91547249D01*
X156605447Y-91464446D01*
X156704576Y-91383094D01*
X156817665Y-91322646D01*
X156859601Y-91309925D01*
X156940383Y-91285420D01*
X157068000Y-91272851D01*
X157195618Y-91285420D01*
X157195618Y-91285420D01*
G37*
G36*
X159195618Y-91285420D02*
G01*
X159276400Y-91309925D01*
X159318336Y-91322646D01*
X159431425Y-91383094D01*
X159530554Y-91464446D01*
X159611906Y-91563575D01*
X159672354Y-91676664D01*
X159672355Y-91676668D01*
X159709580Y-91799382D01*
X159719000Y-91895027D01*
X159719000Y-92508973D01*
X159709580Y-92604618D01*
X159693834Y-92656524D01*
X159672354Y-92727336D01*
X159611906Y-92840425D01*
X159530554Y-92939553D01*
X159431424Y-93020906D01*
X159318335Y-93081354D01*
X159286403Y-93091040D01*
X159195617Y-93118580D01*
X159068000Y-93131149D01*
X158940382Y-93118580D01*
X158849596Y-93091040D01*
X158817664Y-93081354D01*
X158704575Y-93020906D01*
X158605447Y-92939554D01*
X158524094Y-92840424D01*
X158463646Y-92727335D01*
X158442166Y-92656523D01*
X158426420Y-92604617D01*
X158417000Y-92508972D01*
X158417000Y-91895027D01*
X158426420Y-91799382D01*
X158463645Y-91676668D01*
X158463645Y-91676667D01*
X158495957Y-91616217D01*
X158524095Y-91563574D01*
X158537493Y-91547249D01*
X158605447Y-91464446D01*
X158704576Y-91383094D01*
X158817665Y-91322646D01*
X158859601Y-91309925D01*
X158940383Y-91285420D01*
X159068000Y-91272851D01*
X159195618Y-91285420D01*
X159195618Y-91285420D01*
G37*
G36*
X161195618Y-91285420D02*
G01*
X161276400Y-91309925D01*
X161318336Y-91322646D01*
X161431425Y-91383094D01*
X161530554Y-91464446D01*
X161611906Y-91563575D01*
X161672354Y-91676664D01*
X161672355Y-91676668D01*
X161709580Y-91799382D01*
X161719000Y-91895027D01*
X161719000Y-92508973D01*
X161709580Y-92604618D01*
X161693834Y-92656524D01*
X161672354Y-92727336D01*
X161611906Y-92840425D01*
X161530554Y-92939553D01*
X161431424Y-93020906D01*
X161318335Y-93081354D01*
X161286403Y-93091040D01*
X161195617Y-93118580D01*
X161068000Y-93131149D01*
X160940382Y-93118580D01*
X160849596Y-93091040D01*
X160817664Y-93081354D01*
X160704575Y-93020906D01*
X160605447Y-92939554D01*
X160524094Y-92840424D01*
X160463646Y-92727335D01*
X160442166Y-92656523D01*
X160426420Y-92604617D01*
X160417000Y-92508972D01*
X160417000Y-91895027D01*
X160426420Y-91799382D01*
X160463645Y-91676668D01*
X160463645Y-91676667D01*
X160495957Y-91616217D01*
X160524095Y-91563574D01*
X160537493Y-91547249D01*
X160605447Y-91464446D01*
X160704576Y-91383094D01*
X160817665Y-91322646D01*
X160859601Y-91309925D01*
X160940383Y-91285420D01*
X161068000Y-91272851D01*
X161195618Y-91285420D01*
X161195618Y-91285420D01*
G37*
G36*
X145257618Y-91285420D02*
G01*
X145338400Y-91309925D01*
X145380336Y-91322646D01*
X145493425Y-91383094D01*
X145592554Y-91464446D01*
X145673906Y-91563575D01*
X145734354Y-91676664D01*
X145734355Y-91676668D01*
X145771580Y-91799382D01*
X145781000Y-91895027D01*
X145781000Y-92508973D01*
X145771580Y-92604618D01*
X145755834Y-92656524D01*
X145734354Y-92727336D01*
X145673906Y-92840425D01*
X145592554Y-92939553D01*
X145493424Y-93020906D01*
X145380335Y-93081354D01*
X145348403Y-93091040D01*
X145257617Y-93118580D01*
X145130000Y-93131149D01*
X145002382Y-93118580D01*
X144911596Y-93091040D01*
X144879664Y-93081354D01*
X144766575Y-93020906D01*
X144667447Y-92939554D01*
X144586094Y-92840424D01*
X144525646Y-92727335D01*
X144504166Y-92656523D01*
X144488420Y-92604617D01*
X144479000Y-92508972D01*
X144479000Y-91895027D01*
X144488420Y-91799382D01*
X144525645Y-91676668D01*
X144525645Y-91676667D01*
X144557957Y-91616217D01*
X144586095Y-91563574D01*
X144599493Y-91547249D01*
X144667447Y-91464446D01*
X144766576Y-91383094D01*
X144879665Y-91322646D01*
X144921601Y-91309925D01*
X145002383Y-91285420D01*
X145130000Y-91272851D01*
X145257618Y-91285420D01*
X145257618Y-91285420D01*
G37*
G36*
X147257618Y-91285420D02*
G01*
X147338400Y-91309925D01*
X147380336Y-91322646D01*
X147493425Y-91383094D01*
X147592554Y-91464446D01*
X147673906Y-91563575D01*
X147734354Y-91676664D01*
X147734355Y-91676668D01*
X147771580Y-91799382D01*
X147781000Y-91895027D01*
X147781000Y-92508973D01*
X147771580Y-92604618D01*
X147755834Y-92656524D01*
X147734354Y-92727336D01*
X147673906Y-92840425D01*
X147592554Y-92939553D01*
X147493424Y-93020906D01*
X147380335Y-93081354D01*
X147348403Y-93091040D01*
X147257617Y-93118580D01*
X147130000Y-93131149D01*
X147002382Y-93118580D01*
X146911596Y-93091040D01*
X146879664Y-93081354D01*
X146766575Y-93020906D01*
X146667447Y-92939554D01*
X146586094Y-92840424D01*
X146525646Y-92727335D01*
X146504166Y-92656523D01*
X146488420Y-92604617D01*
X146479000Y-92508972D01*
X146479000Y-91895027D01*
X146488420Y-91799382D01*
X146525645Y-91676668D01*
X146525645Y-91676667D01*
X146557957Y-91616217D01*
X146586095Y-91563574D01*
X146599493Y-91547249D01*
X146667447Y-91464446D01*
X146766576Y-91383094D01*
X146879665Y-91322646D01*
X146921601Y-91309925D01*
X147002383Y-91285420D01*
X147130000Y-91272851D01*
X147257618Y-91285420D01*
X147257618Y-91285420D01*
G37*
G36*
X149257618Y-91285420D02*
G01*
X149338400Y-91309925D01*
X149380336Y-91322646D01*
X149493425Y-91383094D01*
X149592554Y-91464446D01*
X149673906Y-91563575D01*
X149734354Y-91676664D01*
X149734355Y-91676668D01*
X149771580Y-91799382D01*
X149781000Y-91895027D01*
X149781000Y-92508973D01*
X149771580Y-92604618D01*
X149755834Y-92656524D01*
X149734354Y-92727336D01*
X149673906Y-92840425D01*
X149592554Y-92939553D01*
X149493424Y-93020906D01*
X149380335Y-93081354D01*
X149348403Y-93091040D01*
X149257617Y-93118580D01*
X149130000Y-93131149D01*
X149002382Y-93118580D01*
X148911596Y-93091040D01*
X148879664Y-93081354D01*
X148766575Y-93020906D01*
X148667447Y-92939554D01*
X148586094Y-92840424D01*
X148525646Y-92727335D01*
X148504166Y-92656523D01*
X148488420Y-92604617D01*
X148479000Y-92508972D01*
X148479000Y-91895027D01*
X148488420Y-91799382D01*
X148525645Y-91676668D01*
X148525645Y-91676667D01*
X148557957Y-91616217D01*
X148586095Y-91563574D01*
X148599493Y-91547249D01*
X148667447Y-91464446D01*
X148766576Y-91383094D01*
X148879665Y-91322646D01*
X148921601Y-91309925D01*
X149002383Y-91285420D01*
X149130000Y-91272851D01*
X149257618Y-91285420D01*
X149257618Y-91285420D01*
G37*
G36*
X151621242Y-91280404D02*
G01*
X151658337Y-91291657D01*
X151692515Y-91309925D01*
X151722481Y-91334519D01*
X151747075Y-91364485D01*
X151765343Y-91398663D01*
X151776596Y-91435758D01*
X151781000Y-91480474D01*
X151781000Y-92923526D01*
X151776596Y-92968242D01*
X151765343Y-93005337D01*
X151747075Y-93039515D01*
X151722481Y-93069481D01*
X151692515Y-93094075D01*
X151658337Y-93112343D01*
X151621242Y-93123596D01*
X151576526Y-93128000D01*
X150683474Y-93128000D01*
X150638758Y-93123596D01*
X150601663Y-93112343D01*
X150567485Y-93094075D01*
X150537519Y-93069481D01*
X150512925Y-93039515D01*
X150494657Y-93005337D01*
X150483404Y-92968242D01*
X150479000Y-92923526D01*
X150479000Y-91480474D01*
X150483404Y-91435758D01*
X150494657Y-91398663D01*
X150512925Y-91364485D01*
X150537519Y-91334519D01*
X150567485Y-91309925D01*
X150601663Y-91291657D01*
X150638758Y-91280404D01*
X150683474Y-91276000D01*
X151576526Y-91276000D01*
X151621242Y-91280404D01*
X151621242Y-91280404D01*
G37*
G36*
X125967242Y-91280404D02*
G01*
X126004337Y-91291657D01*
X126038515Y-91309925D01*
X126068481Y-91334519D01*
X126093075Y-91364485D01*
X126111343Y-91398663D01*
X126122596Y-91435758D01*
X126127000Y-91480474D01*
X126127000Y-92923526D01*
X126122596Y-92968242D01*
X126111343Y-93005337D01*
X126093075Y-93039515D01*
X126068481Y-93069481D01*
X126038515Y-93094075D01*
X126004337Y-93112343D01*
X125967242Y-93123596D01*
X125922526Y-93128000D01*
X125029474Y-93128000D01*
X124984758Y-93123596D01*
X124947663Y-93112343D01*
X124913485Y-93094075D01*
X124883519Y-93069481D01*
X124858925Y-93039515D01*
X124840657Y-93005337D01*
X124829404Y-92968242D01*
X124825000Y-92923526D01*
X124825000Y-91480474D01*
X124829404Y-91435758D01*
X124840657Y-91398663D01*
X124858925Y-91364485D01*
X124883519Y-91334519D01*
X124913485Y-91309925D01*
X124947663Y-91291657D01*
X124984758Y-91280404D01*
X125029474Y-91276000D01*
X125922526Y-91276000D01*
X125967242Y-91280404D01*
X125967242Y-91280404D01*
G37*
G36*
X163559242Y-91280404D02*
G01*
X163596337Y-91291657D01*
X163630515Y-91309925D01*
X163660481Y-91334519D01*
X163685075Y-91364485D01*
X163703343Y-91398663D01*
X163714596Y-91435758D01*
X163719000Y-91480474D01*
X163719000Y-92923526D01*
X163714596Y-92968242D01*
X163703343Y-93005337D01*
X163685075Y-93039515D01*
X163660481Y-93069481D01*
X163630515Y-93094075D01*
X163596337Y-93112343D01*
X163559242Y-93123596D01*
X163514526Y-93128000D01*
X162621474Y-93128000D01*
X162576758Y-93123596D01*
X162539663Y-93112343D01*
X162505485Y-93094075D01*
X162475519Y-93069481D01*
X162450925Y-93039515D01*
X162432657Y-93005337D01*
X162421404Y-92968242D01*
X162417000Y-92923526D01*
X162417000Y-91480474D01*
X162421404Y-91435758D01*
X162432657Y-91398663D01*
X162450925Y-91364485D01*
X162475519Y-91334519D01*
X162505485Y-91309925D01*
X162539663Y-91291657D01*
X162576758Y-91280404D01*
X162621474Y-91276000D01*
X163514526Y-91276000D01*
X163559242Y-91280404D01*
X163559242Y-91280404D01*
G37*
G36*
X171255626Y-89060783D02*
G01*
X171609775Y-89207476D01*
X171609777Y-89207477D01*
X171928503Y-89420443D01*
X172199557Y-89691497D01*
X172412523Y-90010223D01*
X172412524Y-90010225D01*
X172559217Y-90364374D01*
X172634000Y-90740334D01*
X172634000Y-91123666D01*
X172559217Y-91499626D01*
X172485884Y-91676667D01*
X172412523Y-91853777D01*
X172199557Y-92172503D01*
X171928503Y-92443557D01*
X171609777Y-92656523D01*
X171609776Y-92656524D01*
X171609775Y-92656524D01*
X171255626Y-92803217D01*
X170879666Y-92878000D01*
X170496334Y-92878000D01*
X170120374Y-92803217D01*
X169766225Y-92656524D01*
X169766224Y-92656524D01*
X169766223Y-92656523D01*
X169447497Y-92443557D01*
X169176443Y-92172503D01*
X168963477Y-91853777D01*
X168890116Y-91676667D01*
X168816783Y-91499626D01*
X168742000Y-91123666D01*
X168742000Y-90740334D01*
X168816783Y-90364374D01*
X168963476Y-90010225D01*
X168963477Y-90010223D01*
X169176443Y-89691497D01*
X169447497Y-89420443D01*
X169766223Y-89207477D01*
X169766225Y-89207476D01*
X170120374Y-89060783D01*
X170496334Y-88986000D01*
X170879666Y-88986000D01*
X171255626Y-89060783D01*
X171255626Y-89060783D01*
G37*
G36*
X101405626Y-89060783D02*
G01*
X101759775Y-89207476D01*
X101759777Y-89207477D01*
X102078503Y-89420443D01*
X102349557Y-89691497D01*
X102562523Y-90010223D01*
X102562524Y-90010225D01*
X102709217Y-90364374D01*
X102784000Y-90740334D01*
X102784000Y-91123666D01*
X102709217Y-91499626D01*
X102635884Y-91676667D01*
X102562523Y-91853777D01*
X102349557Y-92172503D01*
X102078503Y-92443557D01*
X101759777Y-92656523D01*
X101759776Y-92656524D01*
X101759775Y-92656524D01*
X101405626Y-92803217D01*
X101029666Y-92878000D01*
X100646334Y-92878000D01*
X100270374Y-92803217D01*
X99916225Y-92656524D01*
X99916224Y-92656524D01*
X99916223Y-92656523D01*
X99597497Y-92443557D01*
X99326443Y-92172503D01*
X99113477Y-91853777D01*
X99040116Y-91676667D01*
X98966783Y-91499626D01*
X98892000Y-91123666D01*
X98892000Y-90740334D01*
X98966783Y-90364374D01*
X99113476Y-90010225D01*
X99113477Y-90010223D01*
X99326443Y-89691497D01*
X99597497Y-89420443D01*
X99916223Y-89207477D01*
X99916225Y-89207476D01*
X100270374Y-89060783D01*
X100646334Y-88986000D01*
X101029666Y-88986000D01*
X101405626Y-89060783D01*
X101405626Y-89060783D01*
G37*
G36*
X164143626Y-76360783D02*
G01*
X164497775Y-76507476D01*
X164497777Y-76507477D01*
X164816503Y-76720443D01*
X165087557Y-76991497D01*
X165300523Y-77310223D01*
X165300524Y-77310225D01*
X165447217Y-77664374D01*
X165522000Y-78040334D01*
X165522000Y-78423666D01*
X165447217Y-78799626D01*
X165300524Y-79153775D01*
X165300523Y-79153777D01*
X165087557Y-79472503D01*
X164816503Y-79743557D01*
X164497777Y-79956523D01*
X164497776Y-79956524D01*
X164497775Y-79956524D01*
X164143626Y-80103217D01*
X163767666Y-80178000D01*
X163384334Y-80178000D01*
X163008374Y-80103217D01*
X162654225Y-79956524D01*
X162654224Y-79956524D01*
X162654223Y-79956523D01*
X162335497Y-79743557D01*
X162064443Y-79472503D01*
X161851477Y-79153777D01*
X161851476Y-79153775D01*
X161704783Y-78799626D01*
X161630000Y-78423666D01*
X161630000Y-78040334D01*
X161704783Y-77664374D01*
X161851476Y-77310225D01*
X161851477Y-77310223D01*
X162064443Y-76991497D01*
X162335497Y-76720443D01*
X162654223Y-76507477D01*
X162654225Y-76507476D01*
X163008374Y-76360783D01*
X163384334Y-76286000D01*
X163767666Y-76286000D01*
X164143626Y-76360783D01*
X164143626Y-76360783D01*
G37*
G36*
X101405626Y-76360783D02*
G01*
X101759775Y-76507476D01*
X101759777Y-76507477D01*
X102078503Y-76720443D01*
X102349557Y-76991497D01*
X102562523Y-77310223D01*
X102562524Y-77310225D01*
X102709217Y-77664374D01*
X102784000Y-78040334D01*
X102784000Y-78423666D01*
X102709217Y-78799626D01*
X102562524Y-79153775D01*
X102562523Y-79153777D01*
X102349557Y-79472503D01*
X102078503Y-79743557D01*
X101759777Y-79956523D01*
X101759776Y-79956524D01*
X101759775Y-79956524D01*
X101405626Y-80103217D01*
X101029666Y-80178000D01*
X100646334Y-80178000D01*
X100270374Y-80103217D01*
X99916225Y-79956524D01*
X99916224Y-79956524D01*
X99916223Y-79956523D01*
X99597497Y-79743557D01*
X99326443Y-79472503D01*
X99113477Y-79153777D01*
X99113476Y-79153775D01*
X98966783Y-78799626D01*
X98892000Y-78423666D01*
X98892000Y-78040334D01*
X98966783Y-77664374D01*
X99113476Y-77310225D01*
X99113477Y-77310223D01*
X99326443Y-76991497D01*
X99597497Y-76720443D01*
X99916223Y-76507477D01*
X99916225Y-76507476D01*
X100270374Y-76360783D01*
X100646334Y-76286000D01*
X101029666Y-76286000D01*
X101405626Y-76360783D01*
X101405626Y-76360783D01*
G37*
G36*
X116585617Y-75537420D02*
G01*
X116666399Y-75561925D01*
X116708335Y-75574646D01*
X116821424Y-75635094D01*
X116920554Y-75716447D01*
X117001906Y-75815575D01*
X117062354Y-75928664D01*
X117072040Y-75960596D01*
X117099580Y-76051382D01*
X117109000Y-76147027D01*
X117109000Y-76760973D01*
X117099580Y-76856618D01*
X117072040Y-76947404D01*
X117062354Y-76979336D01*
X117001906Y-77092425D01*
X116920554Y-77191554D01*
X116821425Y-77272906D01*
X116708336Y-77333354D01*
X116676404Y-77343040D01*
X116585618Y-77370580D01*
X116458000Y-77383149D01*
X116330383Y-77370580D01*
X116239597Y-77343040D01*
X116207665Y-77333354D01*
X116094576Y-77272906D01*
X115995447Y-77191554D01*
X115914096Y-77092427D01*
X115914095Y-77092425D01*
X115885957Y-77039783D01*
X115853645Y-76979333D01*
X115841237Y-76938427D01*
X115816420Y-76856618D01*
X115807000Y-76760973D01*
X115807000Y-76147028D01*
X115816420Y-76051383D01*
X115853645Y-75928669D01*
X115853646Y-75928665D01*
X115914094Y-75815576D01*
X115995447Y-75716446D01*
X116094575Y-75635094D01*
X116207664Y-75574646D01*
X116249600Y-75561925D01*
X116330382Y-75537420D01*
X116458000Y-75524851D01*
X116585617Y-75537420D01*
X116585617Y-75537420D01*
G37*
G36*
X112585617Y-75537420D02*
G01*
X112666399Y-75561925D01*
X112708335Y-75574646D01*
X112821424Y-75635094D01*
X112920554Y-75716447D01*
X113001906Y-75815575D01*
X113062354Y-75928664D01*
X113072040Y-75960596D01*
X113099580Y-76051382D01*
X113109000Y-76147027D01*
X113109000Y-76760973D01*
X113099580Y-76856618D01*
X113072040Y-76947404D01*
X113062354Y-76979336D01*
X113001906Y-77092425D01*
X112920554Y-77191554D01*
X112821425Y-77272906D01*
X112708336Y-77333354D01*
X112676404Y-77343040D01*
X112585618Y-77370580D01*
X112458000Y-77383149D01*
X112330383Y-77370580D01*
X112239597Y-77343040D01*
X112207665Y-77333354D01*
X112094576Y-77272906D01*
X111995447Y-77191554D01*
X111914096Y-77092427D01*
X111914095Y-77092425D01*
X111885957Y-77039783D01*
X111853645Y-76979333D01*
X111841237Y-76938427D01*
X111816420Y-76856618D01*
X111807000Y-76760973D01*
X111807000Y-76147028D01*
X111816420Y-76051383D01*
X111853645Y-75928669D01*
X111853646Y-75928665D01*
X111914094Y-75815576D01*
X111995447Y-75716446D01*
X112094575Y-75635094D01*
X112207664Y-75574646D01*
X112249600Y-75561925D01*
X112330382Y-75537420D01*
X112458000Y-75524851D01*
X112585617Y-75537420D01*
X112585617Y-75537420D01*
G37*
G36*
X151225617Y-75537420D02*
G01*
X151306399Y-75561925D01*
X151348335Y-75574646D01*
X151461424Y-75635094D01*
X151560554Y-75716447D01*
X151641906Y-75815575D01*
X151702354Y-75928664D01*
X151712040Y-75960596D01*
X151739580Y-76051382D01*
X151749000Y-76147027D01*
X151749000Y-76760973D01*
X151739580Y-76856618D01*
X151712040Y-76947404D01*
X151702354Y-76979336D01*
X151641906Y-77092425D01*
X151560554Y-77191554D01*
X151461425Y-77272906D01*
X151348336Y-77333354D01*
X151316404Y-77343040D01*
X151225618Y-77370580D01*
X151098000Y-77383149D01*
X150970383Y-77370580D01*
X150879597Y-77343040D01*
X150847665Y-77333354D01*
X150734576Y-77272906D01*
X150635447Y-77191554D01*
X150554096Y-77092427D01*
X150554095Y-77092425D01*
X150525957Y-77039783D01*
X150493645Y-76979333D01*
X150481237Y-76938427D01*
X150456420Y-76856618D01*
X150447000Y-76760973D01*
X150447000Y-76147028D01*
X150456420Y-76051383D01*
X150493645Y-75928669D01*
X150493646Y-75928665D01*
X150554094Y-75815576D01*
X150635447Y-75716446D01*
X150734575Y-75635094D01*
X150847664Y-75574646D01*
X150889600Y-75561925D01*
X150970382Y-75537420D01*
X151098000Y-75524851D01*
X151225617Y-75537420D01*
X151225617Y-75537420D01*
G37*
G36*
X132905617Y-75537420D02*
G01*
X132986399Y-75561925D01*
X133028335Y-75574646D01*
X133141424Y-75635094D01*
X133240554Y-75716447D01*
X133321906Y-75815575D01*
X133382354Y-75928664D01*
X133392040Y-75960596D01*
X133419580Y-76051382D01*
X133429000Y-76147027D01*
X133429000Y-76760973D01*
X133419580Y-76856618D01*
X133392040Y-76947404D01*
X133382354Y-76979336D01*
X133321906Y-77092425D01*
X133240554Y-77191554D01*
X133141425Y-77272906D01*
X133028336Y-77333354D01*
X132996404Y-77343040D01*
X132905618Y-77370580D01*
X132778000Y-77383149D01*
X132650383Y-77370580D01*
X132559597Y-77343040D01*
X132527665Y-77333354D01*
X132414576Y-77272906D01*
X132315447Y-77191554D01*
X132234096Y-77092427D01*
X132234095Y-77092425D01*
X132205957Y-77039783D01*
X132173645Y-76979333D01*
X132161237Y-76938427D01*
X132136420Y-76856618D01*
X132127000Y-76760973D01*
X132127000Y-76147028D01*
X132136420Y-76051383D01*
X132173645Y-75928669D01*
X132173646Y-75928665D01*
X132234094Y-75815576D01*
X132315447Y-75716446D01*
X132414575Y-75635094D01*
X132527664Y-75574646D01*
X132569600Y-75561925D01*
X132650382Y-75537420D01*
X132778000Y-75524851D01*
X132905617Y-75537420D01*
X132905617Y-75537420D01*
G37*
G36*
X130905617Y-75537420D02*
G01*
X130986399Y-75561925D01*
X131028335Y-75574646D01*
X131141424Y-75635094D01*
X131240554Y-75716447D01*
X131321906Y-75815575D01*
X131382354Y-75928664D01*
X131392040Y-75960596D01*
X131419580Y-76051382D01*
X131429000Y-76147027D01*
X131429000Y-76760973D01*
X131419580Y-76856618D01*
X131392040Y-76947404D01*
X131382354Y-76979336D01*
X131321906Y-77092425D01*
X131240554Y-77191554D01*
X131141425Y-77272906D01*
X131028336Y-77333354D01*
X130996404Y-77343040D01*
X130905618Y-77370580D01*
X130778000Y-77383149D01*
X130650383Y-77370580D01*
X130559597Y-77343040D01*
X130527665Y-77333354D01*
X130414576Y-77272906D01*
X130315447Y-77191554D01*
X130234096Y-77092427D01*
X130234095Y-77092425D01*
X130205957Y-77039783D01*
X130173645Y-76979333D01*
X130161237Y-76938427D01*
X130136420Y-76856618D01*
X130127000Y-76760973D01*
X130127000Y-76147028D01*
X130136420Y-76051383D01*
X130173645Y-75928669D01*
X130173646Y-75928665D01*
X130234094Y-75815576D01*
X130315447Y-75716446D01*
X130414575Y-75635094D01*
X130527664Y-75574646D01*
X130569600Y-75561925D01*
X130650382Y-75537420D01*
X130778000Y-75524851D01*
X130905617Y-75537420D01*
X130905617Y-75537420D01*
G37*
G36*
X120585617Y-75537420D02*
G01*
X120666399Y-75561925D01*
X120708335Y-75574646D01*
X120821424Y-75635094D01*
X120920554Y-75716447D01*
X121001906Y-75815575D01*
X121062354Y-75928664D01*
X121072040Y-75960596D01*
X121099580Y-76051382D01*
X121109000Y-76147027D01*
X121109000Y-76760973D01*
X121099580Y-76856618D01*
X121072040Y-76947404D01*
X121062354Y-76979336D01*
X121001906Y-77092425D01*
X120920554Y-77191554D01*
X120821425Y-77272906D01*
X120708336Y-77333354D01*
X120676404Y-77343040D01*
X120585618Y-77370580D01*
X120458000Y-77383149D01*
X120330383Y-77370580D01*
X120239597Y-77343040D01*
X120207665Y-77333354D01*
X120094576Y-77272906D01*
X119995447Y-77191554D01*
X119914096Y-77092427D01*
X119914095Y-77092425D01*
X119885957Y-77039783D01*
X119853645Y-76979333D01*
X119841237Y-76938427D01*
X119816420Y-76856618D01*
X119807000Y-76760973D01*
X119807000Y-76147028D01*
X119816420Y-76051383D01*
X119853645Y-75928669D01*
X119853646Y-75928665D01*
X119914094Y-75815576D01*
X119995447Y-75716446D01*
X120094575Y-75635094D01*
X120207664Y-75574646D01*
X120249600Y-75561925D01*
X120330382Y-75537420D01*
X120458000Y-75524851D01*
X120585617Y-75537420D01*
X120585617Y-75537420D01*
G37*
G36*
X118585617Y-75537420D02*
G01*
X118666399Y-75561925D01*
X118708335Y-75574646D01*
X118821424Y-75635094D01*
X118920554Y-75716447D01*
X119001906Y-75815575D01*
X119062354Y-75928664D01*
X119072040Y-75960596D01*
X119099580Y-76051382D01*
X119109000Y-76147027D01*
X119109000Y-76760973D01*
X119099580Y-76856618D01*
X119072040Y-76947404D01*
X119062354Y-76979336D01*
X119001906Y-77092425D01*
X118920554Y-77191554D01*
X118821425Y-77272906D01*
X118708336Y-77333354D01*
X118676404Y-77343040D01*
X118585618Y-77370580D01*
X118458000Y-77383149D01*
X118330383Y-77370580D01*
X118239597Y-77343040D01*
X118207665Y-77333354D01*
X118094576Y-77272906D01*
X117995447Y-77191554D01*
X117914096Y-77092427D01*
X117914095Y-77092425D01*
X117885957Y-77039783D01*
X117853645Y-76979333D01*
X117841237Y-76938427D01*
X117816420Y-76856618D01*
X117807000Y-76760973D01*
X117807000Y-76147028D01*
X117816420Y-76051383D01*
X117853645Y-75928669D01*
X117853646Y-75928665D01*
X117914094Y-75815576D01*
X117995447Y-75716446D01*
X118094575Y-75635094D01*
X118207664Y-75574646D01*
X118249600Y-75561925D01*
X118330382Y-75537420D01*
X118458000Y-75524851D01*
X118585617Y-75537420D01*
X118585617Y-75537420D01*
G37*
G36*
X155225617Y-75537420D02*
G01*
X155306399Y-75561925D01*
X155348335Y-75574646D01*
X155461424Y-75635094D01*
X155560554Y-75716447D01*
X155641906Y-75815575D01*
X155702354Y-75928664D01*
X155712040Y-75960596D01*
X155739580Y-76051382D01*
X155749000Y-76147027D01*
X155749000Y-76760973D01*
X155739580Y-76856618D01*
X155712040Y-76947404D01*
X155702354Y-76979336D01*
X155641906Y-77092425D01*
X155560554Y-77191554D01*
X155461425Y-77272906D01*
X155348336Y-77333354D01*
X155316404Y-77343040D01*
X155225618Y-77370580D01*
X155098000Y-77383149D01*
X154970383Y-77370580D01*
X154879597Y-77343040D01*
X154847665Y-77333354D01*
X154734576Y-77272906D01*
X154635447Y-77191554D01*
X154554096Y-77092427D01*
X154554095Y-77092425D01*
X154525957Y-77039783D01*
X154493645Y-76979333D01*
X154481237Y-76938427D01*
X154456420Y-76856618D01*
X154447000Y-76760973D01*
X154447000Y-76147028D01*
X154456420Y-76051383D01*
X154493645Y-75928669D01*
X154493646Y-75928665D01*
X154554094Y-75815576D01*
X154635447Y-75716446D01*
X154734575Y-75635094D01*
X154847664Y-75574646D01*
X154889600Y-75561925D01*
X154970382Y-75537420D01*
X155098000Y-75524851D01*
X155225617Y-75537420D01*
X155225617Y-75537420D01*
G37*
G36*
X153225617Y-75537420D02*
G01*
X153306399Y-75561925D01*
X153348335Y-75574646D01*
X153461424Y-75635094D01*
X153560554Y-75716447D01*
X153641906Y-75815575D01*
X153702354Y-75928664D01*
X153712040Y-75960596D01*
X153739580Y-76051382D01*
X153749000Y-76147027D01*
X153749000Y-76760973D01*
X153739580Y-76856618D01*
X153712040Y-76947404D01*
X153702354Y-76979336D01*
X153641906Y-77092425D01*
X153560554Y-77191554D01*
X153461425Y-77272906D01*
X153348336Y-77333354D01*
X153316404Y-77343040D01*
X153225618Y-77370580D01*
X153098000Y-77383149D01*
X152970383Y-77370580D01*
X152879597Y-77343040D01*
X152847665Y-77333354D01*
X152734576Y-77272906D01*
X152635447Y-77191554D01*
X152554096Y-77092427D01*
X152554095Y-77092425D01*
X152525957Y-77039783D01*
X152493645Y-76979333D01*
X152481237Y-76938427D01*
X152456420Y-76856618D01*
X152447000Y-76760973D01*
X152447000Y-76147028D01*
X152456420Y-76051383D01*
X152493645Y-75928669D01*
X152493646Y-75928665D01*
X152554094Y-75815576D01*
X152635447Y-75716446D01*
X152734575Y-75635094D01*
X152847664Y-75574646D01*
X152889600Y-75561925D01*
X152970382Y-75537420D01*
X153098000Y-75524851D01*
X153225617Y-75537420D01*
X153225617Y-75537420D01*
G37*
G36*
X122585617Y-75537420D02*
G01*
X122666399Y-75561925D01*
X122708335Y-75574646D01*
X122821424Y-75635094D01*
X122920554Y-75716447D01*
X123001906Y-75815575D01*
X123062354Y-75928664D01*
X123072040Y-75960596D01*
X123099580Y-76051382D01*
X123109000Y-76147027D01*
X123109000Y-76760973D01*
X123099580Y-76856618D01*
X123072040Y-76947404D01*
X123062354Y-76979336D01*
X123001906Y-77092425D01*
X122920554Y-77191554D01*
X122821425Y-77272906D01*
X122708336Y-77333354D01*
X122676404Y-77343040D01*
X122585618Y-77370580D01*
X122458000Y-77383149D01*
X122330383Y-77370580D01*
X122239597Y-77343040D01*
X122207665Y-77333354D01*
X122094576Y-77272906D01*
X121995447Y-77191554D01*
X121914096Y-77092427D01*
X121914095Y-77092425D01*
X121885957Y-77039783D01*
X121853645Y-76979333D01*
X121841237Y-76938427D01*
X121816420Y-76856618D01*
X121807000Y-76760973D01*
X121807000Y-76147028D01*
X121816420Y-76051383D01*
X121853645Y-75928669D01*
X121853646Y-75928665D01*
X121914094Y-75815576D01*
X121995447Y-75716446D01*
X122094575Y-75635094D01*
X122207664Y-75574646D01*
X122249600Y-75561925D01*
X122330382Y-75537420D01*
X122458000Y-75524851D01*
X122585617Y-75537420D01*
X122585617Y-75537420D01*
G37*
G36*
X134905617Y-75537420D02*
G01*
X134986399Y-75561925D01*
X135028335Y-75574646D01*
X135141424Y-75635094D01*
X135240554Y-75716447D01*
X135321906Y-75815575D01*
X135382354Y-75928664D01*
X135392040Y-75960596D01*
X135419580Y-76051382D01*
X135429000Y-76147027D01*
X135429000Y-76760973D01*
X135419580Y-76856618D01*
X135392040Y-76947404D01*
X135382354Y-76979336D01*
X135321906Y-77092425D01*
X135240554Y-77191554D01*
X135141425Y-77272906D01*
X135028336Y-77333354D01*
X134996404Y-77343040D01*
X134905618Y-77370580D01*
X134778000Y-77383149D01*
X134650383Y-77370580D01*
X134559597Y-77343040D01*
X134527665Y-77333354D01*
X134414576Y-77272906D01*
X134315447Y-77191554D01*
X134234096Y-77092427D01*
X134234095Y-77092425D01*
X134205957Y-77039783D01*
X134173645Y-76979333D01*
X134161237Y-76938427D01*
X134136420Y-76856618D01*
X134127000Y-76760973D01*
X134127000Y-76147028D01*
X134136420Y-76051383D01*
X134173645Y-75928669D01*
X134173646Y-75928665D01*
X134234094Y-75815576D01*
X134315447Y-75716446D01*
X134414575Y-75635094D01*
X134527664Y-75574646D01*
X134569600Y-75561925D01*
X134650382Y-75537420D01*
X134778000Y-75524851D01*
X134905617Y-75537420D01*
X134905617Y-75537420D01*
G37*
G36*
X114585617Y-75537420D02*
G01*
X114666399Y-75561925D01*
X114708335Y-75574646D01*
X114821424Y-75635094D01*
X114920554Y-75716447D01*
X115001906Y-75815575D01*
X115062354Y-75928664D01*
X115072040Y-75960596D01*
X115099580Y-76051382D01*
X115109000Y-76147027D01*
X115109000Y-76760973D01*
X115099580Y-76856618D01*
X115072040Y-76947404D01*
X115062354Y-76979336D01*
X115001906Y-77092425D01*
X114920554Y-77191554D01*
X114821425Y-77272906D01*
X114708336Y-77333354D01*
X114676404Y-77343040D01*
X114585618Y-77370580D01*
X114458000Y-77383149D01*
X114330383Y-77370580D01*
X114239597Y-77343040D01*
X114207665Y-77333354D01*
X114094576Y-77272906D01*
X113995447Y-77191554D01*
X113914096Y-77092427D01*
X113914095Y-77092425D01*
X113885957Y-77039783D01*
X113853645Y-76979333D01*
X113841237Y-76938427D01*
X113816420Y-76856618D01*
X113807000Y-76760973D01*
X113807000Y-76147028D01*
X113816420Y-76051383D01*
X113853645Y-75928669D01*
X113853646Y-75928665D01*
X113914094Y-75815576D01*
X113995447Y-75716446D01*
X114094575Y-75635094D01*
X114207664Y-75574646D01*
X114249600Y-75561925D01*
X114330382Y-75537420D01*
X114458000Y-75524851D01*
X114585617Y-75537420D01*
X114585617Y-75537420D01*
G37*
G36*
X110585617Y-75537420D02*
G01*
X110666399Y-75561925D01*
X110708335Y-75574646D01*
X110821424Y-75635094D01*
X110920554Y-75716447D01*
X111001906Y-75815575D01*
X111062354Y-75928664D01*
X111072040Y-75960596D01*
X111099580Y-76051382D01*
X111109000Y-76147027D01*
X111109000Y-76760973D01*
X111099580Y-76856618D01*
X111072040Y-76947404D01*
X111062354Y-76979336D01*
X111001906Y-77092425D01*
X110920554Y-77191554D01*
X110821425Y-77272906D01*
X110708336Y-77333354D01*
X110676404Y-77343040D01*
X110585618Y-77370580D01*
X110458000Y-77383149D01*
X110330383Y-77370580D01*
X110239597Y-77343040D01*
X110207665Y-77333354D01*
X110094576Y-77272906D01*
X109995447Y-77191554D01*
X109914096Y-77092427D01*
X109914095Y-77092425D01*
X109885957Y-77039783D01*
X109853645Y-76979333D01*
X109841237Y-76938427D01*
X109816420Y-76856618D01*
X109807000Y-76760973D01*
X109807000Y-76147028D01*
X109816420Y-76051383D01*
X109853645Y-75928669D01*
X109853646Y-75928665D01*
X109914094Y-75815576D01*
X109995447Y-75716446D01*
X110094575Y-75635094D01*
X110207664Y-75574646D01*
X110249600Y-75561925D01*
X110330382Y-75537420D01*
X110458000Y-75524851D01*
X110585617Y-75537420D01*
X110585617Y-75537420D01*
G37*
G36*
X136905617Y-75537420D02*
G01*
X136986399Y-75561925D01*
X137028335Y-75574646D01*
X137141424Y-75635094D01*
X137240554Y-75716447D01*
X137321906Y-75815575D01*
X137382354Y-75928664D01*
X137392040Y-75960596D01*
X137419580Y-76051382D01*
X137429000Y-76147027D01*
X137429000Y-76760973D01*
X137419580Y-76856618D01*
X137392040Y-76947404D01*
X137382354Y-76979336D01*
X137321906Y-77092425D01*
X137240554Y-77191554D01*
X137141425Y-77272906D01*
X137028336Y-77333354D01*
X136996404Y-77343040D01*
X136905618Y-77370580D01*
X136778000Y-77383149D01*
X136650383Y-77370580D01*
X136559597Y-77343040D01*
X136527665Y-77333354D01*
X136414576Y-77272906D01*
X136315447Y-77191554D01*
X136234096Y-77092427D01*
X136234095Y-77092425D01*
X136205957Y-77039783D01*
X136173645Y-76979333D01*
X136161237Y-76938427D01*
X136136420Y-76856618D01*
X136127000Y-76760973D01*
X136127000Y-76147028D01*
X136136420Y-76051383D01*
X136173645Y-75928669D01*
X136173646Y-75928665D01*
X136234094Y-75815576D01*
X136315447Y-75716446D01*
X136414575Y-75635094D01*
X136527664Y-75574646D01*
X136569600Y-75561925D01*
X136650382Y-75537420D01*
X136778000Y-75524851D01*
X136905617Y-75537420D01*
X136905617Y-75537420D01*
G37*
G36*
X138905617Y-75537420D02*
G01*
X138986399Y-75561925D01*
X139028335Y-75574646D01*
X139141424Y-75635094D01*
X139240554Y-75716447D01*
X139321906Y-75815575D01*
X139382354Y-75928664D01*
X139392040Y-75960596D01*
X139419580Y-76051382D01*
X139429000Y-76147027D01*
X139429000Y-76760973D01*
X139419580Y-76856618D01*
X139392040Y-76947404D01*
X139382354Y-76979336D01*
X139321906Y-77092425D01*
X139240554Y-77191554D01*
X139141425Y-77272906D01*
X139028336Y-77333354D01*
X138996404Y-77343040D01*
X138905618Y-77370580D01*
X138778000Y-77383149D01*
X138650383Y-77370580D01*
X138559597Y-77343040D01*
X138527665Y-77333354D01*
X138414576Y-77272906D01*
X138315447Y-77191554D01*
X138234096Y-77092427D01*
X138234095Y-77092425D01*
X138205957Y-77039783D01*
X138173645Y-76979333D01*
X138161237Y-76938427D01*
X138136420Y-76856618D01*
X138127000Y-76760973D01*
X138127000Y-76147028D01*
X138136420Y-76051383D01*
X138173645Y-75928669D01*
X138173646Y-75928665D01*
X138234094Y-75815576D01*
X138315447Y-75716446D01*
X138414575Y-75635094D01*
X138527664Y-75574646D01*
X138569600Y-75561925D01*
X138650382Y-75537420D01*
X138778000Y-75524851D01*
X138905617Y-75537420D01*
X138905617Y-75537420D01*
G37*
G36*
X140905617Y-75537420D02*
G01*
X140986399Y-75561925D01*
X141028335Y-75574646D01*
X141141424Y-75635094D01*
X141240554Y-75716447D01*
X141321906Y-75815575D01*
X141382354Y-75928664D01*
X141392040Y-75960596D01*
X141419580Y-76051382D01*
X141429000Y-76147027D01*
X141429000Y-76760973D01*
X141419580Y-76856618D01*
X141392040Y-76947404D01*
X141382354Y-76979336D01*
X141321906Y-77092425D01*
X141240554Y-77191554D01*
X141141425Y-77272906D01*
X141028336Y-77333354D01*
X140996404Y-77343040D01*
X140905618Y-77370580D01*
X140778000Y-77383149D01*
X140650383Y-77370580D01*
X140559597Y-77343040D01*
X140527665Y-77333354D01*
X140414576Y-77272906D01*
X140315447Y-77191554D01*
X140234096Y-77092427D01*
X140234095Y-77092425D01*
X140205957Y-77039783D01*
X140173645Y-76979333D01*
X140161237Y-76938427D01*
X140136420Y-76856618D01*
X140127000Y-76760973D01*
X140127000Y-76147028D01*
X140136420Y-76051383D01*
X140173645Y-75928669D01*
X140173646Y-75928665D01*
X140234094Y-75815576D01*
X140315447Y-75716446D01*
X140414575Y-75635094D01*
X140527664Y-75574646D01*
X140569600Y-75561925D01*
X140650382Y-75537420D01*
X140778000Y-75524851D01*
X140905617Y-75537420D01*
X140905617Y-75537420D01*
G37*
G36*
X142905617Y-75537420D02*
G01*
X142986399Y-75561925D01*
X143028335Y-75574646D01*
X143141424Y-75635094D01*
X143240554Y-75716447D01*
X143321906Y-75815575D01*
X143382354Y-75928664D01*
X143392040Y-75960596D01*
X143419580Y-76051382D01*
X143429000Y-76147027D01*
X143429000Y-76760973D01*
X143419580Y-76856618D01*
X143392040Y-76947404D01*
X143382354Y-76979336D01*
X143321906Y-77092425D01*
X143240554Y-77191554D01*
X143141425Y-77272906D01*
X143028336Y-77333354D01*
X142996404Y-77343040D01*
X142905618Y-77370580D01*
X142778000Y-77383149D01*
X142650383Y-77370580D01*
X142559597Y-77343040D01*
X142527665Y-77333354D01*
X142414576Y-77272906D01*
X142315447Y-77191554D01*
X142234096Y-77092427D01*
X142234095Y-77092425D01*
X142205957Y-77039783D01*
X142173645Y-76979333D01*
X142161237Y-76938427D01*
X142136420Y-76856618D01*
X142127000Y-76760973D01*
X142127000Y-76147028D01*
X142136420Y-76051383D01*
X142173645Y-75928669D01*
X142173646Y-75928665D01*
X142234094Y-75815576D01*
X142315447Y-75716446D01*
X142414575Y-75635094D01*
X142527664Y-75574646D01*
X142569600Y-75561925D01*
X142650382Y-75537420D01*
X142778000Y-75524851D01*
X142905617Y-75537420D01*
X142905617Y-75537420D01*
G37*
G36*
X108949242Y-75532404D02*
G01*
X108986337Y-75543657D01*
X109020515Y-75561925D01*
X109050481Y-75586519D01*
X109075075Y-75616485D01*
X109093343Y-75650663D01*
X109104596Y-75687758D01*
X109109000Y-75732474D01*
X109109000Y-77175526D01*
X109104596Y-77220242D01*
X109093343Y-77257337D01*
X109075075Y-77291515D01*
X109050481Y-77321481D01*
X109020515Y-77346075D01*
X108986337Y-77364343D01*
X108949242Y-77375596D01*
X108904526Y-77380000D01*
X108011474Y-77380000D01*
X107966758Y-77375596D01*
X107929663Y-77364343D01*
X107895485Y-77346075D01*
X107865519Y-77321481D01*
X107840925Y-77291515D01*
X107822657Y-77257337D01*
X107811404Y-77220242D01*
X107807000Y-77175526D01*
X107807000Y-75732474D01*
X107811404Y-75687758D01*
X107822657Y-75650663D01*
X107840925Y-75616485D01*
X107865519Y-75586519D01*
X107895485Y-75561925D01*
X107929663Y-75543657D01*
X107966758Y-75532404D01*
X108011474Y-75528000D01*
X108904526Y-75528000D01*
X108949242Y-75532404D01*
X108949242Y-75532404D01*
G37*
G36*
X149589242Y-75532404D02*
G01*
X149626337Y-75543657D01*
X149660515Y-75561925D01*
X149690481Y-75586519D01*
X149715075Y-75616485D01*
X149733343Y-75650663D01*
X149744596Y-75687758D01*
X149749000Y-75732474D01*
X149749000Y-77175526D01*
X149744596Y-77220242D01*
X149733343Y-77257337D01*
X149715075Y-77291515D01*
X149690481Y-77321481D01*
X149660515Y-77346075D01*
X149626337Y-77364343D01*
X149589242Y-77375596D01*
X149544526Y-77380000D01*
X148651474Y-77380000D01*
X148606758Y-77375596D01*
X148569663Y-77364343D01*
X148535485Y-77346075D01*
X148505519Y-77321481D01*
X148480925Y-77291515D01*
X148462657Y-77257337D01*
X148451404Y-77220242D01*
X148447000Y-77175526D01*
X148447000Y-75732474D01*
X148451404Y-75687758D01*
X148462657Y-75650663D01*
X148480925Y-75616485D01*
X148505519Y-75586519D01*
X148535485Y-75561925D01*
X148569663Y-75543657D01*
X148606758Y-75532404D01*
X148651474Y-75528000D01*
X149544526Y-75528000D01*
X149589242Y-75532404D01*
X149589242Y-75532404D01*
G37*
G36*
X129269242Y-75532404D02*
G01*
X129306337Y-75543657D01*
X129340515Y-75561925D01*
X129370481Y-75586519D01*
X129395075Y-75616485D01*
X129413343Y-75650663D01*
X129424596Y-75687758D01*
X129429000Y-75732474D01*
X129429000Y-77175526D01*
X129424596Y-77220242D01*
X129413343Y-77257337D01*
X129395075Y-77291515D01*
X129370481Y-77321481D01*
X129340515Y-77346075D01*
X129306337Y-77364343D01*
X129269242Y-77375596D01*
X129224526Y-77380000D01*
X128331474Y-77380000D01*
X128286758Y-77375596D01*
X128249663Y-77364343D01*
X128215485Y-77346075D01*
X128185519Y-77321481D01*
X128160925Y-77291515D01*
X128142657Y-77257337D01*
X128131404Y-77220242D01*
X128127000Y-77175526D01*
X128127000Y-75732474D01*
X128131404Y-75687758D01*
X128142657Y-75650663D01*
X128160925Y-75616485D01*
X128185519Y-75586519D01*
X128215485Y-75561925D01*
X128249663Y-75543657D01*
X128286758Y-75532404D01*
X128331474Y-75528000D01*
X129224526Y-75528000D01*
X129269242Y-75532404D01*
X129269242Y-75532404D01*
G37*
G36*
X102446855Y-69486140D02*
G01*
X102510618Y-69492420D01*
X102601404Y-69519960D01*
X102633336Y-69529646D01*
X102746425Y-69590094D01*
X102845554Y-69671446D01*
X102926906Y-69770575D01*
X102987354Y-69883664D01*
X102987355Y-69883668D01*
X103024580Y-70006382D01*
X103037149Y-70134000D01*
X103024580Y-70261618D01*
X102997040Y-70352404D01*
X102987354Y-70384336D01*
X102926906Y-70497425D01*
X102845554Y-70596554D01*
X102746425Y-70677906D01*
X102633336Y-70738354D01*
X102601404Y-70748040D01*
X102510618Y-70775580D01*
X102446855Y-70781860D01*
X102414974Y-70785000D01*
X101801026Y-70785000D01*
X101769145Y-70781860D01*
X101705382Y-70775580D01*
X101614596Y-70748040D01*
X101582664Y-70738354D01*
X101469575Y-70677906D01*
X101370446Y-70596554D01*
X101289094Y-70497425D01*
X101228646Y-70384336D01*
X101218960Y-70352404D01*
X101191420Y-70261618D01*
X101178851Y-70134000D01*
X101191420Y-70006382D01*
X101228645Y-69883668D01*
X101228646Y-69883664D01*
X101289094Y-69770575D01*
X101370446Y-69671446D01*
X101469575Y-69590094D01*
X101582664Y-69529646D01*
X101614596Y-69519960D01*
X101705382Y-69492420D01*
X101769145Y-69486140D01*
X101801026Y-69483000D01*
X102414974Y-69483000D01*
X102446855Y-69486140D01*
X102446855Y-69486140D01*
G37*
G36*
X162564242Y-69457404D02*
G01*
X162601337Y-69468657D01*
X162635515Y-69486925D01*
X162665481Y-69511519D01*
X162690075Y-69541485D01*
X162708343Y-69575663D01*
X162719596Y-69612758D01*
X162724000Y-69657474D01*
X162724000Y-70550526D01*
X162719596Y-70595242D01*
X162708343Y-70632337D01*
X162690075Y-70666515D01*
X162665481Y-70696481D01*
X162635515Y-70721075D01*
X162601337Y-70739343D01*
X162564242Y-70750596D01*
X162519526Y-70755000D01*
X161076474Y-70755000D01*
X161031758Y-70750596D01*
X160994663Y-70739343D01*
X160960485Y-70721075D01*
X160930519Y-70696481D01*
X160905925Y-70666515D01*
X160887657Y-70632337D01*
X160876404Y-70595242D01*
X160872000Y-70550526D01*
X160872000Y-69657474D01*
X160876404Y-69612758D01*
X160887657Y-69575663D01*
X160905925Y-69541485D01*
X160930519Y-69511519D01*
X160960485Y-69486925D01*
X160994663Y-69468657D01*
X161031758Y-69457404D01*
X161076474Y-69453000D01*
X162519526Y-69453000D01*
X162564242Y-69457404D01*
X162564242Y-69457404D01*
G37*
G36*
X102446855Y-67486140D02*
G01*
X102510618Y-67492420D01*
X102601404Y-67519960D01*
X102633336Y-67529646D01*
X102746425Y-67590094D01*
X102845554Y-67671446D01*
X102926906Y-67770575D01*
X102987354Y-67883664D01*
X102987355Y-67883668D01*
X103024580Y-68006382D01*
X103037149Y-68134000D01*
X103024580Y-68261618D01*
X102997040Y-68352404D01*
X102987354Y-68384336D01*
X102926906Y-68497425D01*
X102845554Y-68596554D01*
X102746425Y-68677906D01*
X102633336Y-68738354D01*
X102601404Y-68748040D01*
X102510618Y-68775580D01*
X102446855Y-68781860D01*
X102414974Y-68785000D01*
X101801026Y-68785000D01*
X101769145Y-68781860D01*
X101705382Y-68775580D01*
X101614596Y-68748040D01*
X101582664Y-68738354D01*
X101469575Y-68677906D01*
X101370446Y-68596554D01*
X101289094Y-68497425D01*
X101228646Y-68384336D01*
X101218960Y-68352404D01*
X101191420Y-68261618D01*
X101178851Y-68134000D01*
X101191420Y-68006382D01*
X101228645Y-67883668D01*
X101228646Y-67883664D01*
X101289094Y-67770575D01*
X101370446Y-67671446D01*
X101469575Y-67590094D01*
X101582664Y-67529646D01*
X101614596Y-67519960D01*
X101705382Y-67492420D01*
X101769145Y-67486140D01*
X101801026Y-67483000D01*
X102414974Y-67483000D01*
X102446855Y-67486140D01*
X102446855Y-67486140D01*
G37*
G36*
X162136855Y-67456140D02*
G01*
X162200618Y-67462420D01*
X162291404Y-67489960D01*
X162323336Y-67499646D01*
X162436425Y-67560094D01*
X162535554Y-67641446D01*
X162616906Y-67740575D01*
X162677354Y-67853664D01*
X162677355Y-67853668D01*
X162714580Y-67976382D01*
X162727149Y-68104000D01*
X162714580Y-68231618D01*
X162687040Y-68322404D01*
X162677354Y-68354336D01*
X162616906Y-68467425D01*
X162535554Y-68566554D01*
X162436425Y-68647906D01*
X162323336Y-68708354D01*
X162291404Y-68718040D01*
X162200618Y-68745580D01*
X162136855Y-68751860D01*
X162104974Y-68755000D01*
X161491026Y-68755000D01*
X161459145Y-68751860D01*
X161395382Y-68745580D01*
X161304596Y-68718040D01*
X161272664Y-68708354D01*
X161159575Y-68647906D01*
X161060446Y-68566554D01*
X160979094Y-68467425D01*
X160918646Y-68354336D01*
X160908960Y-68322404D01*
X160881420Y-68231618D01*
X160868851Y-68104000D01*
X160881420Y-67976382D01*
X160918645Y-67853668D01*
X160918646Y-67853664D01*
X160979094Y-67740575D01*
X161060446Y-67641446D01*
X161159575Y-67560094D01*
X161272664Y-67499646D01*
X161304596Y-67489960D01*
X161395382Y-67462420D01*
X161459145Y-67456140D01*
X161491026Y-67453000D01*
X162104974Y-67453000D01*
X162136855Y-67456140D01*
X162136855Y-67456140D01*
G37*
G36*
X102446855Y-65486140D02*
G01*
X102510618Y-65492420D01*
X102601404Y-65519960D01*
X102633336Y-65529646D01*
X102746425Y-65590094D01*
X102845554Y-65671446D01*
X102926906Y-65770575D01*
X102987354Y-65883664D01*
X102987355Y-65883668D01*
X103024580Y-66006382D01*
X103037149Y-66134000D01*
X103024580Y-66261618D01*
X102997040Y-66352404D01*
X102987354Y-66384336D01*
X102926906Y-66497425D01*
X102845554Y-66596554D01*
X102746425Y-66677906D01*
X102633336Y-66738354D01*
X102601404Y-66748040D01*
X102510618Y-66775580D01*
X102446855Y-66781860D01*
X102414974Y-66785000D01*
X101801026Y-66785000D01*
X101769145Y-66781860D01*
X101705382Y-66775580D01*
X101614596Y-66748040D01*
X101582664Y-66738354D01*
X101469575Y-66677906D01*
X101370446Y-66596554D01*
X101289094Y-66497425D01*
X101228646Y-66384336D01*
X101218960Y-66352404D01*
X101191420Y-66261618D01*
X101178851Y-66134000D01*
X101191420Y-66006382D01*
X101228645Y-65883668D01*
X101228646Y-65883664D01*
X101289094Y-65770575D01*
X101370446Y-65671446D01*
X101469575Y-65590094D01*
X101582664Y-65529646D01*
X101614596Y-65519960D01*
X101705382Y-65492420D01*
X101769145Y-65486140D01*
X101801026Y-65483000D01*
X102414974Y-65483000D01*
X102446855Y-65486140D01*
X102446855Y-65486140D01*
G37*
G36*
X162136855Y-65456140D02*
G01*
X162200618Y-65462420D01*
X162291404Y-65489960D01*
X162323336Y-65499646D01*
X162436425Y-65560094D01*
X162535554Y-65641446D01*
X162616906Y-65740575D01*
X162677354Y-65853664D01*
X162677355Y-65853668D01*
X162714580Y-65976382D01*
X162727149Y-66104000D01*
X162714580Y-66231618D01*
X162687040Y-66322404D01*
X162677354Y-66354336D01*
X162616906Y-66467425D01*
X162535554Y-66566554D01*
X162436425Y-66647906D01*
X162323336Y-66708354D01*
X162291404Y-66718040D01*
X162200618Y-66745580D01*
X162136855Y-66751860D01*
X162104974Y-66755000D01*
X161491026Y-66755000D01*
X161459145Y-66751860D01*
X161395382Y-66745580D01*
X161304596Y-66718040D01*
X161272664Y-66708354D01*
X161159575Y-66647906D01*
X161060446Y-66566554D01*
X160979094Y-66467425D01*
X160918646Y-66354336D01*
X160908960Y-66322404D01*
X160881420Y-66231618D01*
X160868851Y-66104000D01*
X160881420Y-65976382D01*
X160918645Y-65853668D01*
X160918646Y-65853664D01*
X160979094Y-65740575D01*
X161060446Y-65641446D01*
X161159575Y-65560094D01*
X161272664Y-65499646D01*
X161304596Y-65489960D01*
X161395382Y-65462420D01*
X161459145Y-65456140D01*
X161491026Y-65453000D01*
X162104974Y-65453000D01*
X162136855Y-65456140D01*
X162136855Y-65456140D01*
G37*
G36*
X102446855Y-63486140D02*
G01*
X102510618Y-63492420D01*
X102601404Y-63519960D01*
X102633336Y-63529646D01*
X102746425Y-63590094D01*
X102845554Y-63671446D01*
X102926906Y-63770575D01*
X102987354Y-63883664D01*
X102987355Y-63883668D01*
X103024580Y-64006382D01*
X103037149Y-64134000D01*
X103024580Y-64261618D01*
X102997040Y-64352404D01*
X102987354Y-64384336D01*
X102926906Y-64497425D01*
X102845554Y-64596554D01*
X102746425Y-64677906D01*
X102633336Y-64738354D01*
X102601404Y-64748040D01*
X102510618Y-64775580D01*
X102446855Y-64781860D01*
X102414974Y-64785000D01*
X101801026Y-64785000D01*
X101769145Y-64781860D01*
X101705382Y-64775580D01*
X101614596Y-64748040D01*
X101582664Y-64738354D01*
X101469575Y-64677906D01*
X101370446Y-64596554D01*
X101289094Y-64497425D01*
X101228646Y-64384336D01*
X101218960Y-64352404D01*
X101191420Y-64261618D01*
X101178851Y-64134000D01*
X101191420Y-64006382D01*
X101228645Y-63883668D01*
X101228646Y-63883664D01*
X101289094Y-63770575D01*
X101370446Y-63671446D01*
X101469575Y-63590094D01*
X101582664Y-63529646D01*
X101614596Y-63519960D01*
X101705382Y-63492420D01*
X101769145Y-63486140D01*
X101801026Y-63483000D01*
X102414974Y-63483000D01*
X102446855Y-63486140D01*
X102446855Y-63486140D01*
G37*
G36*
X162136855Y-63456140D02*
G01*
X162200618Y-63462420D01*
X162291404Y-63489960D01*
X162323336Y-63499646D01*
X162436425Y-63560094D01*
X162535554Y-63641446D01*
X162616906Y-63740575D01*
X162677354Y-63853664D01*
X162677355Y-63853668D01*
X162714580Y-63976382D01*
X162727149Y-64104000D01*
X162714580Y-64231618D01*
X162687040Y-64322404D01*
X162677354Y-64354336D01*
X162616906Y-64467425D01*
X162535554Y-64566554D01*
X162436425Y-64647906D01*
X162323336Y-64708354D01*
X162291404Y-64718040D01*
X162200618Y-64745580D01*
X162136855Y-64751860D01*
X162104974Y-64755000D01*
X161491026Y-64755000D01*
X161459145Y-64751860D01*
X161395382Y-64745580D01*
X161304596Y-64718040D01*
X161272664Y-64708354D01*
X161159575Y-64647906D01*
X161060446Y-64566554D01*
X160979094Y-64467425D01*
X160918646Y-64354336D01*
X160908960Y-64322404D01*
X160881420Y-64231618D01*
X160868851Y-64104000D01*
X160881420Y-63976382D01*
X160918645Y-63853668D01*
X160918646Y-63853664D01*
X160979094Y-63740575D01*
X161060446Y-63641446D01*
X161159575Y-63560094D01*
X161272664Y-63499646D01*
X161304596Y-63489960D01*
X161395382Y-63462420D01*
X161459145Y-63456140D01*
X161491026Y-63453000D01*
X162104974Y-63453000D01*
X162136855Y-63456140D01*
X162136855Y-63456140D01*
G37*
G36*
X102446855Y-61486140D02*
G01*
X102510618Y-61492420D01*
X102601404Y-61519960D01*
X102633336Y-61529646D01*
X102746425Y-61590094D01*
X102845554Y-61671446D01*
X102926906Y-61770575D01*
X102987354Y-61883664D01*
X102987355Y-61883668D01*
X103024580Y-62006382D01*
X103037149Y-62134000D01*
X103024580Y-62261618D01*
X102997040Y-62352404D01*
X102987354Y-62384336D01*
X102926906Y-62497425D01*
X102845554Y-62596554D01*
X102746425Y-62677906D01*
X102633336Y-62738354D01*
X102601404Y-62748040D01*
X102510618Y-62775580D01*
X102446855Y-62781860D01*
X102414974Y-62785000D01*
X101801026Y-62785000D01*
X101769145Y-62781860D01*
X101705382Y-62775580D01*
X101614596Y-62748040D01*
X101582664Y-62738354D01*
X101469575Y-62677906D01*
X101370446Y-62596554D01*
X101289094Y-62497425D01*
X101228646Y-62384336D01*
X101218960Y-62352404D01*
X101191420Y-62261618D01*
X101178851Y-62134000D01*
X101191420Y-62006382D01*
X101228645Y-61883668D01*
X101228646Y-61883664D01*
X101289094Y-61770575D01*
X101370446Y-61671446D01*
X101469575Y-61590094D01*
X101582664Y-61529646D01*
X101614596Y-61519960D01*
X101705382Y-61492420D01*
X101769145Y-61486140D01*
X101801026Y-61483000D01*
X102414974Y-61483000D01*
X102446855Y-61486140D01*
X102446855Y-61486140D01*
G37*
G36*
X162136855Y-61456140D02*
G01*
X162200618Y-61462420D01*
X162291404Y-61489960D01*
X162323336Y-61499646D01*
X162436425Y-61560094D01*
X162535554Y-61641446D01*
X162616906Y-61740575D01*
X162677354Y-61853664D01*
X162677355Y-61853668D01*
X162714580Y-61976382D01*
X162727149Y-62104000D01*
X162714580Y-62231618D01*
X162687040Y-62322404D01*
X162677354Y-62354336D01*
X162616906Y-62467425D01*
X162535554Y-62566554D01*
X162436425Y-62647906D01*
X162323336Y-62708354D01*
X162291404Y-62718040D01*
X162200618Y-62745580D01*
X162136855Y-62751860D01*
X162104974Y-62755000D01*
X161491026Y-62755000D01*
X161459145Y-62751860D01*
X161395382Y-62745580D01*
X161304596Y-62718040D01*
X161272664Y-62708354D01*
X161159575Y-62647906D01*
X161060446Y-62566554D01*
X160979094Y-62467425D01*
X160918646Y-62354336D01*
X160908960Y-62322404D01*
X160881420Y-62231618D01*
X160868851Y-62104000D01*
X160881420Y-61976382D01*
X160918645Y-61853668D01*
X160918646Y-61853664D01*
X160979094Y-61740575D01*
X161060446Y-61641446D01*
X161159575Y-61560094D01*
X161272664Y-61499646D01*
X161304596Y-61489960D01*
X161395382Y-61462420D01*
X161459145Y-61456140D01*
X161491026Y-61453000D01*
X162104974Y-61453000D01*
X162136855Y-61456140D01*
X162136855Y-61456140D01*
G37*
G36*
X102446855Y-59486140D02*
G01*
X102510618Y-59492420D01*
X102601404Y-59519960D01*
X102633336Y-59529646D01*
X102746425Y-59590094D01*
X102845554Y-59671446D01*
X102926906Y-59770575D01*
X102987354Y-59883664D01*
X102987355Y-59883668D01*
X103024580Y-60006382D01*
X103037149Y-60134000D01*
X103024580Y-60261618D01*
X102997040Y-60352404D01*
X102987354Y-60384336D01*
X102926906Y-60497425D01*
X102845554Y-60596554D01*
X102746425Y-60677906D01*
X102633336Y-60738354D01*
X102601404Y-60748040D01*
X102510618Y-60775580D01*
X102446855Y-60781860D01*
X102414974Y-60785000D01*
X101801026Y-60785000D01*
X101769145Y-60781860D01*
X101705382Y-60775580D01*
X101614596Y-60748040D01*
X101582664Y-60738354D01*
X101469575Y-60677906D01*
X101370446Y-60596554D01*
X101289094Y-60497425D01*
X101228646Y-60384336D01*
X101218960Y-60352404D01*
X101191420Y-60261618D01*
X101178851Y-60134000D01*
X101191420Y-60006382D01*
X101228645Y-59883668D01*
X101228646Y-59883664D01*
X101289094Y-59770575D01*
X101370446Y-59671446D01*
X101469575Y-59590094D01*
X101582664Y-59529646D01*
X101614596Y-59519960D01*
X101705382Y-59492420D01*
X101769145Y-59486140D01*
X101801026Y-59483000D01*
X102414974Y-59483000D01*
X102446855Y-59486140D01*
X102446855Y-59486140D01*
G37*
G36*
X162136855Y-59456140D02*
G01*
X162200618Y-59462420D01*
X162291404Y-59489960D01*
X162323336Y-59499646D01*
X162436425Y-59560094D01*
X162535554Y-59641446D01*
X162616906Y-59740575D01*
X162677354Y-59853664D01*
X162677355Y-59853668D01*
X162714580Y-59976382D01*
X162727149Y-60104000D01*
X162714580Y-60231618D01*
X162687040Y-60322404D01*
X162677354Y-60354336D01*
X162616906Y-60467425D01*
X162535554Y-60566554D01*
X162436425Y-60647906D01*
X162323336Y-60708354D01*
X162291404Y-60718040D01*
X162200618Y-60745580D01*
X162136855Y-60751860D01*
X162104974Y-60755000D01*
X161491026Y-60755000D01*
X161459145Y-60751860D01*
X161395382Y-60745580D01*
X161304596Y-60718040D01*
X161272664Y-60708354D01*
X161159575Y-60647906D01*
X161060446Y-60566554D01*
X160979094Y-60467425D01*
X160918646Y-60354336D01*
X160908960Y-60322404D01*
X160881420Y-60231618D01*
X160868851Y-60104000D01*
X160881420Y-59976382D01*
X160918645Y-59853668D01*
X160918646Y-59853664D01*
X160979094Y-59740575D01*
X161060446Y-59641446D01*
X161159575Y-59560094D01*
X161272664Y-59499646D01*
X161304596Y-59489960D01*
X161395382Y-59462420D01*
X161459145Y-59456140D01*
X161491026Y-59453000D01*
X162104974Y-59453000D01*
X162136855Y-59456140D01*
X162136855Y-59456140D01*
G37*
G36*
X102446855Y-57486140D02*
G01*
X102510618Y-57492420D01*
X102601404Y-57519960D01*
X102633336Y-57529646D01*
X102746425Y-57590094D01*
X102845554Y-57671446D01*
X102926906Y-57770575D01*
X102987354Y-57883664D01*
X102987355Y-57883668D01*
X103024580Y-58006382D01*
X103037149Y-58134000D01*
X103024580Y-58261618D01*
X102997040Y-58352404D01*
X102987354Y-58384336D01*
X102926906Y-58497425D01*
X102845554Y-58596554D01*
X102746425Y-58677906D01*
X102633336Y-58738354D01*
X102601404Y-58748040D01*
X102510618Y-58775580D01*
X102446855Y-58781860D01*
X102414974Y-58785000D01*
X101801026Y-58785000D01*
X101769145Y-58781860D01*
X101705382Y-58775580D01*
X101614596Y-58748040D01*
X101582664Y-58738354D01*
X101469575Y-58677906D01*
X101370446Y-58596554D01*
X101289094Y-58497425D01*
X101228646Y-58384336D01*
X101218960Y-58352404D01*
X101191420Y-58261618D01*
X101178851Y-58134000D01*
X101191420Y-58006382D01*
X101228645Y-57883668D01*
X101228646Y-57883664D01*
X101289094Y-57770575D01*
X101370446Y-57671446D01*
X101469575Y-57590094D01*
X101582664Y-57529646D01*
X101614596Y-57519960D01*
X101705382Y-57492420D01*
X101769145Y-57486140D01*
X101801026Y-57483000D01*
X102414974Y-57483000D01*
X102446855Y-57486140D01*
X102446855Y-57486140D01*
G37*
G36*
X162136855Y-57456140D02*
G01*
X162200618Y-57462420D01*
X162291404Y-57489960D01*
X162323336Y-57499646D01*
X162436425Y-57560094D01*
X162535554Y-57641446D01*
X162616906Y-57740575D01*
X162677354Y-57853664D01*
X162677355Y-57853668D01*
X162714580Y-57976382D01*
X162727149Y-58104000D01*
X162714580Y-58231618D01*
X162687040Y-58322404D01*
X162677354Y-58354336D01*
X162616906Y-58467425D01*
X162535554Y-58566554D01*
X162436425Y-58647906D01*
X162323336Y-58708354D01*
X162291404Y-58718040D01*
X162200618Y-58745580D01*
X162136855Y-58751860D01*
X162104974Y-58755000D01*
X161491026Y-58755000D01*
X161459145Y-58751860D01*
X161395382Y-58745580D01*
X161304596Y-58718040D01*
X161272664Y-58708354D01*
X161159575Y-58647906D01*
X161060446Y-58566554D01*
X160979094Y-58467425D01*
X160918646Y-58354336D01*
X160908960Y-58322404D01*
X160881420Y-58231618D01*
X160868851Y-58104000D01*
X160881420Y-57976382D01*
X160918645Y-57853668D01*
X160918646Y-57853664D01*
X160979094Y-57740575D01*
X161060446Y-57641446D01*
X161159575Y-57560094D01*
X161272664Y-57499646D01*
X161304596Y-57489960D01*
X161395382Y-57462420D01*
X161459145Y-57456140D01*
X161491026Y-57453000D01*
X162104974Y-57453000D01*
X162136855Y-57456140D01*
X162136855Y-57456140D01*
G37*
G36*
X102874242Y-55487404D02*
G01*
X102911337Y-55498657D01*
X102945515Y-55516925D01*
X102975481Y-55541519D01*
X103000075Y-55571485D01*
X103018343Y-55605663D01*
X103029596Y-55642758D01*
X103034000Y-55687474D01*
X103034000Y-56580526D01*
X103029596Y-56625242D01*
X103018343Y-56662337D01*
X103000075Y-56696515D01*
X102975481Y-56726481D01*
X102945515Y-56751075D01*
X102911337Y-56769343D01*
X102874242Y-56780596D01*
X102829526Y-56785000D01*
X101386474Y-56785000D01*
X101341758Y-56780596D01*
X101304663Y-56769343D01*
X101270485Y-56751075D01*
X101240519Y-56726481D01*
X101215925Y-56696515D01*
X101197657Y-56662337D01*
X101186404Y-56625242D01*
X101182000Y-56580526D01*
X101182000Y-55687474D01*
X101186404Y-55642758D01*
X101197657Y-55605663D01*
X101215925Y-55571485D01*
X101240519Y-55541519D01*
X101270485Y-55516925D01*
X101304663Y-55498657D01*
X101341758Y-55487404D01*
X101386474Y-55483000D01*
X102829526Y-55483000D01*
X102874242Y-55487404D01*
X102874242Y-55487404D01*
G37*
G36*
X162136855Y-55456140D02*
G01*
X162200618Y-55462420D01*
X162291404Y-55489960D01*
X162323336Y-55499646D01*
X162436425Y-55560094D01*
X162535554Y-55641446D01*
X162616906Y-55740575D01*
X162677354Y-55853664D01*
X162677355Y-55853668D01*
X162714580Y-55976382D01*
X162727149Y-56104000D01*
X162714580Y-56231618D01*
X162687040Y-56322404D01*
X162677354Y-56354336D01*
X162616906Y-56467425D01*
X162535554Y-56566554D01*
X162436425Y-56647906D01*
X162323336Y-56708354D01*
X162291404Y-56718040D01*
X162200618Y-56745580D01*
X162144825Y-56751075D01*
X162104974Y-56755000D01*
X161491026Y-56755000D01*
X161451175Y-56751075D01*
X161395382Y-56745580D01*
X161304596Y-56718040D01*
X161272664Y-56708354D01*
X161159575Y-56647906D01*
X161060446Y-56566554D01*
X160979094Y-56467425D01*
X160918646Y-56354336D01*
X160908960Y-56322404D01*
X160881420Y-56231618D01*
X160868851Y-56104000D01*
X160881420Y-55976382D01*
X160918645Y-55853668D01*
X160918646Y-55853664D01*
X160979094Y-55740575D01*
X161060446Y-55641446D01*
X161159575Y-55560094D01*
X161272664Y-55499646D01*
X161304596Y-55489960D01*
X161395382Y-55462420D01*
X161459145Y-55456140D01*
X161491026Y-55453000D01*
X162104974Y-55453000D01*
X162136855Y-55456140D01*
X162136855Y-55456140D01*
G37*
G36*
X101659626Y-46896783D02*
G01*
X102013775Y-47043476D01*
X102013777Y-47043477D01*
X102332503Y-47256443D01*
X102603557Y-47527497D01*
X102625499Y-47560336D01*
X102816524Y-47846225D01*
X102963217Y-48200374D01*
X103038000Y-48576334D01*
X103038000Y-48959666D01*
X102963217Y-49335626D01*
X102844093Y-49623217D01*
X102816523Y-49689777D01*
X102603557Y-50008503D01*
X102332503Y-50279557D01*
X102013777Y-50492523D01*
X102013776Y-50492524D01*
X102013775Y-50492524D01*
X101659626Y-50639217D01*
X101283666Y-50714000D01*
X100900334Y-50714000D01*
X100524374Y-50639217D01*
X100170225Y-50492524D01*
X100170224Y-50492524D01*
X100170223Y-50492523D01*
X99851497Y-50279557D01*
X99580443Y-50008503D01*
X99367477Y-49689777D01*
X99339907Y-49623217D01*
X99220783Y-49335626D01*
X99146000Y-48959666D01*
X99146000Y-48576334D01*
X99220783Y-48200374D01*
X99367476Y-47846225D01*
X99558501Y-47560336D01*
X99580443Y-47527497D01*
X99851497Y-47256443D01*
X100170223Y-47043477D01*
X100170225Y-47043476D01*
X100524374Y-46896783D01*
X100900334Y-46822000D01*
X101283666Y-46822000D01*
X101659626Y-46896783D01*
X101659626Y-46896783D01*
G37*
G36*
X110555618Y-48867420D02*
G01*
X110636400Y-48891925D01*
X110678336Y-48904646D01*
X110791425Y-48965094D01*
X110890554Y-49046446D01*
X110971906Y-49145575D01*
X111032354Y-49258664D01*
X111032355Y-49258668D01*
X111069580Y-49381382D01*
X111069580Y-49381384D01*
X111078951Y-49476524D01*
X111079000Y-49477027D01*
X111079000Y-50090973D01*
X111069580Y-50186618D01*
X111042040Y-50277404D01*
X111032354Y-50309336D01*
X110971906Y-50422425D01*
X110890554Y-50521553D01*
X110791424Y-50602906D01*
X110678335Y-50663354D01*
X110646403Y-50673040D01*
X110555617Y-50700580D01*
X110428000Y-50713149D01*
X110300382Y-50700580D01*
X110209596Y-50673040D01*
X110177664Y-50663354D01*
X110064575Y-50602906D01*
X109965447Y-50521554D01*
X109884094Y-50422424D01*
X109823646Y-50309335D01*
X109813960Y-50277403D01*
X109786420Y-50186617D01*
X109777000Y-50090972D01*
X109777000Y-49477027D01*
X109777050Y-49476524D01*
X109786420Y-49381384D01*
X109786420Y-49381382D01*
X109823645Y-49258668D01*
X109823645Y-49258667D01*
X109855957Y-49198217D01*
X109884095Y-49145574D01*
X109897493Y-49129249D01*
X109965447Y-49046446D01*
X110064576Y-48965094D01*
X110177665Y-48904646D01*
X110219601Y-48891925D01*
X110300383Y-48867420D01*
X110428000Y-48854851D01*
X110555618Y-48867420D01*
X110555618Y-48867420D01*
G37*
G36*
X112555618Y-48867420D02*
G01*
X112636400Y-48891925D01*
X112678336Y-48904646D01*
X112791425Y-48965094D01*
X112890554Y-49046446D01*
X112971906Y-49145575D01*
X113032354Y-49258664D01*
X113032355Y-49258668D01*
X113069580Y-49381382D01*
X113069580Y-49381384D01*
X113078951Y-49476524D01*
X113079000Y-49477027D01*
X113079000Y-50090973D01*
X113069580Y-50186618D01*
X113042040Y-50277404D01*
X113032354Y-50309336D01*
X112971906Y-50422425D01*
X112890554Y-50521553D01*
X112791424Y-50602906D01*
X112678335Y-50663354D01*
X112646403Y-50673040D01*
X112555617Y-50700580D01*
X112428000Y-50713149D01*
X112300382Y-50700580D01*
X112209596Y-50673040D01*
X112177664Y-50663354D01*
X112064575Y-50602906D01*
X111965447Y-50521554D01*
X111884094Y-50422424D01*
X111823646Y-50309335D01*
X111813960Y-50277403D01*
X111786420Y-50186617D01*
X111777000Y-50090972D01*
X111777000Y-49477027D01*
X111777050Y-49476524D01*
X111786420Y-49381384D01*
X111786420Y-49381382D01*
X111823645Y-49258668D01*
X111823645Y-49258667D01*
X111855957Y-49198217D01*
X111884095Y-49145574D01*
X111897493Y-49129249D01*
X111965447Y-49046446D01*
X112064576Y-48965094D01*
X112177665Y-48904646D01*
X112219601Y-48891925D01*
X112300383Y-48867420D01*
X112428000Y-48854851D01*
X112555618Y-48867420D01*
X112555618Y-48867420D01*
G37*
G36*
X114555618Y-48867420D02*
G01*
X114636400Y-48891925D01*
X114678336Y-48904646D01*
X114791425Y-48965094D01*
X114890554Y-49046446D01*
X114971906Y-49145575D01*
X115032354Y-49258664D01*
X115032355Y-49258668D01*
X115069580Y-49381382D01*
X115069580Y-49381384D01*
X115078951Y-49476524D01*
X115079000Y-49477027D01*
X115079000Y-50090973D01*
X115069580Y-50186618D01*
X115042040Y-50277404D01*
X115032354Y-50309336D01*
X114971906Y-50422425D01*
X114890554Y-50521553D01*
X114791424Y-50602906D01*
X114678335Y-50663354D01*
X114646403Y-50673040D01*
X114555617Y-50700580D01*
X114428000Y-50713149D01*
X114300382Y-50700580D01*
X114209596Y-50673040D01*
X114177664Y-50663354D01*
X114064575Y-50602906D01*
X113965447Y-50521554D01*
X113884094Y-50422424D01*
X113823646Y-50309335D01*
X113813960Y-50277403D01*
X113786420Y-50186617D01*
X113777000Y-50090972D01*
X113777000Y-49477027D01*
X113777050Y-49476524D01*
X113786420Y-49381384D01*
X113786420Y-49381382D01*
X113823645Y-49258668D01*
X113823645Y-49258667D01*
X113855957Y-49198217D01*
X113884095Y-49145574D01*
X113897493Y-49129249D01*
X113965447Y-49046446D01*
X114064576Y-48965094D01*
X114177665Y-48904646D01*
X114219601Y-48891925D01*
X114300383Y-48867420D01*
X114428000Y-48854851D01*
X114555618Y-48867420D01*
X114555618Y-48867420D01*
G37*
G36*
X116555618Y-48867420D02*
G01*
X116636400Y-48891925D01*
X116678336Y-48904646D01*
X116791425Y-48965094D01*
X116890554Y-49046446D01*
X116971906Y-49145575D01*
X117032354Y-49258664D01*
X117032355Y-49258668D01*
X117069580Y-49381382D01*
X117069580Y-49381384D01*
X117078951Y-49476524D01*
X117079000Y-49477027D01*
X117079000Y-50090973D01*
X117069580Y-50186618D01*
X117042040Y-50277404D01*
X117032354Y-50309336D01*
X116971906Y-50422425D01*
X116890554Y-50521553D01*
X116791424Y-50602906D01*
X116678335Y-50663354D01*
X116646403Y-50673040D01*
X116555617Y-50700580D01*
X116428000Y-50713149D01*
X116300382Y-50700580D01*
X116209596Y-50673040D01*
X116177664Y-50663354D01*
X116064575Y-50602906D01*
X115965447Y-50521554D01*
X115884094Y-50422424D01*
X115823646Y-50309335D01*
X115813960Y-50277403D01*
X115786420Y-50186617D01*
X115777000Y-50090972D01*
X115777000Y-49477027D01*
X115777050Y-49476524D01*
X115786420Y-49381384D01*
X115786420Y-49381382D01*
X115823645Y-49258668D01*
X115823645Y-49258667D01*
X115855957Y-49198217D01*
X115884095Y-49145574D01*
X115897493Y-49129249D01*
X115965447Y-49046446D01*
X116064576Y-48965094D01*
X116177665Y-48904646D01*
X116219601Y-48891925D01*
X116300383Y-48867420D01*
X116428000Y-48854851D01*
X116555618Y-48867420D01*
X116555618Y-48867420D01*
G37*
G36*
X118555618Y-48867420D02*
G01*
X118636400Y-48891925D01*
X118678336Y-48904646D01*
X118791425Y-48965094D01*
X118890554Y-49046446D01*
X118971906Y-49145575D01*
X119032354Y-49258664D01*
X119032355Y-49258668D01*
X119069580Y-49381382D01*
X119069580Y-49381384D01*
X119078951Y-49476524D01*
X119079000Y-49477027D01*
X119079000Y-50090973D01*
X119069580Y-50186618D01*
X119042040Y-50277404D01*
X119032354Y-50309336D01*
X118971906Y-50422425D01*
X118890554Y-50521553D01*
X118791424Y-50602906D01*
X118678335Y-50663354D01*
X118646403Y-50673040D01*
X118555617Y-50700580D01*
X118428000Y-50713149D01*
X118300382Y-50700580D01*
X118209596Y-50673040D01*
X118177664Y-50663354D01*
X118064575Y-50602906D01*
X117965447Y-50521554D01*
X117884094Y-50422424D01*
X117823646Y-50309335D01*
X117813960Y-50277403D01*
X117786420Y-50186617D01*
X117777000Y-50090972D01*
X117777000Y-49477027D01*
X117777050Y-49476524D01*
X117786420Y-49381384D01*
X117786420Y-49381382D01*
X117823645Y-49258668D01*
X117823645Y-49258667D01*
X117855957Y-49198217D01*
X117884095Y-49145574D01*
X117897493Y-49129249D01*
X117965447Y-49046446D01*
X118064576Y-48965094D01*
X118177665Y-48904646D01*
X118219601Y-48891925D01*
X118300383Y-48867420D01*
X118428000Y-48854851D01*
X118555618Y-48867420D01*
X118555618Y-48867420D01*
G37*
G36*
X151575618Y-48867420D02*
G01*
X151656400Y-48891925D01*
X151698336Y-48904646D01*
X151811425Y-48965094D01*
X151910554Y-49046446D01*
X151991906Y-49145575D01*
X152052354Y-49258664D01*
X152052355Y-49258668D01*
X152089580Y-49381382D01*
X152089580Y-49381384D01*
X152098951Y-49476524D01*
X152099000Y-49477027D01*
X152099000Y-50090973D01*
X152089580Y-50186618D01*
X152062040Y-50277404D01*
X152052354Y-50309336D01*
X151991906Y-50422425D01*
X151910554Y-50521553D01*
X151811424Y-50602906D01*
X151698335Y-50663354D01*
X151666403Y-50673040D01*
X151575617Y-50700580D01*
X151448000Y-50713149D01*
X151320382Y-50700580D01*
X151229596Y-50673040D01*
X151197664Y-50663354D01*
X151084575Y-50602906D01*
X150985447Y-50521554D01*
X150904094Y-50422424D01*
X150843646Y-50309335D01*
X150833960Y-50277403D01*
X150806420Y-50186617D01*
X150797000Y-50090972D01*
X150797000Y-49477027D01*
X150797050Y-49476524D01*
X150806420Y-49381384D01*
X150806420Y-49381382D01*
X150843645Y-49258668D01*
X150843645Y-49258667D01*
X150875957Y-49198217D01*
X150904095Y-49145574D01*
X150917493Y-49129249D01*
X150985447Y-49046446D01*
X151084576Y-48965094D01*
X151197665Y-48904646D01*
X151239601Y-48891925D01*
X151320383Y-48867420D01*
X151448000Y-48854851D01*
X151575618Y-48867420D01*
X151575618Y-48867420D01*
G37*
G36*
X108555618Y-48867420D02*
G01*
X108636400Y-48891925D01*
X108678336Y-48904646D01*
X108791425Y-48965094D01*
X108890554Y-49046446D01*
X108971906Y-49145575D01*
X109032354Y-49258664D01*
X109032355Y-49258668D01*
X109069580Y-49381382D01*
X109069580Y-49381384D01*
X109078951Y-49476524D01*
X109079000Y-49477027D01*
X109079000Y-50090973D01*
X109069580Y-50186618D01*
X109042040Y-50277404D01*
X109032354Y-50309336D01*
X108971906Y-50422425D01*
X108890554Y-50521553D01*
X108791424Y-50602906D01*
X108678335Y-50663354D01*
X108646403Y-50673040D01*
X108555617Y-50700580D01*
X108428000Y-50713149D01*
X108300382Y-50700580D01*
X108209596Y-50673040D01*
X108177664Y-50663354D01*
X108064575Y-50602906D01*
X107965447Y-50521554D01*
X107884094Y-50422424D01*
X107823646Y-50309335D01*
X107813960Y-50277403D01*
X107786420Y-50186617D01*
X107777000Y-50090972D01*
X107777000Y-49477027D01*
X107777050Y-49476524D01*
X107786420Y-49381384D01*
X107786420Y-49381382D01*
X107823645Y-49258668D01*
X107823645Y-49258667D01*
X107855957Y-49198217D01*
X107884095Y-49145574D01*
X107897493Y-49129249D01*
X107965447Y-49046446D01*
X108064576Y-48965094D01*
X108177665Y-48904646D01*
X108219601Y-48891925D01*
X108300383Y-48867420D01*
X108428000Y-48854851D01*
X108555618Y-48867420D01*
X108555618Y-48867420D01*
G37*
G36*
X120555618Y-48867420D02*
G01*
X120636400Y-48891925D01*
X120678336Y-48904646D01*
X120791425Y-48965094D01*
X120890554Y-49046446D01*
X120971906Y-49145575D01*
X121032354Y-49258664D01*
X121032355Y-49258668D01*
X121069580Y-49381382D01*
X121069580Y-49381384D01*
X121078951Y-49476524D01*
X121079000Y-49477027D01*
X121079000Y-50090973D01*
X121069580Y-50186618D01*
X121042040Y-50277404D01*
X121032354Y-50309336D01*
X120971906Y-50422425D01*
X120890554Y-50521553D01*
X120791424Y-50602906D01*
X120678335Y-50663354D01*
X120646403Y-50673040D01*
X120555617Y-50700580D01*
X120428000Y-50713149D01*
X120300382Y-50700580D01*
X120209596Y-50673040D01*
X120177664Y-50663354D01*
X120064575Y-50602906D01*
X119965447Y-50521554D01*
X119884094Y-50422424D01*
X119823646Y-50309335D01*
X119813960Y-50277403D01*
X119786420Y-50186617D01*
X119777000Y-50090972D01*
X119777000Y-49477027D01*
X119777050Y-49476524D01*
X119786420Y-49381384D01*
X119786420Y-49381382D01*
X119823645Y-49258668D01*
X119823645Y-49258667D01*
X119855957Y-49198217D01*
X119884095Y-49145574D01*
X119897493Y-49129249D01*
X119965447Y-49046446D01*
X120064576Y-48965094D01*
X120177665Y-48904646D01*
X120219601Y-48891925D01*
X120300383Y-48867420D01*
X120428000Y-48854851D01*
X120555618Y-48867420D01*
X120555618Y-48867420D01*
G37*
G36*
X128875618Y-48867420D02*
G01*
X128956400Y-48891925D01*
X128998336Y-48904646D01*
X129111425Y-48965094D01*
X129210554Y-49046446D01*
X129291906Y-49145575D01*
X129352354Y-49258664D01*
X129352355Y-49258668D01*
X129389580Y-49381382D01*
X129389580Y-49381384D01*
X129398951Y-49476524D01*
X129399000Y-49477027D01*
X129399000Y-50090973D01*
X129389580Y-50186618D01*
X129362040Y-50277404D01*
X129352354Y-50309336D01*
X129291906Y-50422425D01*
X129210554Y-50521553D01*
X129111424Y-50602906D01*
X128998335Y-50663354D01*
X128966403Y-50673040D01*
X128875617Y-50700580D01*
X128748000Y-50713149D01*
X128620382Y-50700580D01*
X128529596Y-50673040D01*
X128497664Y-50663354D01*
X128384575Y-50602906D01*
X128285447Y-50521554D01*
X128204094Y-50422424D01*
X128143646Y-50309335D01*
X128133960Y-50277403D01*
X128106420Y-50186617D01*
X128097000Y-50090972D01*
X128097000Y-49477027D01*
X128097050Y-49476524D01*
X128106420Y-49381384D01*
X128106420Y-49381382D01*
X128143645Y-49258668D01*
X128143645Y-49258667D01*
X128175957Y-49198217D01*
X128204095Y-49145574D01*
X128217493Y-49129249D01*
X128285447Y-49046446D01*
X128384576Y-48965094D01*
X128497665Y-48904646D01*
X128539601Y-48891925D01*
X128620383Y-48867420D01*
X128748000Y-48854851D01*
X128875618Y-48867420D01*
X128875618Y-48867420D01*
G37*
G36*
X130875618Y-48867420D02*
G01*
X130956400Y-48891925D01*
X130998336Y-48904646D01*
X131111425Y-48965094D01*
X131210554Y-49046446D01*
X131291906Y-49145575D01*
X131352354Y-49258664D01*
X131352355Y-49258668D01*
X131389580Y-49381382D01*
X131389580Y-49381384D01*
X131398951Y-49476524D01*
X131399000Y-49477027D01*
X131399000Y-50090973D01*
X131389580Y-50186618D01*
X131362040Y-50277404D01*
X131352354Y-50309336D01*
X131291906Y-50422425D01*
X131210554Y-50521553D01*
X131111424Y-50602906D01*
X130998335Y-50663354D01*
X130966403Y-50673040D01*
X130875617Y-50700580D01*
X130748000Y-50713149D01*
X130620382Y-50700580D01*
X130529596Y-50673040D01*
X130497664Y-50663354D01*
X130384575Y-50602906D01*
X130285447Y-50521554D01*
X130204094Y-50422424D01*
X130143646Y-50309335D01*
X130133960Y-50277403D01*
X130106420Y-50186617D01*
X130097000Y-50090972D01*
X130097000Y-49477027D01*
X130097050Y-49476524D01*
X130106420Y-49381384D01*
X130106420Y-49381382D01*
X130143645Y-49258668D01*
X130143645Y-49258667D01*
X130175957Y-49198217D01*
X130204095Y-49145574D01*
X130217493Y-49129249D01*
X130285447Y-49046446D01*
X130384576Y-48965094D01*
X130497665Y-48904646D01*
X130539601Y-48891925D01*
X130620383Y-48867420D01*
X130748000Y-48854851D01*
X130875618Y-48867420D01*
X130875618Y-48867420D01*
G37*
G36*
X132875618Y-48867420D02*
G01*
X132956400Y-48891925D01*
X132998336Y-48904646D01*
X133111425Y-48965094D01*
X133210554Y-49046446D01*
X133291906Y-49145575D01*
X133352354Y-49258664D01*
X133352355Y-49258668D01*
X133389580Y-49381382D01*
X133389580Y-49381384D01*
X133398951Y-49476524D01*
X133399000Y-49477027D01*
X133399000Y-50090973D01*
X133389580Y-50186618D01*
X133362040Y-50277404D01*
X133352354Y-50309336D01*
X133291906Y-50422425D01*
X133210554Y-50521553D01*
X133111424Y-50602906D01*
X132998335Y-50663354D01*
X132966403Y-50673040D01*
X132875617Y-50700580D01*
X132748000Y-50713149D01*
X132620382Y-50700580D01*
X132529596Y-50673040D01*
X132497664Y-50663354D01*
X132384575Y-50602906D01*
X132285447Y-50521554D01*
X132204094Y-50422424D01*
X132143646Y-50309335D01*
X132133960Y-50277403D01*
X132106420Y-50186617D01*
X132097000Y-50090972D01*
X132097000Y-49477027D01*
X132097050Y-49476524D01*
X132106420Y-49381384D01*
X132106420Y-49381382D01*
X132143645Y-49258668D01*
X132143645Y-49258667D01*
X132175957Y-49198217D01*
X132204095Y-49145574D01*
X132217493Y-49129249D01*
X132285447Y-49046446D01*
X132384576Y-48965094D01*
X132497665Y-48904646D01*
X132539601Y-48891925D01*
X132620383Y-48867420D01*
X132748000Y-48854851D01*
X132875618Y-48867420D01*
X132875618Y-48867420D01*
G37*
G36*
X134875618Y-48867420D02*
G01*
X134956400Y-48891925D01*
X134998336Y-48904646D01*
X135111425Y-48965094D01*
X135210554Y-49046446D01*
X135291906Y-49145575D01*
X135352354Y-49258664D01*
X135352355Y-49258668D01*
X135389580Y-49381382D01*
X135389580Y-49381384D01*
X135398951Y-49476524D01*
X135399000Y-49477027D01*
X135399000Y-50090973D01*
X135389580Y-50186618D01*
X135362040Y-50277404D01*
X135352354Y-50309336D01*
X135291906Y-50422425D01*
X135210554Y-50521553D01*
X135111424Y-50602906D01*
X134998335Y-50663354D01*
X134966403Y-50673040D01*
X134875617Y-50700580D01*
X134748000Y-50713149D01*
X134620382Y-50700580D01*
X134529596Y-50673040D01*
X134497664Y-50663354D01*
X134384575Y-50602906D01*
X134285447Y-50521554D01*
X134204094Y-50422424D01*
X134143646Y-50309335D01*
X134133960Y-50277403D01*
X134106420Y-50186617D01*
X134097000Y-50090972D01*
X134097000Y-49477027D01*
X134097050Y-49476524D01*
X134106420Y-49381384D01*
X134106420Y-49381382D01*
X134143645Y-49258668D01*
X134143645Y-49258667D01*
X134175957Y-49198217D01*
X134204095Y-49145574D01*
X134217493Y-49129249D01*
X134285447Y-49046446D01*
X134384576Y-48965094D01*
X134497665Y-48904646D01*
X134539601Y-48891925D01*
X134620383Y-48867420D01*
X134748000Y-48854851D01*
X134875618Y-48867420D01*
X134875618Y-48867420D01*
G37*
G36*
X136875618Y-48867420D02*
G01*
X136956400Y-48891925D01*
X136998336Y-48904646D01*
X137111425Y-48965094D01*
X137210554Y-49046446D01*
X137291906Y-49145575D01*
X137352354Y-49258664D01*
X137352355Y-49258668D01*
X137389580Y-49381382D01*
X137389580Y-49381384D01*
X137398951Y-49476524D01*
X137399000Y-49477027D01*
X137399000Y-50090973D01*
X137389580Y-50186618D01*
X137362040Y-50277404D01*
X137352354Y-50309336D01*
X137291906Y-50422425D01*
X137210554Y-50521553D01*
X137111424Y-50602906D01*
X136998335Y-50663354D01*
X136966403Y-50673040D01*
X136875617Y-50700580D01*
X136748000Y-50713149D01*
X136620382Y-50700580D01*
X136529596Y-50673040D01*
X136497664Y-50663354D01*
X136384575Y-50602906D01*
X136285447Y-50521554D01*
X136204094Y-50422424D01*
X136143646Y-50309335D01*
X136133960Y-50277403D01*
X136106420Y-50186617D01*
X136097000Y-50090972D01*
X136097000Y-49477027D01*
X136097050Y-49476524D01*
X136106420Y-49381384D01*
X136106420Y-49381382D01*
X136143645Y-49258668D01*
X136143645Y-49258667D01*
X136175957Y-49198217D01*
X136204095Y-49145574D01*
X136217493Y-49129249D01*
X136285447Y-49046446D01*
X136384576Y-48965094D01*
X136497665Y-48904646D01*
X136539601Y-48891925D01*
X136620383Y-48867420D01*
X136748000Y-48854851D01*
X136875618Y-48867420D01*
X136875618Y-48867420D01*
G37*
G36*
X138875618Y-48867420D02*
G01*
X138956400Y-48891925D01*
X138998336Y-48904646D01*
X139111425Y-48965094D01*
X139210554Y-49046446D01*
X139291906Y-49145575D01*
X139352354Y-49258664D01*
X139352355Y-49258668D01*
X139389580Y-49381382D01*
X139389580Y-49381384D01*
X139398951Y-49476524D01*
X139399000Y-49477027D01*
X139399000Y-50090973D01*
X139389580Y-50186618D01*
X139362040Y-50277404D01*
X139352354Y-50309336D01*
X139291906Y-50422425D01*
X139210554Y-50521553D01*
X139111424Y-50602906D01*
X138998335Y-50663354D01*
X138966403Y-50673040D01*
X138875617Y-50700580D01*
X138748000Y-50713149D01*
X138620382Y-50700580D01*
X138529596Y-50673040D01*
X138497664Y-50663354D01*
X138384575Y-50602906D01*
X138285447Y-50521554D01*
X138204094Y-50422424D01*
X138143646Y-50309335D01*
X138133960Y-50277403D01*
X138106420Y-50186617D01*
X138097000Y-50090972D01*
X138097000Y-49477027D01*
X138097050Y-49476524D01*
X138106420Y-49381384D01*
X138106420Y-49381382D01*
X138143645Y-49258668D01*
X138143645Y-49258667D01*
X138175957Y-49198217D01*
X138204095Y-49145574D01*
X138217493Y-49129249D01*
X138285447Y-49046446D01*
X138384576Y-48965094D01*
X138497665Y-48904646D01*
X138539601Y-48891925D01*
X138620383Y-48867420D01*
X138748000Y-48854851D01*
X138875618Y-48867420D01*
X138875618Y-48867420D01*
G37*
G36*
X140875618Y-48867420D02*
G01*
X140956400Y-48891925D01*
X140998336Y-48904646D01*
X141111425Y-48965094D01*
X141210554Y-49046446D01*
X141291906Y-49145575D01*
X141352354Y-49258664D01*
X141352355Y-49258668D01*
X141389580Y-49381382D01*
X141389580Y-49381384D01*
X141398951Y-49476524D01*
X141399000Y-49477027D01*
X141399000Y-50090973D01*
X141389580Y-50186618D01*
X141362040Y-50277404D01*
X141352354Y-50309336D01*
X141291906Y-50422425D01*
X141210554Y-50521553D01*
X141111424Y-50602906D01*
X140998335Y-50663354D01*
X140966403Y-50673040D01*
X140875617Y-50700580D01*
X140748000Y-50713149D01*
X140620382Y-50700580D01*
X140529596Y-50673040D01*
X140497664Y-50663354D01*
X140384575Y-50602906D01*
X140285447Y-50521554D01*
X140204094Y-50422424D01*
X140143646Y-50309335D01*
X140133960Y-50277403D01*
X140106420Y-50186617D01*
X140097000Y-50090972D01*
X140097000Y-49477027D01*
X140097050Y-49476524D01*
X140106420Y-49381384D01*
X140106420Y-49381382D01*
X140143645Y-49258668D01*
X140143645Y-49258667D01*
X140175957Y-49198217D01*
X140204095Y-49145574D01*
X140217493Y-49129249D01*
X140285447Y-49046446D01*
X140384576Y-48965094D01*
X140497665Y-48904646D01*
X140539601Y-48891925D01*
X140620383Y-48867420D01*
X140748000Y-48854851D01*
X140875618Y-48867420D01*
X140875618Y-48867420D01*
G37*
G36*
X153575618Y-48867420D02*
G01*
X153656400Y-48891925D01*
X153698336Y-48904646D01*
X153811425Y-48965094D01*
X153910554Y-49046446D01*
X153991906Y-49145575D01*
X154052354Y-49258664D01*
X154052355Y-49258668D01*
X154089580Y-49381382D01*
X154089580Y-49381384D01*
X154098951Y-49476524D01*
X154099000Y-49477027D01*
X154099000Y-50090973D01*
X154089580Y-50186618D01*
X154062040Y-50277404D01*
X154052354Y-50309336D01*
X153991906Y-50422425D01*
X153910554Y-50521553D01*
X153811424Y-50602906D01*
X153698335Y-50663354D01*
X153666403Y-50673040D01*
X153575617Y-50700580D01*
X153448000Y-50713149D01*
X153320382Y-50700580D01*
X153229596Y-50673040D01*
X153197664Y-50663354D01*
X153084575Y-50602906D01*
X152985447Y-50521554D01*
X152904094Y-50422424D01*
X152843646Y-50309335D01*
X152833960Y-50277403D01*
X152806420Y-50186617D01*
X152797000Y-50090972D01*
X152797000Y-49477027D01*
X152797050Y-49476524D01*
X152806420Y-49381384D01*
X152806420Y-49381382D01*
X152843645Y-49258668D01*
X152843645Y-49258667D01*
X152875957Y-49198217D01*
X152904095Y-49145574D01*
X152917493Y-49129249D01*
X152985447Y-49046446D01*
X153084576Y-48965094D01*
X153197665Y-48904646D01*
X153239601Y-48891925D01*
X153320383Y-48867420D01*
X153448000Y-48854851D01*
X153575618Y-48867420D01*
X153575618Y-48867420D01*
G37*
G36*
X149575618Y-48867420D02*
G01*
X149656400Y-48891925D01*
X149698336Y-48904646D01*
X149811425Y-48965094D01*
X149910554Y-49046446D01*
X149991906Y-49145575D01*
X150052354Y-49258664D01*
X150052355Y-49258668D01*
X150089580Y-49381382D01*
X150089580Y-49381384D01*
X150098951Y-49476524D01*
X150099000Y-49477027D01*
X150099000Y-50090973D01*
X150089580Y-50186618D01*
X150062040Y-50277404D01*
X150052354Y-50309336D01*
X149991906Y-50422425D01*
X149910554Y-50521553D01*
X149811424Y-50602906D01*
X149698335Y-50663354D01*
X149666403Y-50673040D01*
X149575617Y-50700580D01*
X149448000Y-50713149D01*
X149320382Y-50700580D01*
X149229596Y-50673040D01*
X149197664Y-50663354D01*
X149084575Y-50602906D01*
X148985447Y-50521554D01*
X148904094Y-50422424D01*
X148843646Y-50309335D01*
X148833960Y-50277403D01*
X148806420Y-50186617D01*
X148797000Y-50090972D01*
X148797000Y-49477027D01*
X148797050Y-49476524D01*
X148806420Y-49381384D01*
X148806420Y-49381382D01*
X148843645Y-49258668D01*
X148843645Y-49258667D01*
X148875957Y-49198217D01*
X148904095Y-49145574D01*
X148917493Y-49129249D01*
X148985447Y-49046446D01*
X149084576Y-48965094D01*
X149197665Y-48904646D01*
X149239601Y-48891925D01*
X149320383Y-48867420D01*
X149448000Y-48854851D01*
X149575618Y-48867420D01*
X149575618Y-48867420D01*
G37*
G36*
X155939242Y-48862404D02*
G01*
X155976337Y-48873657D01*
X156010515Y-48891925D01*
X156040481Y-48916519D01*
X156065075Y-48946485D01*
X156083343Y-48980663D01*
X156094596Y-49017758D01*
X156099000Y-49062474D01*
X156099000Y-50505526D01*
X156094596Y-50550242D01*
X156083343Y-50587337D01*
X156065075Y-50621515D01*
X156040481Y-50651481D01*
X156010515Y-50676075D01*
X155976337Y-50694343D01*
X155939242Y-50705596D01*
X155894526Y-50710000D01*
X155001474Y-50710000D01*
X154956758Y-50705596D01*
X154919663Y-50694343D01*
X154885485Y-50676075D01*
X154855519Y-50651481D01*
X154830925Y-50621515D01*
X154812657Y-50587337D01*
X154801404Y-50550242D01*
X154797000Y-50505526D01*
X154797000Y-49062474D01*
X154801404Y-49017758D01*
X154812657Y-48980663D01*
X154830925Y-48946485D01*
X154855519Y-48916519D01*
X154885485Y-48891925D01*
X154919663Y-48873657D01*
X154956758Y-48862404D01*
X155001474Y-48858000D01*
X155894526Y-48858000D01*
X155939242Y-48862404D01*
X155939242Y-48862404D01*
G37*
G36*
X122919242Y-48862404D02*
G01*
X122956337Y-48873657D01*
X122990515Y-48891925D01*
X123020481Y-48916519D01*
X123045075Y-48946485D01*
X123063343Y-48980663D01*
X123074596Y-49017758D01*
X123079000Y-49062474D01*
X123079000Y-50505526D01*
X123074596Y-50550242D01*
X123063343Y-50587337D01*
X123045075Y-50621515D01*
X123020481Y-50651481D01*
X122990515Y-50676075D01*
X122956337Y-50694343D01*
X122919242Y-50705596D01*
X122874526Y-50710000D01*
X121981474Y-50710000D01*
X121936758Y-50705596D01*
X121899663Y-50694343D01*
X121865485Y-50676075D01*
X121835519Y-50651481D01*
X121810925Y-50621515D01*
X121792657Y-50587337D01*
X121781404Y-50550242D01*
X121777000Y-50505526D01*
X121777000Y-49062474D01*
X121781404Y-49017758D01*
X121792657Y-48980663D01*
X121810925Y-48946485D01*
X121835519Y-48916519D01*
X121865485Y-48891925D01*
X121899663Y-48873657D01*
X121936758Y-48862404D01*
X121981474Y-48858000D01*
X122874526Y-48858000D01*
X122919242Y-48862404D01*
X122919242Y-48862404D01*
G37*
G36*
X143239242Y-48862404D02*
G01*
X143276337Y-48873657D01*
X143310515Y-48891925D01*
X143340481Y-48916519D01*
X143365075Y-48946485D01*
X143383343Y-48980663D01*
X143394596Y-49017758D01*
X143399000Y-49062474D01*
X143399000Y-50505526D01*
X143394596Y-50550242D01*
X143383343Y-50587337D01*
X143365075Y-50621515D01*
X143340481Y-50651481D01*
X143310515Y-50676075D01*
X143276337Y-50694343D01*
X143239242Y-50705596D01*
X143194526Y-50710000D01*
X142301474Y-50710000D01*
X142256758Y-50705596D01*
X142219663Y-50694343D01*
X142185485Y-50676075D01*
X142155519Y-50651481D01*
X142130925Y-50621515D01*
X142112657Y-50587337D01*
X142101404Y-50550242D01*
X142097000Y-50505526D01*
X142097000Y-49062474D01*
X142101404Y-49017758D01*
X142112657Y-48980663D01*
X142130925Y-48946485D01*
X142155519Y-48916519D01*
X142185485Y-48891925D01*
X142219663Y-48873657D01*
X142256758Y-48862404D01*
X142301474Y-48858000D01*
X143194526Y-48858000D01*
X143239242Y-48862404D01*
X143239242Y-48862404D01*
G37*
G36*
X164143626Y-45880783D02*
G01*
X164497775Y-46027476D01*
X164497777Y-46027477D01*
X164816503Y-46240443D01*
X165087557Y-46511497D01*
X165300523Y-46830223D01*
X165300524Y-46830225D01*
X165447217Y-47184374D01*
X165522000Y-47560334D01*
X165522000Y-47943666D01*
X165447217Y-48319626D01*
X165340885Y-48576334D01*
X165300523Y-48673777D01*
X165087557Y-48992503D01*
X164816503Y-49263557D01*
X164497777Y-49476523D01*
X164497776Y-49476524D01*
X164497775Y-49476524D01*
X164143626Y-49623217D01*
X163767666Y-49698000D01*
X163384334Y-49698000D01*
X163008374Y-49623217D01*
X162654225Y-49476524D01*
X162654224Y-49476524D01*
X162654223Y-49476523D01*
X162335497Y-49263557D01*
X162064443Y-48992503D01*
X161851477Y-48673777D01*
X161811115Y-48576334D01*
X161704783Y-48319626D01*
X161630000Y-47943666D01*
X161630000Y-47560334D01*
X161704783Y-47184374D01*
X161851476Y-46830225D01*
X161851477Y-46830223D01*
X162064443Y-46511497D01*
X162335497Y-46240443D01*
X162654223Y-46027477D01*
X162654225Y-46027476D01*
X163008374Y-45880783D01*
X163384334Y-45806000D01*
X163767666Y-45806000D01*
X164143626Y-45880783D01*
X164143626Y-45880783D01*
G37*
M02*
