G04 #@! TF.GenerationSoftware,KiCad,Pcbnew,(5.1.2-1)-1*
G04 #@! TF.CreationDate,2019-08-19T15:38:30+10:00*
G04 #@! TF.ProjectId,Clock,436c6f63-6b2e-46b6-9963-61645f706362,v01*
G04 #@! TF.SameCoordinates,Original*
G04 #@! TF.FileFunction,Soldermask,Bot*
G04 #@! TF.FilePolarity,Negative*
%FSLAX46Y46*%
G04 Gerber Fmt 4.6, Leading zero omitted, Abs format (unit mm)*
G04 Created by KiCad (PCBNEW (5.1.2-1)-1) date 2019-08-19 15:38:30*
%MOMM*%
%LPD*%
G04 APERTURE LIST*
%ADD10C,0.100000*%
G04 APERTURE END LIST*
D10*
G36*
X179129626Y-116238783D02*
G01*
X179312831Y-116314669D01*
X179483777Y-116385477D01*
X179802503Y-116598443D01*
X180073557Y-116869497D01*
X180258961Y-117146974D01*
X180286524Y-117188225D01*
X180433217Y-117542374D01*
X180508000Y-117918334D01*
X180508000Y-118301666D01*
X180433217Y-118677626D01*
X180286524Y-119031775D01*
X180286523Y-119031777D01*
X180073557Y-119350503D01*
X179802503Y-119621557D01*
X179483777Y-119834523D01*
X179483776Y-119834524D01*
X179483775Y-119834524D01*
X179129626Y-119981217D01*
X178753666Y-120056000D01*
X178370334Y-120056000D01*
X177994374Y-119981217D01*
X177640225Y-119834524D01*
X177640224Y-119834524D01*
X177640223Y-119834523D01*
X177321497Y-119621557D01*
X177050443Y-119350503D01*
X176837477Y-119031777D01*
X176837476Y-119031775D01*
X176690783Y-118677626D01*
X176616000Y-118301666D01*
X176616000Y-117918334D01*
X176690783Y-117542374D01*
X176837476Y-117188225D01*
X176865039Y-117146974D01*
X177050443Y-116869497D01*
X177321497Y-116598443D01*
X177640223Y-116385477D01*
X177811169Y-116314669D01*
X177994374Y-116238783D01*
X178370334Y-116164000D01*
X178753666Y-116164000D01*
X179129626Y-116238783D01*
X179129626Y-116238783D01*
G37*
G36*
X116899626Y-116238783D02*
G01*
X117082831Y-116314669D01*
X117253777Y-116385477D01*
X117572503Y-116598443D01*
X117843557Y-116869497D01*
X118028961Y-117146974D01*
X118056524Y-117188225D01*
X118203217Y-117542374D01*
X118278000Y-117918334D01*
X118278000Y-118301666D01*
X118203217Y-118677626D01*
X118056524Y-119031775D01*
X118056523Y-119031777D01*
X117843557Y-119350503D01*
X117572503Y-119621557D01*
X117253777Y-119834523D01*
X117253776Y-119834524D01*
X117253775Y-119834524D01*
X116899626Y-119981217D01*
X116523666Y-120056000D01*
X116140334Y-120056000D01*
X115764374Y-119981217D01*
X115410225Y-119834524D01*
X115410224Y-119834524D01*
X115410223Y-119834523D01*
X115091497Y-119621557D01*
X114820443Y-119350503D01*
X114607477Y-119031777D01*
X114607476Y-119031775D01*
X114460783Y-118677626D01*
X114386000Y-118301666D01*
X114386000Y-117918334D01*
X114460783Y-117542374D01*
X114607476Y-117188225D01*
X114635039Y-117146974D01*
X114820443Y-116869497D01*
X115091497Y-116598443D01*
X115410223Y-116385477D01*
X115581169Y-116314669D01*
X115764374Y-116238783D01*
X116140334Y-116164000D01*
X116523666Y-116164000D01*
X116899626Y-116238783D01*
X116899626Y-116238783D01*
G37*
G36*
X168719617Y-115923420D02*
G01*
X168800399Y-115947925D01*
X168842335Y-115960646D01*
X168955424Y-116021094D01*
X169054554Y-116102447D01*
X169135906Y-116201575D01*
X169196354Y-116314664D01*
X169206040Y-116346596D01*
X169233580Y-116437382D01*
X169243000Y-116533027D01*
X169243000Y-117146973D01*
X169233580Y-117242618D01*
X169206040Y-117333404D01*
X169196354Y-117365336D01*
X169135906Y-117478425D01*
X169054554Y-117577554D01*
X168955425Y-117658906D01*
X168842336Y-117719354D01*
X168810404Y-117729040D01*
X168719618Y-117756580D01*
X168592000Y-117769149D01*
X168464383Y-117756580D01*
X168373597Y-117729040D01*
X168341665Y-117719354D01*
X168228576Y-117658906D01*
X168129447Y-117577554D01*
X168048096Y-117478427D01*
X168048095Y-117478425D01*
X167987647Y-117365336D01*
X167987645Y-117365333D01*
X167975237Y-117324427D01*
X167950420Y-117242618D01*
X167941000Y-117146973D01*
X167941000Y-116533028D01*
X167950420Y-116437383D01*
X167987645Y-116314669D01*
X167987646Y-116314665D01*
X168048094Y-116201576D01*
X168129447Y-116102446D01*
X168228575Y-116021094D01*
X168341664Y-115960646D01*
X168383600Y-115947925D01*
X168464382Y-115923420D01*
X168592000Y-115910851D01*
X168719617Y-115923420D01*
X168719617Y-115923420D01*
G37*
G36*
X156559617Y-115923420D02*
G01*
X156640399Y-115947925D01*
X156682335Y-115960646D01*
X156795424Y-116021094D01*
X156894554Y-116102447D01*
X156975906Y-116201575D01*
X157036354Y-116314664D01*
X157046040Y-116346596D01*
X157073580Y-116437382D01*
X157083000Y-116533027D01*
X157083000Y-117146973D01*
X157073580Y-117242618D01*
X157046040Y-117333404D01*
X157036354Y-117365336D01*
X156975906Y-117478425D01*
X156894554Y-117577554D01*
X156795425Y-117658906D01*
X156682336Y-117719354D01*
X156650404Y-117729040D01*
X156559618Y-117756580D01*
X156432000Y-117769149D01*
X156304383Y-117756580D01*
X156213597Y-117729040D01*
X156181665Y-117719354D01*
X156068576Y-117658906D01*
X155969447Y-117577554D01*
X155888096Y-117478427D01*
X155888095Y-117478425D01*
X155827647Y-117365336D01*
X155827645Y-117365333D01*
X155815237Y-117324427D01*
X155790420Y-117242618D01*
X155781000Y-117146973D01*
X155781000Y-116533028D01*
X155790420Y-116437383D01*
X155827645Y-116314669D01*
X155827646Y-116314665D01*
X155888094Y-116201576D01*
X155969447Y-116102446D01*
X156068575Y-116021094D01*
X156181664Y-115960646D01*
X156223600Y-115947925D01*
X156304382Y-115923420D01*
X156432000Y-115910851D01*
X156559617Y-115923420D01*
X156559617Y-115923420D01*
G37*
G36*
X166719617Y-115923420D02*
G01*
X166800399Y-115947925D01*
X166842335Y-115960646D01*
X166955424Y-116021094D01*
X167054554Y-116102447D01*
X167135906Y-116201575D01*
X167196354Y-116314664D01*
X167206040Y-116346596D01*
X167233580Y-116437382D01*
X167243000Y-116533027D01*
X167243000Y-117146973D01*
X167233580Y-117242618D01*
X167206040Y-117333404D01*
X167196354Y-117365336D01*
X167135906Y-117478425D01*
X167054554Y-117577554D01*
X166955425Y-117658906D01*
X166842336Y-117719354D01*
X166810404Y-117729040D01*
X166719618Y-117756580D01*
X166592000Y-117769149D01*
X166464383Y-117756580D01*
X166373597Y-117729040D01*
X166341665Y-117719354D01*
X166228576Y-117658906D01*
X166129447Y-117577554D01*
X166048096Y-117478427D01*
X166048095Y-117478425D01*
X165987647Y-117365336D01*
X165987645Y-117365333D01*
X165975237Y-117324427D01*
X165950420Y-117242618D01*
X165941000Y-117146973D01*
X165941000Y-116533028D01*
X165950420Y-116437383D01*
X165987645Y-116314669D01*
X165987646Y-116314665D01*
X166048094Y-116201576D01*
X166129447Y-116102446D01*
X166228575Y-116021094D01*
X166341664Y-115960646D01*
X166383600Y-115947925D01*
X166464382Y-115923420D01*
X166592000Y-115910851D01*
X166719617Y-115923420D01*
X166719617Y-115923420D01*
G37*
G36*
X165083242Y-115918404D02*
G01*
X165120337Y-115929657D01*
X165154515Y-115947925D01*
X165184481Y-115972519D01*
X165209075Y-116002485D01*
X165227343Y-116036663D01*
X165238596Y-116073758D01*
X165243000Y-116118474D01*
X165243000Y-117561526D01*
X165238596Y-117606242D01*
X165227343Y-117643337D01*
X165209075Y-117677515D01*
X165184481Y-117707481D01*
X165154515Y-117732075D01*
X165120337Y-117750343D01*
X165083242Y-117761596D01*
X165038526Y-117766000D01*
X164145474Y-117766000D01*
X164100758Y-117761596D01*
X164063663Y-117750343D01*
X164029485Y-117732075D01*
X163999519Y-117707481D01*
X163974925Y-117677515D01*
X163956657Y-117643337D01*
X163945404Y-117606242D01*
X163941000Y-117561526D01*
X163941000Y-116118474D01*
X163945404Y-116073758D01*
X163956657Y-116036663D01*
X163974925Y-116002485D01*
X163999519Y-115972519D01*
X164029485Y-115947925D01*
X164063663Y-115929657D01*
X164100758Y-115918404D01*
X164145474Y-115914000D01*
X165038526Y-115914000D01*
X165083242Y-115918404D01*
X165083242Y-115918404D01*
G37*
G36*
X154923242Y-115918404D02*
G01*
X154960337Y-115929657D01*
X154994515Y-115947925D01*
X155024481Y-115972519D01*
X155049075Y-116002485D01*
X155067343Y-116036663D01*
X155078596Y-116073758D01*
X155083000Y-116118474D01*
X155083000Y-117561526D01*
X155078596Y-117606242D01*
X155067343Y-117643337D01*
X155049075Y-117677515D01*
X155024481Y-117707481D01*
X154994515Y-117732075D01*
X154960337Y-117750343D01*
X154923242Y-117761596D01*
X154878526Y-117766000D01*
X153985474Y-117766000D01*
X153940758Y-117761596D01*
X153903663Y-117750343D01*
X153869485Y-117732075D01*
X153839519Y-117707481D01*
X153814925Y-117677515D01*
X153796657Y-117643337D01*
X153785404Y-117606242D01*
X153781000Y-117561526D01*
X153781000Y-116118474D01*
X153785404Y-116073758D01*
X153796657Y-116036663D01*
X153814925Y-116002485D01*
X153839519Y-115972519D01*
X153869485Y-115947925D01*
X153903663Y-115929657D01*
X153940758Y-115918404D01*
X153985474Y-115914000D01*
X154878526Y-115914000D01*
X154923242Y-115918404D01*
X154923242Y-115918404D01*
G37*
G36*
X120308823Y-108381313D02*
G01*
X120469242Y-108429976D01*
X120601906Y-108500886D01*
X120617078Y-108508996D01*
X120746659Y-108615341D01*
X120853004Y-108744922D01*
X120853005Y-108744924D01*
X120932024Y-108892758D01*
X120980687Y-109053177D01*
X120997117Y-109220000D01*
X120980687Y-109386823D01*
X120932024Y-109547242D01*
X120861114Y-109679906D01*
X120853004Y-109695078D01*
X120746659Y-109824659D01*
X120617078Y-109931004D01*
X120617076Y-109931005D01*
X120469242Y-110010024D01*
X120308823Y-110058687D01*
X120183804Y-110071000D01*
X120100196Y-110071000D01*
X119975177Y-110058687D01*
X119814758Y-110010024D01*
X119666924Y-109931005D01*
X119666922Y-109931004D01*
X119537341Y-109824659D01*
X119430996Y-109695078D01*
X119422886Y-109679906D01*
X119351976Y-109547242D01*
X119303313Y-109386823D01*
X119286883Y-109220000D01*
X119303313Y-109053177D01*
X119351976Y-108892758D01*
X119430995Y-108744924D01*
X119430996Y-108744922D01*
X119537341Y-108615341D01*
X119666922Y-108508996D01*
X119682094Y-108500886D01*
X119814758Y-108429976D01*
X119975177Y-108381313D01*
X120100196Y-108369000D01*
X120183804Y-108369000D01*
X120308823Y-108381313D01*
X120308823Y-108381313D01*
G37*
G36*
X138088823Y-108381313D02*
G01*
X138249242Y-108429976D01*
X138381906Y-108500886D01*
X138397078Y-108508996D01*
X138526659Y-108615341D01*
X138633004Y-108744922D01*
X138633005Y-108744924D01*
X138712024Y-108892758D01*
X138760687Y-109053177D01*
X138777117Y-109220000D01*
X138760687Y-109386823D01*
X138712024Y-109547242D01*
X138641114Y-109679906D01*
X138633004Y-109695078D01*
X138526659Y-109824659D01*
X138397078Y-109931004D01*
X138397076Y-109931005D01*
X138249242Y-110010024D01*
X138088823Y-110058687D01*
X137963804Y-110071000D01*
X137880196Y-110071000D01*
X137755177Y-110058687D01*
X137594758Y-110010024D01*
X137446924Y-109931005D01*
X137446922Y-109931004D01*
X137317341Y-109824659D01*
X137210996Y-109695078D01*
X137202886Y-109679906D01*
X137131976Y-109547242D01*
X137083313Y-109386823D01*
X137066883Y-109220000D01*
X137083313Y-109053177D01*
X137131976Y-108892758D01*
X137210995Y-108744924D01*
X137210996Y-108744922D01*
X137317341Y-108615341D01*
X137446922Y-108508996D01*
X137462094Y-108500886D01*
X137594758Y-108429976D01*
X137755177Y-108381313D01*
X137880196Y-108369000D01*
X137963804Y-108369000D01*
X138088823Y-108381313D01*
X138088823Y-108381313D01*
G37*
G36*
X127928823Y-108381313D02*
G01*
X128089242Y-108429976D01*
X128221906Y-108500886D01*
X128237078Y-108508996D01*
X128366659Y-108615341D01*
X128473004Y-108744922D01*
X128473005Y-108744924D01*
X128552024Y-108892758D01*
X128600687Y-109053177D01*
X128617117Y-109220000D01*
X128600687Y-109386823D01*
X128552024Y-109547242D01*
X128481114Y-109679906D01*
X128473004Y-109695078D01*
X128366659Y-109824659D01*
X128237078Y-109931004D01*
X128237076Y-109931005D01*
X128089242Y-110010024D01*
X127928823Y-110058687D01*
X127803804Y-110071000D01*
X127720196Y-110071000D01*
X127595177Y-110058687D01*
X127434758Y-110010024D01*
X127286924Y-109931005D01*
X127286922Y-109931004D01*
X127157341Y-109824659D01*
X127050996Y-109695078D01*
X127042886Y-109679906D01*
X126971976Y-109547242D01*
X126923313Y-109386823D01*
X126906883Y-109220000D01*
X126923313Y-109053177D01*
X126971976Y-108892758D01*
X127050995Y-108744924D01*
X127050996Y-108744922D01*
X127157341Y-108615341D01*
X127286922Y-108508996D01*
X127302094Y-108500886D01*
X127434758Y-108429976D01*
X127595177Y-108381313D01*
X127720196Y-108369000D01*
X127803804Y-108369000D01*
X127928823Y-108381313D01*
X127928823Y-108381313D01*
G37*
G36*
X163488823Y-108381313D02*
G01*
X163649242Y-108429976D01*
X163781906Y-108500886D01*
X163797078Y-108508996D01*
X163926659Y-108615341D01*
X164033004Y-108744922D01*
X164033005Y-108744924D01*
X164112024Y-108892758D01*
X164160687Y-109053177D01*
X164177117Y-109220000D01*
X164160687Y-109386823D01*
X164112024Y-109547242D01*
X164041114Y-109679906D01*
X164033004Y-109695078D01*
X163926659Y-109824659D01*
X163797078Y-109931004D01*
X163797076Y-109931005D01*
X163649242Y-110010024D01*
X163488823Y-110058687D01*
X163363804Y-110071000D01*
X163280196Y-110071000D01*
X163155177Y-110058687D01*
X162994758Y-110010024D01*
X162846924Y-109931005D01*
X162846922Y-109931004D01*
X162717341Y-109824659D01*
X162610996Y-109695078D01*
X162602886Y-109679906D01*
X162531976Y-109547242D01*
X162483313Y-109386823D01*
X162466883Y-109220000D01*
X162483313Y-109053177D01*
X162531976Y-108892758D01*
X162610995Y-108744924D01*
X162610996Y-108744922D01*
X162717341Y-108615341D01*
X162846922Y-108508996D01*
X162862094Y-108500886D01*
X162994758Y-108429976D01*
X163155177Y-108381313D01*
X163280196Y-108369000D01*
X163363804Y-108369000D01*
X163488823Y-108381313D01*
X163488823Y-108381313D01*
G37*
G36*
X155868823Y-108381313D02*
G01*
X156029242Y-108429976D01*
X156161906Y-108500886D01*
X156177078Y-108508996D01*
X156306659Y-108615341D01*
X156413004Y-108744922D01*
X156413005Y-108744924D01*
X156492024Y-108892758D01*
X156540687Y-109053177D01*
X156557117Y-109220000D01*
X156540687Y-109386823D01*
X156492024Y-109547242D01*
X156421114Y-109679906D01*
X156413004Y-109695078D01*
X156306659Y-109824659D01*
X156177078Y-109931004D01*
X156177076Y-109931005D01*
X156029242Y-110010024D01*
X155868823Y-110058687D01*
X155743804Y-110071000D01*
X155660196Y-110071000D01*
X155535177Y-110058687D01*
X155374758Y-110010024D01*
X155226924Y-109931005D01*
X155226922Y-109931004D01*
X155097341Y-109824659D01*
X154990996Y-109695078D01*
X154982886Y-109679906D01*
X154911976Y-109547242D01*
X154863313Y-109386823D01*
X154846883Y-109220000D01*
X154863313Y-109053177D01*
X154911976Y-108892758D01*
X154990995Y-108744924D01*
X154990996Y-108744922D01*
X155097341Y-108615341D01*
X155226922Y-108508996D01*
X155242094Y-108500886D01*
X155374758Y-108429976D01*
X155535177Y-108381313D01*
X155660196Y-108369000D01*
X155743804Y-108369000D01*
X155868823Y-108381313D01*
X155868823Y-108381313D01*
G37*
G36*
X145708823Y-108381313D02*
G01*
X145869242Y-108429976D01*
X146001906Y-108500886D01*
X146017078Y-108508996D01*
X146146659Y-108615341D01*
X146253004Y-108744922D01*
X146253005Y-108744924D01*
X146332024Y-108892758D01*
X146380687Y-109053177D01*
X146397117Y-109220000D01*
X146380687Y-109386823D01*
X146332024Y-109547242D01*
X146261114Y-109679906D01*
X146253004Y-109695078D01*
X146146659Y-109824659D01*
X146017078Y-109931004D01*
X146017076Y-109931005D01*
X145869242Y-110010024D01*
X145708823Y-110058687D01*
X145583804Y-110071000D01*
X145500196Y-110071000D01*
X145375177Y-110058687D01*
X145214758Y-110010024D01*
X145066924Y-109931005D01*
X145066922Y-109931004D01*
X144937341Y-109824659D01*
X144830996Y-109695078D01*
X144822886Y-109679906D01*
X144751976Y-109547242D01*
X144703313Y-109386823D01*
X144686883Y-109220000D01*
X144703313Y-109053177D01*
X144751976Y-108892758D01*
X144830995Y-108744924D01*
X144830996Y-108744922D01*
X144937341Y-108615341D01*
X145066922Y-108508996D01*
X145082094Y-108500886D01*
X145214758Y-108429976D01*
X145375177Y-108381313D01*
X145500196Y-108369000D01*
X145583804Y-108369000D01*
X145708823Y-108381313D01*
X145708823Y-108381313D01*
G37*
G36*
X127928823Y-105841313D02*
G01*
X128089242Y-105889976D01*
X128196422Y-105947265D01*
X128237078Y-105968996D01*
X128366659Y-106075341D01*
X128473004Y-106204922D01*
X128473005Y-106204924D01*
X128552024Y-106352758D01*
X128600687Y-106513177D01*
X128617117Y-106680000D01*
X128600687Y-106846823D01*
X128552024Y-107007242D01*
X128481114Y-107139906D01*
X128473004Y-107155078D01*
X128366659Y-107284659D01*
X128237078Y-107391004D01*
X128237076Y-107391005D01*
X128089242Y-107470024D01*
X127928823Y-107518687D01*
X127803804Y-107531000D01*
X127720196Y-107531000D01*
X127595177Y-107518687D01*
X127434758Y-107470024D01*
X127286924Y-107391005D01*
X127286922Y-107391004D01*
X127157341Y-107284659D01*
X127050996Y-107155078D01*
X127042886Y-107139906D01*
X126971976Y-107007242D01*
X126923313Y-106846823D01*
X126906883Y-106680000D01*
X126923313Y-106513177D01*
X126971976Y-106352758D01*
X127050995Y-106204924D01*
X127050996Y-106204922D01*
X127157341Y-106075341D01*
X127286922Y-105968996D01*
X127327578Y-105947265D01*
X127434758Y-105889976D01*
X127595177Y-105841313D01*
X127720196Y-105829000D01*
X127803804Y-105829000D01*
X127928823Y-105841313D01*
X127928823Y-105841313D01*
G37*
G36*
X120308823Y-105841313D02*
G01*
X120469242Y-105889976D01*
X120576422Y-105947265D01*
X120617078Y-105968996D01*
X120746659Y-106075341D01*
X120853004Y-106204922D01*
X120853005Y-106204924D01*
X120932024Y-106352758D01*
X120980687Y-106513177D01*
X120997117Y-106680000D01*
X120980687Y-106846823D01*
X120932024Y-107007242D01*
X120861114Y-107139906D01*
X120853004Y-107155078D01*
X120746659Y-107284659D01*
X120617078Y-107391004D01*
X120617076Y-107391005D01*
X120469242Y-107470024D01*
X120308823Y-107518687D01*
X120183804Y-107531000D01*
X120100196Y-107531000D01*
X119975177Y-107518687D01*
X119814758Y-107470024D01*
X119666924Y-107391005D01*
X119666922Y-107391004D01*
X119537341Y-107284659D01*
X119430996Y-107155078D01*
X119422886Y-107139906D01*
X119351976Y-107007242D01*
X119303313Y-106846823D01*
X119286883Y-106680000D01*
X119303313Y-106513177D01*
X119351976Y-106352758D01*
X119430995Y-106204924D01*
X119430996Y-106204922D01*
X119537341Y-106075341D01*
X119666922Y-105968996D01*
X119707578Y-105947265D01*
X119814758Y-105889976D01*
X119975177Y-105841313D01*
X120100196Y-105829000D01*
X120183804Y-105829000D01*
X120308823Y-105841313D01*
X120308823Y-105841313D01*
G37*
G36*
X155868823Y-105841313D02*
G01*
X156029242Y-105889976D01*
X156136422Y-105947265D01*
X156177078Y-105968996D01*
X156306659Y-106075341D01*
X156413004Y-106204922D01*
X156413005Y-106204924D01*
X156492024Y-106352758D01*
X156540687Y-106513177D01*
X156557117Y-106680000D01*
X156540687Y-106846823D01*
X156492024Y-107007242D01*
X156421114Y-107139906D01*
X156413004Y-107155078D01*
X156306659Y-107284659D01*
X156177078Y-107391004D01*
X156177076Y-107391005D01*
X156029242Y-107470024D01*
X155868823Y-107518687D01*
X155743804Y-107531000D01*
X155660196Y-107531000D01*
X155535177Y-107518687D01*
X155374758Y-107470024D01*
X155226924Y-107391005D01*
X155226922Y-107391004D01*
X155097341Y-107284659D01*
X154990996Y-107155078D01*
X154982886Y-107139906D01*
X154911976Y-107007242D01*
X154863313Y-106846823D01*
X154846883Y-106680000D01*
X154863313Y-106513177D01*
X154911976Y-106352758D01*
X154990995Y-106204924D01*
X154990996Y-106204922D01*
X155097341Y-106075341D01*
X155226922Y-105968996D01*
X155267578Y-105947265D01*
X155374758Y-105889976D01*
X155535177Y-105841313D01*
X155660196Y-105829000D01*
X155743804Y-105829000D01*
X155868823Y-105841313D01*
X155868823Y-105841313D01*
G37*
G36*
X138088823Y-105841313D02*
G01*
X138249242Y-105889976D01*
X138356422Y-105947265D01*
X138397078Y-105968996D01*
X138526659Y-106075341D01*
X138633004Y-106204922D01*
X138633005Y-106204924D01*
X138712024Y-106352758D01*
X138760687Y-106513177D01*
X138777117Y-106680000D01*
X138760687Y-106846823D01*
X138712024Y-107007242D01*
X138641114Y-107139906D01*
X138633004Y-107155078D01*
X138526659Y-107284659D01*
X138397078Y-107391004D01*
X138397076Y-107391005D01*
X138249242Y-107470024D01*
X138088823Y-107518687D01*
X137963804Y-107531000D01*
X137880196Y-107531000D01*
X137755177Y-107518687D01*
X137594758Y-107470024D01*
X137446924Y-107391005D01*
X137446922Y-107391004D01*
X137317341Y-107284659D01*
X137210996Y-107155078D01*
X137202886Y-107139906D01*
X137131976Y-107007242D01*
X137083313Y-106846823D01*
X137066883Y-106680000D01*
X137083313Y-106513177D01*
X137131976Y-106352758D01*
X137210995Y-106204924D01*
X137210996Y-106204922D01*
X137317341Y-106075341D01*
X137446922Y-105968996D01*
X137487578Y-105947265D01*
X137594758Y-105889976D01*
X137755177Y-105841313D01*
X137880196Y-105829000D01*
X137963804Y-105829000D01*
X138088823Y-105841313D01*
X138088823Y-105841313D01*
G37*
G36*
X145708823Y-105841313D02*
G01*
X145869242Y-105889976D01*
X145976422Y-105947265D01*
X146017078Y-105968996D01*
X146146659Y-106075341D01*
X146253004Y-106204922D01*
X146253005Y-106204924D01*
X146332024Y-106352758D01*
X146380687Y-106513177D01*
X146397117Y-106680000D01*
X146380687Y-106846823D01*
X146332024Y-107007242D01*
X146261114Y-107139906D01*
X146253004Y-107155078D01*
X146146659Y-107284659D01*
X146017078Y-107391004D01*
X146017076Y-107391005D01*
X145869242Y-107470024D01*
X145708823Y-107518687D01*
X145583804Y-107531000D01*
X145500196Y-107531000D01*
X145375177Y-107518687D01*
X145214758Y-107470024D01*
X145066924Y-107391005D01*
X145066922Y-107391004D01*
X144937341Y-107284659D01*
X144830996Y-107155078D01*
X144822886Y-107139906D01*
X144751976Y-107007242D01*
X144703313Y-106846823D01*
X144686883Y-106680000D01*
X144703313Y-106513177D01*
X144751976Y-106352758D01*
X144830995Y-106204924D01*
X144830996Y-106204922D01*
X144937341Y-106075341D01*
X145066922Y-105968996D01*
X145107578Y-105947265D01*
X145214758Y-105889976D01*
X145375177Y-105841313D01*
X145500196Y-105829000D01*
X145583804Y-105829000D01*
X145708823Y-105841313D01*
X145708823Y-105841313D01*
G37*
G36*
X163488823Y-105841313D02*
G01*
X163649242Y-105889976D01*
X163756422Y-105947265D01*
X163797078Y-105968996D01*
X163926659Y-106075341D01*
X164033004Y-106204922D01*
X164033005Y-106204924D01*
X164112024Y-106352758D01*
X164160687Y-106513177D01*
X164177117Y-106680000D01*
X164160687Y-106846823D01*
X164112024Y-107007242D01*
X164041114Y-107139906D01*
X164033004Y-107155078D01*
X163926659Y-107284659D01*
X163797078Y-107391004D01*
X163797076Y-107391005D01*
X163649242Y-107470024D01*
X163488823Y-107518687D01*
X163363804Y-107531000D01*
X163280196Y-107531000D01*
X163155177Y-107518687D01*
X162994758Y-107470024D01*
X162846924Y-107391005D01*
X162846922Y-107391004D01*
X162717341Y-107284659D01*
X162610996Y-107155078D01*
X162602886Y-107139906D01*
X162531976Y-107007242D01*
X162483313Y-106846823D01*
X162466883Y-106680000D01*
X162483313Y-106513177D01*
X162531976Y-106352758D01*
X162610995Y-106204924D01*
X162610996Y-106204922D01*
X162717341Y-106075341D01*
X162846922Y-105968996D01*
X162887578Y-105947265D01*
X162994758Y-105889976D01*
X163155177Y-105841313D01*
X163280196Y-105829000D01*
X163363804Y-105829000D01*
X163488823Y-105841313D01*
X163488823Y-105841313D01*
G37*
G36*
X173701059Y-105703860D02*
G01*
X173837732Y-105760472D01*
X173960735Y-105842660D01*
X174065340Y-105947265D01*
X174079860Y-105968996D01*
X174147529Y-106070270D01*
X174204140Y-106206941D01*
X174233000Y-106352032D01*
X174233000Y-106499968D01*
X174204140Y-106645059D01*
X174147528Y-106781732D01*
X174065340Y-106904735D01*
X173960735Y-107009340D01*
X173837732Y-107091528D01*
X173837731Y-107091529D01*
X173837730Y-107091529D01*
X173701059Y-107148140D01*
X173555968Y-107177000D01*
X173408032Y-107177000D01*
X173262941Y-107148140D01*
X173126270Y-107091529D01*
X173126269Y-107091529D01*
X173126268Y-107091528D01*
X173003265Y-107009340D01*
X172898660Y-106904735D01*
X172816472Y-106781732D01*
X172759860Y-106645059D01*
X172731000Y-106499968D01*
X172731000Y-106352032D01*
X172759860Y-106206941D01*
X172816471Y-106070270D01*
X172884140Y-105968996D01*
X172898660Y-105947265D01*
X173003265Y-105842660D01*
X173126268Y-105760472D01*
X173262941Y-105703860D01*
X173408032Y-105675000D01*
X173555968Y-105675000D01*
X173701059Y-105703860D01*
X173701059Y-105703860D01*
G37*
G36*
X120308823Y-103301313D02*
G01*
X120469242Y-103349976D01*
X120601906Y-103420886D01*
X120617078Y-103428996D01*
X120746659Y-103535341D01*
X120853004Y-103664922D01*
X120853005Y-103664924D01*
X120932024Y-103812758D01*
X120980687Y-103973177D01*
X120997117Y-104140000D01*
X120980687Y-104306823D01*
X120932024Y-104467242D01*
X120918670Y-104492225D01*
X120853004Y-104615078D01*
X120746659Y-104744659D01*
X120617078Y-104851004D01*
X120617076Y-104851005D01*
X120469242Y-104930024D01*
X120308823Y-104978687D01*
X120183804Y-104991000D01*
X120100196Y-104991000D01*
X119975177Y-104978687D01*
X119814758Y-104930024D01*
X119666924Y-104851005D01*
X119666922Y-104851004D01*
X119537341Y-104744659D01*
X119430996Y-104615078D01*
X119365330Y-104492225D01*
X119351976Y-104467242D01*
X119303313Y-104306823D01*
X119286883Y-104140000D01*
X119303313Y-103973177D01*
X119351976Y-103812758D01*
X119430995Y-103664924D01*
X119430996Y-103664922D01*
X119537341Y-103535341D01*
X119666922Y-103428996D01*
X119682094Y-103420886D01*
X119814758Y-103349976D01*
X119975177Y-103301313D01*
X120100196Y-103289000D01*
X120183804Y-103289000D01*
X120308823Y-103301313D01*
X120308823Y-103301313D01*
G37*
G36*
X127928823Y-103301313D02*
G01*
X128089242Y-103349976D01*
X128221906Y-103420886D01*
X128237078Y-103428996D01*
X128366659Y-103535341D01*
X128473004Y-103664922D01*
X128473005Y-103664924D01*
X128552024Y-103812758D01*
X128600687Y-103973177D01*
X128617117Y-104140000D01*
X128600687Y-104306823D01*
X128552024Y-104467242D01*
X128538670Y-104492225D01*
X128473004Y-104615078D01*
X128366659Y-104744659D01*
X128237078Y-104851004D01*
X128237076Y-104851005D01*
X128089242Y-104930024D01*
X127928823Y-104978687D01*
X127803804Y-104991000D01*
X127720196Y-104991000D01*
X127595177Y-104978687D01*
X127434758Y-104930024D01*
X127286924Y-104851005D01*
X127286922Y-104851004D01*
X127157341Y-104744659D01*
X127050996Y-104615078D01*
X126985330Y-104492225D01*
X126971976Y-104467242D01*
X126923313Y-104306823D01*
X126906883Y-104140000D01*
X126923313Y-103973177D01*
X126971976Y-103812758D01*
X127050995Y-103664924D01*
X127050996Y-103664922D01*
X127157341Y-103535341D01*
X127286922Y-103428996D01*
X127302094Y-103420886D01*
X127434758Y-103349976D01*
X127595177Y-103301313D01*
X127720196Y-103289000D01*
X127803804Y-103289000D01*
X127928823Y-103301313D01*
X127928823Y-103301313D01*
G37*
G36*
X138088823Y-103301313D02*
G01*
X138249242Y-103349976D01*
X138381906Y-103420886D01*
X138397078Y-103428996D01*
X138526659Y-103535341D01*
X138633004Y-103664922D01*
X138633005Y-103664924D01*
X138712024Y-103812758D01*
X138760687Y-103973177D01*
X138777117Y-104140000D01*
X138760687Y-104306823D01*
X138712024Y-104467242D01*
X138698670Y-104492225D01*
X138633004Y-104615078D01*
X138526659Y-104744659D01*
X138397078Y-104851004D01*
X138397076Y-104851005D01*
X138249242Y-104930024D01*
X138088823Y-104978687D01*
X137963804Y-104991000D01*
X137880196Y-104991000D01*
X137755177Y-104978687D01*
X137594758Y-104930024D01*
X137446924Y-104851005D01*
X137446922Y-104851004D01*
X137317341Y-104744659D01*
X137210996Y-104615078D01*
X137145330Y-104492225D01*
X137131976Y-104467242D01*
X137083313Y-104306823D01*
X137066883Y-104140000D01*
X137083313Y-103973177D01*
X137131976Y-103812758D01*
X137210995Y-103664924D01*
X137210996Y-103664922D01*
X137317341Y-103535341D01*
X137446922Y-103428996D01*
X137462094Y-103420886D01*
X137594758Y-103349976D01*
X137755177Y-103301313D01*
X137880196Y-103289000D01*
X137963804Y-103289000D01*
X138088823Y-103301313D01*
X138088823Y-103301313D01*
G37*
G36*
X145708823Y-103301313D02*
G01*
X145869242Y-103349976D01*
X146001906Y-103420886D01*
X146017078Y-103428996D01*
X146146659Y-103535341D01*
X146253004Y-103664922D01*
X146253005Y-103664924D01*
X146332024Y-103812758D01*
X146380687Y-103973177D01*
X146397117Y-104140000D01*
X146380687Y-104306823D01*
X146332024Y-104467242D01*
X146318670Y-104492225D01*
X146253004Y-104615078D01*
X146146659Y-104744659D01*
X146017078Y-104851004D01*
X146017076Y-104851005D01*
X145869242Y-104930024D01*
X145708823Y-104978687D01*
X145583804Y-104991000D01*
X145500196Y-104991000D01*
X145375177Y-104978687D01*
X145214758Y-104930024D01*
X145066924Y-104851005D01*
X145066922Y-104851004D01*
X144937341Y-104744659D01*
X144830996Y-104615078D01*
X144765330Y-104492225D01*
X144751976Y-104467242D01*
X144703313Y-104306823D01*
X144686883Y-104140000D01*
X144703313Y-103973177D01*
X144751976Y-103812758D01*
X144830995Y-103664924D01*
X144830996Y-103664922D01*
X144937341Y-103535341D01*
X145066922Y-103428996D01*
X145082094Y-103420886D01*
X145214758Y-103349976D01*
X145375177Y-103301313D01*
X145500196Y-103289000D01*
X145583804Y-103289000D01*
X145708823Y-103301313D01*
X145708823Y-103301313D01*
G37*
G36*
X155868823Y-103301313D02*
G01*
X156029242Y-103349976D01*
X156161906Y-103420886D01*
X156177078Y-103428996D01*
X156306659Y-103535341D01*
X156413004Y-103664922D01*
X156413005Y-103664924D01*
X156492024Y-103812758D01*
X156540687Y-103973177D01*
X156557117Y-104140000D01*
X156540687Y-104306823D01*
X156492024Y-104467242D01*
X156478670Y-104492225D01*
X156413004Y-104615078D01*
X156306659Y-104744659D01*
X156177078Y-104851004D01*
X156177076Y-104851005D01*
X156029242Y-104930024D01*
X155868823Y-104978687D01*
X155743804Y-104991000D01*
X155660196Y-104991000D01*
X155535177Y-104978687D01*
X155374758Y-104930024D01*
X155226924Y-104851005D01*
X155226922Y-104851004D01*
X155097341Y-104744659D01*
X154990996Y-104615078D01*
X154925330Y-104492225D01*
X154911976Y-104467242D01*
X154863313Y-104306823D01*
X154846883Y-104140000D01*
X154863313Y-103973177D01*
X154911976Y-103812758D01*
X154990995Y-103664924D01*
X154990996Y-103664922D01*
X155097341Y-103535341D01*
X155226922Y-103428996D01*
X155242094Y-103420886D01*
X155374758Y-103349976D01*
X155535177Y-103301313D01*
X155660196Y-103289000D01*
X155743804Y-103289000D01*
X155868823Y-103301313D01*
X155868823Y-103301313D01*
G37*
G36*
X163488823Y-103301313D02*
G01*
X163649242Y-103349976D01*
X163781906Y-103420886D01*
X163797078Y-103428996D01*
X163926659Y-103535341D01*
X164033004Y-103664922D01*
X164033005Y-103664924D01*
X164112024Y-103812758D01*
X164160687Y-103973177D01*
X164177117Y-104140000D01*
X164160687Y-104306823D01*
X164112024Y-104467242D01*
X164098670Y-104492225D01*
X164033004Y-104615078D01*
X163926659Y-104744659D01*
X163797078Y-104851004D01*
X163797076Y-104851005D01*
X163649242Y-104930024D01*
X163488823Y-104978687D01*
X163363804Y-104991000D01*
X163280196Y-104991000D01*
X163155177Y-104978687D01*
X162994758Y-104930024D01*
X162846924Y-104851005D01*
X162846922Y-104851004D01*
X162717341Y-104744659D01*
X162610996Y-104615078D01*
X162545330Y-104492225D01*
X162531976Y-104467242D01*
X162483313Y-104306823D01*
X162466883Y-104140000D01*
X162483313Y-103973177D01*
X162531976Y-103812758D01*
X162610995Y-103664924D01*
X162610996Y-103664922D01*
X162717341Y-103535341D01*
X162846922Y-103428996D01*
X162862094Y-103420886D01*
X162994758Y-103349976D01*
X163155177Y-103301313D01*
X163280196Y-103289000D01*
X163363804Y-103289000D01*
X163488823Y-103301313D01*
X163488823Y-103301313D01*
G37*
G36*
X178243000Y-104837000D02*
G01*
X176341000Y-104837000D01*
X176341000Y-102935000D01*
X178243000Y-102935000D01*
X178243000Y-104837000D01*
X178243000Y-104837000D01*
G37*
G36*
X180109395Y-102971546D02*
G01*
X180282466Y-103043234D01*
X180282467Y-103043235D01*
X180438227Y-103147310D01*
X180570690Y-103279773D01*
X180570691Y-103279775D01*
X180674766Y-103435534D01*
X180746454Y-103608605D01*
X180783000Y-103792333D01*
X180783000Y-103979667D01*
X180746454Y-104163395D01*
X180674766Y-104336466D01*
X180674765Y-104336467D01*
X180570690Y-104492227D01*
X180438227Y-104624690D01*
X180359818Y-104677081D01*
X180282466Y-104728766D01*
X180109395Y-104800454D01*
X179925667Y-104837000D01*
X179738333Y-104837000D01*
X179554605Y-104800454D01*
X179381534Y-104728766D01*
X179304182Y-104677081D01*
X179225773Y-104624690D01*
X179093310Y-104492227D01*
X178989235Y-104336467D01*
X178989234Y-104336466D01*
X178917546Y-104163395D01*
X178881000Y-103979667D01*
X178881000Y-103792333D01*
X178917546Y-103608605D01*
X178989234Y-103435534D01*
X179093309Y-103279775D01*
X179093310Y-103279773D01*
X179225773Y-103147310D01*
X179381533Y-103043235D01*
X179381534Y-103043234D01*
X179554605Y-102971546D01*
X179738333Y-102935000D01*
X179925667Y-102935000D01*
X180109395Y-102971546D01*
X180109395Y-102971546D01*
G37*
G36*
X120993000Y-102451000D02*
G01*
X119291000Y-102451000D01*
X119291000Y-100749000D01*
X120993000Y-100749000D01*
X120993000Y-102451000D01*
X120993000Y-102451000D01*
G37*
G36*
X156553000Y-102451000D02*
G01*
X154851000Y-102451000D01*
X154851000Y-100749000D01*
X156553000Y-100749000D01*
X156553000Y-102451000D01*
X156553000Y-102451000D01*
G37*
G36*
X163488823Y-100761313D02*
G01*
X163649242Y-100809976D01*
X163781906Y-100880886D01*
X163797078Y-100888996D01*
X163926659Y-100995341D01*
X164033004Y-101124922D01*
X164033005Y-101124924D01*
X164112024Y-101272758D01*
X164160687Y-101433177D01*
X164177117Y-101600000D01*
X164160687Y-101766823D01*
X164112024Y-101927242D01*
X164050049Y-102043189D01*
X164033004Y-102075078D01*
X163926659Y-102204659D01*
X163797078Y-102311004D01*
X163797076Y-102311005D01*
X163649242Y-102390024D01*
X163488823Y-102438687D01*
X163363804Y-102451000D01*
X163280196Y-102451000D01*
X163155177Y-102438687D01*
X162994758Y-102390024D01*
X162846924Y-102311005D01*
X162846922Y-102311004D01*
X162717341Y-102204659D01*
X162610996Y-102075078D01*
X162593951Y-102043189D01*
X162531976Y-101927242D01*
X162483313Y-101766823D01*
X162466883Y-101600000D01*
X162483313Y-101433177D01*
X162531976Y-101272758D01*
X162610995Y-101124924D01*
X162610996Y-101124922D01*
X162717341Y-100995341D01*
X162846922Y-100888996D01*
X162862094Y-100880886D01*
X162994758Y-100809976D01*
X163155177Y-100761313D01*
X163280196Y-100749000D01*
X163363804Y-100749000D01*
X163488823Y-100761313D01*
X163488823Y-100761313D01*
G37*
G36*
X145708823Y-100761313D02*
G01*
X145869242Y-100809976D01*
X146001906Y-100880886D01*
X146017078Y-100888996D01*
X146146659Y-100995341D01*
X146253004Y-101124922D01*
X146253005Y-101124924D01*
X146332024Y-101272758D01*
X146380687Y-101433177D01*
X146397117Y-101600000D01*
X146380687Y-101766823D01*
X146332024Y-101927242D01*
X146270049Y-102043189D01*
X146253004Y-102075078D01*
X146146659Y-102204659D01*
X146017078Y-102311004D01*
X146017076Y-102311005D01*
X145869242Y-102390024D01*
X145708823Y-102438687D01*
X145583804Y-102451000D01*
X145500196Y-102451000D01*
X145375177Y-102438687D01*
X145214758Y-102390024D01*
X145066924Y-102311005D01*
X145066922Y-102311004D01*
X144937341Y-102204659D01*
X144830996Y-102075078D01*
X144813951Y-102043189D01*
X144751976Y-101927242D01*
X144703313Y-101766823D01*
X144686883Y-101600000D01*
X144703313Y-101433177D01*
X144751976Y-101272758D01*
X144830995Y-101124924D01*
X144830996Y-101124922D01*
X144937341Y-100995341D01*
X145066922Y-100888996D01*
X145082094Y-100880886D01*
X145214758Y-100809976D01*
X145375177Y-100761313D01*
X145500196Y-100749000D01*
X145583804Y-100749000D01*
X145708823Y-100761313D01*
X145708823Y-100761313D01*
G37*
G36*
X138773000Y-102451000D02*
G01*
X137071000Y-102451000D01*
X137071000Y-100749000D01*
X138773000Y-100749000D01*
X138773000Y-102451000D01*
X138773000Y-102451000D01*
G37*
G36*
X127928823Y-100761313D02*
G01*
X128089242Y-100809976D01*
X128221906Y-100880886D01*
X128237078Y-100888996D01*
X128366659Y-100995341D01*
X128473004Y-101124922D01*
X128473005Y-101124924D01*
X128552024Y-101272758D01*
X128600687Y-101433177D01*
X128617117Y-101600000D01*
X128600687Y-101766823D01*
X128552024Y-101927242D01*
X128490049Y-102043189D01*
X128473004Y-102075078D01*
X128366659Y-102204659D01*
X128237078Y-102311004D01*
X128237076Y-102311005D01*
X128089242Y-102390024D01*
X127928823Y-102438687D01*
X127803804Y-102451000D01*
X127720196Y-102451000D01*
X127595177Y-102438687D01*
X127434758Y-102390024D01*
X127286924Y-102311005D01*
X127286922Y-102311004D01*
X127157341Y-102204659D01*
X127050996Y-102075078D01*
X127033951Y-102043189D01*
X126971976Y-101927242D01*
X126923313Y-101766823D01*
X126906883Y-101600000D01*
X126923313Y-101433177D01*
X126971976Y-101272758D01*
X127050995Y-101124924D01*
X127050996Y-101124922D01*
X127157341Y-100995341D01*
X127286922Y-100888996D01*
X127302094Y-100880886D01*
X127434758Y-100809976D01*
X127595177Y-100761313D01*
X127720196Y-100749000D01*
X127803804Y-100749000D01*
X127928823Y-100761313D01*
X127928823Y-100761313D01*
G37*
G36*
X173555665Y-100598622D02*
G01*
X173629222Y-100605867D01*
X173770786Y-100648810D01*
X173901252Y-100718546D01*
X173931040Y-100742992D01*
X174015607Y-100812393D01*
X174078471Y-100888995D01*
X174109454Y-100926748D01*
X174179190Y-101057214D01*
X174222133Y-101198778D01*
X174236633Y-101346000D01*
X174222133Y-101493222D01*
X174179190Y-101634786D01*
X174109454Y-101765252D01*
X174085008Y-101795040D01*
X174015607Y-101879607D01*
X173931040Y-101949008D01*
X173901252Y-101973454D01*
X173770786Y-102043190D01*
X173629222Y-102086133D01*
X173555665Y-102093378D01*
X173518888Y-102097000D01*
X173445112Y-102097000D01*
X173408335Y-102093378D01*
X173334778Y-102086133D01*
X173193214Y-102043190D01*
X173062748Y-101973454D01*
X173032960Y-101949008D01*
X172948393Y-101879607D01*
X172878992Y-101795040D01*
X172854546Y-101765252D01*
X172784810Y-101634786D01*
X172741867Y-101493222D01*
X172727367Y-101346000D01*
X172741867Y-101198778D01*
X172784810Y-101057214D01*
X172854546Y-100926748D01*
X172885529Y-100888995D01*
X172948393Y-100812393D01*
X173032960Y-100742992D01*
X173062748Y-100718546D01*
X173193214Y-100648810D01*
X173334778Y-100605867D01*
X173408335Y-100598622D01*
X173445112Y-100595000D01*
X173518888Y-100595000D01*
X173555665Y-100598622D01*
X173555665Y-100598622D01*
G37*
G36*
X143168823Y-94411313D02*
G01*
X143329242Y-94459976D01*
X143422581Y-94509867D01*
X143477078Y-94538996D01*
X143606659Y-94645341D01*
X143713004Y-94774922D01*
X143713005Y-94774924D01*
X143792024Y-94922758D01*
X143840687Y-95083177D01*
X143857117Y-95250000D01*
X143840687Y-95416823D01*
X143792024Y-95577242D01*
X143721114Y-95709906D01*
X143713004Y-95725078D01*
X143606659Y-95854659D01*
X143477078Y-95961004D01*
X143477076Y-95961005D01*
X143329242Y-96040024D01*
X143168823Y-96088687D01*
X143043804Y-96101000D01*
X142960196Y-96101000D01*
X142835177Y-96088687D01*
X142674758Y-96040024D01*
X142526924Y-95961005D01*
X142526922Y-95961004D01*
X142397341Y-95854659D01*
X142290996Y-95725078D01*
X142282886Y-95709906D01*
X142211976Y-95577242D01*
X142163313Y-95416823D01*
X142146883Y-95250000D01*
X142163313Y-95083177D01*
X142211976Y-94922758D01*
X142290995Y-94774924D01*
X142290996Y-94774922D01*
X142397341Y-94645341D01*
X142526922Y-94538996D01*
X142581419Y-94509867D01*
X142674758Y-94459976D01*
X142835177Y-94411313D01*
X142960196Y-94399000D01*
X143043804Y-94399000D01*
X143168823Y-94411313D01*
X143168823Y-94411313D01*
G37*
G36*
X138088823Y-94411313D02*
G01*
X138249242Y-94459976D01*
X138342581Y-94509867D01*
X138397078Y-94538996D01*
X138526659Y-94645341D01*
X138633004Y-94774922D01*
X138633005Y-94774924D01*
X138712024Y-94922758D01*
X138760687Y-95083177D01*
X138777117Y-95250000D01*
X138760687Y-95416823D01*
X138712024Y-95577242D01*
X138641114Y-95709906D01*
X138633004Y-95725078D01*
X138526659Y-95854659D01*
X138397078Y-95961004D01*
X138397076Y-95961005D01*
X138249242Y-96040024D01*
X138088823Y-96088687D01*
X137963804Y-96101000D01*
X137880196Y-96101000D01*
X137755177Y-96088687D01*
X137594758Y-96040024D01*
X137446924Y-95961005D01*
X137446922Y-95961004D01*
X137317341Y-95854659D01*
X137210996Y-95725078D01*
X137202886Y-95709906D01*
X137131976Y-95577242D01*
X137083313Y-95416823D01*
X137066883Y-95250000D01*
X137083313Y-95083177D01*
X137131976Y-94922758D01*
X137210995Y-94774924D01*
X137210996Y-94774922D01*
X137317341Y-94645341D01*
X137446922Y-94538996D01*
X137501419Y-94509867D01*
X137594758Y-94459976D01*
X137755177Y-94411313D01*
X137880196Y-94399000D01*
X137963804Y-94399000D01*
X138088823Y-94411313D01*
X138088823Y-94411313D01*
G37*
G36*
X150788823Y-94411313D02*
G01*
X150949242Y-94459976D01*
X151042581Y-94509867D01*
X151097078Y-94538996D01*
X151226659Y-94645341D01*
X151333004Y-94774922D01*
X151333005Y-94774924D01*
X151412024Y-94922758D01*
X151460687Y-95083177D01*
X151477117Y-95250000D01*
X151460687Y-95416823D01*
X151412024Y-95577242D01*
X151341114Y-95709906D01*
X151333004Y-95725078D01*
X151226659Y-95854659D01*
X151097078Y-95961004D01*
X151097076Y-95961005D01*
X150949242Y-96040024D01*
X150788823Y-96088687D01*
X150663804Y-96101000D01*
X150580196Y-96101000D01*
X150455177Y-96088687D01*
X150294758Y-96040024D01*
X150146924Y-95961005D01*
X150146922Y-95961004D01*
X150017341Y-95854659D01*
X149910996Y-95725078D01*
X149902886Y-95709906D01*
X149831976Y-95577242D01*
X149783313Y-95416823D01*
X149766883Y-95250000D01*
X149783313Y-95083177D01*
X149831976Y-94922758D01*
X149910995Y-94774924D01*
X149910996Y-94774922D01*
X150017341Y-94645341D01*
X150146922Y-94538996D01*
X150201419Y-94509867D01*
X150294758Y-94459976D01*
X150455177Y-94411313D01*
X150580196Y-94399000D01*
X150663804Y-94399000D01*
X150788823Y-94411313D01*
X150788823Y-94411313D01*
G37*
G36*
X116498823Y-94411313D02*
G01*
X116659242Y-94459976D01*
X116752581Y-94509867D01*
X116807078Y-94538996D01*
X116936659Y-94645341D01*
X117043004Y-94774922D01*
X117043005Y-94774924D01*
X117122024Y-94922758D01*
X117170687Y-95083177D01*
X117187117Y-95250000D01*
X117170687Y-95416823D01*
X117122024Y-95577242D01*
X117051114Y-95709906D01*
X117043004Y-95725078D01*
X116936659Y-95854659D01*
X116807078Y-95961004D01*
X116807076Y-95961005D01*
X116659242Y-96040024D01*
X116498823Y-96088687D01*
X116373804Y-96101000D01*
X116290196Y-96101000D01*
X116165177Y-96088687D01*
X116004758Y-96040024D01*
X115856924Y-95961005D01*
X115856922Y-95961004D01*
X115727341Y-95854659D01*
X115620996Y-95725078D01*
X115612886Y-95709906D01*
X115541976Y-95577242D01*
X115493313Y-95416823D01*
X115476883Y-95250000D01*
X115493313Y-95083177D01*
X115541976Y-94922758D01*
X115620995Y-94774924D01*
X115620996Y-94774922D01*
X115727341Y-94645341D01*
X115856922Y-94538996D01*
X115911419Y-94509867D01*
X116004758Y-94459976D01*
X116165177Y-94411313D01*
X116290196Y-94399000D01*
X116373804Y-94399000D01*
X116498823Y-94411313D01*
X116498823Y-94411313D01*
G37*
G36*
X167340228Y-94431703D02*
G01*
X167495100Y-94495853D01*
X167634481Y-94588985D01*
X167753015Y-94707519D01*
X167846147Y-94846900D01*
X167910297Y-95001772D01*
X167943000Y-95166184D01*
X167943000Y-95333816D01*
X167910297Y-95498228D01*
X167846147Y-95653100D01*
X167753015Y-95792481D01*
X167634481Y-95911015D01*
X167495100Y-96004147D01*
X167340228Y-96068297D01*
X167175816Y-96101000D01*
X167008184Y-96101000D01*
X166843772Y-96068297D01*
X166688900Y-96004147D01*
X166549519Y-95911015D01*
X166430985Y-95792481D01*
X166337853Y-95653100D01*
X166273703Y-95498228D01*
X166241000Y-95333816D01*
X166241000Y-95166184D01*
X166273703Y-95001772D01*
X166337853Y-94846900D01*
X166430985Y-94707519D01*
X166549519Y-94588985D01*
X166688900Y-94495853D01*
X166843772Y-94431703D01*
X167008184Y-94399000D01*
X167175816Y-94399000D01*
X167340228Y-94431703D01*
X167340228Y-94431703D01*
G37*
G36*
X164840228Y-94431703D02*
G01*
X164995100Y-94495853D01*
X165134481Y-94588985D01*
X165253015Y-94707519D01*
X165346147Y-94846900D01*
X165410297Y-95001772D01*
X165443000Y-95166184D01*
X165443000Y-95333816D01*
X165410297Y-95498228D01*
X165346147Y-95653100D01*
X165253015Y-95792481D01*
X165134481Y-95911015D01*
X164995100Y-96004147D01*
X164840228Y-96068297D01*
X164675816Y-96101000D01*
X164508184Y-96101000D01*
X164343772Y-96068297D01*
X164188900Y-96004147D01*
X164049519Y-95911015D01*
X163930985Y-95792481D01*
X163837853Y-95653100D01*
X163773703Y-95498228D01*
X163741000Y-95333816D01*
X163741000Y-95166184D01*
X163773703Y-95001772D01*
X163837853Y-94846900D01*
X163930985Y-94707519D01*
X164049519Y-94588985D01*
X164188900Y-94495853D01*
X164343772Y-94431703D01*
X164508184Y-94399000D01*
X164675816Y-94399000D01*
X164840228Y-94431703D01*
X164840228Y-94431703D01*
G37*
G36*
X124118823Y-94411313D02*
G01*
X124279242Y-94459976D01*
X124372581Y-94509867D01*
X124427078Y-94538996D01*
X124556659Y-94645341D01*
X124663004Y-94774922D01*
X124663005Y-94774924D01*
X124742024Y-94922758D01*
X124790687Y-95083177D01*
X124807117Y-95250000D01*
X124790687Y-95416823D01*
X124742024Y-95577242D01*
X124671114Y-95709906D01*
X124663004Y-95725078D01*
X124556659Y-95854659D01*
X124427078Y-95961004D01*
X124427076Y-95961005D01*
X124279242Y-96040024D01*
X124118823Y-96088687D01*
X123993804Y-96101000D01*
X123910196Y-96101000D01*
X123785177Y-96088687D01*
X123624758Y-96040024D01*
X123476924Y-95961005D01*
X123476922Y-95961004D01*
X123347341Y-95854659D01*
X123240996Y-95725078D01*
X123232886Y-95709906D01*
X123161976Y-95577242D01*
X123113313Y-95416823D01*
X123096883Y-95250000D01*
X123113313Y-95083177D01*
X123161976Y-94922758D01*
X123240995Y-94774924D01*
X123240996Y-94774922D01*
X123347341Y-94645341D01*
X123476922Y-94538996D01*
X123531419Y-94509867D01*
X123624758Y-94459976D01*
X123785177Y-94411313D01*
X123910196Y-94399000D01*
X123993804Y-94399000D01*
X124118823Y-94411313D01*
X124118823Y-94411313D01*
G37*
G36*
X130468823Y-94411313D02*
G01*
X130629242Y-94459976D01*
X130722581Y-94509867D01*
X130777078Y-94538996D01*
X130906659Y-94645341D01*
X131013004Y-94774922D01*
X131013005Y-94774924D01*
X131092024Y-94922758D01*
X131140687Y-95083177D01*
X131157117Y-95250000D01*
X131140687Y-95416823D01*
X131092024Y-95577242D01*
X131021114Y-95709906D01*
X131013004Y-95725078D01*
X130906659Y-95854659D01*
X130777078Y-95961004D01*
X130777076Y-95961005D01*
X130629242Y-96040024D01*
X130468823Y-96088687D01*
X130343804Y-96101000D01*
X130260196Y-96101000D01*
X130135177Y-96088687D01*
X129974758Y-96040024D01*
X129826924Y-95961005D01*
X129826922Y-95961004D01*
X129697341Y-95854659D01*
X129590996Y-95725078D01*
X129582886Y-95709906D01*
X129511976Y-95577242D01*
X129463313Y-95416823D01*
X129446883Y-95250000D01*
X129463313Y-95083177D01*
X129511976Y-94922758D01*
X129590995Y-94774924D01*
X129590996Y-94774922D01*
X129697341Y-94645341D01*
X129826922Y-94538996D01*
X129881419Y-94509867D01*
X129974758Y-94459976D01*
X130135177Y-94411313D01*
X130260196Y-94399000D01*
X130343804Y-94399000D01*
X130468823Y-94411313D01*
X130468823Y-94411313D01*
G37*
G36*
X155921059Y-94527860D02*
G01*
X155981294Y-94552810D01*
X156057732Y-94584472D01*
X156180735Y-94666660D01*
X156285340Y-94771265D01*
X156367528Y-94894268D01*
X156424140Y-95030941D01*
X156453000Y-95176033D01*
X156453000Y-95323967D01*
X156424140Y-95469059D01*
X156367528Y-95605732D01*
X156285340Y-95728735D01*
X156180735Y-95833340D01*
X156057732Y-95915528D01*
X156057731Y-95915529D01*
X156057730Y-95915529D01*
X155921059Y-95972140D01*
X155775968Y-96001000D01*
X155628032Y-96001000D01*
X155482941Y-95972140D01*
X155346270Y-95915529D01*
X155346269Y-95915529D01*
X155346268Y-95915528D01*
X155223265Y-95833340D01*
X155118660Y-95728735D01*
X155036472Y-95605732D01*
X154979860Y-95469059D01*
X154951000Y-95323967D01*
X154951000Y-95176033D01*
X154979860Y-95030941D01*
X155036472Y-94894268D01*
X155118660Y-94771265D01*
X155223265Y-94666660D01*
X155346268Y-94584472D01*
X155422707Y-94552810D01*
X155482941Y-94527860D01*
X155628032Y-94499000D01*
X155775968Y-94499000D01*
X155921059Y-94527860D01*
X155921059Y-94527860D01*
G37*
G36*
X160855665Y-94502622D02*
G01*
X160929222Y-94509867D01*
X161070786Y-94552810D01*
X161201252Y-94622546D01*
X161229028Y-94645341D01*
X161315607Y-94716393D01*
X161385008Y-94800960D01*
X161409454Y-94830748D01*
X161479190Y-94961214D01*
X161522133Y-95102778D01*
X161536633Y-95250000D01*
X161522133Y-95397222D01*
X161479190Y-95538786D01*
X161409454Y-95669252D01*
X161385008Y-95699040D01*
X161315607Y-95783607D01*
X161255004Y-95833341D01*
X161201252Y-95877454D01*
X161070786Y-95947190D01*
X160929222Y-95990133D01*
X160855665Y-95997378D01*
X160818888Y-96001000D01*
X160745112Y-96001000D01*
X160708335Y-95997378D01*
X160634778Y-95990133D01*
X160493214Y-95947190D01*
X160362748Y-95877454D01*
X160308996Y-95833341D01*
X160248393Y-95783607D01*
X160178992Y-95699040D01*
X160154546Y-95669252D01*
X160084810Y-95538786D01*
X160041867Y-95397222D01*
X160027367Y-95250000D01*
X160041867Y-95102778D01*
X160084810Y-94961214D01*
X160154546Y-94830748D01*
X160178992Y-94800960D01*
X160248393Y-94716393D01*
X160334972Y-94645341D01*
X160362748Y-94622546D01*
X160493214Y-94552810D01*
X160634778Y-94509867D01*
X160708335Y-94502622D01*
X160745112Y-94499000D01*
X160818888Y-94499000D01*
X160855665Y-94502622D01*
X160855665Y-94502622D01*
G37*
G36*
X173701059Y-93003860D02*
G01*
X173837732Y-93060472D01*
X173960735Y-93142660D01*
X174065340Y-93247265D01*
X174147528Y-93370268D01*
X174204140Y-93506941D01*
X174233000Y-93652033D01*
X174233000Y-93799967D01*
X174204140Y-93945059D01*
X174147528Y-94081732D01*
X174065340Y-94204735D01*
X173960735Y-94309340D01*
X173837732Y-94391528D01*
X173837731Y-94391529D01*
X173837730Y-94391529D01*
X173701059Y-94448140D01*
X173555968Y-94477000D01*
X173408032Y-94477000D01*
X173262941Y-94448140D01*
X173126270Y-94391529D01*
X173126269Y-94391529D01*
X173126268Y-94391528D01*
X173003265Y-94309340D01*
X172898660Y-94204735D01*
X172816472Y-94081732D01*
X172759860Y-93945059D01*
X172731000Y-93799967D01*
X172731000Y-93652033D01*
X172759860Y-93506941D01*
X172816472Y-93370268D01*
X172898660Y-93247265D01*
X173003265Y-93142660D01*
X173126268Y-93060472D01*
X173262941Y-93003860D01*
X173408032Y-92975000D01*
X173555968Y-92975000D01*
X173701059Y-93003860D01*
X173701059Y-93003860D01*
G37*
G36*
X143168823Y-91871313D02*
G01*
X143299380Y-91910917D01*
X143325145Y-91918733D01*
X143329242Y-91919976D01*
X143461906Y-91990886D01*
X143477078Y-91998996D01*
X143606659Y-92105341D01*
X143713004Y-92234922D01*
X143713005Y-92234924D01*
X143792024Y-92382758D01*
X143840687Y-92543177D01*
X143857117Y-92710000D01*
X143840687Y-92876823D01*
X143792024Y-93037242D01*
X143779607Y-93060472D01*
X143713004Y-93185078D01*
X143606659Y-93314659D01*
X143477078Y-93421004D01*
X143477076Y-93421005D01*
X143329242Y-93500024D01*
X143168823Y-93548687D01*
X143043804Y-93561000D01*
X142960196Y-93561000D01*
X142835177Y-93548687D01*
X142674758Y-93500024D01*
X142526924Y-93421005D01*
X142526922Y-93421004D01*
X142397341Y-93314659D01*
X142290996Y-93185078D01*
X142224393Y-93060472D01*
X142211976Y-93037242D01*
X142163313Y-92876823D01*
X142146883Y-92710000D01*
X142163313Y-92543177D01*
X142211976Y-92382758D01*
X142290995Y-92234924D01*
X142290996Y-92234922D01*
X142397341Y-92105341D01*
X142526922Y-91998996D01*
X142542094Y-91990886D01*
X142674758Y-91919976D01*
X142678856Y-91918733D01*
X142704620Y-91910917D01*
X142835177Y-91871313D01*
X142960196Y-91859000D01*
X143043804Y-91859000D01*
X143168823Y-91871313D01*
X143168823Y-91871313D01*
G37*
G36*
X150788823Y-91871313D02*
G01*
X150919380Y-91910917D01*
X150945145Y-91918733D01*
X150949242Y-91919976D01*
X151081906Y-91990886D01*
X151097078Y-91998996D01*
X151226659Y-92105341D01*
X151333004Y-92234922D01*
X151333005Y-92234924D01*
X151412024Y-92382758D01*
X151460687Y-92543177D01*
X151477117Y-92710000D01*
X151460687Y-92876823D01*
X151412024Y-93037242D01*
X151399607Y-93060472D01*
X151333004Y-93185078D01*
X151226659Y-93314659D01*
X151097078Y-93421004D01*
X151097076Y-93421005D01*
X150949242Y-93500024D01*
X150788823Y-93548687D01*
X150663804Y-93561000D01*
X150580196Y-93561000D01*
X150455177Y-93548687D01*
X150294758Y-93500024D01*
X150146924Y-93421005D01*
X150146922Y-93421004D01*
X150017341Y-93314659D01*
X149910996Y-93185078D01*
X149844393Y-93060472D01*
X149831976Y-93037242D01*
X149783313Y-92876823D01*
X149766883Y-92710000D01*
X149783313Y-92543177D01*
X149831976Y-92382758D01*
X149910995Y-92234924D01*
X149910996Y-92234922D01*
X150017341Y-92105341D01*
X150146922Y-91998996D01*
X150162094Y-91990886D01*
X150294758Y-91919976D01*
X150298856Y-91918733D01*
X150324620Y-91910917D01*
X150455177Y-91871313D01*
X150580196Y-91859000D01*
X150663804Y-91859000D01*
X150788823Y-91871313D01*
X150788823Y-91871313D01*
G37*
G36*
X138088823Y-91871313D02*
G01*
X138219380Y-91910917D01*
X138245145Y-91918733D01*
X138249242Y-91919976D01*
X138381906Y-91990886D01*
X138397078Y-91998996D01*
X138526659Y-92105341D01*
X138633004Y-92234922D01*
X138633005Y-92234924D01*
X138712024Y-92382758D01*
X138760687Y-92543177D01*
X138777117Y-92710000D01*
X138760687Y-92876823D01*
X138712024Y-93037242D01*
X138699607Y-93060472D01*
X138633004Y-93185078D01*
X138526659Y-93314659D01*
X138397078Y-93421004D01*
X138397076Y-93421005D01*
X138249242Y-93500024D01*
X138088823Y-93548687D01*
X137963804Y-93561000D01*
X137880196Y-93561000D01*
X137755177Y-93548687D01*
X137594758Y-93500024D01*
X137446924Y-93421005D01*
X137446922Y-93421004D01*
X137317341Y-93314659D01*
X137210996Y-93185078D01*
X137144393Y-93060472D01*
X137131976Y-93037242D01*
X137083313Y-92876823D01*
X137066883Y-92710000D01*
X137083313Y-92543177D01*
X137131976Y-92382758D01*
X137210995Y-92234924D01*
X137210996Y-92234922D01*
X137317341Y-92105341D01*
X137446922Y-91998996D01*
X137462094Y-91990886D01*
X137594758Y-91919976D01*
X137598856Y-91918733D01*
X137624620Y-91910917D01*
X137755177Y-91871313D01*
X137880196Y-91859000D01*
X137963804Y-91859000D01*
X138088823Y-91871313D01*
X138088823Y-91871313D01*
G37*
G36*
X130468823Y-91871313D02*
G01*
X130599380Y-91910917D01*
X130625145Y-91918733D01*
X130629242Y-91919976D01*
X130761906Y-91990886D01*
X130777078Y-91998996D01*
X130906659Y-92105341D01*
X131013004Y-92234922D01*
X131013005Y-92234924D01*
X131092024Y-92382758D01*
X131140687Y-92543177D01*
X131157117Y-92710000D01*
X131140687Y-92876823D01*
X131092024Y-93037242D01*
X131079607Y-93060472D01*
X131013004Y-93185078D01*
X130906659Y-93314659D01*
X130777078Y-93421004D01*
X130777076Y-93421005D01*
X130629242Y-93500024D01*
X130468823Y-93548687D01*
X130343804Y-93561000D01*
X130260196Y-93561000D01*
X130135177Y-93548687D01*
X129974758Y-93500024D01*
X129826924Y-93421005D01*
X129826922Y-93421004D01*
X129697341Y-93314659D01*
X129590996Y-93185078D01*
X129524393Y-93060472D01*
X129511976Y-93037242D01*
X129463313Y-92876823D01*
X129446883Y-92710000D01*
X129463313Y-92543177D01*
X129511976Y-92382758D01*
X129590995Y-92234924D01*
X129590996Y-92234922D01*
X129697341Y-92105341D01*
X129826922Y-91998996D01*
X129842094Y-91990886D01*
X129974758Y-91919976D01*
X129978856Y-91918733D01*
X130004620Y-91910917D01*
X130135177Y-91871313D01*
X130260196Y-91859000D01*
X130343804Y-91859000D01*
X130468823Y-91871313D01*
X130468823Y-91871313D01*
G37*
G36*
X124118823Y-91871313D02*
G01*
X124249380Y-91910917D01*
X124275145Y-91918733D01*
X124279242Y-91919976D01*
X124411906Y-91990886D01*
X124427078Y-91998996D01*
X124556659Y-92105341D01*
X124663004Y-92234922D01*
X124663005Y-92234924D01*
X124742024Y-92382758D01*
X124790687Y-92543177D01*
X124807117Y-92710000D01*
X124790687Y-92876823D01*
X124742024Y-93037242D01*
X124729607Y-93060472D01*
X124663004Y-93185078D01*
X124556659Y-93314659D01*
X124427078Y-93421004D01*
X124427076Y-93421005D01*
X124279242Y-93500024D01*
X124118823Y-93548687D01*
X123993804Y-93561000D01*
X123910196Y-93561000D01*
X123785177Y-93548687D01*
X123624758Y-93500024D01*
X123476924Y-93421005D01*
X123476922Y-93421004D01*
X123347341Y-93314659D01*
X123240996Y-93185078D01*
X123174393Y-93060472D01*
X123161976Y-93037242D01*
X123113313Y-92876823D01*
X123096883Y-92710000D01*
X123113313Y-92543177D01*
X123161976Y-92382758D01*
X123240995Y-92234924D01*
X123240996Y-92234922D01*
X123347341Y-92105341D01*
X123476922Y-91998996D01*
X123492094Y-91990886D01*
X123624758Y-91919976D01*
X123628856Y-91918733D01*
X123654620Y-91910917D01*
X123785177Y-91871313D01*
X123910196Y-91859000D01*
X123993804Y-91859000D01*
X124118823Y-91871313D01*
X124118823Y-91871313D01*
G37*
G36*
X116498823Y-91871313D02*
G01*
X116629380Y-91910917D01*
X116655145Y-91918733D01*
X116659242Y-91919976D01*
X116791906Y-91990886D01*
X116807078Y-91998996D01*
X116936659Y-92105341D01*
X117043004Y-92234922D01*
X117043005Y-92234924D01*
X117122024Y-92382758D01*
X117170687Y-92543177D01*
X117187117Y-92710000D01*
X117170687Y-92876823D01*
X117122024Y-93037242D01*
X117109607Y-93060472D01*
X117043004Y-93185078D01*
X116936659Y-93314659D01*
X116807078Y-93421004D01*
X116807076Y-93421005D01*
X116659242Y-93500024D01*
X116498823Y-93548687D01*
X116373804Y-93561000D01*
X116290196Y-93561000D01*
X116165177Y-93548687D01*
X116004758Y-93500024D01*
X115856924Y-93421005D01*
X115856922Y-93421004D01*
X115727341Y-93314659D01*
X115620996Y-93185078D01*
X115554393Y-93060472D01*
X115541976Y-93037242D01*
X115493313Y-92876823D01*
X115476883Y-92710000D01*
X115493313Y-92543177D01*
X115541976Y-92382758D01*
X115620995Y-92234924D01*
X115620996Y-92234922D01*
X115727341Y-92105341D01*
X115856922Y-91998996D01*
X115872094Y-91990886D01*
X116004758Y-91919976D01*
X116008856Y-91918733D01*
X116034620Y-91910917D01*
X116165177Y-91871313D01*
X116290196Y-91859000D01*
X116373804Y-91859000D01*
X116498823Y-91871313D01*
X116498823Y-91871313D01*
G37*
G36*
X167340228Y-90621703D02*
G01*
X167495100Y-90685853D01*
X167634481Y-90778985D01*
X167753015Y-90897519D01*
X167846147Y-91036900D01*
X167910297Y-91191772D01*
X167943000Y-91356184D01*
X167943000Y-91523816D01*
X167910297Y-91688228D01*
X167846147Y-91843100D01*
X167753015Y-91982481D01*
X167634481Y-92101015D01*
X167495100Y-92194147D01*
X167340228Y-92258297D01*
X167175816Y-92291000D01*
X167008184Y-92291000D01*
X166843772Y-92258297D01*
X166688900Y-92194147D01*
X166549519Y-92101015D01*
X166430985Y-91982481D01*
X166337853Y-91843100D01*
X166273703Y-91688228D01*
X166241000Y-91523816D01*
X166241000Y-91356184D01*
X166273703Y-91191772D01*
X166337853Y-91036900D01*
X166430985Y-90897519D01*
X166549519Y-90778985D01*
X166688900Y-90685853D01*
X166843772Y-90621703D01*
X167008184Y-90589000D01*
X167175816Y-90589000D01*
X167340228Y-90621703D01*
X167340228Y-90621703D01*
G37*
G36*
X164840228Y-90621703D02*
G01*
X164995100Y-90685853D01*
X165134481Y-90778985D01*
X165253015Y-90897519D01*
X165346147Y-91036900D01*
X165410297Y-91191772D01*
X165443000Y-91356184D01*
X165443000Y-91523816D01*
X165410297Y-91688228D01*
X165346147Y-91843100D01*
X165253015Y-91982481D01*
X165134481Y-92101015D01*
X164995100Y-92194147D01*
X164840228Y-92258297D01*
X164675816Y-92291000D01*
X164508184Y-92291000D01*
X164343772Y-92258297D01*
X164188900Y-92194147D01*
X164049519Y-92101015D01*
X163930985Y-91982481D01*
X163837853Y-91843100D01*
X163773703Y-91688228D01*
X163741000Y-91523816D01*
X163741000Y-91356184D01*
X163773703Y-91191772D01*
X163837853Y-91036900D01*
X163930985Y-90897519D01*
X164049519Y-90778985D01*
X164188900Y-90685853D01*
X164343772Y-90621703D01*
X164508184Y-90589000D01*
X164675816Y-90589000D01*
X164840228Y-90621703D01*
X164840228Y-90621703D01*
G37*
G36*
X155775665Y-90692622D02*
G01*
X155849222Y-90699867D01*
X155990786Y-90742810D01*
X156121252Y-90812546D01*
X156151040Y-90836992D01*
X156235607Y-90906393D01*
X156305008Y-90990960D01*
X156329454Y-91020748D01*
X156399190Y-91151214D01*
X156442133Y-91292778D01*
X156456633Y-91440000D01*
X156442133Y-91587222D01*
X156399190Y-91728786D01*
X156329454Y-91859252D01*
X156319555Y-91871314D01*
X156235607Y-91973607D01*
X156151040Y-92043008D01*
X156121252Y-92067454D01*
X156121250Y-92067455D01*
X155991142Y-92137000D01*
X155990786Y-92137190D01*
X155849222Y-92180133D01*
X155775665Y-92187378D01*
X155738888Y-92191000D01*
X155665112Y-92191000D01*
X155628335Y-92187378D01*
X155554778Y-92180133D01*
X155413214Y-92137190D01*
X155412859Y-92137000D01*
X155282750Y-92067455D01*
X155282748Y-92067454D01*
X155252960Y-92043008D01*
X155168393Y-91973607D01*
X155084445Y-91871314D01*
X155074546Y-91859252D01*
X155004810Y-91728786D01*
X154961867Y-91587222D01*
X154947367Y-91440000D01*
X154961867Y-91292778D01*
X155004810Y-91151214D01*
X155074546Y-91020748D01*
X155098992Y-90990960D01*
X155168393Y-90906393D01*
X155252960Y-90836992D01*
X155282748Y-90812546D01*
X155413214Y-90742810D01*
X155554778Y-90699867D01*
X155628335Y-90692622D01*
X155665112Y-90689000D01*
X155738888Y-90689000D01*
X155775665Y-90692622D01*
X155775665Y-90692622D01*
G37*
G36*
X161001059Y-90717860D02*
G01*
X161061294Y-90742810D01*
X161137732Y-90774472D01*
X161260735Y-90856660D01*
X161365340Y-90961265D01*
X161447528Y-91084268D01*
X161447529Y-91084270D01*
X161475257Y-91151212D01*
X161504140Y-91220941D01*
X161533000Y-91366033D01*
X161533000Y-91513967D01*
X161504140Y-91659059D01*
X161447528Y-91795732D01*
X161365340Y-91918735D01*
X161260735Y-92023340D01*
X161137732Y-92105528D01*
X161137731Y-92105529D01*
X161137730Y-92105529D01*
X161001059Y-92162140D01*
X160855968Y-92191000D01*
X160708032Y-92191000D01*
X160562941Y-92162140D01*
X160426270Y-92105529D01*
X160426269Y-92105529D01*
X160426268Y-92105528D01*
X160303265Y-92023340D01*
X160198660Y-91918735D01*
X160116472Y-91795732D01*
X160059860Y-91659059D01*
X160031000Y-91513967D01*
X160031000Y-91366033D01*
X160059860Y-91220941D01*
X160088743Y-91151212D01*
X160116471Y-91084270D01*
X160116472Y-91084268D01*
X160198660Y-90961265D01*
X160303265Y-90856660D01*
X160426268Y-90774472D01*
X160502707Y-90742810D01*
X160562941Y-90717860D01*
X160708032Y-90689000D01*
X160855968Y-90689000D01*
X161001059Y-90717860D01*
X161001059Y-90717860D01*
G37*
G36*
X178243000Y-92137000D02*
G01*
X176341000Y-92137000D01*
X176341000Y-90235000D01*
X178243000Y-90235000D01*
X178243000Y-92137000D01*
X178243000Y-92137000D01*
G37*
G36*
X180109395Y-90271546D02*
G01*
X180282466Y-90343234D01*
X180282467Y-90343235D01*
X180438227Y-90447310D01*
X180570690Y-90579773D01*
X180598708Y-90621705D01*
X180674766Y-90735534D01*
X180746454Y-90908605D01*
X180783000Y-91092333D01*
X180783000Y-91279667D01*
X180746454Y-91463395D01*
X180674766Y-91636466D01*
X180674765Y-91636467D01*
X180570690Y-91792227D01*
X180438227Y-91924690D01*
X180365019Y-91973606D01*
X180282466Y-92028766D01*
X180109395Y-92100454D01*
X179925667Y-92137000D01*
X179738333Y-92137000D01*
X179554605Y-92100454D01*
X179381534Y-92028766D01*
X179298981Y-91973606D01*
X179225773Y-91924690D01*
X179093310Y-91792227D01*
X178989235Y-91636467D01*
X178989234Y-91636466D01*
X178917546Y-91463395D01*
X178881000Y-91279667D01*
X178881000Y-91092333D01*
X178917546Y-90908605D01*
X178989234Y-90735534D01*
X179065292Y-90621705D01*
X179093310Y-90579773D01*
X179225773Y-90447310D01*
X179381533Y-90343235D01*
X179381534Y-90343234D01*
X179554605Y-90271546D01*
X179738333Y-90235000D01*
X179925667Y-90235000D01*
X180109395Y-90271546D01*
X180109395Y-90271546D01*
G37*
G36*
X124118823Y-89331313D02*
G01*
X124279242Y-89379976D01*
X124411906Y-89450886D01*
X124427078Y-89458996D01*
X124556659Y-89565341D01*
X124663004Y-89694922D01*
X124663005Y-89694924D01*
X124742024Y-89842758D01*
X124790687Y-90003177D01*
X124807117Y-90170000D01*
X124790687Y-90336823D01*
X124742024Y-90497242D01*
X124697910Y-90579773D01*
X124663004Y-90645078D01*
X124556659Y-90774659D01*
X124427078Y-90881004D01*
X124427076Y-90881005D01*
X124279242Y-90960024D01*
X124279239Y-90960025D01*
X124249380Y-90969083D01*
X124118823Y-91008687D01*
X123993804Y-91021000D01*
X123910196Y-91021000D01*
X123785177Y-91008687D01*
X123654620Y-90969083D01*
X123624761Y-90960025D01*
X123624758Y-90960024D01*
X123476924Y-90881005D01*
X123476922Y-90881004D01*
X123347341Y-90774659D01*
X123240996Y-90645078D01*
X123206090Y-90579773D01*
X123161976Y-90497242D01*
X123113313Y-90336823D01*
X123096883Y-90170000D01*
X123113313Y-90003177D01*
X123161976Y-89842758D01*
X123240995Y-89694924D01*
X123240996Y-89694922D01*
X123347341Y-89565341D01*
X123476922Y-89458996D01*
X123492094Y-89450886D01*
X123624758Y-89379976D01*
X123785177Y-89331313D01*
X123910196Y-89319000D01*
X123993804Y-89319000D01*
X124118823Y-89331313D01*
X124118823Y-89331313D01*
G37*
G36*
X143168823Y-89331313D02*
G01*
X143329242Y-89379976D01*
X143461906Y-89450886D01*
X143477078Y-89458996D01*
X143606659Y-89565341D01*
X143713004Y-89694922D01*
X143713005Y-89694924D01*
X143792024Y-89842758D01*
X143840687Y-90003177D01*
X143857117Y-90170000D01*
X143840687Y-90336823D01*
X143792024Y-90497242D01*
X143747910Y-90579773D01*
X143713004Y-90645078D01*
X143606659Y-90774659D01*
X143477078Y-90881004D01*
X143477076Y-90881005D01*
X143329242Y-90960024D01*
X143329239Y-90960025D01*
X143299380Y-90969083D01*
X143168823Y-91008687D01*
X143043804Y-91021000D01*
X142960196Y-91021000D01*
X142835177Y-91008687D01*
X142704620Y-90969083D01*
X142674761Y-90960025D01*
X142674758Y-90960024D01*
X142526924Y-90881005D01*
X142526922Y-90881004D01*
X142397341Y-90774659D01*
X142290996Y-90645078D01*
X142256090Y-90579773D01*
X142211976Y-90497242D01*
X142163313Y-90336823D01*
X142146883Y-90170000D01*
X142163313Y-90003177D01*
X142211976Y-89842758D01*
X142290995Y-89694924D01*
X142290996Y-89694922D01*
X142397341Y-89565341D01*
X142526922Y-89458996D01*
X142542094Y-89450886D01*
X142674758Y-89379976D01*
X142835177Y-89331313D01*
X142960196Y-89319000D01*
X143043804Y-89319000D01*
X143168823Y-89331313D01*
X143168823Y-89331313D01*
G37*
G36*
X150788823Y-89331313D02*
G01*
X150949242Y-89379976D01*
X151081906Y-89450886D01*
X151097078Y-89458996D01*
X151226659Y-89565341D01*
X151333004Y-89694922D01*
X151333005Y-89694924D01*
X151412024Y-89842758D01*
X151460687Y-90003177D01*
X151477117Y-90170000D01*
X151460687Y-90336823D01*
X151412024Y-90497242D01*
X151367910Y-90579773D01*
X151333004Y-90645078D01*
X151226659Y-90774659D01*
X151097078Y-90881004D01*
X151097076Y-90881005D01*
X150949242Y-90960024D01*
X150949239Y-90960025D01*
X150919380Y-90969083D01*
X150788823Y-91008687D01*
X150663804Y-91021000D01*
X150580196Y-91021000D01*
X150455177Y-91008687D01*
X150324620Y-90969083D01*
X150294761Y-90960025D01*
X150294758Y-90960024D01*
X150146924Y-90881005D01*
X150146922Y-90881004D01*
X150017341Y-90774659D01*
X149910996Y-90645078D01*
X149876090Y-90579773D01*
X149831976Y-90497242D01*
X149783313Y-90336823D01*
X149766883Y-90170000D01*
X149783313Y-90003177D01*
X149831976Y-89842758D01*
X149910995Y-89694924D01*
X149910996Y-89694922D01*
X150017341Y-89565341D01*
X150146922Y-89458996D01*
X150162094Y-89450886D01*
X150294758Y-89379976D01*
X150455177Y-89331313D01*
X150580196Y-89319000D01*
X150663804Y-89319000D01*
X150788823Y-89331313D01*
X150788823Y-89331313D01*
G37*
G36*
X116498823Y-89331313D02*
G01*
X116659242Y-89379976D01*
X116791906Y-89450886D01*
X116807078Y-89458996D01*
X116936659Y-89565341D01*
X117043004Y-89694922D01*
X117043005Y-89694924D01*
X117122024Y-89842758D01*
X117170687Y-90003177D01*
X117187117Y-90170000D01*
X117170687Y-90336823D01*
X117122024Y-90497242D01*
X117077910Y-90579773D01*
X117043004Y-90645078D01*
X116936659Y-90774659D01*
X116807078Y-90881004D01*
X116807076Y-90881005D01*
X116659242Y-90960024D01*
X116659239Y-90960025D01*
X116629380Y-90969083D01*
X116498823Y-91008687D01*
X116373804Y-91021000D01*
X116290196Y-91021000D01*
X116165177Y-91008687D01*
X116034620Y-90969083D01*
X116004761Y-90960025D01*
X116004758Y-90960024D01*
X115856924Y-90881005D01*
X115856922Y-90881004D01*
X115727341Y-90774659D01*
X115620996Y-90645078D01*
X115586090Y-90579773D01*
X115541976Y-90497242D01*
X115493313Y-90336823D01*
X115476883Y-90170000D01*
X115493313Y-90003177D01*
X115541976Y-89842758D01*
X115620995Y-89694924D01*
X115620996Y-89694922D01*
X115727341Y-89565341D01*
X115856922Y-89458996D01*
X115872094Y-89450886D01*
X116004758Y-89379976D01*
X116165177Y-89331313D01*
X116290196Y-89319000D01*
X116373804Y-89319000D01*
X116498823Y-89331313D01*
X116498823Y-89331313D01*
G37*
G36*
X138088823Y-89331313D02*
G01*
X138249242Y-89379976D01*
X138381906Y-89450886D01*
X138397078Y-89458996D01*
X138526659Y-89565341D01*
X138633004Y-89694922D01*
X138633005Y-89694924D01*
X138712024Y-89842758D01*
X138760687Y-90003177D01*
X138777117Y-90170000D01*
X138760687Y-90336823D01*
X138712024Y-90497242D01*
X138667910Y-90579773D01*
X138633004Y-90645078D01*
X138526659Y-90774659D01*
X138397078Y-90881004D01*
X138397076Y-90881005D01*
X138249242Y-90960024D01*
X138249239Y-90960025D01*
X138219380Y-90969083D01*
X138088823Y-91008687D01*
X137963804Y-91021000D01*
X137880196Y-91021000D01*
X137755177Y-91008687D01*
X137624620Y-90969083D01*
X137594761Y-90960025D01*
X137594758Y-90960024D01*
X137446924Y-90881005D01*
X137446922Y-90881004D01*
X137317341Y-90774659D01*
X137210996Y-90645078D01*
X137176090Y-90579773D01*
X137131976Y-90497242D01*
X137083313Y-90336823D01*
X137066883Y-90170000D01*
X137083313Y-90003177D01*
X137131976Y-89842758D01*
X137210995Y-89694924D01*
X137210996Y-89694922D01*
X137317341Y-89565341D01*
X137446922Y-89458996D01*
X137462094Y-89450886D01*
X137594758Y-89379976D01*
X137755177Y-89331313D01*
X137880196Y-89319000D01*
X137963804Y-89319000D01*
X138088823Y-89331313D01*
X138088823Y-89331313D01*
G37*
G36*
X130468823Y-89331313D02*
G01*
X130629242Y-89379976D01*
X130761906Y-89450886D01*
X130777078Y-89458996D01*
X130906659Y-89565341D01*
X131013004Y-89694922D01*
X131013005Y-89694924D01*
X131092024Y-89842758D01*
X131140687Y-90003177D01*
X131157117Y-90170000D01*
X131140687Y-90336823D01*
X131092024Y-90497242D01*
X131047910Y-90579773D01*
X131013004Y-90645078D01*
X130906659Y-90774659D01*
X130777078Y-90881004D01*
X130777076Y-90881005D01*
X130629242Y-90960024D01*
X130629239Y-90960025D01*
X130599380Y-90969083D01*
X130468823Y-91008687D01*
X130343804Y-91021000D01*
X130260196Y-91021000D01*
X130135177Y-91008687D01*
X130004620Y-90969083D01*
X129974761Y-90960025D01*
X129974758Y-90960024D01*
X129826924Y-90881005D01*
X129826922Y-90881004D01*
X129697341Y-90774659D01*
X129590996Y-90645078D01*
X129556090Y-90579773D01*
X129511976Y-90497242D01*
X129463313Y-90336823D01*
X129446883Y-90170000D01*
X129463313Y-90003177D01*
X129511976Y-89842758D01*
X129590995Y-89694924D01*
X129590996Y-89694922D01*
X129697341Y-89565341D01*
X129826922Y-89458996D01*
X129842094Y-89450886D01*
X129974758Y-89379976D01*
X130135177Y-89331313D01*
X130260196Y-89319000D01*
X130343804Y-89319000D01*
X130468823Y-89331313D01*
X130468823Y-89331313D01*
G37*
G36*
X173555665Y-87898622D02*
G01*
X173629222Y-87905867D01*
X173770786Y-87948810D01*
X173770788Y-87948811D01*
X173786561Y-87957242D01*
X173901252Y-88018546D01*
X173918982Y-88033097D01*
X174015607Y-88112393D01*
X174085008Y-88196960D01*
X174109454Y-88226748D01*
X174179190Y-88357214D01*
X174222133Y-88498778D01*
X174236633Y-88646000D01*
X174222133Y-88793222D01*
X174179190Y-88934786D01*
X174109454Y-89065252D01*
X174085008Y-89095040D01*
X174015607Y-89179607D01*
X173931040Y-89249008D01*
X173901252Y-89273454D01*
X173770786Y-89343190D01*
X173629222Y-89386133D01*
X173555665Y-89393378D01*
X173518888Y-89397000D01*
X173445112Y-89397000D01*
X173408335Y-89393378D01*
X173334778Y-89386133D01*
X173193214Y-89343190D01*
X173062748Y-89273454D01*
X173032960Y-89249008D01*
X172948393Y-89179607D01*
X172878992Y-89095040D01*
X172854546Y-89065252D01*
X172784810Y-88934786D01*
X172741867Y-88793222D01*
X172727367Y-88646000D01*
X172741867Y-88498778D01*
X172784810Y-88357214D01*
X172854546Y-88226748D01*
X172878992Y-88196960D01*
X172948393Y-88112393D01*
X173045018Y-88033097D01*
X173062748Y-88018546D01*
X173177439Y-87957242D01*
X173193212Y-87948811D01*
X173193214Y-87948810D01*
X173334778Y-87905867D01*
X173408335Y-87898622D01*
X173445112Y-87895000D01*
X173518888Y-87895000D01*
X173555665Y-87898622D01*
X173555665Y-87898622D01*
G37*
G36*
X167380228Y-86811703D02*
G01*
X167535100Y-86875853D01*
X167674481Y-86968985D01*
X167793015Y-87087519D01*
X167886147Y-87226900D01*
X167950297Y-87381772D01*
X167983000Y-87546184D01*
X167983000Y-87713816D01*
X167950297Y-87878228D01*
X167886147Y-88033100D01*
X167793015Y-88172481D01*
X167674481Y-88291015D01*
X167535100Y-88384147D01*
X167380228Y-88448297D01*
X167215816Y-88481000D01*
X167048184Y-88481000D01*
X166883772Y-88448297D01*
X166728900Y-88384147D01*
X166589519Y-88291015D01*
X166470985Y-88172481D01*
X166377853Y-88033100D01*
X166313703Y-87878228D01*
X166281000Y-87713816D01*
X166281000Y-87546184D01*
X166313703Y-87381772D01*
X166377853Y-87226900D01*
X166470985Y-87087519D01*
X166589519Y-86968985D01*
X166728900Y-86875853D01*
X166883772Y-86811703D01*
X167048184Y-86779000D01*
X167215816Y-86779000D01*
X167380228Y-86811703D01*
X167380228Y-86811703D01*
G37*
G36*
X116498823Y-86791313D02*
G01*
X116659242Y-86839976D01*
X116752581Y-86889867D01*
X116807078Y-86918996D01*
X116936659Y-87025341D01*
X117043004Y-87154922D01*
X117043005Y-87154924D01*
X117122024Y-87302758D01*
X117170687Y-87463177D01*
X117187117Y-87630000D01*
X117170687Y-87796823D01*
X117122024Y-87957242D01*
X117051114Y-88089906D01*
X117043004Y-88105078D01*
X116936659Y-88234659D01*
X116807078Y-88341004D01*
X116807076Y-88341005D01*
X116659242Y-88420024D01*
X116498823Y-88468687D01*
X116373804Y-88481000D01*
X116290196Y-88481000D01*
X116165177Y-88468687D01*
X116004758Y-88420024D01*
X115856924Y-88341005D01*
X115856922Y-88341004D01*
X115727341Y-88234659D01*
X115620996Y-88105078D01*
X115612886Y-88089906D01*
X115541976Y-87957242D01*
X115493313Y-87796823D01*
X115476883Y-87630000D01*
X115493313Y-87463177D01*
X115541976Y-87302758D01*
X115620995Y-87154924D01*
X115620996Y-87154922D01*
X115727341Y-87025341D01*
X115856922Y-86918996D01*
X115911419Y-86889867D01*
X116004758Y-86839976D01*
X116165177Y-86791313D01*
X116290196Y-86779000D01*
X116373804Y-86779000D01*
X116498823Y-86791313D01*
X116498823Y-86791313D01*
G37*
G36*
X150788823Y-86791313D02*
G01*
X150949242Y-86839976D01*
X151042581Y-86889867D01*
X151097078Y-86918996D01*
X151226659Y-87025341D01*
X151333004Y-87154922D01*
X151333005Y-87154924D01*
X151412024Y-87302758D01*
X151460687Y-87463177D01*
X151477117Y-87630000D01*
X151460687Y-87796823D01*
X151412024Y-87957242D01*
X151341114Y-88089906D01*
X151333004Y-88105078D01*
X151226659Y-88234659D01*
X151097078Y-88341004D01*
X151097076Y-88341005D01*
X150949242Y-88420024D01*
X150788823Y-88468687D01*
X150663804Y-88481000D01*
X150580196Y-88481000D01*
X150455177Y-88468687D01*
X150294758Y-88420024D01*
X150146924Y-88341005D01*
X150146922Y-88341004D01*
X150017341Y-88234659D01*
X149910996Y-88105078D01*
X149902886Y-88089906D01*
X149831976Y-87957242D01*
X149783313Y-87796823D01*
X149766883Y-87630000D01*
X149783313Y-87463177D01*
X149831976Y-87302758D01*
X149910995Y-87154924D01*
X149910996Y-87154922D01*
X150017341Y-87025341D01*
X150146922Y-86918996D01*
X150201419Y-86889867D01*
X150294758Y-86839976D01*
X150455177Y-86791313D01*
X150580196Y-86779000D01*
X150663804Y-86779000D01*
X150788823Y-86791313D01*
X150788823Y-86791313D01*
G37*
G36*
X138088823Y-86791313D02*
G01*
X138249242Y-86839976D01*
X138342581Y-86889867D01*
X138397078Y-86918996D01*
X138526659Y-87025341D01*
X138633004Y-87154922D01*
X138633005Y-87154924D01*
X138712024Y-87302758D01*
X138760687Y-87463177D01*
X138777117Y-87630000D01*
X138760687Y-87796823D01*
X138712024Y-87957242D01*
X138641114Y-88089906D01*
X138633004Y-88105078D01*
X138526659Y-88234659D01*
X138397078Y-88341004D01*
X138397076Y-88341005D01*
X138249242Y-88420024D01*
X138088823Y-88468687D01*
X137963804Y-88481000D01*
X137880196Y-88481000D01*
X137755177Y-88468687D01*
X137594758Y-88420024D01*
X137446924Y-88341005D01*
X137446922Y-88341004D01*
X137317341Y-88234659D01*
X137210996Y-88105078D01*
X137202886Y-88089906D01*
X137131976Y-87957242D01*
X137083313Y-87796823D01*
X137066883Y-87630000D01*
X137083313Y-87463177D01*
X137131976Y-87302758D01*
X137210995Y-87154924D01*
X137210996Y-87154922D01*
X137317341Y-87025341D01*
X137446922Y-86918996D01*
X137501419Y-86889867D01*
X137594758Y-86839976D01*
X137755177Y-86791313D01*
X137880196Y-86779000D01*
X137963804Y-86779000D01*
X138088823Y-86791313D01*
X138088823Y-86791313D01*
G37*
G36*
X143168823Y-86791313D02*
G01*
X143329242Y-86839976D01*
X143422581Y-86889867D01*
X143477078Y-86918996D01*
X143606659Y-87025341D01*
X143713004Y-87154922D01*
X143713005Y-87154924D01*
X143792024Y-87302758D01*
X143840687Y-87463177D01*
X143857117Y-87630000D01*
X143840687Y-87796823D01*
X143792024Y-87957242D01*
X143721114Y-88089906D01*
X143713004Y-88105078D01*
X143606659Y-88234659D01*
X143477078Y-88341004D01*
X143477076Y-88341005D01*
X143329242Y-88420024D01*
X143168823Y-88468687D01*
X143043804Y-88481000D01*
X142960196Y-88481000D01*
X142835177Y-88468687D01*
X142674758Y-88420024D01*
X142526924Y-88341005D01*
X142526922Y-88341004D01*
X142397341Y-88234659D01*
X142290996Y-88105078D01*
X142282886Y-88089906D01*
X142211976Y-87957242D01*
X142163313Y-87796823D01*
X142146883Y-87630000D01*
X142163313Y-87463177D01*
X142211976Y-87302758D01*
X142290995Y-87154924D01*
X142290996Y-87154922D01*
X142397341Y-87025341D01*
X142526922Y-86918996D01*
X142581419Y-86889867D01*
X142674758Y-86839976D01*
X142835177Y-86791313D01*
X142960196Y-86779000D01*
X143043804Y-86779000D01*
X143168823Y-86791313D01*
X143168823Y-86791313D01*
G37*
G36*
X164880228Y-86811703D02*
G01*
X165035100Y-86875853D01*
X165174481Y-86968985D01*
X165293015Y-87087519D01*
X165386147Y-87226900D01*
X165450297Y-87381772D01*
X165483000Y-87546184D01*
X165483000Y-87713816D01*
X165450297Y-87878228D01*
X165386147Y-88033100D01*
X165293015Y-88172481D01*
X165174481Y-88291015D01*
X165035100Y-88384147D01*
X164880228Y-88448297D01*
X164715816Y-88481000D01*
X164548184Y-88481000D01*
X164383772Y-88448297D01*
X164228900Y-88384147D01*
X164089519Y-88291015D01*
X163970985Y-88172481D01*
X163877853Y-88033100D01*
X163813703Y-87878228D01*
X163781000Y-87713816D01*
X163781000Y-87546184D01*
X163813703Y-87381772D01*
X163877853Y-87226900D01*
X163970985Y-87087519D01*
X164089519Y-86968985D01*
X164228900Y-86875853D01*
X164383772Y-86811703D01*
X164548184Y-86779000D01*
X164715816Y-86779000D01*
X164880228Y-86811703D01*
X164880228Y-86811703D01*
G37*
G36*
X130468823Y-86791313D02*
G01*
X130629242Y-86839976D01*
X130722581Y-86889867D01*
X130777078Y-86918996D01*
X130906659Y-87025341D01*
X131013004Y-87154922D01*
X131013005Y-87154924D01*
X131092024Y-87302758D01*
X131140687Y-87463177D01*
X131157117Y-87630000D01*
X131140687Y-87796823D01*
X131092024Y-87957242D01*
X131021114Y-88089906D01*
X131013004Y-88105078D01*
X130906659Y-88234659D01*
X130777078Y-88341004D01*
X130777076Y-88341005D01*
X130629242Y-88420024D01*
X130468823Y-88468687D01*
X130343804Y-88481000D01*
X130260196Y-88481000D01*
X130135177Y-88468687D01*
X129974758Y-88420024D01*
X129826924Y-88341005D01*
X129826922Y-88341004D01*
X129697341Y-88234659D01*
X129590996Y-88105078D01*
X129582886Y-88089906D01*
X129511976Y-87957242D01*
X129463313Y-87796823D01*
X129446883Y-87630000D01*
X129463313Y-87463177D01*
X129511976Y-87302758D01*
X129590995Y-87154924D01*
X129590996Y-87154922D01*
X129697341Y-87025341D01*
X129826922Y-86918996D01*
X129881419Y-86889867D01*
X129974758Y-86839976D01*
X130135177Y-86791313D01*
X130260196Y-86779000D01*
X130343804Y-86779000D01*
X130468823Y-86791313D01*
X130468823Y-86791313D01*
G37*
G36*
X124118823Y-86791313D02*
G01*
X124279242Y-86839976D01*
X124372581Y-86889867D01*
X124427078Y-86918996D01*
X124556659Y-87025341D01*
X124663004Y-87154922D01*
X124663005Y-87154924D01*
X124742024Y-87302758D01*
X124790687Y-87463177D01*
X124807117Y-87630000D01*
X124790687Y-87796823D01*
X124742024Y-87957242D01*
X124671114Y-88089906D01*
X124663004Y-88105078D01*
X124556659Y-88234659D01*
X124427078Y-88341004D01*
X124427076Y-88341005D01*
X124279242Y-88420024D01*
X124118823Y-88468687D01*
X123993804Y-88481000D01*
X123910196Y-88481000D01*
X123785177Y-88468687D01*
X123624758Y-88420024D01*
X123476924Y-88341005D01*
X123476922Y-88341004D01*
X123347341Y-88234659D01*
X123240996Y-88105078D01*
X123232886Y-88089906D01*
X123161976Y-87957242D01*
X123113313Y-87796823D01*
X123096883Y-87630000D01*
X123113313Y-87463177D01*
X123161976Y-87302758D01*
X123240995Y-87154924D01*
X123240996Y-87154922D01*
X123347341Y-87025341D01*
X123476922Y-86918996D01*
X123531419Y-86889867D01*
X123624758Y-86839976D01*
X123785177Y-86791313D01*
X123910196Y-86779000D01*
X123993804Y-86779000D01*
X124118823Y-86791313D01*
X124118823Y-86791313D01*
G37*
G36*
X160855665Y-86882622D02*
G01*
X160929222Y-86889867D01*
X161070786Y-86932810D01*
X161201252Y-87002546D01*
X161229028Y-87025341D01*
X161315607Y-87096393D01*
X161385008Y-87180960D01*
X161409454Y-87210748D01*
X161479190Y-87341214D01*
X161522133Y-87482778D01*
X161536633Y-87630000D01*
X161522133Y-87777222D01*
X161479190Y-87918786D01*
X161409454Y-88049252D01*
X161385008Y-88079040D01*
X161315607Y-88163607D01*
X161238665Y-88226750D01*
X161201252Y-88257454D01*
X161070786Y-88327190D01*
X160929222Y-88370133D01*
X160855665Y-88377378D01*
X160818888Y-88381000D01*
X160745112Y-88381000D01*
X160708335Y-88377378D01*
X160634778Y-88370133D01*
X160493214Y-88327190D01*
X160362748Y-88257454D01*
X160325335Y-88226750D01*
X160248393Y-88163607D01*
X160178992Y-88079040D01*
X160154546Y-88049252D01*
X160084810Y-87918786D01*
X160041867Y-87777222D01*
X160027367Y-87630000D01*
X160041867Y-87482778D01*
X160084810Y-87341214D01*
X160154546Y-87210748D01*
X160178992Y-87180960D01*
X160248393Y-87096393D01*
X160334972Y-87025341D01*
X160362748Y-87002546D01*
X160493214Y-86932810D01*
X160634778Y-86889867D01*
X160708335Y-86882622D01*
X160745112Y-86879000D01*
X160818888Y-86879000D01*
X160855665Y-86882622D01*
X160855665Y-86882622D01*
G37*
G36*
X155921059Y-86907860D02*
G01*
X155981294Y-86932810D01*
X156057732Y-86964472D01*
X156180735Y-87046660D01*
X156285340Y-87151265D01*
X156367528Y-87274268D01*
X156424140Y-87410941D01*
X156453000Y-87556033D01*
X156453000Y-87703967D01*
X156424140Y-87849059D01*
X156367528Y-87985732D01*
X156285340Y-88108735D01*
X156180735Y-88213340D01*
X156057732Y-88295528D01*
X156057731Y-88295529D01*
X156057730Y-88295529D01*
X155921059Y-88352140D01*
X155775968Y-88381000D01*
X155628032Y-88381000D01*
X155482941Y-88352140D01*
X155346270Y-88295529D01*
X155346269Y-88295529D01*
X155346268Y-88295528D01*
X155223265Y-88213340D01*
X155118660Y-88108735D01*
X155036472Y-87985732D01*
X154979860Y-87849059D01*
X154951000Y-87703967D01*
X154951000Y-87556033D01*
X154979860Y-87410941D01*
X155036472Y-87274268D01*
X155118660Y-87151265D01*
X155223265Y-87046660D01*
X155346268Y-86964472D01*
X155422707Y-86932810D01*
X155482941Y-86907860D01*
X155628032Y-86879000D01*
X155775968Y-86879000D01*
X155921059Y-86907860D01*
X155921059Y-86907860D01*
G37*
G36*
X116498823Y-84251313D02*
G01*
X116629380Y-84290917D01*
X116655145Y-84298733D01*
X116659242Y-84299976D01*
X116791906Y-84370886D01*
X116807078Y-84378996D01*
X116936659Y-84485341D01*
X117043004Y-84614922D01*
X117043005Y-84614924D01*
X117122024Y-84762758D01*
X117170687Y-84923177D01*
X117187117Y-85090000D01*
X117170687Y-85256823D01*
X117122024Y-85417242D01*
X117051114Y-85549906D01*
X117043004Y-85565078D01*
X116936659Y-85694659D01*
X116807078Y-85801004D01*
X116807076Y-85801005D01*
X116659242Y-85880024D01*
X116498823Y-85928687D01*
X116373804Y-85941000D01*
X116290196Y-85941000D01*
X116165177Y-85928687D01*
X116004758Y-85880024D01*
X115856924Y-85801005D01*
X115856922Y-85801004D01*
X115727341Y-85694659D01*
X115620996Y-85565078D01*
X115612886Y-85549906D01*
X115541976Y-85417242D01*
X115493313Y-85256823D01*
X115476883Y-85090000D01*
X115493313Y-84923177D01*
X115541976Y-84762758D01*
X115620995Y-84614924D01*
X115620996Y-84614922D01*
X115727341Y-84485341D01*
X115856922Y-84378996D01*
X115872094Y-84370886D01*
X116004758Y-84299976D01*
X116008856Y-84298733D01*
X116034620Y-84290917D01*
X116165177Y-84251313D01*
X116290196Y-84239000D01*
X116373804Y-84239000D01*
X116498823Y-84251313D01*
X116498823Y-84251313D01*
G37*
G36*
X130468823Y-84251313D02*
G01*
X130599380Y-84290917D01*
X130625145Y-84298733D01*
X130629242Y-84299976D01*
X130761906Y-84370886D01*
X130777078Y-84378996D01*
X130906659Y-84485341D01*
X131013004Y-84614922D01*
X131013005Y-84614924D01*
X131092024Y-84762758D01*
X131140687Y-84923177D01*
X131157117Y-85090000D01*
X131140687Y-85256823D01*
X131092024Y-85417242D01*
X131021114Y-85549906D01*
X131013004Y-85565078D01*
X130906659Y-85694659D01*
X130777078Y-85801004D01*
X130777076Y-85801005D01*
X130629242Y-85880024D01*
X130468823Y-85928687D01*
X130343804Y-85941000D01*
X130260196Y-85941000D01*
X130135177Y-85928687D01*
X129974758Y-85880024D01*
X129826924Y-85801005D01*
X129826922Y-85801004D01*
X129697341Y-85694659D01*
X129590996Y-85565078D01*
X129582886Y-85549906D01*
X129511976Y-85417242D01*
X129463313Y-85256823D01*
X129446883Y-85090000D01*
X129463313Y-84923177D01*
X129511976Y-84762758D01*
X129590995Y-84614924D01*
X129590996Y-84614922D01*
X129697341Y-84485341D01*
X129826922Y-84378996D01*
X129842094Y-84370886D01*
X129974758Y-84299976D01*
X129978856Y-84298733D01*
X130004620Y-84290917D01*
X130135177Y-84251313D01*
X130260196Y-84239000D01*
X130343804Y-84239000D01*
X130468823Y-84251313D01*
X130468823Y-84251313D01*
G37*
G36*
X138088823Y-84251313D02*
G01*
X138219380Y-84290917D01*
X138245145Y-84298733D01*
X138249242Y-84299976D01*
X138381906Y-84370886D01*
X138397078Y-84378996D01*
X138526659Y-84485341D01*
X138633004Y-84614922D01*
X138633005Y-84614924D01*
X138712024Y-84762758D01*
X138760687Y-84923177D01*
X138777117Y-85090000D01*
X138760687Y-85256823D01*
X138712024Y-85417242D01*
X138641114Y-85549906D01*
X138633004Y-85565078D01*
X138526659Y-85694659D01*
X138397078Y-85801004D01*
X138397076Y-85801005D01*
X138249242Y-85880024D01*
X138088823Y-85928687D01*
X137963804Y-85941000D01*
X137880196Y-85941000D01*
X137755177Y-85928687D01*
X137594758Y-85880024D01*
X137446924Y-85801005D01*
X137446922Y-85801004D01*
X137317341Y-85694659D01*
X137210996Y-85565078D01*
X137202886Y-85549906D01*
X137131976Y-85417242D01*
X137083313Y-85256823D01*
X137066883Y-85090000D01*
X137083313Y-84923177D01*
X137131976Y-84762758D01*
X137210995Y-84614924D01*
X137210996Y-84614922D01*
X137317341Y-84485341D01*
X137446922Y-84378996D01*
X137462094Y-84370886D01*
X137594758Y-84299976D01*
X137598856Y-84298733D01*
X137624620Y-84290917D01*
X137755177Y-84251313D01*
X137880196Y-84239000D01*
X137963804Y-84239000D01*
X138088823Y-84251313D01*
X138088823Y-84251313D01*
G37*
G36*
X124118823Y-84251313D02*
G01*
X124249380Y-84290917D01*
X124275145Y-84298733D01*
X124279242Y-84299976D01*
X124411906Y-84370886D01*
X124427078Y-84378996D01*
X124556659Y-84485341D01*
X124663004Y-84614922D01*
X124663005Y-84614924D01*
X124742024Y-84762758D01*
X124790687Y-84923177D01*
X124807117Y-85090000D01*
X124790687Y-85256823D01*
X124742024Y-85417242D01*
X124671114Y-85549906D01*
X124663004Y-85565078D01*
X124556659Y-85694659D01*
X124427078Y-85801004D01*
X124427076Y-85801005D01*
X124279242Y-85880024D01*
X124118823Y-85928687D01*
X123993804Y-85941000D01*
X123910196Y-85941000D01*
X123785177Y-85928687D01*
X123624758Y-85880024D01*
X123476924Y-85801005D01*
X123476922Y-85801004D01*
X123347341Y-85694659D01*
X123240996Y-85565078D01*
X123232886Y-85549906D01*
X123161976Y-85417242D01*
X123113313Y-85256823D01*
X123096883Y-85090000D01*
X123113313Y-84923177D01*
X123161976Y-84762758D01*
X123240995Y-84614924D01*
X123240996Y-84614922D01*
X123347341Y-84485341D01*
X123476922Y-84378996D01*
X123492094Y-84370886D01*
X123624758Y-84299976D01*
X123628856Y-84298733D01*
X123654620Y-84290917D01*
X123785177Y-84251313D01*
X123910196Y-84239000D01*
X123993804Y-84239000D01*
X124118823Y-84251313D01*
X124118823Y-84251313D01*
G37*
G36*
X143168823Y-84251313D02*
G01*
X143299380Y-84290917D01*
X143325145Y-84298733D01*
X143329242Y-84299976D01*
X143461906Y-84370886D01*
X143477078Y-84378996D01*
X143606659Y-84485341D01*
X143713004Y-84614922D01*
X143713005Y-84614924D01*
X143792024Y-84762758D01*
X143840687Y-84923177D01*
X143857117Y-85090000D01*
X143840687Y-85256823D01*
X143792024Y-85417242D01*
X143721114Y-85549906D01*
X143713004Y-85565078D01*
X143606659Y-85694659D01*
X143477078Y-85801004D01*
X143477076Y-85801005D01*
X143329242Y-85880024D01*
X143168823Y-85928687D01*
X143043804Y-85941000D01*
X142960196Y-85941000D01*
X142835177Y-85928687D01*
X142674758Y-85880024D01*
X142526924Y-85801005D01*
X142526922Y-85801004D01*
X142397341Y-85694659D01*
X142290996Y-85565078D01*
X142282886Y-85549906D01*
X142211976Y-85417242D01*
X142163313Y-85256823D01*
X142146883Y-85090000D01*
X142163313Y-84923177D01*
X142211976Y-84762758D01*
X142290995Y-84614924D01*
X142290996Y-84614922D01*
X142397341Y-84485341D01*
X142526922Y-84378996D01*
X142542094Y-84370886D01*
X142674758Y-84299976D01*
X142678856Y-84298733D01*
X142704620Y-84290917D01*
X142835177Y-84251313D01*
X142960196Y-84239000D01*
X143043804Y-84239000D01*
X143168823Y-84251313D01*
X143168823Y-84251313D01*
G37*
G36*
X150788823Y-84251313D02*
G01*
X150919380Y-84290917D01*
X150945145Y-84298733D01*
X150949242Y-84299976D01*
X151081906Y-84370886D01*
X151097078Y-84378996D01*
X151226659Y-84485341D01*
X151333004Y-84614922D01*
X151333005Y-84614924D01*
X151412024Y-84762758D01*
X151460687Y-84923177D01*
X151477117Y-85090000D01*
X151460687Y-85256823D01*
X151412024Y-85417242D01*
X151341114Y-85549906D01*
X151333004Y-85565078D01*
X151226659Y-85694659D01*
X151097078Y-85801004D01*
X151097076Y-85801005D01*
X150949242Y-85880024D01*
X150788823Y-85928687D01*
X150663804Y-85941000D01*
X150580196Y-85941000D01*
X150455177Y-85928687D01*
X150294758Y-85880024D01*
X150146924Y-85801005D01*
X150146922Y-85801004D01*
X150017341Y-85694659D01*
X149910996Y-85565078D01*
X149902886Y-85549906D01*
X149831976Y-85417242D01*
X149783313Y-85256823D01*
X149766883Y-85090000D01*
X149783313Y-84923177D01*
X149831976Y-84762758D01*
X149910995Y-84614924D01*
X149910996Y-84614922D01*
X150017341Y-84485341D01*
X150146922Y-84378996D01*
X150162094Y-84370886D01*
X150294758Y-84299976D01*
X150298856Y-84298733D01*
X150324620Y-84290917D01*
X150455177Y-84251313D01*
X150580196Y-84239000D01*
X150663804Y-84239000D01*
X150788823Y-84251313D01*
X150788823Y-84251313D01*
G37*
G36*
X164840228Y-83001703D02*
G01*
X164995100Y-83065853D01*
X165134481Y-83158985D01*
X165253015Y-83277519D01*
X165346147Y-83416900D01*
X165410297Y-83571772D01*
X165443000Y-83736184D01*
X165443000Y-83903816D01*
X165410297Y-84068228D01*
X165346147Y-84223100D01*
X165253015Y-84362481D01*
X165134481Y-84481015D01*
X164995100Y-84574147D01*
X164840228Y-84638297D01*
X164675816Y-84671000D01*
X164508184Y-84671000D01*
X164343772Y-84638297D01*
X164188900Y-84574147D01*
X164049519Y-84481015D01*
X163930985Y-84362481D01*
X163837853Y-84223100D01*
X163773703Y-84068228D01*
X163741000Y-83903816D01*
X163741000Y-83736184D01*
X163773703Y-83571772D01*
X163837853Y-83416900D01*
X163930985Y-83277519D01*
X164049519Y-83158985D01*
X164188900Y-83065853D01*
X164343772Y-83001703D01*
X164508184Y-82969000D01*
X164675816Y-82969000D01*
X164840228Y-83001703D01*
X164840228Y-83001703D01*
G37*
G36*
X167340228Y-83001703D02*
G01*
X167495100Y-83065853D01*
X167634481Y-83158985D01*
X167753015Y-83277519D01*
X167846147Y-83416900D01*
X167910297Y-83571772D01*
X167943000Y-83736184D01*
X167943000Y-83903816D01*
X167910297Y-84068228D01*
X167846147Y-84223100D01*
X167753015Y-84362481D01*
X167634481Y-84481015D01*
X167495100Y-84574147D01*
X167340228Y-84638297D01*
X167175816Y-84671000D01*
X167008184Y-84671000D01*
X166843772Y-84638297D01*
X166688900Y-84574147D01*
X166549519Y-84481015D01*
X166430985Y-84362481D01*
X166337853Y-84223100D01*
X166273703Y-84068228D01*
X166241000Y-83903816D01*
X166241000Y-83736184D01*
X166273703Y-83571772D01*
X166337853Y-83416900D01*
X166430985Y-83277519D01*
X166549519Y-83158985D01*
X166688900Y-83065853D01*
X166843772Y-83001703D01*
X167008184Y-82969000D01*
X167175816Y-82969000D01*
X167340228Y-83001703D01*
X167340228Y-83001703D01*
G37*
G36*
X155921059Y-83097860D02*
G01*
X155981294Y-83122810D01*
X156057732Y-83154472D01*
X156180735Y-83236660D01*
X156285340Y-83341265D01*
X156367528Y-83464268D01*
X156424140Y-83600941D01*
X156453000Y-83746033D01*
X156453000Y-83893967D01*
X156424140Y-84039059D01*
X156367528Y-84175732D01*
X156285340Y-84298735D01*
X156180735Y-84403340D01*
X156057732Y-84485528D01*
X156057731Y-84485529D01*
X156057730Y-84485529D01*
X155921059Y-84542140D01*
X155775968Y-84571000D01*
X155628032Y-84571000D01*
X155482941Y-84542140D01*
X155346270Y-84485529D01*
X155346269Y-84485529D01*
X155346268Y-84485528D01*
X155223265Y-84403340D01*
X155118660Y-84298735D01*
X155036472Y-84175732D01*
X154979860Y-84039059D01*
X154951000Y-83893967D01*
X154951000Y-83746033D01*
X154979860Y-83600941D01*
X155036472Y-83464268D01*
X155118660Y-83341265D01*
X155223265Y-83236660D01*
X155346268Y-83154472D01*
X155422707Y-83122810D01*
X155482941Y-83097860D01*
X155628032Y-83069000D01*
X155775968Y-83069000D01*
X155921059Y-83097860D01*
X155921059Y-83097860D01*
G37*
G36*
X160855665Y-83072622D02*
G01*
X160929222Y-83079867D01*
X161070786Y-83122810D01*
X161201252Y-83192546D01*
X161231040Y-83216992D01*
X161315607Y-83286393D01*
X161385008Y-83370960D01*
X161409454Y-83400748D01*
X161479190Y-83531214D01*
X161522133Y-83672778D01*
X161536633Y-83820000D01*
X161522133Y-83967222D01*
X161479190Y-84108786D01*
X161409454Y-84239252D01*
X161399555Y-84251314D01*
X161315607Y-84353607D01*
X161255004Y-84403341D01*
X161201252Y-84447454D01*
X161070786Y-84517190D01*
X160929222Y-84560133D01*
X160855665Y-84567378D01*
X160818888Y-84571000D01*
X160745112Y-84571000D01*
X160708335Y-84567378D01*
X160634778Y-84560133D01*
X160493214Y-84517190D01*
X160362748Y-84447454D01*
X160308996Y-84403341D01*
X160248393Y-84353607D01*
X160164445Y-84251314D01*
X160154546Y-84239252D01*
X160084810Y-84108786D01*
X160041867Y-83967222D01*
X160027367Y-83820000D01*
X160041867Y-83672778D01*
X160084810Y-83531214D01*
X160154546Y-83400748D01*
X160178992Y-83370960D01*
X160248393Y-83286393D01*
X160332960Y-83216992D01*
X160362748Y-83192546D01*
X160493214Y-83122810D01*
X160634778Y-83079867D01*
X160708335Y-83072622D01*
X160745112Y-83069000D01*
X160818888Y-83069000D01*
X160855665Y-83072622D01*
X160855665Y-83072622D01*
G37*
G36*
X143168823Y-81711313D02*
G01*
X143329242Y-81759976D01*
X143461906Y-81830886D01*
X143477078Y-81838996D01*
X143606659Y-81945341D01*
X143713004Y-82074922D01*
X143713005Y-82074924D01*
X143792024Y-82222758D01*
X143840687Y-82383177D01*
X143857117Y-82550000D01*
X143840687Y-82716823D01*
X143792024Y-82877242D01*
X143742978Y-82969000D01*
X143713004Y-83025078D01*
X143606659Y-83154659D01*
X143477078Y-83261004D01*
X143477076Y-83261005D01*
X143329242Y-83340024D01*
X143329239Y-83340025D01*
X143299380Y-83349083D01*
X143168823Y-83388687D01*
X143043804Y-83401000D01*
X142960196Y-83401000D01*
X142835177Y-83388687D01*
X142704620Y-83349083D01*
X142674761Y-83340025D01*
X142674758Y-83340024D01*
X142526924Y-83261005D01*
X142526922Y-83261004D01*
X142397341Y-83154659D01*
X142290996Y-83025078D01*
X142261022Y-82969000D01*
X142211976Y-82877242D01*
X142163313Y-82716823D01*
X142146883Y-82550000D01*
X142163313Y-82383177D01*
X142211976Y-82222758D01*
X142290995Y-82074924D01*
X142290996Y-82074922D01*
X142397341Y-81945341D01*
X142526922Y-81838996D01*
X142542094Y-81830886D01*
X142674758Y-81759976D01*
X142835177Y-81711313D01*
X142960196Y-81699000D01*
X143043804Y-81699000D01*
X143168823Y-81711313D01*
X143168823Y-81711313D01*
G37*
G36*
X124118823Y-81711313D02*
G01*
X124279242Y-81759976D01*
X124411906Y-81830886D01*
X124427078Y-81838996D01*
X124556659Y-81945341D01*
X124663004Y-82074922D01*
X124663005Y-82074924D01*
X124742024Y-82222758D01*
X124790687Y-82383177D01*
X124807117Y-82550000D01*
X124790687Y-82716823D01*
X124742024Y-82877242D01*
X124692978Y-82969000D01*
X124663004Y-83025078D01*
X124556659Y-83154659D01*
X124427078Y-83261004D01*
X124427076Y-83261005D01*
X124279242Y-83340024D01*
X124279239Y-83340025D01*
X124249380Y-83349083D01*
X124118823Y-83388687D01*
X123993804Y-83401000D01*
X123910196Y-83401000D01*
X123785177Y-83388687D01*
X123654620Y-83349083D01*
X123624761Y-83340025D01*
X123624758Y-83340024D01*
X123476924Y-83261005D01*
X123476922Y-83261004D01*
X123347341Y-83154659D01*
X123240996Y-83025078D01*
X123211022Y-82969000D01*
X123161976Y-82877242D01*
X123113313Y-82716823D01*
X123096883Y-82550000D01*
X123113313Y-82383177D01*
X123161976Y-82222758D01*
X123240995Y-82074924D01*
X123240996Y-82074922D01*
X123347341Y-81945341D01*
X123476922Y-81838996D01*
X123492094Y-81830886D01*
X123624758Y-81759976D01*
X123785177Y-81711313D01*
X123910196Y-81699000D01*
X123993804Y-81699000D01*
X124118823Y-81711313D01*
X124118823Y-81711313D01*
G37*
G36*
X116498823Y-81711313D02*
G01*
X116659242Y-81759976D01*
X116791906Y-81830886D01*
X116807078Y-81838996D01*
X116936659Y-81945341D01*
X117043004Y-82074922D01*
X117043005Y-82074924D01*
X117122024Y-82222758D01*
X117170687Y-82383177D01*
X117187117Y-82550000D01*
X117170687Y-82716823D01*
X117122024Y-82877242D01*
X117072978Y-82969000D01*
X117043004Y-83025078D01*
X116936659Y-83154659D01*
X116807078Y-83261004D01*
X116807076Y-83261005D01*
X116659242Y-83340024D01*
X116659239Y-83340025D01*
X116629380Y-83349083D01*
X116498823Y-83388687D01*
X116373804Y-83401000D01*
X116290196Y-83401000D01*
X116165177Y-83388687D01*
X116034620Y-83349083D01*
X116004761Y-83340025D01*
X116004758Y-83340024D01*
X115856924Y-83261005D01*
X115856922Y-83261004D01*
X115727341Y-83154659D01*
X115620996Y-83025078D01*
X115591022Y-82969000D01*
X115541976Y-82877242D01*
X115493313Y-82716823D01*
X115476883Y-82550000D01*
X115493313Y-82383177D01*
X115541976Y-82222758D01*
X115620995Y-82074924D01*
X115620996Y-82074922D01*
X115727341Y-81945341D01*
X115856922Y-81838996D01*
X115872094Y-81830886D01*
X116004758Y-81759976D01*
X116165177Y-81711313D01*
X116290196Y-81699000D01*
X116373804Y-81699000D01*
X116498823Y-81711313D01*
X116498823Y-81711313D01*
G37*
G36*
X138088823Y-81711313D02*
G01*
X138249242Y-81759976D01*
X138381906Y-81830886D01*
X138397078Y-81838996D01*
X138526659Y-81945341D01*
X138633004Y-82074922D01*
X138633005Y-82074924D01*
X138712024Y-82222758D01*
X138760687Y-82383177D01*
X138777117Y-82550000D01*
X138760687Y-82716823D01*
X138712024Y-82877242D01*
X138662978Y-82969000D01*
X138633004Y-83025078D01*
X138526659Y-83154659D01*
X138397078Y-83261004D01*
X138397076Y-83261005D01*
X138249242Y-83340024D01*
X138249239Y-83340025D01*
X138219380Y-83349083D01*
X138088823Y-83388687D01*
X137963804Y-83401000D01*
X137880196Y-83401000D01*
X137755177Y-83388687D01*
X137624620Y-83349083D01*
X137594761Y-83340025D01*
X137594758Y-83340024D01*
X137446924Y-83261005D01*
X137446922Y-83261004D01*
X137317341Y-83154659D01*
X137210996Y-83025078D01*
X137181022Y-82969000D01*
X137131976Y-82877242D01*
X137083313Y-82716823D01*
X137066883Y-82550000D01*
X137083313Y-82383177D01*
X137131976Y-82222758D01*
X137210995Y-82074924D01*
X137210996Y-82074922D01*
X137317341Y-81945341D01*
X137446922Y-81838996D01*
X137462094Y-81830886D01*
X137594758Y-81759976D01*
X137755177Y-81711313D01*
X137880196Y-81699000D01*
X137963804Y-81699000D01*
X138088823Y-81711313D01*
X138088823Y-81711313D01*
G37*
G36*
X150788823Y-81711313D02*
G01*
X150949242Y-81759976D01*
X151081906Y-81830886D01*
X151097078Y-81838996D01*
X151226659Y-81945341D01*
X151333004Y-82074922D01*
X151333005Y-82074924D01*
X151412024Y-82222758D01*
X151460687Y-82383177D01*
X151477117Y-82550000D01*
X151460687Y-82716823D01*
X151412024Y-82877242D01*
X151362978Y-82969000D01*
X151333004Y-83025078D01*
X151226659Y-83154659D01*
X151097078Y-83261004D01*
X151097076Y-83261005D01*
X150949242Y-83340024D01*
X150949239Y-83340025D01*
X150919380Y-83349083D01*
X150788823Y-83388687D01*
X150663804Y-83401000D01*
X150580196Y-83401000D01*
X150455177Y-83388687D01*
X150324620Y-83349083D01*
X150294761Y-83340025D01*
X150294758Y-83340024D01*
X150146924Y-83261005D01*
X150146922Y-83261004D01*
X150017341Y-83154659D01*
X149910996Y-83025078D01*
X149881022Y-82969000D01*
X149831976Y-82877242D01*
X149783313Y-82716823D01*
X149766883Y-82550000D01*
X149783313Y-82383177D01*
X149831976Y-82222758D01*
X149910995Y-82074924D01*
X149910996Y-82074922D01*
X150017341Y-81945341D01*
X150146922Y-81838996D01*
X150162094Y-81830886D01*
X150294758Y-81759976D01*
X150455177Y-81711313D01*
X150580196Y-81699000D01*
X150663804Y-81699000D01*
X150788823Y-81711313D01*
X150788823Y-81711313D01*
G37*
G36*
X130468823Y-81711313D02*
G01*
X130629242Y-81759976D01*
X130761906Y-81830886D01*
X130777078Y-81838996D01*
X130906659Y-81945341D01*
X131013004Y-82074922D01*
X131013005Y-82074924D01*
X131092024Y-82222758D01*
X131140687Y-82383177D01*
X131157117Y-82550000D01*
X131140687Y-82716823D01*
X131092024Y-82877242D01*
X131042978Y-82969000D01*
X131013004Y-83025078D01*
X130906659Y-83154659D01*
X130777078Y-83261004D01*
X130777076Y-83261005D01*
X130629242Y-83340024D01*
X130629239Y-83340025D01*
X130599380Y-83349083D01*
X130468823Y-83388687D01*
X130343804Y-83401000D01*
X130260196Y-83401000D01*
X130135177Y-83388687D01*
X130004620Y-83349083D01*
X129974761Y-83340025D01*
X129974758Y-83340024D01*
X129826924Y-83261005D01*
X129826922Y-83261004D01*
X129697341Y-83154659D01*
X129590996Y-83025078D01*
X129561022Y-82969000D01*
X129511976Y-82877242D01*
X129463313Y-82716823D01*
X129446883Y-82550000D01*
X129463313Y-82383177D01*
X129511976Y-82222758D01*
X129590995Y-82074924D01*
X129590996Y-82074922D01*
X129697341Y-81945341D01*
X129826922Y-81838996D01*
X129842094Y-81830886D01*
X129974758Y-81759976D01*
X130135177Y-81711313D01*
X130260196Y-81699000D01*
X130343804Y-81699000D01*
X130468823Y-81711313D01*
X130468823Y-81711313D01*
G37*
G36*
X138088823Y-79171313D02*
G01*
X138249242Y-79219976D01*
X138342581Y-79269867D01*
X138397078Y-79298996D01*
X138526659Y-79405341D01*
X138633004Y-79534922D01*
X138633005Y-79534924D01*
X138712024Y-79682758D01*
X138760687Y-79843177D01*
X138777117Y-80010000D01*
X138760687Y-80176823D01*
X138712024Y-80337242D01*
X138650049Y-80453189D01*
X138633004Y-80485078D01*
X138526659Y-80614659D01*
X138397078Y-80721004D01*
X138397076Y-80721005D01*
X138249242Y-80800024D01*
X138088823Y-80848687D01*
X137963804Y-80861000D01*
X137880196Y-80861000D01*
X137755177Y-80848687D01*
X137594758Y-80800024D01*
X137446924Y-80721005D01*
X137446922Y-80721004D01*
X137317341Y-80614659D01*
X137210996Y-80485078D01*
X137193951Y-80453189D01*
X137131976Y-80337242D01*
X137083313Y-80176823D01*
X137066883Y-80010000D01*
X137083313Y-79843177D01*
X137131976Y-79682758D01*
X137210995Y-79534924D01*
X137210996Y-79534922D01*
X137317341Y-79405341D01*
X137446922Y-79298996D01*
X137501419Y-79269867D01*
X137594758Y-79219976D01*
X137755177Y-79171313D01*
X137880196Y-79159000D01*
X137963804Y-79159000D01*
X138088823Y-79171313D01*
X138088823Y-79171313D01*
G37*
G36*
X150788823Y-79171313D02*
G01*
X150949242Y-79219976D01*
X151042581Y-79269867D01*
X151097078Y-79298996D01*
X151226659Y-79405341D01*
X151333004Y-79534922D01*
X151333005Y-79534924D01*
X151412024Y-79682758D01*
X151460687Y-79843177D01*
X151477117Y-80010000D01*
X151460687Y-80176823D01*
X151412024Y-80337242D01*
X151350049Y-80453189D01*
X151333004Y-80485078D01*
X151226659Y-80614659D01*
X151097078Y-80721004D01*
X151097076Y-80721005D01*
X150949242Y-80800024D01*
X150788823Y-80848687D01*
X150663804Y-80861000D01*
X150580196Y-80861000D01*
X150455177Y-80848687D01*
X150294758Y-80800024D01*
X150146924Y-80721005D01*
X150146922Y-80721004D01*
X150017341Y-80614659D01*
X149910996Y-80485078D01*
X149893951Y-80453189D01*
X149831976Y-80337242D01*
X149783313Y-80176823D01*
X149766883Y-80010000D01*
X149783313Y-79843177D01*
X149831976Y-79682758D01*
X149910995Y-79534924D01*
X149910996Y-79534922D01*
X150017341Y-79405341D01*
X150146922Y-79298996D01*
X150201419Y-79269867D01*
X150294758Y-79219976D01*
X150455177Y-79171313D01*
X150580196Y-79159000D01*
X150663804Y-79159000D01*
X150788823Y-79171313D01*
X150788823Y-79171313D01*
G37*
G36*
X117183000Y-80861000D02*
G01*
X115481000Y-80861000D01*
X115481000Y-79159000D01*
X117183000Y-79159000D01*
X117183000Y-80861000D01*
X117183000Y-80861000D01*
G37*
G36*
X164880228Y-79191703D02*
G01*
X165035100Y-79255853D01*
X165174481Y-79348985D01*
X165293015Y-79467519D01*
X165386147Y-79606900D01*
X165450297Y-79761772D01*
X165483000Y-79926184D01*
X165483000Y-80093816D01*
X165450297Y-80258228D01*
X165386147Y-80413100D01*
X165293015Y-80552481D01*
X165174481Y-80671015D01*
X165035100Y-80764147D01*
X164880228Y-80828297D01*
X164715816Y-80861000D01*
X164548184Y-80861000D01*
X164383772Y-80828297D01*
X164228900Y-80764147D01*
X164089519Y-80671015D01*
X163970985Y-80552481D01*
X163877853Y-80413100D01*
X163813703Y-80258228D01*
X163781000Y-80093816D01*
X163781000Y-79926184D01*
X163813703Y-79761772D01*
X163877853Y-79606900D01*
X163970985Y-79467519D01*
X164089519Y-79348985D01*
X164228900Y-79255853D01*
X164383772Y-79191703D01*
X164548184Y-79159000D01*
X164715816Y-79159000D01*
X164880228Y-79191703D01*
X164880228Y-79191703D01*
G37*
G36*
X143853000Y-80861000D02*
G01*
X142151000Y-80861000D01*
X142151000Y-79159000D01*
X143853000Y-79159000D01*
X143853000Y-80861000D01*
X143853000Y-80861000D01*
G37*
G36*
X167380228Y-79191703D02*
G01*
X167535100Y-79255853D01*
X167674481Y-79348985D01*
X167793015Y-79467519D01*
X167886147Y-79606900D01*
X167950297Y-79761772D01*
X167983000Y-79926184D01*
X167983000Y-80093816D01*
X167950297Y-80258228D01*
X167886147Y-80413100D01*
X167793015Y-80552481D01*
X167674481Y-80671015D01*
X167535100Y-80764147D01*
X167380228Y-80828297D01*
X167215816Y-80861000D01*
X167048184Y-80861000D01*
X166883772Y-80828297D01*
X166728900Y-80764147D01*
X166589519Y-80671015D01*
X166470985Y-80552481D01*
X166377853Y-80413100D01*
X166313703Y-80258228D01*
X166281000Y-80093816D01*
X166281000Y-79926184D01*
X166313703Y-79761772D01*
X166377853Y-79606900D01*
X166470985Y-79467519D01*
X166589519Y-79348985D01*
X166728900Y-79255853D01*
X166883772Y-79191703D01*
X167048184Y-79159000D01*
X167215816Y-79159000D01*
X167380228Y-79191703D01*
X167380228Y-79191703D01*
G37*
G36*
X124118823Y-79171313D02*
G01*
X124279242Y-79219976D01*
X124372581Y-79269867D01*
X124427078Y-79298996D01*
X124556659Y-79405341D01*
X124663004Y-79534922D01*
X124663005Y-79534924D01*
X124742024Y-79682758D01*
X124790687Y-79843177D01*
X124807117Y-80010000D01*
X124790687Y-80176823D01*
X124742024Y-80337242D01*
X124680049Y-80453189D01*
X124663004Y-80485078D01*
X124556659Y-80614659D01*
X124427078Y-80721004D01*
X124427076Y-80721005D01*
X124279242Y-80800024D01*
X124118823Y-80848687D01*
X123993804Y-80861000D01*
X123910196Y-80861000D01*
X123785177Y-80848687D01*
X123624758Y-80800024D01*
X123476924Y-80721005D01*
X123476922Y-80721004D01*
X123347341Y-80614659D01*
X123240996Y-80485078D01*
X123223951Y-80453189D01*
X123161976Y-80337242D01*
X123113313Y-80176823D01*
X123096883Y-80010000D01*
X123113313Y-79843177D01*
X123161976Y-79682758D01*
X123240995Y-79534924D01*
X123240996Y-79534922D01*
X123347341Y-79405341D01*
X123476922Y-79298996D01*
X123531419Y-79269867D01*
X123624758Y-79219976D01*
X123785177Y-79171313D01*
X123910196Y-79159000D01*
X123993804Y-79159000D01*
X124118823Y-79171313D01*
X124118823Y-79171313D01*
G37*
G36*
X131153000Y-80861000D02*
G01*
X129451000Y-80861000D01*
X129451000Y-79159000D01*
X131153000Y-79159000D01*
X131153000Y-80861000D01*
X131153000Y-80861000D01*
G37*
G36*
X155775665Y-79262622D02*
G01*
X155849222Y-79269867D01*
X155990786Y-79312810D01*
X156121252Y-79382546D01*
X156149028Y-79405341D01*
X156235607Y-79476393D01*
X156305008Y-79560960D01*
X156329454Y-79590748D01*
X156399190Y-79721214D01*
X156442133Y-79862778D01*
X156456633Y-80010000D01*
X156442133Y-80157222D01*
X156399190Y-80298786D01*
X156329454Y-80429252D01*
X156305008Y-80459040D01*
X156235607Y-80543607D01*
X156175004Y-80593341D01*
X156121252Y-80637454D01*
X155990786Y-80707190D01*
X155849222Y-80750133D01*
X155775665Y-80757378D01*
X155738888Y-80761000D01*
X155665112Y-80761000D01*
X155628335Y-80757378D01*
X155554778Y-80750133D01*
X155413214Y-80707190D01*
X155282748Y-80637454D01*
X155228996Y-80593341D01*
X155168393Y-80543607D01*
X155098992Y-80459040D01*
X155074546Y-80429252D01*
X155004810Y-80298786D01*
X154961867Y-80157222D01*
X154947367Y-80010000D01*
X154961867Y-79862778D01*
X155004810Y-79721214D01*
X155074546Y-79590748D01*
X155098992Y-79560960D01*
X155168393Y-79476393D01*
X155254972Y-79405341D01*
X155282748Y-79382546D01*
X155413214Y-79312810D01*
X155554778Y-79269867D01*
X155628335Y-79262622D01*
X155665112Y-79259000D01*
X155738888Y-79259000D01*
X155775665Y-79262622D01*
X155775665Y-79262622D01*
G37*
G36*
X161001059Y-79287860D02*
G01*
X161061294Y-79312810D01*
X161137732Y-79344472D01*
X161260735Y-79426660D01*
X161365340Y-79531265D01*
X161447528Y-79654268D01*
X161504140Y-79790941D01*
X161533000Y-79936033D01*
X161533000Y-80083967D01*
X161504140Y-80229059D01*
X161447528Y-80365732D01*
X161365340Y-80488735D01*
X161260735Y-80593340D01*
X161137732Y-80675528D01*
X161137731Y-80675529D01*
X161137730Y-80675529D01*
X161001059Y-80732140D01*
X160855968Y-80761000D01*
X160708032Y-80761000D01*
X160562941Y-80732140D01*
X160426270Y-80675529D01*
X160426269Y-80675529D01*
X160426268Y-80675528D01*
X160303265Y-80593340D01*
X160198660Y-80488735D01*
X160116472Y-80365732D01*
X160059860Y-80229059D01*
X160031000Y-80083967D01*
X160031000Y-79936033D01*
X160059860Y-79790941D01*
X160116472Y-79654268D01*
X160198660Y-79531265D01*
X160303265Y-79426660D01*
X160426268Y-79344472D01*
X160502707Y-79312810D01*
X160562941Y-79287860D01*
X160708032Y-79259000D01*
X160855968Y-79259000D01*
X161001059Y-79287860D01*
X161001059Y-79287860D01*
G37*
G36*
X173555665Y-79008622D02*
G01*
X173629222Y-79015867D01*
X173770786Y-79058810D01*
X173901252Y-79128546D01*
X173931040Y-79152992D01*
X174015607Y-79222393D01*
X174069333Y-79287860D01*
X174109454Y-79336748D01*
X174179190Y-79467214D01*
X174222133Y-79608778D01*
X174236633Y-79756000D01*
X174222133Y-79903222D01*
X174179190Y-80044786D01*
X174109454Y-80175252D01*
X174085008Y-80205040D01*
X174015607Y-80289607D01*
X173931040Y-80359008D01*
X173901252Y-80383454D01*
X173770786Y-80453190D01*
X173629222Y-80496133D01*
X173555665Y-80503378D01*
X173518888Y-80507000D01*
X173445112Y-80507000D01*
X173408335Y-80503378D01*
X173334778Y-80496133D01*
X173193214Y-80453190D01*
X173062748Y-80383454D01*
X173032960Y-80359008D01*
X172948393Y-80289607D01*
X172878992Y-80205040D01*
X172854546Y-80175252D01*
X172784810Y-80044786D01*
X172741867Y-79903222D01*
X172727367Y-79756000D01*
X172741867Y-79608778D01*
X172784810Y-79467214D01*
X172854546Y-79336748D01*
X172894667Y-79287860D01*
X172948393Y-79222393D01*
X173032960Y-79152992D01*
X173062748Y-79128546D01*
X173193214Y-79058810D01*
X173334778Y-79015867D01*
X173408335Y-79008622D01*
X173445112Y-79005000D01*
X173518888Y-79005000D01*
X173555665Y-79008622D01*
X173555665Y-79008622D01*
G37*
G36*
X180109395Y-76301546D02*
G01*
X180282466Y-76373234D01*
X180282467Y-76373235D01*
X180438227Y-76477310D01*
X180570690Y-76609773D01*
X180616767Y-76678733D01*
X180674766Y-76765534D01*
X180746454Y-76938605D01*
X180783000Y-77122333D01*
X180783000Y-77309667D01*
X180746454Y-77493395D01*
X180674766Y-77666466D01*
X180674765Y-77666467D01*
X180570690Y-77822227D01*
X180438227Y-77954690D01*
X180359818Y-78007081D01*
X180282466Y-78058766D01*
X180109395Y-78130454D01*
X179925667Y-78167000D01*
X179738333Y-78167000D01*
X179554605Y-78130454D01*
X179381534Y-78058766D01*
X179304182Y-78007081D01*
X179225773Y-77954690D01*
X179093310Y-77822227D01*
X178989235Y-77666467D01*
X178989234Y-77666466D01*
X178917546Y-77493395D01*
X178881000Y-77309667D01*
X178881000Y-77122333D01*
X178917546Y-76938605D01*
X178989234Y-76765534D01*
X179047233Y-76678733D01*
X179093310Y-76609773D01*
X179225773Y-76477310D01*
X179381533Y-76373235D01*
X179381534Y-76373234D01*
X179554605Y-76301546D01*
X179738333Y-76265000D01*
X179925667Y-76265000D01*
X180109395Y-76301546D01*
X180109395Y-76301546D01*
G37*
G36*
X178243000Y-78167000D02*
G01*
X176341000Y-78167000D01*
X176341000Y-76265000D01*
X178243000Y-76265000D01*
X178243000Y-78167000D01*
X178243000Y-78167000D01*
G37*
G36*
X167340228Y-75381703D02*
G01*
X167495100Y-75445853D01*
X167634481Y-75538985D01*
X167753015Y-75657519D01*
X167846147Y-75796900D01*
X167910297Y-75951772D01*
X167943000Y-76116184D01*
X167943000Y-76283816D01*
X167910297Y-76448228D01*
X167846147Y-76603100D01*
X167753015Y-76742481D01*
X167634481Y-76861015D01*
X167495100Y-76954147D01*
X167340228Y-77018297D01*
X167175816Y-77051000D01*
X167008184Y-77051000D01*
X166843772Y-77018297D01*
X166688900Y-76954147D01*
X166549519Y-76861015D01*
X166430985Y-76742481D01*
X166337853Y-76603100D01*
X166273703Y-76448228D01*
X166241000Y-76283816D01*
X166241000Y-76116184D01*
X166273703Y-75951772D01*
X166337853Y-75796900D01*
X166430985Y-75657519D01*
X166549519Y-75538985D01*
X166688900Y-75445853D01*
X166843772Y-75381703D01*
X167008184Y-75349000D01*
X167175816Y-75349000D01*
X167340228Y-75381703D01*
X167340228Y-75381703D01*
G37*
G36*
X164840228Y-75381703D02*
G01*
X164995100Y-75445853D01*
X165134481Y-75538985D01*
X165253015Y-75657519D01*
X165346147Y-75796900D01*
X165410297Y-75951772D01*
X165443000Y-76116184D01*
X165443000Y-76283816D01*
X165410297Y-76448228D01*
X165346147Y-76603100D01*
X165253015Y-76742481D01*
X165134481Y-76861015D01*
X164995100Y-76954147D01*
X164840228Y-77018297D01*
X164675816Y-77051000D01*
X164508184Y-77051000D01*
X164343772Y-77018297D01*
X164188900Y-76954147D01*
X164049519Y-76861015D01*
X163930985Y-76742481D01*
X163837853Y-76603100D01*
X163773703Y-76448228D01*
X163741000Y-76283816D01*
X163741000Y-76116184D01*
X163773703Y-75951772D01*
X163837853Y-75796900D01*
X163930985Y-75657519D01*
X164049519Y-75538985D01*
X164188900Y-75445853D01*
X164343772Y-75381703D01*
X164508184Y-75349000D01*
X164675816Y-75349000D01*
X164840228Y-75381703D01*
X164840228Y-75381703D01*
G37*
G36*
X155921059Y-75477860D02*
G01*
X155981294Y-75502810D01*
X156057732Y-75534472D01*
X156180735Y-75616660D01*
X156285340Y-75721265D01*
X156367528Y-75844268D01*
X156424140Y-75980941D01*
X156453000Y-76126033D01*
X156453000Y-76273967D01*
X156424140Y-76419059D01*
X156367528Y-76555732D01*
X156285340Y-76678735D01*
X156180735Y-76783340D01*
X156057732Y-76865528D01*
X156057731Y-76865529D01*
X156057730Y-76865529D01*
X155921059Y-76922140D01*
X155775968Y-76951000D01*
X155628032Y-76951000D01*
X155482941Y-76922140D01*
X155346270Y-76865529D01*
X155346269Y-76865529D01*
X155346268Y-76865528D01*
X155223265Y-76783340D01*
X155118660Y-76678735D01*
X155036472Y-76555732D01*
X154979860Y-76419059D01*
X154951000Y-76273967D01*
X154951000Y-76126033D01*
X154979860Y-75980941D01*
X155036472Y-75844268D01*
X155118660Y-75721265D01*
X155223265Y-75616660D01*
X155346268Y-75534472D01*
X155422707Y-75502810D01*
X155482941Y-75477860D01*
X155628032Y-75449000D01*
X155775968Y-75449000D01*
X155921059Y-75477860D01*
X155921059Y-75477860D01*
G37*
G36*
X160855665Y-75452622D02*
G01*
X160929222Y-75459867D01*
X161070786Y-75502810D01*
X161201252Y-75572546D01*
X161231040Y-75596992D01*
X161315607Y-75666393D01*
X161385008Y-75750960D01*
X161409454Y-75780748D01*
X161479190Y-75911214D01*
X161522133Y-76052778D01*
X161536633Y-76200000D01*
X161522133Y-76347222D01*
X161479190Y-76488786D01*
X161409454Y-76619252D01*
X161385008Y-76649040D01*
X161315607Y-76733607D01*
X161255004Y-76783341D01*
X161201252Y-76827454D01*
X161070786Y-76897190D01*
X160929222Y-76940133D01*
X160855665Y-76947378D01*
X160818888Y-76951000D01*
X160745112Y-76951000D01*
X160708335Y-76947378D01*
X160634778Y-76940133D01*
X160493214Y-76897190D01*
X160362748Y-76827454D01*
X160308996Y-76783341D01*
X160248393Y-76733607D01*
X160178992Y-76649040D01*
X160154546Y-76619252D01*
X160084810Y-76488786D01*
X160041867Y-76347222D01*
X160027367Y-76200000D01*
X160041867Y-76052778D01*
X160084810Y-75911214D01*
X160154546Y-75780748D01*
X160178992Y-75750960D01*
X160248393Y-75666393D01*
X160332960Y-75596992D01*
X160362748Y-75572546D01*
X160493214Y-75502810D01*
X160634778Y-75459867D01*
X160708335Y-75452622D01*
X160745112Y-75449000D01*
X160818888Y-75449000D01*
X160855665Y-75452622D01*
X160855665Y-75452622D01*
G37*
G36*
X173701059Y-73953860D02*
G01*
X173837732Y-74010472D01*
X173960735Y-74092660D01*
X174065340Y-74197265D01*
X174147528Y-74320268D01*
X174204140Y-74456941D01*
X174233000Y-74602033D01*
X174233000Y-74749967D01*
X174204140Y-74895059D01*
X174147528Y-75031732D01*
X174065340Y-75154735D01*
X173960735Y-75259340D01*
X173837732Y-75341528D01*
X173837731Y-75341529D01*
X173837730Y-75341529D01*
X173701059Y-75398140D01*
X173555968Y-75427000D01*
X173408032Y-75427000D01*
X173262941Y-75398140D01*
X173126270Y-75341529D01*
X173126269Y-75341529D01*
X173126268Y-75341528D01*
X173003265Y-75259340D01*
X172898660Y-75154735D01*
X172816472Y-75031732D01*
X172759860Y-74895059D01*
X172731000Y-74749967D01*
X172731000Y-74602033D01*
X172759860Y-74456941D01*
X172816472Y-74320268D01*
X172898660Y-74197265D01*
X173003265Y-74092660D01*
X173126268Y-74010472D01*
X173262941Y-73953860D01*
X173408032Y-73925000D01*
X173555968Y-73925000D01*
X173701059Y-73953860D01*
X173701059Y-73953860D01*
G37*
G36*
X151078564Y-72069389D02*
G01*
X151269833Y-72148615D01*
X151269835Y-72148616D01*
X151441973Y-72263635D01*
X151588365Y-72410027D01*
X151703385Y-72582167D01*
X151782611Y-72773436D01*
X151823000Y-72976484D01*
X151823000Y-73183516D01*
X151782611Y-73386564D01*
X151703385Y-73577833D01*
X151703384Y-73577835D01*
X151588365Y-73749973D01*
X151441973Y-73896365D01*
X151269835Y-74011384D01*
X151269834Y-74011385D01*
X151269833Y-74011385D01*
X151078564Y-74090611D01*
X150875516Y-74131000D01*
X150668484Y-74131000D01*
X150465436Y-74090611D01*
X150274167Y-74011385D01*
X150274166Y-74011385D01*
X150274165Y-74011384D01*
X150102027Y-73896365D01*
X149955635Y-73749973D01*
X149840616Y-73577835D01*
X149840615Y-73577833D01*
X149761389Y-73386564D01*
X149721000Y-73183516D01*
X149721000Y-72976484D01*
X149761389Y-72773436D01*
X149840615Y-72582167D01*
X149955635Y-72410027D01*
X150102027Y-72263635D01*
X150274165Y-72148616D01*
X150274167Y-72148615D01*
X150465436Y-72069389D01*
X150668484Y-72029000D01*
X150875516Y-72029000D01*
X151078564Y-72069389D01*
X151078564Y-72069389D01*
G37*
G36*
X144578564Y-72069389D02*
G01*
X144769833Y-72148615D01*
X144769835Y-72148616D01*
X144941973Y-72263635D01*
X145088365Y-72410027D01*
X145203385Y-72582167D01*
X145282611Y-72773436D01*
X145323000Y-72976484D01*
X145323000Y-73183516D01*
X145282611Y-73386564D01*
X145203385Y-73577833D01*
X145203384Y-73577835D01*
X145088365Y-73749973D01*
X144941973Y-73896365D01*
X144769835Y-74011384D01*
X144769834Y-74011385D01*
X144769833Y-74011385D01*
X144578564Y-74090611D01*
X144375516Y-74131000D01*
X144168484Y-74131000D01*
X143965436Y-74090611D01*
X143774167Y-74011385D01*
X143774166Y-74011385D01*
X143774165Y-74011384D01*
X143602027Y-73896365D01*
X143455635Y-73749973D01*
X143340616Y-73577835D01*
X143340615Y-73577833D01*
X143261389Y-73386564D01*
X143221000Y-73183516D01*
X143221000Y-72976484D01*
X143261389Y-72773436D01*
X143340615Y-72582167D01*
X143455635Y-72410027D01*
X143602027Y-72263635D01*
X143774165Y-72148616D01*
X143774167Y-72148615D01*
X143965436Y-72069389D01*
X144168484Y-72029000D01*
X144375516Y-72029000D01*
X144578564Y-72069389D01*
X144578564Y-72069389D01*
G37*
G36*
X134798564Y-70029389D02*
G01*
X134989833Y-70108615D01*
X134989835Y-70108616D01*
X135161973Y-70223635D01*
X135308365Y-70370027D01*
X135417429Y-70533252D01*
X135423385Y-70542167D01*
X135502611Y-70733436D01*
X135543000Y-70936484D01*
X135543000Y-71143516D01*
X135502611Y-71346564D01*
X135423385Y-71537833D01*
X135423384Y-71537835D01*
X135308365Y-71709973D01*
X135161973Y-71856365D01*
X134989835Y-71971384D01*
X134989834Y-71971385D01*
X134989833Y-71971385D01*
X134798564Y-72050611D01*
X134595516Y-72091000D01*
X134388484Y-72091000D01*
X134185436Y-72050611D01*
X133994167Y-71971385D01*
X133994166Y-71971385D01*
X133994165Y-71971384D01*
X133822027Y-71856365D01*
X133675635Y-71709973D01*
X133560616Y-71537835D01*
X133560615Y-71537833D01*
X133481389Y-71346564D01*
X133441000Y-71143516D01*
X133441000Y-70936484D01*
X133481389Y-70733436D01*
X133560615Y-70542167D01*
X133566572Y-70533252D01*
X133675635Y-70370027D01*
X133822027Y-70223635D01*
X133994165Y-70108616D01*
X133994167Y-70108615D01*
X134185436Y-70029389D01*
X134388484Y-69989000D01*
X134595516Y-69989000D01*
X134798564Y-70029389D01*
X134798564Y-70029389D01*
G37*
G36*
X130798564Y-70029389D02*
G01*
X130989833Y-70108615D01*
X130989835Y-70108616D01*
X131161973Y-70223635D01*
X131308365Y-70370027D01*
X131417429Y-70533252D01*
X131423385Y-70542167D01*
X131502611Y-70733436D01*
X131543000Y-70936484D01*
X131543000Y-71143516D01*
X131502611Y-71346564D01*
X131423385Y-71537833D01*
X131423384Y-71537835D01*
X131308365Y-71709973D01*
X131161973Y-71856365D01*
X130989835Y-71971384D01*
X130989834Y-71971385D01*
X130989833Y-71971385D01*
X130798564Y-72050611D01*
X130595516Y-72091000D01*
X130388484Y-72091000D01*
X130185436Y-72050611D01*
X129994167Y-71971385D01*
X129994166Y-71971385D01*
X129994165Y-71971384D01*
X129822027Y-71856365D01*
X129675635Y-71709973D01*
X129560616Y-71537835D01*
X129560615Y-71537833D01*
X129481389Y-71346564D01*
X129441000Y-71143516D01*
X129441000Y-70936484D01*
X129481389Y-70733436D01*
X129560615Y-70542167D01*
X129566572Y-70533252D01*
X129675635Y-70370027D01*
X129822027Y-70223635D01*
X129994165Y-70108616D01*
X129994167Y-70108615D01*
X130185436Y-70029389D01*
X130388484Y-69989000D01*
X130595516Y-69989000D01*
X130798564Y-70029389D01*
X130798564Y-70029389D01*
G37*
G36*
X126798564Y-70029389D02*
G01*
X126989833Y-70108615D01*
X126989835Y-70108616D01*
X127161973Y-70223635D01*
X127308365Y-70370027D01*
X127417429Y-70533252D01*
X127423385Y-70542167D01*
X127502611Y-70733436D01*
X127543000Y-70936484D01*
X127543000Y-71143516D01*
X127502611Y-71346564D01*
X127423385Y-71537833D01*
X127423384Y-71537835D01*
X127308365Y-71709973D01*
X127161973Y-71856365D01*
X126989835Y-71971384D01*
X126989834Y-71971385D01*
X126989833Y-71971385D01*
X126798564Y-72050611D01*
X126595516Y-72091000D01*
X126388484Y-72091000D01*
X126185436Y-72050611D01*
X125994167Y-71971385D01*
X125994166Y-71971385D01*
X125994165Y-71971384D01*
X125822027Y-71856365D01*
X125675635Y-71709973D01*
X125560616Y-71537835D01*
X125560615Y-71537833D01*
X125481389Y-71346564D01*
X125441000Y-71143516D01*
X125441000Y-70936484D01*
X125481389Y-70733436D01*
X125560615Y-70542167D01*
X125566572Y-70533252D01*
X125675635Y-70370027D01*
X125822027Y-70223635D01*
X125994165Y-70108616D01*
X125994167Y-70108615D01*
X126185436Y-70029389D01*
X126388484Y-69989000D01*
X126595516Y-69989000D01*
X126798564Y-70029389D01*
X126798564Y-70029389D01*
G37*
G36*
X169920228Y-70301703D02*
G01*
X170075100Y-70365853D01*
X170214481Y-70458985D01*
X170333015Y-70577519D01*
X170426147Y-70716900D01*
X170490297Y-70871772D01*
X170523000Y-71036184D01*
X170523000Y-71203816D01*
X170490297Y-71368228D01*
X170426147Y-71523100D01*
X170333015Y-71662481D01*
X170214481Y-71781015D01*
X170075100Y-71874147D01*
X169920228Y-71938297D01*
X169755816Y-71971000D01*
X169588184Y-71971000D01*
X169423772Y-71938297D01*
X169268900Y-71874147D01*
X169129519Y-71781015D01*
X169010985Y-71662481D01*
X168917853Y-71523100D01*
X168853703Y-71368228D01*
X168821000Y-71203816D01*
X168821000Y-71036184D01*
X168853703Y-70871772D01*
X168917853Y-70716900D01*
X169010985Y-70577519D01*
X169129519Y-70458985D01*
X169268900Y-70365853D01*
X169423772Y-70301703D01*
X169588184Y-70269000D01*
X169755816Y-70269000D01*
X169920228Y-70301703D01*
X169920228Y-70301703D01*
G37*
G36*
X167420228Y-70301703D02*
G01*
X167575100Y-70365853D01*
X167714481Y-70458985D01*
X167833015Y-70577519D01*
X167926147Y-70716900D01*
X167990297Y-70871772D01*
X168023000Y-71036184D01*
X168023000Y-71203816D01*
X167990297Y-71368228D01*
X167926147Y-71523100D01*
X167833015Y-71662481D01*
X167714481Y-71781015D01*
X167575100Y-71874147D01*
X167420228Y-71938297D01*
X167255816Y-71971000D01*
X167088184Y-71971000D01*
X166923772Y-71938297D01*
X166768900Y-71874147D01*
X166629519Y-71781015D01*
X166510985Y-71662481D01*
X166417853Y-71523100D01*
X166353703Y-71368228D01*
X166321000Y-71203816D01*
X166321000Y-71036184D01*
X166353703Y-70871772D01*
X166417853Y-70716900D01*
X166510985Y-70577519D01*
X166629519Y-70458985D01*
X166768900Y-70365853D01*
X166923772Y-70301703D01*
X167088184Y-70269000D01*
X167255816Y-70269000D01*
X167420228Y-70301703D01*
X167420228Y-70301703D01*
G37*
G36*
X158367589Y-69088876D02*
G01*
X158466893Y-69108629D01*
X158607206Y-69166748D01*
X158733484Y-69251125D01*
X158840875Y-69358516D01*
X158925252Y-69484794D01*
X158983371Y-69625107D01*
X159013000Y-69774063D01*
X159013000Y-69925937D01*
X158983371Y-70074893D01*
X158925252Y-70215206D01*
X158840875Y-70341484D01*
X158733484Y-70448875D01*
X158607206Y-70533252D01*
X158466893Y-70591371D01*
X158367589Y-70611124D01*
X158317938Y-70621000D01*
X158166062Y-70621000D01*
X158116411Y-70611124D01*
X158017107Y-70591371D01*
X157876794Y-70533252D01*
X157750516Y-70448875D01*
X157643125Y-70341484D01*
X157558748Y-70215206D01*
X157500629Y-70074893D01*
X157471000Y-69925937D01*
X157471000Y-69774063D01*
X157500629Y-69625107D01*
X157558748Y-69484794D01*
X157643125Y-69358516D01*
X157750516Y-69251125D01*
X157876794Y-69166748D01*
X158017107Y-69108629D01*
X158116411Y-69088876D01*
X158166062Y-69079000D01*
X158317938Y-69079000D01*
X158367589Y-69088876D01*
X158367589Y-69088876D01*
G37*
G36*
X160907589Y-69088876D02*
G01*
X161006893Y-69108629D01*
X161147206Y-69166748D01*
X161273484Y-69251125D01*
X161380875Y-69358516D01*
X161465252Y-69484794D01*
X161523371Y-69625107D01*
X161553000Y-69774063D01*
X161553000Y-69925937D01*
X161523371Y-70074893D01*
X161465252Y-70215206D01*
X161380875Y-70341484D01*
X161273484Y-70448875D01*
X161147206Y-70533252D01*
X161006893Y-70591371D01*
X160907589Y-70611124D01*
X160857938Y-70621000D01*
X160706062Y-70621000D01*
X160656411Y-70611124D01*
X160557107Y-70591371D01*
X160416794Y-70533252D01*
X160290516Y-70448875D01*
X160183125Y-70341484D01*
X160098748Y-70215206D01*
X160040629Y-70074893D01*
X160011000Y-69925937D01*
X160011000Y-69774063D01*
X160040629Y-69625107D01*
X160098748Y-69484794D01*
X160183125Y-69358516D01*
X160290516Y-69251125D01*
X160416794Y-69166748D01*
X160557107Y-69108629D01*
X160656411Y-69088876D01*
X160706062Y-69079000D01*
X160857938Y-69079000D01*
X160907589Y-69088876D01*
X160907589Y-69088876D01*
G37*
G36*
X163447589Y-69088876D02*
G01*
X163546893Y-69108629D01*
X163687206Y-69166748D01*
X163813484Y-69251125D01*
X163920875Y-69358516D01*
X164005252Y-69484794D01*
X164063371Y-69625107D01*
X164093000Y-69774063D01*
X164093000Y-69925937D01*
X164063371Y-70074893D01*
X164005252Y-70215206D01*
X163920875Y-70341484D01*
X163813484Y-70448875D01*
X163687206Y-70533252D01*
X163546893Y-70591371D01*
X163447589Y-70611124D01*
X163397938Y-70621000D01*
X163246062Y-70621000D01*
X163196411Y-70611124D01*
X163097107Y-70591371D01*
X162956794Y-70533252D01*
X162830516Y-70448875D01*
X162723125Y-70341484D01*
X162638748Y-70215206D01*
X162580629Y-70074893D01*
X162551000Y-69925937D01*
X162551000Y-69774063D01*
X162580629Y-69625107D01*
X162638748Y-69484794D01*
X162723125Y-69358516D01*
X162830516Y-69251125D01*
X162956794Y-69166748D01*
X163097107Y-69108629D01*
X163196411Y-69088876D01*
X163246062Y-69079000D01*
X163397938Y-69079000D01*
X163447589Y-69088876D01*
X163447589Y-69088876D01*
G37*
G36*
X151078564Y-67569389D02*
G01*
X151269833Y-67648615D01*
X151269835Y-67648616D01*
X151441973Y-67763635D01*
X151588365Y-67910027D01*
X151703385Y-68082167D01*
X151782611Y-68273436D01*
X151823000Y-68476484D01*
X151823000Y-68683516D01*
X151782611Y-68886564D01*
X151703385Y-69077833D01*
X151703384Y-69077835D01*
X151588365Y-69249973D01*
X151441973Y-69396365D01*
X151269835Y-69511384D01*
X151269834Y-69511385D01*
X151269833Y-69511385D01*
X151078564Y-69590611D01*
X150875516Y-69631000D01*
X150668484Y-69631000D01*
X150465436Y-69590611D01*
X150274167Y-69511385D01*
X150274166Y-69511385D01*
X150274165Y-69511384D01*
X150102027Y-69396365D01*
X149955635Y-69249973D01*
X149840616Y-69077835D01*
X149840615Y-69077833D01*
X149761389Y-68886564D01*
X149721000Y-68683516D01*
X149721000Y-68476484D01*
X149761389Y-68273436D01*
X149840615Y-68082167D01*
X149955635Y-67910027D01*
X150102027Y-67763635D01*
X150274165Y-67648616D01*
X150274167Y-67648615D01*
X150465436Y-67569389D01*
X150668484Y-67529000D01*
X150875516Y-67529000D01*
X151078564Y-67569389D01*
X151078564Y-67569389D01*
G37*
G36*
X144578564Y-67569389D02*
G01*
X144769833Y-67648615D01*
X144769835Y-67648616D01*
X144941973Y-67763635D01*
X145088365Y-67910027D01*
X145203385Y-68082167D01*
X145282611Y-68273436D01*
X145323000Y-68476484D01*
X145323000Y-68683516D01*
X145282611Y-68886564D01*
X145203385Y-69077833D01*
X145203384Y-69077835D01*
X145088365Y-69249973D01*
X144941973Y-69396365D01*
X144769835Y-69511384D01*
X144769834Y-69511385D01*
X144769833Y-69511385D01*
X144578564Y-69590611D01*
X144375516Y-69631000D01*
X144168484Y-69631000D01*
X143965436Y-69590611D01*
X143774167Y-69511385D01*
X143774166Y-69511385D01*
X143774165Y-69511384D01*
X143602027Y-69396365D01*
X143455635Y-69249973D01*
X143340616Y-69077835D01*
X143340615Y-69077833D01*
X143261389Y-68886564D01*
X143221000Y-68683516D01*
X143221000Y-68476484D01*
X143261389Y-68273436D01*
X143340615Y-68082167D01*
X143455635Y-67910027D01*
X143602027Y-67763635D01*
X143774165Y-67648616D01*
X143774167Y-67648615D01*
X143965436Y-67569389D01*
X144168484Y-67529000D01*
X144375516Y-67529000D01*
X144578564Y-67569389D01*
X144578564Y-67569389D01*
G37*
G36*
X134798564Y-65029389D02*
G01*
X134989833Y-65108615D01*
X134989835Y-65108616D01*
X135161973Y-65223635D01*
X135308365Y-65370027D01*
X135423385Y-65542167D01*
X135502611Y-65733436D01*
X135543000Y-65936484D01*
X135543000Y-66143516D01*
X135502611Y-66346564D01*
X135441324Y-66494524D01*
X135423384Y-66537835D01*
X135308365Y-66709973D01*
X135161973Y-66856365D01*
X134989835Y-66971384D01*
X134989834Y-66971385D01*
X134989833Y-66971385D01*
X134798564Y-67050611D01*
X134595516Y-67091000D01*
X134388484Y-67091000D01*
X134185436Y-67050611D01*
X133994167Y-66971385D01*
X133994166Y-66971385D01*
X133994165Y-66971384D01*
X133822027Y-66856365D01*
X133675635Y-66709973D01*
X133560616Y-66537835D01*
X133542676Y-66494524D01*
X133481389Y-66346564D01*
X133441000Y-66143516D01*
X133441000Y-65936484D01*
X133481389Y-65733436D01*
X133560615Y-65542167D01*
X133675635Y-65370027D01*
X133822027Y-65223635D01*
X133994165Y-65108616D01*
X133994167Y-65108615D01*
X134185436Y-65029389D01*
X134388484Y-64989000D01*
X134595516Y-64989000D01*
X134798564Y-65029389D01*
X134798564Y-65029389D01*
G37*
G36*
X130798564Y-65029389D02*
G01*
X130989833Y-65108615D01*
X130989835Y-65108616D01*
X131161973Y-65223635D01*
X131308365Y-65370027D01*
X131423385Y-65542167D01*
X131502611Y-65733436D01*
X131543000Y-65936484D01*
X131543000Y-66143516D01*
X131502611Y-66346564D01*
X131441324Y-66494524D01*
X131423384Y-66537835D01*
X131308365Y-66709973D01*
X131161973Y-66856365D01*
X130989835Y-66971384D01*
X130989834Y-66971385D01*
X130989833Y-66971385D01*
X130798564Y-67050611D01*
X130595516Y-67091000D01*
X130388484Y-67091000D01*
X130185436Y-67050611D01*
X129994167Y-66971385D01*
X129994166Y-66971385D01*
X129994165Y-66971384D01*
X129822027Y-66856365D01*
X129675635Y-66709973D01*
X129560616Y-66537835D01*
X129542676Y-66494524D01*
X129481389Y-66346564D01*
X129441000Y-66143516D01*
X129441000Y-65936484D01*
X129481389Y-65733436D01*
X129560615Y-65542167D01*
X129675635Y-65370027D01*
X129822027Y-65223635D01*
X129994165Y-65108616D01*
X129994167Y-65108615D01*
X130185436Y-65029389D01*
X130388484Y-64989000D01*
X130595516Y-64989000D01*
X130798564Y-65029389D01*
X130798564Y-65029389D01*
G37*
G36*
X127543000Y-67091000D02*
G01*
X125441000Y-67091000D01*
X125441000Y-64989000D01*
X127543000Y-64989000D01*
X127543000Y-67091000D01*
X127543000Y-67091000D01*
G37*
G36*
X116899626Y-62898783D02*
G01*
X117253775Y-63045476D01*
X117253777Y-63045477D01*
X117572503Y-63258443D01*
X117843557Y-63529497D01*
X118056523Y-63848223D01*
X118056524Y-63848225D01*
X118203217Y-64202374D01*
X118278000Y-64578334D01*
X118278000Y-64961666D01*
X118203217Y-65337626D01*
X118056524Y-65691775D01*
X118056523Y-65691777D01*
X117843557Y-66010503D01*
X117572503Y-66281557D01*
X117253777Y-66494523D01*
X117253776Y-66494524D01*
X117253775Y-66494524D01*
X116899626Y-66641217D01*
X116523666Y-66716000D01*
X116140334Y-66716000D01*
X115764374Y-66641217D01*
X115410225Y-66494524D01*
X115410224Y-66494524D01*
X115410223Y-66494523D01*
X115091497Y-66281557D01*
X114820443Y-66010503D01*
X114607477Y-65691777D01*
X114607476Y-65691775D01*
X114460783Y-65337626D01*
X114386000Y-64961666D01*
X114386000Y-64578334D01*
X114460783Y-64202374D01*
X114607476Y-63848225D01*
X114607477Y-63848223D01*
X114820443Y-63529497D01*
X115091497Y-63258443D01*
X115410223Y-63045477D01*
X115410225Y-63045476D01*
X115764374Y-62898783D01*
X116140334Y-62824000D01*
X116523666Y-62824000D01*
X116899626Y-62898783D01*
X116899626Y-62898783D01*
G37*
G36*
X179129626Y-62898783D02*
G01*
X179483775Y-63045476D01*
X179483777Y-63045477D01*
X179802503Y-63258443D01*
X180073557Y-63529497D01*
X180286523Y-63848223D01*
X180286524Y-63848225D01*
X180433217Y-64202374D01*
X180508000Y-64578334D01*
X180508000Y-64961666D01*
X180433217Y-65337626D01*
X180286524Y-65691775D01*
X180286523Y-65691777D01*
X180073557Y-66010503D01*
X179802503Y-66281557D01*
X179483777Y-66494523D01*
X179483776Y-66494524D01*
X179483775Y-66494524D01*
X179129626Y-66641217D01*
X178753666Y-66716000D01*
X178370334Y-66716000D01*
X177994374Y-66641217D01*
X177640225Y-66494524D01*
X177640224Y-66494524D01*
X177640223Y-66494523D01*
X177321497Y-66281557D01*
X177050443Y-66010503D01*
X176837477Y-65691777D01*
X176837476Y-65691775D01*
X176690783Y-65337626D01*
X176616000Y-64961666D01*
X176616000Y-64578334D01*
X176690783Y-64202374D01*
X176837476Y-63848225D01*
X176837477Y-63848223D01*
X177050443Y-63529497D01*
X177321497Y-63258443D01*
X177640223Y-63045477D01*
X177640225Y-63045476D01*
X177994374Y-62898783D01*
X178370334Y-62824000D01*
X178753666Y-62824000D01*
X179129626Y-62898783D01*
X179129626Y-62898783D01*
G37*
M02*
