G04 #@! TF.GenerationSoftware,KiCad,Pcbnew,(5.1.2-1)-1*
G04 #@! TF.CreationDate,2019-08-26T07:59:11+10:00*
G04 #@! TF.ProjectId,Clock,436c6f63-6b2e-46b6-9963-61645f706362,v01*
G04 #@! TF.SameCoordinates,Original*
G04 #@! TF.FileFunction,Copper,L2,Bot*
G04 #@! TF.FilePolarity,Positive*
%FSLAX46Y46*%
G04 Gerber Fmt 4.6, Leading zero omitted, Abs format (unit mm)*
G04 Created by KiCad (PCBNEW (5.1.2-1)-1) date 2019-08-26 07:59:11*
%MOMM*%
%LPD*%
G04 APERTURE LIST*
%ADD10C,3.790000*%
%ADD11C,1.600000*%
%ADD12R,1.800000X1.800000*%
%ADD13C,1.800000*%
%ADD14C,0.100000*%
%ADD15C,1.200000*%
%ADD16O,1.200000X1.750000*%
%ADD17O,1.400000X1.400000*%
%ADD18C,1.400000*%
%ADD19C,1.440000*%
%ADD20C,2.000000*%
%ADD21R,2.000000X2.000000*%
%ADD22O,1.600000X1.600000*%
%ADD23R,1.600000X1.600000*%
%ADD24C,0.800000*%
%ADD25C,0.250000*%
%ADD26C,0.254000*%
G04 APERTURE END LIST*
D10*
X116332000Y-118110000D03*
X116332000Y-64770000D03*
X178562000Y-64770000D03*
X178562000Y-118110000D03*
D11*
X164592000Y-76200000D03*
X167092000Y-76200000D03*
X167132000Y-80010000D03*
X164632000Y-80010000D03*
X164592000Y-83820000D03*
X167092000Y-83820000D03*
X167132000Y-87630000D03*
X164632000Y-87630000D03*
X164592000Y-91440000D03*
X167092000Y-91440000D03*
X167092000Y-95250000D03*
X164592000Y-95250000D03*
X167172000Y-71120000D03*
X169672000Y-71120000D03*
D12*
X177292000Y-103886000D03*
D13*
X179832000Y-103886000D03*
D12*
X177292000Y-77216000D03*
D13*
X179832000Y-77216000D03*
X179832000Y-91186000D03*
D12*
X177292000Y-91186000D03*
D14*
G36*
X154806505Y-115966204D02*
G01*
X154830773Y-115969804D01*
X154854572Y-115975765D01*
X154877671Y-115984030D01*
X154899850Y-115994520D01*
X154920893Y-116007132D01*
X154940599Y-116021747D01*
X154958777Y-116038223D01*
X154975253Y-116056401D01*
X154989868Y-116076107D01*
X155002480Y-116097150D01*
X155012970Y-116119329D01*
X155021235Y-116142428D01*
X155027196Y-116166227D01*
X155030796Y-116190495D01*
X155032000Y-116214999D01*
X155032000Y-117465001D01*
X155030796Y-117489505D01*
X155027196Y-117513773D01*
X155021235Y-117537572D01*
X155012970Y-117560671D01*
X155002480Y-117582850D01*
X154989868Y-117603893D01*
X154975253Y-117623599D01*
X154958777Y-117641777D01*
X154940599Y-117658253D01*
X154920893Y-117672868D01*
X154899850Y-117685480D01*
X154877671Y-117695970D01*
X154854572Y-117704235D01*
X154830773Y-117710196D01*
X154806505Y-117713796D01*
X154782001Y-117715000D01*
X154081999Y-117715000D01*
X154057495Y-117713796D01*
X154033227Y-117710196D01*
X154009428Y-117704235D01*
X153986329Y-117695970D01*
X153964150Y-117685480D01*
X153943107Y-117672868D01*
X153923401Y-117658253D01*
X153905223Y-117641777D01*
X153888747Y-117623599D01*
X153874132Y-117603893D01*
X153861520Y-117582850D01*
X153851030Y-117560671D01*
X153842765Y-117537572D01*
X153836804Y-117513773D01*
X153833204Y-117489505D01*
X153832000Y-117465001D01*
X153832000Y-116214999D01*
X153833204Y-116190495D01*
X153836804Y-116166227D01*
X153842765Y-116142428D01*
X153851030Y-116119329D01*
X153861520Y-116097150D01*
X153874132Y-116076107D01*
X153888747Y-116056401D01*
X153905223Y-116038223D01*
X153923401Y-116021747D01*
X153943107Y-116007132D01*
X153964150Y-115994520D01*
X153986329Y-115984030D01*
X154009428Y-115975765D01*
X154033227Y-115969804D01*
X154057495Y-115966204D01*
X154081999Y-115965000D01*
X154782001Y-115965000D01*
X154806505Y-115966204D01*
X154806505Y-115966204D01*
G37*
D15*
X154432000Y-116840000D03*
D16*
X156432000Y-116840000D03*
D14*
G36*
X164966505Y-115966204D02*
G01*
X164990773Y-115969804D01*
X165014572Y-115975765D01*
X165037671Y-115984030D01*
X165059850Y-115994520D01*
X165080893Y-116007132D01*
X165100599Y-116021747D01*
X165118777Y-116038223D01*
X165135253Y-116056401D01*
X165149868Y-116076107D01*
X165162480Y-116097150D01*
X165172970Y-116119329D01*
X165181235Y-116142428D01*
X165187196Y-116166227D01*
X165190796Y-116190495D01*
X165192000Y-116214999D01*
X165192000Y-117465001D01*
X165190796Y-117489505D01*
X165187196Y-117513773D01*
X165181235Y-117537572D01*
X165172970Y-117560671D01*
X165162480Y-117582850D01*
X165149868Y-117603893D01*
X165135253Y-117623599D01*
X165118777Y-117641777D01*
X165100599Y-117658253D01*
X165080893Y-117672868D01*
X165059850Y-117685480D01*
X165037671Y-117695970D01*
X165014572Y-117704235D01*
X164990773Y-117710196D01*
X164966505Y-117713796D01*
X164942001Y-117715000D01*
X164241999Y-117715000D01*
X164217495Y-117713796D01*
X164193227Y-117710196D01*
X164169428Y-117704235D01*
X164146329Y-117695970D01*
X164124150Y-117685480D01*
X164103107Y-117672868D01*
X164083401Y-117658253D01*
X164065223Y-117641777D01*
X164048747Y-117623599D01*
X164034132Y-117603893D01*
X164021520Y-117582850D01*
X164011030Y-117560671D01*
X164002765Y-117537572D01*
X163996804Y-117513773D01*
X163993204Y-117489505D01*
X163992000Y-117465001D01*
X163992000Y-116214999D01*
X163993204Y-116190495D01*
X163996804Y-116166227D01*
X164002765Y-116142428D01*
X164011030Y-116119329D01*
X164021520Y-116097150D01*
X164034132Y-116076107D01*
X164048747Y-116056401D01*
X164065223Y-116038223D01*
X164083401Y-116021747D01*
X164103107Y-116007132D01*
X164124150Y-115994520D01*
X164146329Y-115984030D01*
X164169428Y-115975765D01*
X164193227Y-115969804D01*
X164217495Y-115966204D01*
X164241999Y-115965000D01*
X164942001Y-115965000D01*
X164966505Y-115966204D01*
X164966505Y-115966204D01*
G37*
D15*
X164592000Y-116840000D03*
D16*
X166592000Y-116840000D03*
X168592000Y-116840000D03*
D17*
X173482000Y-101346000D03*
D18*
X173482000Y-106426000D03*
D17*
X160782000Y-76200000D03*
D18*
X155702000Y-76200000D03*
X155702000Y-95250000D03*
D17*
X160782000Y-95250000D03*
X173482000Y-79756000D03*
D18*
X173482000Y-74676000D03*
X160782000Y-80010000D03*
D17*
X155702000Y-80010000D03*
D18*
X155702000Y-83820000D03*
D17*
X160782000Y-83820000D03*
D18*
X173482000Y-93726000D03*
D17*
X173482000Y-88646000D03*
X160782000Y-87630000D03*
D18*
X155702000Y-87630000D03*
X160782000Y-91440000D03*
D17*
X155702000Y-91440000D03*
D19*
X163322000Y-69850000D03*
X160782000Y-69850000D03*
X158242000Y-69850000D03*
D20*
X144272000Y-73080000D03*
X144272000Y-68580000D03*
X150772000Y-73080000D03*
X150772000Y-68580000D03*
D21*
X126492000Y-66040000D03*
D20*
X130492000Y-66040000D03*
X134492000Y-66040000D03*
X126492000Y-71040000D03*
X130492000Y-71040000D03*
X134492000Y-71040000D03*
D22*
X150622000Y-80010000D03*
X143002000Y-95250000D03*
X150622000Y-82550000D03*
X143002000Y-92710000D03*
X150622000Y-85090000D03*
X143002000Y-90170000D03*
X150622000Y-87630000D03*
X143002000Y-87630000D03*
X150622000Y-90170000D03*
X143002000Y-85090000D03*
X150622000Y-92710000D03*
X143002000Y-82550000D03*
X150622000Y-95250000D03*
D23*
X143002000Y-80010000D03*
X155702000Y-101600000D03*
D22*
X163322000Y-109220000D03*
X155702000Y-104140000D03*
X163322000Y-106680000D03*
X155702000Y-106680000D03*
X163322000Y-104140000D03*
X155702000Y-109220000D03*
X163322000Y-101600000D03*
D23*
X130302000Y-80010000D03*
D22*
X137922000Y-95250000D03*
X130302000Y-82550000D03*
X137922000Y-92710000D03*
X130302000Y-85090000D03*
X137922000Y-90170000D03*
X130302000Y-87630000D03*
X137922000Y-87630000D03*
X130302000Y-90170000D03*
X137922000Y-85090000D03*
X130302000Y-92710000D03*
X137922000Y-82550000D03*
X130302000Y-95250000D03*
X137922000Y-80010000D03*
D23*
X116332000Y-80010000D03*
D22*
X123952000Y-95250000D03*
X116332000Y-82550000D03*
X123952000Y-92710000D03*
X116332000Y-85090000D03*
X123952000Y-90170000D03*
X116332000Y-87630000D03*
X123952000Y-87630000D03*
X116332000Y-90170000D03*
X123952000Y-85090000D03*
X116332000Y-92710000D03*
X123952000Y-82550000D03*
X116332000Y-95250000D03*
X123952000Y-80010000D03*
D23*
X137922000Y-101600000D03*
D22*
X145542000Y-109220000D03*
X137922000Y-104140000D03*
X145542000Y-106680000D03*
X137922000Y-106680000D03*
X145542000Y-104140000D03*
X137922000Y-109220000D03*
X145542000Y-101600000D03*
X127762000Y-101600000D03*
X120142000Y-109220000D03*
X127762000Y-104140000D03*
X120142000Y-106680000D03*
X127762000Y-106680000D03*
X120142000Y-104140000D03*
X127762000Y-109220000D03*
D23*
X120142000Y-101600000D03*
D24*
X165862000Y-78232000D03*
X166370000Y-97536000D03*
X164338000Y-98806000D03*
X161798000Y-97282000D03*
X159258000Y-97536000D03*
X124206000Y-109220000D03*
X127000000Y-114554000D03*
X137414000Y-117094000D03*
X142748000Y-104394000D03*
X142748000Y-107188000D03*
X162814000Y-96520000D03*
X161736848Y-98744848D03*
D25*
X165862000Y-77430000D02*
X165862000Y-78232000D01*
X167092000Y-76200000D02*
X165862000Y-77430000D01*
X167132000Y-80010000D02*
X167132000Y-87630000D01*
X165100000Y-98806000D02*
X164338000Y-98806000D01*
X166370000Y-97536000D02*
X165100000Y-98806000D01*
X159512000Y-97282000D02*
X159258000Y-97536000D01*
X161798000Y-97282000D02*
X159512000Y-97282000D01*
X132842000Y-101600000D02*
X127762000Y-106680000D01*
X137922000Y-101600000D02*
X132842000Y-101600000D01*
X124206000Y-111760000D02*
X127000000Y-114554000D01*
X124206000Y-109220000D02*
X124206000Y-111760000D01*
X160822000Y-83820000D02*
X160782000Y-83820000D01*
X164632000Y-87630000D02*
X160822000Y-83820000D01*
X145542000Y-101600000D02*
X142748000Y-104394000D01*
X163322000Y-96520000D02*
X164592000Y-95250000D01*
X162814000Y-96520000D02*
X163322000Y-96520000D01*
X162814000Y-97667696D02*
X162814000Y-96520000D01*
X161736848Y-98744848D02*
X162814000Y-97667696D01*
X169702999Y-73650999D02*
X179568999Y-73650999D01*
X167172000Y-71120000D02*
X169702999Y-73650999D01*
X179568999Y-73650999D02*
X182118000Y-76200000D01*
X128561999Y-108420001D02*
X127762000Y-109220000D01*
X155952003Y-105554999D02*
X131427001Y-105554999D01*
X165966999Y-95540003D02*
X155952003Y-105554999D01*
X131427001Y-105554999D02*
X128561999Y-108420001D01*
X165966999Y-94637001D02*
X165966999Y-95540003D01*
X182118000Y-78486000D02*
X165966999Y-94637001D01*
X182118000Y-76200000D02*
X182118000Y-78486000D01*
X129252000Y-80010000D02*
X130302000Y-80010000D01*
X126186989Y-83075011D02*
X129252000Y-80010000D01*
X126186989Y-109946401D02*
X126186989Y-83075011D01*
X127035598Y-110795010D02*
X126186989Y-109946401D01*
X151586990Y-110795010D02*
X127035598Y-110795010D01*
X155702000Y-106680000D02*
X151586990Y-110795010D01*
X165966999Y-90899999D02*
X178750999Y-78115999D01*
X165966999Y-91980001D02*
X165966999Y-90899999D01*
X161571999Y-96375001D02*
X165966999Y-91980001D01*
X178932001Y-78115999D02*
X179832000Y-77216000D01*
X149207001Y-96375001D02*
X161571999Y-96375001D01*
X178750999Y-78115999D02*
X178932001Y-78115999D01*
X143002000Y-90170000D02*
X149207001Y-96375001D01*
X129502001Y-90969999D02*
X130302000Y-90170000D01*
X126636999Y-93835001D02*
X129502001Y-90969999D01*
X126636999Y-109760001D02*
X126636999Y-93835001D01*
X127221999Y-110345001D02*
X126636999Y-109760001D01*
X133125629Y-110345001D02*
X127221999Y-110345001D01*
X136790630Y-106680000D02*
X133125629Y-110345001D01*
X137922000Y-106680000D02*
X136790630Y-106680000D01*
X160082001Y-76899999D02*
X160782000Y-76200000D01*
X159756999Y-77225001D02*
X160082001Y-76899999D01*
X161807001Y-86362003D02*
X159756999Y-84312001D01*
X161807001Y-93235050D02*
X161807001Y-86362003D01*
X159756999Y-84312001D02*
X159756999Y-77225001D01*
X160782000Y-94260051D02*
X161807001Y-93235050D01*
X160782000Y-95250000D02*
X160782000Y-94260051D01*
X151747001Y-79469999D02*
X146682003Y-74405001D01*
X151747001Y-81382003D02*
X151747001Y-79469999D01*
X146682003Y-74405001D02*
X141715001Y-74405001D01*
X157994998Y-87630000D02*
X151747001Y-81382003D01*
X160782000Y-87630000D02*
X157994998Y-87630000D01*
X141715001Y-74405001D02*
X135890000Y-68580000D01*
X128952000Y-68580000D02*
X126492000Y-71040000D01*
X135890000Y-68580000D02*
X128952000Y-68580000D01*
X159792051Y-91440000D02*
X160782000Y-91440000D01*
X151782999Y-85228001D02*
X157994998Y-91440000D01*
X157994998Y-91440000D02*
X159792051Y-91440000D01*
X151782999Y-83964999D02*
X151782999Y-85228001D01*
X150081999Y-83964999D02*
X151782999Y-83964999D01*
X140972011Y-74855011D02*
X150081999Y-83964999D01*
X138307011Y-74855011D02*
X140972011Y-74855011D01*
X134492000Y-71040000D02*
X138307011Y-74855011D01*
D26*
G36*
X180443222Y-60413096D02*
G01*
X181031164Y-60590606D01*
X181573436Y-60878937D01*
X182049364Y-61267094D01*
X182440845Y-61740314D01*
X182732951Y-62280552D01*
X182914563Y-62867244D01*
X182982001Y-63508888D01*
X182982000Y-119347721D01*
X182918904Y-119991221D01*
X182741394Y-120579164D01*
X182453063Y-121121436D01*
X182064906Y-121597364D01*
X181591686Y-121988845D01*
X181051449Y-122280950D01*
X180464756Y-122462563D01*
X179823130Y-122530000D01*
X115094279Y-122530000D01*
X114450779Y-122466904D01*
X113862836Y-122289394D01*
X113320564Y-122001063D01*
X112844636Y-121612906D01*
X112453155Y-121139686D01*
X112161050Y-120599449D01*
X111979437Y-120012756D01*
X111912000Y-119371130D01*
X111912000Y-117860817D01*
X113802000Y-117860817D01*
X113802000Y-118359183D01*
X113899226Y-118847974D01*
X114089943Y-119308405D01*
X114366820Y-119722781D01*
X114719219Y-120075180D01*
X115133595Y-120352057D01*
X115594026Y-120542774D01*
X116082817Y-120640000D01*
X116581183Y-120640000D01*
X117069974Y-120542774D01*
X117530405Y-120352057D01*
X117944781Y-120075180D01*
X118297180Y-119722781D01*
X118574057Y-119308405D01*
X118764774Y-118847974D01*
X118862000Y-118359183D01*
X118862000Y-117860817D01*
X118832996Y-117715000D01*
X153193928Y-117715000D01*
X153206188Y-117839482D01*
X153242498Y-117959180D01*
X153301463Y-118069494D01*
X153380815Y-118166185D01*
X153477506Y-118245537D01*
X153587820Y-118304502D01*
X153707518Y-118340812D01*
X153832000Y-118353072D01*
X154146250Y-118350000D01*
X154305000Y-118191250D01*
X154305000Y-116967000D01*
X153355750Y-116967000D01*
X153197000Y-117125750D01*
X153193928Y-117715000D01*
X118832996Y-117715000D01*
X118764774Y-117372026D01*
X118574057Y-116911595D01*
X118297180Y-116497219D01*
X117944781Y-116144820D01*
X117675662Y-115965000D01*
X153193928Y-115965000D01*
X153197000Y-116554250D01*
X153355750Y-116713000D01*
X154305000Y-116713000D01*
X154305000Y-115488750D01*
X154559000Y-115488750D01*
X154559000Y-116713000D01*
X154579000Y-116713000D01*
X154579000Y-116967000D01*
X154559000Y-116967000D01*
X154559000Y-118191250D01*
X154717750Y-118350000D01*
X155032000Y-118353072D01*
X155156482Y-118340812D01*
X155276180Y-118304502D01*
X155386494Y-118245537D01*
X155483185Y-118166185D01*
X155562537Y-118069494D01*
X155588692Y-118020563D01*
X155742552Y-118146833D01*
X155957100Y-118261511D01*
X156189899Y-118332130D01*
X156432000Y-118355975D01*
X156674102Y-118332130D01*
X156906901Y-118261511D01*
X157121449Y-118146833D01*
X157309502Y-117992502D01*
X157463833Y-117804449D01*
X157578511Y-117589900D01*
X157649130Y-117357101D01*
X157667000Y-117175664D01*
X157667000Y-116504335D01*
X157649130Y-116322898D01*
X157616400Y-116214999D01*
X163353928Y-116214999D01*
X163353928Y-117465001D01*
X163370992Y-117638255D01*
X163421528Y-117804851D01*
X163503595Y-117958387D01*
X163614038Y-118092962D01*
X163748613Y-118203405D01*
X163902149Y-118285472D01*
X164068745Y-118336008D01*
X164241999Y-118353072D01*
X164942001Y-118353072D01*
X165115255Y-118336008D01*
X165281851Y-118285472D01*
X165435387Y-118203405D01*
X165569962Y-118092962D01*
X165680405Y-117958387D01*
X165682810Y-117953888D01*
X165714499Y-117992502D01*
X165902552Y-118146833D01*
X166117100Y-118261511D01*
X166349899Y-118332130D01*
X166592000Y-118355975D01*
X166834102Y-118332130D01*
X167066901Y-118261511D01*
X167281449Y-118146833D01*
X167469502Y-117992502D01*
X167592001Y-117843237D01*
X167714499Y-117992502D01*
X167902552Y-118146833D01*
X168117100Y-118261511D01*
X168349899Y-118332130D01*
X168592000Y-118355975D01*
X168834102Y-118332130D01*
X169066901Y-118261511D01*
X169281449Y-118146833D01*
X169469502Y-117992502D01*
X169577573Y-117860817D01*
X176032000Y-117860817D01*
X176032000Y-118359183D01*
X176129226Y-118847974D01*
X176319943Y-119308405D01*
X176596820Y-119722781D01*
X176949219Y-120075180D01*
X177363595Y-120352057D01*
X177824026Y-120542774D01*
X178312817Y-120640000D01*
X178811183Y-120640000D01*
X179299974Y-120542774D01*
X179760405Y-120352057D01*
X180174781Y-120075180D01*
X180527180Y-119722781D01*
X180804057Y-119308405D01*
X180994774Y-118847974D01*
X181092000Y-118359183D01*
X181092000Y-117860817D01*
X180994774Y-117372026D01*
X180804057Y-116911595D01*
X180527180Y-116497219D01*
X180174781Y-116144820D01*
X179760405Y-115867943D01*
X179299974Y-115677226D01*
X178811183Y-115580000D01*
X178312817Y-115580000D01*
X177824026Y-115677226D01*
X177363595Y-115867943D01*
X176949219Y-116144820D01*
X176596820Y-116497219D01*
X176319943Y-116911595D01*
X176129226Y-117372026D01*
X176032000Y-117860817D01*
X169577573Y-117860817D01*
X169623833Y-117804449D01*
X169738511Y-117589900D01*
X169809130Y-117357101D01*
X169827000Y-117175664D01*
X169827000Y-116504335D01*
X169809130Y-116322898D01*
X169738511Y-116090099D01*
X169623833Y-115875551D01*
X169469502Y-115687498D01*
X169281448Y-115533167D01*
X169066900Y-115418489D01*
X168834101Y-115347870D01*
X168592000Y-115324025D01*
X168349898Y-115347870D01*
X168117099Y-115418489D01*
X167902551Y-115533167D01*
X167714498Y-115687498D01*
X167592000Y-115836763D01*
X167469502Y-115687498D01*
X167281448Y-115533167D01*
X167066900Y-115418489D01*
X166834101Y-115347870D01*
X166592000Y-115324025D01*
X166349898Y-115347870D01*
X166117099Y-115418489D01*
X165902551Y-115533167D01*
X165714498Y-115687498D01*
X165682809Y-115726111D01*
X165680405Y-115721613D01*
X165569962Y-115587038D01*
X165435387Y-115476595D01*
X165281851Y-115394528D01*
X165115255Y-115343992D01*
X164942001Y-115326928D01*
X164241999Y-115326928D01*
X164068745Y-115343992D01*
X163902149Y-115394528D01*
X163748613Y-115476595D01*
X163614038Y-115587038D01*
X163503595Y-115721613D01*
X163421528Y-115875149D01*
X163370992Y-116041745D01*
X163353928Y-116214999D01*
X157616400Y-116214999D01*
X157578511Y-116090099D01*
X157463833Y-115875551D01*
X157309502Y-115687498D01*
X157121448Y-115533167D01*
X156906900Y-115418489D01*
X156674101Y-115347870D01*
X156432000Y-115324025D01*
X156189898Y-115347870D01*
X155957099Y-115418489D01*
X155742551Y-115533167D01*
X155588691Y-115659436D01*
X155562537Y-115610506D01*
X155483185Y-115513815D01*
X155386494Y-115434463D01*
X155276180Y-115375498D01*
X155156482Y-115339188D01*
X155032000Y-115326928D01*
X154717750Y-115330000D01*
X154559000Y-115488750D01*
X154305000Y-115488750D01*
X154146250Y-115330000D01*
X153832000Y-115326928D01*
X153707518Y-115339188D01*
X153587820Y-115375498D01*
X153477506Y-115434463D01*
X153380815Y-115513815D01*
X153301463Y-115610506D01*
X153242498Y-115720820D01*
X153206188Y-115840518D01*
X153193928Y-115965000D01*
X117675662Y-115965000D01*
X117530405Y-115867943D01*
X117069974Y-115677226D01*
X116581183Y-115580000D01*
X116082817Y-115580000D01*
X115594026Y-115677226D01*
X115133595Y-115867943D01*
X114719219Y-116144820D01*
X114366820Y-116497219D01*
X114089943Y-116911595D01*
X113899226Y-117372026D01*
X113802000Y-117860817D01*
X111912000Y-117860817D01*
X111912000Y-104140000D01*
X118700057Y-104140000D01*
X118727764Y-104421309D01*
X118809818Y-104691808D01*
X118943068Y-104941101D01*
X119122392Y-105159608D01*
X119340899Y-105338932D01*
X119473858Y-105410000D01*
X119340899Y-105481068D01*
X119122392Y-105660392D01*
X118943068Y-105878899D01*
X118809818Y-106128192D01*
X118727764Y-106398691D01*
X118700057Y-106680000D01*
X118727764Y-106961309D01*
X118809818Y-107231808D01*
X118943068Y-107481101D01*
X119122392Y-107699608D01*
X119340899Y-107878932D01*
X119473858Y-107950000D01*
X119340899Y-108021068D01*
X119122392Y-108200392D01*
X118943068Y-108418899D01*
X118809818Y-108668192D01*
X118727764Y-108938691D01*
X118700057Y-109220000D01*
X118727764Y-109501309D01*
X118809818Y-109771808D01*
X118943068Y-110021101D01*
X119122392Y-110239608D01*
X119340899Y-110418932D01*
X119590192Y-110552182D01*
X119860691Y-110634236D01*
X120071508Y-110655000D01*
X120212492Y-110655000D01*
X120423309Y-110634236D01*
X120693808Y-110552182D01*
X120943101Y-110418932D01*
X121161608Y-110239608D01*
X121340932Y-110021101D01*
X121474182Y-109771808D01*
X121556236Y-109501309D01*
X121583943Y-109220000D01*
X121573903Y-109118061D01*
X123171000Y-109118061D01*
X123171000Y-109321939D01*
X123210774Y-109521898D01*
X123288795Y-109710256D01*
X123402063Y-109879774D01*
X123446000Y-109923711D01*
X123446001Y-111722668D01*
X123442324Y-111760000D01*
X123456998Y-111908985D01*
X123500454Y-112052246D01*
X123571026Y-112184276D01*
X123642201Y-112271002D01*
X123666000Y-112300001D01*
X123694998Y-112323799D01*
X125965000Y-114593802D01*
X125965000Y-114655939D01*
X126004774Y-114855898D01*
X126082795Y-115044256D01*
X126196063Y-115213774D01*
X126340226Y-115357937D01*
X126509744Y-115471205D01*
X126698102Y-115549226D01*
X126898061Y-115589000D01*
X127101939Y-115589000D01*
X127301898Y-115549226D01*
X127490256Y-115471205D01*
X127659774Y-115357937D01*
X127803937Y-115213774D01*
X127917205Y-115044256D01*
X127995226Y-114855898D01*
X128035000Y-114655939D01*
X128035000Y-114452061D01*
X127995226Y-114252102D01*
X127917205Y-114063744D01*
X127803937Y-113894226D01*
X127659774Y-113750063D01*
X127490256Y-113636795D01*
X127301898Y-113558774D01*
X127101939Y-113519000D01*
X127039802Y-113519000D01*
X124966000Y-111445199D01*
X124966000Y-109923711D01*
X125009937Y-109879774D01*
X125123205Y-109710256D01*
X125201226Y-109521898D01*
X125241000Y-109321939D01*
X125241000Y-109118061D01*
X125201226Y-108918102D01*
X125123205Y-108729744D01*
X125009937Y-108560226D01*
X124865774Y-108416063D01*
X124696256Y-108302795D01*
X124507898Y-108224774D01*
X124307939Y-108185000D01*
X124104061Y-108185000D01*
X123904102Y-108224774D01*
X123715744Y-108302795D01*
X123546226Y-108416063D01*
X123402063Y-108560226D01*
X123288795Y-108729744D01*
X123210774Y-108918102D01*
X123171000Y-109118061D01*
X121573903Y-109118061D01*
X121556236Y-108938691D01*
X121474182Y-108668192D01*
X121340932Y-108418899D01*
X121161608Y-108200392D01*
X120943101Y-108021068D01*
X120810142Y-107950000D01*
X120943101Y-107878932D01*
X121161608Y-107699608D01*
X121340932Y-107481101D01*
X121474182Y-107231808D01*
X121556236Y-106961309D01*
X121583943Y-106680000D01*
X121556236Y-106398691D01*
X121474182Y-106128192D01*
X121340932Y-105878899D01*
X121161608Y-105660392D01*
X120943101Y-105481068D01*
X120810142Y-105410000D01*
X120943101Y-105338932D01*
X121161608Y-105159608D01*
X121340932Y-104941101D01*
X121474182Y-104691808D01*
X121556236Y-104421309D01*
X121583943Y-104140000D01*
X121556236Y-103858691D01*
X121474182Y-103588192D01*
X121340932Y-103338899D01*
X121161608Y-103120392D01*
X121048518Y-103027581D01*
X121066482Y-103025812D01*
X121186180Y-102989502D01*
X121296494Y-102930537D01*
X121393185Y-102851185D01*
X121472537Y-102754494D01*
X121531502Y-102644180D01*
X121567812Y-102524482D01*
X121580072Y-102400000D01*
X121580072Y-100800000D01*
X121567812Y-100675518D01*
X121531502Y-100555820D01*
X121472537Y-100445506D01*
X121393185Y-100348815D01*
X121296494Y-100269463D01*
X121186180Y-100210498D01*
X121066482Y-100174188D01*
X120942000Y-100161928D01*
X119342000Y-100161928D01*
X119217518Y-100174188D01*
X119097820Y-100210498D01*
X118987506Y-100269463D01*
X118890815Y-100348815D01*
X118811463Y-100445506D01*
X118752498Y-100555820D01*
X118716188Y-100675518D01*
X118703928Y-100800000D01*
X118703928Y-102400000D01*
X118716188Y-102524482D01*
X118752498Y-102644180D01*
X118811463Y-102754494D01*
X118890815Y-102851185D01*
X118987506Y-102930537D01*
X119097820Y-102989502D01*
X119217518Y-103025812D01*
X119235482Y-103027581D01*
X119122392Y-103120392D01*
X118943068Y-103338899D01*
X118809818Y-103588192D01*
X118727764Y-103858691D01*
X118700057Y-104140000D01*
X111912000Y-104140000D01*
X111912000Y-82550000D01*
X114890057Y-82550000D01*
X114917764Y-82831309D01*
X114999818Y-83101808D01*
X115133068Y-83351101D01*
X115312392Y-83569608D01*
X115530899Y-83748932D01*
X115663858Y-83820000D01*
X115530899Y-83891068D01*
X115312392Y-84070392D01*
X115133068Y-84288899D01*
X114999818Y-84538192D01*
X114917764Y-84808691D01*
X114890057Y-85090000D01*
X114917764Y-85371309D01*
X114999818Y-85641808D01*
X115133068Y-85891101D01*
X115312392Y-86109608D01*
X115530899Y-86288932D01*
X115663858Y-86360000D01*
X115530899Y-86431068D01*
X115312392Y-86610392D01*
X115133068Y-86828899D01*
X114999818Y-87078192D01*
X114917764Y-87348691D01*
X114890057Y-87630000D01*
X114917764Y-87911309D01*
X114999818Y-88181808D01*
X115133068Y-88431101D01*
X115312392Y-88649608D01*
X115530899Y-88828932D01*
X115663858Y-88900000D01*
X115530899Y-88971068D01*
X115312392Y-89150392D01*
X115133068Y-89368899D01*
X114999818Y-89618192D01*
X114917764Y-89888691D01*
X114890057Y-90170000D01*
X114917764Y-90451309D01*
X114999818Y-90721808D01*
X115133068Y-90971101D01*
X115312392Y-91189608D01*
X115530899Y-91368932D01*
X115663858Y-91440000D01*
X115530899Y-91511068D01*
X115312392Y-91690392D01*
X115133068Y-91908899D01*
X114999818Y-92158192D01*
X114917764Y-92428691D01*
X114890057Y-92710000D01*
X114917764Y-92991309D01*
X114999818Y-93261808D01*
X115133068Y-93511101D01*
X115312392Y-93729608D01*
X115530899Y-93908932D01*
X115663858Y-93980000D01*
X115530899Y-94051068D01*
X115312392Y-94230392D01*
X115133068Y-94448899D01*
X114999818Y-94698192D01*
X114917764Y-94968691D01*
X114890057Y-95250000D01*
X114917764Y-95531309D01*
X114999818Y-95801808D01*
X115133068Y-96051101D01*
X115312392Y-96269608D01*
X115530899Y-96448932D01*
X115780192Y-96582182D01*
X116050691Y-96664236D01*
X116261508Y-96685000D01*
X116402492Y-96685000D01*
X116613309Y-96664236D01*
X116883808Y-96582182D01*
X117133101Y-96448932D01*
X117351608Y-96269608D01*
X117530932Y-96051101D01*
X117664182Y-95801808D01*
X117746236Y-95531309D01*
X117773943Y-95250000D01*
X117746236Y-94968691D01*
X117664182Y-94698192D01*
X117530932Y-94448899D01*
X117351608Y-94230392D01*
X117133101Y-94051068D01*
X117000142Y-93980000D01*
X117133101Y-93908932D01*
X117351608Y-93729608D01*
X117530932Y-93511101D01*
X117664182Y-93261808D01*
X117746236Y-92991309D01*
X117773943Y-92710000D01*
X117746236Y-92428691D01*
X117664182Y-92158192D01*
X117530932Y-91908899D01*
X117351608Y-91690392D01*
X117133101Y-91511068D01*
X117000142Y-91440000D01*
X117133101Y-91368932D01*
X117351608Y-91189608D01*
X117530932Y-90971101D01*
X117664182Y-90721808D01*
X117746236Y-90451309D01*
X117773943Y-90170000D01*
X117746236Y-89888691D01*
X117664182Y-89618192D01*
X117530932Y-89368899D01*
X117351608Y-89150392D01*
X117133101Y-88971068D01*
X117000142Y-88900000D01*
X117133101Y-88828932D01*
X117351608Y-88649608D01*
X117530932Y-88431101D01*
X117664182Y-88181808D01*
X117746236Y-87911309D01*
X117773943Y-87630000D01*
X117746236Y-87348691D01*
X117664182Y-87078192D01*
X117530932Y-86828899D01*
X117351608Y-86610392D01*
X117133101Y-86431068D01*
X117000142Y-86360000D01*
X117133101Y-86288932D01*
X117351608Y-86109608D01*
X117530932Y-85891101D01*
X117664182Y-85641808D01*
X117746236Y-85371309D01*
X117773943Y-85090000D01*
X117746236Y-84808691D01*
X117664182Y-84538192D01*
X117530932Y-84288899D01*
X117351608Y-84070392D01*
X117133101Y-83891068D01*
X117000142Y-83820000D01*
X117133101Y-83748932D01*
X117351608Y-83569608D01*
X117530932Y-83351101D01*
X117664182Y-83101808D01*
X117746236Y-82831309D01*
X117773943Y-82550000D01*
X117746236Y-82268691D01*
X117664182Y-81998192D01*
X117530932Y-81748899D01*
X117351608Y-81530392D01*
X117238518Y-81437581D01*
X117256482Y-81435812D01*
X117376180Y-81399502D01*
X117486494Y-81340537D01*
X117583185Y-81261185D01*
X117662537Y-81164494D01*
X117721502Y-81054180D01*
X117757812Y-80934482D01*
X117770072Y-80810000D01*
X117770072Y-80010000D01*
X122510057Y-80010000D01*
X122537764Y-80291309D01*
X122619818Y-80561808D01*
X122753068Y-80811101D01*
X122932392Y-81029608D01*
X123150899Y-81208932D01*
X123283858Y-81280000D01*
X123150899Y-81351068D01*
X122932392Y-81530392D01*
X122753068Y-81748899D01*
X122619818Y-81998192D01*
X122537764Y-82268691D01*
X122510057Y-82550000D01*
X122537764Y-82831309D01*
X122619818Y-83101808D01*
X122753068Y-83351101D01*
X122932392Y-83569608D01*
X123150899Y-83748932D01*
X123283858Y-83820000D01*
X123150899Y-83891068D01*
X122932392Y-84070392D01*
X122753068Y-84288899D01*
X122619818Y-84538192D01*
X122537764Y-84808691D01*
X122510057Y-85090000D01*
X122537764Y-85371309D01*
X122619818Y-85641808D01*
X122753068Y-85891101D01*
X122932392Y-86109608D01*
X123150899Y-86288932D01*
X123283858Y-86360000D01*
X123150899Y-86431068D01*
X122932392Y-86610392D01*
X122753068Y-86828899D01*
X122619818Y-87078192D01*
X122537764Y-87348691D01*
X122510057Y-87630000D01*
X122537764Y-87911309D01*
X122619818Y-88181808D01*
X122753068Y-88431101D01*
X122932392Y-88649608D01*
X123150899Y-88828932D01*
X123283858Y-88900000D01*
X123150899Y-88971068D01*
X122932392Y-89150392D01*
X122753068Y-89368899D01*
X122619818Y-89618192D01*
X122537764Y-89888691D01*
X122510057Y-90170000D01*
X122537764Y-90451309D01*
X122619818Y-90721808D01*
X122753068Y-90971101D01*
X122932392Y-91189608D01*
X123150899Y-91368932D01*
X123283858Y-91440000D01*
X123150899Y-91511068D01*
X122932392Y-91690392D01*
X122753068Y-91908899D01*
X122619818Y-92158192D01*
X122537764Y-92428691D01*
X122510057Y-92710000D01*
X122537764Y-92991309D01*
X122619818Y-93261808D01*
X122753068Y-93511101D01*
X122932392Y-93729608D01*
X123150899Y-93908932D01*
X123283858Y-93980000D01*
X123150899Y-94051068D01*
X122932392Y-94230392D01*
X122753068Y-94448899D01*
X122619818Y-94698192D01*
X122537764Y-94968691D01*
X122510057Y-95250000D01*
X122537764Y-95531309D01*
X122619818Y-95801808D01*
X122753068Y-96051101D01*
X122932392Y-96269608D01*
X123150899Y-96448932D01*
X123400192Y-96582182D01*
X123670691Y-96664236D01*
X123881508Y-96685000D01*
X124022492Y-96685000D01*
X124233309Y-96664236D01*
X124503808Y-96582182D01*
X124753101Y-96448932D01*
X124971608Y-96269608D01*
X125150932Y-96051101D01*
X125284182Y-95801808D01*
X125366236Y-95531309D01*
X125393943Y-95250000D01*
X125366236Y-94968691D01*
X125284182Y-94698192D01*
X125150932Y-94448899D01*
X124971608Y-94230392D01*
X124753101Y-94051068D01*
X124620142Y-93980000D01*
X124753101Y-93908932D01*
X124971608Y-93729608D01*
X125150932Y-93511101D01*
X125284182Y-93261808D01*
X125366236Y-92991309D01*
X125393943Y-92710000D01*
X125366236Y-92428691D01*
X125284182Y-92158192D01*
X125150932Y-91908899D01*
X124971608Y-91690392D01*
X124753101Y-91511068D01*
X124620142Y-91440000D01*
X124753101Y-91368932D01*
X124971608Y-91189608D01*
X125150932Y-90971101D01*
X125284182Y-90721808D01*
X125366236Y-90451309D01*
X125393943Y-90170000D01*
X125366236Y-89888691D01*
X125284182Y-89618192D01*
X125150932Y-89368899D01*
X124971608Y-89150392D01*
X124753101Y-88971068D01*
X124620142Y-88900000D01*
X124753101Y-88828932D01*
X124971608Y-88649608D01*
X125150932Y-88431101D01*
X125284182Y-88181808D01*
X125366236Y-87911309D01*
X125393943Y-87630000D01*
X125366236Y-87348691D01*
X125284182Y-87078192D01*
X125150932Y-86828899D01*
X124971608Y-86610392D01*
X124753101Y-86431068D01*
X124620142Y-86360000D01*
X124753101Y-86288932D01*
X124971608Y-86109608D01*
X125150932Y-85891101D01*
X125284182Y-85641808D01*
X125366236Y-85371309D01*
X125393943Y-85090000D01*
X125366236Y-84808691D01*
X125284182Y-84538192D01*
X125150932Y-84288899D01*
X124971608Y-84070392D01*
X124753101Y-83891068D01*
X124620142Y-83820000D01*
X124753101Y-83748932D01*
X124971608Y-83569608D01*
X125150932Y-83351101D01*
X125284182Y-83101808D01*
X125366236Y-82831309D01*
X125393943Y-82550000D01*
X125366236Y-82268691D01*
X125284182Y-81998192D01*
X125150932Y-81748899D01*
X124971608Y-81530392D01*
X124753101Y-81351068D01*
X124620142Y-81280000D01*
X124753101Y-81208932D01*
X124971608Y-81029608D01*
X125150932Y-80811101D01*
X125284182Y-80561808D01*
X125366236Y-80291309D01*
X125393943Y-80010000D01*
X125366236Y-79728691D01*
X125284182Y-79458192D01*
X125150932Y-79208899D01*
X124971608Y-78990392D01*
X124753101Y-78811068D01*
X124503808Y-78677818D01*
X124233309Y-78595764D01*
X124022492Y-78575000D01*
X123881508Y-78575000D01*
X123670691Y-78595764D01*
X123400192Y-78677818D01*
X123150899Y-78811068D01*
X122932392Y-78990392D01*
X122753068Y-79208899D01*
X122619818Y-79458192D01*
X122537764Y-79728691D01*
X122510057Y-80010000D01*
X117770072Y-80010000D01*
X117770072Y-79210000D01*
X117757812Y-79085518D01*
X117721502Y-78965820D01*
X117662537Y-78855506D01*
X117583185Y-78758815D01*
X117486494Y-78679463D01*
X117376180Y-78620498D01*
X117256482Y-78584188D01*
X117132000Y-78571928D01*
X115532000Y-78571928D01*
X115407518Y-78584188D01*
X115287820Y-78620498D01*
X115177506Y-78679463D01*
X115080815Y-78758815D01*
X115001463Y-78855506D01*
X114942498Y-78965820D01*
X114906188Y-79085518D01*
X114893928Y-79210000D01*
X114893928Y-80810000D01*
X114906188Y-80934482D01*
X114942498Y-81054180D01*
X115001463Y-81164494D01*
X115080815Y-81261185D01*
X115177506Y-81340537D01*
X115287820Y-81399502D01*
X115407518Y-81435812D01*
X115425482Y-81437581D01*
X115312392Y-81530392D01*
X115133068Y-81748899D01*
X114999818Y-81998192D01*
X114917764Y-82268691D01*
X114890057Y-82550000D01*
X111912000Y-82550000D01*
X111912000Y-70878967D01*
X124857000Y-70878967D01*
X124857000Y-71201033D01*
X124919832Y-71516912D01*
X125043082Y-71814463D01*
X125222013Y-72082252D01*
X125449748Y-72309987D01*
X125717537Y-72488918D01*
X126015088Y-72612168D01*
X126330967Y-72675000D01*
X126653033Y-72675000D01*
X126968912Y-72612168D01*
X127266463Y-72488918D01*
X127534252Y-72309987D01*
X127761987Y-72082252D01*
X127940918Y-71814463D01*
X128064168Y-71516912D01*
X128127000Y-71201033D01*
X128127000Y-70878967D01*
X128857000Y-70878967D01*
X128857000Y-71201033D01*
X128919832Y-71516912D01*
X129043082Y-71814463D01*
X129222013Y-72082252D01*
X129449748Y-72309987D01*
X129717537Y-72488918D01*
X130015088Y-72612168D01*
X130330967Y-72675000D01*
X130653033Y-72675000D01*
X130968912Y-72612168D01*
X131266463Y-72488918D01*
X131534252Y-72309987D01*
X131761987Y-72082252D01*
X131940918Y-71814463D01*
X132064168Y-71516912D01*
X132127000Y-71201033D01*
X132127000Y-70878967D01*
X132064168Y-70563088D01*
X131940918Y-70265537D01*
X131761987Y-69997748D01*
X131534252Y-69770013D01*
X131266463Y-69591082D01*
X130968912Y-69467832D01*
X130653033Y-69405000D01*
X130330967Y-69405000D01*
X130015088Y-69467832D01*
X129717537Y-69591082D01*
X129449748Y-69770013D01*
X129222013Y-69997748D01*
X129043082Y-70265537D01*
X128919832Y-70563088D01*
X128857000Y-70878967D01*
X128127000Y-70878967D01*
X128064168Y-70563088D01*
X128058177Y-70548624D01*
X129266802Y-69340000D01*
X135575199Y-69340000D01*
X140330208Y-74095011D01*
X138621813Y-74095011D01*
X136058177Y-71531376D01*
X136064168Y-71516912D01*
X136127000Y-71201033D01*
X136127000Y-70878967D01*
X136064168Y-70563088D01*
X135940918Y-70265537D01*
X135761987Y-69997748D01*
X135534252Y-69770013D01*
X135266463Y-69591082D01*
X134968912Y-69467832D01*
X134653033Y-69405000D01*
X134330967Y-69405000D01*
X134015088Y-69467832D01*
X133717537Y-69591082D01*
X133449748Y-69770013D01*
X133222013Y-69997748D01*
X133043082Y-70265537D01*
X132919832Y-70563088D01*
X132857000Y-70878967D01*
X132857000Y-71201033D01*
X132919832Y-71516912D01*
X133043082Y-71814463D01*
X133222013Y-72082252D01*
X133449748Y-72309987D01*
X133717537Y-72488918D01*
X134015088Y-72612168D01*
X134330967Y-72675000D01*
X134653033Y-72675000D01*
X134968912Y-72612168D01*
X134983376Y-72606177D01*
X137743211Y-75366013D01*
X137767010Y-75395012D01*
X137882735Y-75489985D01*
X138014764Y-75560557D01*
X138158025Y-75604014D01*
X138269678Y-75615011D01*
X138269687Y-75615011D01*
X138307010Y-75618687D01*
X138344333Y-75615011D01*
X140657210Y-75615011D01*
X143614127Y-78571928D01*
X142202000Y-78571928D01*
X142077518Y-78584188D01*
X141957820Y-78620498D01*
X141847506Y-78679463D01*
X141750815Y-78758815D01*
X141671463Y-78855506D01*
X141612498Y-78965820D01*
X141576188Y-79085518D01*
X141563928Y-79210000D01*
X141563928Y-80810000D01*
X141576188Y-80934482D01*
X141612498Y-81054180D01*
X141671463Y-81164494D01*
X141750815Y-81261185D01*
X141847506Y-81340537D01*
X141957820Y-81399502D01*
X142077518Y-81435812D01*
X142095482Y-81437581D01*
X141982392Y-81530392D01*
X141803068Y-81748899D01*
X141669818Y-81998192D01*
X141587764Y-82268691D01*
X141560057Y-82550000D01*
X141587764Y-82831309D01*
X141669818Y-83101808D01*
X141803068Y-83351101D01*
X141982392Y-83569608D01*
X142200899Y-83748932D01*
X142333858Y-83820000D01*
X142200899Y-83891068D01*
X141982392Y-84070392D01*
X141803068Y-84288899D01*
X141669818Y-84538192D01*
X141587764Y-84808691D01*
X141560057Y-85090000D01*
X141587764Y-85371309D01*
X141669818Y-85641808D01*
X141803068Y-85891101D01*
X141982392Y-86109608D01*
X142200899Y-86288932D01*
X142333858Y-86360000D01*
X142200899Y-86431068D01*
X141982392Y-86610392D01*
X141803068Y-86828899D01*
X141669818Y-87078192D01*
X141587764Y-87348691D01*
X141560057Y-87630000D01*
X141587764Y-87911309D01*
X141669818Y-88181808D01*
X141803068Y-88431101D01*
X141982392Y-88649608D01*
X142200899Y-88828932D01*
X142333858Y-88900000D01*
X142200899Y-88971068D01*
X141982392Y-89150392D01*
X141803068Y-89368899D01*
X141669818Y-89618192D01*
X141587764Y-89888691D01*
X141560057Y-90170000D01*
X141587764Y-90451309D01*
X141669818Y-90721808D01*
X141803068Y-90971101D01*
X141982392Y-91189608D01*
X142200899Y-91368932D01*
X142333858Y-91440000D01*
X142200899Y-91511068D01*
X141982392Y-91690392D01*
X141803068Y-91908899D01*
X141669818Y-92158192D01*
X141587764Y-92428691D01*
X141560057Y-92710000D01*
X141587764Y-92991309D01*
X141669818Y-93261808D01*
X141803068Y-93511101D01*
X141982392Y-93729608D01*
X142200899Y-93908932D01*
X142333858Y-93980000D01*
X142200899Y-94051068D01*
X141982392Y-94230392D01*
X141803068Y-94448899D01*
X141669818Y-94698192D01*
X141587764Y-94968691D01*
X141560057Y-95250000D01*
X141587764Y-95531309D01*
X141669818Y-95801808D01*
X141803068Y-96051101D01*
X141982392Y-96269608D01*
X142200899Y-96448932D01*
X142450192Y-96582182D01*
X142720691Y-96664236D01*
X142931508Y-96685000D01*
X143072492Y-96685000D01*
X143283309Y-96664236D01*
X143553808Y-96582182D01*
X143803101Y-96448932D01*
X144021608Y-96269608D01*
X144200932Y-96051101D01*
X144334182Y-95801808D01*
X144416236Y-95531309D01*
X144443943Y-95250000D01*
X144416236Y-94968691D01*
X144334182Y-94698192D01*
X144200932Y-94448899D01*
X144021608Y-94230392D01*
X143803101Y-94051068D01*
X143670142Y-93980000D01*
X143803101Y-93908932D01*
X144021608Y-93729608D01*
X144200932Y-93511101D01*
X144334182Y-93261808D01*
X144416236Y-92991309D01*
X144443943Y-92710000D01*
X144441402Y-92684204D01*
X148643202Y-96886004D01*
X148667000Y-96915002D01*
X148695998Y-96938800D01*
X148782725Y-97009975D01*
X148914754Y-97080547D01*
X149058015Y-97124004D01*
X149207001Y-97138678D01*
X149244334Y-97135001D01*
X158303823Y-97135001D01*
X158262774Y-97234102D01*
X158223000Y-97434061D01*
X158223000Y-97637939D01*
X158262774Y-97837898D01*
X158340795Y-98026256D01*
X158454063Y-98195774D01*
X158598226Y-98339937D01*
X158767744Y-98453205D01*
X158956102Y-98531226D01*
X159156061Y-98571000D01*
X159359939Y-98571000D01*
X159559898Y-98531226D01*
X159748256Y-98453205D01*
X159917774Y-98339937D01*
X160061937Y-98195774D01*
X160164685Y-98042000D01*
X161094289Y-98042000D01*
X161138226Y-98085937D01*
X161307744Y-98199205D01*
X161496102Y-98277226D01*
X161696061Y-98317000D01*
X161899939Y-98317000D01*
X162099898Y-98277226D01*
X162193920Y-98238281D01*
X156967940Y-103464261D01*
X156900932Y-103338899D01*
X156721608Y-103120392D01*
X156608518Y-103027581D01*
X156626482Y-103025812D01*
X156746180Y-102989502D01*
X156856494Y-102930537D01*
X156953185Y-102851185D01*
X157032537Y-102754494D01*
X157091502Y-102644180D01*
X157127812Y-102524482D01*
X157140072Y-102400000D01*
X157140072Y-100800000D01*
X157127812Y-100675518D01*
X157091502Y-100555820D01*
X157032537Y-100445506D01*
X156953185Y-100348815D01*
X156856494Y-100269463D01*
X156746180Y-100210498D01*
X156626482Y-100174188D01*
X156502000Y-100161928D01*
X154902000Y-100161928D01*
X154777518Y-100174188D01*
X154657820Y-100210498D01*
X154547506Y-100269463D01*
X154450815Y-100348815D01*
X154371463Y-100445506D01*
X154312498Y-100555820D01*
X154276188Y-100675518D01*
X154263928Y-100800000D01*
X154263928Y-102400000D01*
X154276188Y-102524482D01*
X154312498Y-102644180D01*
X154371463Y-102754494D01*
X154450815Y-102851185D01*
X154547506Y-102930537D01*
X154657820Y-102989502D01*
X154777518Y-103025812D01*
X154795482Y-103027581D01*
X154682392Y-103120392D01*
X154503068Y-103338899D01*
X154369818Y-103588192D01*
X154287764Y-103858691D01*
X154260057Y-104140000D01*
X154287764Y-104421309D01*
X154369818Y-104691808D01*
X154424975Y-104794999D01*
X146819025Y-104794999D01*
X146874182Y-104691808D01*
X146956236Y-104421309D01*
X146983943Y-104140000D01*
X146956236Y-103858691D01*
X146874182Y-103588192D01*
X146740932Y-103338899D01*
X146561608Y-103120392D01*
X146343101Y-102941068D01*
X146205318Y-102867421D01*
X146397131Y-102752385D01*
X146605519Y-102563414D01*
X146773037Y-102337420D01*
X146893246Y-102083087D01*
X146933904Y-101949039D01*
X146811915Y-101727000D01*
X145669000Y-101727000D01*
X145669000Y-101747000D01*
X145415000Y-101747000D01*
X145415000Y-101727000D01*
X144272085Y-101727000D01*
X144150096Y-101949039D01*
X144190754Y-102083087D01*
X144310963Y-102337420D01*
X144478481Y-102563414D01*
X144686869Y-102752385D01*
X144878682Y-102867421D01*
X144740899Y-102941068D01*
X144522392Y-103120392D01*
X144343068Y-103338899D01*
X144209818Y-103588192D01*
X144127764Y-103858691D01*
X144100057Y-104140000D01*
X144127764Y-104421309D01*
X144209818Y-104691808D01*
X144264975Y-104794999D01*
X139199025Y-104794999D01*
X139254182Y-104691808D01*
X139336236Y-104421309D01*
X139363943Y-104140000D01*
X139336236Y-103858691D01*
X139254182Y-103588192D01*
X139120932Y-103338899D01*
X138941608Y-103120392D01*
X138828518Y-103027581D01*
X138846482Y-103025812D01*
X138966180Y-102989502D01*
X139076494Y-102930537D01*
X139173185Y-102851185D01*
X139252537Y-102754494D01*
X139311502Y-102644180D01*
X139347812Y-102524482D01*
X139360072Y-102400000D01*
X139360072Y-101250961D01*
X144150096Y-101250961D01*
X144272085Y-101473000D01*
X145415000Y-101473000D01*
X145415000Y-100329376D01*
X145669000Y-100329376D01*
X145669000Y-101473000D01*
X146811915Y-101473000D01*
X146933904Y-101250961D01*
X146893246Y-101116913D01*
X146773037Y-100862580D01*
X146605519Y-100636586D01*
X146397131Y-100447615D01*
X146155881Y-100302930D01*
X145891040Y-100208091D01*
X145669000Y-100329376D01*
X145415000Y-100329376D01*
X145192960Y-100208091D01*
X144928119Y-100302930D01*
X144686869Y-100447615D01*
X144478481Y-100636586D01*
X144310963Y-100862580D01*
X144190754Y-101116913D01*
X144150096Y-101250961D01*
X139360072Y-101250961D01*
X139360072Y-100800000D01*
X139347812Y-100675518D01*
X139311502Y-100555820D01*
X139252537Y-100445506D01*
X139173185Y-100348815D01*
X139076494Y-100269463D01*
X138966180Y-100210498D01*
X138846482Y-100174188D01*
X138722000Y-100161928D01*
X137122000Y-100161928D01*
X136997518Y-100174188D01*
X136877820Y-100210498D01*
X136767506Y-100269463D01*
X136670815Y-100348815D01*
X136591463Y-100445506D01*
X136532498Y-100555820D01*
X136496188Y-100675518D01*
X136483928Y-100800000D01*
X136483928Y-100840000D01*
X132879323Y-100840000D01*
X132842000Y-100836324D01*
X132804677Y-100840000D01*
X132804667Y-100840000D01*
X132693014Y-100850997D01*
X132549753Y-100894454D01*
X132417723Y-100965026D01*
X132334083Y-101033668D01*
X132301999Y-101059999D01*
X132278201Y-101088997D01*
X129201402Y-104165796D01*
X129203943Y-104140000D01*
X129176236Y-103858691D01*
X129094182Y-103588192D01*
X128960932Y-103338899D01*
X128781608Y-103120392D01*
X128563101Y-102941068D01*
X128425318Y-102867421D01*
X128617131Y-102752385D01*
X128825519Y-102563414D01*
X128993037Y-102337420D01*
X129113246Y-102083087D01*
X129153904Y-101949039D01*
X129031915Y-101727000D01*
X127889000Y-101727000D01*
X127889000Y-101747000D01*
X127635000Y-101747000D01*
X127635000Y-101727000D01*
X127615000Y-101727000D01*
X127615000Y-101473000D01*
X127635000Y-101473000D01*
X127635000Y-100329376D01*
X127889000Y-100329376D01*
X127889000Y-101473000D01*
X129031915Y-101473000D01*
X129153904Y-101250961D01*
X129113246Y-101116913D01*
X128993037Y-100862580D01*
X128825519Y-100636586D01*
X128617131Y-100447615D01*
X128375881Y-100302930D01*
X128111040Y-100208091D01*
X127889000Y-100329376D01*
X127635000Y-100329376D01*
X127412960Y-100208091D01*
X127396999Y-100213807D01*
X127396999Y-94149802D01*
X128862598Y-92684204D01*
X128860057Y-92710000D01*
X128887764Y-92991309D01*
X128969818Y-93261808D01*
X129103068Y-93511101D01*
X129282392Y-93729608D01*
X129500899Y-93908932D01*
X129633858Y-93980000D01*
X129500899Y-94051068D01*
X129282392Y-94230392D01*
X129103068Y-94448899D01*
X128969818Y-94698192D01*
X128887764Y-94968691D01*
X128860057Y-95250000D01*
X128887764Y-95531309D01*
X128969818Y-95801808D01*
X129103068Y-96051101D01*
X129282392Y-96269608D01*
X129500899Y-96448932D01*
X129750192Y-96582182D01*
X130020691Y-96664236D01*
X130231508Y-96685000D01*
X130372492Y-96685000D01*
X130583309Y-96664236D01*
X130853808Y-96582182D01*
X131103101Y-96448932D01*
X131321608Y-96269608D01*
X131500932Y-96051101D01*
X131634182Y-95801808D01*
X131716236Y-95531309D01*
X131743943Y-95250000D01*
X131716236Y-94968691D01*
X131634182Y-94698192D01*
X131500932Y-94448899D01*
X131321608Y-94230392D01*
X131103101Y-94051068D01*
X130970142Y-93980000D01*
X131103101Y-93908932D01*
X131321608Y-93729608D01*
X131500932Y-93511101D01*
X131634182Y-93261808D01*
X131716236Y-92991309D01*
X131743943Y-92710000D01*
X131716236Y-92428691D01*
X131634182Y-92158192D01*
X131500932Y-91908899D01*
X131321608Y-91690392D01*
X131103101Y-91511068D01*
X130970142Y-91440000D01*
X131103101Y-91368932D01*
X131321608Y-91189608D01*
X131500932Y-90971101D01*
X131634182Y-90721808D01*
X131716236Y-90451309D01*
X131743943Y-90170000D01*
X131716236Y-89888691D01*
X131634182Y-89618192D01*
X131500932Y-89368899D01*
X131321608Y-89150392D01*
X131103101Y-88971068D01*
X130970142Y-88900000D01*
X131103101Y-88828932D01*
X131321608Y-88649608D01*
X131500932Y-88431101D01*
X131634182Y-88181808D01*
X131716236Y-87911309D01*
X131743943Y-87630000D01*
X131716236Y-87348691D01*
X131634182Y-87078192D01*
X131500932Y-86828899D01*
X131321608Y-86610392D01*
X131103101Y-86431068D01*
X130970142Y-86360000D01*
X131103101Y-86288932D01*
X131321608Y-86109608D01*
X131500932Y-85891101D01*
X131634182Y-85641808D01*
X131716236Y-85371309D01*
X131743943Y-85090000D01*
X131716236Y-84808691D01*
X131634182Y-84538192D01*
X131500932Y-84288899D01*
X131321608Y-84070392D01*
X131103101Y-83891068D01*
X130970142Y-83820000D01*
X131103101Y-83748932D01*
X131321608Y-83569608D01*
X131500932Y-83351101D01*
X131634182Y-83101808D01*
X131716236Y-82831309D01*
X131743943Y-82550000D01*
X131716236Y-82268691D01*
X131634182Y-81998192D01*
X131500932Y-81748899D01*
X131321608Y-81530392D01*
X131208518Y-81437581D01*
X131226482Y-81435812D01*
X131346180Y-81399502D01*
X131456494Y-81340537D01*
X131553185Y-81261185D01*
X131632537Y-81164494D01*
X131691502Y-81054180D01*
X131727812Y-80934482D01*
X131740072Y-80810000D01*
X131740072Y-80010000D01*
X136480057Y-80010000D01*
X136507764Y-80291309D01*
X136589818Y-80561808D01*
X136723068Y-80811101D01*
X136902392Y-81029608D01*
X137120899Y-81208932D01*
X137253858Y-81280000D01*
X137120899Y-81351068D01*
X136902392Y-81530392D01*
X136723068Y-81748899D01*
X136589818Y-81998192D01*
X136507764Y-82268691D01*
X136480057Y-82550000D01*
X136507764Y-82831309D01*
X136589818Y-83101808D01*
X136723068Y-83351101D01*
X136902392Y-83569608D01*
X137120899Y-83748932D01*
X137253858Y-83820000D01*
X137120899Y-83891068D01*
X136902392Y-84070392D01*
X136723068Y-84288899D01*
X136589818Y-84538192D01*
X136507764Y-84808691D01*
X136480057Y-85090000D01*
X136507764Y-85371309D01*
X136589818Y-85641808D01*
X136723068Y-85891101D01*
X136902392Y-86109608D01*
X137120899Y-86288932D01*
X137253858Y-86360000D01*
X137120899Y-86431068D01*
X136902392Y-86610392D01*
X136723068Y-86828899D01*
X136589818Y-87078192D01*
X136507764Y-87348691D01*
X136480057Y-87630000D01*
X136507764Y-87911309D01*
X136589818Y-88181808D01*
X136723068Y-88431101D01*
X136902392Y-88649608D01*
X137120899Y-88828932D01*
X137253858Y-88900000D01*
X137120899Y-88971068D01*
X136902392Y-89150392D01*
X136723068Y-89368899D01*
X136589818Y-89618192D01*
X136507764Y-89888691D01*
X136480057Y-90170000D01*
X136507764Y-90451309D01*
X136589818Y-90721808D01*
X136723068Y-90971101D01*
X136902392Y-91189608D01*
X137120899Y-91368932D01*
X137253858Y-91440000D01*
X137120899Y-91511068D01*
X136902392Y-91690392D01*
X136723068Y-91908899D01*
X136589818Y-92158192D01*
X136507764Y-92428691D01*
X136480057Y-92710000D01*
X136507764Y-92991309D01*
X136589818Y-93261808D01*
X136723068Y-93511101D01*
X136902392Y-93729608D01*
X137120899Y-93908932D01*
X137253858Y-93980000D01*
X137120899Y-94051068D01*
X136902392Y-94230392D01*
X136723068Y-94448899D01*
X136589818Y-94698192D01*
X136507764Y-94968691D01*
X136480057Y-95250000D01*
X136507764Y-95531309D01*
X136589818Y-95801808D01*
X136723068Y-96051101D01*
X136902392Y-96269608D01*
X137120899Y-96448932D01*
X137370192Y-96582182D01*
X137640691Y-96664236D01*
X137851508Y-96685000D01*
X137992492Y-96685000D01*
X138203309Y-96664236D01*
X138473808Y-96582182D01*
X138723101Y-96448932D01*
X138941608Y-96269608D01*
X139120932Y-96051101D01*
X139254182Y-95801808D01*
X139336236Y-95531309D01*
X139363943Y-95250000D01*
X139336236Y-94968691D01*
X139254182Y-94698192D01*
X139120932Y-94448899D01*
X138941608Y-94230392D01*
X138723101Y-94051068D01*
X138590142Y-93980000D01*
X138723101Y-93908932D01*
X138941608Y-93729608D01*
X139120932Y-93511101D01*
X139254182Y-93261808D01*
X139336236Y-92991309D01*
X139363943Y-92710000D01*
X139336236Y-92428691D01*
X139254182Y-92158192D01*
X139120932Y-91908899D01*
X138941608Y-91690392D01*
X138723101Y-91511068D01*
X138590142Y-91440000D01*
X138723101Y-91368932D01*
X138941608Y-91189608D01*
X139120932Y-90971101D01*
X139254182Y-90721808D01*
X139336236Y-90451309D01*
X139363943Y-90170000D01*
X139336236Y-89888691D01*
X139254182Y-89618192D01*
X139120932Y-89368899D01*
X138941608Y-89150392D01*
X138723101Y-88971068D01*
X138590142Y-88900000D01*
X138723101Y-88828932D01*
X138941608Y-88649608D01*
X139120932Y-88431101D01*
X139254182Y-88181808D01*
X139336236Y-87911309D01*
X139363943Y-87630000D01*
X139336236Y-87348691D01*
X139254182Y-87078192D01*
X139120932Y-86828899D01*
X138941608Y-86610392D01*
X138723101Y-86431068D01*
X138590142Y-86360000D01*
X138723101Y-86288932D01*
X138941608Y-86109608D01*
X139120932Y-85891101D01*
X139254182Y-85641808D01*
X139336236Y-85371309D01*
X139363943Y-85090000D01*
X139336236Y-84808691D01*
X139254182Y-84538192D01*
X139120932Y-84288899D01*
X138941608Y-84070392D01*
X138723101Y-83891068D01*
X138590142Y-83820000D01*
X138723101Y-83748932D01*
X138941608Y-83569608D01*
X139120932Y-83351101D01*
X139254182Y-83101808D01*
X139336236Y-82831309D01*
X139363943Y-82550000D01*
X139336236Y-82268691D01*
X139254182Y-81998192D01*
X139120932Y-81748899D01*
X138941608Y-81530392D01*
X138723101Y-81351068D01*
X138590142Y-81280000D01*
X138723101Y-81208932D01*
X138941608Y-81029608D01*
X139120932Y-80811101D01*
X139254182Y-80561808D01*
X139336236Y-80291309D01*
X139363943Y-80010000D01*
X139336236Y-79728691D01*
X139254182Y-79458192D01*
X139120932Y-79208899D01*
X138941608Y-78990392D01*
X138723101Y-78811068D01*
X138473808Y-78677818D01*
X138203309Y-78595764D01*
X137992492Y-78575000D01*
X137851508Y-78575000D01*
X137640691Y-78595764D01*
X137370192Y-78677818D01*
X137120899Y-78811068D01*
X136902392Y-78990392D01*
X136723068Y-79208899D01*
X136589818Y-79458192D01*
X136507764Y-79728691D01*
X136480057Y-80010000D01*
X131740072Y-80010000D01*
X131740072Y-79210000D01*
X131727812Y-79085518D01*
X131691502Y-78965820D01*
X131632537Y-78855506D01*
X131553185Y-78758815D01*
X131456494Y-78679463D01*
X131346180Y-78620498D01*
X131226482Y-78584188D01*
X131102000Y-78571928D01*
X129502000Y-78571928D01*
X129377518Y-78584188D01*
X129257820Y-78620498D01*
X129147506Y-78679463D01*
X129050815Y-78758815D01*
X128971463Y-78855506D01*
X128912498Y-78965820D01*
X128876188Y-79085518D01*
X128863928Y-79210000D01*
X128863928Y-79355674D01*
X128827723Y-79375026D01*
X128757489Y-79432666D01*
X128711999Y-79469999D01*
X128688201Y-79498997D01*
X125675987Y-82511212D01*
X125646989Y-82535010D01*
X125623191Y-82564008D01*
X125623190Y-82564009D01*
X125552015Y-82650735D01*
X125481443Y-82782765D01*
X125466718Y-82831309D01*
X125446267Y-82898731D01*
X125437987Y-82926026D01*
X125423313Y-83075011D01*
X125426990Y-83112344D01*
X125426989Y-109909079D01*
X125423313Y-109946401D01*
X125426989Y-109983723D01*
X125426989Y-109983733D01*
X125437986Y-110095386D01*
X125481443Y-110238647D01*
X125552015Y-110370677D01*
X125571956Y-110394975D01*
X125646988Y-110486402D01*
X125675991Y-110510204D01*
X126471799Y-111306013D01*
X126495597Y-111335011D01*
X126611322Y-111429984D01*
X126743351Y-111500556D01*
X126886612Y-111544013D01*
X126998265Y-111555010D01*
X126998274Y-111555010D01*
X127035597Y-111558686D01*
X127072920Y-111555010D01*
X151549668Y-111555010D01*
X151586990Y-111558686D01*
X151624312Y-111555010D01*
X151624323Y-111555010D01*
X151735976Y-111544013D01*
X151879237Y-111500556D01*
X152011266Y-111429984D01*
X152126991Y-111335011D01*
X152150794Y-111306007D01*
X153887762Y-109569039D01*
X154310096Y-109569039D01*
X154350754Y-109703087D01*
X154470963Y-109957420D01*
X154638481Y-110183414D01*
X154846869Y-110372385D01*
X155088119Y-110517070D01*
X155352960Y-110611909D01*
X155575000Y-110490624D01*
X155575000Y-109347000D01*
X155829000Y-109347000D01*
X155829000Y-110490624D01*
X156051040Y-110611909D01*
X156315881Y-110517070D01*
X156557131Y-110372385D01*
X156765519Y-110183414D01*
X156933037Y-109957420D01*
X157053246Y-109703087D01*
X157093904Y-109569039D01*
X156971915Y-109347000D01*
X155829000Y-109347000D01*
X155575000Y-109347000D01*
X154432085Y-109347000D01*
X154310096Y-109569039D01*
X153887762Y-109569039D01*
X154407872Y-109048929D01*
X154432085Y-109093000D01*
X155575000Y-109093000D01*
X155575000Y-109073000D01*
X155829000Y-109073000D01*
X155829000Y-109093000D01*
X156971915Y-109093000D01*
X157093904Y-108870961D01*
X157053246Y-108736913D01*
X156933037Y-108482580D01*
X156765519Y-108256586D01*
X156557131Y-108067615D01*
X156365318Y-107952579D01*
X156503101Y-107878932D01*
X156721608Y-107699608D01*
X156900932Y-107481101D01*
X157034182Y-107231808D01*
X157116236Y-106961309D01*
X157143943Y-106680000D01*
X157116236Y-106398691D01*
X157034182Y-106128192D01*
X156900932Y-105878899D01*
X156811670Y-105770133D01*
X158441803Y-104140000D01*
X161880057Y-104140000D01*
X161907764Y-104421309D01*
X161989818Y-104691808D01*
X162123068Y-104941101D01*
X162302392Y-105159608D01*
X162520899Y-105338932D01*
X162653858Y-105410000D01*
X162520899Y-105481068D01*
X162302392Y-105660392D01*
X162123068Y-105878899D01*
X161989818Y-106128192D01*
X161907764Y-106398691D01*
X161880057Y-106680000D01*
X161907764Y-106961309D01*
X161989818Y-107231808D01*
X162123068Y-107481101D01*
X162302392Y-107699608D01*
X162520899Y-107878932D01*
X162653858Y-107950000D01*
X162520899Y-108021068D01*
X162302392Y-108200392D01*
X162123068Y-108418899D01*
X161989818Y-108668192D01*
X161907764Y-108938691D01*
X161880057Y-109220000D01*
X161907764Y-109501309D01*
X161989818Y-109771808D01*
X162123068Y-110021101D01*
X162302392Y-110239608D01*
X162520899Y-110418932D01*
X162770192Y-110552182D01*
X163040691Y-110634236D01*
X163251508Y-110655000D01*
X163392492Y-110655000D01*
X163603309Y-110634236D01*
X163873808Y-110552182D01*
X164123101Y-110418932D01*
X164341608Y-110239608D01*
X164520932Y-110021101D01*
X164654182Y-109771808D01*
X164736236Y-109501309D01*
X164763943Y-109220000D01*
X164736236Y-108938691D01*
X164654182Y-108668192D01*
X164520932Y-108418899D01*
X164341608Y-108200392D01*
X164123101Y-108021068D01*
X163990142Y-107950000D01*
X164123101Y-107878932D01*
X164341608Y-107699608D01*
X164520932Y-107481101D01*
X164654182Y-107231808D01*
X164736236Y-106961309D01*
X164763943Y-106680000D01*
X164736236Y-106398691D01*
X164704635Y-106294514D01*
X172147000Y-106294514D01*
X172147000Y-106557486D01*
X172198304Y-106815405D01*
X172298939Y-107058359D01*
X172445038Y-107277013D01*
X172630987Y-107462962D01*
X172849641Y-107609061D01*
X173092595Y-107709696D01*
X173350514Y-107761000D01*
X173613486Y-107761000D01*
X173871405Y-107709696D01*
X174114359Y-107609061D01*
X174333013Y-107462962D01*
X174518962Y-107277013D01*
X174665061Y-107058359D01*
X174765696Y-106815405D01*
X174817000Y-106557486D01*
X174817000Y-106294514D01*
X174765696Y-106036595D01*
X174665061Y-105793641D01*
X174518962Y-105574987D01*
X174333013Y-105389038D01*
X174114359Y-105242939D01*
X173871405Y-105142304D01*
X173613486Y-105091000D01*
X173350514Y-105091000D01*
X173092595Y-105142304D01*
X172849641Y-105242939D01*
X172630987Y-105389038D01*
X172445038Y-105574987D01*
X172298939Y-105793641D01*
X172198304Y-106036595D01*
X172147000Y-106294514D01*
X164704635Y-106294514D01*
X164654182Y-106128192D01*
X164520932Y-105878899D01*
X164341608Y-105660392D01*
X164123101Y-105481068D01*
X163990142Y-105410000D01*
X164123101Y-105338932D01*
X164341608Y-105159608D01*
X164520932Y-104941101D01*
X164654182Y-104691808D01*
X164736236Y-104421309D01*
X164763943Y-104140000D01*
X164736236Y-103858691D01*
X164654182Y-103588192D01*
X164520932Y-103338899D01*
X164341608Y-103120392D01*
X164177851Y-102986000D01*
X175753928Y-102986000D01*
X175753928Y-104786000D01*
X175766188Y-104910482D01*
X175802498Y-105030180D01*
X175861463Y-105140494D01*
X175940815Y-105237185D01*
X176037506Y-105316537D01*
X176147820Y-105375502D01*
X176267518Y-105411812D01*
X176392000Y-105424072D01*
X178192000Y-105424072D01*
X178316482Y-105411812D01*
X178436180Y-105375502D01*
X178546494Y-105316537D01*
X178643185Y-105237185D01*
X178722537Y-105140494D01*
X178781502Y-105030180D01*
X178787056Y-105011873D01*
X178853495Y-105078312D01*
X179104905Y-105246299D01*
X179384257Y-105362011D01*
X179680816Y-105421000D01*
X179983184Y-105421000D01*
X180279743Y-105362011D01*
X180559095Y-105246299D01*
X180810505Y-105078312D01*
X181024312Y-104864505D01*
X181192299Y-104613095D01*
X181308011Y-104333743D01*
X181367000Y-104037184D01*
X181367000Y-103734816D01*
X181308011Y-103438257D01*
X181192299Y-103158905D01*
X181024312Y-102907495D01*
X180810505Y-102693688D01*
X180559095Y-102525701D01*
X180279743Y-102409989D01*
X179983184Y-102351000D01*
X179680816Y-102351000D01*
X179384257Y-102409989D01*
X179104905Y-102525701D01*
X178853495Y-102693688D01*
X178787056Y-102760127D01*
X178781502Y-102741820D01*
X178722537Y-102631506D01*
X178643185Y-102534815D01*
X178546494Y-102455463D01*
X178436180Y-102396498D01*
X178316482Y-102360188D01*
X178192000Y-102347928D01*
X176392000Y-102347928D01*
X176267518Y-102360188D01*
X176147820Y-102396498D01*
X176037506Y-102455463D01*
X175940815Y-102534815D01*
X175861463Y-102631506D01*
X175802498Y-102741820D01*
X175766188Y-102861518D01*
X175753928Y-102986000D01*
X164177851Y-102986000D01*
X164123101Y-102941068D01*
X163985318Y-102867421D01*
X164177131Y-102752385D01*
X164385519Y-102563414D01*
X164553037Y-102337420D01*
X164673246Y-102083087D01*
X164713904Y-101949039D01*
X164591915Y-101727000D01*
X163449000Y-101727000D01*
X163449000Y-101747000D01*
X163195000Y-101747000D01*
X163195000Y-101727000D01*
X162052085Y-101727000D01*
X161930096Y-101949039D01*
X161970754Y-102083087D01*
X162090963Y-102337420D01*
X162258481Y-102563414D01*
X162466869Y-102752385D01*
X162658682Y-102867421D01*
X162520899Y-102941068D01*
X162302392Y-103120392D01*
X162123068Y-103338899D01*
X161989818Y-103588192D01*
X161907764Y-103858691D01*
X161880057Y-104140000D01*
X158441803Y-104140000D01*
X161330842Y-101250961D01*
X161930096Y-101250961D01*
X162052085Y-101473000D01*
X163195000Y-101473000D01*
X163195000Y-100329376D01*
X163449000Y-100329376D01*
X163449000Y-101473000D01*
X164591915Y-101473000D01*
X164661689Y-101346000D01*
X172140541Y-101346000D01*
X172166317Y-101607706D01*
X172242653Y-101859354D01*
X172366618Y-102091275D01*
X172533445Y-102294555D01*
X172736725Y-102461382D01*
X172968646Y-102585347D01*
X173220294Y-102661683D01*
X173416421Y-102681000D01*
X173547579Y-102681000D01*
X173743706Y-102661683D01*
X173995354Y-102585347D01*
X174227275Y-102461382D01*
X174430555Y-102294555D01*
X174597382Y-102091275D01*
X174721347Y-101859354D01*
X174797683Y-101607706D01*
X174823459Y-101346000D01*
X174797683Y-101084294D01*
X174721347Y-100832646D01*
X174597382Y-100600725D01*
X174430555Y-100397445D01*
X174227275Y-100230618D01*
X173995354Y-100106653D01*
X173743706Y-100030317D01*
X173547579Y-100011000D01*
X173416421Y-100011000D01*
X173220294Y-100030317D01*
X172968646Y-100106653D01*
X172736725Y-100230618D01*
X172533445Y-100397445D01*
X172366618Y-100600725D01*
X172242653Y-100832646D01*
X172166317Y-101084294D01*
X172140541Y-101346000D01*
X164661689Y-101346000D01*
X164713904Y-101250961D01*
X164673246Y-101116913D01*
X164553037Y-100862580D01*
X164385519Y-100636586D01*
X164177131Y-100447615D01*
X163935881Y-100302930D01*
X163671040Y-100208091D01*
X163449000Y-100329376D01*
X163195000Y-100329376D01*
X162972960Y-100208091D01*
X162708119Y-100302930D01*
X162466869Y-100447615D01*
X162258481Y-100636586D01*
X162090963Y-100862580D01*
X161970754Y-101116913D01*
X161930096Y-101250961D01*
X161330842Y-101250961D01*
X163381182Y-99200622D01*
X163420795Y-99296256D01*
X163534063Y-99465774D01*
X163678226Y-99609937D01*
X163847744Y-99723205D01*
X164036102Y-99801226D01*
X164236061Y-99841000D01*
X164439939Y-99841000D01*
X164639898Y-99801226D01*
X164828256Y-99723205D01*
X164997774Y-99609937D01*
X165041711Y-99566000D01*
X165062678Y-99566000D01*
X165100000Y-99569676D01*
X165137322Y-99566000D01*
X165137333Y-99566000D01*
X165248986Y-99555003D01*
X165392247Y-99511546D01*
X165524276Y-99440974D01*
X165640001Y-99346001D01*
X165663804Y-99316997D01*
X166409802Y-98571000D01*
X166471939Y-98571000D01*
X166671898Y-98531226D01*
X166860256Y-98453205D01*
X167029774Y-98339937D01*
X167173937Y-98195774D01*
X167287205Y-98026256D01*
X167365226Y-97837898D01*
X167405000Y-97637939D01*
X167405000Y-97434061D01*
X167365226Y-97234102D01*
X167287205Y-97045744D01*
X167173937Y-96876226D01*
X167029774Y-96732063D01*
X166959339Y-96685000D01*
X167233335Y-96685000D01*
X167510574Y-96629853D01*
X167771727Y-96521680D01*
X168006759Y-96364637D01*
X168206637Y-96164759D01*
X168363680Y-95929727D01*
X168471853Y-95668574D01*
X168527000Y-95391335D01*
X168527000Y-95108665D01*
X168471853Y-94831426D01*
X168363680Y-94570273D01*
X168206637Y-94335241D01*
X168006759Y-94135363D01*
X167771727Y-93978320D01*
X167721349Y-93957453D01*
X168084287Y-93594514D01*
X172147000Y-93594514D01*
X172147000Y-93857486D01*
X172198304Y-94115405D01*
X172298939Y-94358359D01*
X172445038Y-94577013D01*
X172630987Y-94762962D01*
X172849641Y-94909061D01*
X173092595Y-95009696D01*
X173350514Y-95061000D01*
X173613486Y-95061000D01*
X173871405Y-95009696D01*
X174114359Y-94909061D01*
X174333013Y-94762962D01*
X174518962Y-94577013D01*
X174665061Y-94358359D01*
X174765696Y-94115405D01*
X174817000Y-93857486D01*
X174817000Y-93594514D01*
X174765696Y-93336595D01*
X174665061Y-93093641D01*
X174518962Y-92874987D01*
X174333013Y-92689038D01*
X174114359Y-92542939D01*
X173871405Y-92442304D01*
X173613486Y-92391000D01*
X173350514Y-92391000D01*
X173092595Y-92442304D01*
X172849641Y-92542939D01*
X172630987Y-92689038D01*
X172445038Y-92874987D01*
X172298939Y-93093641D01*
X172198304Y-93336595D01*
X172147000Y-93594514D01*
X168084287Y-93594514D01*
X171392801Y-90286000D01*
X175753928Y-90286000D01*
X175753928Y-92086000D01*
X175766188Y-92210482D01*
X175802498Y-92330180D01*
X175861463Y-92440494D01*
X175940815Y-92537185D01*
X176037506Y-92616537D01*
X176147820Y-92675502D01*
X176267518Y-92711812D01*
X176392000Y-92724072D01*
X178192000Y-92724072D01*
X178316482Y-92711812D01*
X178436180Y-92675502D01*
X178546494Y-92616537D01*
X178643185Y-92537185D01*
X178722537Y-92440494D01*
X178781502Y-92330180D01*
X178787056Y-92311873D01*
X178853495Y-92378312D01*
X179104905Y-92546299D01*
X179384257Y-92662011D01*
X179680816Y-92721000D01*
X179983184Y-92721000D01*
X180279743Y-92662011D01*
X180559095Y-92546299D01*
X180810505Y-92378312D01*
X181024312Y-92164505D01*
X181192299Y-91913095D01*
X181308011Y-91633743D01*
X181367000Y-91337184D01*
X181367000Y-91034816D01*
X181308011Y-90738257D01*
X181192299Y-90458905D01*
X181024312Y-90207495D01*
X180810505Y-89993688D01*
X180559095Y-89825701D01*
X180279743Y-89709989D01*
X179983184Y-89651000D01*
X179680816Y-89651000D01*
X179384257Y-89709989D01*
X179104905Y-89825701D01*
X178853495Y-89993688D01*
X178787056Y-90060127D01*
X178781502Y-90041820D01*
X178722537Y-89931506D01*
X178643185Y-89834815D01*
X178546494Y-89755463D01*
X178436180Y-89696498D01*
X178316482Y-89660188D01*
X178192000Y-89647928D01*
X176392000Y-89647928D01*
X176267518Y-89660188D01*
X176147820Y-89696498D01*
X176037506Y-89755463D01*
X175940815Y-89834815D01*
X175861463Y-89931506D01*
X175802498Y-90041820D01*
X175766188Y-90161518D01*
X175753928Y-90286000D01*
X171392801Y-90286000D01*
X172339068Y-89339733D01*
X172366618Y-89391275D01*
X172533445Y-89594555D01*
X172736725Y-89761382D01*
X172968646Y-89885347D01*
X173220294Y-89961683D01*
X173416421Y-89981000D01*
X173547579Y-89981000D01*
X173743706Y-89961683D01*
X173995354Y-89885347D01*
X174227275Y-89761382D01*
X174430555Y-89594555D01*
X174597382Y-89391275D01*
X174721347Y-89159354D01*
X174797683Y-88907706D01*
X174823459Y-88646000D01*
X174797683Y-88384294D01*
X174721347Y-88132646D01*
X174597382Y-87900725D01*
X174430555Y-87697445D01*
X174227275Y-87530618D01*
X174175733Y-87503068D01*
X182629003Y-79049799D01*
X182658001Y-79026001D01*
X182752974Y-78910276D01*
X182823546Y-78778247D01*
X182867003Y-78634986D01*
X182878000Y-78523333D01*
X182878000Y-78523325D01*
X182881676Y-78486000D01*
X182878000Y-78448675D01*
X182878000Y-76237325D01*
X182881676Y-76200000D01*
X182878000Y-76162675D01*
X182878000Y-76162667D01*
X182867003Y-76051014D01*
X182823546Y-75907753D01*
X182752974Y-75775724D01*
X182658001Y-75659999D01*
X182629003Y-75636201D01*
X180132803Y-73140002D01*
X180109000Y-73110998D01*
X179993275Y-73016025D01*
X179861246Y-72945453D01*
X179717985Y-72901996D01*
X179606332Y-72890999D01*
X179606321Y-72890999D01*
X179568999Y-72887323D01*
X179531677Y-72890999D01*
X170017801Y-72890999D01*
X169681802Y-72555000D01*
X169813335Y-72555000D01*
X170090574Y-72499853D01*
X170351727Y-72391680D01*
X170586759Y-72234637D01*
X170786637Y-72034759D01*
X170943680Y-71799727D01*
X171051853Y-71538574D01*
X171107000Y-71261335D01*
X171107000Y-70978665D01*
X171051853Y-70701426D01*
X170943680Y-70440273D01*
X170786637Y-70205241D01*
X170586759Y-70005363D01*
X170351727Y-69848320D01*
X170090574Y-69740147D01*
X169813335Y-69685000D01*
X169530665Y-69685000D01*
X169253426Y-69740147D01*
X168992273Y-69848320D01*
X168757241Y-70005363D01*
X168557363Y-70205241D01*
X168422000Y-70407827D01*
X168286637Y-70205241D01*
X168086759Y-70005363D01*
X167851727Y-69848320D01*
X167590574Y-69740147D01*
X167313335Y-69685000D01*
X167030665Y-69685000D01*
X166753426Y-69740147D01*
X166492273Y-69848320D01*
X166257241Y-70005363D01*
X166057363Y-70205241D01*
X165900320Y-70440273D01*
X165792147Y-70701426D01*
X165737000Y-70978665D01*
X165737000Y-71261335D01*
X165792147Y-71538574D01*
X165900320Y-71799727D01*
X166057363Y-72034759D01*
X166257241Y-72234637D01*
X166492273Y-72391680D01*
X166753426Y-72499853D01*
X167030665Y-72555000D01*
X167313335Y-72555000D01*
X167495886Y-72518688D01*
X169139199Y-74162001D01*
X169162998Y-74191000D01*
X169191996Y-74214798D01*
X169278722Y-74285973D01*
X169387297Y-74344008D01*
X169410752Y-74356545D01*
X169554013Y-74400002D01*
X169665666Y-74410999D01*
X169665675Y-74410999D01*
X169702998Y-74414675D01*
X169740321Y-74410999D01*
X172173558Y-74410999D01*
X172147000Y-74544514D01*
X172147000Y-74807486D01*
X172198304Y-75065405D01*
X172298939Y-75308359D01*
X172445038Y-75527013D01*
X172630987Y-75712962D01*
X172849641Y-75859061D01*
X173092595Y-75959696D01*
X173350514Y-76011000D01*
X173613486Y-76011000D01*
X173871405Y-75959696D01*
X174114359Y-75859061D01*
X174333013Y-75712962D01*
X174518962Y-75527013D01*
X174665061Y-75308359D01*
X174765696Y-75065405D01*
X174817000Y-74807486D01*
X174817000Y-74544514D01*
X174790442Y-74410999D01*
X179254198Y-74410999D01*
X181358000Y-76514802D01*
X181358000Y-77019572D01*
X181308011Y-76768257D01*
X181192299Y-76488905D01*
X181024312Y-76237495D01*
X180810505Y-76023688D01*
X180559095Y-75855701D01*
X180279743Y-75739989D01*
X179983184Y-75681000D01*
X179680816Y-75681000D01*
X179384257Y-75739989D01*
X179104905Y-75855701D01*
X178853495Y-76023688D01*
X178787056Y-76090127D01*
X178781502Y-76071820D01*
X178722537Y-75961506D01*
X178643185Y-75864815D01*
X178546494Y-75785463D01*
X178436180Y-75726498D01*
X178316482Y-75690188D01*
X178192000Y-75677928D01*
X176392000Y-75677928D01*
X176267518Y-75690188D01*
X176147820Y-75726498D01*
X176037506Y-75785463D01*
X175940815Y-75864815D01*
X175861463Y-75961506D01*
X175802498Y-76071820D01*
X175766188Y-76191518D01*
X175753928Y-76316000D01*
X175753928Y-78116000D01*
X175766188Y-78240482D01*
X175802498Y-78360180D01*
X175861463Y-78470494D01*
X175940815Y-78567185D01*
X176037506Y-78646537D01*
X176147820Y-78705502D01*
X176267518Y-78741812D01*
X176392000Y-78754072D01*
X177038124Y-78754072D01*
X168523287Y-87268909D01*
X168511853Y-87211426D01*
X168403680Y-86950273D01*
X168246637Y-86715241D01*
X168046759Y-86515363D01*
X167892000Y-86411957D01*
X167892000Y-85011316D01*
X168006759Y-84934637D01*
X168206637Y-84734759D01*
X168363680Y-84499727D01*
X168471853Y-84238574D01*
X168527000Y-83961335D01*
X168527000Y-83678665D01*
X168471853Y-83401426D01*
X168363680Y-83140273D01*
X168206637Y-82905241D01*
X168006759Y-82705363D01*
X167892000Y-82628684D01*
X167892000Y-81228043D01*
X168046759Y-81124637D01*
X168246637Y-80924759D01*
X168403680Y-80689727D01*
X168511853Y-80428574D01*
X168567000Y-80151335D01*
X168567000Y-79868665D01*
X168544590Y-79756000D01*
X172140541Y-79756000D01*
X172166317Y-80017706D01*
X172242653Y-80269354D01*
X172366618Y-80501275D01*
X172533445Y-80704555D01*
X172736725Y-80871382D01*
X172968646Y-80995347D01*
X173220294Y-81071683D01*
X173416421Y-81091000D01*
X173547579Y-81091000D01*
X173743706Y-81071683D01*
X173995354Y-80995347D01*
X174227275Y-80871382D01*
X174430555Y-80704555D01*
X174597382Y-80501275D01*
X174721347Y-80269354D01*
X174797683Y-80017706D01*
X174823459Y-79756000D01*
X174797683Y-79494294D01*
X174721347Y-79242646D01*
X174597382Y-79010725D01*
X174430555Y-78807445D01*
X174227275Y-78640618D01*
X173995354Y-78516653D01*
X173743706Y-78440317D01*
X173547579Y-78421000D01*
X173416421Y-78421000D01*
X173220294Y-78440317D01*
X172968646Y-78516653D01*
X172736725Y-78640618D01*
X172533445Y-78807445D01*
X172366618Y-79010725D01*
X172242653Y-79242646D01*
X172166317Y-79494294D01*
X172140541Y-79756000D01*
X168544590Y-79756000D01*
X168511853Y-79591426D01*
X168403680Y-79330273D01*
X168246637Y-79095241D01*
X168046759Y-78895363D01*
X167811727Y-78738320D01*
X167550574Y-78630147D01*
X167273335Y-78575000D01*
X166990665Y-78575000D01*
X166826690Y-78607617D01*
X166857226Y-78533898D01*
X166897000Y-78333939D01*
X166897000Y-78130061D01*
X166857226Y-77930102D01*
X166779205Y-77741744D01*
X166717462Y-77649339D01*
X166768114Y-77598688D01*
X166950665Y-77635000D01*
X167233335Y-77635000D01*
X167510574Y-77579853D01*
X167771727Y-77471680D01*
X168006759Y-77314637D01*
X168206637Y-77114759D01*
X168363680Y-76879727D01*
X168471853Y-76618574D01*
X168527000Y-76341335D01*
X168527000Y-76058665D01*
X168471853Y-75781426D01*
X168363680Y-75520273D01*
X168206637Y-75285241D01*
X168006759Y-75085363D01*
X167771727Y-74928320D01*
X167510574Y-74820147D01*
X167233335Y-74765000D01*
X166950665Y-74765000D01*
X166673426Y-74820147D01*
X166412273Y-74928320D01*
X166177241Y-75085363D01*
X165977363Y-75285241D01*
X165842000Y-75487827D01*
X165706637Y-75285241D01*
X165506759Y-75085363D01*
X165271727Y-74928320D01*
X165010574Y-74820147D01*
X164733335Y-74765000D01*
X164450665Y-74765000D01*
X164173426Y-74820147D01*
X163912273Y-74928320D01*
X163677241Y-75085363D01*
X163477363Y-75285241D01*
X163320320Y-75520273D01*
X163212147Y-75781426D01*
X163157000Y-76058665D01*
X163157000Y-76341335D01*
X163212147Y-76618574D01*
X163320320Y-76879727D01*
X163477363Y-77114759D01*
X163677241Y-77314637D01*
X163912273Y-77471680D01*
X164173426Y-77579853D01*
X164450665Y-77635000D01*
X164733335Y-77635000D01*
X165010574Y-77579853D01*
X165078623Y-77551666D01*
X165058063Y-77572226D01*
X164944795Y-77741744D01*
X164866774Y-77930102D01*
X164827000Y-78130061D01*
X164827000Y-78333939D01*
X164866774Y-78533898D01*
X164893718Y-78598946D01*
X164773335Y-78575000D01*
X164490665Y-78575000D01*
X164213426Y-78630147D01*
X163952273Y-78738320D01*
X163717241Y-78895363D01*
X163517363Y-79095241D01*
X163360320Y-79330273D01*
X163252147Y-79591426D01*
X163197000Y-79868665D01*
X163197000Y-80151335D01*
X163252147Y-80428574D01*
X163360320Y-80689727D01*
X163517363Y-80924759D01*
X163717241Y-81124637D01*
X163952273Y-81281680D01*
X164213426Y-81389853D01*
X164490665Y-81445000D01*
X164773335Y-81445000D01*
X165050574Y-81389853D01*
X165311727Y-81281680D01*
X165546759Y-81124637D01*
X165746637Y-80924759D01*
X165882000Y-80722173D01*
X166017363Y-80924759D01*
X166217241Y-81124637D01*
X166372000Y-81228044D01*
X166372000Y-82575229D01*
X166177241Y-82705363D01*
X165977363Y-82905241D01*
X165842000Y-83107827D01*
X165706637Y-82905241D01*
X165506759Y-82705363D01*
X165271727Y-82548320D01*
X165010574Y-82440147D01*
X164733335Y-82385000D01*
X164450665Y-82385000D01*
X164173426Y-82440147D01*
X163912273Y-82548320D01*
X163677241Y-82705363D01*
X163477363Y-82905241D01*
X163320320Y-83140273D01*
X163212147Y-83401426D01*
X163157000Y-83678665D01*
X163157000Y-83961335D01*
X163212147Y-84238574D01*
X163320320Y-84499727D01*
X163477363Y-84734759D01*
X163677241Y-84934637D01*
X163912273Y-85091680D01*
X164173426Y-85199853D01*
X164450665Y-85255000D01*
X164733335Y-85255000D01*
X165010574Y-85199853D01*
X165271727Y-85091680D01*
X165506759Y-84934637D01*
X165706637Y-84734759D01*
X165842000Y-84532173D01*
X165977363Y-84734759D01*
X166177241Y-84934637D01*
X166372001Y-85064771D01*
X166372001Y-86411956D01*
X166217241Y-86515363D01*
X166017363Y-86715241D01*
X165882000Y-86917827D01*
X165746637Y-86715241D01*
X165546759Y-86515363D01*
X165311727Y-86358320D01*
X165050574Y-86250147D01*
X164773335Y-86195000D01*
X164490665Y-86195000D01*
X164308114Y-86231312D01*
X162103137Y-84026335D01*
X162123459Y-83820000D01*
X162097683Y-83558294D01*
X162021347Y-83306646D01*
X161897382Y-83074725D01*
X161730555Y-82871445D01*
X161527275Y-82704618D01*
X161295354Y-82580653D01*
X161043706Y-82504317D01*
X160847579Y-82485000D01*
X160716421Y-82485000D01*
X160520294Y-82504317D01*
X160516999Y-82505317D01*
X160516999Y-81318442D01*
X160650514Y-81345000D01*
X160913486Y-81345000D01*
X161171405Y-81293696D01*
X161414359Y-81193061D01*
X161633013Y-81046962D01*
X161818962Y-80861013D01*
X161965061Y-80642359D01*
X162065696Y-80399405D01*
X162117000Y-80141486D01*
X162117000Y-79878514D01*
X162065696Y-79620595D01*
X161965061Y-79377641D01*
X161818962Y-79158987D01*
X161633013Y-78973038D01*
X161414359Y-78826939D01*
X161171405Y-78726304D01*
X160913486Y-78675000D01*
X160650514Y-78675000D01*
X160516999Y-78701558D01*
X160516999Y-77539802D01*
X160539251Y-77517550D01*
X160716421Y-77535000D01*
X160847579Y-77535000D01*
X161043706Y-77515683D01*
X161295354Y-77439347D01*
X161527275Y-77315382D01*
X161730555Y-77148555D01*
X161897382Y-76945275D01*
X162021347Y-76713354D01*
X162097683Y-76461706D01*
X162123459Y-76200000D01*
X162097683Y-75938294D01*
X162021347Y-75686646D01*
X161897382Y-75454725D01*
X161730555Y-75251445D01*
X161527275Y-75084618D01*
X161295354Y-74960653D01*
X161043706Y-74884317D01*
X160847579Y-74865000D01*
X160716421Y-74865000D01*
X160520294Y-74884317D01*
X160268646Y-74960653D01*
X160036725Y-75084618D01*
X159833445Y-75251445D01*
X159666618Y-75454725D01*
X159542653Y-75686646D01*
X159466317Y-75938294D01*
X159440541Y-76200000D01*
X159464450Y-76442749D01*
X159245997Y-76661202D01*
X159216999Y-76685000D01*
X159193201Y-76713998D01*
X159193200Y-76713999D01*
X159122025Y-76800725D01*
X159051453Y-76932755D01*
X159042074Y-76963676D01*
X159010728Y-77067014D01*
X159007997Y-77076016D01*
X158993323Y-77225001D01*
X158997000Y-77262333D01*
X158996999Y-84274678D01*
X158993323Y-84312001D01*
X158996999Y-84349323D01*
X158996999Y-84349333D01*
X159007996Y-84460986D01*
X159031416Y-84538192D01*
X159051453Y-84604247D01*
X159122025Y-84736277D01*
X159148515Y-84768555D01*
X159216998Y-84852002D01*
X159246002Y-84875805D01*
X160669789Y-86299593D01*
X160520294Y-86314317D01*
X160268646Y-86390653D01*
X160036725Y-86514618D01*
X159833445Y-86681445D01*
X159678702Y-86870000D01*
X158309800Y-86870000D01*
X156390415Y-84950615D01*
X156443664Y-84741269D01*
X155702000Y-83999605D01*
X155687858Y-84013748D01*
X155508253Y-83834143D01*
X155522395Y-83820000D01*
X155881605Y-83820000D01*
X156623269Y-84561664D01*
X156857037Y-84502203D01*
X156967934Y-84263758D01*
X157030183Y-84008260D01*
X157041390Y-83745527D01*
X157001125Y-83485656D01*
X156910935Y-83238634D01*
X156857037Y-83137797D01*
X156623269Y-83078336D01*
X155881605Y-83820000D01*
X155522395Y-83820000D01*
X154780731Y-83078336D01*
X154571385Y-83131585D01*
X154338531Y-82898731D01*
X154960336Y-82898731D01*
X155702000Y-83640395D01*
X156443664Y-82898731D01*
X156384203Y-82664963D01*
X156145758Y-82554066D01*
X155890260Y-82491817D01*
X155627527Y-82480610D01*
X155367656Y-82520875D01*
X155120634Y-82611065D01*
X155019797Y-82664963D01*
X154960336Y-82898731D01*
X154338531Y-82898731D01*
X152507001Y-81067202D01*
X152507001Y-80343329D01*
X154409284Y-80343329D01*
X154441953Y-80451044D01*
X154552208Y-80688392D01*
X154706649Y-80899670D01*
X154899340Y-81076759D01*
X155122877Y-81212853D01*
X155368670Y-81302722D01*
X155575000Y-81180201D01*
X155575000Y-80137000D01*
X155829000Y-80137000D01*
X155829000Y-81180201D01*
X156035330Y-81302722D01*
X156281123Y-81212853D01*
X156504660Y-81076759D01*
X156697351Y-80899670D01*
X156851792Y-80688392D01*
X156962047Y-80451044D01*
X156994716Y-80343329D01*
X156871374Y-80137000D01*
X155829000Y-80137000D01*
X155575000Y-80137000D01*
X154532626Y-80137000D01*
X154409284Y-80343329D01*
X152507001Y-80343329D01*
X152507001Y-79676671D01*
X154409284Y-79676671D01*
X154532626Y-79883000D01*
X155575000Y-79883000D01*
X155575000Y-78839799D01*
X155829000Y-78839799D01*
X155829000Y-79883000D01*
X156871374Y-79883000D01*
X156994716Y-79676671D01*
X156962047Y-79568956D01*
X156851792Y-79331608D01*
X156697351Y-79120330D01*
X156504660Y-78943241D01*
X156281123Y-78807147D01*
X156035330Y-78717278D01*
X155829000Y-78839799D01*
X155575000Y-78839799D01*
X155368670Y-78717278D01*
X155122877Y-78807147D01*
X154899340Y-78943241D01*
X154706649Y-79120330D01*
X154552208Y-79331608D01*
X154441953Y-79568956D01*
X154409284Y-79676671D01*
X152507001Y-79676671D01*
X152507001Y-79507322D01*
X152510677Y-79469999D01*
X152507001Y-79432676D01*
X152507001Y-79432666D01*
X152496004Y-79321013D01*
X152452547Y-79177752D01*
X152381975Y-79045723D01*
X152287002Y-78929998D01*
X152258004Y-78906200D01*
X150473073Y-77121269D01*
X154960336Y-77121269D01*
X155019797Y-77355037D01*
X155258242Y-77465934D01*
X155513740Y-77528183D01*
X155776473Y-77539390D01*
X156036344Y-77499125D01*
X156283366Y-77408935D01*
X156384203Y-77355037D01*
X156443664Y-77121269D01*
X155702000Y-76379605D01*
X154960336Y-77121269D01*
X150473073Y-77121269D01*
X149626277Y-76274473D01*
X154362610Y-76274473D01*
X154402875Y-76534344D01*
X154493065Y-76781366D01*
X154546963Y-76882203D01*
X154780731Y-76941664D01*
X155522395Y-76200000D01*
X155881605Y-76200000D01*
X156623269Y-76941664D01*
X156857037Y-76882203D01*
X156967934Y-76643758D01*
X157030183Y-76388260D01*
X157041390Y-76125527D01*
X157001125Y-75865656D01*
X156910935Y-75618634D01*
X156857037Y-75517797D01*
X156623269Y-75458336D01*
X155881605Y-76200000D01*
X155522395Y-76200000D01*
X154780731Y-75458336D01*
X154546963Y-75517797D01*
X154436066Y-75756242D01*
X154373817Y-76011740D01*
X154362610Y-76274473D01*
X149626277Y-76274473D01*
X148630535Y-75278731D01*
X154960336Y-75278731D01*
X155702000Y-76020395D01*
X156443664Y-75278731D01*
X156384203Y-75044963D01*
X156145758Y-74934066D01*
X155890260Y-74871817D01*
X155627527Y-74860610D01*
X155367656Y-74900875D01*
X155120634Y-74991065D01*
X155019797Y-75044963D01*
X154960336Y-75278731D01*
X148630535Y-75278731D01*
X147245807Y-73894004D01*
X147222004Y-73865000D01*
X147106279Y-73770027D01*
X146974250Y-73699455D01*
X146830989Y-73655998D01*
X146719336Y-73645001D01*
X146719325Y-73645001D01*
X146682003Y-73641325D01*
X146644681Y-73645001D01*
X145807680Y-73645001D01*
X145844168Y-73556912D01*
X145907000Y-73241033D01*
X145907000Y-72918967D01*
X149137000Y-72918967D01*
X149137000Y-73241033D01*
X149199832Y-73556912D01*
X149323082Y-73854463D01*
X149502013Y-74122252D01*
X149729748Y-74349987D01*
X149997537Y-74528918D01*
X150295088Y-74652168D01*
X150610967Y-74715000D01*
X150933033Y-74715000D01*
X151248912Y-74652168D01*
X151546463Y-74528918D01*
X151814252Y-74349987D01*
X152041987Y-74122252D01*
X152220918Y-73854463D01*
X152344168Y-73556912D01*
X152407000Y-73241033D01*
X152407000Y-72918967D01*
X152344168Y-72603088D01*
X152220918Y-72305537D01*
X152041987Y-72037748D01*
X151814252Y-71810013D01*
X151546463Y-71631082D01*
X151248912Y-71507832D01*
X150933033Y-71445000D01*
X150610967Y-71445000D01*
X150295088Y-71507832D01*
X149997537Y-71631082D01*
X149729748Y-71810013D01*
X149502013Y-72037748D01*
X149323082Y-72305537D01*
X149199832Y-72603088D01*
X149137000Y-72918967D01*
X145907000Y-72918967D01*
X145844168Y-72603088D01*
X145720918Y-72305537D01*
X145541987Y-72037748D01*
X145314252Y-71810013D01*
X145046463Y-71631082D01*
X144748912Y-71507832D01*
X144433033Y-71445000D01*
X144110967Y-71445000D01*
X143795088Y-71507832D01*
X143497537Y-71631082D01*
X143229748Y-71810013D01*
X143002013Y-72037748D01*
X142823082Y-72305537D01*
X142699832Y-72603088D01*
X142637000Y-72918967D01*
X142637000Y-73241033D01*
X142699832Y-73556912D01*
X142736320Y-73645001D01*
X142029804Y-73645001D01*
X136803769Y-68418967D01*
X142637000Y-68418967D01*
X142637000Y-68741033D01*
X142699832Y-69056912D01*
X142823082Y-69354463D01*
X143002013Y-69622252D01*
X143229748Y-69849987D01*
X143497537Y-70028918D01*
X143795088Y-70152168D01*
X144110967Y-70215000D01*
X144433033Y-70215000D01*
X144748912Y-70152168D01*
X145046463Y-70028918D01*
X145314252Y-69849987D01*
X145541987Y-69622252D01*
X145720918Y-69354463D01*
X145844168Y-69056912D01*
X145907000Y-68741033D01*
X145907000Y-68418967D01*
X149137000Y-68418967D01*
X149137000Y-68741033D01*
X149199832Y-69056912D01*
X149323082Y-69354463D01*
X149502013Y-69622252D01*
X149729748Y-69849987D01*
X149997537Y-70028918D01*
X150295088Y-70152168D01*
X150610967Y-70215000D01*
X150933033Y-70215000D01*
X151248912Y-70152168D01*
X151546463Y-70028918D01*
X151814252Y-69849987D01*
X151947695Y-69716544D01*
X156887000Y-69716544D01*
X156887000Y-69983456D01*
X156939072Y-70245239D01*
X157041215Y-70491833D01*
X157189503Y-70713762D01*
X157378238Y-70902497D01*
X157600167Y-71050785D01*
X157846761Y-71152928D01*
X158108544Y-71205000D01*
X158375456Y-71205000D01*
X158637239Y-71152928D01*
X158883833Y-71050785D01*
X159105762Y-70902497D01*
X159294497Y-70713762D01*
X159442785Y-70491833D01*
X159512000Y-70324734D01*
X159581215Y-70491833D01*
X159729503Y-70713762D01*
X159918238Y-70902497D01*
X160140167Y-71050785D01*
X160386761Y-71152928D01*
X160648544Y-71205000D01*
X160915456Y-71205000D01*
X161177239Y-71152928D01*
X161423833Y-71050785D01*
X161645762Y-70902497D01*
X161834497Y-70713762D01*
X161982785Y-70491833D01*
X162052000Y-70324734D01*
X162121215Y-70491833D01*
X162269503Y-70713762D01*
X162458238Y-70902497D01*
X162680167Y-71050785D01*
X162926761Y-71152928D01*
X163188544Y-71205000D01*
X163455456Y-71205000D01*
X163717239Y-71152928D01*
X163963833Y-71050785D01*
X164185762Y-70902497D01*
X164374497Y-70713762D01*
X164522785Y-70491833D01*
X164624928Y-70245239D01*
X164677000Y-69983456D01*
X164677000Y-69716544D01*
X164624928Y-69454761D01*
X164522785Y-69208167D01*
X164374497Y-68986238D01*
X164185762Y-68797503D01*
X163963833Y-68649215D01*
X163717239Y-68547072D01*
X163455456Y-68495000D01*
X163188544Y-68495000D01*
X162926761Y-68547072D01*
X162680167Y-68649215D01*
X162458238Y-68797503D01*
X162269503Y-68986238D01*
X162121215Y-69208167D01*
X162052000Y-69375266D01*
X161982785Y-69208167D01*
X161834497Y-68986238D01*
X161645762Y-68797503D01*
X161423833Y-68649215D01*
X161177239Y-68547072D01*
X160915456Y-68495000D01*
X160648544Y-68495000D01*
X160386761Y-68547072D01*
X160140167Y-68649215D01*
X159918238Y-68797503D01*
X159729503Y-68986238D01*
X159581215Y-69208167D01*
X159512000Y-69375266D01*
X159442785Y-69208167D01*
X159294497Y-68986238D01*
X159105762Y-68797503D01*
X158883833Y-68649215D01*
X158637239Y-68547072D01*
X158375456Y-68495000D01*
X158108544Y-68495000D01*
X157846761Y-68547072D01*
X157600167Y-68649215D01*
X157378238Y-68797503D01*
X157189503Y-68986238D01*
X157041215Y-69208167D01*
X156939072Y-69454761D01*
X156887000Y-69716544D01*
X151947695Y-69716544D01*
X152041987Y-69622252D01*
X152220918Y-69354463D01*
X152344168Y-69056912D01*
X152407000Y-68741033D01*
X152407000Y-68418967D01*
X152344168Y-68103088D01*
X152220918Y-67805537D01*
X152041987Y-67537748D01*
X151814252Y-67310013D01*
X151546463Y-67131082D01*
X151248912Y-67007832D01*
X150933033Y-66945000D01*
X150610967Y-66945000D01*
X150295088Y-67007832D01*
X149997537Y-67131082D01*
X149729748Y-67310013D01*
X149502013Y-67537748D01*
X149323082Y-67805537D01*
X149199832Y-68103088D01*
X149137000Y-68418967D01*
X145907000Y-68418967D01*
X145844168Y-68103088D01*
X145720918Y-67805537D01*
X145541987Y-67537748D01*
X145314252Y-67310013D01*
X145046463Y-67131082D01*
X144748912Y-67007832D01*
X144433033Y-66945000D01*
X144110967Y-66945000D01*
X143795088Y-67007832D01*
X143497537Y-67131082D01*
X143229748Y-67310013D01*
X143002013Y-67537748D01*
X142823082Y-67805537D01*
X142699832Y-68103088D01*
X142637000Y-68418967D01*
X136803769Y-68418967D01*
X136453804Y-68069003D01*
X136430001Y-68039999D01*
X136314276Y-67945026D01*
X136182247Y-67874454D01*
X136038986Y-67830997D01*
X135927333Y-67820000D01*
X135927322Y-67820000D01*
X135890000Y-67816324D01*
X135852678Y-67820000D01*
X128989322Y-67820000D01*
X128951999Y-67816324D01*
X128914676Y-67820000D01*
X128914667Y-67820000D01*
X128803014Y-67830997D01*
X128659753Y-67874454D01*
X128527724Y-67945026D01*
X128411999Y-68039999D01*
X128388201Y-68068997D01*
X126983376Y-69473823D01*
X126968912Y-69467832D01*
X126653033Y-69405000D01*
X126330967Y-69405000D01*
X126015088Y-69467832D01*
X125717537Y-69591082D01*
X125449748Y-69770013D01*
X125222013Y-69997748D01*
X125043082Y-70265537D01*
X124919832Y-70563088D01*
X124857000Y-70878967D01*
X111912000Y-70878967D01*
X111912000Y-64520817D01*
X113802000Y-64520817D01*
X113802000Y-65019183D01*
X113899226Y-65507974D01*
X114089943Y-65968405D01*
X114366820Y-66382781D01*
X114719219Y-66735180D01*
X115133595Y-67012057D01*
X115594026Y-67202774D01*
X116082817Y-67300000D01*
X116581183Y-67300000D01*
X117069974Y-67202774D01*
X117530405Y-67012057D01*
X117944781Y-66735180D01*
X118297180Y-66382781D01*
X118574057Y-65968405D01*
X118764774Y-65507974D01*
X118857859Y-65040000D01*
X124853928Y-65040000D01*
X124853928Y-67040000D01*
X124866188Y-67164482D01*
X124902498Y-67284180D01*
X124961463Y-67394494D01*
X125040815Y-67491185D01*
X125137506Y-67570537D01*
X125247820Y-67629502D01*
X125367518Y-67665812D01*
X125492000Y-67678072D01*
X127492000Y-67678072D01*
X127616482Y-67665812D01*
X127736180Y-67629502D01*
X127846494Y-67570537D01*
X127943185Y-67491185D01*
X128022537Y-67394494D01*
X128081502Y-67284180D01*
X128117812Y-67164482D01*
X128130072Y-67040000D01*
X128130072Y-65878967D01*
X128857000Y-65878967D01*
X128857000Y-66201033D01*
X128919832Y-66516912D01*
X129043082Y-66814463D01*
X129222013Y-67082252D01*
X129449748Y-67309987D01*
X129717537Y-67488918D01*
X130015088Y-67612168D01*
X130330967Y-67675000D01*
X130653033Y-67675000D01*
X130968912Y-67612168D01*
X131266463Y-67488918D01*
X131534252Y-67309987D01*
X131761987Y-67082252D01*
X131940918Y-66814463D01*
X132064168Y-66516912D01*
X132127000Y-66201033D01*
X132127000Y-65878967D01*
X132857000Y-65878967D01*
X132857000Y-66201033D01*
X132919832Y-66516912D01*
X133043082Y-66814463D01*
X133222013Y-67082252D01*
X133449748Y-67309987D01*
X133717537Y-67488918D01*
X134015088Y-67612168D01*
X134330967Y-67675000D01*
X134653033Y-67675000D01*
X134968912Y-67612168D01*
X135266463Y-67488918D01*
X135534252Y-67309987D01*
X135761987Y-67082252D01*
X135940918Y-66814463D01*
X136064168Y-66516912D01*
X136127000Y-66201033D01*
X136127000Y-65878967D01*
X136064168Y-65563088D01*
X135940918Y-65265537D01*
X135761987Y-64997748D01*
X135534252Y-64770013D01*
X135266463Y-64591082D01*
X135096829Y-64520817D01*
X176032000Y-64520817D01*
X176032000Y-65019183D01*
X176129226Y-65507974D01*
X176319943Y-65968405D01*
X176596820Y-66382781D01*
X176949219Y-66735180D01*
X177363595Y-67012057D01*
X177824026Y-67202774D01*
X178312817Y-67300000D01*
X178811183Y-67300000D01*
X179299974Y-67202774D01*
X179760405Y-67012057D01*
X180174781Y-66735180D01*
X180527180Y-66382781D01*
X180804057Y-65968405D01*
X180994774Y-65507974D01*
X181092000Y-65019183D01*
X181092000Y-64520817D01*
X180994774Y-64032026D01*
X180804057Y-63571595D01*
X180527180Y-63157219D01*
X180174781Y-62804820D01*
X179760405Y-62527943D01*
X179299974Y-62337226D01*
X178811183Y-62240000D01*
X178312817Y-62240000D01*
X177824026Y-62337226D01*
X177363595Y-62527943D01*
X176949219Y-62804820D01*
X176596820Y-63157219D01*
X176319943Y-63571595D01*
X176129226Y-64032026D01*
X176032000Y-64520817D01*
X135096829Y-64520817D01*
X134968912Y-64467832D01*
X134653033Y-64405000D01*
X134330967Y-64405000D01*
X134015088Y-64467832D01*
X133717537Y-64591082D01*
X133449748Y-64770013D01*
X133222013Y-64997748D01*
X133043082Y-65265537D01*
X132919832Y-65563088D01*
X132857000Y-65878967D01*
X132127000Y-65878967D01*
X132064168Y-65563088D01*
X131940918Y-65265537D01*
X131761987Y-64997748D01*
X131534252Y-64770013D01*
X131266463Y-64591082D01*
X130968912Y-64467832D01*
X130653033Y-64405000D01*
X130330967Y-64405000D01*
X130015088Y-64467832D01*
X129717537Y-64591082D01*
X129449748Y-64770013D01*
X129222013Y-64997748D01*
X129043082Y-65265537D01*
X128919832Y-65563088D01*
X128857000Y-65878967D01*
X128130072Y-65878967D01*
X128130072Y-65040000D01*
X128117812Y-64915518D01*
X128081502Y-64795820D01*
X128022537Y-64685506D01*
X127943185Y-64588815D01*
X127846494Y-64509463D01*
X127736180Y-64450498D01*
X127616482Y-64414188D01*
X127492000Y-64401928D01*
X125492000Y-64401928D01*
X125367518Y-64414188D01*
X125247820Y-64450498D01*
X125137506Y-64509463D01*
X125040815Y-64588815D01*
X124961463Y-64685506D01*
X124902498Y-64795820D01*
X124866188Y-64915518D01*
X124853928Y-65040000D01*
X118857859Y-65040000D01*
X118862000Y-65019183D01*
X118862000Y-64520817D01*
X118764774Y-64032026D01*
X118574057Y-63571595D01*
X118297180Y-63157219D01*
X117944781Y-62804820D01*
X117530405Y-62527943D01*
X117069974Y-62337226D01*
X116581183Y-62240000D01*
X116082817Y-62240000D01*
X115594026Y-62337226D01*
X115133595Y-62527943D01*
X114719219Y-62804820D01*
X114366820Y-63157219D01*
X114089943Y-63571595D01*
X113899226Y-64032026D01*
X113802000Y-64520817D01*
X111912000Y-64520817D01*
X111912000Y-63532279D01*
X111975096Y-62888778D01*
X112152606Y-62300836D01*
X112440937Y-61758564D01*
X112829094Y-61282636D01*
X113302314Y-60891155D01*
X113842552Y-60599049D01*
X114429244Y-60417437D01*
X115070879Y-60350000D01*
X179799721Y-60350000D01*
X180443222Y-60413096D01*
X180443222Y-60413096D01*
G37*
X180443222Y-60413096D02*
X181031164Y-60590606D01*
X181573436Y-60878937D01*
X182049364Y-61267094D01*
X182440845Y-61740314D01*
X182732951Y-62280552D01*
X182914563Y-62867244D01*
X182982001Y-63508888D01*
X182982000Y-119347721D01*
X182918904Y-119991221D01*
X182741394Y-120579164D01*
X182453063Y-121121436D01*
X182064906Y-121597364D01*
X181591686Y-121988845D01*
X181051449Y-122280950D01*
X180464756Y-122462563D01*
X179823130Y-122530000D01*
X115094279Y-122530000D01*
X114450779Y-122466904D01*
X113862836Y-122289394D01*
X113320564Y-122001063D01*
X112844636Y-121612906D01*
X112453155Y-121139686D01*
X112161050Y-120599449D01*
X111979437Y-120012756D01*
X111912000Y-119371130D01*
X111912000Y-117860817D01*
X113802000Y-117860817D01*
X113802000Y-118359183D01*
X113899226Y-118847974D01*
X114089943Y-119308405D01*
X114366820Y-119722781D01*
X114719219Y-120075180D01*
X115133595Y-120352057D01*
X115594026Y-120542774D01*
X116082817Y-120640000D01*
X116581183Y-120640000D01*
X117069974Y-120542774D01*
X117530405Y-120352057D01*
X117944781Y-120075180D01*
X118297180Y-119722781D01*
X118574057Y-119308405D01*
X118764774Y-118847974D01*
X118862000Y-118359183D01*
X118862000Y-117860817D01*
X118832996Y-117715000D01*
X153193928Y-117715000D01*
X153206188Y-117839482D01*
X153242498Y-117959180D01*
X153301463Y-118069494D01*
X153380815Y-118166185D01*
X153477506Y-118245537D01*
X153587820Y-118304502D01*
X153707518Y-118340812D01*
X153832000Y-118353072D01*
X154146250Y-118350000D01*
X154305000Y-118191250D01*
X154305000Y-116967000D01*
X153355750Y-116967000D01*
X153197000Y-117125750D01*
X153193928Y-117715000D01*
X118832996Y-117715000D01*
X118764774Y-117372026D01*
X118574057Y-116911595D01*
X118297180Y-116497219D01*
X117944781Y-116144820D01*
X117675662Y-115965000D01*
X153193928Y-115965000D01*
X153197000Y-116554250D01*
X153355750Y-116713000D01*
X154305000Y-116713000D01*
X154305000Y-115488750D01*
X154559000Y-115488750D01*
X154559000Y-116713000D01*
X154579000Y-116713000D01*
X154579000Y-116967000D01*
X154559000Y-116967000D01*
X154559000Y-118191250D01*
X154717750Y-118350000D01*
X155032000Y-118353072D01*
X155156482Y-118340812D01*
X155276180Y-118304502D01*
X155386494Y-118245537D01*
X155483185Y-118166185D01*
X155562537Y-118069494D01*
X155588692Y-118020563D01*
X155742552Y-118146833D01*
X155957100Y-118261511D01*
X156189899Y-118332130D01*
X156432000Y-118355975D01*
X156674102Y-118332130D01*
X156906901Y-118261511D01*
X157121449Y-118146833D01*
X157309502Y-117992502D01*
X157463833Y-117804449D01*
X157578511Y-117589900D01*
X157649130Y-117357101D01*
X157667000Y-117175664D01*
X157667000Y-116504335D01*
X157649130Y-116322898D01*
X157616400Y-116214999D01*
X163353928Y-116214999D01*
X163353928Y-117465001D01*
X163370992Y-117638255D01*
X163421528Y-117804851D01*
X163503595Y-117958387D01*
X163614038Y-118092962D01*
X163748613Y-118203405D01*
X163902149Y-118285472D01*
X164068745Y-118336008D01*
X164241999Y-118353072D01*
X164942001Y-118353072D01*
X165115255Y-118336008D01*
X165281851Y-118285472D01*
X165435387Y-118203405D01*
X165569962Y-118092962D01*
X165680405Y-117958387D01*
X165682810Y-117953888D01*
X165714499Y-117992502D01*
X165902552Y-118146833D01*
X166117100Y-118261511D01*
X166349899Y-118332130D01*
X166592000Y-118355975D01*
X166834102Y-118332130D01*
X167066901Y-118261511D01*
X167281449Y-118146833D01*
X167469502Y-117992502D01*
X167592001Y-117843237D01*
X167714499Y-117992502D01*
X167902552Y-118146833D01*
X168117100Y-118261511D01*
X168349899Y-118332130D01*
X168592000Y-118355975D01*
X168834102Y-118332130D01*
X169066901Y-118261511D01*
X169281449Y-118146833D01*
X169469502Y-117992502D01*
X169577573Y-117860817D01*
X176032000Y-117860817D01*
X176032000Y-118359183D01*
X176129226Y-118847974D01*
X176319943Y-119308405D01*
X176596820Y-119722781D01*
X176949219Y-120075180D01*
X177363595Y-120352057D01*
X177824026Y-120542774D01*
X178312817Y-120640000D01*
X178811183Y-120640000D01*
X179299974Y-120542774D01*
X179760405Y-120352057D01*
X180174781Y-120075180D01*
X180527180Y-119722781D01*
X180804057Y-119308405D01*
X180994774Y-118847974D01*
X181092000Y-118359183D01*
X181092000Y-117860817D01*
X180994774Y-117372026D01*
X180804057Y-116911595D01*
X180527180Y-116497219D01*
X180174781Y-116144820D01*
X179760405Y-115867943D01*
X179299974Y-115677226D01*
X178811183Y-115580000D01*
X178312817Y-115580000D01*
X177824026Y-115677226D01*
X177363595Y-115867943D01*
X176949219Y-116144820D01*
X176596820Y-116497219D01*
X176319943Y-116911595D01*
X176129226Y-117372026D01*
X176032000Y-117860817D01*
X169577573Y-117860817D01*
X169623833Y-117804449D01*
X169738511Y-117589900D01*
X169809130Y-117357101D01*
X169827000Y-117175664D01*
X169827000Y-116504335D01*
X169809130Y-116322898D01*
X169738511Y-116090099D01*
X169623833Y-115875551D01*
X169469502Y-115687498D01*
X169281448Y-115533167D01*
X169066900Y-115418489D01*
X168834101Y-115347870D01*
X168592000Y-115324025D01*
X168349898Y-115347870D01*
X168117099Y-115418489D01*
X167902551Y-115533167D01*
X167714498Y-115687498D01*
X167592000Y-115836763D01*
X167469502Y-115687498D01*
X167281448Y-115533167D01*
X167066900Y-115418489D01*
X166834101Y-115347870D01*
X166592000Y-115324025D01*
X166349898Y-115347870D01*
X166117099Y-115418489D01*
X165902551Y-115533167D01*
X165714498Y-115687498D01*
X165682809Y-115726111D01*
X165680405Y-115721613D01*
X165569962Y-115587038D01*
X165435387Y-115476595D01*
X165281851Y-115394528D01*
X165115255Y-115343992D01*
X164942001Y-115326928D01*
X164241999Y-115326928D01*
X164068745Y-115343992D01*
X163902149Y-115394528D01*
X163748613Y-115476595D01*
X163614038Y-115587038D01*
X163503595Y-115721613D01*
X163421528Y-115875149D01*
X163370992Y-116041745D01*
X163353928Y-116214999D01*
X157616400Y-116214999D01*
X157578511Y-116090099D01*
X157463833Y-115875551D01*
X157309502Y-115687498D01*
X157121448Y-115533167D01*
X156906900Y-115418489D01*
X156674101Y-115347870D01*
X156432000Y-115324025D01*
X156189898Y-115347870D01*
X155957099Y-115418489D01*
X155742551Y-115533167D01*
X155588691Y-115659436D01*
X155562537Y-115610506D01*
X155483185Y-115513815D01*
X155386494Y-115434463D01*
X155276180Y-115375498D01*
X155156482Y-115339188D01*
X155032000Y-115326928D01*
X154717750Y-115330000D01*
X154559000Y-115488750D01*
X154305000Y-115488750D01*
X154146250Y-115330000D01*
X153832000Y-115326928D01*
X153707518Y-115339188D01*
X153587820Y-115375498D01*
X153477506Y-115434463D01*
X153380815Y-115513815D01*
X153301463Y-115610506D01*
X153242498Y-115720820D01*
X153206188Y-115840518D01*
X153193928Y-115965000D01*
X117675662Y-115965000D01*
X117530405Y-115867943D01*
X117069974Y-115677226D01*
X116581183Y-115580000D01*
X116082817Y-115580000D01*
X115594026Y-115677226D01*
X115133595Y-115867943D01*
X114719219Y-116144820D01*
X114366820Y-116497219D01*
X114089943Y-116911595D01*
X113899226Y-117372026D01*
X113802000Y-117860817D01*
X111912000Y-117860817D01*
X111912000Y-104140000D01*
X118700057Y-104140000D01*
X118727764Y-104421309D01*
X118809818Y-104691808D01*
X118943068Y-104941101D01*
X119122392Y-105159608D01*
X119340899Y-105338932D01*
X119473858Y-105410000D01*
X119340899Y-105481068D01*
X119122392Y-105660392D01*
X118943068Y-105878899D01*
X118809818Y-106128192D01*
X118727764Y-106398691D01*
X118700057Y-106680000D01*
X118727764Y-106961309D01*
X118809818Y-107231808D01*
X118943068Y-107481101D01*
X119122392Y-107699608D01*
X119340899Y-107878932D01*
X119473858Y-107950000D01*
X119340899Y-108021068D01*
X119122392Y-108200392D01*
X118943068Y-108418899D01*
X118809818Y-108668192D01*
X118727764Y-108938691D01*
X118700057Y-109220000D01*
X118727764Y-109501309D01*
X118809818Y-109771808D01*
X118943068Y-110021101D01*
X119122392Y-110239608D01*
X119340899Y-110418932D01*
X119590192Y-110552182D01*
X119860691Y-110634236D01*
X120071508Y-110655000D01*
X120212492Y-110655000D01*
X120423309Y-110634236D01*
X120693808Y-110552182D01*
X120943101Y-110418932D01*
X121161608Y-110239608D01*
X121340932Y-110021101D01*
X121474182Y-109771808D01*
X121556236Y-109501309D01*
X121583943Y-109220000D01*
X121573903Y-109118061D01*
X123171000Y-109118061D01*
X123171000Y-109321939D01*
X123210774Y-109521898D01*
X123288795Y-109710256D01*
X123402063Y-109879774D01*
X123446000Y-109923711D01*
X123446001Y-111722668D01*
X123442324Y-111760000D01*
X123456998Y-111908985D01*
X123500454Y-112052246D01*
X123571026Y-112184276D01*
X123642201Y-112271002D01*
X123666000Y-112300001D01*
X123694998Y-112323799D01*
X125965000Y-114593802D01*
X125965000Y-114655939D01*
X126004774Y-114855898D01*
X126082795Y-115044256D01*
X126196063Y-115213774D01*
X126340226Y-115357937D01*
X126509744Y-115471205D01*
X126698102Y-115549226D01*
X126898061Y-115589000D01*
X127101939Y-115589000D01*
X127301898Y-115549226D01*
X127490256Y-115471205D01*
X127659774Y-115357937D01*
X127803937Y-115213774D01*
X127917205Y-115044256D01*
X127995226Y-114855898D01*
X128035000Y-114655939D01*
X128035000Y-114452061D01*
X127995226Y-114252102D01*
X127917205Y-114063744D01*
X127803937Y-113894226D01*
X127659774Y-113750063D01*
X127490256Y-113636795D01*
X127301898Y-113558774D01*
X127101939Y-113519000D01*
X127039802Y-113519000D01*
X124966000Y-111445199D01*
X124966000Y-109923711D01*
X125009937Y-109879774D01*
X125123205Y-109710256D01*
X125201226Y-109521898D01*
X125241000Y-109321939D01*
X125241000Y-109118061D01*
X125201226Y-108918102D01*
X125123205Y-108729744D01*
X125009937Y-108560226D01*
X124865774Y-108416063D01*
X124696256Y-108302795D01*
X124507898Y-108224774D01*
X124307939Y-108185000D01*
X124104061Y-108185000D01*
X123904102Y-108224774D01*
X123715744Y-108302795D01*
X123546226Y-108416063D01*
X123402063Y-108560226D01*
X123288795Y-108729744D01*
X123210774Y-108918102D01*
X123171000Y-109118061D01*
X121573903Y-109118061D01*
X121556236Y-108938691D01*
X121474182Y-108668192D01*
X121340932Y-108418899D01*
X121161608Y-108200392D01*
X120943101Y-108021068D01*
X120810142Y-107950000D01*
X120943101Y-107878932D01*
X121161608Y-107699608D01*
X121340932Y-107481101D01*
X121474182Y-107231808D01*
X121556236Y-106961309D01*
X121583943Y-106680000D01*
X121556236Y-106398691D01*
X121474182Y-106128192D01*
X121340932Y-105878899D01*
X121161608Y-105660392D01*
X120943101Y-105481068D01*
X120810142Y-105410000D01*
X120943101Y-105338932D01*
X121161608Y-105159608D01*
X121340932Y-104941101D01*
X121474182Y-104691808D01*
X121556236Y-104421309D01*
X121583943Y-104140000D01*
X121556236Y-103858691D01*
X121474182Y-103588192D01*
X121340932Y-103338899D01*
X121161608Y-103120392D01*
X121048518Y-103027581D01*
X121066482Y-103025812D01*
X121186180Y-102989502D01*
X121296494Y-102930537D01*
X121393185Y-102851185D01*
X121472537Y-102754494D01*
X121531502Y-102644180D01*
X121567812Y-102524482D01*
X121580072Y-102400000D01*
X121580072Y-100800000D01*
X121567812Y-100675518D01*
X121531502Y-100555820D01*
X121472537Y-100445506D01*
X121393185Y-100348815D01*
X121296494Y-100269463D01*
X121186180Y-100210498D01*
X121066482Y-100174188D01*
X120942000Y-100161928D01*
X119342000Y-100161928D01*
X119217518Y-100174188D01*
X119097820Y-100210498D01*
X118987506Y-100269463D01*
X118890815Y-100348815D01*
X118811463Y-100445506D01*
X118752498Y-100555820D01*
X118716188Y-100675518D01*
X118703928Y-100800000D01*
X118703928Y-102400000D01*
X118716188Y-102524482D01*
X118752498Y-102644180D01*
X118811463Y-102754494D01*
X118890815Y-102851185D01*
X118987506Y-102930537D01*
X119097820Y-102989502D01*
X119217518Y-103025812D01*
X119235482Y-103027581D01*
X119122392Y-103120392D01*
X118943068Y-103338899D01*
X118809818Y-103588192D01*
X118727764Y-103858691D01*
X118700057Y-104140000D01*
X111912000Y-104140000D01*
X111912000Y-82550000D01*
X114890057Y-82550000D01*
X114917764Y-82831309D01*
X114999818Y-83101808D01*
X115133068Y-83351101D01*
X115312392Y-83569608D01*
X115530899Y-83748932D01*
X115663858Y-83820000D01*
X115530899Y-83891068D01*
X115312392Y-84070392D01*
X115133068Y-84288899D01*
X114999818Y-84538192D01*
X114917764Y-84808691D01*
X114890057Y-85090000D01*
X114917764Y-85371309D01*
X114999818Y-85641808D01*
X115133068Y-85891101D01*
X115312392Y-86109608D01*
X115530899Y-86288932D01*
X115663858Y-86360000D01*
X115530899Y-86431068D01*
X115312392Y-86610392D01*
X115133068Y-86828899D01*
X114999818Y-87078192D01*
X114917764Y-87348691D01*
X114890057Y-87630000D01*
X114917764Y-87911309D01*
X114999818Y-88181808D01*
X115133068Y-88431101D01*
X115312392Y-88649608D01*
X115530899Y-88828932D01*
X115663858Y-88900000D01*
X115530899Y-88971068D01*
X115312392Y-89150392D01*
X115133068Y-89368899D01*
X114999818Y-89618192D01*
X114917764Y-89888691D01*
X114890057Y-90170000D01*
X114917764Y-90451309D01*
X114999818Y-90721808D01*
X115133068Y-90971101D01*
X115312392Y-91189608D01*
X115530899Y-91368932D01*
X115663858Y-91440000D01*
X115530899Y-91511068D01*
X115312392Y-91690392D01*
X115133068Y-91908899D01*
X114999818Y-92158192D01*
X114917764Y-92428691D01*
X114890057Y-92710000D01*
X114917764Y-92991309D01*
X114999818Y-93261808D01*
X115133068Y-93511101D01*
X115312392Y-93729608D01*
X115530899Y-93908932D01*
X115663858Y-93980000D01*
X115530899Y-94051068D01*
X115312392Y-94230392D01*
X115133068Y-94448899D01*
X114999818Y-94698192D01*
X114917764Y-94968691D01*
X114890057Y-95250000D01*
X114917764Y-95531309D01*
X114999818Y-95801808D01*
X115133068Y-96051101D01*
X115312392Y-96269608D01*
X115530899Y-96448932D01*
X115780192Y-96582182D01*
X116050691Y-96664236D01*
X116261508Y-96685000D01*
X116402492Y-96685000D01*
X116613309Y-96664236D01*
X116883808Y-96582182D01*
X117133101Y-96448932D01*
X117351608Y-96269608D01*
X117530932Y-96051101D01*
X117664182Y-95801808D01*
X117746236Y-95531309D01*
X117773943Y-95250000D01*
X117746236Y-94968691D01*
X117664182Y-94698192D01*
X117530932Y-94448899D01*
X117351608Y-94230392D01*
X117133101Y-94051068D01*
X117000142Y-93980000D01*
X117133101Y-93908932D01*
X117351608Y-93729608D01*
X117530932Y-93511101D01*
X117664182Y-93261808D01*
X117746236Y-92991309D01*
X117773943Y-92710000D01*
X117746236Y-92428691D01*
X117664182Y-92158192D01*
X117530932Y-91908899D01*
X117351608Y-91690392D01*
X117133101Y-91511068D01*
X117000142Y-91440000D01*
X117133101Y-91368932D01*
X117351608Y-91189608D01*
X117530932Y-90971101D01*
X117664182Y-90721808D01*
X117746236Y-90451309D01*
X117773943Y-90170000D01*
X117746236Y-89888691D01*
X117664182Y-89618192D01*
X117530932Y-89368899D01*
X117351608Y-89150392D01*
X117133101Y-88971068D01*
X117000142Y-88900000D01*
X117133101Y-88828932D01*
X117351608Y-88649608D01*
X117530932Y-88431101D01*
X117664182Y-88181808D01*
X117746236Y-87911309D01*
X117773943Y-87630000D01*
X117746236Y-87348691D01*
X117664182Y-87078192D01*
X117530932Y-86828899D01*
X117351608Y-86610392D01*
X117133101Y-86431068D01*
X117000142Y-86360000D01*
X117133101Y-86288932D01*
X117351608Y-86109608D01*
X117530932Y-85891101D01*
X117664182Y-85641808D01*
X117746236Y-85371309D01*
X117773943Y-85090000D01*
X117746236Y-84808691D01*
X117664182Y-84538192D01*
X117530932Y-84288899D01*
X117351608Y-84070392D01*
X117133101Y-83891068D01*
X117000142Y-83820000D01*
X117133101Y-83748932D01*
X117351608Y-83569608D01*
X117530932Y-83351101D01*
X117664182Y-83101808D01*
X117746236Y-82831309D01*
X117773943Y-82550000D01*
X117746236Y-82268691D01*
X117664182Y-81998192D01*
X117530932Y-81748899D01*
X117351608Y-81530392D01*
X117238518Y-81437581D01*
X117256482Y-81435812D01*
X117376180Y-81399502D01*
X117486494Y-81340537D01*
X117583185Y-81261185D01*
X117662537Y-81164494D01*
X117721502Y-81054180D01*
X117757812Y-80934482D01*
X117770072Y-80810000D01*
X117770072Y-80010000D01*
X122510057Y-80010000D01*
X122537764Y-80291309D01*
X122619818Y-80561808D01*
X122753068Y-80811101D01*
X122932392Y-81029608D01*
X123150899Y-81208932D01*
X123283858Y-81280000D01*
X123150899Y-81351068D01*
X122932392Y-81530392D01*
X122753068Y-81748899D01*
X122619818Y-81998192D01*
X122537764Y-82268691D01*
X122510057Y-82550000D01*
X122537764Y-82831309D01*
X122619818Y-83101808D01*
X122753068Y-83351101D01*
X122932392Y-83569608D01*
X123150899Y-83748932D01*
X123283858Y-83820000D01*
X123150899Y-83891068D01*
X122932392Y-84070392D01*
X122753068Y-84288899D01*
X122619818Y-84538192D01*
X122537764Y-84808691D01*
X122510057Y-85090000D01*
X122537764Y-85371309D01*
X122619818Y-85641808D01*
X122753068Y-85891101D01*
X122932392Y-86109608D01*
X123150899Y-86288932D01*
X123283858Y-86360000D01*
X123150899Y-86431068D01*
X122932392Y-86610392D01*
X122753068Y-86828899D01*
X122619818Y-87078192D01*
X122537764Y-87348691D01*
X122510057Y-87630000D01*
X122537764Y-87911309D01*
X122619818Y-88181808D01*
X122753068Y-88431101D01*
X122932392Y-88649608D01*
X123150899Y-88828932D01*
X123283858Y-88900000D01*
X123150899Y-88971068D01*
X122932392Y-89150392D01*
X122753068Y-89368899D01*
X122619818Y-89618192D01*
X122537764Y-89888691D01*
X122510057Y-90170000D01*
X122537764Y-90451309D01*
X122619818Y-90721808D01*
X122753068Y-90971101D01*
X122932392Y-91189608D01*
X123150899Y-91368932D01*
X123283858Y-91440000D01*
X123150899Y-91511068D01*
X122932392Y-91690392D01*
X122753068Y-91908899D01*
X122619818Y-92158192D01*
X122537764Y-92428691D01*
X122510057Y-92710000D01*
X122537764Y-92991309D01*
X122619818Y-93261808D01*
X122753068Y-93511101D01*
X122932392Y-93729608D01*
X123150899Y-93908932D01*
X123283858Y-93980000D01*
X123150899Y-94051068D01*
X122932392Y-94230392D01*
X122753068Y-94448899D01*
X122619818Y-94698192D01*
X122537764Y-94968691D01*
X122510057Y-95250000D01*
X122537764Y-95531309D01*
X122619818Y-95801808D01*
X122753068Y-96051101D01*
X122932392Y-96269608D01*
X123150899Y-96448932D01*
X123400192Y-96582182D01*
X123670691Y-96664236D01*
X123881508Y-96685000D01*
X124022492Y-96685000D01*
X124233309Y-96664236D01*
X124503808Y-96582182D01*
X124753101Y-96448932D01*
X124971608Y-96269608D01*
X125150932Y-96051101D01*
X125284182Y-95801808D01*
X125366236Y-95531309D01*
X125393943Y-95250000D01*
X125366236Y-94968691D01*
X125284182Y-94698192D01*
X125150932Y-94448899D01*
X124971608Y-94230392D01*
X124753101Y-94051068D01*
X124620142Y-93980000D01*
X124753101Y-93908932D01*
X124971608Y-93729608D01*
X125150932Y-93511101D01*
X125284182Y-93261808D01*
X125366236Y-92991309D01*
X125393943Y-92710000D01*
X125366236Y-92428691D01*
X125284182Y-92158192D01*
X125150932Y-91908899D01*
X124971608Y-91690392D01*
X124753101Y-91511068D01*
X124620142Y-91440000D01*
X124753101Y-91368932D01*
X124971608Y-91189608D01*
X125150932Y-90971101D01*
X125284182Y-90721808D01*
X125366236Y-90451309D01*
X125393943Y-90170000D01*
X125366236Y-89888691D01*
X125284182Y-89618192D01*
X125150932Y-89368899D01*
X124971608Y-89150392D01*
X124753101Y-88971068D01*
X124620142Y-88900000D01*
X124753101Y-88828932D01*
X124971608Y-88649608D01*
X125150932Y-88431101D01*
X125284182Y-88181808D01*
X125366236Y-87911309D01*
X125393943Y-87630000D01*
X125366236Y-87348691D01*
X125284182Y-87078192D01*
X125150932Y-86828899D01*
X124971608Y-86610392D01*
X124753101Y-86431068D01*
X124620142Y-86360000D01*
X124753101Y-86288932D01*
X124971608Y-86109608D01*
X125150932Y-85891101D01*
X125284182Y-85641808D01*
X125366236Y-85371309D01*
X125393943Y-85090000D01*
X125366236Y-84808691D01*
X125284182Y-84538192D01*
X125150932Y-84288899D01*
X124971608Y-84070392D01*
X124753101Y-83891068D01*
X124620142Y-83820000D01*
X124753101Y-83748932D01*
X124971608Y-83569608D01*
X125150932Y-83351101D01*
X125284182Y-83101808D01*
X125366236Y-82831309D01*
X125393943Y-82550000D01*
X125366236Y-82268691D01*
X125284182Y-81998192D01*
X125150932Y-81748899D01*
X124971608Y-81530392D01*
X124753101Y-81351068D01*
X124620142Y-81280000D01*
X124753101Y-81208932D01*
X124971608Y-81029608D01*
X125150932Y-80811101D01*
X125284182Y-80561808D01*
X125366236Y-80291309D01*
X125393943Y-80010000D01*
X125366236Y-79728691D01*
X125284182Y-79458192D01*
X125150932Y-79208899D01*
X124971608Y-78990392D01*
X124753101Y-78811068D01*
X124503808Y-78677818D01*
X124233309Y-78595764D01*
X124022492Y-78575000D01*
X123881508Y-78575000D01*
X123670691Y-78595764D01*
X123400192Y-78677818D01*
X123150899Y-78811068D01*
X122932392Y-78990392D01*
X122753068Y-79208899D01*
X122619818Y-79458192D01*
X122537764Y-79728691D01*
X122510057Y-80010000D01*
X117770072Y-80010000D01*
X117770072Y-79210000D01*
X117757812Y-79085518D01*
X117721502Y-78965820D01*
X117662537Y-78855506D01*
X117583185Y-78758815D01*
X117486494Y-78679463D01*
X117376180Y-78620498D01*
X117256482Y-78584188D01*
X117132000Y-78571928D01*
X115532000Y-78571928D01*
X115407518Y-78584188D01*
X115287820Y-78620498D01*
X115177506Y-78679463D01*
X115080815Y-78758815D01*
X115001463Y-78855506D01*
X114942498Y-78965820D01*
X114906188Y-79085518D01*
X114893928Y-79210000D01*
X114893928Y-80810000D01*
X114906188Y-80934482D01*
X114942498Y-81054180D01*
X115001463Y-81164494D01*
X115080815Y-81261185D01*
X115177506Y-81340537D01*
X115287820Y-81399502D01*
X115407518Y-81435812D01*
X115425482Y-81437581D01*
X115312392Y-81530392D01*
X115133068Y-81748899D01*
X114999818Y-81998192D01*
X114917764Y-82268691D01*
X114890057Y-82550000D01*
X111912000Y-82550000D01*
X111912000Y-70878967D01*
X124857000Y-70878967D01*
X124857000Y-71201033D01*
X124919832Y-71516912D01*
X125043082Y-71814463D01*
X125222013Y-72082252D01*
X125449748Y-72309987D01*
X125717537Y-72488918D01*
X126015088Y-72612168D01*
X126330967Y-72675000D01*
X126653033Y-72675000D01*
X126968912Y-72612168D01*
X127266463Y-72488918D01*
X127534252Y-72309987D01*
X127761987Y-72082252D01*
X127940918Y-71814463D01*
X128064168Y-71516912D01*
X128127000Y-71201033D01*
X128127000Y-70878967D01*
X128857000Y-70878967D01*
X128857000Y-71201033D01*
X128919832Y-71516912D01*
X129043082Y-71814463D01*
X129222013Y-72082252D01*
X129449748Y-72309987D01*
X129717537Y-72488918D01*
X130015088Y-72612168D01*
X130330967Y-72675000D01*
X130653033Y-72675000D01*
X130968912Y-72612168D01*
X131266463Y-72488918D01*
X131534252Y-72309987D01*
X131761987Y-72082252D01*
X131940918Y-71814463D01*
X132064168Y-71516912D01*
X132127000Y-71201033D01*
X132127000Y-70878967D01*
X132064168Y-70563088D01*
X131940918Y-70265537D01*
X131761987Y-69997748D01*
X131534252Y-69770013D01*
X131266463Y-69591082D01*
X130968912Y-69467832D01*
X130653033Y-69405000D01*
X130330967Y-69405000D01*
X130015088Y-69467832D01*
X129717537Y-69591082D01*
X129449748Y-69770013D01*
X129222013Y-69997748D01*
X129043082Y-70265537D01*
X128919832Y-70563088D01*
X128857000Y-70878967D01*
X128127000Y-70878967D01*
X128064168Y-70563088D01*
X128058177Y-70548624D01*
X129266802Y-69340000D01*
X135575199Y-69340000D01*
X140330208Y-74095011D01*
X138621813Y-74095011D01*
X136058177Y-71531376D01*
X136064168Y-71516912D01*
X136127000Y-71201033D01*
X136127000Y-70878967D01*
X136064168Y-70563088D01*
X135940918Y-70265537D01*
X135761987Y-69997748D01*
X135534252Y-69770013D01*
X135266463Y-69591082D01*
X134968912Y-69467832D01*
X134653033Y-69405000D01*
X134330967Y-69405000D01*
X134015088Y-69467832D01*
X133717537Y-69591082D01*
X133449748Y-69770013D01*
X133222013Y-69997748D01*
X133043082Y-70265537D01*
X132919832Y-70563088D01*
X132857000Y-70878967D01*
X132857000Y-71201033D01*
X132919832Y-71516912D01*
X133043082Y-71814463D01*
X133222013Y-72082252D01*
X133449748Y-72309987D01*
X133717537Y-72488918D01*
X134015088Y-72612168D01*
X134330967Y-72675000D01*
X134653033Y-72675000D01*
X134968912Y-72612168D01*
X134983376Y-72606177D01*
X137743211Y-75366013D01*
X137767010Y-75395012D01*
X137882735Y-75489985D01*
X138014764Y-75560557D01*
X138158025Y-75604014D01*
X138269678Y-75615011D01*
X138269687Y-75615011D01*
X138307010Y-75618687D01*
X138344333Y-75615011D01*
X140657210Y-75615011D01*
X143614127Y-78571928D01*
X142202000Y-78571928D01*
X142077518Y-78584188D01*
X141957820Y-78620498D01*
X141847506Y-78679463D01*
X141750815Y-78758815D01*
X141671463Y-78855506D01*
X141612498Y-78965820D01*
X141576188Y-79085518D01*
X141563928Y-79210000D01*
X141563928Y-80810000D01*
X141576188Y-80934482D01*
X141612498Y-81054180D01*
X141671463Y-81164494D01*
X141750815Y-81261185D01*
X141847506Y-81340537D01*
X141957820Y-81399502D01*
X142077518Y-81435812D01*
X142095482Y-81437581D01*
X141982392Y-81530392D01*
X141803068Y-81748899D01*
X141669818Y-81998192D01*
X141587764Y-82268691D01*
X141560057Y-82550000D01*
X141587764Y-82831309D01*
X141669818Y-83101808D01*
X141803068Y-83351101D01*
X141982392Y-83569608D01*
X142200899Y-83748932D01*
X142333858Y-83820000D01*
X142200899Y-83891068D01*
X141982392Y-84070392D01*
X141803068Y-84288899D01*
X141669818Y-84538192D01*
X141587764Y-84808691D01*
X141560057Y-85090000D01*
X141587764Y-85371309D01*
X141669818Y-85641808D01*
X141803068Y-85891101D01*
X141982392Y-86109608D01*
X142200899Y-86288932D01*
X142333858Y-86360000D01*
X142200899Y-86431068D01*
X141982392Y-86610392D01*
X141803068Y-86828899D01*
X141669818Y-87078192D01*
X141587764Y-87348691D01*
X141560057Y-87630000D01*
X141587764Y-87911309D01*
X141669818Y-88181808D01*
X141803068Y-88431101D01*
X141982392Y-88649608D01*
X142200899Y-88828932D01*
X142333858Y-88900000D01*
X142200899Y-88971068D01*
X141982392Y-89150392D01*
X141803068Y-89368899D01*
X141669818Y-89618192D01*
X141587764Y-89888691D01*
X141560057Y-90170000D01*
X141587764Y-90451309D01*
X141669818Y-90721808D01*
X141803068Y-90971101D01*
X141982392Y-91189608D01*
X142200899Y-91368932D01*
X142333858Y-91440000D01*
X142200899Y-91511068D01*
X141982392Y-91690392D01*
X141803068Y-91908899D01*
X141669818Y-92158192D01*
X141587764Y-92428691D01*
X141560057Y-92710000D01*
X141587764Y-92991309D01*
X141669818Y-93261808D01*
X141803068Y-93511101D01*
X141982392Y-93729608D01*
X142200899Y-93908932D01*
X142333858Y-93980000D01*
X142200899Y-94051068D01*
X141982392Y-94230392D01*
X141803068Y-94448899D01*
X141669818Y-94698192D01*
X141587764Y-94968691D01*
X141560057Y-95250000D01*
X141587764Y-95531309D01*
X141669818Y-95801808D01*
X141803068Y-96051101D01*
X141982392Y-96269608D01*
X142200899Y-96448932D01*
X142450192Y-96582182D01*
X142720691Y-96664236D01*
X142931508Y-96685000D01*
X143072492Y-96685000D01*
X143283309Y-96664236D01*
X143553808Y-96582182D01*
X143803101Y-96448932D01*
X144021608Y-96269608D01*
X144200932Y-96051101D01*
X144334182Y-95801808D01*
X144416236Y-95531309D01*
X144443943Y-95250000D01*
X144416236Y-94968691D01*
X144334182Y-94698192D01*
X144200932Y-94448899D01*
X144021608Y-94230392D01*
X143803101Y-94051068D01*
X143670142Y-93980000D01*
X143803101Y-93908932D01*
X144021608Y-93729608D01*
X144200932Y-93511101D01*
X144334182Y-93261808D01*
X144416236Y-92991309D01*
X144443943Y-92710000D01*
X144441402Y-92684204D01*
X148643202Y-96886004D01*
X148667000Y-96915002D01*
X148695998Y-96938800D01*
X148782725Y-97009975D01*
X148914754Y-97080547D01*
X149058015Y-97124004D01*
X149207001Y-97138678D01*
X149244334Y-97135001D01*
X158303823Y-97135001D01*
X158262774Y-97234102D01*
X158223000Y-97434061D01*
X158223000Y-97637939D01*
X158262774Y-97837898D01*
X158340795Y-98026256D01*
X158454063Y-98195774D01*
X158598226Y-98339937D01*
X158767744Y-98453205D01*
X158956102Y-98531226D01*
X159156061Y-98571000D01*
X159359939Y-98571000D01*
X159559898Y-98531226D01*
X159748256Y-98453205D01*
X159917774Y-98339937D01*
X160061937Y-98195774D01*
X160164685Y-98042000D01*
X161094289Y-98042000D01*
X161138226Y-98085937D01*
X161307744Y-98199205D01*
X161496102Y-98277226D01*
X161696061Y-98317000D01*
X161899939Y-98317000D01*
X162099898Y-98277226D01*
X162193920Y-98238281D01*
X156967940Y-103464261D01*
X156900932Y-103338899D01*
X156721608Y-103120392D01*
X156608518Y-103027581D01*
X156626482Y-103025812D01*
X156746180Y-102989502D01*
X156856494Y-102930537D01*
X156953185Y-102851185D01*
X157032537Y-102754494D01*
X157091502Y-102644180D01*
X157127812Y-102524482D01*
X157140072Y-102400000D01*
X157140072Y-100800000D01*
X157127812Y-100675518D01*
X157091502Y-100555820D01*
X157032537Y-100445506D01*
X156953185Y-100348815D01*
X156856494Y-100269463D01*
X156746180Y-100210498D01*
X156626482Y-100174188D01*
X156502000Y-100161928D01*
X154902000Y-100161928D01*
X154777518Y-100174188D01*
X154657820Y-100210498D01*
X154547506Y-100269463D01*
X154450815Y-100348815D01*
X154371463Y-100445506D01*
X154312498Y-100555820D01*
X154276188Y-100675518D01*
X154263928Y-100800000D01*
X154263928Y-102400000D01*
X154276188Y-102524482D01*
X154312498Y-102644180D01*
X154371463Y-102754494D01*
X154450815Y-102851185D01*
X154547506Y-102930537D01*
X154657820Y-102989502D01*
X154777518Y-103025812D01*
X154795482Y-103027581D01*
X154682392Y-103120392D01*
X154503068Y-103338899D01*
X154369818Y-103588192D01*
X154287764Y-103858691D01*
X154260057Y-104140000D01*
X154287764Y-104421309D01*
X154369818Y-104691808D01*
X154424975Y-104794999D01*
X146819025Y-104794999D01*
X146874182Y-104691808D01*
X146956236Y-104421309D01*
X146983943Y-104140000D01*
X146956236Y-103858691D01*
X146874182Y-103588192D01*
X146740932Y-103338899D01*
X146561608Y-103120392D01*
X146343101Y-102941068D01*
X146205318Y-102867421D01*
X146397131Y-102752385D01*
X146605519Y-102563414D01*
X146773037Y-102337420D01*
X146893246Y-102083087D01*
X146933904Y-101949039D01*
X146811915Y-101727000D01*
X145669000Y-101727000D01*
X145669000Y-101747000D01*
X145415000Y-101747000D01*
X145415000Y-101727000D01*
X144272085Y-101727000D01*
X144150096Y-101949039D01*
X144190754Y-102083087D01*
X144310963Y-102337420D01*
X144478481Y-102563414D01*
X144686869Y-102752385D01*
X144878682Y-102867421D01*
X144740899Y-102941068D01*
X144522392Y-103120392D01*
X144343068Y-103338899D01*
X144209818Y-103588192D01*
X144127764Y-103858691D01*
X144100057Y-104140000D01*
X144127764Y-104421309D01*
X144209818Y-104691808D01*
X144264975Y-104794999D01*
X139199025Y-104794999D01*
X139254182Y-104691808D01*
X139336236Y-104421309D01*
X139363943Y-104140000D01*
X139336236Y-103858691D01*
X139254182Y-103588192D01*
X139120932Y-103338899D01*
X138941608Y-103120392D01*
X138828518Y-103027581D01*
X138846482Y-103025812D01*
X138966180Y-102989502D01*
X139076494Y-102930537D01*
X139173185Y-102851185D01*
X139252537Y-102754494D01*
X139311502Y-102644180D01*
X139347812Y-102524482D01*
X139360072Y-102400000D01*
X139360072Y-101250961D01*
X144150096Y-101250961D01*
X144272085Y-101473000D01*
X145415000Y-101473000D01*
X145415000Y-100329376D01*
X145669000Y-100329376D01*
X145669000Y-101473000D01*
X146811915Y-101473000D01*
X146933904Y-101250961D01*
X146893246Y-101116913D01*
X146773037Y-100862580D01*
X146605519Y-100636586D01*
X146397131Y-100447615D01*
X146155881Y-100302930D01*
X145891040Y-100208091D01*
X145669000Y-100329376D01*
X145415000Y-100329376D01*
X145192960Y-100208091D01*
X144928119Y-100302930D01*
X144686869Y-100447615D01*
X144478481Y-100636586D01*
X144310963Y-100862580D01*
X144190754Y-101116913D01*
X144150096Y-101250961D01*
X139360072Y-101250961D01*
X139360072Y-100800000D01*
X139347812Y-100675518D01*
X139311502Y-100555820D01*
X139252537Y-100445506D01*
X139173185Y-100348815D01*
X139076494Y-100269463D01*
X138966180Y-100210498D01*
X138846482Y-100174188D01*
X138722000Y-100161928D01*
X137122000Y-100161928D01*
X136997518Y-100174188D01*
X136877820Y-100210498D01*
X136767506Y-100269463D01*
X136670815Y-100348815D01*
X136591463Y-100445506D01*
X136532498Y-100555820D01*
X136496188Y-100675518D01*
X136483928Y-100800000D01*
X136483928Y-100840000D01*
X132879323Y-100840000D01*
X132842000Y-100836324D01*
X132804677Y-100840000D01*
X132804667Y-100840000D01*
X132693014Y-100850997D01*
X132549753Y-100894454D01*
X132417723Y-100965026D01*
X132334083Y-101033668D01*
X132301999Y-101059999D01*
X132278201Y-101088997D01*
X129201402Y-104165796D01*
X129203943Y-104140000D01*
X129176236Y-103858691D01*
X129094182Y-103588192D01*
X128960932Y-103338899D01*
X128781608Y-103120392D01*
X128563101Y-102941068D01*
X128425318Y-102867421D01*
X128617131Y-102752385D01*
X128825519Y-102563414D01*
X128993037Y-102337420D01*
X129113246Y-102083087D01*
X129153904Y-101949039D01*
X129031915Y-101727000D01*
X127889000Y-101727000D01*
X127889000Y-101747000D01*
X127635000Y-101747000D01*
X127635000Y-101727000D01*
X127615000Y-101727000D01*
X127615000Y-101473000D01*
X127635000Y-101473000D01*
X127635000Y-100329376D01*
X127889000Y-100329376D01*
X127889000Y-101473000D01*
X129031915Y-101473000D01*
X129153904Y-101250961D01*
X129113246Y-101116913D01*
X128993037Y-100862580D01*
X128825519Y-100636586D01*
X128617131Y-100447615D01*
X128375881Y-100302930D01*
X128111040Y-100208091D01*
X127889000Y-100329376D01*
X127635000Y-100329376D01*
X127412960Y-100208091D01*
X127396999Y-100213807D01*
X127396999Y-94149802D01*
X128862598Y-92684204D01*
X128860057Y-92710000D01*
X128887764Y-92991309D01*
X128969818Y-93261808D01*
X129103068Y-93511101D01*
X129282392Y-93729608D01*
X129500899Y-93908932D01*
X129633858Y-93980000D01*
X129500899Y-94051068D01*
X129282392Y-94230392D01*
X129103068Y-94448899D01*
X128969818Y-94698192D01*
X128887764Y-94968691D01*
X128860057Y-95250000D01*
X128887764Y-95531309D01*
X128969818Y-95801808D01*
X129103068Y-96051101D01*
X129282392Y-96269608D01*
X129500899Y-96448932D01*
X129750192Y-96582182D01*
X130020691Y-96664236D01*
X130231508Y-96685000D01*
X130372492Y-96685000D01*
X130583309Y-96664236D01*
X130853808Y-96582182D01*
X131103101Y-96448932D01*
X131321608Y-96269608D01*
X131500932Y-96051101D01*
X131634182Y-95801808D01*
X131716236Y-95531309D01*
X131743943Y-95250000D01*
X131716236Y-94968691D01*
X131634182Y-94698192D01*
X131500932Y-94448899D01*
X131321608Y-94230392D01*
X131103101Y-94051068D01*
X130970142Y-93980000D01*
X131103101Y-93908932D01*
X131321608Y-93729608D01*
X131500932Y-93511101D01*
X131634182Y-93261808D01*
X131716236Y-92991309D01*
X131743943Y-92710000D01*
X131716236Y-92428691D01*
X131634182Y-92158192D01*
X131500932Y-91908899D01*
X131321608Y-91690392D01*
X131103101Y-91511068D01*
X130970142Y-91440000D01*
X131103101Y-91368932D01*
X131321608Y-91189608D01*
X131500932Y-90971101D01*
X131634182Y-90721808D01*
X131716236Y-90451309D01*
X131743943Y-90170000D01*
X131716236Y-89888691D01*
X131634182Y-89618192D01*
X131500932Y-89368899D01*
X131321608Y-89150392D01*
X131103101Y-88971068D01*
X130970142Y-88900000D01*
X131103101Y-88828932D01*
X131321608Y-88649608D01*
X131500932Y-88431101D01*
X131634182Y-88181808D01*
X131716236Y-87911309D01*
X131743943Y-87630000D01*
X131716236Y-87348691D01*
X131634182Y-87078192D01*
X131500932Y-86828899D01*
X131321608Y-86610392D01*
X131103101Y-86431068D01*
X130970142Y-86360000D01*
X131103101Y-86288932D01*
X131321608Y-86109608D01*
X131500932Y-85891101D01*
X131634182Y-85641808D01*
X131716236Y-85371309D01*
X131743943Y-85090000D01*
X131716236Y-84808691D01*
X131634182Y-84538192D01*
X131500932Y-84288899D01*
X131321608Y-84070392D01*
X131103101Y-83891068D01*
X130970142Y-83820000D01*
X131103101Y-83748932D01*
X131321608Y-83569608D01*
X131500932Y-83351101D01*
X131634182Y-83101808D01*
X131716236Y-82831309D01*
X131743943Y-82550000D01*
X131716236Y-82268691D01*
X131634182Y-81998192D01*
X131500932Y-81748899D01*
X131321608Y-81530392D01*
X131208518Y-81437581D01*
X131226482Y-81435812D01*
X131346180Y-81399502D01*
X131456494Y-81340537D01*
X131553185Y-81261185D01*
X131632537Y-81164494D01*
X131691502Y-81054180D01*
X131727812Y-80934482D01*
X131740072Y-80810000D01*
X131740072Y-80010000D01*
X136480057Y-80010000D01*
X136507764Y-80291309D01*
X136589818Y-80561808D01*
X136723068Y-80811101D01*
X136902392Y-81029608D01*
X137120899Y-81208932D01*
X137253858Y-81280000D01*
X137120899Y-81351068D01*
X136902392Y-81530392D01*
X136723068Y-81748899D01*
X136589818Y-81998192D01*
X136507764Y-82268691D01*
X136480057Y-82550000D01*
X136507764Y-82831309D01*
X136589818Y-83101808D01*
X136723068Y-83351101D01*
X136902392Y-83569608D01*
X137120899Y-83748932D01*
X137253858Y-83820000D01*
X137120899Y-83891068D01*
X136902392Y-84070392D01*
X136723068Y-84288899D01*
X136589818Y-84538192D01*
X136507764Y-84808691D01*
X136480057Y-85090000D01*
X136507764Y-85371309D01*
X136589818Y-85641808D01*
X136723068Y-85891101D01*
X136902392Y-86109608D01*
X137120899Y-86288932D01*
X137253858Y-86360000D01*
X137120899Y-86431068D01*
X136902392Y-86610392D01*
X136723068Y-86828899D01*
X136589818Y-87078192D01*
X136507764Y-87348691D01*
X136480057Y-87630000D01*
X136507764Y-87911309D01*
X136589818Y-88181808D01*
X136723068Y-88431101D01*
X136902392Y-88649608D01*
X137120899Y-88828932D01*
X137253858Y-88900000D01*
X137120899Y-88971068D01*
X136902392Y-89150392D01*
X136723068Y-89368899D01*
X136589818Y-89618192D01*
X136507764Y-89888691D01*
X136480057Y-90170000D01*
X136507764Y-90451309D01*
X136589818Y-90721808D01*
X136723068Y-90971101D01*
X136902392Y-91189608D01*
X137120899Y-91368932D01*
X137253858Y-91440000D01*
X137120899Y-91511068D01*
X136902392Y-91690392D01*
X136723068Y-91908899D01*
X136589818Y-92158192D01*
X136507764Y-92428691D01*
X136480057Y-92710000D01*
X136507764Y-92991309D01*
X136589818Y-93261808D01*
X136723068Y-93511101D01*
X136902392Y-93729608D01*
X137120899Y-93908932D01*
X137253858Y-93980000D01*
X137120899Y-94051068D01*
X136902392Y-94230392D01*
X136723068Y-94448899D01*
X136589818Y-94698192D01*
X136507764Y-94968691D01*
X136480057Y-95250000D01*
X136507764Y-95531309D01*
X136589818Y-95801808D01*
X136723068Y-96051101D01*
X136902392Y-96269608D01*
X137120899Y-96448932D01*
X137370192Y-96582182D01*
X137640691Y-96664236D01*
X137851508Y-96685000D01*
X137992492Y-96685000D01*
X138203309Y-96664236D01*
X138473808Y-96582182D01*
X138723101Y-96448932D01*
X138941608Y-96269608D01*
X139120932Y-96051101D01*
X139254182Y-95801808D01*
X139336236Y-95531309D01*
X139363943Y-95250000D01*
X139336236Y-94968691D01*
X139254182Y-94698192D01*
X139120932Y-94448899D01*
X138941608Y-94230392D01*
X138723101Y-94051068D01*
X138590142Y-93980000D01*
X138723101Y-93908932D01*
X138941608Y-93729608D01*
X139120932Y-93511101D01*
X139254182Y-93261808D01*
X139336236Y-92991309D01*
X139363943Y-92710000D01*
X139336236Y-92428691D01*
X139254182Y-92158192D01*
X139120932Y-91908899D01*
X138941608Y-91690392D01*
X138723101Y-91511068D01*
X138590142Y-91440000D01*
X138723101Y-91368932D01*
X138941608Y-91189608D01*
X139120932Y-90971101D01*
X139254182Y-90721808D01*
X139336236Y-90451309D01*
X139363943Y-90170000D01*
X139336236Y-89888691D01*
X139254182Y-89618192D01*
X139120932Y-89368899D01*
X138941608Y-89150392D01*
X138723101Y-88971068D01*
X138590142Y-88900000D01*
X138723101Y-88828932D01*
X138941608Y-88649608D01*
X139120932Y-88431101D01*
X139254182Y-88181808D01*
X139336236Y-87911309D01*
X139363943Y-87630000D01*
X139336236Y-87348691D01*
X139254182Y-87078192D01*
X139120932Y-86828899D01*
X138941608Y-86610392D01*
X138723101Y-86431068D01*
X138590142Y-86360000D01*
X138723101Y-86288932D01*
X138941608Y-86109608D01*
X139120932Y-85891101D01*
X139254182Y-85641808D01*
X139336236Y-85371309D01*
X139363943Y-85090000D01*
X139336236Y-84808691D01*
X139254182Y-84538192D01*
X139120932Y-84288899D01*
X138941608Y-84070392D01*
X138723101Y-83891068D01*
X138590142Y-83820000D01*
X138723101Y-83748932D01*
X138941608Y-83569608D01*
X139120932Y-83351101D01*
X139254182Y-83101808D01*
X139336236Y-82831309D01*
X139363943Y-82550000D01*
X139336236Y-82268691D01*
X139254182Y-81998192D01*
X139120932Y-81748899D01*
X138941608Y-81530392D01*
X138723101Y-81351068D01*
X138590142Y-81280000D01*
X138723101Y-81208932D01*
X138941608Y-81029608D01*
X139120932Y-80811101D01*
X139254182Y-80561808D01*
X139336236Y-80291309D01*
X139363943Y-80010000D01*
X139336236Y-79728691D01*
X139254182Y-79458192D01*
X139120932Y-79208899D01*
X138941608Y-78990392D01*
X138723101Y-78811068D01*
X138473808Y-78677818D01*
X138203309Y-78595764D01*
X137992492Y-78575000D01*
X137851508Y-78575000D01*
X137640691Y-78595764D01*
X137370192Y-78677818D01*
X137120899Y-78811068D01*
X136902392Y-78990392D01*
X136723068Y-79208899D01*
X136589818Y-79458192D01*
X136507764Y-79728691D01*
X136480057Y-80010000D01*
X131740072Y-80010000D01*
X131740072Y-79210000D01*
X131727812Y-79085518D01*
X131691502Y-78965820D01*
X131632537Y-78855506D01*
X131553185Y-78758815D01*
X131456494Y-78679463D01*
X131346180Y-78620498D01*
X131226482Y-78584188D01*
X131102000Y-78571928D01*
X129502000Y-78571928D01*
X129377518Y-78584188D01*
X129257820Y-78620498D01*
X129147506Y-78679463D01*
X129050815Y-78758815D01*
X128971463Y-78855506D01*
X128912498Y-78965820D01*
X128876188Y-79085518D01*
X128863928Y-79210000D01*
X128863928Y-79355674D01*
X128827723Y-79375026D01*
X128757489Y-79432666D01*
X128711999Y-79469999D01*
X128688201Y-79498997D01*
X125675987Y-82511212D01*
X125646989Y-82535010D01*
X125623191Y-82564008D01*
X125623190Y-82564009D01*
X125552015Y-82650735D01*
X125481443Y-82782765D01*
X125466718Y-82831309D01*
X125446267Y-82898731D01*
X125437987Y-82926026D01*
X125423313Y-83075011D01*
X125426990Y-83112344D01*
X125426989Y-109909079D01*
X125423313Y-109946401D01*
X125426989Y-109983723D01*
X125426989Y-109983733D01*
X125437986Y-110095386D01*
X125481443Y-110238647D01*
X125552015Y-110370677D01*
X125571956Y-110394975D01*
X125646988Y-110486402D01*
X125675991Y-110510204D01*
X126471799Y-111306013D01*
X126495597Y-111335011D01*
X126611322Y-111429984D01*
X126743351Y-111500556D01*
X126886612Y-111544013D01*
X126998265Y-111555010D01*
X126998274Y-111555010D01*
X127035597Y-111558686D01*
X127072920Y-111555010D01*
X151549668Y-111555010D01*
X151586990Y-111558686D01*
X151624312Y-111555010D01*
X151624323Y-111555010D01*
X151735976Y-111544013D01*
X151879237Y-111500556D01*
X152011266Y-111429984D01*
X152126991Y-111335011D01*
X152150794Y-111306007D01*
X153887762Y-109569039D01*
X154310096Y-109569039D01*
X154350754Y-109703087D01*
X154470963Y-109957420D01*
X154638481Y-110183414D01*
X154846869Y-110372385D01*
X155088119Y-110517070D01*
X155352960Y-110611909D01*
X155575000Y-110490624D01*
X155575000Y-109347000D01*
X155829000Y-109347000D01*
X155829000Y-110490624D01*
X156051040Y-110611909D01*
X156315881Y-110517070D01*
X156557131Y-110372385D01*
X156765519Y-110183414D01*
X156933037Y-109957420D01*
X157053246Y-109703087D01*
X157093904Y-109569039D01*
X156971915Y-109347000D01*
X155829000Y-109347000D01*
X155575000Y-109347000D01*
X154432085Y-109347000D01*
X154310096Y-109569039D01*
X153887762Y-109569039D01*
X154407872Y-109048929D01*
X154432085Y-109093000D01*
X155575000Y-109093000D01*
X155575000Y-109073000D01*
X155829000Y-109073000D01*
X155829000Y-109093000D01*
X156971915Y-109093000D01*
X157093904Y-108870961D01*
X157053246Y-108736913D01*
X156933037Y-108482580D01*
X156765519Y-108256586D01*
X156557131Y-108067615D01*
X156365318Y-107952579D01*
X156503101Y-107878932D01*
X156721608Y-107699608D01*
X156900932Y-107481101D01*
X157034182Y-107231808D01*
X157116236Y-106961309D01*
X157143943Y-106680000D01*
X157116236Y-106398691D01*
X157034182Y-106128192D01*
X156900932Y-105878899D01*
X156811670Y-105770133D01*
X158441803Y-104140000D01*
X161880057Y-104140000D01*
X161907764Y-104421309D01*
X161989818Y-104691808D01*
X162123068Y-104941101D01*
X162302392Y-105159608D01*
X162520899Y-105338932D01*
X162653858Y-105410000D01*
X162520899Y-105481068D01*
X162302392Y-105660392D01*
X162123068Y-105878899D01*
X161989818Y-106128192D01*
X161907764Y-106398691D01*
X161880057Y-106680000D01*
X161907764Y-106961309D01*
X161989818Y-107231808D01*
X162123068Y-107481101D01*
X162302392Y-107699608D01*
X162520899Y-107878932D01*
X162653858Y-107950000D01*
X162520899Y-108021068D01*
X162302392Y-108200392D01*
X162123068Y-108418899D01*
X161989818Y-108668192D01*
X161907764Y-108938691D01*
X161880057Y-109220000D01*
X161907764Y-109501309D01*
X161989818Y-109771808D01*
X162123068Y-110021101D01*
X162302392Y-110239608D01*
X162520899Y-110418932D01*
X162770192Y-110552182D01*
X163040691Y-110634236D01*
X163251508Y-110655000D01*
X163392492Y-110655000D01*
X163603309Y-110634236D01*
X163873808Y-110552182D01*
X164123101Y-110418932D01*
X164341608Y-110239608D01*
X164520932Y-110021101D01*
X164654182Y-109771808D01*
X164736236Y-109501309D01*
X164763943Y-109220000D01*
X164736236Y-108938691D01*
X164654182Y-108668192D01*
X164520932Y-108418899D01*
X164341608Y-108200392D01*
X164123101Y-108021068D01*
X163990142Y-107950000D01*
X164123101Y-107878932D01*
X164341608Y-107699608D01*
X164520932Y-107481101D01*
X164654182Y-107231808D01*
X164736236Y-106961309D01*
X164763943Y-106680000D01*
X164736236Y-106398691D01*
X164704635Y-106294514D01*
X172147000Y-106294514D01*
X172147000Y-106557486D01*
X172198304Y-106815405D01*
X172298939Y-107058359D01*
X172445038Y-107277013D01*
X172630987Y-107462962D01*
X172849641Y-107609061D01*
X173092595Y-107709696D01*
X173350514Y-107761000D01*
X173613486Y-107761000D01*
X173871405Y-107709696D01*
X174114359Y-107609061D01*
X174333013Y-107462962D01*
X174518962Y-107277013D01*
X174665061Y-107058359D01*
X174765696Y-106815405D01*
X174817000Y-106557486D01*
X174817000Y-106294514D01*
X174765696Y-106036595D01*
X174665061Y-105793641D01*
X174518962Y-105574987D01*
X174333013Y-105389038D01*
X174114359Y-105242939D01*
X173871405Y-105142304D01*
X173613486Y-105091000D01*
X173350514Y-105091000D01*
X173092595Y-105142304D01*
X172849641Y-105242939D01*
X172630987Y-105389038D01*
X172445038Y-105574987D01*
X172298939Y-105793641D01*
X172198304Y-106036595D01*
X172147000Y-106294514D01*
X164704635Y-106294514D01*
X164654182Y-106128192D01*
X164520932Y-105878899D01*
X164341608Y-105660392D01*
X164123101Y-105481068D01*
X163990142Y-105410000D01*
X164123101Y-105338932D01*
X164341608Y-105159608D01*
X164520932Y-104941101D01*
X164654182Y-104691808D01*
X164736236Y-104421309D01*
X164763943Y-104140000D01*
X164736236Y-103858691D01*
X164654182Y-103588192D01*
X164520932Y-103338899D01*
X164341608Y-103120392D01*
X164177851Y-102986000D01*
X175753928Y-102986000D01*
X175753928Y-104786000D01*
X175766188Y-104910482D01*
X175802498Y-105030180D01*
X175861463Y-105140494D01*
X175940815Y-105237185D01*
X176037506Y-105316537D01*
X176147820Y-105375502D01*
X176267518Y-105411812D01*
X176392000Y-105424072D01*
X178192000Y-105424072D01*
X178316482Y-105411812D01*
X178436180Y-105375502D01*
X178546494Y-105316537D01*
X178643185Y-105237185D01*
X178722537Y-105140494D01*
X178781502Y-105030180D01*
X178787056Y-105011873D01*
X178853495Y-105078312D01*
X179104905Y-105246299D01*
X179384257Y-105362011D01*
X179680816Y-105421000D01*
X179983184Y-105421000D01*
X180279743Y-105362011D01*
X180559095Y-105246299D01*
X180810505Y-105078312D01*
X181024312Y-104864505D01*
X181192299Y-104613095D01*
X181308011Y-104333743D01*
X181367000Y-104037184D01*
X181367000Y-103734816D01*
X181308011Y-103438257D01*
X181192299Y-103158905D01*
X181024312Y-102907495D01*
X180810505Y-102693688D01*
X180559095Y-102525701D01*
X180279743Y-102409989D01*
X179983184Y-102351000D01*
X179680816Y-102351000D01*
X179384257Y-102409989D01*
X179104905Y-102525701D01*
X178853495Y-102693688D01*
X178787056Y-102760127D01*
X178781502Y-102741820D01*
X178722537Y-102631506D01*
X178643185Y-102534815D01*
X178546494Y-102455463D01*
X178436180Y-102396498D01*
X178316482Y-102360188D01*
X178192000Y-102347928D01*
X176392000Y-102347928D01*
X176267518Y-102360188D01*
X176147820Y-102396498D01*
X176037506Y-102455463D01*
X175940815Y-102534815D01*
X175861463Y-102631506D01*
X175802498Y-102741820D01*
X175766188Y-102861518D01*
X175753928Y-102986000D01*
X164177851Y-102986000D01*
X164123101Y-102941068D01*
X163985318Y-102867421D01*
X164177131Y-102752385D01*
X164385519Y-102563414D01*
X164553037Y-102337420D01*
X164673246Y-102083087D01*
X164713904Y-101949039D01*
X164591915Y-101727000D01*
X163449000Y-101727000D01*
X163449000Y-101747000D01*
X163195000Y-101747000D01*
X163195000Y-101727000D01*
X162052085Y-101727000D01*
X161930096Y-101949039D01*
X161970754Y-102083087D01*
X162090963Y-102337420D01*
X162258481Y-102563414D01*
X162466869Y-102752385D01*
X162658682Y-102867421D01*
X162520899Y-102941068D01*
X162302392Y-103120392D01*
X162123068Y-103338899D01*
X161989818Y-103588192D01*
X161907764Y-103858691D01*
X161880057Y-104140000D01*
X158441803Y-104140000D01*
X161330842Y-101250961D01*
X161930096Y-101250961D01*
X162052085Y-101473000D01*
X163195000Y-101473000D01*
X163195000Y-100329376D01*
X163449000Y-100329376D01*
X163449000Y-101473000D01*
X164591915Y-101473000D01*
X164661689Y-101346000D01*
X172140541Y-101346000D01*
X172166317Y-101607706D01*
X172242653Y-101859354D01*
X172366618Y-102091275D01*
X172533445Y-102294555D01*
X172736725Y-102461382D01*
X172968646Y-102585347D01*
X173220294Y-102661683D01*
X173416421Y-102681000D01*
X173547579Y-102681000D01*
X173743706Y-102661683D01*
X173995354Y-102585347D01*
X174227275Y-102461382D01*
X174430555Y-102294555D01*
X174597382Y-102091275D01*
X174721347Y-101859354D01*
X174797683Y-101607706D01*
X174823459Y-101346000D01*
X174797683Y-101084294D01*
X174721347Y-100832646D01*
X174597382Y-100600725D01*
X174430555Y-100397445D01*
X174227275Y-100230618D01*
X173995354Y-100106653D01*
X173743706Y-100030317D01*
X173547579Y-100011000D01*
X173416421Y-100011000D01*
X173220294Y-100030317D01*
X172968646Y-100106653D01*
X172736725Y-100230618D01*
X172533445Y-100397445D01*
X172366618Y-100600725D01*
X172242653Y-100832646D01*
X172166317Y-101084294D01*
X172140541Y-101346000D01*
X164661689Y-101346000D01*
X164713904Y-101250961D01*
X164673246Y-101116913D01*
X164553037Y-100862580D01*
X164385519Y-100636586D01*
X164177131Y-100447615D01*
X163935881Y-100302930D01*
X163671040Y-100208091D01*
X163449000Y-100329376D01*
X163195000Y-100329376D01*
X162972960Y-100208091D01*
X162708119Y-100302930D01*
X162466869Y-100447615D01*
X162258481Y-100636586D01*
X162090963Y-100862580D01*
X161970754Y-101116913D01*
X161930096Y-101250961D01*
X161330842Y-101250961D01*
X163381182Y-99200622D01*
X163420795Y-99296256D01*
X163534063Y-99465774D01*
X163678226Y-99609937D01*
X163847744Y-99723205D01*
X164036102Y-99801226D01*
X164236061Y-99841000D01*
X164439939Y-99841000D01*
X164639898Y-99801226D01*
X164828256Y-99723205D01*
X164997774Y-99609937D01*
X165041711Y-99566000D01*
X165062678Y-99566000D01*
X165100000Y-99569676D01*
X165137322Y-99566000D01*
X165137333Y-99566000D01*
X165248986Y-99555003D01*
X165392247Y-99511546D01*
X165524276Y-99440974D01*
X165640001Y-99346001D01*
X165663804Y-99316997D01*
X166409802Y-98571000D01*
X166471939Y-98571000D01*
X166671898Y-98531226D01*
X166860256Y-98453205D01*
X167029774Y-98339937D01*
X167173937Y-98195774D01*
X167287205Y-98026256D01*
X167365226Y-97837898D01*
X167405000Y-97637939D01*
X167405000Y-97434061D01*
X167365226Y-97234102D01*
X167287205Y-97045744D01*
X167173937Y-96876226D01*
X167029774Y-96732063D01*
X166959339Y-96685000D01*
X167233335Y-96685000D01*
X167510574Y-96629853D01*
X167771727Y-96521680D01*
X168006759Y-96364637D01*
X168206637Y-96164759D01*
X168363680Y-95929727D01*
X168471853Y-95668574D01*
X168527000Y-95391335D01*
X168527000Y-95108665D01*
X168471853Y-94831426D01*
X168363680Y-94570273D01*
X168206637Y-94335241D01*
X168006759Y-94135363D01*
X167771727Y-93978320D01*
X167721349Y-93957453D01*
X168084287Y-93594514D01*
X172147000Y-93594514D01*
X172147000Y-93857486D01*
X172198304Y-94115405D01*
X172298939Y-94358359D01*
X172445038Y-94577013D01*
X172630987Y-94762962D01*
X172849641Y-94909061D01*
X173092595Y-95009696D01*
X173350514Y-95061000D01*
X173613486Y-95061000D01*
X173871405Y-95009696D01*
X174114359Y-94909061D01*
X174333013Y-94762962D01*
X174518962Y-94577013D01*
X174665061Y-94358359D01*
X174765696Y-94115405D01*
X174817000Y-93857486D01*
X174817000Y-93594514D01*
X174765696Y-93336595D01*
X174665061Y-93093641D01*
X174518962Y-92874987D01*
X174333013Y-92689038D01*
X174114359Y-92542939D01*
X173871405Y-92442304D01*
X173613486Y-92391000D01*
X173350514Y-92391000D01*
X173092595Y-92442304D01*
X172849641Y-92542939D01*
X172630987Y-92689038D01*
X172445038Y-92874987D01*
X172298939Y-93093641D01*
X172198304Y-93336595D01*
X172147000Y-93594514D01*
X168084287Y-93594514D01*
X171392801Y-90286000D01*
X175753928Y-90286000D01*
X175753928Y-92086000D01*
X175766188Y-92210482D01*
X175802498Y-92330180D01*
X175861463Y-92440494D01*
X175940815Y-92537185D01*
X176037506Y-92616537D01*
X176147820Y-92675502D01*
X176267518Y-92711812D01*
X176392000Y-92724072D01*
X178192000Y-92724072D01*
X178316482Y-92711812D01*
X178436180Y-92675502D01*
X178546494Y-92616537D01*
X178643185Y-92537185D01*
X178722537Y-92440494D01*
X178781502Y-92330180D01*
X178787056Y-92311873D01*
X178853495Y-92378312D01*
X179104905Y-92546299D01*
X179384257Y-92662011D01*
X179680816Y-92721000D01*
X179983184Y-92721000D01*
X180279743Y-92662011D01*
X180559095Y-92546299D01*
X180810505Y-92378312D01*
X181024312Y-92164505D01*
X181192299Y-91913095D01*
X181308011Y-91633743D01*
X181367000Y-91337184D01*
X181367000Y-91034816D01*
X181308011Y-90738257D01*
X181192299Y-90458905D01*
X181024312Y-90207495D01*
X180810505Y-89993688D01*
X180559095Y-89825701D01*
X180279743Y-89709989D01*
X179983184Y-89651000D01*
X179680816Y-89651000D01*
X179384257Y-89709989D01*
X179104905Y-89825701D01*
X178853495Y-89993688D01*
X178787056Y-90060127D01*
X178781502Y-90041820D01*
X178722537Y-89931506D01*
X178643185Y-89834815D01*
X178546494Y-89755463D01*
X178436180Y-89696498D01*
X178316482Y-89660188D01*
X178192000Y-89647928D01*
X176392000Y-89647928D01*
X176267518Y-89660188D01*
X176147820Y-89696498D01*
X176037506Y-89755463D01*
X175940815Y-89834815D01*
X175861463Y-89931506D01*
X175802498Y-90041820D01*
X175766188Y-90161518D01*
X175753928Y-90286000D01*
X171392801Y-90286000D01*
X172339068Y-89339733D01*
X172366618Y-89391275D01*
X172533445Y-89594555D01*
X172736725Y-89761382D01*
X172968646Y-89885347D01*
X173220294Y-89961683D01*
X173416421Y-89981000D01*
X173547579Y-89981000D01*
X173743706Y-89961683D01*
X173995354Y-89885347D01*
X174227275Y-89761382D01*
X174430555Y-89594555D01*
X174597382Y-89391275D01*
X174721347Y-89159354D01*
X174797683Y-88907706D01*
X174823459Y-88646000D01*
X174797683Y-88384294D01*
X174721347Y-88132646D01*
X174597382Y-87900725D01*
X174430555Y-87697445D01*
X174227275Y-87530618D01*
X174175733Y-87503068D01*
X182629003Y-79049799D01*
X182658001Y-79026001D01*
X182752974Y-78910276D01*
X182823546Y-78778247D01*
X182867003Y-78634986D01*
X182878000Y-78523333D01*
X182878000Y-78523325D01*
X182881676Y-78486000D01*
X182878000Y-78448675D01*
X182878000Y-76237325D01*
X182881676Y-76200000D01*
X182878000Y-76162675D01*
X182878000Y-76162667D01*
X182867003Y-76051014D01*
X182823546Y-75907753D01*
X182752974Y-75775724D01*
X182658001Y-75659999D01*
X182629003Y-75636201D01*
X180132803Y-73140002D01*
X180109000Y-73110998D01*
X179993275Y-73016025D01*
X179861246Y-72945453D01*
X179717985Y-72901996D01*
X179606332Y-72890999D01*
X179606321Y-72890999D01*
X179568999Y-72887323D01*
X179531677Y-72890999D01*
X170017801Y-72890999D01*
X169681802Y-72555000D01*
X169813335Y-72555000D01*
X170090574Y-72499853D01*
X170351727Y-72391680D01*
X170586759Y-72234637D01*
X170786637Y-72034759D01*
X170943680Y-71799727D01*
X171051853Y-71538574D01*
X171107000Y-71261335D01*
X171107000Y-70978665D01*
X171051853Y-70701426D01*
X170943680Y-70440273D01*
X170786637Y-70205241D01*
X170586759Y-70005363D01*
X170351727Y-69848320D01*
X170090574Y-69740147D01*
X169813335Y-69685000D01*
X169530665Y-69685000D01*
X169253426Y-69740147D01*
X168992273Y-69848320D01*
X168757241Y-70005363D01*
X168557363Y-70205241D01*
X168422000Y-70407827D01*
X168286637Y-70205241D01*
X168086759Y-70005363D01*
X167851727Y-69848320D01*
X167590574Y-69740147D01*
X167313335Y-69685000D01*
X167030665Y-69685000D01*
X166753426Y-69740147D01*
X166492273Y-69848320D01*
X166257241Y-70005363D01*
X166057363Y-70205241D01*
X165900320Y-70440273D01*
X165792147Y-70701426D01*
X165737000Y-70978665D01*
X165737000Y-71261335D01*
X165792147Y-71538574D01*
X165900320Y-71799727D01*
X166057363Y-72034759D01*
X166257241Y-72234637D01*
X166492273Y-72391680D01*
X166753426Y-72499853D01*
X167030665Y-72555000D01*
X167313335Y-72555000D01*
X167495886Y-72518688D01*
X169139199Y-74162001D01*
X169162998Y-74191000D01*
X169191996Y-74214798D01*
X169278722Y-74285973D01*
X169387297Y-74344008D01*
X169410752Y-74356545D01*
X169554013Y-74400002D01*
X169665666Y-74410999D01*
X169665675Y-74410999D01*
X169702998Y-74414675D01*
X169740321Y-74410999D01*
X172173558Y-74410999D01*
X172147000Y-74544514D01*
X172147000Y-74807486D01*
X172198304Y-75065405D01*
X172298939Y-75308359D01*
X172445038Y-75527013D01*
X172630987Y-75712962D01*
X172849641Y-75859061D01*
X173092595Y-75959696D01*
X173350514Y-76011000D01*
X173613486Y-76011000D01*
X173871405Y-75959696D01*
X174114359Y-75859061D01*
X174333013Y-75712962D01*
X174518962Y-75527013D01*
X174665061Y-75308359D01*
X174765696Y-75065405D01*
X174817000Y-74807486D01*
X174817000Y-74544514D01*
X174790442Y-74410999D01*
X179254198Y-74410999D01*
X181358000Y-76514802D01*
X181358000Y-77019572D01*
X181308011Y-76768257D01*
X181192299Y-76488905D01*
X181024312Y-76237495D01*
X180810505Y-76023688D01*
X180559095Y-75855701D01*
X180279743Y-75739989D01*
X179983184Y-75681000D01*
X179680816Y-75681000D01*
X179384257Y-75739989D01*
X179104905Y-75855701D01*
X178853495Y-76023688D01*
X178787056Y-76090127D01*
X178781502Y-76071820D01*
X178722537Y-75961506D01*
X178643185Y-75864815D01*
X178546494Y-75785463D01*
X178436180Y-75726498D01*
X178316482Y-75690188D01*
X178192000Y-75677928D01*
X176392000Y-75677928D01*
X176267518Y-75690188D01*
X176147820Y-75726498D01*
X176037506Y-75785463D01*
X175940815Y-75864815D01*
X175861463Y-75961506D01*
X175802498Y-76071820D01*
X175766188Y-76191518D01*
X175753928Y-76316000D01*
X175753928Y-78116000D01*
X175766188Y-78240482D01*
X175802498Y-78360180D01*
X175861463Y-78470494D01*
X175940815Y-78567185D01*
X176037506Y-78646537D01*
X176147820Y-78705502D01*
X176267518Y-78741812D01*
X176392000Y-78754072D01*
X177038124Y-78754072D01*
X168523287Y-87268909D01*
X168511853Y-87211426D01*
X168403680Y-86950273D01*
X168246637Y-86715241D01*
X168046759Y-86515363D01*
X167892000Y-86411957D01*
X167892000Y-85011316D01*
X168006759Y-84934637D01*
X168206637Y-84734759D01*
X168363680Y-84499727D01*
X168471853Y-84238574D01*
X168527000Y-83961335D01*
X168527000Y-83678665D01*
X168471853Y-83401426D01*
X168363680Y-83140273D01*
X168206637Y-82905241D01*
X168006759Y-82705363D01*
X167892000Y-82628684D01*
X167892000Y-81228043D01*
X168046759Y-81124637D01*
X168246637Y-80924759D01*
X168403680Y-80689727D01*
X168511853Y-80428574D01*
X168567000Y-80151335D01*
X168567000Y-79868665D01*
X168544590Y-79756000D01*
X172140541Y-79756000D01*
X172166317Y-80017706D01*
X172242653Y-80269354D01*
X172366618Y-80501275D01*
X172533445Y-80704555D01*
X172736725Y-80871382D01*
X172968646Y-80995347D01*
X173220294Y-81071683D01*
X173416421Y-81091000D01*
X173547579Y-81091000D01*
X173743706Y-81071683D01*
X173995354Y-80995347D01*
X174227275Y-80871382D01*
X174430555Y-80704555D01*
X174597382Y-80501275D01*
X174721347Y-80269354D01*
X174797683Y-80017706D01*
X174823459Y-79756000D01*
X174797683Y-79494294D01*
X174721347Y-79242646D01*
X174597382Y-79010725D01*
X174430555Y-78807445D01*
X174227275Y-78640618D01*
X173995354Y-78516653D01*
X173743706Y-78440317D01*
X173547579Y-78421000D01*
X173416421Y-78421000D01*
X173220294Y-78440317D01*
X172968646Y-78516653D01*
X172736725Y-78640618D01*
X172533445Y-78807445D01*
X172366618Y-79010725D01*
X172242653Y-79242646D01*
X172166317Y-79494294D01*
X172140541Y-79756000D01*
X168544590Y-79756000D01*
X168511853Y-79591426D01*
X168403680Y-79330273D01*
X168246637Y-79095241D01*
X168046759Y-78895363D01*
X167811727Y-78738320D01*
X167550574Y-78630147D01*
X167273335Y-78575000D01*
X166990665Y-78575000D01*
X166826690Y-78607617D01*
X166857226Y-78533898D01*
X166897000Y-78333939D01*
X166897000Y-78130061D01*
X166857226Y-77930102D01*
X166779205Y-77741744D01*
X166717462Y-77649339D01*
X166768114Y-77598688D01*
X166950665Y-77635000D01*
X167233335Y-77635000D01*
X167510574Y-77579853D01*
X167771727Y-77471680D01*
X168006759Y-77314637D01*
X168206637Y-77114759D01*
X168363680Y-76879727D01*
X168471853Y-76618574D01*
X168527000Y-76341335D01*
X168527000Y-76058665D01*
X168471853Y-75781426D01*
X168363680Y-75520273D01*
X168206637Y-75285241D01*
X168006759Y-75085363D01*
X167771727Y-74928320D01*
X167510574Y-74820147D01*
X167233335Y-74765000D01*
X166950665Y-74765000D01*
X166673426Y-74820147D01*
X166412273Y-74928320D01*
X166177241Y-75085363D01*
X165977363Y-75285241D01*
X165842000Y-75487827D01*
X165706637Y-75285241D01*
X165506759Y-75085363D01*
X165271727Y-74928320D01*
X165010574Y-74820147D01*
X164733335Y-74765000D01*
X164450665Y-74765000D01*
X164173426Y-74820147D01*
X163912273Y-74928320D01*
X163677241Y-75085363D01*
X163477363Y-75285241D01*
X163320320Y-75520273D01*
X163212147Y-75781426D01*
X163157000Y-76058665D01*
X163157000Y-76341335D01*
X163212147Y-76618574D01*
X163320320Y-76879727D01*
X163477363Y-77114759D01*
X163677241Y-77314637D01*
X163912273Y-77471680D01*
X164173426Y-77579853D01*
X164450665Y-77635000D01*
X164733335Y-77635000D01*
X165010574Y-77579853D01*
X165078623Y-77551666D01*
X165058063Y-77572226D01*
X164944795Y-77741744D01*
X164866774Y-77930102D01*
X164827000Y-78130061D01*
X164827000Y-78333939D01*
X164866774Y-78533898D01*
X164893718Y-78598946D01*
X164773335Y-78575000D01*
X164490665Y-78575000D01*
X164213426Y-78630147D01*
X163952273Y-78738320D01*
X163717241Y-78895363D01*
X163517363Y-79095241D01*
X163360320Y-79330273D01*
X163252147Y-79591426D01*
X163197000Y-79868665D01*
X163197000Y-80151335D01*
X163252147Y-80428574D01*
X163360320Y-80689727D01*
X163517363Y-80924759D01*
X163717241Y-81124637D01*
X163952273Y-81281680D01*
X164213426Y-81389853D01*
X164490665Y-81445000D01*
X164773335Y-81445000D01*
X165050574Y-81389853D01*
X165311727Y-81281680D01*
X165546759Y-81124637D01*
X165746637Y-80924759D01*
X165882000Y-80722173D01*
X166017363Y-80924759D01*
X166217241Y-81124637D01*
X166372000Y-81228044D01*
X166372000Y-82575229D01*
X166177241Y-82705363D01*
X165977363Y-82905241D01*
X165842000Y-83107827D01*
X165706637Y-82905241D01*
X165506759Y-82705363D01*
X165271727Y-82548320D01*
X165010574Y-82440147D01*
X164733335Y-82385000D01*
X164450665Y-82385000D01*
X164173426Y-82440147D01*
X163912273Y-82548320D01*
X163677241Y-82705363D01*
X163477363Y-82905241D01*
X163320320Y-83140273D01*
X163212147Y-83401426D01*
X163157000Y-83678665D01*
X163157000Y-83961335D01*
X163212147Y-84238574D01*
X163320320Y-84499727D01*
X163477363Y-84734759D01*
X163677241Y-84934637D01*
X163912273Y-85091680D01*
X164173426Y-85199853D01*
X164450665Y-85255000D01*
X164733335Y-85255000D01*
X165010574Y-85199853D01*
X165271727Y-85091680D01*
X165506759Y-84934637D01*
X165706637Y-84734759D01*
X165842000Y-84532173D01*
X165977363Y-84734759D01*
X166177241Y-84934637D01*
X166372001Y-85064771D01*
X166372001Y-86411956D01*
X166217241Y-86515363D01*
X166017363Y-86715241D01*
X165882000Y-86917827D01*
X165746637Y-86715241D01*
X165546759Y-86515363D01*
X165311727Y-86358320D01*
X165050574Y-86250147D01*
X164773335Y-86195000D01*
X164490665Y-86195000D01*
X164308114Y-86231312D01*
X162103137Y-84026335D01*
X162123459Y-83820000D01*
X162097683Y-83558294D01*
X162021347Y-83306646D01*
X161897382Y-83074725D01*
X161730555Y-82871445D01*
X161527275Y-82704618D01*
X161295354Y-82580653D01*
X161043706Y-82504317D01*
X160847579Y-82485000D01*
X160716421Y-82485000D01*
X160520294Y-82504317D01*
X160516999Y-82505317D01*
X160516999Y-81318442D01*
X160650514Y-81345000D01*
X160913486Y-81345000D01*
X161171405Y-81293696D01*
X161414359Y-81193061D01*
X161633013Y-81046962D01*
X161818962Y-80861013D01*
X161965061Y-80642359D01*
X162065696Y-80399405D01*
X162117000Y-80141486D01*
X162117000Y-79878514D01*
X162065696Y-79620595D01*
X161965061Y-79377641D01*
X161818962Y-79158987D01*
X161633013Y-78973038D01*
X161414359Y-78826939D01*
X161171405Y-78726304D01*
X160913486Y-78675000D01*
X160650514Y-78675000D01*
X160516999Y-78701558D01*
X160516999Y-77539802D01*
X160539251Y-77517550D01*
X160716421Y-77535000D01*
X160847579Y-77535000D01*
X161043706Y-77515683D01*
X161295354Y-77439347D01*
X161527275Y-77315382D01*
X161730555Y-77148555D01*
X161897382Y-76945275D01*
X162021347Y-76713354D01*
X162097683Y-76461706D01*
X162123459Y-76200000D01*
X162097683Y-75938294D01*
X162021347Y-75686646D01*
X161897382Y-75454725D01*
X161730555Y-75251445D01*
X161527275Y-75084618D01*
X161295354Y-74960653D01*
X161043706Y-74884317D01*
X160847579Y-74865000D01*
X160716421Y-74865000D01*
X160520294Y-74884317D01*
X160268646Y-74960653D01*
X160036725Y-75084618D01*
X159833445Y-75251445D01*
X159666618Y-75454725D01*
X159542653Y-75686646D01*
X159466317Y-75938294D01*
X159440541Y-76200000D01*
X159464450Y-76442749D01*
X159245997Y-76661202D01*
X159216999Y-76685000D01*
X159193201Y-76713998D01*
X159193200Y-76713999D01*
X159122025Y-76800725D01*
X159051453Y-76932755D01*
X159042074Y-76963676D01*
X159010728Y-77067014D01*
X159007997Y-77076016D01*
X158993323Y-77225001D01*
X158997000Y-77262333D01*
X158996999Y-84274678D01*
X158993323Y-84312001D01*
X158996999Y-84349323D01*
X158996999Y-84349333D01*
X159007996Y-84460986D01*
X159031416Y-84538192D01*
X159051453Y-84604247D01*
X159122025Y-84736277D01*
X159148515Y-84768555D01*
X159216998Y-84852002D01*
X159246002Y-84875805D01*
X160669789Y-86299593D01*
X160520294Y-86314317D01*
X160268646Y-86390653D01*
X160036725Y-86514618D01*
X159833445Y-86681445D01*
X159678702Y-86870000D01*
X158309800Y-86870000D01*
X156390415Y-84950615D01*
X156443664Y-84741269D01*
X155702000Y-83999605D01*
X155687858Y-84013748D01*
X155508253Y-83834143D01*
X155522395Y-83820000D01*
X155881605Y-83820000D01*
X156623269Y-84561664D01*
X156857037Y-84502203D01*
X156967934Y-84263758D01*
X157030183Y-84008260D01*
X157041390Y-83745527D01*
X157001125Y-83485656D01*
X156910935Y-83238634D01*
X156857037Y-83137797D01*
X156623269Y-83078336D01*
X155881605Y-83820000D01*
X155522395Y-83820000D01*
X154780731Y-83078336D01*
X154571385Y-83131585D01*
X154338531Y-82898731D01*
X154960336Y-82898731D01*
X155702000Y-83640395D01*
X156443664Y-82898731D01*
X156384203Y-82664963D01*
X156145758Y-82554066D01*
X155890260Y-82491817D01*
X155627527Y-82480610D01*
X155367656Y-82520875D01*
X155120634Y-82611065D01*
X155019797Y-82664963D01*
X154960336Y-82898731D01*
X154338531Y-82898731D01*
X152507001Y-81067202D01*
X152507001Y-80343329D01*
X154409284Y-80343329D01*
X154441953Y-80451044D01*
X154552208Y-80688392D01*
X154706649Y-80899670D01*
X154899340Y-81076759D01*
X155122877Y-81212853D01*
X155368670Y-81302722D01*
X155575000Y-81180201D01*
X155575000Y-80137000D01*
X155829000Y-80137000D01*
X155829000Y-81180201D01*
X156035330Y-81302722D01*
X156281123Y-81212853D01*
X156504660Y-81076759D01*
X156697351Y-80899670D01*
X156851792Y-80688392D01*
X156962047Y-80451044D01*
X156994716Y-80343329D01*
X156871374Y-80137000D01*
X155829000Y-80137000D01*
X155575000Y-80137000D01*
X154532626Y-80137000D01*
X154409284Y-80343329D01*
X152507001Y-80343329D01*
X152507001Y-79676671D01*
X154409284Y-79676671D01*
X154532626Y-79883000D01*
X155575000Y-79883000D01*
X155575000Y-78839799D01*
X155829000Y-78839799D01*
X155829000Y-79883000D01*
X156871374Y-79883000D01*
X156994716Y-79676671D01*
X156962047Y-79568956D01*
X156851792Y-79331608D01*
X156697351Y-79120330D01*
X156504660Y-78943241D01*
X156281123Y-78807147D01*
X156035330Y-78717278D01*
X155829000Y-78839799D01*
X155575000Y-78839799D01*
X155368670Y-78717278D01*
X155122877Y-78807147D01*
X154899340Y-78943241D01*
X154706649Y-79120330D01*
X154552208Y-79331608D01*
X154441953Y-79568956D01*
X154409284Y-79676671D01*
X152507001Y-79676671D01*
X152507001Y-79507322D01*
X152510677Y-79469999D01*
X152507001Y-79432676D01*
X152507001Y-79432666D01*
X152496004Y-79321013D01*
X152452547Y-79177752D01*
X152381975Y-79045723D01*
X152287002Y-78929998D01*
X152258004Y-78906200D01*
X150473073Y-77121269D01*
X154960336Y-77121269D01*
X155019797Y-77355037D01*
X155258242Y-77465934D01*
X155513740Y-77528183D01*
X155776473Y-77539390D01*
X156036344Y-77499125D01*
X156283366Y-77408935D01*
X156384203Y-77355037D01*
X156443664Y-77121269D01*
X155702000Y-76379605D01*
X154960336Y-77121269D01*
X150473073Y-77121269D01*
X149626277Y-76274473D01*
X154362610Y-76274473D01*
X154402875Y-76534344D01*
X154493065Y-76781366D01*
X154546963Y-76882203D01*
X154780731Y-76941664D01*
X155522395Y-76200000D01*
X155881605Y-76200000D01*
X156623269Y-76941664D01*
X156857037Y-76882203D01*
X156967934Y-76643758D01*
X157030183Y-76388260D01*
X157041390Y-76125527D01*
X157001125Y-75865656D01*
X156910935Y-75618634D01*
X156857037Y-75517797D01*
X156623269Y-75458336D01*
X155881605Y-76200000D01*
X155522395Y-76200000D01*
X154780731Y-75458336D01*
X154546963Y-75517797D01*
X154436066Y-75756242D01*
X154373817Y-76011740D01*
X154362610Y-76274473D01*
X149626277Y-76274473D01*
X148630535Y-75278731D01*
X154960336Y-75278731D01*
X155702000Y-76020395D01*
X156443664Y-75278731D01*
X156384203Y-75044963D01*
X156145758Y-74934066D01*
X155890260Y-74871817D01*
X155627527Y-74860610D01*
X155367656Y-74900875D01*
X155120634Y-74991065D01*
X155019797Y-75044963D01*
X154960336Y-75278731D01*
X148630535Y-75278731D01*
X147245807Y-73894004D01*
X147222004Y-73865000D01*
X147106279Y-73770027D01*
X146974250Y-73699455D01*
X146830989Y-73655998D01*
X146719336Y-73645001D01*
X146719325Y-73645001D01*
X146682003Y-73641325D01*
X146644681Y-73645001D01*
X145807680Y-73645001D01*
X145844168Y-73556912D01*
X145907000Y-73241033D01*
X145907000Y-72918967D01*
X149137000Y-72918967D01*
X149137000Y-73241033D01*
X149199832Y-73556912D01*
X149323082Y-73854463D01*
X149502013Y-74122252D01*
X149729748Y-74349987D01*
X149997537Y-74528918D01*
X150295088Y-74652168D01*
X150610967Y-74715000D01*
X150933033Y-74715000D01*
X151248912Y-74652168D01*
X151546463Y-74528918D01*
X151814252Y-74349987D01*
X152041987Y-74122252D01*
X152220918Y-73854463D01*
X152344168Y-73556912D01*
X152407000Y-73241033D01*
X152407000Y-72918967D01*
X152344168Y-72603088D01*
X152220918Y-72305537D01*
X152041987Y-72037748D01*
X151814252Y-71810013D01*
X151546463Y-71631082D01*
X151248912Y-71507832D01*
X150933033Y-71445000D01*
X150610967Y-71445000D01*
X150295088Y-71507832D01*
X149997537Y-71631082D01*
X149729748Y-71810013D01*
X149502013Y-72037748D01*
X149323082Y-72305537D01*
X149199832Y-72603088D01*
X149137000Y-72918967D01*
X145907000Y-72918967D01*
X145844168Y-72603088D01*
X145720918Y-72305537D01*
X145541987Y-72037748D01*
X145314252Y-71810013D01*
X145046463Y-71631082D01*
X144748912Y-71507832D01*
X144433033Y-71445000D01*
X144110967Y-71445000D01*
X143795088Y-71507832D01*
X143497537Y-71631082D01*
X143229748Y-71810013D01*
X143002013Y-72037748D01*
X142823082Y-72305537D01*
X142699832Y-72603088D01*
X142637000Y-72918967D01*
X142637000Y-73241033D01*
X142699832Y-73556912D01*
X142736320Y-73645001D01*
X142029804Y-73645001D01*
X136803769Y-68418967D01*
X142637000Y-68418967D01*
X142637000Y-68741033D01*
X142699832Y-69056912D01*
X142823082Y-69354463D01*
X143002013Y-69622252D01*
X143229748Y-69849987D01*
X143497537Y-70028918D01*
X143795088Y-70152168D01*
X144110967Y-70215000D01*
X144433033Y-70215000D01*
X144748912Y-70152168D01*
X145046463Y-70028918D01*
X145314252Y-69849987D01*
X145541987Y-69622252D01*
X145720918Y-69354463D01*
X145844168Y-69056912D01*
X145907000Y-68741033D01*
X145907000Y-68418967D01*
X149137000Y-68418967D01*
X149137000Y-68741033D01*
X149199832Y-69056912D01*
X149323082Y-69354463D01*
X149502013Y-69622252D01*
X149729748Y-69849987D01*
X149997537Y-70028918D01*
X150295088Y-70152168D01*
X150610967Y-70215000D01*
X150933033Y-70215000D01*
X151248912Y-70152168D01*
X151546463Y-70028918D01*
X151814252Y-69849987D01*
X151947695Y-69716544D01*
X156887000Y-69716544D01*
X156887000Y-69983456D01*
X156939072Y-70245239D01*
X157041215Y-70491833D01*
X157189503Y-70713762D01*
X157378238Y-70902497D01*
X157600167Y-71050785D01*
X157846761Y-71152928D01*
X158108544Y-71205000D01*
X158375456Y-71205000D01*
X158637239Y-71152928D01*
X158883833Y-71050785D01*
X159105762Y-70902497D01*
X159294497Y-70713762D01*
X159442785Y-70491833D01*
X159512000Y-70324734D01*
X159581215Y-70491833D01*
X159729503Y-70713762D01*
X159918238Y-70902497D01*
X160140167Y-71050785D01*
X160386761Y-71152928D01*
X160648544Y-71205000D01*
X160915456Y-71205000D01*
X161177239Y-71152928D01*
X161423833Y-71050785D01*
X161645762Y-70902497D01*
X161834497Y-70713762D01*
X161982785Y-70491833D01*
X162052000Y-70324734D01*
X162121215Y-70491833D01*
X162269503Y-70713762D01*
X162458238Y-70902497D01*
X162680167Y-71050785D01*
X162926761Y-71152928D01*
X163188544Y-71205000D01*
X163455456Y-71205000D01*
X163717239Y-71152928D01*
X163963833Y-71050785D01*
X164185762Y-70902497D01*
X164374497Y-70713762D01*
X164522785Y-70491833D01*
X164624928Y-70245239D01*
X164677000Y-69983456D01*
X164677000Y-69716544D01*
X164624928Y-69454761D01*
X164522785Y-69208167D01*
X164374497Y-68986238D01*
X164185762Y-68797503D01*
X163963833Y-68649215D01*
X163717239Y-68547072D01*
X163455456Y-68495000D01*
X163188544Y-68495000D01*
X162926761Y-68547072D01*
X162680167Y-68649215D01*
X162458238Y-68797503D01*
X162269503Y-68986238D01*
X162121215Y-69208167D01*
X162052000Y-69375266D01*
X161982785Y-69208167D01*
X161834497Y-68986238D01*
X161645762Y-68797503D01*
X161423833Y-68649215D01*
X161177239Y-68547072D01*
X160915456Y-68495000D01*
X160648544Y-68495000D01*
X160386761Y-68547072D01*
X160140167Y-68649215D01*
X159918238Y-68797503D01*
X159729503Y-68986238D01*
X159581215Y-69208167D01*
X159512000Y-69375266D01*
X159442785Y-69208167D01*
X159294497Y-68986238D01*
X159105762Y-68797503D01*
X158883833Y-68649215D01*
X158637239Y-68547072D01*
X158375456Y-68495000D01*
X158108544Y-68495000D01*
X157846761Y-68547072D01*
X157600167Y-68649215D01*
X157378238Y-68797503D01*
X157189503Y-68986238D01*
X157041215Y-69208167D01*
X156939072Y-69454761D01*
X156887000Y-69716544D01*
X151947695Y-69716544D01*
X152041987Y-69622252D01*
X152220918Y-69354463D01*
X152344168Y-69056912D01*
X152407000Y-68741033D01*
X152407000Y-68418967D01*
X152344168Y-68103088D01*
X152220918Y-67805537D01*
X152041987Y-67537748D01*
X151814252Y-67310013D01*
X151546463Y-67131082D01*
X151248912Y-67007832D01*
X150933033Y-66945000D01*
X150610967Y-66945000D01*
X150295088Y-67007832D01*
X149997537Y-67131082D01*
X149729748Y-67310013D01*
X149502013Y-67537748D01*
X149323082Y-67805537D01*
X149199832Y-68103088D01*
X149137000Y-68418967D01*
X145907000Y-68418967D01*
X145844168Y-68103088D01*
X145720918Y-67805537D01*
X145541987Y-67537748D01*
X145314252Y-67310013D01*
X145046463Y-67131082D01*
X144748912Y-67007832D01*
X144433033Y-66945000D01*
X144110967Y-66945000D01*
X143795088Y-67007832D01*
X143497537Y-67131082D01*
X143229748Y-67310013D01*
X143002013Y-67537748D01*
X142823082Y-67805537D01*
X142699832Y-68103088D01*
X142637000Y-68418967D01*
X136803769Y-68418967D01*
X136453804Y-68069003D01*
X136430001Y-68039999D01*
X136314276Y-67945026D01*
X136182247Y-67874454D01*
X136038986Y-67830997D01*
X135927333Y-67820000D01*
X135927322Y-67820000D01*
X135890000Y-67816324D01*
X135852678Y-67820000D01*
X128989322Y-67820000D01*
X128951999Y-67816324D01*
X128914676Y-67820000D01*
X128914667Y-67820000D01*
X128803014Y-67830997D01*
X128659753Y-67874454D01*
X128527724Y-67945026D01*
X128411999Y-68039999D01*
X128388201Y-68068997D01*
X126983376Y-69473823D01*
X126968912Y-69467832D01*
X126653033Y-69405000D01*
X126330967Y-69405000D01*
X126015088Y-69467832D01*
X125717537Y-69591082D01*
X125449748Y-69770013D01*
X125222013Y-69997748D01*
X125043082Y-70265537D01*
X124919832Y-70563088D01*
X124857000Y-70878967D01*
X111912000Y-70878967D01*
X111912000Y-64520817D01*
X113802000Y-64520817D01*
X113802000Y-65019183D01*
X113899226Y-65507974D01*
X114089943Y-65968405D01*
X114366820Y-66382781D01*
X114719219Y-66735180D01*
X115133595Y-67012057D01*
X115594026Y-67202774D01*
X116082817Y-67300000D01*
X116581183Y-67300000D01*
X117069974Y-67202774D01*
X117530405Y-67012057D01*
X117944781Y-66735180D01*
X118297180Y-66382781D01*
X118574057Y-65968405D01*
X118764774Y-65507974D01*
X118857859Y-65040000D01*
X124853928Y-65040000D01*
X124853928Y-67040000D01*
X124866188Y-67164482D01*
X124902498Y-67284180D01*
X124961463Y-67394494D01*
X125040815Y-67491185D01*
X125137506Y-67570537D01*
X125247820Y-67629502D01*
X125367518Y-67665812D01*
X125492000Y-67678072D01*
X127492000Y-67678072D01*
X127616482Y-67665812D01*
X127736180Y-67629502D01*
X127846494Y-67570537D01*
X127943185Y-67491185D01*
X128022537Y-67394494D01*
X128081502Y-67284180D01*
X128117812Y-67164482D01*
X128130072Y-67040000D01*
X128130072Y-65878967D01*
X128857000Y-65878967D01*
X128857000Y-66201033D01*
X128919832Y-66516912D01*
X129043082Y-66814463D01*
X129222013Y-67082252D01*
X129449748Y-67309987D01*
X129717537Y-67488918D01*
X130015088Y-67612168D01*
X130330967Y-67675000D01*
X130653033Y-67675000D01*
X130968912Y-67612168D01*
X131266463Y-67488918D01*
X131534252Y-67309987D01*
X131761987Y-67082252D01*
X131940918Y-66814463D01*
X132064168Y-66516912D01*
X132127000Y-66201033D01*
X132127000Y-65878967D01*
X132857000Y-65878967D01*
X132857000Y-66201033D01*
X132919832Y-66516912D01*
X133043082Y-66814463D01*
X133222013Y-67082252D01*
X133449748Y-67309987D01*
X133717537Y-67488918D01*
X134015088Y-67612168D01*
X134330967Y-67675000D01*
X134653033Y-67675000D01*
X134968912Y-67612168D01*
X135266463Y-67488918D01*
X135534252Y-67309987D01*
X135761987Y-67082252D01*
X135940918Y-66814463D01*
X136064168Y-66516912D01*
X136127000Y-66201033D01*
X136127000Y-65878967D01*
X136064168Y-65563088D01*
X135940918Y-65265537D01*
X135761987Y-64997748D01*
X135534252Y-64770013D01*
X135266463Y-64591082D01*
X135096829Y-64520817D01*
X176032000Y-64520817D01*
X176032000Y-65019183D01*
X176129226Y-65507974D01*
X176319943Y-65968405D01*
X176596820Y-66382781D01*
X176949219Y-66735180D01*
X177363595Y-67012057D01*
X177824026Y-67202774D01*
X178312817Y-67300000D01*
X178811183Y-67300000D01*
X179299974Y-67202774D01*
X179760405Y-67012057D01*
X180174781Y-66735180D01*
X180527180Y-66382781D01*
X180804057Y-65968405D01*
X180994774Y-65507974D01*
X181092000Y-65019183D01*
X181092000Y-64520817D01*
X180994774Y-64032026D01*
X180804057Y-63571595D01*
X180527180Y-63157219D01*
X180174781Y-62804820D01*
X179760405Y-62527943D01*
X179299974Y-62337226D01*
X178811183Y-62240000D01*
X178312817Y-62240000D01*
X177824026Y-62337226D01*
X177363595Y-62527943D01*
X176949219Y-62804820D01*
X176596820Y-63157219D01*
X176319943Y-63571595D01*
X176129226Y-64032026D01*
X176032000Y-64520817D01*
X135096829Y-64520817D01*
X134968912Y-64467832D01*
X134653033Y-64405000D01*
X134330967Y-64405000D01*
X134015088Y-64467832D01*
X133717537Y-64591082D01*
X133449748Y-64770013D01*
X133222013Y-64997748D01*
X133043082Y-65265537D01*
X132919832Y-65563088D01*
X132857000Y-65878967D01*
X132127000Y-65878967D01*
X132064168Y-65563088D01*
X131940918Y-65265537D01*
X131761987Y-64997748D01*
X131534252Y-64770013D01*
X131266463Y-64591082D01*
X130968912Y-64467832D01*
X130653033Y-64405000D01*
X130330967Y-64405000D01*
X130015088Y-64467832D01*
X129717537Y-64591082D01*
X129449748Y-64770013D01*
X129222013Y-64997748D01*
X129043082Y-65265537D01*
X128919832Y-65563088D01*
X128857000Y-65878967D01*
X128130072Y-65878967D01*
X128130072Y-65040000D01*
X128117812Y-64915518D01*
X128081502Y-64795820D01*
X128022537Y-64685506D01*
X127943185Y-64588815D01*
X127846494Y-64509463D01*
X127736180Y-64450498D01*
X127616482Y-64414188D01*
X127492000Y-64401928D01*
X125492000Y-64401928D01*
X125367518Y-64414188D01*
X125247820Y-64450498D01*
X125137506Y-64509463D01*
X125040815Y-64588815D01*
X124961463Y-64685506D01*
X124902498Y-64795820D01*
X124866188Y-64915518D01*
X124853928Y-65040000D01*
X118857859Y-65040000D01*
X118862000Y-65019183D01*
X118862000Y-64520817D01*
X118764774Y-64032026D01*
X118574057Y-63571595D01*
X118297180Y-63157219D01*
X117944781Y-62804820D01*
X117530405Y-62527943D01*
X117069974Y-62337226D01*
X116581183Y-62240000D01*
X116082817Y-62240000D01*
X115594026Y-62337226D01*
X115133595Y-62527943D01*
X114719219Y-62804820D01*
X114366820Y-63157219D01*
X114089943Y-63571595D01*
X113899226Y-64032026D01*
X113802000Y-64520817D01*
X111912000Y-64520817D01*
X111912000Y-63532279D01*
X111975096Y-62888778D01*
X112152606Y-62300836D01*
X112440937Y-61758564D01*
X112829094Y-61282636D01*
X113302314Y-60891155D01*
X113842552Y-60599049D01*
X114429244Y-60417437D01*
X115070879Y-60350000D01*
X179799721Y-60350000D01*
X180443222Y-60413096D01*
G36*
X144127764Y-106398691D02*
G01*
X144100057Y-106680000D01*
X144127764Y-106961309D01*
X144209818Y-107231808D01*
X144343068Y-107481101D01*
X144522392Y-107699608D01*
X144740899Y-107878932D01*
X144873858Y-107950000D01*
X144740899Y-108021068D01*
X144522392Y-108200392D01*
X144343068Y-108418899D01*
X144209818Y-108668192D01*
X144127764Y-108938691D01*
X144100057Y-109220000D01*
X144127764Y-109501309D01*
X144209818Y-109771808D01*
X144343068Y-110021101D01*
X144354483Y-110035010D01*
X139095523Y-110035010D01*
X139153037Y-109957420D01*
X139273246Y-109703087D01*
X139313904Y-109569039D01*
X139191915Y-109347000D01*
X138049000Y-109347000D01*
X138049000Y-109367000D01*
X137795000Y-109367000D01*
X137795000Y-109347000D01*
X136652085Y-109347000D01*
X136530096Y-109569039D01*
X136570754Y-109703087D01*
X136690963Y-109957420D01*
X136748477Y-110035010D01*
X134510421Y-110035010D01*
X136876894Y-107668538D01*
X136902392Y-107699608D01*
X137120899Y-107878932D01*
X137258682Y-107952579D01*
X137066869Y-108067615D01*
X136858481Y-108256586D01*
X136690963Y-108482580D01*
X136570754Y-108736913D01*
X136530096Y-108870961D01*
X136652085Y-109093000D01*
X137795000Y-109093000D01*
X137795000Y-109073000D01*
X138049000Y-109073000D01*
X138049000Y-109093000D01*
X139191915Y-109093000D01*
X139313904Y-108870961D01*
X139273246Y-108736913D01*
X139153037Y-108482580D01*
X138985519Y-108256586D01*
X138777131Y-108067615D01*
X138585318Y-107952579D01*
X138723101Y-107878932D01*
X138941608Y-107699608D01*
X139120932Y-107481101D01*
X139254182Y-107231808D01*
X139336236Y-106961309D01*
X139363943Y-106680000D01*
X139336236Y-106398691D01*
X139310849Y-106314999D01*
X144153151Y-106314999D01*
X144127764Y-106398691D01*
X144127764Y-106398691D01*
G37*
X144127764Y-106398691D02*
X144100057Y-106680000D01*
X144127764Y-106961309D01*
X144209818Y-107231808D01*
X144343068Y-107481101D01*
X144522392Y-107699608D01*
X144740899Y-107878932D01*
X144873858Y-107950000D01*
X144740899Y-108021068D01*
X144522392Y-108200392D01*
X144343068Y-108418899D01*
X144209818Y-108668192D01*
X144127764Y-108938691D01*
X144100057Y-109220000D01*
X144127764Y-109501309D01*
X144209818Y-109771808D01*
X144343068Y-110021101D01*
X144354483Y-110035010D01*
X139095523Y-110035010D01*
X139153037Y-109957420D01*
X139273246Y-109703087D01*
X139313904Y-109569039D01*
X139191915Y-109347000D01*
X138049000Y-109347000D01*
X138049000Y-109367000D01*
X137795000Y-109367000D01*
X137795000Y-109347000D01*
X136652085Y-109347000D01*
X136530096Y-109569039D01*
X136570754Y-109703087D01*
X136690963Y-109957420D01*
X136748477Y-110035010D01*
X134510421Y-110035010D01*
X136876894Y-107668538D01*
X136902392Y-107699608D01*
X137120899Y-107878932D01*
X137258682Y-107952579D01*
X137066869Y-108067615D01*
X136858481Y-108256586D01*
X136690963Y-108482580D01*
X136570754Y-108736913D01*
X136530096Y-108870961D01*
X136652085Y-109093000D01*
X137795000Y-109093000D01*
X137795000Y-109073000D01*
X138049000Y-109073000D01*
X138049000Y-109093000D01*
X139191915Y-109093000D01*
X139313904Y-108870961D01*
X139273246Y-108736913D01*
X139153037Y-108482580D01*
X138985519Y-108256586D01*
X138777131Y-108067615D01*
X138585318Y-107952579D01*
X138723101Y-107878932D01*
X138941608Y-107699608D01*
X139120932Y-107481101D01*
X139254182Y-107231808D01*
X139336236Y-106961309D01*
X139363943Y-106680000D01*
X139336236Y-106398691D01*
X139310849Y-106314999D01*
X144153151Y-106314999D01*
X144127764Y-106398691D01*
G36*
X164785748Y-95235858D02*
G01*
X164771605Y-95250000D01*
X164785748Y-95264143D01*
X164606143Y-95443748D01*
X164592000Y-95429605D01*
X163778903Y-96242702D01*
X163850486Y-96486671D01*
X163915002Y-96517198D01*
X162754281Y-97677920D01*
X162793226Y-97583898D01*
X162833000Y-97383939D01*
X162833000Y-97180061D01*
X162793226Y-96980102D01*
X162715205Y-96791744D01*
X162601937Y-96622226D01*
X162500756Y-96521045D01*
X163253392Y-95768409D01*
X163288397Y-95866292D01*
X163355329Y-95991514D01*
X163599298Y-96063097D01*
X164412395Y-95250000D01*
X164398253Y-95235858D01*
X164577858Y-95056253D01*
X164592000Y-95070395D01*
X164606143Y-95056253D01*
X164785748Y-95235858D01*
X164785748Y-95235858D01*
G37*
X164785748Y-95235858D02*
X164771605Y-95250000D01*
X164785748Y-95264143D01*
X164606143Y-95443748D01*
X164592000Y-95429605D01*
X163778903Y-96242702D01*
X163850486Y-96486671D01*
X163915002Y-96517198D01*
X162754281Y-97677920D01*
X162793226Y-97583898D01*
X162833000Y-97383939D01*
X162833000Y-97180061D01*
X162793226Y-96980102D01*
X162715205Y-96791744D01*
X162601937Y-96622226D01*
X162500756Y-96521045D01*
X163253392Y-95768409D01*
X163288397Y-95866292D01*
X163355329Y-95991514D01*
X163599298Y-96063097D01*
X164412395Y-95250000D01*
X164398253Y-95235858D01*
X164577858Y-95056253D01*
X164592000Y-95070395D01*
X164606143Y-95056253D01*
X164785748Y-95235858D01*
G36*
X155585196Y-90105000D02*
G01*
X155574998Y-90105000D01*
X155574998Y-90269798D01*
X155368670Y-90147278D01*
X155122877Y-90237147D01*
X154899340Y-90373241D01*
X154706649Y-90550330D01*
X154552208Y-90761608D01*
X154441953Y-90998956D01*
X154409284Y-91106671D01*
X154532626Y-91313000D01*
X155575000Y-91313000D01*
X155575000Y-91293000D01*
X155829000Y-91293000D01*
X155829000Y-91313000D01*
X155849000Y-91313000D01*
X155849000Y-91567000D01*
X155829000Y-91567000D01*
X155829000Y-92610201D01*
X156035330Y-92732722D01*
X156281123Y-92642853D01*
X156504660Y-92506759D01*
X156697351Y-92329670D01*
X156851792Y-92118392D01*
X156962047Y-91881044D01*
X156994716Y-91773329D01*
X156871375Y-91567002D01*
X157037000Y-91567002D01*
X157037000Y-91556804D01*
X157431199Y-91951003D01*
X157454997Y-91980001D01*
X157570722Y-92074974D01*
X157702751Y-92145546D01*
X157846012Y-92189003D01*
X157957665Y-92200000D01*
X157957674Y-92200000D01*
X157994997Y-92203676D01*
X158032320Y-92200000D01*
X159684225Y-92200000D01*
X159745038Y-92291013D01*
X159930987Y-92476962D01*
X160149641Y-92623061D01*
X160392595Y-92723696D01*
X160650514Y-92775000D01*
X160913486Y-92775000D01*
X161047001Y-92748442D01*
X161047001Y-92920248D01*
X160270998Y-93696252D01*
X160242000Y-93720050D01*
X160218202Y-93749048D01*
X160218201Y-93749049D01*
X160147026Y-93835775D01*
X160076454Y-93967805D01*
X160046383Y-94066939D01*
X160037265Y-94097000D01*
X160032998Y-94111066D01*
X160030147Y-94140017D01*
X159833445Y-94301445D01*
X159666618Y-94504725D01*
X159542653Y-94736646D01*
X159466317Y-94988294D01*
X159440541Y-95250000D01*
X159466317Y-95511706D01*
X159497651Y-95615001D01*
X156990550Y-95615001D01*
X157037000Y-95381486D01*
X157037000Y-95118514D01*
X156985696Y-94860595D01*
X156885061Y-94617641D01*
X156738962Y-94398987D01*
X156553013Y-94213038D01*
X156334359Y-94066939D01*
X156091405Y-93966304D01*
X155833486Y-93915000D01*
X155570514Y-93915000D01*
X155312595Y-93966304D01*
X155069641Y-94066939D01*
X154850987Y-94213038D01*
X154665038Y-94398987D01*
X154518939Y-94617641D01*
X154418304Y-94860595D01*
X154367000Y-95118514D01*
X154367000Y-95381486D01*
X154413450Y-95615001D01*
X152010849Y-95615001D01*
X152036236Y-95531309D01*
X152063943Y-95250000D01*
X152036236Y-94968691D01*
X151954182Y-94698192D01*
X151820932Y-94448899D01*
X151641608Y-94230392D01*
X151423101Y-94051068D01*
X151290142Y-93980000D01*
X151423101Y-93908932D01*
X151641608Y-93729608D01*
X151820932Y-93511101D01*
X151954182Y-93261808D01*
X152036236Y-92991309D01*
X152063943Y-92710000D01*
X152036236Y-92428691D01*
X151954182Y-92158192D01*
X151820932Y-91908899D01*
X151709673Y-91773329D01*
X154409284Y-91773329D01*
X154441953Y-91881044D01*
X154552208Y-92118392D01*
X154706649Y-92329670D01*
X154899340Y-92506759D01*
X155122877Y-92642853D01*
X155368670Y-92732722D01*
X155575000Y-92610201D01*
X155575000Y-91567000D01*
X154532626Y-91567000D01*
X154409284Y-91773329D01*
X151709673Y-91773329D01*
X151641608Y-91690392D01*
X151423101Y-91511068D01*
X151290142Y-91440000D01*
X151423101Y-91368932D01*
X151641608Y-91189608D01*
X151820932Y-90971101D01*
X151954182Y-90721808D01*
X152036236Y-90451309D01*
X152063943Y-90170000D01*
X152036236Y-89888691D01*
X151954182Y-89618192D01*
X151820932Y-89368899D01*
X151641608Y-89150392D01*
X151423101Y-88971068D01*
X151290142Y-88900000D01*
X151423101Y-88828932D01*
X151641608Y-88649608D01*
X151820932Y-88431101D01*
X151954182Y-88181808D01*
X152036236Y-87911309D01*
X152063943Y-87630000D01*
X152036236Y-87348691D01*
X151954182Y-87078192D01*
X151820932Y-86828899D01*
X151641608Y-86610392D01*
X151423101Y-86431068D01*
X151290142Y-86360000D01*
X151423101Y-86288932D01*
X151613155Y-86132958D01*
X155585196Y-90105000D01*
X155585196Y-90105000D01*
G37*
X155585196Y-90105000D02*
X155574998Y-90105000D01*
X155574998Y-90269798D01*
X155368670Y-90147278D01*
X155122877Y-90237147D01*
X154899340Y-90373241D01*
X154706649Y-90550330D01*
X154552208Y-90761608D01*
X154441953Y-90998956D01*
X154409284Y-91106671D01*
X154532626Y-91313000D01*
X155575000Y-91313000D01*
X155575000Y-91293000D01*
X155829000Y-91293000D01*
X155829000Y-91313000D01*
X155849000Y-91313000D01*
X155849000Y-91567000D01*
X155829000Y-91567000D01*
X155829000Y-92610201D01*
X156035330Y-92732722D01*
X156281123Y-92642853D01*
X156504660Y-92506759D01*
X156697351Y-92329670D01*
X156851792Y-92118392D01*
X156962047Y-91881044D01*
X156994716Y-91773329D01*
X156871375Y-91567002D01*
X157037000Y-91567002D01*
X157037000Y-91556804D01*
X157431199Y-91951003D01*
X157454997Y-91980001D01*
X157570722Y-92074974D01*
X157702751Y-92145546D01*
X157846012Y-92189003D01*
X157957665Y-92200000D01*
X157957674Y-92200000D01*
X157994997Y-92203676D01*
X158032320Y-92200000D01*
X159684225Y-92200000D01*
X159745038Y-92291013D01*
X159930987Y-92476962D01*
X160149641Y-92623061D01*
X160392595Y-92723696D01*
X160650514Y-92775000D01*
X160913486Y-92775000D01*
X161047001Y-92748442D01*
X161047001Y-92920248D01*
X160270998Y-93696252D01*
X160242000Y-93720050D01*
X160218202Y-93749048D01*
X160218201Y-93749049D01*
X160147026Y-93835775D01*
X160076454Y-93967805D01*
X160046383Y-94066939D01*
X160037265Y-94097000D01*
X160032998Y-94111066D01*
X160030147Y-94140017D01*
X159833445Y-94301445D01*
X159666618Y-94504725D01*
X159542653Y-94736646D01*
X159466317Y-94988294D01*
X159440541Y-95250000D01*
X159466317Y-95511706D01*
X159497651Y-95615001D01*
X156990550Y-95615001D01*
X157037000Y-95381486D01*
X157037000Y-95118514D01*
X156985696Y-94860595D01*
X156885061Y-94617641D01*
X156738962Y-94398987D01*
X156553013Y-94213038D01*
X156334359Y-94066939D01*
X156091405Y-93966304D01*
X155833486Y-93915000D01*
X155570514Y-93915000D01*
X155312595Y-93966304D01*
X155069641Y-94066939D01*
X154850987Y-94213038D01*
X154665038Y-94398987D01*
X154518939Y-94617641D01*
X154418304Y-94860595D01*
X154367000Y-95118514D01*
X154367000Y-95381486D01*
X154413450Y-95615001D01*
X152010849Y-95615001D01*
X152036236Y-95531309D01*
X152063943Y-95250000D01*
X152036236Y-94968691D01*
X151954182Y-94698192D01*
X151820932Y-94448899D01*
X151641608Y-94230392D01*
X151423101Y-94051068D01*
X151290142Y-93980000D01*
X151423101Y-93908932D01*
X151641608Y-93729608D01*
X151820932Y-93511101D01*
X151954182Y-93261808D01*
X152036236Y-92991309D01*
X152063943Y-92710000D01*
X152036236Y-92428691D01*
X151954182Y-92158192D01*
X151820932Y-91908899D01*
X151709673Y-91773329D01*
X154409284Y-91773329D01*
X154441953Y-91881044D01*
X154552208Y-92118392D01*
X154706649Y-92329670D01*
X154899340Y-92506759D01*
X155122877Y-92642853D01*
X155368670Y-92732722D01*
X155575000Y-92610201D01*
X155575000Y-91567000D01*
X154532626Y-91567000D01*
X154409284Y-91773329D01*
X151709673Y-91773329D01*
X151641608Y-91690392D01*
X151423101Y-91511068D01*
X151290142Y-91440000D01*
X151423101Y-91368932D01*
X151641608Y-91189608D01*
X151820932Y-90971101D01*
X151954182Y-90721808D01*
X152036236Y-90451309D01*
X152063943Y-90170000D01*
X152036236Y-89888691D01*
X151954182Y-89618192D01*
X151820932Y-89368899D01*
X151641608Y-89150392D01*
X151423101Y-88971068D01*
X151290142Y-88900000D01*
X151423101Y-88828932D01*
X151641608Y-88649608D01*
X151820932Y-88431101D01*
X151954182Y-88181808D01*
X152036236Y-87911309D01*
X152063943Y-87630000D01*
X152036236Y-87348691D01*
X151954182Y-87078192D01*
X151820932Y-86828899D01*
X151641608Y-86610392D01*
X151423101Y-86431068D01*
X151290142Y-86360000D01*
X151423101Y-86288932D01*
X151613155Y-86132958D01*
X155585196Y-90105000D01*
G36*
X163233312Y-87306114D02*
G01*
X163197000Y-87488665D01*
X163197000Y-87771335D01*
X163252147Y-88048574D01*
X163360320Y-88309727D01*
X163517363Y-88544759D01*
X163717241Y-88744637D01*
X163952273Y-88901680D01*
X164213426Y-89009853D01*
X164490665Y-89065000D01*
X164773335Y-89065000D01*
X165050574Y-89009853D01*
X165311727Y-88901680D01*
X165546759Y-88744637D01*
X165746637Y-88544759D01*
X165882000Y-88342173D01*
X166017363Y-88544759D01*
X166217241Y-88744637D01*
X166452273Y-88901680D01*
X166713426Y-89009853D01*
X166770910Y-89021287D01*
X165455997Y-90336200D01*
X165426999Y-90359998D01*
X165403201Y-90388996D01*
X165403200Y-90388997D01*
X165391996Y-90402648D01*
X165333514Y-90203329D01*
X165078004Y-90082429D01*
X164803816Y-90013700D01*
X164521488Y-89999783D01*
X164241870Y-90041213D01*
X163975708Y-90136397D01*
X163850486Y-90203329D01*
X163778903Y-90447298D01*
X164592000Y-91260395D01*
X164606143Y-91246253D01*
X164785748Y-91425858D01*
X164771605Y-91440000D01*
X164785748Y-91454143D01*
X164606143Y-91633748D01*
X164592000Y-91619605D01*
X163778903Y-92432702D01*
X163850486Y-92676671D01*
X164084703Y-92787496D01*
X162047928Y-94824271D01*
X162021347Y-94736646D01*
X161897382Y-94504725D01*
X161768803Y-94348050D01*
X162318005Y-93798848D01*
X162347002Y-93775051D01*
X162441975Y-93659326D01*
X162512547Y-93527297D01*
X162556004Y-93384036D01*
X162567001Y-93272383D01*
X162567001Y-93272374D01*
X162570677Y-93235051D01*
X162567001Y-93197728D01*
X162567001Y-91510512D01*
X163151783Y-91510512D01*
X163193213Y-91790130D01*
X163288397Y-92056292D01*
X163355329Y-92181514D01*
X163599298Y-92253097D01*
X164412395Y-91440000D01*
X163599298Y-90626903D01*
X163355329Y-90698486D01*
X163234429Y-90953996D01*
X163165700Y-91228184D01*
X163151783Y-91510512D01*
X162567001Y-91510512D01*
X162567001Y-86639803D01*
X163233312Y-87306114D01*
X163233312Y-87306114D01*
G37*
X163233312Y-87306114D02*
X163197000Y-87488665D01*
X163197000Y-87771335D01*
X163252147Y-88048574D01*
X163360320Y-88309727D01*
X163517363Y-88544759D01*
X163717241Y-88744637D01*
X163952273Y-88901680D01*
X164213426Y-89009853D01*
X164490665Y-89065000D01*
X164773335Y-89065000D01*
X165050574Y-89009853D01*
X165311727Y-88901680D01*
X165546759Y-88744637D01*
X165746637Y-88544759D01*
X165882000Y-88342173D01*
X166017363Y-88544759D01*
X166217241Y-88744637D01*
X166452273Y-88901680D01*
X166713426Y-89009853D01*
X166770910Y-89021287D01*
X165455997Y-90336200D01*
X165426999Y-90359998D01*
X165403201Y-90388996D01*
X165403200Y-90388997D01*
X165391996Y-90402648D01*
X165333514Y-90203329D01*
X165078004Y-90082429D01*
X164803816Y-90013700D01*
X164521488Y-89999783D01*
X164241870Y-90041213D01*
X163975708Y-90136397D01*
X163850486Y-90203329D01*
X163778903Y-90447298D01*
X164592000Y-91260395D01*
X164606143Y-91246253D01*
X164785748Y-91425858D01*
X164771605Y-91440000D01*
X164785748Y-91454143D01*
X164606143Y-91633748D01*
X164592000Y-91619605D01*
X163778903Y-92432702D01*
X163850486Y-92676671D01*
X164084703Y-92787496D01*
X162047928Y-94824271D01*
X162021347Y-94736646D01*
X161897382Y-94504725D01*
X161768803Y-94348050D01*
X162318005Y-93798848D01*
X162347002Y-93775051D01*
X162441975Y-93659326D01*
X162512547Y-93527297D01*
X162556004Y-93384036D01*
X162567001Y-93272383D01*
X162567001Y-93272374D01*
X162570677Y-93235051D01*
X162567001Y-93197728D01*
X162567001Y-91510512D01*
X163151783Y-91510512D01*
X163193213Y-91790130D01*
X163288397Y-92056292D01*
X163355329Y-92181514D01*
X163599298Y-92253097D01*
X164412395Y-91440000D01*
X163599298Y-90626903D01*
X163355329Y-90698486D01*
X163234429Y-90953996D01*
X163165700Y-91228184D01*
X163151783Y-91510512D01*
X162567001Y-91510512D01*
X162567001Y-86639803D01*
X163233312Y-87306114D01*
G36*
X155587074Y-86296878D02*
G01*
X155367656Y-86330875D01*
X155120634Y-86421065D01*
X155019797Y-86474963D01*
X154960336Y-86708731D01*
X155702000Y-87450395D01*
X155716143Y-87436253D01*
X155895748Y-87615858D01*
X155881605Y-87630000D01*
X156623269Y-88371664D01*
X156857037Y-88312203D01*
X156967934Y-88073758D01*
X157030183Y-87818260D01*
X157033385Y-87743189D01*
X157431199Y-88141003D01*
X157454997Y-88170001D01*
X157483995Y-88193799D01*
X157570721Y-88264974D01*
X157659080Y-88312203D01*
X157702751Y-88335546D01*
X157846012Y-88379003D01*
X157957665Y-88390000D01*
X157957674Y-88390000D01*
X157994997Y-88393676D01*
X158032320Y-88390000D01*
X159678702Y-88390000D01*
X159833445Y-88578555D01*
X160036725Y-88745382D01*
X160268646Y-88869347D01*
X160520294Y-88945683D01*
X160716421Y-88965000D01*
X160847579Y-88965000D01*
X161043706Y-88945683D01*
X161047002Y-88944683D01*
X161047001Y-90131558D01*
X160913486Y-90105000D01*
X160650514Y-90105000D01*
X160392595Y-90156304D01*
X160149641Y-90256939D01*
X159930987Y-90403038D01*
X159745038Y-90588987D01*
X159684225Y-90680000D01*
X158309800Y-90680000D01*
X156390415Y-88760615D01*
X156443664Y-88551269D01*
X155702000Y-87809605D01*
X155687858Y-87823748D01*
X155508253Y-87644143D01*
X155522395Y-87630000D01*
X154780731Y-86888336D01*
X154571385Y-86941585D01*
X152542999Y-84913200D01*
X152542999Y-84002332D01*
X152546676Y-83964999D01*
X152532002Y-83816013D01*
X152488545Y-83672752D01*
X152417973Y-83540723D01*
X152323000Y-83424998D01*
X152207275Y-83330025D01*
X152075246Y-83259453D01*
X151931985Y-83215996D01*
X151895090Y-83212362D01*
X151954182Y-83101808D01*
X152036236Y-82831309D01*
X152043881Y-82753685D01*
X155587074Y-86296878D01*
X155587074Y-86296878D01*
G37*
X155587074Y-86296878D02*
X155367656Y-86330875D01*
X155120634Y-86421065D01*
X155019797Y-86474963D01*
X154960336Y-86708731D01*
X155702000Y-87450395D01*
X155716143Y-87436253D01*
X155895748Y-87615858D01*
X155881605Y-87630000D01*
X156623269Y-88371664D01*
X156857037Y-88312203D01*
X156967934Y-88073758D01*
X157030183Y-87818260D01*
X157033385Y-87743189D01*
X157431199Y-88141003D01*
X157454997Y-88170001D01*
X157483995Y-88193799D01*
X157570721Y-88264974D01*
X157659080Y-88312203D01*
X157702751Y-88335546D01*
X157846012Y-88379003D01*
X157957665Y-88390000D01*
X157957674Y-88390000D01*
X157994997Y-88393676D01*
X158032320Y-88390000D01*
X159678702Y-88390000D01*
X159833445Y-88578555D01*
X160036725Y-88745382D01*
X160268646Y-88869347D01*
X160520294Y-88945683D01*
X160716421Y-88965000D01*
X160847579Y-88965000D01*
X161043706Y-88945683D01*
X161047002Y-88944683D01*
X161047001Y-90131558D01*
X160913486Y-90105000D01*
X160650514Y-90105000D01*
X160392595Y-90156304D01*
X160149641Y-90256939D01*
X159930987Y-90403038D01*
X159745038Y-90588987D01*
X159684225Y-90680000D01*
X158309800Y-90680000D01*
X156390415Y-88760615D01*
X156443664Y-88551269D01*
X155702000Y-87809605D01*
X155687858Y-87823748D01*
X155508253Y-87644143D01*
X155522395Y-87630000D01*
X154780731Y-86888336D01*
X154571385Y-86941585D01*
X152542999Y-84913200D01*
X152542999Y-84002332D01*
X152546676Y-83964999D01*
X152532002Y-83816013D01*
X152488545Y-83672752D01*
X152417973Y-83540723D01*
X152323000Y-83424998D01*
X152207275Y-83330025D01*
X152075246Y-83259453D01*
X151931985Y-83215996D01*
X151895090Y-83212362D01*
X151954182Y-83101808D01*
X152036236Y-82831309D01*
X152043881Y-82753685D01*
X155587074Y-86296878D01*
M02*
