G04 #@! TF.GenerationSoftware,KiCad,Pcbnew,(5.1.2-1)-1*
G04 #@! TF.CreationDate,2019-08-19T15:38:30+10:00*
G04 #@! TF.ProjectId,Clock,436c6f63-6b2e-46b6-9963-61645f706362,v01*
G04 #@! TF.SameCoordinates,Original*
G04 #@! TF.FileFunction,Copper,L1,Top*
G04 #@! TF.FilePolarity,Positive*
%FSLAX46Y46*%
G04 Gerber Fmt 4.6, Leading zero omitted, Abs format (unit mm)*
G04 Created by KiCad (PCBNEW (5.1.2-1)-1) date 2019-08-19 15:38:30*
%MOMM*%
%LPD*%
G04 APERTURE LIST*
%ADD10C,3.790000*%
%ADD11C,1.600000*%
%ADD12R,1.800000X1.800000*%
%ADD13C,1.800000*%
%ADD14R,1.500000X1.500000*%
%ADD15C,0.100000*%
%ADD16C,1.200000*%
%ADD17O,1.200000X1.750000*%
%ADD18O,1.400000X1.400000*%
%ADD19C,1.400000*%
%ADD20C,1.440000*%
%ADD21C,2.000000*%
%ADD22R,2.000000X2.000000*%
%ADD23O,1.600000X1.600000*%
%ADD24R,1.600000X1.600000*%
%ADD25C,0.800000*%
%ADD26C,0.250000*%
%ADD27C,0.254000*%
G04 APERTURE END LIST*
D10*
X116332000Y-118110000D03*
X116332000Y-64770000D03*
X178562000Y-64770000D03*
X178562000Y-118110000D03*
D11*
X164592000Y-76200000D03*
X167092000Y-76200000D03*
X167132000Y-80010000D03*
X164632000Y-80010000D03*
X164592000Y-83820000D03*
X167092000Y-83820000D03*
X167132000Y-87630000D03*
X164632000Y-87630000D03*
X164592000Y-91440000D03*
X167092000Y-91440000D03*
X167092000Y-95250000D03*
X164592000Y-95250000D03*
X167172000Y-71120000D03*
X169672000Y-71120000D03*
D12*
X177292000Y-103886000D03*
D13*
X179832000Y-103886000D03*
D12*
X177292000Y-77216000D03*
D13*
X179832000Y-77216000D03*
X179832000Y-91186000D03*
D12*
X177292000Y-91186000D03*
D14*
X144272000Y-118110000D03*
D15*
G36*
X154806505Y-115966204D02*
G01*
X154830773Y-115969804D01*
X154854572Y-115975765D01*
X154877671Y-115984030D01*
X154899850Y-115994520D01*
X154920893Y-116007132D01*
X154940599Y-116021747D01*
X154958777Y-116038223D01*
X154975253Y-116056401D01*
X154989868Y-116076107D01*
X155002480Y-116097150D01*
X155012970Y-116119329D01*
X155021235Y-116142428D01*
X155027196Y-116166227D01*
X155030796Y-116190495D01*
X155032000Y-116214999D01*
X155032000Y-117465001D01*
X155030796Y-117489505D01*
X155027196Y-117513773D01*
X155021235Y-117537572D01*
X155012970Y-117560671D01*
X155002480Y-117582850D01*
X154989868Y-117603893D01*
X154975253Y-117623599D01*
X154958777Y-117641777D01*
X154940599Y-117658253D01*
X154920893Y-117672868D01*
X154899850Y-117685480D01*
X154877671Y-117695970D01*
X154854572Y-117704235D01*
X154830773Y-117710196D01*
X154806505Y-117713796D01*
X154782001Y-117715000D01*
X154081999Y-117715000D01*
X154057495Y-117713796D01*
X154033227Y-117710196D01*
X154009428Y-117704235D01*
X153986329Y-117695970D01*
X153964150Y-117685480D01*
X153943107Y-117672868D01*
X153923401Y-117658253D01*
X153905223Y-117641777D01*
X153888747Y-117623599D01*
X153874132Y-117603893D01*
X153861520Y-117582850D01*
X153851030Y-117560671D01*
X153842765Y-117537572D01*
X153836804Y-117513773D01*
X153833204Y-117489505D01*
X153832000Y-117465001D01*
X153832000Y-116214999D01*
X153833204Y-116190495D01*
X153836804Y-116166227D01*
X153842765Y-116142428D01*
X153851030Y-116119329D01*
X153861520Y-116097150D01*
X153874132Y-116076107D01*
X153888747Y-116056401D01*
X153905223Y-116038223D01*
X153923401Y-116021747D01*
X153943107Y-116007132D01*
X153964150Y-115994520D01*
X153986329Y-115984030D01*
X154009428Y-115975765D01*
X154033227Y-115969804D01*
X154057495Y-115966204D01*
X154081999Y-115965000D01*
X154782001Y-115965000D01*
X154806505Y-115966204D01*
X154806505Y-115966204D01*
G37*
D16*
X154432000Y-116840000D03*
D17*
X156432000Y-116840000D03*
D15*
G36*
X164966505Y-115966204D02*
G01*
X164990773Y-115969804D01*
X165014572Y-115975765D01*
X165037671Y-115984030D01*
X165059850Y-115994520D01*
X165080893Y-116007132D01*
X165100599Y-116021747D01*
X165118777Y-116038223D01*
X165135253Y-116056401D01*
X165149868Y-116076107D01*
X165162480Y-116097150D01*
X165172970Y-116119329D01*
X165181235Y-116142428D01*
X165187196Y-116166227D01*
X165190796Y-116190495D01*
X165192000Y-116214999D01*
X165192000Y-117465001D01*
X165190796Y-117489505D01*
X165187196Y-117513773D01*
X165181235Y-117537572D01*
X165172970Y-117560671D01*
X165162480Y-117582850D01*
X165149868Y-117603893D01*
X165135253Y-117623599D01*
X165118777Y-117641777D01*
X165100599Y-117658253D01*
X165080893Y-117672868D01*
X165059850Y-117685480D01*
X165037671Y-117695970D01*
X165014572Y-117704235D01*
X164990773Y-117710196D01*
X164966505Y-117713796D01*
X164942001Y-117715000D01*
X164241999Y-117715000D01*
X164217495Y-117713796D01*
X164193227Y-117710196D01*
X164169428Y-117704235D01*
X164146329Y-117695970D01*
X164124150Y-117685480D01*
X164103107Y-117672868D01*
X164083401Y-117658253D01*
X164065223Y-117641777D01*
X164048747Y-117623599D01*
X164034132Y-117603893D01*
X164021520Y-117582850D01*
X164011030Y-117560671D01*
X164002765Y-117537572D01*
X163996804Y-117513773D01*
X163993204Y-117489505D01*
X163992000Y-117465001D01*
X163992000Y-116214999D01*
X163993204Y-116190495D01*
X163996804Y-116166227D01*
X164002765Y-116142428D01*
X164011030Y-116119329D01*
X164021520Y-116097150D01*
X164034132Y-116076107D01*
X164048747Y-116056401D01*
X164065223Y-116038223D01*
X164083401Y-116021747D01*
X164103107Y-116007132D01*
X164124150Y-115994520D01*
X164146329Y-115984030D01*
X164169428Y-115975765D01*
X164193227Y-115969804D01*
X164217495Y-115966204D01*
X164241999Y-115965000D01*
X164942001Y-115965000D01*
X164966505Y-115966204D01*
X164966505Y-115966204D01*
G37*
D16*
X164592000Y-116840000D03*
D17*
X166592000Y-116840000D03*
X168592000Y-116840000D03*
D18*
X173482000Y-101346000D03*
D19*
X173482000Y-106426000D03*
D18*
X160782000Y-76200000D03*
D19*
X155702000Y-76200000D03*
X155702000Y-95250000D03*
D18*
X160782000Y-95250000D03*
X173482000Y-79756000D03*
D19*
X173482000Y-74676000D03*
X160782000Y-80010000D03*
D18*
X155702000Y-80010000D03*
D19*
X155702000Y-83820000D03*
D18*
X160782000Y-83820000D03*
D19*
X173482000Y-93726000D03*
D18*
X173482000Y-88646000D03*
X160782000Y-87630000D03*
D19*
X155702000Y-87630000D03*
X160782000Y-91440000D03*
D18*
X155702000Y-91440000D03*
D20*
X163322000Y-69850000D03*
X160782000Y-69850000D03*
X158242000Y-69850000D03*
D21*
X144272000Y-73080000D03*
X144272000Y-68580000D03*
X150772000Y-73080000D03*
X150772000Y-68580000D03*
D22*
X126492000Y-66040000D03*
D21*
X130492000Y-66040000D03*
X134492000Y-66040000D03*
X126492000Y-71040000D03*
X130492000Y-71040000D03*
X134492000Y-71040000D03*
D14*
X123952000Y-118110000D03*
X129032000Y-118110000D03*
X134112000Y-118110000D03*
X139192000Y-118110000D03*
D23*
X150622000Y-80010000D03*
X143002000Y-95250000D03*
X150622000Y-82550000D03*
X143002000Y-92710000D03*
X150622000Y-85090000D03*
X143002000Y-90170000D03*
X150622000Y-87630000D03*
X143002000Y-87630000D03*
X150622000Y-90170000D03*
X143002000Y-85090000D03*
X150622000Y-92710000D03*
X143002000Y-82550000D03*
X150622000Y-95250000D03*
D24*
X143002000Y-80010000D03*
X155702000Y-101600000D03*
D23*
X163322000Y-109220000D03*
X155702000Y-104140000D03*
X163322000Y-106680000D03*
X155702000Y-106680000D03*
X163322000Y-104140000D03*
X155702000Y-109220000D03*
X163322000Y-101600000D03*
D24*
X130302000Y-80010000D03*
D23*
X137922000Y-95250000D03*
X130302000Y-82550000D03*
X137922000Y-92710000D03*
X130302000Y-85090000D03*
X137922000Y-90170000D03*
X130302000Y-87630000D03*
X137922000Y-87630000D03*
X130302000Y-90170000D03*
X137922000Y-85090000D03*
X130302000Y-92710000D03*
X137922000Y-82550000D03*
X130302000Y-95250000D03*
X137922000Y-80010000D03*
D24*
X116332000Y-80010000D03*
D23*
X123952000Y-95250000D03*
X116332000Y-82550000D03*
X123952000Y-92710000D03*
X116332000Y-85090000D03*
X123952000Y-90170000D03*
X116332000Y-87630000D03*
X123952000Y-87630000D03*
X116332000Y-90170000D03*
X123952000Y-85090000D03*
X116332000Y-92710000D03*
X123952000Y-82550000D03*
X116332000Y-95250000D03*
X123952000Y-80010000D03*
D24*
X137922000Y-101600000D03*
D23*
X145542000Y-109220000D03*
X137922000Y-104140000D03*
X145542000Y-106680000D03*
X137922000Y-106680000D03*
X145542000Y-104140000D03*
X137922000Y-109220000D03*
X145542000Y-101600000D03*
X127762000Y-101600000D03*
X120142000Y-109220000D03*
X127762000Y-104140000D03*
X120142000Y-106680000D03*
X127762000Y-106680000D03*
X120142000Y-104140000D03*
X127762000Y-109220000D03*
D24*
X120142000Y-101600000D03*
D25*
X165862000Y-78232000D03*
X166370000Y-97536000D03*
X164338000Y-98806000D03*
X161798000Y-97282000D03*
X159258000Y-97536000D03*
X124206000Y-109220000D03*
X127000000Y-114554000D03*
X137414000Y-117094000D03*
X142748000Y-104394000D03*
X142748000Y-107188000D03*
X162814000Y-96520000D03*
X161736848Y-98744848D03*
D26*
X165100000Y-76708000D02*
X164592000Y-76200000D01*
X165934998Y-76708000D02*
X165100000Y-76708000D01*
X168257001Y-79030003D02*
X165934998Y-76708000D01*
X168257001Y-104284999D02*
X168257001Y-79030003D01*
X163322000Y-109220000D02*
X168257001Y-104284999D01*
X167132000Y-95210000D02*
X167092000Y-95250000D01*
X167132000Y-87630000D02*
X167132000Y-95210000D01*
X167092000Y-96814000D02*
X166370000Y-97536000D01*
X167092000Y-95250000D02*
X167092000Y-96814000D01*
X163322000Y-98806000D02*
X161798000Y-97282000D01*
X164338000Y-98806000D02*
X163322000Y-98806000D01*
X125222000Y-109220000D02*
X124206000Y-109220000D01*
X127762000Y-106680000D02*
X125222000Y-109220000D01*
X129032000Y-116586000D02*
X129032000Y-118110000D01*
X127000000Y-114554000D02*
X129032000Y-116586000D01*
X160782000Y-104140000D02*
X155702000Y-104140000D01*
X163322000Y-106680000D02*
X160782000Y-104140000D01*
X163322000Y-78700000D02*
X164632000Y-80010000D01*
X163322000Y-69850000D02*
X163322000Y-78700000D01*
X165757001Y-82266371D02*
X164632000Y-81141370D01*
X165757001Y-92419997D02*
X165757001Y-82266371D01*
X163466999Y-95790001D02*
X163466999Y-94709999D01*
X164632000Y-81141370D02*
X164632000Y-80010000D01*
X166370000Y-98693002D02*
X163466999Y-95790001D01*
X163466999Y-94709999D02*
X165757001Y-92419997D01*
X166370000Y-99060000D02*
X166370000Y-98693002D01*
X164447001Y-105554999D02*
X164447001Y-100982999D01*
X164447001Y-100982999D02*
X166370000Y-99060000D01*
X163322000Y-106680000D02*
X164447001Y-105554999D01*
X145001999Y-103014999D02*
X150477001Y-103014999D01*
X144416999Y-103599999D02*
X145001999Y-103014999D01*
X144416999Y-108094999D02*
X144416999Y-103599999D01*
X145542000Y-109220000D02*
X144416999Y-108094999D01*
X150477001Y-103014999D02*
X158750000Y-94742000D01*
X158750000Y-94742000D02*
X158750000Y-87122000D01*
X163460630Y-83820000D02*
X164592000Y-83820000D01*
X162299002Y-83820000D02*
X163460630Y-83820000D01*
X158997002Y-87122000D02*
X162299002Y-83820000D01*
X158750000Y-87122000D02*
X158997002Y-87122000D01*
X145542000Y-106680000D02*
X145542000Y-104140000D01*
X146673370Y-106680000D02*
X145542000Y-106680000D01*
X164632000Y-89734998D02*
X147686998Y-106680000D01*
X147686998Y-106680000D02*
X146673370Y-106680000D01*
X164632000Y-87630000D02*
X164632000Y-89734998D01*
X139176000Y-117094000D02*
X137979685Y-117094000D01*
X137979685Y-117094000D02*
X137414000Y-117094000D01*
X139192000Y-117110000D02*
X139176000Y-117094000D01*
X139192000Y-118110000D02*
X139192000Y-117110000D01*
X142348001Y-104793999D02*
X142348001Y-106788001D01*
X142748000Y-104394000D02*
X142348001Y-104793999D01*
X142348001Y-106788001D02*
X142748000Y-107188000D01*
X155702000Y-83820000D02*
X155702000Y-91440000D01*
X162814000Y-94726588D02*
X162814000Y-96520000D01*
X162814000Y-93218000D02*
X162814000Y-94726588D01*
X164592000Y-91440000D02*
X162814000Y-93218000D01*
X163322000Y-100330000D02*
X161736848Y-98744848D01*
X163322000Y-101600000D02*
X163322000Y-100330000D01*
X177292000Y-105036000D02*
X177292000Y-103886000D01*
X175902000Y-106426000D02*
X177292000Y-105036000D01*
X173482000Y-106426000D02*
X175902000Y-106426000D01*
X163180998Y-110744000D02*
X172974000Y-110744000D01*
X172974000Y-110744000D02*
X179832000Y-103886000D01*
X159116998Y-106680000D02*
X163180998Y-110744000D01*
X155702000Y-106680000D02*
X159116998Y-106680000D01*
X177292000Y-78366000D02*
X177292000Y-77216000D01*
X175902000Y-79756000D02*
X177292000Y-78366000D01*
X173482000Y-79756000D02*
X175902000Y-79756000D01*
X137922000Y-98185002D02*
X137922000Y-96381370D01*
X137922000Y-96381370D02*
X137922000Y-95250000D01*
X128302001Y-107805001D02*
X137922000Y-98185002D01*
X127511997Y-107805001D02*
X128302001Y-107805001D01*
X123952000Y-111364998D02*
X127511997Y-107805001D01*
X123952000Y-118110000D02*
X123952000Y-111364998D01*
X124952000Y-118110000D02*
X123952000Y-118110000D01*
X126477011Y-119635011D02*
X124952000Y-118110000D01*
X167380150Y-119635011D02*
X126477011Y-119635011D01*
X169517010Y-117498151D02*
X167380150Y-119635011D01*
X168975151Y-115639990D02*
X169517010Y-116181849D01*
X165792010Y-115639990D02*
X168975151Y-115639990D01*
X169517010Y-116181849D02*
X169517010Y-117498151D01*
X164592000Y-116840000D02*
X165792010Y-115639990D01*
X137922000Y-95250000D02*
X143002000Y-90170000D01*
X138721999Y-107479999D02*
X137922000Y-106680000D01*
X142436010Y-111194010D02*
X138721999Y-107479999D01*
X174336992Y-111194010D02*
X142436010Y-111194010D01*
X181057001Y-104474001D02*
X174336992Y-111194010D01*
X181057001Y-103297999D02*
X181057001Y-104474001D01*
X179832000Y-102072998D02*
X181057001Y-103297999D01*
X179832000Y-91186000D02*
X179832000Y-102072998D01*
X176022000Y-91186000D02*
X177292000Y-91186000D01*
X173482000Y-93726000D02*
X176022000Y-91186000D01*
X166592000Y-117115000D02*
X166592000Y-116840000D01*
X165597000Y-118110000D02*
X166592000Y-117115000D01*
X144272000Y-118110000D02*
X165597000Y-118110000D01*
X143272000Y-118110000D02*
X144272000Y-118110000D01*
X136796999Y-111634999D02*
X143272000Y-118110000D01*
X138692003Y-103014999D02*
X137381999Y-103014999D01*
X144577011Y-97129991D02*
X138692003Y-103014999D01*
X144577011Y-82460009D02*
X144577011Y-97129991D01*
X142461999Y-81424999D02*
X143542001Y-81424999D01*
X143542001Y-81424999D02*
X144577011Y-82460009D01*
X141876999Y-82009999D02*
X142461999Y-81424999D01*
X136796999Y-103599999D02*
X136796999Y-111634999D01*
X137381999Y-103014999D02*
X136796999Y-103599999D01*
X141876999Y-83964999D02*
X141876999Y-82009999D01*
X143002000Y-85090000D02*
X141876999Y-83964999D01*
X136187001Y-119185001D02*
X135112000Y-118110000D01*
X166521999Y-119185001D02*
X136187001Y-119185001D01*
X168592000Y-117115000D02*
X166521999Y-119185001D01*
X135112000Y-118110000D02*
X134112000Y-118110000D01*
X168592000Y-116840000D02*
X168592000Y-117115000D01*
X134112000Y-103224998D02*
X134112000Y-117110000D01*
X134112000Y-117110000D02*
X134112000Y-118110000D01*
X138372010Y-96831990D02*
X138372010Y-98964988D01*
X138372010Y-98964988D02*
X134112000Y-103224998D01*
X142494000Y-92710000D02*
X138372010Y-96831990D01*
X143002000Y-92710000D02*
X142494000Y-92710000D01*
X160782000Y-100725002D02*
X160782000Y-96239949D01*
X162522001Y-103340001D02*
X162522001Y-102465003D01*
X160782000Y-96239949D02*
X160782000Y-95250000D01*
X162522001Y-102465003D02*
X160782000Y-100725002D01*
X163322000Y-104140000D02*
X162522001Y-103340001D01*
X156401999Y-94550001D02*
X155702000Y-95250000D01*
X156727001Y-86357997D02*
X156727001Y-94224999D01*
X161807001Y-81277997D02*
X156727001Y-86357997D01*
X156727001Y-94224999D02*
X156401999Y-94550001D01*
X161807001Y-70875001D02*
X161807001Y-81277997D01*
X160782000Y-69850000D02*
X161807001Y-70875001D01*
X144272000Y-73080000D02*
X150772000Y-73080000D01*
X157702000Y-80010000D02*
X160782000Y-80010000D01*
X150772000Y-73080000D02*
X157702000Y-80010000D01*
X150772000Y-74494213D02*
X150772000Y-73080000D01*
X151747001Y-75469214D02*
X150772000Y-74494213D01*
X151747001Y-95790001D02*
X151747001Y-75469214D01*
X151162001Y-96375001D02*
X151747001Y-95790001D01*
X146818369Y-96375001D02*
X151162001Y-96375001D01*
X139053370Y-104140000D02*
X146818369Y-96375001D01*
X137922000Y-104140000D02*
X139053370Y-104140000D01*
X114300000Y-98298000D02*
X120142000Y-104140000D01*
X114300000Y-79856998D02*
X114300000Y-98298000D01*
X123116998Y-71040000D02*
X114300000Y-79856998D01*
X126492000Y-71040000D02*
X123116998Y-71040000D01*
X133492001Y-70040001D02*
X134492000Y-71040000D01*
X132716989Y-69264989D02*
X133492001Y-70040001D01*
X123619189Y-69264989D02*
X132716989Y-69264989D01*
X113399982Y-79484196D02*
X123619189Y-69264989D01*
X113399982Y-102477982D02*
X113399982Y-79484196D01*
X120142000Y-109220000D02*
X113399982Y-102477982D01*
X140462000Y-90170000D02*
X143002000Y-87630000D01*
X137922000Y-90170000D02*
X140462000Y-90170000D01*
X143801999Y-83349999D02*
X143002000Y-82550000D01*
X144127001Y-83675001D02*
X143801999Y-83349999D01*
X143542001Y-88755001D02*
X144127001Y-88170001D01*
X142751997Y-88755001D02*
X143542001Y-88755001D01*
X141478000Y-90028998D02*
X142751997Y-88755001D01*
X138462001Y-93835001D02*
X141478000Y-90819002D01*
X144127001Y-88170001D02*
X144127001Y-83675001D01*
X141478000Y-90819002D02*
X141478000Y-90028998D01*
X136507001Y-93835001D02*
X138462001Y-93835001D01*
X130302000Y-87630000D02*
X136507001Y-93835001D01*
X129502001Y-81750001D02*
X130302000Y-82550000D01*
X129176999Y-71763997D02*
X129176999Y-81424999D01*
X129176999Y-81424999D02*
X129502001Y-81750001D01*
X127128001Y-69714999D02*
X129176999Y-71763997D01*
X123805589Y-69714999D02*
X127128001Y-69714999D01*
X113849991Y-79670597D02*
X123805589Y-69714999D01*
X113849990Y-100387990D02*
X113849991Y-79670597D01*
X120142000Y-106680000D02*
X113849990Y-100387990D01*
X141952000Y-80010000D02*
X143002000Y-80010000D01*
X140537001Y-81424999D02*
X141952000Y-80010000D01*
X131427001Y-81424999D02*
X140537001Y-81424999D01*
X130302000Y-82550000D02*
X131427001Y-81424999D01*
X117131999Y-85889999D02*
X116332000Y-85090000D01*
X117457001Y-86215001D02*
X117131999Y-85889999D01*
X131427001Y-86215001D02*
X117457001Y-86215001D01*
X137922000Y-92710000D02*
X131427001Y-86215001D01*
X117382000Y-80010000D02*
X116332000Y-80010000D01*
X121047001Y-83675001D02*
X117382000Y-80010000D01*
X124202003Y-83675001D02*
X121047001Y-83675001D01*
X125617002Y-85090000D02*
X124202003Y-83675001D01*
X130302000Y-85090000D02*
X125617002Y-85090000D01*
X115532001Y-83349999D02*
X116332000Y-82550000D01*
X115206999Y-83675001D02*
X115532001Y-83349999D01*
X115206999Y-85630001D02*
X115206999Y-83675001D01*
X116695001Y-86215001D02*
X115791999Y-86215001D01*
X115791999Y-86215001D02*
X115206999Y-85630001D01*
X121775001Y-91295001D02*
X116695001Y-86215001D01*
X128887001Y-91295001D02*
X121775001Y-91295001D01*
X130302000Y-92710000D02*
X128887001Y-91295001D01*
D27*
G36*
X180443222Y-60413096D02*
G01*
X181031164Y-60590606D01*
X181573436Y-60878937D01*
X182049364Y-61267094D01*
X182440845Y-61740314D01*
X182732951Y-62280552D01*
X182914563Y-62867244D01*
X182982001Y-63508888D01*
X182982000Y-119347721D01*
X182918904Y-119991221D01*
X182741394Y-120579164D01*
X182453063Y-121121436D01*
X182064906Y-121597364D01*
X181591686Y-121988845D01*
X181051449Y-122280950D01*
X180464756Y-122462563D01*
X179823130Y-122530000D01*
X115094279Y-122530000D01*
X114450779Y-122466904D01*
X113862836Y-122289394D01*
X113320564Y-122001063D01*
X112844636Y-121612906D01*
X112453155Y-121139686D01*
X112161050Y-120599449D01*
X111979437Y-120012756D01*
X111912000Y-119371130D01*
X111912000Y-117860817D01*
X113802000Y-117860817D01*
X113802000Y-118359183D01*
X113899226Y-118847974D01*
X114089943Y-119308405D01*
X114366820Y-119722781D01*
X114719219Y-120075180D01*
X115133595Y-120352057D01*
X115594026Y-120542774D01*
X116082817Y-120640000D01*
X116581183Y-120640000D01*
X117069974Y-120542774D01*
X117530405Y-120352057D01*
X117944781Y-120075180D01*
X118297180Y-119722781D01*
X118574057Y-119308405D01*
X118764774Y-118847974D01*
X118862000Y-118359183D01*
X118862000Y-117860817D01*
X118764774Y-117372026D01*
X118574057Y-116911595D01*
X118297180Y-116497219D01*
X117944781Y-116144820D01*
X117530405Y-115867943D01*
X117069974Y-115677226D01*
X116581183Y-115580000D01*
X116082817Y-115580000D01*
X115594026Y-115677226D01*
X115133595Y-115867943D01*
X114719219Y-116144820D01*
X114366820Y-116497219D01*
X114089943Y-116911595D01*
X113899226Y-117372026D01*
X113802000Y-117860817D01*
X111912000Y-117860817D01*
X111912000Y-79484196D01*
X112636306Y-79484196D01*
X112639983Y-79521529D01*
X112639982Y-102440660D01*
X112636306Y-102477982D01*
X112639982Y-102515304D01*
X112639982Y-102515314D01*
X112650979Y-102626967D01*
X112685819Y-102741820D01*
X112694436Y-102770228D01*
X112765008Y-102902258D01*
X112790034Y-102932752D01*
X112859981Y-103017983D01*
X112888985Y-103041786D01*
X118741292Y-108894094D01*
X118727764Y-108938691D01*
X118700057Y-109220000D01*
X118727764Y-109501309D01*
X118809818Y-109771808D01*
X118943068Y-110021101D01*
X119122392Y-110239608D01*
X119340899Y-110418932D01*
X119590192Y-110552182D01*
X119860691Y-110634236D01*
X120071508Y-110655000D01*
X120212492Y-110655000D01*
X120423309Y-110634236D01*
X120693808Y-110552182D01*
X120943101Y-110418932D01*
X121161608Y-110239608D01*
X121340932Y-110021101D01*
X121474182Y-109771808D01*
X121556236Y-109501309D01*
X121583943Y-109220000D01*
X121556236Y-108938691D01*
X121474182Y-108668192D01*
X121340932Y-108418899D01*
X121161608Y-108200392D01*
X120943101Y-108021068D01*
X120810142Y-107950000D01*
X120943101Y-107878932D01*
X121161608Y-107699608D01*
X121340932Y-107481101D01*
X121474182Y-107231808D01*
X121556236Y-106961309D01*
X121583943Y-106680000D01*
X121556236Y-106398691D01*
X121474182Y-106128192D01*
X121340932Y-105878899D01*
X121161608Y-105660392D01*
X120943101Y-105481068D01*
X120810142Y-105410000D01*
X120943101Y-105338932D01*
X121161608Y-105159608D01*
X121340932Y-104941101D01*
X121474182Y-104691808D01*
X121556236Y-104421309D01*
X121583943Y-104140000D01*
X121556236Y-103858691D01*
X121474182Y-103588192D01*
X121340932Y-103338899D01*
X121161608Y-103120392D01*
X121048518Y-103027581D01*
X121066482Y-103025812D01*
X121186180Y-102989502D01*
X121296494Y-102930537D01*
X121393185Y-102851185D01*
X121472537Y-102754494D01*
X121531502Y-102644180D01*
X121567812Y-102524482D01*
X121580072Y-102400000D01*
X121577000Y-101885750D01*
X121418250Y-101727000D01*
X120269000Y-101727000D01*
X120269000Y-101747000D01*
X120015000Y-101747000D01*
X120015000Y-101727000D01*
X118865750Y-101727000D01*
X118834776Y-101757974D01*
X117876802Y-100800000D01*
X118703928Y-100800000D01*
X118707000Y-101314250D01*
X118865750Y-101473000D01*
X120015000Y-101473000D01*
X120015000Y-100323750D01*
X120269000Y-100323750D01*
X120269000Y-101473000D01*
X121418250Y-101473000D01*
X121577000Y-101314250D01*
X121580072Y-100800000D01*
X121567812Y-100675518D01*
X121531502Y-100555820D01*
X121472537Y-100445506D01*
X121393185Y-100348815D01*
X121296494Y-100269463D01*
X121186180Y-100210498D01*
X121066482Y-100174188D01*
X120942000Y-100161928D01*
X120427750Y-100165000D01*
X120269000Y-100323750D01*
X120015000Y-100323750D01*
X119856250Y-100165000D01*
X119342000Y-100161928D01*
X119217518Y-100174188D01*
X119097820Y-100210498D01*
X118987506Y-100269463D01*
X118890815Y-100348815D01*
X118811463Y-100445506D01*
X118752498Y-100555820D01*
X118716188Y-100675518D01*
X118703928Y-100800000D01*
X117876802Y-100800000D01*
X115060000Y-97983199D01*
X115060000Y-95914401D01*
X115133068Y-96051101D01*
X115312392Y-96269608D01*
X115530899Y-96448932D01*
X115780192Y-96582182D01*
X116050691Y-96664236D01*
X116261508Y-96685000D01*
X116402492Y-96685000D01*
X116613309Y-96664236D01*
X116883808Y-96582182D01*
X117133101Y-96448932D01*
X117351608Y-96269608D01*
X117530932Y-96051101D01*
X117664182Y-95801808D01*
X117746236Y-95531309D01*
X117773943Y-95250000D01*
X117746236Y-94968691D01*
X117664182Y-94698192D01*
X117530932Y-94448899D01*
X117351608Y-94230392D01*
X117133101Y-94051068D01*
X117000142Y-93980000D01*
X117133101Y-93908932D01*
X117351608Y-93729608D01*
X117530932Y-93511101D01*
X117664182Y-93261808D01*
X117746236Y-92991309D01*
X117773943Y-92710000D01*
X117746236Y-92428691D01*
X117664182Y-92158192D01*
X117530932Y-91908899D01*
X117351608Y-91690392D01*
X117133101Y-91511068D01*
X117000142Y-91440000D01*
X117133101Y-91368932D01*
X117351608Y-91189608D01*
X117530932Y-90971101D01*
X117664182Y-90721808D01*
X117746236Y-90451309D01*
X117773943Y-90170000D01*
X117746236Y-89888691D01*
X117664182Y-89618192D01*
X117530932Y-89368899D01*
X117351608Y-89150392D01*
X117133101Y-88971068D01*
X117000142Y-88900000D01*
X117133101Y-88828932D01*
X117351608Y-88649608D01*
X117530932Y-88431101D01*
X117637300Y-88232101D01*
X121211201Y-91806003D01*
X121235000Y-91835002D01*
X121263998Y-91858800D01*
X121350724Y-91929975D01*
X121473725Y-91995721D01*
X121482754Y-92000547D01*
X121626015Y-92044004D01*
X121737668Y-92055001D01*
X121737678Y-92055001D01*
X121775001Y-92058677D01*
X121812324Y-92055001D01*
X122674975Y-92055001D01*
X122619818Y-92158192D01*
X122537764Y-92428691D01*
X122510057Y-92710000D01*
X122537764Y-92991309D01*
X122619818Y-93261808D01*
X122753068Y-93511101D01*
X122932392Y-93729608D01*
X123150899Y-93908932D01*
X123283858Y-93980000D01*
X123150899Y-94051068D01*
X122932392Y-94230392D01*
X122753068Y-94448899D01*
X122619818Y-94698192D01*
X122537764Y-94968691D01*
X122510057Y-95250000D01*
X122537764Y-95531309D01*
X122619818Y-95801808D01*
X122753068Y-96051101D01*
X122932392Y-96269608D01*
X123150899Y-96448932D01*
X123400192Y-96582182D01*
X123670691Y-96664236D01*
X123881508Y-96685000D01*
X124022492Y-96685000D01*
X124233309Y-96664236D01*
X124503808Y-96582182D01*
X124753101Y-96448932D01*
X124971608Y-96269608D01*
X125150932Y-96051101D01*
X125284182Y-95801808D01*
X125366236Y-95531309D01*
X125393943Y-95250000D01*
X125366236Y-94968691D01*
X125284182Y-94698192D01*
X125150932Y-94448899D01*
X124971608Y-94230392D01*
X124753101Y-94051068D01*
X124620142Y-93980000D01*
X124753101Y-93908932D01*
X124971608Y-93729608D01*
X125150932Y-93511101D01*
X125284182Y-93261808D01*
X125366236Y-92991309D01*
X125393943Y-92710000D01*
X125366236Y-92428691D01*
X125284182Y-92158192D01*
X125229025Y-92055001D01*
X128572200Y-92055001D01*
X128901292Y-92384094D01*
X128887764Y-92428691D01*
X128860057Y-92710000D01*
X128887764Y-92991309D01*
X128969818Y-93261808D01*
X129103068Y-93511101D01*
X129282392Y-93729608D01*
X129500899Y-93908932D01*
X129633858Y-93980000D01*
X129500899Y-94051068D01*
X129282392Y-94230392D01*
X129103068Y-94448899D01*
X128969818Y-94698192D01*
X128887764Y-94968691D01*
X128860057Y-95250000D01*
X128887764Y-95531309D01*
X128969818Y-95801808D01*
X129103068Y-96051101D01*
X129282392Y-96269608D01*
X129500899Y-96448932D01*
X129750192Y-96582182D01*
X130020691Y-96664236D01*
X130231508Y-96685000D01*
X130372492Y-96685000D01*
X130583309Y-96664236D01*
X130853808Y-96582182D01*
X131103101Y-96448932D01*
X131321608Y-96269608D01*
X131500932Y-96051101D01*
X131634182Y-95801808D01*
X131716236Y-95531309D01*
X131743943Y-95250000D01*
X131716236Y-94968691D01*
X131634182Y-94698192D01*
X131500932Y-94448899D01*
X131321608Y-94230392D01*
X131103101Y-94051068D01*
X130970142Y-93980000D01*
X131103101Y-93908932D01*
X131321608Y-93729608D01*
X131500932Y-93511101D01*
X131634182Y-93261808D01*
X131716236Y-92991309D01*
X131743943Y-92710000D01*
X131716236Y-92428691D01*
X131634182Y-92158192D01*
X131500932Y-91908899D01*
X131321608Y-91690392D01*
X131103101Y-91511068D01*
X130970142Y-91440000D01*
X131103101Y-91368932D01*
X131321608Y-91189608D01*
X131500932Y-90971101D01*
X131634182Y-90721808D01*
X131716236Y-90451309D01*
X131743943Y-90170000D01*
X131741402Y-90144204D01*
X135943202Y-94346004D01*
X135967000Y-94375002D01*
X135995998Y-94398800D01*
X136082725Y-94469975D01*
X136214754Y-94540547D01*
X136358015Y-94584004D01*
X136507001Y-94598678D01*
X136544334Y-94595001D01*
X136644975Y-94595001D01*
X136589818Y-94698192D01*
X136507764Y-94968691D01*
X136480057Y-95250000D01*
X136507764Y-95531309D01*
X136589818Y-95801808D01*
X136723068Y-96051101D01*
X136902392Y-96269608D01*
X137120899Y-96448932D01*
X137162001Y-96470901D01*
X137162000Y-97870200D01*
X129024036Y-106008165D01*
X128993037Y-105942580D01*
X128825519Y-105716586D01*
X128617131Y-105527615D01*
X128425318Y-105412579D01*
X128563101Y-105338932D01*
X128781608Y-105159608D01*
X128960932Y-104941101D01*
X129094182Y-104691808D01*
X129176236Y-104421309D01*
X129203943Y-104140000D01*
X129176236Y-103858691D01*
X129094182Y-103588192D01*
X128960932Y-103338899D01*
X128781608Y-103120392D01*
X128563101Y-102941068D01*
X128430142Y-102870000D01*
X128563101Y-102798932D01*
X128781608Y-102619608D01*
X128960932Y-102401101D01*
X129094182Y-102151808D01*
X129176236Y-101881309D01*
X129203943Y-101600000D01*
X129176236Y-101318691D01*
X129094182Y-101048192D01*
X128960932Y-100798899D01*
X128781608Y-100580392D01*
X128563101Y-100401068D01*
X128313808Y-100267818D01*
X128043309Y-100185764D01*
X127832492Y-100165000D01*
X127691508Y-100165000D01*
X127480691Y-100185764D01*
X127210192Y-100267818D01*
X126960899Y-100401068D01*
X126742392Y-100580392D01*
X126563068Y-100798899D01*
X126429818Y-101048192D01*
X126347764Y-101318691D01*
X126320057Y-101600000D01*
X126347764Y-101881309D01*
X126429818Y-102151808D01*
X126563068Y-102401101D01*
X126742392Y-102619608D01*
X126960899Y-102798932D01*
X127093858Y-102870000D01*
X126960899Y-102941068D01*
X126742392Y-103120392D01*
X126563068Y-103338899D01*
X126429818Y-103588192D01*
X126347764Y-103858691D01*
X126320057Y-104140000D01*
X126347764Y-104421309D01*
X126429818Y-104691808D01*
X126563068Y-104941101D01*
X126742392Y-105159608D01*
X126960899Y-105338932D01*
X127098682Y-105412579D01*
X126906869Y-105527615D01*
X126698481Y-105716586D01*
X126530963Y-105942580D01*
X126410754Y-106196913D01*
X126370096Y-106330961D01*
X126492085Y-106553000D01*
X127635000Y-106553000D01*
X127635000Y-106533000D01*
X127889000Y-106533000D01*
X127889000Y-106553000D01*
X127909000Y-106553000D01*
X127909000Y-106807000D01*
X127889000Y-106807000D01*
X127889000Y-106827000D01*
X127635000Y-106827000D01*
X127635000Y-106807000D01*
X126492085Y-106807000D01*
X126370096Y-107029039D01*
X126410754Y-107163087D01*
X126530963Y-107417420D01*
X126656039Y-107586157D01*
X123440998Y-110801199D01*
X123412000Y-110824997D01*
X123388202Y-110853995D01*
X123388201Y-110853996D01*
X123317026Y-110940722D01*
X123246454Y-111072752D01*
X123217478Y-111168276D01*
X123204603Y-111210723D01*
X123202998Y-111216013D01*
X123188324Y-111364998D01*
X123192001Y-111402330D01*
X123192000Y-116722913D01*
X123077518Y-116734188D01*
X122957820Y-116770498D01*
X122847506Y-116829463D01*
X122750815Y-116908815D01*
X122671463Y-117005506D01*
X122612498Y-117115820D01*
X122576188Y-117235518D01*
X122563928Y-117360000D01*
X122563928Y-118860000D01*
X122576188Y-118984482D01*
X122612498Y-119104180D01*
X122671463Y-119214494D01*
X122750815Y-119311185D01*
X122847506Y-119390537D01*
X122957820Y-119449502D01*
X123077518Y-119485812D01*
X123202000Y-119498072D01*
X124702000Y-119498072D01*
X124826482Y-119485812D01*
X124946180Y-119449502D01*
X125056494Y-119390537D01*
X125112101Y-119344902D01*
X125913212Y-120146014D01*
X125937010Y-120175012D01*
X126052735Y-120269985D01*
X126184764Y-120340557D01*
X126328025Y-120384014D01*
X126439678Y-120395011D01*
X126439687Y-120395011D01*
X126477010Y-120398687D01*
X126514333Y-120395011D01*
X167342828Y-120395011D01*
X167380150Y-120398687D01*
X167417472Y-120395011D01*
X167417483Y-120395011D01*
X167529136Y-120384014D01*
X167672397Y-120340557D01*
X167804426Y-120269985D01*
X167920151Y-120175012D01*
X167943954Y-120146009D01*
X170028018Y-118061946D01*
X170057011Y-118038152D01*
X170080805Y-118009159D01*
X170080809Y-118009155D01*
X170151983Y-117922428D01*
X170151984Y-117922427D01*
X170184915Y-117860817D01*
X176032000Y-117860817D01*
X176032000Y-118359183D01*
X176129226Y-118847974D01*
X176319943Y-119308405D01*
X176596820Y-119722781D01*
X176949219Y-120075180D01*
X177363595Y-120352057D01*
X177824026Y-120542774D01*
X178312817Y-120640000D01*
X178811183Y-120640000D01*
X179299974Y-120542774D01*
X179760405Y-120352057D01*
X180174781Y-120075180D01*
X180527180Y-119722781D01*
X180804057Y-119308405D01*
X180994774Y-118847974D01*
X181092000Y-118359183D01*
X181092000Y-117860817D01*
X180994774Y-117372026D01*
X180804057Y-116911595D01*
X180527180Y-116497219D01*
X180174781Y-116144820D01*
X179760405Y-115867943D01*
X179299974Y-115677226D01*
X178811183Y-115580000D01*
X178312817Y-115580000D01*
X177824026Y-115677226D01*
X177363595Y-115867943D01*
X176949219Y-116144820D01*
X176596820Y-116497219D01*
X176319943Y-116911595D01*
X176129226Y-117372026D01*
X176032000Y-117860817D01*
X170184915Y-117860817D01*
X170222556Y-117790398D01*
X170266013Y-117647137D01*
X170277010Y-117535484D01*
X170277010Y-117535475D01*
X170280686Y-117498152D01*
X170277010Y-117460829D01*
X170277010Y-116219171D01*
X170280686Y-116181848D01*
X170277010Y-116144525D01*
X170277010Y-116144516D01*
X170266013Y-116032863D01*
X170222556Y-115889602D01*
X170151984Y-115757573D01*
X170057011Y-115641848D01*
X170028013Y-115618051D01*
X169538954Y-115128992D01*
X169515152Y-115099989D01*
X169399427Y-115005016D01*
X169267398Y-114934444D01*
X169124137Y-114890987D01*
X169012484Y-114879990D01*
X169012473Y-114879990D01*
X168975151Y-114876314D01*
X168937829Y-114879990D01*
X165829332Y-114879990D01*
X165792009Y-114876314D01*
X165754686Y-114879990D01*
X165754677Y-114879990D01*
X165643024Y-114890987D01*
X165499763Y-114934444D01*
X165367734Y-115005016D01*
X165367732Y-115005017D01*
X165367733Y-115005017D01*
X165281006Y-115076191D01*
X165281002Y-115076195D01*
X165252009Y-115099989D01*
X165228215Y-115128982D01*
X165022355Y-115334842D01*
X164942001Y-115326928D01*
X164241999Y-115326928D01*
X164068745Y-115343992D01*
X163902149Y-115394528D01*
X163748613Y-115476595D01*
X163614038Y-115587038D01*
X163503595Y-115721613D01*
X163421528Y-115875149D01*
X163370992Y-116041745D01*
X163353928Y-116214999D01*
X163353928Y-117350000D01*
X157645034Y-117350000D01*
X157667000Y-117242000D01*
X157667000Y-116967000D01*
X156559000Y-116967000D01*
X156559000Y-116987000D01*
X156305000Y-116987000D01*
X156305000Y-116967000D01*
X156285000Y-116967000D01*
X156285000Y-116713000D01*
X156305000Y-116713000D01*
X156305000Y-115496269D01*
X156559000Y-115496269D01*
X156559000Y-116713000D01*
X157667000Y-116713000D01*
X157667000Y-116438000D01*
X157618493Y-116199504D01*
X157524390Y-115975054D01*
X157388307Y-115773275D01*
X157215474Y-115601922D01*
X157012533Y-115467579D01*
X156787282Y-115375409D01*
X156749609Y-115371538D01*
X156559000Y-115496269D01*
X156305000Y-115496269D01*
X156114391Y-115371538D01*
X156076718Y-115375409D01*
X155851467Y-115467579D01*
X155648526Y-115601922D01*
X155522967Y-115726406D01*
X155520405Y-115721613D01*
X155409962Y-115587038D01*
X155275387Y-115476595D01*
X155121851Y-115394528D01*
X154955255Y-115343992D01*
X154782001Y-115326928D01*
X154081999Y-115326928D01*
X153908745Y-115343992D01*
X153742149Y-115394528D01*
X153588613Y-115476595D01*
X153454038Y-115587038D01*
X153343595Y-115721613D01*
X153261528Y-115875149D01*
X153210992Y-116041745D01*
X153193928Y-116214999D01*
X153193928Y-117350000D01*
X145659087Y-117350000D01*
X145647812Y-117235518D01*
X145611502Y-117115820D01*
X145552537Y-117005506D01*
X145473185Y-116908815D01*
X145376494Y-116829463D01*
X145266180Y-116770498D01*
X145146482Y-116734188D01*
X145022000Y-116721928D01*
X143522000Y-116721928D01*
X143397518Y-116734188D01*
X143277820Y-116770498D01*
X143167506Y-116829463D01*
X143111900Y-116875098D01*
X137556999Y-111320198D01*
X137556999Y-110608849D01*
X137640691Y-110634236D01*
X137851508Y-110655000D01*
X137992492Y-110655000D01*
X138203309Y-110634236D01*
X138473808Y-110552182D01*
X138723101Y-110418932D01*
X138941608Y-110239608D01*
X139120932Y-110021101D01*
X139254182Y-109771808D01*
X139336236Y-109501309D01*
X139363943Y-109220000D01*
X139361402Y-109194204D01*
X141872211Y-111705013D01*
X141896009Y-111734011D01*
X142011734Y-111828984D01*
X142143763Y-111899556D01*
X142287024Y-111943013D01*
X142398677Y-111954010D01*
X142398685Y-111954010D01*
X142436010Y-111957686D01*
X142473335Y-111954010D01*
X174299670Y-111954010D01*
X174336992Y-111957686D01*
X174374314Y-111954010D01*
X174374325Y-111954010D01*
X174485978Y-111943013D01*
X174629239Y-111899556D01*
X174761268Y-111828984D01*
X174876993Y-111734011D01*
X174900796Y-111705007D01*
X181568004Y-105037800D01*
X181597002Y-105014002D01*
X181691975Y-104898277D01*
X181762547Y-104766248D01*
X181806004Y-104622987D01*
X181817001Y-104511334D01*
X181817001Y-104511324D01*
X181820677Y-104474001D01*
X181817001Y-104436678D01*
X181817001Y-103335321D01*
X181820677Y-103297998D01*
X181817001Y-103260675D01*
X181817001Y-103260666D01*
X181806004Y-103149013D01*
X181762547Y-103005752D01*
X181723527Y-102932751D01*
X181691975Y-102873722D01*
X181620800Y-102786996D01*
X181597002Y-102757998D01*
X181568005Y-102734201D01*
X180592000Y-101758197D01*
X180592000Y-92524313D01*
X180810505Y-92378312D01*
X181024312Y-92164505D01*
X181192299Y-91913095D01*
X181308011Y-91633743D01*
X181367000Y-91337184D01*
X181367000Y-91034816D01*
X181308011Y-90738257D01*
X181192299Y-90458905D01*
X181024312Y-90207495D01*
X180810505Y-89993688D01*
X180559095Y-89825701D01*
X180279743Y-89709989D01*
X179983184Y-89651000D01*
X179680816Y-89651000D01*
X179384257Y-89709989D01*
X179104905Y-89825701D01*
X178853495Y-89993688D01*
X178787056Y-90060127D01*
X178781502Y-90041820D01*
X178722537Y-89931506D01*
X178643185Y-89834815D01*
X178546494Y-89755463D01*
X178436180Y-89696498D01*
X178316482Y-89660188D01*
X178192000Y-89647928D01*
X176392000Y-89647928D01*
X176267518Y-89660188D01*
X176147820Y-89696498D01*
X176037506Y-89755463D01*
X175940815Y-89834815D01*
X175861463Y-89931506D01*
X175802498Y-90041820D01*
X175766188Y-90161518D01*
X175753928Y-90286000D01*
X175753928Y-90473121D01*
X175729753Y-90480454D01*
X175597724Y-90551026D01*
X175597722Y-90551027D01*
X175597723Y-90551027D01*
X175510996Y-90622201D01*
X175510992Y-90622205D01*
X175481999Y-90645999D01*
X175458205Y-90674992D01*
X173720843Y-92412355D01*
X173613486Y-92391000D01*
X173350514Y-92391000D01*
X173092595Y-92442304D01*
X172849641Y-92542939D01*
X172630987Y-92689038D01*
X172445038Y-92874987D01*
X172298939Y-93093641D01*
X172198304Y-93336595D01*
X172147000Y-93594514D01*
X172147000Y-93857486D01*
X172198304Y-94115405D01*
X172298939Y-94358359D01*
X172445038Y-94577013D01*
X172630987Y-94762962D01*
X172849641Y-94909061D01*
X173092595Y-95009696D01*
X173350514Y-95061000D01*
X173613486Y-95061000D01*
X173871405Y-95009696D01*
X174114359Y-94909061D01*
X174333013Y-94762962D01*
X174518962Y-94577013D01*
X174665061Y-94358359D01*
X174765696Y-94115405D01*
X174817000Y-93857486D01*
X174817000Y-93594514D01*
X174795645Y-93487157D01*
X175854791Y-92428012D01*
X175861463Y-92440494D01*
X175940815Y-92537185D01*
X176037506Y-92616537D01*
X176147820Y-92675502D01*
X176267518Y-92711812D01*
X176392000Y-92724072D01*
X178192000Y-92724072D01*
X178316482Y-92711812D01*
X178436180Y-92675502D01*
X178546494Y-92616537D01*
X178643185Y-92537185D01*
X178722537Y-92440494D01*
X178781502Y-92330180D01*
X178787056Y-92311873D01*
X178853495Y-92378312D01*
X179072000Y-92524313D01*
X179072001Y-102035666D01*
X179068324Y-102072998D01*
X179072001Y-102110331D01*
X179082998Y-102221984D01*
X179091898Y-102251323D01*
X179126454Y-102365244D01*
X179192768Y-102489307D01*
X179104905Y-102525701D01*
X178853495Y-102693688D01*
X178787056Y-102760127D01*
X178781502Y-102741820D01*
X178722537Y-102631506D01*
X178643185Y-102534815D01*
X178546494Y-102455463D01*
X178436180Y-102396498D01*
X178316482Y-102360188D01*
X178192000Y-102347928D01*
X176392000Y-102347928D01*
X176267518Y-102360188D01*
X176147820Y-102396498D01*
X176037506Y-102455463D01*
X175940815Y-102534815D01*
X175861463Y-102631506D01*
X175802498Y-102741820D01*
X175766188Y-102861518D01*
X175753928Y-102986000D01*
X175753928Y-104786000D01*
X175766188Y-104910482D01*
X175802498Y-105030180D01*
X175861463Y-105140494D01*
X175940815Y-105237185D01*
X175982118Y-105271081D01*
X175587199Y-105666000D01*
X174579775Y-105666000D01*
X174518962Y-105574987D01*
X174333013Y-105389038D01*
X174114359Y-105242939D01*
X173871405Y-105142304D01*
X173613486Y-105091000D01*
X173350514Y-105091000D01*
X173092595Y-105142304D01*
X172849641Y-105242939D01*
X172630987Y-105389038D01*
X172445038Y-105574987D01*
X172298939Y-105793641D01*
X172198304Y-106036595D01*
X172147000Y-106294514D01*
X172147000Y-106557486D01*
X172198304Y-106815405D01*
X172298939Y-107058359D01*
X172445038Y-107277013D01*
X172630987Y-107462962D01*
X172849641Y-107609061D01*
X173092595Y-107709696D01*
X173350514Y-107761000D01*
X173613486Y-107761000D01*
X173871405Y-107709696D01*
X174114359Y-107609061D01*
X174333013Y-107462962D01*
X174518962Y-107277013D01*
X174579775Y-107186000D01*
X175457199Y-107186000D01*
X172659199Y-109984000D01*
X164540763Y-109984000D01*
X164654182Y-109771808D01*
X164736236Y-109501309D01*
X164763943Y-109220000D01*
X164736236Y-108938691D01*
X164722708Y-108894094D01*
X168768005Y-104848797D01*
X168797002Y-104825000D01*
X168891975Y-104709275D01*
X168962547Y-104577246D01*
X169006004Y-104433985D01*
X169017001Y-104322332D01*
X169017001Y-104322323D01*
X169020677Y-104285000D01*
X169017001Y-104247677D01*
X169017001Y-101679330D01*
X172189278Y-101679330D01*
X172279147Y-101925123D01*
X172415241Y-102148660D01*
X172592330Y-102341351D01*
X172803608Y-102495792D01*
X173040956Y-102606047D01*
X173148671Y-102638716D01*
X173355000Y-102515374D01*
X173355000Y-101473000D01*
X173609000Y-101473000D01*
X173609000Y-102515374D01*
X173815329Y-102638716D01*
X173923044Y-102606047D01*
X174160392Y-102495792D01*
X174371670Y-102341351D01*
X174548759Y-102148660D01*
X174684853Y-101925123D01*
X174774722Y-101679330D01*
X174652201Y-101473000D01*
X173609000Y-101473000D01*
X173355000Y-101473000D01*
X172311799Y-101473000D01*
X172189278Y-101679330D01*
X169017001Y-101679330D01*
X169017001Y-101012670D01*
X172189278Y-101012670D01*
X172311799Y-101219000D01*
X173355000Y-101219000D01*
X173355000Y-100176626D01*
X173609000Y-100176626D01*
X173609000Y-101219000D01*
X174652201Y-101219000D01*
X174774722Y-101012670D01*
X174684853Y-100766877D01*
X174548759Y-100543340D01*
X174371670Y-100350649D01*
X174160392Y-100196208D01*
X173923044Y-100085953D01*
X173815329Y-100053284D01*
X173609000Y-100176626D01*
X173355000Y-100176626D01*
X173148671Y-100053284D01*
X173040956Y-100085953D01*
X172803608Y-100196208D01*
X172592330Y-100350649D01*
X172415241Y-100543340D01*
X172279147Y-100766877D01*
X172189278Y-101012670D01*
X169017001Y-101012670D01*
X169017001Y-88979330D01*
X172189278Y-88979330D01*
X172279147Y-89225123D01*
X172415241Y-89448660D01*
X172592330Y-89641351D01*
X172803608Y-89795792D01*
X173040956Y-89906047D01*
X173148671Y-89938716D01*
X173355000Y-89815374D01*
X173355000Y-88773000D01*
X173609000Y-88773000D01*
X173609000Y-89815374D01*
X173815329Y-89938716D01*
X173923044Y-89906047D01*
X174160392Y-89795792D01*
X174371670Y-89641351D01*
X174548759Y-89448660D01*
X174684853Y-89225123D01*
X174774722Y-88979330D01*
X174652201Y-88773000D01*
X173609000Y-88773000D01*
X173355000Y-88773000D01*
X172311799Y-88773000D01*
X172189278Y-88979330D01*
X169017001Y-88979330D01*
X169017001Y-88312670D01*
X172189278Y-88312670D01*
X172311799Y-88519000D01*
X173355000Y-88519000D01*
X173355000Y-87476626D01*
X173609000Y-87476626D01*
X173609000Y-88519000D01*
X174652201Y-88519000D01*
X174774722Y-88312670D01*
X174684853Y-88066877D01*
X174548759Y-87843340D01*
X174371670Y-87650649D01*
X174160392Y-87496208D01*
X173923044Y-87385953D01*
X173815329Y-87353284D01*
X173609000Y-87476626D01*
X173355000Y-87476626D01*
X173148671Y-87353284D01*
X173040956Y-87385953D01*
X172803608Y-87496208D01*
X172592330Y-87650649D01*
X172415241Y-87843340D01*
X172279147Y-88066877D01*
X172189278Y-88312670D01*
X169017001Y-88312670D01*
X169017001Y-79756000D01*
X172140541Y-79756000D01*
X172166317Y-80017706D01*
X172242653Y-80269354D01*
X172366618Y-80501275D01*
X172533445Y-80704555D01*
X172736725Y-80871382D01*
X172968646Y-80995347D01*
X173220294Y-81071683D01*
X173416421Y-81091000D01*
X173547579Y-81091000D01*
X173743706Y-81071683D01*
X173995354Y-80995347D01*
X174227275Y-80871382D01*
X174430555Y-80704555D01*
X174585298Y-80516000D01*
X175864678Y-80516000D01*
X175902000Y-80519676D01*
X175939322Y-80516000D01*
X175939333Y-80516000D01*
X176050986Y-80505003D01*
X176194247Y-80461546D01*
X176326276Y-80390974D01*
X176442001Y-80296001D01*
X176465804Y-80266997D01*
X177803004Y-78929798D01*
X177832001Y-78906001D01*
X177926974Y-78790276D01*
X177946326Y-78754072D01*
X178192000Y-78754072D01*
X178316482Y-78741812D01*
X178436180Y-78705502D01*
X178546494Y-78646537D01*
X178643185Y-78567185D01*
X178722537Y-78470494D01*
X178781502Y-78360180D01*
X178787056Y-78341873D01*
X178853495Y-78408312D01*
X179104905Y-78576299D01*
X179384257Y-78692011D01*
X179680816Y-78751000D01*
X179983184Y-78751000D01*
X180279743Y-78692011D01*
X180559095Y-78576299D01*
X180810505Y-78408312D01*
X181024312Y-78194505D01*
X181192299Y-77943095D01*
X181308011Y-77663743D01*
X181367000Y-77367184D01*
X181367000Y-77064816D01*
X181308011Y-76768257D01*
X181192299Y-76488905D01*
X181024312Y-76237495D01*
X180810505Y-76023688D01*
X180559095Y-75855701D01*
X180279743Y-75739989D01*
X179983184Y-75681000D01*
X179680816Y-75681000D01*
X179384257Y-75739989D01*
X179104905Y-75855701D01*
X178853495Y-76023688D01*
X178787056Y-76090127D01*
X178781502Y-76071820D01*
X178722537Y-75961506D01*
X178643185Y-75864815D01*
X178546494Y-75785463D01*
X178436180Y-75726498D01*
X178316482Y-75690188D01*
X178192000Y-75677928D01*
X176392000Y-75677928D01*
X176267518Y-75690188D01*
X176147820Y-75726498D01*
X176037506Y-75785463D01*
X175940815Y-75864815D01*
X175861463Y-75961506D01*
X175802498Y-76071820D01*
X175766188Y-76191518D01*
X175753928Y-76316000D01*
X175753928Y-78116000D01*
X175766188Y-78240482D01*
X175802498Y-78360180D01*
X175861463Y-78470494D01*
X175940815Y-78567185D01*
X175982118Y-78601081D01*
X175587199Y-78996000D01*
X174585298Y-78996000D01*
X174430555Y-78807445D01*
X174227275Y-78640618D01*
X173995354Y-78516653D01*
X173743706Y-78440317D01*
X173547579Y-78421000D01*
X173416421Y-78421000D01*
X173220294Y-78440317D01*
X172968646Y-78516653D01*
X172736725Y-78640618D01*
X172533445Y-78807445D01*
X172366618Y-79010725D01*
X172242653Y-79242646D01*
X172166317Y-79494294D01*
X172140541Y-79756000D01*
X169017001Y-79756000D01*
X169017001Y-79067325D01*
X169020677Y-79030002D01*
X169017001Y-78992679D01*
X169017001Y-78992670D01*
X169006004Y-78881017D01*
X168962547Y-78737756D01*
X168956426Y-78726304D01*
X168891975Y-78605726D01*
X168820800Y-78519000D01*
X168797002Y-78490002D01*
X168768004Y-78466204D01*
X167771577Y-77469777D01*
X167833514Y-77436671D01*
X167905097Y-77192702D01*
X167092000Y-76379605D01*
X167077858Y-76393748D01*
X166898253Y-76214143D01*
X166912395Y-76200000D01*
X167271605Y-76200000D01*
X168084702Y-77013097D01*
X168328671Y-76941514D01*
X168449571Y-76686004D01*
X168518300Y-76411816D01*
X168532217Y-76129488D01*
X168490787Y-75849870D01*
X168400453Y-75597269D01*
X172740336Y-75597269D01*
X172799797Y-75831037D01*
X173038242Y-75941934D01*
X173293740Y-76004183D01*
X173556473Y-76015390D01*
X173816344Y-75975125D01*
X174063366Y-75884935D01*
X174164203Y-75831037D01*
X174223664Y-75597269D01*
X173482000Y-74855605D01*
X172740336Y-75597269D01*
X168400453Y-75597269D01*
X168395603Y-75583708D01*
X168328671Y-75458486D01*
X168084702Y-75386903D01*
X167271605Y-76200000D01*
X166912395Y-76200000D01*
X166099298Y-75386903D01*
X165855329Y-75458486D01*
X165841676Y-75487341D01*
X165706637Y-75285241D01*
X165628694Y-75207298D01*
X166278903Y-75207298D01*
X167092000Y-76020395D01*
X167905097Y-75207298D01*
X167833514Y-74963329D01*
X167578004Y-74842429D01*
X167303816Y-74773700D01*
X167021488Y-74759783D01*
X166741870Y-74801213D01*
X166475708Y-74896397D01*
X166350486Y-74963329D01*
X166278903Y-75207298D01*
X165628694Y-75207298D01*
X165506759Y-75085363D01*
X165271727Y-74928320D01*
X165010574Y-74820147D01*
X164733335Y-74765000D01*
X164450665Y-74765000D01*
X164173426Y-74820147D01*
X164082000Y-74858017D01*
X164082000Y-74750473D01*
X172142610Y-74750473D01*
X172182875Y-75010344D01*
X172273065Y-75257366D01*
X172326963Y-75358203D01*
X172560731Y-75417664D01*
X173302395Y-74676000D01*
X173661605Y-74676000D01*
X174403269Y-75417664D01*
X174637037Y-75358203D01*
X174747934Y-75119758D01*
X174810183Y-74864260D01*
X174821390Y-74601527D01*
X174781125Y-74341656D01*
X174690935Y-74094634D01*
X174637037Y-73993797D01*
X174403269Y-73934336D01*
X173661605Y-74676000D01*
X173302395Y-74676000D01*
X172560731Y-73934336D01*
X172326963Y-73993797D01*
X172216066Y-74232242D01*
X172153817Y-74487740D01*
X172142610Y-74750473D01*
X164082000Y-74750473D01*
X164082000Y-73754731D01*
X172740336Y-73754731D01*
X173482000Y-74496395D01*
X174223664Y-73754731D01*
X174164203Y-73520963D01*
X173925758Y-73410066D01*
X173670260Y-73347817D01*
X173407527Y-73336610D01*
X173147656Y-73376875D01*
X172900634Y-73467065D01*
X172799797Y-73520963D01*
X172740336Y-73754731D01*
X164082000Y-73754731D01*
X164082000Y-70978665D01*
X165737000Y-70978665D01*
X165737000Y-71261335D01*
X165792147Y-71538574D01*
X165900320Y-71799727D01*
X166057363Y-72034759D01*
X166257241Y-72234637D01*
X166492273Y-72391680D01*
X166753426Y-72499853D01*
X167030665Y-72555000D01*
X167313335Y-72555000D01*
X167590574Y-72499853D01*
X167851727Y-72391680D01*
X168086759Y-72234637D01*
X168208694Y-72112702D01*
X168858903Y-72112702D01*
X168930486Y-72356671D01*
X169185996Y-72477571D01*
X169460184Y-72546300D01*
X169742512Y-72560217D01*
X170022130Y-72518787D01*
X170288292Y-72423603D01*
X170413514Y-72356671D01*
X170485097Y-72112702D01*
X169672000Y-71299605D01*
X168858903Y-72112702D01*
X168208694Y-72112702D01*
X168286637Y-72034759D01*
X168420692Y-71834131D01*
X168435329Y-71861514D01*
X168679298Y-71933097D01*
X169492395Y-71120000D01*
X169851605Y-71120000D01*
X170664702Y-71933097D01*
X170908671Y-71861514D01*
X171029571Y-71606004D01*
X171098300Y-71331816D01*
X171112217Y-71049488D01*
X171070787Y-70769870D01*
X170975603Y-70503708D01*
X170908671Y-70378486D01*
X170664702Y-70306903D01*
X169851605Y-71120000D01*
X169492395Y-71120000D01*
X168679298Y-70306903D01*
X168435329Y-70378486D01*
X168421676Y-70407341D01*
X168286637Y-70205241D01*
X168208694Y-70127298D01*
X168858903Y-70127298D01*
X169672000Y-70940395D01*
X170485097Y-70127298D01*
X170413514Y-69883329D01*
X170158004Y-69762429D01*
X169883816Y-69693700D01*
X169601488Y-69679783D01*
X169321870Y-69721213D01*
X169055708Y-69816397D01*
X168930486Y-69883329D01*
X168858903Y-70127298D01*
X168208694Y-70127298D01*
X168086759Y-70005363D01*
X167851727Y-69848320D01*
X167590574Y-69740147D01*
X167313335Y-69685000D01*
X167030665Y-69685000D01*
X166753426Y-69740147D01*
X166492273Y-69848320D01*
X166257241Y-70005363D01*
X166057363Y-70205241D01*
X165900320Y-70440273D01*
X165792147Y-70701426D01*
X165737000Y-70978665D01*
X164082000Y-70978665D01*
X164082000Y-70971828D01*
X164185762Y-70902497D01*
X164374497Y-70713762D01*
X164522785Y-70491833D01*
X164624928Y-70245239D01*
X164677000Y-69983456D01*
X164677000Y-69716544D01*
X164624928Y-69454761D01*
X164522785Y-69208167D01*
X164374497Y-68986238D01*
X164185762Y-68797503D01*
X163963833Y-68649215D01*
X163717239Y-68547072D01*
X163455456Y-68495000D01*
X163188544Y-68495000D01*
X162926761Y-68547072D01*
X162680167Y-68649215D01*
X162458238Y-68797503D01*
X162269503Y-68986238D01*
X162121215Y-69208167D01*
X162052000Y-69375266D01*
X161982785Y-69208167D01*
X161834497Y-68986238D01*
X161645762Y-68797503D01*
X161423833Y-68649215D01*
X161177239Y-68547072D01*
X160915456Y-68495000D01*
X160648544Y-68495000D01*
X160386761Y-68547072D01*
X160140167Y-68649215D01*
X159918238Y-68797503D01*
X159729503Y-68986238D01*
X159581215Y-69208167D01*
X159512000Y-69375266D01*
X159442785Y-69208167D01*
X159294497Y-68986238D01*
X159105762Y-68797503D01*
X158883833Y-68649215D01*
X158637239Y-68547072D01*
X158375456Y-68495000D01*
X158108544Y-68495000D01*
X157846761Y-68547072D01*
X157600167Y-68649215D01*
X157378238Y-68797503D01*
X157189503Y-68986238D01*
X157041215Y-69208167D01*
X156939072Y-69454761D01*
X156887000Y-69716544D01*
X156887000Y-69983456D01*
X156939072Y-70245239D01*
X157041215Y-70491833D01*
X157189503Y-70713762D01*
X157378238Y-70902497D01*
X157600167Y-71050785D01*
X157846761Y-71152928D01*
X158108544Y-71205000D01*
X158375456Y-71205000D01*
X158637239Y-71152928D01*
X158883833Y-71050785D01*
X159105762Y-70902497D01*
X159294497Y-70713762D01*
X159442785Y-70491833D01*
X159512000Y-70324734D01*
X159581215Y-70491833D01*
X159729503Y-70713762D01*
X159918238Y-70902497D01*
X160140167Y-71050785D01*
X160386761Y-71152928D01*
X160648544Y-71205000D01*
X160915456Y-71205000D01*
X161037852Y-71180654D01*
X161047001Y-71189803D01*
X161047001Y-74885317D01*
X161043706Y-74884317D01*
X160847579Y-74865000D01*
X160716421Y-74865000D01*
X160520294Y-74884317D01*
X160268646Y-74960653D01*
X160036725Y-75084618D01*
X159833445Y-75251445D01*
X159666618Y-75454725D01*
X159542653Y-75686646D01*
X159466317Y-75938294D01*
X159440541Y-76200000D01*
X159466317Y-76461706D01*
X159542653Y-76713354D01*
X159666618Y-76945275D01*
X159833445Y-77148555D01*
X160036725Y-77315382D01*
X160268646Y-77439347D01*
X160520294Y-77515683D01*
X160716421Y-77535000D01*
X160847579Y-77535000D01*
X161043706Y-77515683D01*
X161047002Y-77514683D01*
X161047002Y-78701558D01*
X160913486Y-78675000D01*
X160650514Y-78675000D01*
X160392595Y-78726304D01*
X160149641Y-78826939D01*
X159930987Y-78973038D01*
X159745038Y-79158987D01*
X159684225Y-79250000D01*
X158016802Y-79250000D01*
X156203900Y-77437099D01*
X156334359Y-77383061D01*
X156553013Y-77236962D01*
X156738962Y-77051013D01*
X156885061Y-76832359D01*
X156985696Y-76589405D01*
X157037000Y-76331486D01*
X157037000Y-76068514D01*
X156985696Y-75810595D01*
X156885061Y-75567641D01*
X156738962Y-75348987D01*
X156553013Y-75163038D01*
X156334359Y-75016939D01*
X156091405Y-74916304D01*
X155833486Y-74865000D01*
X155570514Y-74865000D01*
X155312595Y-74916304D01*
X155069641Y-75016939D01*
X154850987Y-75163038D01*
X154665038Y-75348987D01*
X154518939Y-75567641D01*
X154464901Y-75698100D01*
X152338177Y-73571376D01*
X152344168Y-73556912D01*
X152407000Y-73241033D01*
X152407000Y-72918967D01*
X152344168Y-72603088D01*
X152220918Y-72305537D01*
X152041987Y-72037748D01*
X151814252Y-71810013D01*
X151546463Y-71631082D01*
X151248912Y-71507832D01*
X150933033Y-71445000D01*
X150610967Y-71445000D01*
X150295088Y-71507832D01*
X149997537Y-71631082D01*
X149729748Y-71810013D01*
X149502013Y-72037748D01*
X149323082Y-72305537D01*
X149317091Y-72320000D01*
X145726909Y-72320000D01*
X145720918Y-72305537D01*
X145541987Y-72037748D01*
X145314252Y-71810013D01*
X145046463Y-71631082D01*
X144748912Y-71507832D01*
X144433033Y-71445000D01*
X144110967Y-71445000D01*
X143795088Y-71507832D01*
X143497537Y-71631082D01*
X143229748Y-71810013D01*
X143002013Y-72037748D01*
X142823082Y-72305537D01*
X142699832Y-72603088D01*
X142637000Y-72918967D01*
X142637000Y-73241033D01*
X142699832Y-73556912D01*
X142823082Y-73854463D01*
X143002013Y-74122252D01*
X143229748Y-74349987D01*
X143497537Y-74528918D01*
X143795088Y-74652168D01*
X144110967Y-74715000D01*
X144433033Y-74715000D01*
X144748912Y-74652168D01*
X145046463Y-74528918D01*
X145314252Y-74349987D01*
X145541987Y-74122252D01*
X145720918Y-73854463D01*
X145726909Y-73840000D01*
X149317091Y-73840000D01*
X149323082Y-73854463D01*
X149502013Y-74122252D01*
X149729748Y-74349987D01*
X149997537Y-74528918D01*
X150012345Y-74535052D01*
X150022997Y-74643198D01*
X150055538Y-74750473D01*
X150066454Y-74786459D01*
X150137026Y-74918489D01*
X150173826Y-74963329D01*
X150231999Y-75034214D01*
X150261002Y-75058017D01*
X150987002Y-75784017D01*
X150987002Y-78621152D01*
X150903309Y-78595764D01*
X150692492Y-78575000D01*
X150551508Y-78575000D01*
X150340691Y-78595764D01*
X150070192Y-78677818D01*
X149820899Y-78811068D01*
X149602392Y-78990392D01*
X149423068Y-79208899D01*
X149289818Y-79458192D01*
X149207764Y-79728691D01*
X149180057Y-80010000D01*
X149207764Y-80291309D01*
X149289818Y-80561808D01*
X149423068Y-80811101D01*
X149602392Y-81029608D01*
X149820899Y-81208932D01*
X149953858Y-81280000D01*
X149820899Y-81351068D01*
X149602392Y-81530392D01*
X149423068Y-81748899D01*
X149289818Y-81998192D01*
X149207764Y-82268691D01*
X149180057Y-82550000D01*
X149207764Y-82831309D01*
X149289818Y-83101808D01*
X149423068Y-83351101D01*
X149602392Y-83569608D01*
X149820899Y-83748932D01*
X149953858Y-83820000D01*
X149820899Y-83891068D01*
X149602392Y-84070392D01*
X149423068Y-84288899D01*
X149289818Y-84538192D01*
X149207764Y-84808691D01*
X149180057Y-85090000D01*
X149207764Y-85371309D01*
X149289818Y-85641808D01*
X149423068Y-85891101D01*
X149602392Y-86109608D01*
X149820899Y-86288932D01*
X149953858Y-86360000D01*
X149820899Y-86431068D01*
X149602392Y-86610392D01*
X149423068Y-86828899D01*
X149289818Y-87078192D01*
X149207764Y-87348691D01*
X149180057Y-87630000D01*
X149207764Y-87911309D01*
X149289818Y-88181808D01*
X149423068Y-88431101D01*
X149602392Y-88649608D01*
X149820899Y-88828932D01*
X149953858Y-88900000D01*
X149820899Y-88971068D01*
X149602392Y-89150392D01*
X149423068Y-89368899D01*
X149289818Y-89618192D01*
X149207764Y-89888691D01*
X149180057Y-90170000D01*
X149207764Y-90451309D01*
X149289818Y-90721808D01*
X149423068Y-90971101D01*
X149602392Y-91189608D01*
X149820899Y-91368932D01*
X149953858Y-91440000D01*
X149820899Y-91511068D01*
X149602392Y-91690392D01*
X149423068Y-91908899D01*
X149289818Y-92158192D01*
X149207764Y-92428691D01*
X149180057Y-92710000D01*
X149207764Y-92991309D01*
X149289818Y-93261808D01*
X149423068Y-93511101D01*
X149602392Y-93729608D01*
X149820899Y-93908932D01*
X149953858Y-93980000D01*
X149820899Y-94051068D01*
X149602392Y-94230392D01*
X149423068Y-94448899D01*
X149289818Y-94698192D01*
X149207764Y-94968691D01*
X149180057Y-95250000D01*
X149207764Y-95531309D01*
X149233151Y-95615001D01*
X146855692Y-95615001D01*
X146818369Y-95611325D01*
X146781046Y-95615001D01*
X146781036Y-95615001D01*
X146669383Y-95625998D01*
X146529026Y-95668574D01*
X146526122Y-95669455D01*
X146394092Y-95740027D01*
X146310452Y-95808669D01*
X146278368Y-95835000D01*
X146254570Y-95863998D01*
X145337011Y-96781557D01*
X145337011Y-82497331D01*
X145340687Y-82460008D01*
X145337011Y-82422685D01*
X145337011Y-82422676D01*
X145326014Y-82311023D01*
X145282557Y-82167762D01*
X145211985Y-82035733D01*
X145117012Y-81920008D01*
X145088015Y-81896211D01*
X144340813Y-81149010D01*
X144391502Y-81054180D01*
X144427812Y-80934482D01*
X144440072Y-80810000D01*
X144440072Y-79210000D01*
X144427812Y-79085518D01*
X144391502Y-78965820D01*
X144332537Y-78855506D01*
X144253185Y-78758815D01*
X144156494Y-78679463D01*
X144046180Y-78620498D01*
X143926482Y-78584188D01*
X143802000Y-78571928D01*
X142202000Y-78571928D01*
X142077518Y-78584188D01*
X141957820Y-78620498D01*
X141847506Y-78679463D01*
X141750815Y-78758815D01*
X141671463Y-78855506D01*
X141612498Y-78965820D01*
X141576188Y-79085518D01*
X141563928Y-79210000D01*
X141563928Y-79355674D01*
X141527724Y-79375026D01*
X141411999Y-79469999D01*
X141388201Y-79498997D01*
X140222200Y-80664999D01*
X139199025Y-80664999D01*
X139254182Y-80561808D01*
X139336236Y-80291309D01*
X139363943Y-80010000D01*
X139336236Y-79728691D01*
X139254182Y-79458192D01*
X139120932Y-79208899D01*
X138941608Y-78990392D01*
X138723101Y-78811068D01*
X138473808Y-78677818D01*
X138203309Y-78595764D01*
X137992492Y-78575000D01*
X137851508Y-78575000D01*
X137640691Y-78595764D01*
X137370192Y-78677818D01*
X137120899Y-78811068D01*
X136902392Y-78990392D01*
X136723068Y-79208899D01*
X136589818Y-79458192D01*
X136507764Y-79728691D01*
X136480057Y-80010000D01*
X136507764Y-80291309D01*
X136589818Y-80561808D01*
X136644975Y-80664999D01*
X131740072Y-80664999D01*
X131740072Y-79210000D01*
X131727812Y-79085518D01*
X131691502Y-78965820D01*
X131632537Y-78855506D01*
X131553185Y-78758815D01*
X131456494Y-78679463D01*
X131346180Y-78620498D01*
X131226482Y-78584188D01*
X131102000Y-78571928D01*
X129936999Y-78571928D01*
X129936999Y-72584749D01*
X130233108Y-72662384D01*
X130554595Y-72681718D01*
X130873675Y-72637961D01*
X131178088Y-72532795D01*
X131352044Y-72439814D01*
X131447808Y-72175413D01*
X130492000Y-71219605D01*
X130477858Y-71233748D01*
X130298253Y-71054143D01*
X130312395Y-71040000D01*
X130298253Y-71025858D01*
X130477858Y-70846253D01*
X130492000Y-70860395D01*
X130506143Y-70846253D01*
X130685748Y-71025858D01*
X130671605Y-71040000D01*
X131627413Y-71995808D01*
X131891814Y-71900044D01*
X132032704Y-71610429D01*
X132114384Y-71298892D01*
X132133718Y-70977405D01*
X132089961Y-70658325D01*
X131984795Y-70353912D01*
X131891814Y-70179956D01*
X131627415Y-70084193D01*
X131686619Y-70024989D01*
X132402187Y-70024989D01*
X132925823Y-70548625D01*
X132919832Y-70563088D01*
X132857000Y-70878967D01*
X132857000Y-71201033D01*
X132919832Y-71516912D01*
X133043082Y-71814463D01*
X133222013Y-72082252D01*
X133449748Y-72309987D01*
X133717537Y-72488918D01*
X134015088Y-72612168D01*
X134330967Y-72675000D01*
X134653033Y-72675000D01*
X134968912Y-72612168D01*
X135266463Y-72488918D01*
X135534252Y-72309987D01*
X135761987Y-72082252D01*
X135940918Y-71814463D01*
X136064168Y-71516912D01*
X136127000Y-71201033D01*
X136127000Y-70878967D01*
X136064168Y-70563088D01*
X135940918Y-70265537D01*
X135761987Y-69997748D01*
X135534252Y-69770013D01*
X135452538Y-69715413D01*
X143316192Y-69715413D01*
X143411956Y-69979814D01*
X143701571Y-70120704D01*
X144013108Y-70202384D01*
X144334595Y-70221718D01*
X144653675Y-70177961D01*
X144958088Y-70072795D01*
X145132044Y-69979814D01*
X145227808Y-69715413D01*
X149816192Y-69715413D01*
X149911956Y-69979814D01*
X150201571Y-70120704D01*
X150513108Y-70202384D01*
X150834595Y-70221718D01*
X151153675Y-70177961D01*
X151458088Y-70072795D01*
X151632044Y-69979814D01*
X151727808Y-69715413D01*
X150772000Y-68759605D01*
X149816192Y-69715413D01*
X145227808Y-69715413D01*
X144272000Y-68759605D01*
X143316192Y-69715413D01*
X135452538Y-69715413D01*
X135266463Y-69591082D01*
X134968912Y-69467832D01*
X134653033Y-69405000D01*
X134330967Y-69405000D01*
X134015088Y-69467832D01*
X134000625Y-69473823D01*
X133280792Y-68753991D01*
X133256990Y-68724988D01*
X133156594Y-68642595D01*
X142630282Y-68642595D01*
X142674039Y-68961675D01*
X142779205Y-69266088D01*
X142872186Y-69440044D01*
X143136587Y-69535808D01*
X144092395Y-68580000D01*
X144451605Y-68580000D01*
X145407413Y-69535808D01*
X145671814Y-69440044D01*
X145812704Y-69150429D01*
X145894384Y-68838892D01*
X145906189Y-68642595D01*
X149130282Y-68642595D01*
X149174039Y-68961675D01*
X149279205Y-69266088D01*
X149372186Y-69440044D01*
X149636587Y-69535808D01*
X150592395Y-68580000D01*
X150951605Y-68580000D01*
X151907413Y-69535808D01*
X152171814Y-69440044D01*
X152312704Y-69150429D01*
X152394384Y-68838892D01*
X152413718Y-68517405D01*
X152369961Y-68198325D01*
X152264795Y-67893912D01*
X152171814Y-67719956D01*
X151907413Y-67624192D01*
X150951605Y-68580000D01*
X150592395Y-68580000D01*
X149636587Y-67624192D01*
X149372186Y-67719956D01*
X149231296Y-68009571D01*
X149149616Y-68321108D01*
X149130282Y-68642595D01*
X145906189Y-68642595D01*
X145913718Y-68517405D01*
X145869961Y-68198325D01*
X145764795Y-67893912D01*
X145671814Y-67719956D01*
X145407413Y-67624192D01*
X144451605Y-68580000D01*
X144092395Y-68580000D01*
X143136587Y-67624192D01*
X142872186Y-67719956D01*
X142731296Y-68009571D01*
X142649616Y-68321108D01*
X142630282Y-68642595D01*
X133156594Y-68642595D01*
X133141265Y-68630015D01*
X133009236Y-68559443D01*
X132865975Y-68515986D01*
X132754322Y-68504989D01*
X132754311Y-68504989D01*
X132716989Y-68501313D01*
X132679667Y-68504989D01*
X123656511Y-68504989D01*
X123619188Y-68501313D01*
X123581865Y-68504989D01*
X123581856Y-68504989D01*
X123470203Y-68515986D01*
X123326942Y-68559443D01*
X123194912Y-68630015D01*
X123111272Y-68698657D01*
X123079188Y-68724988D01*
X123055390Y-68753986D01*
X112888980Y-78920397D01*
X112859982Y-78944195D01*
X112836184Y-78973193D01*
X112836183Y-78973194D01*
X112765008Y-79059920D01*
X112694436Y-79191950D01*
X112672361Y-79264725D01*
X112652038Y-79331724D01*
X112650980Y-79335211D01*
X112636306Y-79484196D01*
X111912000Y-79484196D01*
X111912000Y-64520817D01*
X113802000Y-64520817D01*
X113802000Y-65019183D01*
X113899226Y-65507974D01*
X114089943Y-65968405D01*
X114366820Y-66382781D01*
X114719219Y-66735180D01*
X115133595Y-67012057D01*
X115594026Y-67202774D01*
X116082817Y-67300000D01*
X116581183Y-67300000D01*
X117069974Y-67202774D01*
X117530405Y-67012057D01*
X117944781Y-66735180D01*
X118297180Y-66382781D01*
X118574057Y-65968405D01*
X118764774Y-65507974D01*
X118857859Y-65040000D01*
X124853928Y-65040000D01*
X124853928Y-67040000D01*
X124866188Y-67164482D01*
X124902498Y-67284180D01*
X124961463Y-67394494D01*
X125040815Y-67491185D01*
X125137506Y-67570537D01*
X125247820Y-67629502D01*
X125367518Y-67665812D01*
X125492000Y-67678072D01*
X127492000Y-67678072D01*
X127616482Y-67665812D01*
X127736180Y-67629502D01*
X127846494Y-67570537D01*
X127943185Y-67491185D01*
X128022537Y-67394494D01*
X128081502Y-67284180D01*
X128117812Y-67164482D01*
X128130072Y-67040000D01*
X128130072Y-65878967D01*
X128857000Y-65878967D01*
X128857000Y-66201033D01*
X128919832Y-66516912D01*
X129043082Y-66814463D01*
X129222013Y-67082252D01*
X129449748Y-67309987D01*
X129717537Y-67488918D01*
X130015088Y-67612168D01*
X130330967Y-67675000D01*
X130653033Y-67675000D01*
X130968912Y-67612168D01*
X131266463Y-67488918D01*
X131534252Y-67309987D01*
X131761987Y-67082252D01*
X131940918Y-66814463D01*
X132064168Y-66516912D01*
X132127000Y-66201033D01*
X132127000Y-65878967D01*
X132857000Y-65878967D01*
X132857000Y-66201033D01*
X132919832Y-66516912D01*
X133043082Y-66814463D01*
X133222013Y-67082252D01*
X133449748Y-67309987D01*
X133717537Y-67488918D01*
X134015088Y-67612168D01*
X134330967Y-67675000D01*
X134653033Y-67675000D01*
X134968912Y-67612168D01*
X135266463Y-67488918D01*
X135332808Y-67444587D01*
X143316192Y-67444587D01*
X144272000Y-68400395D01*
X145227808Y-67444587D01*
X149816192Y-67444587D01*
X150772000Y-68400395D01*
X151727808Y-67444587D01*
X151632044Y-67180186D01*
X151342429Y-67039296D01*
X151030892Y-66957616D01*
X150709405Y-66938282D01*
X150390325Y-66982039D01*
X150085912Y-67087205D01*
X149911956Y-67180186D01*
X149816192Y-67444587D01*
X145227808Y-67444587D01*
X145132044Y-67180186D01*
X144842429Y-67039296D01*
X144530892Y-66957616D01*
X144209405Y-66938282D01*
X143890325Y-66982039D01*
X143585912Y-67087205D01*
X143411956Y-67180186D01*
X143316192Y-67444587D01*
X135332808Y-67444587D01*
X135534252Y-67309987D01*
X135761987Y-67082252D01*
X135940918Y-66814463D01*
X136064168Y-66516912D01*
X136127000Y-66201033D01*
X136127000Y-65878967D01*
X136064168Y-65563088D01*
X135940918Y-65265537D01*
X135761987Y-64997748D01*
X135534252Y-64770013D01*
X135266463Y-64591082D01*
X135096829Y-64520817D01*
X176032000Y-64520817D01*
X176032000Y-65019183D01*
X176129226Y-65507974D01*
X176319943Y-65968405D01*
X176596820Y-66382781D01*
X176949219Y-66735180D01*
X177363595Y-67012057D01*
X177824026Y-67202774D01*
X178312817Y-67300000D01*
X178811183Y-67300000D01*
X179299974Y-67202774D01*
X179760405Y-67012057D01*
X180174781Y-66735180D01*
X180527180Y-66382781D01*
X180804057Y-65968405D01*
X180994774Y-65507974D01*
X181092000Y-65019183D01*
X181092000Y-64520817D01*
X180994774Y-64032026D01*
X180804057Y-63571595D01*
X180527180Y-63157219D01*
X180174781Y-62804820D01*
X179760405Y-62527943D01*
X179299974Y-62337226D01*
X178811183Y-62240000D01*
X178312817Y-62240000D01*
X177824026Y-62337226D01*
X177363595Y-62527943D01*
X176949219Y-62804820D01*
X176596820Y-63157219D01*
X176319943Y-63571595D01*
X176129226Y-64032026D01*
X176032000Y-64520817D01*
X135096829Y-64520817D01*
X134968912Y-64467832D01*
X134653033Y-64405000D01*
X134330967Y-64405000D01*
X134015088Y-64467832D01*
X133717537Y-64591082D01*
X133449748Y-64770013D01*
X133222013Y-64997748D01*
X133043082Y-65265537D01*
X132919832Y-65563088D01*
X132857000Y-65878967D01*
X132127000Y-65878967D01*
X132064168Y-65563088D01*
X131940918Y-65265537D01*
X131761987Y-64997748D01*
X131534252Y-64770013D01*
X131266463Y-64591082D01*
X130968912Y-64467832D01*
X130653033Y-64405000D01*
X130330967Y-64405000D01*
X130015088Y-64467832D01*
X129717537Y-64591082D01*
X129449748Y-64770013D01*
X129222013Y-64997748D01*
X129043082Y-65265537D01*
X128919832Y-65563088D01*
X128857000Y-65878967D01*
X128130072Y-65878967D01*
X128130072Y-65040000D01*
X128117812Y-64915518D01*
X128081502Y-64795820D01*
X128022537Y-64685506D01*
X127943185Y-64588815D01*
X127846494Y-64509463D01*
X127736180Y-64450498D01*
X127616482Y-64414188D01*
X127492000Y-64401928D01*
X125492000Y-64401928D01*
X125367518Y-64414188D01*
X125247820Y-64450498D01*
X125137506Y-64509463D01*
X125040815Y-64588815D01*
X124961463Y-64685506D01*
X124902498Y-64795820D01*
X124866188Y-64915518D01*
X124853928Y-65040000D01*
X118857859Y-65040000D01*
X118862000Y-65019183D01*
X118862000Y-64520817D01*
X118764774Y-64032026D01*
X118574057Y-63571595D01*
X118297180Y-63157219D01*
X117944781Y-62804820D01*
X117530405Y-62527943D01*
X117069974Y-62337226D01*
X116581183Y-62240000D01*
X116082817Y-62240000D01*
X115594026Y-62337226D01*
X115133595Y-62527943D01*
X114719219Y-62804820D01*
X114366820Y-63157219D01*
X114089943Y-63571595D01*
X113899226Y-64032026D01*
X113802000Y-64520817D01*
X111912000Y-64520817D01*
X111912000Y-63532279D01*
X111975096Y-62888778D01*
X112152606Y-62300836D01*
X112440937Y-61758564D01*
X112829094Y-61282636D01*
X113302314Y-60891155D01*
X113842552Y-60599049D01*
X114429244Y-60417437D01*
X115070879Y-60350000D01*
X179799721Y-60350000D01*
X180443222Y-60413096D01*
X180443222Y-60413096D01*
G37*
X180443222Y-60413096D02*
X181031164Y-60590606D01*
X181573436Y-60878937D01*
X182049364Y-61267094D01*
X182440845Y-61740314D01*
X182732951Y-62280552D01*
X182914563Y-62867244D01*
X182982001Y-63508888D01*
X182982000Y-119347721D01*
X182918904Y-119991221D01*
X182741394Y-120579164D01*
X182453063Y-121121436D01*
X182064906Y-121597364D01*
X181591686Y-121988845D01*
X181051449Y-122280950D01*
X180464756Y-122462563D01*
X179823130Y-122530000D01*
X115094279Y-122530000D01*
X114450779Y-122466904D01*
X113862836Y-122289394D01*
X113320564Y-122001063D01*
X112844636Y-121612906D01*
X112453155Y-121139686D01*
X112161050Y-120599449D01*
X111979437Y-120012756D01*
X111912000Y-119371130D01*
X111912000Y-117860817D01*
X113802000Y-117860817D01*
X113802000Y-118359183D01*
X113899226Y-118847974D01*
X114089943Y-119308405D01*
X114366820Y-119722781D01*
X114719219Y-120075180D01*
X115133595Y-120352057D01*
X115594026Y-120542774D01*
X116082817Y-120640000D01*
X116581183Y-120640000D01*
X117069974Y-120542774D01*
X117530405Y-120352057D01*
X117944781Y-120075180D01*
X118297180Y-119722781D01*
X118574057Y-119308405D01*
X118764774Y-118847974D01*
X118862000Y-118359183D01*
X118862000Y-117860817D01*
X118764774Y-117372026D01*
X118574057Y-116911595D01*
X118297180Y-116497219D01*
X117944781Y-116144820D01*
X117530405Y-115867943D01*
X117069974Y-115677226D01*
X116581183Y-115580000D01*
X116082817Y-115580000D01*
X115594026Y-115677226D01*
X115133595Y-115867943D01*
X114719219Y-116144820D01*
X114366820Y-116497219D01*
X114089943Y-116911595D01*
X113899226Y-117372026D01*
X113802000Y-117860817D01*
X111912000Y-117860817D01*
X111912000Y-79484196D01*
X112636306Y-79484196D01*
X112639983Y-79521529D01*
X112639982Y-102440660D01*
X112636306Y-102477982D01*
X112639982Y-102515304D01*
X112639982Y-102515314D01*
X112650979Y-102626967D01*
X112685819Y-102741820D01*
X112694436Y-102770228D01*
X112765008Y-102902258D01*
X112790034Y-102932752D01*
X112859981Y-103017983D01*
X112888985Y-103041786D01*
X118741292Y-108894094D01*
X118727764Y-108938691D01*
X118700057Y-109220000D01*
X118727764Y-109501309D01*
X118809818Y-109771808D01*
X118943068Y-110021101D01*
X119122392Y-110239608D01*
X119340899Y-110418932D01*
X119590192Y-110552182D01*
X119860691Y-110634236D01*
X120071508Y-110655000D01*
X120212492Y-110655000D01*
X120423309Y-110634236D01*
X120693808Y-110552182D01*
X120943101Y-110418932D01*
X121161608Y-110239608D01*
X121340932Y-110021101D01*
X121474182Y-109771808D01*
X121556236Y-109501309D01*
X121583943Y-109220000D01*
X121556236Y-108938691D01*
X121474182Y-108668192D01*
X121340932Y-108418899D01*
X121161608Y-108200392D01*
X120943101Y-108021068D01*
X120810142Y-107950000D01*
X120943101Y-107878932D01*
X121161608Y-107699608D01*
X121340932Y-107481101D01*
X121474182Y-107231808D01*
X121556236Y-106961309D01*
X121583943Y-106680000D01*
X121556236Y-106398691D01*
X121474182Y-106128192D01*
X121340932Y-105878899D01*
X121161608Y-105660392D01*
X120943101Y-105481068D01*
X120810142Y-105410000D01*
X120943101Y-105338932D01*
X121161608Y-105159608D01*
X121340932Y-104941101D01*
X121474182Y-104691808D01*
X121556236Y-104421309D01*
X121583943Y-104140000D01*
X121556236Y-103858691D01*
X121474182Y-103588192D01*
X121340932Y-103338899D01*
X121161608Y-103120392D01*
X121048518Y-103027581D01*
X121066482Y-103025812D01*
X121186180Y-102989502D01*
X121296494Y-102930537D01*
X121393185Y-102851185D01*
X121472537Y-102754494D01*
X121531502Y-102644180D01*
X121567812Y-102524482D01*
X121580072Y-102400000D01*
X121577000Y-101885750D01*
X121418250Y-101727000D01*
X120269000Y-101727000D01*
X120269000Y-101747000D01*
X120015000Y-101747000D01*
X120015000Y-101727000D01*
X118865750Y-101727000D01*
X118834776Y-101757974D01*
X117876802Y-100800000D01*
X118703928Y-100800000D01*
X118707000Y-101314250D01*
X118865750Y-101473000D01*
X120015000Y-101473000D01*
X120015000Y-100323750D01*
X120269000Y-100323750D01*
X120269000Y-101473000D01*
X121418250Y-101473000D01*
X121577000Y-101314250D01*
X121580072Y-100800000D01*
X121567812Y-100675518D01*
X121531502Y-100555820D01*
X121472537Y-100445506D01*
X121393185Y-100348815D01*
X121296494Y-100269463D01*
X121186180Y-100210498D01*
X121066482Y-100174188D01*
X120942000Y-100161928D01*
X120427750Y-100165000D01*
X120269000Y-100323750D01*
X120015000Y-100323750D01*
X119856250Y-100165000D01*
X119342000Y-100161928D01*
X119217518Y-100174188D01*
X119097820Y-100210498D01*
X118987506Y-100269463D01*
X118890815Y-100348815D01*
X118811463Y-100445506D01*
X118752498Y-100555820D01*
X118716188Y-100675518D01*
X118703928Y-100800000D01*
X117876802Y-100800000D01*
X115060000Y-97983199D01*
X115060000Y-95914401D01*
X115133068Y-96051101D01*
X115312392Y-96269608D01*
X115530899Y-96448932D01*
X115780192Y-96582182D01*
X116050691Y-96664236D01*
X116261508Y-96685000D01*
X116402492Y-96685000D01*
X116613309Y-96664236D01*
X116883808Y-96582182D01*
X117133101Y-96448932D01*
X117351608Y-96269608D01*
X117530932Y-96051101D01*
X117664182Y-95801808D01*
X117746236Y-95531309D01*
X117773943Y-95250000D01*
X117746236Y-94968691D01*
X117664182Y-94698192D01*
X117530932Y-94448899D01*
X117351608Y-94230392D01*
X117133101Y-94051068D01*
X117000142Y-93980000D01*
X117133101Y-93908932D01*
X117351608Y-93729608D01*
X117530932Y-93511101D01*
X117664182Y-93261808D01*
X117746236Y-92991309D01*
X117773943Y-92710000D01*
X117746236Y-92428691D01*
X117664182Y-92158192D01*
X117530932Y-91908899D01*
X117351608Y-91690392D01*
X117133101Y-91511068D01*
X117000142Y-91440000D01*
X117133101Y-91368932D01*
X117351608Y-91189608D01*
X117530932Y-90971101D01*
X117664182Y-90721808D01*
X117746236Y-90451309D01*
X117773943Y-90170000D01*
X117746236Y-89888691D01*
X117664182Y-89618192D01*
X117530932Y-89368899D01*
X117351608Y-89150392D01*
X117133101Y-88971068D01*
X117000142Y-88900000D01*
X117133101Y-88828932D01*
X117351608Y-88649608D01*
X117530932Y-88431101D01*
X117637300Y-88232101D01*
X121211201Y-91806003D01*
X121235000Y-91835002D01*
X121263998Y-91858800D01*
X121350724Y-91929975D01*
X121473725Y-91995721D01*
X121482754Y-92000547D01*
X121626015Y-92044004D01*
X121737668Y-92055001D01*
X121737678Y-92055001D01*
X121775001Y-92058677D01*
X121812324Y-92055001D01*
X122674975Y-92055001D01*
X122619818Y-92158192D01*
X122537764Y-92428691D01*
X122510057Y-92710000D01*
X122537764Y-92991309D01*
X122619818Y-93261808D01*
X122753068Y-93511101D01*
X122932392Y-93729608D01*
X123150899Y-93908932D01*
X123283858Y-93980000D01*
X123150899Y-94051068D01*
X122932392Y-94230392D01*
X122753068Y-94448899D01*
X122619818Y-94698192D01*
X122537764Y-94968691D01*
X122510057Y-95250000D01*
X122537764Y-95531309D01*
X122619818Y-95801808D01*
X122753068Y-96051101D01*
X122932392Y-96269608D01*
X123150899Y-96448932D01*
X123400192Y-96582182D01*
X123670691Y-96664236D01*
X123881508Y-96685000D01*
X124022492Y-96685000D01*
X124233309Y-96664236D01*
X124503808Y-96582182D01*
X124753101Y-96448932D01*
X124971608Y-96269608D01*
X125150932Y-96051101D01*
X125284182Y-95801808D01*
X125366236Y-95531309D01*
X125393943Y-95250000D01*
X125366236Y-94968691D01*
X125284182Y-94698192D01*
X125150932Y-94448899D01*
X124971608Y-94230392D01*
X124753101Y-94051068D01*
X124620142Y-93980000D01*
X124753101Y-93908932D01*
X124971608Y-93729608D01*
X125150932Y-93511101D01*
X125284182Y-93261808D01*
X125366236Y-92991309D01*
X125393943Y-92710000D01*
X125366236Y-92428691D01*
X125284182Y-92158192D01*
X125229025Y-92055001D01*
X128572200Y-92055001D01*
X128901292Y-92384094D01*
X128887764Y-92428691D01*
X128860057Y-92710000D01*
X128887764Y-92991309D01*
X128969818Y-93261808D01*
X129103068Y-93511101D01*
X129282392Y-93729608D01*
X129500899Y-93908932D01*
X129633858Y-93980000D01*
X129500899Y-94051068D01*
X129282392Y-94230392D01*
X129103068Y-94448899D01*
X128969818Y-94698192D01*
X128887764Y-94968691D01*
X128860057Y-95250000D01*
X128887764Y-95531309D01*
X128969818Y-95801808D01*
X129103068Y-96051101D01*
X129282392Y-96269608D01*
X129500899Y-96448932D01*
X129750192Y-96582182D01*
X130020691Y-96664236D01*
X130231508Y-96685000D01*
X130372492Y-96685000D01*
X130583309Y-96664236D01*
X130853808Y-96582182D01*
X131103101Y-96448932D01*
X131321608Y-96269608D01*
X131500932Y-96051101D01*
X131634182Y-95801808D01*
X131716236Y-95531309D01*
X131743943Y-95250000D01*
X131716236Y-94968691D01*
X131634182Y-94698192D01*
X131500932Y-94448899D01*
X131321608Y-94230392D01*
X131103101Y-94051068D01*
X130970142Y-93980000D01*
X131103101Y-93908932D01*
X131321608Y-93729608D01*
X131500932Y-93511101D01*
X131634182Y-93261808D01*
X131716236Y-92991309D01*
X131743943Y-92710000D01*
X131716236Y-92428691D01*
X131634182Y-92158192D01*
X131500932Y-91908899D01*
X131321608Y-91690392D01*
X131103101Y-91511068D01*
X130970142Y-91440000D01*
X131103101Y-91368932D01*
X131321608Y-91189608D01*
X131500932Y-90971101D01*
X131634182Y-90721808D01*
X131716236Y-90451309D01*
X131743943Y-90170000D01*
X131741402Y-90144204D01*
X135943202Y-94346004D01*
X135967000Y-94375002D01*
X135995998Y-94398800D01*
X136082725Y-94469975D01*
X136214754Y-94540547D01*
X136358015Y-94584004D01*
X136507001Y-94598678D01*
X136544334Y-94595001D01*
X136644975Y-94595001D01*
X136589818Y-94698192D01*
X136507764Y-94968691D01*
X136480057Y-95250000D01*
X136507764Y-95531309D01*
X136589818Y-95801808D01*
X136723068Y-96051101D01*
X136902392Y-96269608D01*
X137120899Y-96448932D01*
X137162001Y-96470901D01*
X137162000Y-97870200D01*
X129024036Y-106008165D01*
X128993037Y-105942580D01*
X128825519Y-105716586D01*
X128617131Y-105527615D01*
X128425318Y-105412579D01*
X128563101Y-105338932D01*
X128781608Y-105159608D01*
X128960932Y-104941101D01*
X129094182Y-104691808D01*
X129176236Y-104421309D01*
X129203943Y-104140000D01*
X129176236Y-103858691D01*
X129094182Y-103588192D01*
X128960932Y-103338899D01*
X128781608Y-103120392D01*
X128563101Y-102941068D01*
X128430142Y-102870000D01*
X128563101Y-102798932D01*
X128781608Y-102619608D01*
X128960932Y-102401101D01*
X129094182Y-102151808D01*
X129176236Y-101881309D01*
X129203943Y-101600000D01*
X129176236Y-101318691D01*
X129094182Y-101048192D01*
X128960932Y-100798899D01*
X128781608Y-100580392D01*
X128563101Y-100401068D01*
X128313808Y-100267818D01*
X128043309Y-100185764D01*
X127832492Y-100165000D01*
X127691508Y-100165000D01*
X127480691Y-100185764D01*
X127210192Y-100267818D01*
X126960899Y-100401068D01*
X126742392Y-100580392D01*
X126563068Y-100798899D01*
X126429818Y-101048192D01*
X126347764Y-101318691D01*
X126320057Y-101600000D01*
X126347764Y-101881309D01*
X126429818Y-102151808D01*
X126563068Y-102401101D01*
X126742392Y-102619608D01*
X126960899Y-102798932D01*
X127093858Y-102870000D01*
X126960899Y-102941068D01*
X126742392Y-103120392D01*
X126563068Y-103338899D01*
X126429818Y-103588192D01*
X126347764Y-103858691D01*
X126320057Y-104140000D01*
X126347764Y-104421309D01*
X126429818Y-104691808D01*
X126563068Y-104941101D01*
X126742392Y-105159608D01*
X126960899Y-105338932D01*
X127098682Y-105412579D01*
X126906869Y-105527615D01*
X126698481Y-105716586D01*
X126530963Y-105942580D01*
X126410754Y-106196913D01*
X126370096Y-106330961D01*
X126492085Y-106553000D01*
X127635000Y-106553000D01*
X127635000Y-106533000D01*
X127889000Y-106533000D01*
X127889000Y-106553000D01*
X127909000Y-106553000D01*
X127909000Y-106807000D01*
X127889000Y-106807000D01*
X127889000Y-106827000D01*
X127635000Y-106827000D01*
X127635000Y-106807000D01*
X126492085Y-106807000D01*
X126370096Y-107029039D01*
X126410754Y-107163087D01*
X126530963Y-107417420D01*
X126656039Y-107586157D01*
X123440998Y-110801199D01*
X123412000Y-110824997D01*
X123388202Y-110853995D01*
X123388201Y-110853996D01*
X123317026Y-110940722D01*
X123246454Y-111072752D01*
X123217478Y-111168276D01*
X123204603Y-111210723D01*
X123202998Y-111216013D01*
X123188324Y-111364998D01*
X123192001Y-111402330D01*
X123192000Y-116722913D01*
X123077518Y-116734188D01*
X122957820Y-116770498D01*
X122847506Y-116829463D01*
X122750815Y-116908815D01*
X122671463Y-117005506D01*
X122612498Y-117115820D01*
X122576188Y-117235518D01*
X122563928Y-117360000D01*
X122563928Y-118860000D01*
X122576188Y-118984482D01*
X122612498Y-119104180D01*
X122671463Y-119214494D01*
X122750815Y-119311185D01*
X122847506Y-119390537D01*
X122957820Y-119449502D01*
X123077518Y-119485812D01*
X123202000Y-119498072D01*
X124702000Y-119498072D01*
X124826482Y-119485812D01*
X124946180Y-119449502D01*
X125056494Y-119390537D01*
X125112101Y-119344902D01*
X125913212Y-120146014D01*
X125937010Y-120175012D01*
X126052735Y-120269985D01*
X126184764Y-120340557D01*
X126328025Y-120384014D01*
X126439678Y-120395011D01*
X126439687Y-120395011D01*
X126477010Y-120398687D01*
X126514333Y-120395011D01*
X167342828Y-120395011D01*
X167380150Y-120398687D01*
X167417472Y-120395011D01*
X167417483Y-120395011D01*
X167529136Y-120384014D01*
X167672397Y-120340557D01*
X167804426Y-120269985D01*
X167920151Y-120175012D01*
X167943954Y-120146009D01*
X170028018Y-118061946D01*
X170057011Y-118038152D01*
X170080805Y-118009159D01*
X170080809Y-118009155D01*
X170151983Y-117922428D01*
X170151984Y-117922427D01*
X170184915Y-117860817D01*
X176032000Y-117860817D01*
X176032000Y-118359183D01*
X176129226Y-118847974D01*
X176319943Y-119308405D01*
X176596820Y-119722781D01*
X176949219Y-120075180D01*
X177363595Y-120352057D01*
X177824026Y-120542774D01*
X178312817Y-120640000D01*
X178811183Y-120640000D01*
X179299974Y-120542774D01*
X179760405Y-120352057D01*
X180174781Y-120075180D01*
X180527180Y-119722781D01*
X180804057Y-119308405D01*
X180994774Y-118847974D01*
X181092000Y-118359183D01*
X181092000Y-117860817D01*
X180994774Y-117372026D01*
X180804057Y-116911595D01*
X180527180Y-116497219D01*
X180174781Y-116144820D01*
X179760405Y-115867943D01*
X179299974Y-115677226D01*
X178811183Y-115580000D01*
X178312817Y-115580000D01*
X177824026Y-115677226D01*
X177363595Y-115867943D01*
X176949219Y-116144820D01*
X176596820Y-116497219D01*
X176319943Y-116911595D01*
X176129226Y-117372026D01*
X176032000Y-117860817D01*
X170184915Y-117860817D01*
X170222556Y-117790398D01*
X170266013Y-117647137D01*
X170277010Y-117535484D01*
X170277010Y-117535475D01*
X170280686Y-117498152D01*
X170277010Y-117460829D01*
X170277010Y-116219171D01*
X170280686Y-116181848D01*
X170277010Y-116144525D01*
X170277010Y-116144516D01*
X170266013Y-116032863D01*
X170222556Y-115889602D01*
X170151984Y-115757573D01*
X170057011Y-115641848D01*
X170028013Y-115618051D01*
X169538954Y-115128992D01*
X169515152Y-115099989D01*
X169399427Y-115005016D01*
X169267398Y-114934444D01*
X169124137Y-114890987D01*
X169012484Y-114879990D01*
X169012473Y-114879990D01*
X168975151Y-114876314D01*
X168937829Y-114879990D01*
X165829332Y-114879990D01*
X165792009Y-114876314D01*
X165754686Y-114879990D01*
X165754677Y-114879990D01*
X165643024Y-114890987D01*
X165499763Y-114934444D01*
X165367734Y-115005016D01*
X165367732Y-115005017D01*
X165367733Y-115005017D01*
X165281006Y-115076191D01*
X165281002Y-115076195D01*
X165252009Y-115099989D01*
X165228215Y-115128982D01*
X165022355Y-115334842D01*
X164942001Y-115326928D01*
X164241999Y-115326928D01*
X164068745Y-115343992D01*
X163902149Y-115394528D01*
X163748613Y-115476595D01*
X163614038Y-115587038D01*
X163503595Y-115721613D01*
X163421528Y-115875149D01*
X163370992Y-116041745D01*
X163353928Y-116214999D01*
X163353928Y-117350000D01*
X157645034Y-117350000D01*
X157667000Y-117242000D01*
X157667000Y-116967000D01*
X156559000Y-116967000D01*
X156559000Y-116987000D01*
X156305000Y-116987000D01*
X156305000Y-116967000D01*
X156285000Y-116967000D01*
X156285000Y-116713000D01*
X156305000Y-116713000D01*
X156305000Y-115496269D01*
X156559000Y-115496269D01*
X156559000Y-116713000D01*
X157667000Y-116713000D01*
X157667000Y-116438000D01*
X157618493Y-116199504D01*
X157524390Y-115975054D01*
X157388307Y-115773275D01*
X157215474Y-115601922D01*
X157012533Y-115467579D01*
X156787282Y-115375409D01*
X156749609Y-115371538D01*
X156559000Y-115496269D01*
X156305000Y-115496269D01*
X156114391Y-115371538D01*
X156076718Y-115375409D01*
X155851467Y-115467579D01*
X155648526Y-115601922D01*
X155522967Y-115726406D01*
X155520405Y-115721613D01*
X155409962Y-115587038D01*
X155275387Y-115476595D01*
X155121851Y-115394528D01*
X154955255Y-115343992D01*
X154782001Y-115326928D01*
X154081999Y-115326928D01*
X153908745Y-115343992D01*
X153742149Y-115394528D01*
X153588613Y-115476595D01*
X153454038Y-115587038D01*
X153343595Y-115721613D01*
X153261528Y-115875149D01*
X153210992Y-116041745D01*
X153193928Y-116214999D01*
X153193928Y-117350000D01*
X145659087Y-117350000D01*
X145647812Y-117235518D01*
X145611502Y-117115820D01*
X145552537Y-117005506D01*
X145473185Y-116908815D01*
X145376494Y-116829463D01*
X145266180Y-116770498D01*
X145146482Y-116734188D01*
X145022000Y-116721928D01*
X143522000Y-116721928D01*
X143397518Y-116734188D01*
X143277820Y-116770498D01*
X143167506Y-116829463D01*
X143111900Y-116875098D01*
X137556999Y-111320198D01*
X137556999Y-110608849D01*
X137640691Y-110634236D01*
X137851508Y-110655000D01*
X137992492Y-110655000D01*
X138203309Y-110634236D01*
X138473808Y-110552182D01*
X138723101Y-110418932D01*
X138941608Y-110239608D01*
X139120932Y-110021101D01*
X139254182Y-109771808D01*
X139336236Y-109501309D01*
X139363943Y-109220000D01*
X139361402Y-109194204D01*
X141872211Y-111705013D01*
X141896009Y-111734011D01*
X142011734Y-111828984D01*
X142143763Y-111899556D01*
X142287024Y-111943013D01*
X142398677Y-111954010D01*
X142398685Y-111954010D01*
X142436010Y-111957686D01*
X142473335Y-111954010D01*
X174299670Y-111954010D01*
X174336992Y-111957686D01*
X174374314Y-111954010D01*
X174374325Y-111954010D01*
X174485978Y-111943013D01*
X174629239Y-111899556D01*
X174761268Y-111828984D01*
X174876993Y-111734011D01*
X174900796Y-111705007D01*
X181568004Y-105037800D01*
X181597002Y-105014002D01*
X181691975Y-104898277D01*
X181762547Y-104766248D01*
X181806004Y-104622987D01*
X181817001Y-104511334D01*
X181817001Y-104511324D01*
X181820677Y-104474001D01*
X181817001Y-104436678D01*
X181817001Y-103335321D01*
X181820677Y-103297998D01*
X181817001Y-103260675D01*
X181817001Y-103260666D01*
X181806004Y-103149013D01*
X181762547Y-103005752D01*
X181723527Y-102932751D01*
X181691975Y-102873722D01*
X181620800Y-102786996D01*
X181597002Y-102757998D01*
X181568005Y-102734201D01*
X180592000Y-101758197D01*
X180592000Y-92524313D01*
X180810505Y-92378312D01*
X181024312Y-92164505D01*
X181192299Y-91913095D01*
X181308011Y-91633743D01*
X181367000Y-91337184D01*
X181367000Y-91034816D01*
X181308011Y-90738257D01*
X181192299Y-90458905D01*
X181024312Y-90207495D01*
X180810505Y-89993688D01*
X180559095Y-89825701D01*
X180279743Y-89709989D01*
X179983184Y-89651000D01*
X179680816Y-89651000D01*
X179384257Y-89709989D01*
X179104905Y-89825701D01*
X178853495Y-89993688D01*
X178787056Y-90060127D01*
X178781502Y-90041820D01*
X178722537Y-89931506D01*
X178643185Y-89834815D01*
X178546494Y-89755463D01*
X178436180Y-89696498D01*
X178316482Y-89660188D01*
X178192000Y-89647928D01*
X176392000Y-89647928D01*
X176267518Y-89660188D01*
X176147820Y-89696498D01*
X176037506Y-89755463D01*
X175940815Y-89834815D01*
X175861463Y-89931506D01*
X175802498Y-90041820D01*
X175766188Y-90161518D01*
X175753928Y-90286000D01*
X175753928Y-90473121D01*
X175729753Y-90480454D01*
X175597724Y-90551026D01*
X175597722Y-90551027D01*
X175597723Y-90551027D01*
X175510996Y-90622201D01*
X175510992Y-90622205D01*
X175481999Y-90645999D01*
X175458205Y-90674992D01*
X173720843Y-92412355D01*
X173613486Y-92391000D01*
X173350514Y-92391000D01*
X173092595Y-92442304D01*
X172849641Y-92542939D01*
X172630987Y-92689038D01*
X172445038Y-92874987D01*
X172298939Y-93093641D01*
X172198304Y-93336595D01*
X172147000Y-93594514D01*
X172147000Y-93857486D01*
X172198304Y-94115405D01*
X172298939Y-94358359D01*
X172445038Y-94577013D01*
X172630987Y-94762962D01*
X172849641Y-94909061D01*
X173092595Y-95009696D01*
X173350514Y-95061000D01*
X173613486Y-95061000D01*
X173871405Y-95009696D01*
X174114359Y-94909061D01*
X174333013Y-94762962D01*
X174518962Y-94577013D01*
X174665061Y-94358359D01*
X174765696Y-94115405D01*
X174817000Y-93857486D01*
X174817000Y-93594514D01*
X174795645Y-93487157D01*
X175854791Y-92428012D01*
X175861463Y-92440494D01*
X175940815Y-92537185D01*
X176037506Y-92616537D01*
X176147820Y-92675502D01*
X176267518Y-92711812D01*
X176392000Y-92724072D01*
X178192000Y-92724072D01*
X178316482Y-92711812D01*
X178436180Y-92675502D01*
X178546494Y-92616537D01*
X178643185Y-92537185D01*
X178722537Y-92440494D01*
X178781502Y-92330180D01*
X178787056Y-92311873D01*
X178853495Y-92378312D01*
X179072000Y-92524313D01*
X179072001Y-102035666D01*
X179068324Y-102072998D01*
X179072001Y-102110331D01*
X179082998Y-102221984D01*
X179091898Y-102251323D01*
X179126454Y-102365244D01*
X179192768Y-102489307D01*
X179104905Y-102525701D01*
X178853495Y-102693688D01*
X178787056Y-102760127D01*
X178781502Y-102741820D01*
X178722537Y-102631506D01*
X178643185Y-102534815D01*
X178546494Y-102455463D01*
X178436180Y-102396498D01*
X178316482Y-102360188D01*
X178192000Y-102347928D01*
X176392000Y-102347928D01*
X176267518Y-102360188D01*
X176147820Y-102396498D01*
X176037506Y-102455463D01*
X175940815Y-102534815D01*
X175861463Y-102631506D01*
X175802498Y-102741820D01*
X175766188Y-102861518D01*
X175753928Y-102986000D01*
X175753928Y-104786000D01*
X175766188Y-104910482D01*
X175802498Y-105030180D01*
X175861463Y-105140494D01*
X175940815Y-105237185D01*
X175982118Y-105271081D01*
X175587199Y-105666000D01*
X174579775Y-105666000D01*
X174518962Y-105574987D01*
X174333013Y-105389038D01*
X174114359Y-105242939D01*
X173871405Y-105142304D01*
X173613486Y-105091000D01*
X173350514Y-105091000D01*
X173092595Y-105142304D01*
X172849641Y-105242939D01*
X172630987Y-105389038D01*
X172445038Y-105574987D01*
X172298939Y-105793641D01*
X172198304Y-106036595D01*
X172147000Y-106294514D01*
X172147000Y-106557486D01*
X172198304Y-106815405D01*
X172298939Y-107058359D01*
X172445038Y-107277013D01*
X172630987Y-107462962D01*
X172849641Y-107609061D01*
X173092595Y-107709696D01*
X173350514Y-107761000D01*
X173613486Y-107761000D01*
X173871405Y-107709696D01*
X174114359Y-107609061D01*
X174333013Y-107462962D01*
X174518962Y-107277013D01*
X174579775Y-107186000D01*
X175457199Y-107186000D01*
X172659199Y-109984000D01*
X164540763Y-109984000D01*
X164654182Y-109771808D01*
X164736236Y-109501309D01*
X164763943Y-109220000D01*
X164736236Y-108938691D01*
X164722708Y-108894094D01*
X168768005Y-104848797D01*
X168797002Y-104825000D01*
X168891975Y-104709275D01*
X168962547Y-104577246D01*
X169006004Y-104433985D01*
X169017001Y-104322332D01*
X169017001Y-104322323D01*
X169020677Y-104285000D01*
X169017001Y-104247677D01*
X169017001Y-101679330D01*
X172189278Y-101679330D01*
X172279147Y-101925123D01*
X172415241Y-102148660D01*
X172592330Y-102341351D01*
X172803608Y-102495792D01*
X173040956Y-102606047D01*
X173148671Y-102638716D01*
X173355000Y-102515374D01*
X173355000Y-101473000D01*
X173609000Y-101473000D01*
X173609000Y-102515374D01*
X173815329Y-102638716D01*
X173923044Y-102606047D01*
X174160392Y-102495792D01*
X174371670Y-102341351D01*
X174548759Y-102148660D01*
X174684853Y-101925123D01*
X174774722Y-101679330D01*
X174652201Y-101473000D01*
X173609000Y-101473000D01*
X173355000Y-101473000D01*
X172311799Y-101473000D01*
X172189278Y-101679330D01*
X169017001Y-101679330D01*
X169017001Y-101012670D01*
X172189278Y-101012670D01*
X172311799Y-101219000D01*
X173355000Y-101219000D01*
X173355000Y-100176626D01*
X173609000Y-100176626D01*
X173609000Y-101219000D01*
X174652201Y-101219000D01*
X174774722Y-101012670D01*
X174684853Y-100766877D01*
X174548759Y-100543340D01*
X174371670Y-100350649D01*
X174160392Y-100196208D01*
X173923044Y-100085953D01*
X173815329Y-100053284D01*
X173609000Y-100176626D01*
X173355000Y-100176626D01*
X173148671Y-100053284D01*
X173040956Y-100085953D01*
X172803608Y-100196208D01*
X172592330Y-100350649D01*
X172415241Y-100543340D01*
X172279147Y-100766877D01*
X172189278Y-101012670D01*
X169017001Y-101012670D01*
X169017001Y-88979330D01*
X172189278Y-88979330D01*
X172279147Y-89225123D01*
X172415241Y-89448660D01*
X172592330Y-89641351D01*
X172803608Y-89795792D01*
X173040956Y-89906047D01*
X173148671Y-89938716D01*
X173355000Y-89815374D01*
X173355000Y-88773000D01*
X173609000Y-88773000D01*
X173609000Y-89815374D01*
X173815329Y-89938716D01*
X173923044Y-89906047D01*
X174160392Y-89795792D01*
X174371670Y-89641351D01*
X174548759Y-89448660D01*
X174684853Y-89225123D01*
X174774722Y-88979330D01*
X174652201Y-88773000D01*
X173609000Y-88773000D01*
X173355000Y-88773000D01*
X172311799Y-88773000D01*
X172189278Y-88979330D01*
X169017001Y-88979330D01*
X169017001Y-88312670D01*
X172189278Y-88312670D01*
X172311799Y-88519000D01*
X173355000Y-88519000D01*
X173355000Y-87476626D01*
X173609000Y-87476626D01*
X173609000Y-88519000D01*
X174652201Y-88519000D01*
X174774722Y-88312670D01*
X174684853Y-88066877D01*
X174548759Y-87843340D01*
X174371670Y-87650649D01*
X174160392Y-87496208D01*
X173923044Y-87385953D01*
X173815329Y-87353284D01*
X173609000Y-87476626D01*
X173355000Y-87476626D01*
X173148671Y-87353284D01*
X173040956Y-87385953D01*
X172803608Y-87496208D01*
X172592330Y-87650649D01*
X172415241Y-87843340D01*
X172279147Y-88066877D01*
X172189278Y-88312670D01*
X169017001Y-88312670D01*
X169017001Y-79756000D01*
X172140541Y-79756000D01*
X172166317Y-80017706D01*
X172242653Y-80269354D01*
X172366618Y-80501275D01*
X172533445Y-80704555D01*
X172736725Y-80871382D01*
X172968646Y-80995347D01*
X173220294Y-81071683D01*
X173416421Y-81091000D01*
X173547579Y-81091000D01*
X173743706Y-81071683D01*
X173995354Y-80995347D01*
X174227275Y-80871382D01*
X174430555Y-80704555D01*
X174585298Y-80516000D01*
X175864678Y-80516000D01*
X175902000Y-80519676D01*
X175939322Y-80516000D01*
X175939333Y-80516000D01*
X176050986Y-80505003D01*
X176194247Y-80461546D01*
X176326276Y-80390974D01*
X176442001Y-80296001D01*
X176465804Y-80266997D01*
X177803004Y-78929798D01*
X177832001Y-78906001D01*
X177926974Y-78790276D01*
X177946326Y-78754072D01*
X178192000Y-78754072D01*
X178316482Y-78741812D01*
X178436180Y-78705502D01*
X178546494Y-78646537D01*
X178643185Y-78567185D01*
X178722537Y-78470494D01*
X178781502Y-78360180D01*
X178787056Y-78341873D01*
X178853495Y-78408312D01*
X179104905Y-78576299D01*
X179384257Y-78692011D01*
X179680816Y-78751000D01*
X179983184Y-78751000D01*
X180279743Y-78692011D01*
X180559095Y-78576299D01*
X180810505Y-78408312D01*
X181024312Y-78194505D01*
X181192299Y-77943095D01*
X181308011Y-77663743D01*
X181367000Y-77367184D01*
X181367000Y-77064816D01*
X181308011Y-76768257D01*
X181192299Y-76488905D01*
X181024312Y-76237495D01*
X180810505Y-76023688D01*
X180559095Y-75855701D01*
X180279743Y-75739989D01*
X179983184Y-75681000D01*
X179680816Y-75681000D01*
X179384257Y-75739989D01*
X179104905Y-75855701D01*
X178853495Y-76023688D01*
X178787056Y-76090127D01*
X178781502Y-76071820D01*
X178722537Y-75961506D01*
X178643185Y-75864815D01*
X178546494Y-75785463D01*
X178436180Y-75726498D01*
X178316482Y-75690188D01*
X178192000Y-75677928D01*
X176392000Y-75677928D01*
X176267518Y-75690188D01*
X176147820Y-75726498D01*
X176037506Y-75785463D01*
X175940815Y-75864815D01*
X175861463Y-75961506D01*
X175802498Y-76071820D01*
X175766188Y-76191518D01*
X175753928Y-76316000D01*
X175753928Y-78116000D01*
X175766188Y-78240482D01*
X175802498Y-78360180D01*
X175861463Y-78470494D01*
X175940815Y-78567185D01*
X175982118Y-78601081D01*
X175587199Y-78996000D01*
X174585298Y-78996000D01*
X174430555Y-78807445D01*
X174227275Y-78640618D01*
X173995354Y-78516653D01*
X173743706Y-78440317D01*
X173547579Y-78421000D01*
X173416421Y-78421000D01*
X173220294Y-78440317D01*
X172968646Y-78516653D01*
X172736725Y-78640618D01*
X172533445Y-78807445D01*
X172366618Y-79010725D01*
X172242653Y-79242646D01*
X172166317Y-79494294D01*
X172140541Y-79756000D01*
X169017001Y-79756000D01*
X169017001Y-79067325D01*
X169020677Y-79030002D01*
X169017001Y-78992679D01*
X169017001Y-78992670D01*
X169006004Y-78881017D01*
X168962547Y-78737756D01*
X168956426Y-78726304D01*
X168891975Y-78605726D01*
X168820800Y-78519000D01*
X168797002Y-78490002D01*
X168768004Y-78466204D01*
X167771577Y-77469777D01*
X167833514Y-77436671D01*
X167905097Y-77192702D01*
X167092000Y-76379605D01*
X167077858Y-76393748D01*
X166898253Y-76214143D01*
X166912395Y-76200000D01*
X167271605Y-76200000D01*
X168084702Y-77013097D01*
X168328671Y-76941514D01*
X168449571Y-76686004D01*
X168518300Y-76411816D01*
X168532217Y-76129488D01*
X168490787Y-75849870D01*
X168400453Y-75597269D01*
X172740336Y-75597269D01*
X172799797Y-75831037D01*
X173038242Y-75941934D01*
X173293740Y-76004183D01*
X173556473Y-76015390D01*
X173816344Y-75975125D01*
X174063366Y-75884935D01*
X174164203Y-75831037D01*
X174223664Y-75597269D01*
X173482000Y-74855605D01*
X172740336Y-75597269D01*
X168400453Y-75597269D01*
X168395603Y-75583708D01*
X168328671Y-75458486D01*
X168084702Y-75386903D01*
X167271605Y-76200000D01*
X166912395Y-76200000D01*
X166099298Y-75386903D01*
X165855329Y-75458486D01*
X165841676Y-75487341D01*
X165706637Y-75285241D01*
X165628694Y-75207298D01*
X166278903Y-75207298D01*
X167092000Y-76020395D01*
X167905097Y-75207298D01*
X167833514Y-74963329D01*
X167578004Y-74842429D01*
X167303816Y-74773700D01*
X167021488Y-74759783D01*
X166741870Y-74801213D01*
X166475708Y-74896397D01*
X166350486Y-74963329D01*
X166278903Y-75207298D01*
X165628694Y-75207298D01*
X165506759Y-75085363D01*
X165271727Y-74928320D01*
X165010574Y-74820147D01*
X164733335Y-74765000D01*
X164450665Y-74765000D01*
X164173426Y-74820147D01*
X164082000Y-74858017D01*
X164082000Y-74750473D01*
X172142610Y-74750473D01*
X172182875Y-75010344D01*
X172273065Y-75257366D01*
X172326963Y-75358203D01*
X172560731Y-75417664D01*
X173302395Y-74676000D01*
X173661605Y-74676000D01*
X174403269Y-75417664D01*
X174637037Y-75358203D01*
X174747934Y-75119758D01*
X174810183Y-74864260D01*
X174821390Y-74601527D01*
X174781125Y-74341656D01*
X174690935Y-74094634D01*
X174637037Y-73993797D01*
X174403269Y-73934336D01*
X173661605Y-74676000D01*
X173302395Y-74676000D01*
X172560731Y-73934336D01*
X172326963Y-73993797D01*
X172216066Y-74232242D01*
X172153817Y-74487740D01*
X172142610Y-74750473D01*
X164082000Y-74750473D01*
X164082000Y-73754731D01*
X172740336Y-73754731D01*
X173482000Y-74496395D01*
X174223664Y-73754731D01*
X174164203Y-73520963D01*
X173925758Y-73410066D01*
X173670260Y-73347817D01*
X173407527Y-73336610D01*
X173147656Y-73376875D01*
X172900634Y-73467065D01*
X172799797Y-73520963D01*
X172740336Y-73754731D01*
X164082000Y-73754731D01*
X164082000Y-70978665D01*
X165737000Y-70978665D01*
X165737000Y-71261335D01*
X165792147Y-71538574D01*
X165900320Y-71799727D01*
X166057363Y-72034759D01*
X166257241Y-72234637D01*
X166492273Y-72391680D01*
X166753426Y-72499853D01*
X167030665Y-72555000D01*
X167313335Y-72555000D01*
X167590574Y-72499853D01*
X167851727Y-72391680D01*
X168086759Y-72234637D01*
X168208694Y-72112702D01*
X168858903Y-72112702D01*
X168930486Y-72356671D01*
X169185996Y-72477571D01*
X169460184Y-72546300D01*
X169742512Y-72560217D01*
X170022130Y-72518787D01*
X170288292Y-72423603D01*
X170413514Y-72356671D01*
X170485097Y-72112702D01*
X169672000Y-71299605D01*
X168858903Y-72112702D01*
X168208694Y-72112702D01*
X168286637Y-72034759D01*
X168420692Y-71834131D01*
X168435329Y-71861514D01*
X168679298Y-71933097D01*
X169492395Y-71120000D01*
X169851605Y-71120000D01*
X170664702Y-71933097D01*
X170908671Y-71861514D01*
X171029571Y-71606004D01*
X171098300Y-71331816D01*
X171112217Y-71049488D01*
X171070787Y-70769870D01*
X170975603Y-70503708D01*
X170908671Y-70378486D01*
X170664702Y-70306903D01*
X169851605Y-71120000D01*
X169492395Y-71120000D01*
X168679298Y-70306903D01*
X168435329Y-70378486D01*
X168421676Y-70407341D01*
X168286637Y-70205241D01*
X168208694Y-70127298D01*
X168858903Y-70127298D01*
X169672000Y-70940395D01*
X170485097Y-70127298D01*
X170413514Y-69883329D01*
X170158004Y-69762429D01*
X169883816Y-69693700D01*
X169601488Y-69679783D01*
X169321870Y-69721213D01*
X169055708Y-69816397D01*
X168930486Y-69883329D01*
X168858903Y-70127298D01*
X168208694Y-70127298D01*
X168086759Y-70005363D01*
X167851727Y-69848320D01*
X167590574Y-69740147D01*
X167313335Y-69685000D01*
X167030665Y-69685000D01*
X166753426Y-69740147D01*
X166492273Y-69848320D01*
X166257241Y-70005363D01*
X166057363Y-70205241D01*
X165900320Y-70440273D01*
X165792147Y-70701426D01*
X165737000Y-70978665D01*
X164082000Y-70978665D01*
X164082000Y-70971828D01*
X164185762Y-70902497D01*
X164374497Y-70713762D01*
X164522785Y-70491833D01*
X164624928Y-70245239D01*
X164677000Y-69983456D01*
X164677000Y-69716544D01*
X164624928Y-69454761D01*
X164522785Y-69208167D01*
X164374497Y-68986238D01*
X164185762Y-68797503D01*
X163963833Y-68649215D01*
X163717239Y-68547072D01*
X163455456Y-68495000D01*
X163188544Y-68495000D01*
X162926761Y-68547072D01*
X162680167Y-68649215D01*
X162458238Y-68797503D01*
X162269503Y-68986238D01*
X162121215Y-69208167D01*
X162052000Y-69375266D01*
X161982785Y-69208167D01*
X161834497Y-68986238D01*
X161645762Y-68797503D01*
X161423833Y-68649215D01*
X161177239Y-68547072D01*
X160915456Y-68495000D01*
X160648544Y-68495000D01*
X160386761Y-68547072D01*
X160140167Y-68649215D01*
X159918238Y-68797503D01*
X159729503Y-68986238D01*
X159581215Y-69208167D01*
X159512000Y-69375266D01*
X159442785Y-69208167D01*
X159294497Y-68986238D01*
X159105762Y-68797503D01*
X158883833Y-68649215D01*
X158637239Y-68547072D01*
X158375456Y-68495000D01*
X158108544Y-68495000D01*
X157846761Y-68547072D01*
X157600167Y-68649215D01*
X157378238Y-68797503D01*
X157189503Y-68986238D01*
X157041215Y-69208167D01*
X156939072Y-69454761D01*
X156887000Y-69716544D01*
X156887000Y-69983456D01*
X156939072Y-70245239D01*
X157041215Y-70491833D01*
X157189503Y-70713762D01*
X157378238Y-70902497D01*
X157600167Y-71050785D01*
X157846761Y-71152928D01*
X158108544Y-71205000D01*
X158375456Y-71205000D01*
X158637239Y-71152928D01*
X158883833Y-71050785D01*
X159105762Y-70902497D01*
X159294497Y-70713762D01*
X159442785Y-70491833D01*
X159512000Y-70324734D01*
X159581215Y-70491833D01*
X159729503Y-70713762D01*
X159918238Y-70902497D01*
X160140167Y-71050785D01*
X160386761Y-71152928D01*
X160648544Y-71205000D01*
X160915456Y-71205000D01*
X161037852Y-71180654D01*
X161047001Y-71189803D01*
X161047001Y-74885317D01*
X161043706Y-74884317D01*
X160847579Y-74865000D01*
X160716421Y-74865000D01*
X160520294Y-74884317D01*
X160268646Y-74960653D01*
X160036725Y-75084618D01*
X159833445Y-75251445D01*
X159666618Y-75454725D01*
X159542653Y-75686646D01*
X159466317Y-75938294D01*
X159440541Y-76200000D01*
X159466317Y-76461706D01*
X159542653Y-76713354D01*
X159666618Y-76945275D01*
X159833445Y-77148555D01*
X160036725Y-77315382D01*
X160268646Y-77439347D01*
X160520294Y-77515683D01*
X160716421Y-77535000D01*
X160847579Y-77535000D01*
X161043706Y-77515683D01*
X161047002Y-77514683D01*
X161047002Y-78701558D01*
X160913486Y-78675000D01*
X160650514Y-78675000D01*
X160392595Y-78726304D01*
X160149641Y-78826939D01*
X159930987Y-78973038D01*
X159745038Y-79158987D01*
X159684225Y-79250000D01*
X158016802Y-79250000D01*
X156203900Y-77437099D01*
X156334359Y-77383061D01*
X156553013Y-77236962D01*
X156738962Y-77051013D01*
X156885061Y-76832359D01*
X156985696Y-76589405D01*
X157037000Y-76331486D01*
X157037000Y-76068514D01*
X156985696Y-75810595D01*
X156885061Y-75567641D01*
X156738962Y-75348987D01*
X156553013Y-75163038D01*
X156334359Y-75016939D01*
X156091405Y-74916304D01*
X155833486Y-74865000D01*
X155570514Y-74865000D01*
X155312595Y-74916304D01*
X155069641Y-75016939D01*
X154850987Y-75163038D01*
X154665038Y-75348987D01*
X154518939Y-75567641D01*
X154464901Y-75698100D01*
X152338177Y-73571376D01*
X152344168Y-73556912D01*
X152407000Y-73241033D01*
X152407000Y-72918967D01*
X152344168Y-72603088D01*
X152220918Y-72305537D01*
X152041987Y-72037748D01*
X151814252Y-71810013D01*
X151546463Y-71631082D01*
X151248912Y-71507832D01*
X150933033Y-71445000D01*
X150610967Y-71445000D01*
X150295088Y-71507832D01*
X149997537Y-71631082D01*
X149729748Y-71810013D01*
X149502013Y-72037748D01*
X149323082Y-72305537D01*
X149317091Y-72320000D01*
X145726909Y-72320000D01*
X145720918Y-72305537D01*
X145541987Y-72037748D01*
X145314252Y-71810013D01*
X145046463Y-71631082D01*
X144748912Y-71507832D01*
X144433033Y-71445000D01*
X144110967Y-71445000D01*
X143795088Y-71507832D01*
X143497537Y-71631082D01*
X143229748Y-71810013D01*
X143002013Y-72037748D01*
X142823082Y-72305537D01*
X142699832Y-72603088D01*
X142637000Y-72918967D01*
X142637000Y-73241033D01*
X142699832Y-73556912D01*
X142823082Y-73854463D01*
X143002013Y-74122252D01*
X143229748Y-74349987D01*
X143497537Y-74528918D01*
X143795088Y-74652168D01*
X144110967Y-74715000D01*
X144433033Y-74715000D01*
X144748912Y-74652168D01*
X145046463Y-74528918D01*
X145314252Y-74349987D01*
X145541987Y-74122252D01*
X145720918Y-73854463D01*
X145726909Y-73840000D01*
X149317091Y-73840000D01*
X149323082Y-73854463D01*
X149502013Y-74122252D01*
X149729748Y-74349987D01*
X149997537Y-74528918D01*
X150012345Y-74535052D01*
X150022997Y-74643198D01*
X150055538Y-74750473D01*
X150066454Y-74786459D01*
X150137026Y-74918489D01*
X150173826Y-74963329D01*
X150231999Y-75034214D01*
X150261002Y-75058017D01*
X150987002Y-75784017D01*
X150987002Y-78621152D01*
X150903309Y-78595764D01*
X150692492Y-78575000D01*
X150551508Y-78575000D01*
X150340691Y-78595764D01*
X150070192Y-78677818D01*
X149820899Y-78811068D01*
X149602392Y-78990392D01*
X149423068Y-79208899D01*
X149289818Y-79458192D01*
X149207764Y-79728691D01*
X149180057Y-80010000D01*
X149207764Y-80291309D01*
X149289818Y-80561808D01*
X149423068Y-80811101D01*
X149602392Y-81029608D01*
X149820899Y-81208932D01*
X149953858Y-81280000D01*
X149820899Y-81351068D01*
X149602392Y-81530392D01*
X149423068Y-81748899D01*
X149289818Y-81998192D01*
X149207764Y-82268691D01*
X149180057Y-82550000D01*
X149207764Y-82831309D01*
X149289818Y-83101808D01*
X149423068Y-83351101D01*
X149602392Y-83569608D01*
X149820899Y-83748932D01*
X149953858Y-83820000D01*
X149820899Y-83891068D01*
X149602392Y-84070392D01*
X149423068Y-84288899D01*
X149289818Y-84538192D01*
X149207764Y-84808691D01*
X149180057Y-85090000D01*
X149207764Y-85371309D01*
X149289818Y-85641808D01*
X149423068Y-85891101D01*
X149602392Y-86109608D01*
X149820899Y-86288932D01*
X149953858Y-86360000D01*
X149820899Y-86431068D01*
X149602392Y-86610392D01*
X149423068Y-86828899D01*
X149289818Y-87078192D01*
X149207764Y-87348691D01*
X149180057Y-87630000D01*
X149207764Y-87911309D01*
X149289818Y-88181808D01*
X149423068Y-88431101D01*
X149602392Y-88649608D01*
X149820899Y-88828932D01*
X149953858Y-88900000D01*
X149820899Y-88971068D01*
X149602392Y-89150392D01*
X149423068Y-89368899D01*
X149289818Y-89618192D01*
X149207764Y-89888691D01*
X149180057Y-90170000D01*
X149207764Y-90451309D01*
X149289818Y-90721808D01*
X149423068Y-90971101D01*
X149602392Y-91189608D01*
X149820899Y-91368932D01*
X149953858Y-91440000D01*
X149820899Y-91511068D01*
X149602392Y-91690392D01*
X149423068Y-91908899D01*
X149289818Y-92158192D01*
X149207764Y-92428691D01*
X149180057Y-92710000D01*
X149207764Y-92991309D01*
X149289818Y-93261808D01*
X149423068Y-93511101D01*
X149602392Y-93729608D01*
X149820899Y-93908932D01*
X149953858Y-93980000D01*
X149820899Y-94051068D01*
X149602392Y-94230392D01*
X149423068Y-94448899D01*
X149289818Y-94698192D01*
X149207764Y-94968691D01*
X149180057Y-95250000D01*
X149207764Y-95531309D01*
X149233151Y-95615001D01*
X146855692Y-95615001D01*
X146818369Y-95611325D01*
X146781046Y-95615001D01*
X146781036Y-95615001D01*
X146669383Y-95625998D01*
X146529026Y-95668574D01*
X146526122Y-95669455D01*
X146394092Y-95740027D01*
X146310452Y-95808669D01*
X146278368Y-95835000D01*
X146254570Y-95863998D01*
X145337011Y-96781557D01*
X145337011Y-82497331D01*
X145340687Y-82460008D01*
X145337011Y-82422685D01*
X145337011Y-82422676D01*
X145326014Y-82311023D01*
X145282557Y-82167762D01*
X145211985Y-82035733D01*
X145117012Y-81920008D01*
X145088015Y-81896211D01*
X144340813Y-81149010D01*
X144391502Y-81054180D01*
X144427812Y-80934482D01*
X144440072Y-80810000D01*
X144440072Y-79210000D01*
X144427812Y-79085518D01*
X144391502Y-78965820D01*
X144332537Y-78855506D01*
X144253185Y-78758815D01*
X144156494Y-78679463D01*
X144046180Y-78620498D01*
X143926482Y-78584188D01*
X143802000Y-78571928D01*
X142202000Y-78571928D01*
X142077518Y-78584188D01*
X141957820Y-78620498D01*
X141847506Y-78679463D01*
X141750815Y-78758815D01*
X141671463Y-78855506D01*
X141612498Y-78965820D01*
X141576188Y-79085518D01*
X141563928Y-79210000D01*
X141563928Y-79355674D01*
X141527724Y-79375026D01*
X141411999Y-79469999D01*
X141388201Y-79498997D01*
X140222200Y-80664999D01*
X139199025Y-80664999D01*
X139254182Y-80561808D01*
X139336236Y-80291309D01*
X139363943Y-80010000D01*
X139336236Y-79728691D01*
X139254182Y-79458192D01*
X139120932Y-79208899D01*
X138941608Y-78990392D01*
X138723101Y-78811068D01*
X138473808Y-78677818D01*
X138203309Y-78595764D01*
X137992492Y-78575000D01*
X137851508Y-78575000D01*
X137640691Y-78595764D01*
X137370192Y-78677818D01*
X137120899Y-78811068D01*
X136902392Y-78990392D01*
X136723068Y-79208899D01*
X136589818Y-79458192D01*
X136507764Y-79728691D01*
X136480057Y-80010000D01*
X136507764Y-80291309D01*
X136589818Y-80561808D01*
X136644975Y-80664999D01*
X131740072Y-80664999D01*
X131740072Y-79210000D01*
X131727812Y-79085518D01*
X131691502Y-78965820D01*
X131632537Y-78855506D01*
X131553185Y-78758815D01*
X131456494Y-78679463D01*
X131346180Y-78620498D01*
X131226482Y-78584188D01*
X131102000Y-78571928D01*
X129936999Y-78571928D01*
X129936999Y-72584749D01*
X130233108Y-72662384D01*
X130554595Y-72681718D01*
X130873675Y-72637961D01*
X131178088Y-72532795D01*
X131352044Y-72439814D01*
X131447808Y-72175413D01*
X130492000Y-71219605D01*
X130477858Y-71233748D01*
X130298253Y-71054143D01*
X130312395Y-71040000D01*
X130298253Y-71025858D01*
X130477858Y-70846253D01*
X130492000Y-70860395D01*
X130506143Y-70846253D01*
X130685748Y-71025858D01*
X130671605Y-71040000D01*
X131627413Y-71995808D01*
X131891814Y-71900044D01*
X132032704Y-71610429D01*
X132114384Y-71298892D01*
X132133718Y-70977405D01*
X132089961Y-70658325D01*
X131984795Y-70353912D01*
X131891814Y-70179956D01*
X131627415Y-70084193D01*
X131686619Y-70024989D01*
X132402187Y-70024989D01*
X132925823Y-70548625D01*
X132919832Y-70563088D01*
X132857000Y-70878967D01*
X132857000Y-71201033D01*
X132919832Y-71516912D01*
X133043082Y-71814463D01*
X133222013Y-72082252D01*
X133449748Y-72309987D01*
X133717537Y-72488918D01*
X134015088Y-72612168D01*
X134330967Y-72675000D01*
X134653033Y-72675000D01*
X134968912Y-72612168D01*
X135266463Y-72488918D01*
X135534252Y-72309987D01*
X135761987Y-72082252D01*
X135940918Y-71814463D01*
X136064168Y-71516912D01*
X136127000Y-71201033D01*
X136127000Y-70878967D01*
X136064168Y-70563088D01*
X135940918Y-70265537D01*
X135761987Y-69997748D01*
X135534252Y-69770013D01*
X135452538Y-69715413D01*
X143316192Y-69715413D01*
X143411956Y-69979814D01*
X143701571Y-70120704D01*
X144013108Y-70202384D01*
X144334595Y-70221718D01*
X144653675Y-70177961D01*
X144958088Y-70072795D01*
X145132044Y-69979814D01*
X145227808Y-69715413D01*
X149816192Y-69715413D01*
X149911956Y-69979814D01*
X150201571Y-70120704D01*
X150513108Y-70202384D01*
X150834595Y-70221718D01*
X151153675Y-70177961D01*
X151458088Y-70072795D01*
X151632044Y-69979814D01*
X151727808Y-69715413D01*
X150772000Y-68759605D01*
X149816192Y-69715413D01*
X145227808Y-69715413D01*
X144272000Y-68759605D01*
X143316192Y-69715413D01*
X135452538Y-69715413D01*
X135266463Y-69591082D01*
X134968912Y-69467832D01*
X134653033Y-69405000D01*
X134330967Y-69405000D01*
X134015088Y-69467832D01*
X134000625Y-69473823D01*
X133280792Y-68753991D01*
X133256990Y-68724988D01*
X133156594Y-68642595D01*
X142630282Y-68642595D01*
X142674039Y-68961675D01*
X142779205Y-69266088D01*
X142872186Y-69440044D01*
X143136587Y-69535808D01*
X144092395Y-68580000D01*
X144451605Y-68580000D01*
X145407413Y-69535808D01*
X145671814Y-69440044D01*
X145812704Y-69150429D01*
X145894384Y-68838892D01*
X145906189Y-68642595D01*
X149130282Y-68642595D01*
X149174039Y-68961675D01*
X149279205Y-69266088D01*
X149372186Y-69440044D01*
X149636587Y-69535808D01*
X150592395Y-68580000D01*
X150951605Y-68580000D01*
X151907413Y-69535808D01*
X152171814Y-69440044D01*
X152312704Y-69150429D01*
X152394384Y-68838892D01*
X152413718Y-68517405D01*
X152369961Y-68198325D01*
X152264795Y-67893912D01*
X152171814Y-67719956D01*
X151907413Y-67624192D01*
X150951605Y-68580000D01*
X150592395Y-68580000D01*
X149636587Y-67624192D01*
X149372186Y-67719956D01*
X149231296Y-68009571D01*
X149149616Y-68321108D01*
X149130282Y-68642595D01*
X145906189Y-68642595D01*
X145913718Y-68517405D01*
X145869961Y-68198325D01*
X145764795Y-67893912D01*
X145671814Y-67719956D01*
X145407413Y-67624192D01*
X144451605Y-68580000D01*
X144092395Y-68580000D01*
X143136587Y-67624192D01*
X142872186Y-67719956D01*
X142731296Y-68009571D01*
X142649616Y-68321108D01*
X142630282Y-68642595D01*
X133156594Y-68642595D01*
X133141265Y-68630015D01*
X133009236Y-68559443D01*
X132865975Y-68515986D01*
X132754322Y-68504989D01*
X132754311Y-68504989D01*
X132716989Y-68501313D01*
X132679667Y-68504989D01*
X123656511Y-68504989D01*
X123619188Y-68501313D01*
X123581865Y-68504989D01*
X123581856Y-68504989D01*
X123470203Y-68515986D01*
X123326942Y-68559443D01*
X123194912Y-68630015D01*
X123111272Y-68698657D01*
X123079188Y-68724988D01*
X123055390Y-68753986D01*
X112888980Y-78920397D01*
X112859982Y-78944195D01*
X112836184Y-78973193D01*
X112836183Y-78973194D01*
X112765008Y-79059920D01*
X112694436Y-79191950D01*
X112672361Y-79264725D01*
X112652038Y-79331724D01*
X112650980Y-79335211D01*
X112636306Y-79484196D01*
X111912000Y-79484196D01*
X111912000Y-64520817D01*
X113802000Y-64520817D01*
X113802000Y-65019183D01*
X113899226Y-65507974D01*
X114089943Y-65968405D01*
X114366820Y-66382781D01*
X114719219Y-66735180D01*
X115133595Y-67012057D01*
X115594026Y-67202774D01*
X116082817Y-67300000D01*
X116581183Y-67300000D01*
X117069974Y-67202774D01*
X117530405Y-67012057D01*
X117944781Y-66735180D01*
X118297180Y-66382781D01*
X118574057Y-65968405D01*
X118764774Y-65507974D01*
X118857859Y-65040000D01*
X124853928Y-65040000D01*
X124853928Y-67040000D01*
X124866188Y-67164482D01*
X124902498Y-67284180D01*
X124961463Y-67394494D01*
X125040815Y-67491185D01*
X125137506Y-67570537D01*
X125247820Y-67629502D01*
X125367518Y-67665812D01*
X125492000Y-67678072D01*
X127492000Y-67678072D01*
X127616482Y-67665812D01*
X127736180Y-67629502D01*
X127846494Y-67570537D01*
X127943185Y-67491185D01*
X128022537Y-67394494D01*
X128081502Y-67284180D01*
X128117812Y-67164482D01*
X128130072Y-67040000D01*
X128130072Y-65878967D01*
X128857000Y-65878967D01*
X128857000Y-66201033D01*
X128919832Y-66516912D01*
X129043082Y-66814463D01*
X129222013Y-67082252D01*
X129449748Y-67309987D01*
X129717537Y-67488918D01*
X130015088Y-67612168D01*
X130330967Y-67675000D01*
X130653033Y-67675000D01*
X130968912Y-67612168D01*
X131266463Y-67488918D01*
X131534252Y-67309987D01*
X131761987Y-67082252D01*
X131940918Y-66814463D01*
X132064168Y-66516912D01*
X132127000Y-66201033D01*
X132127000Y-65878967D01*
X132857000Y-65878967D01*
X132857000Y-66201033D01*
X132919832Y-66516912D01*
X133043082Y-66814463D01*
X133222013Y-67082252D01*
X133449748Y-67309987D01*
X133717537Y-67488918D01*
X134015088Y-67612168D01*
X134330967Y-67675000D01*
X134653033Y-67675000D01*
X134968912Y-67612168D01*
X135266463Y-67488918D01*
X135332808Y-67444587D01*
X143316192Y-67444587D01*
X144272000Y-68400395D01*
X145227808Y-67444587D01*
X149816192Y-67444587D01*
X150772000Y-68400395D01*
X151727808Y-67444587D01*
X151632044Y-67180186D01*
X151342429Y-67039296D01*
X151030892Y-66957616D01*
X150709405Y-66938282D01*
X150390325Y-66982039D01*
X150085912Y-67087205D01*
X149911956Y-67180186D01*
X149816192Y-67444587D01*
X145227808Y-67444587D01*
X145132044Y-67180186D01*
X144842429Y-67039296D01*
X144530892Y-66957616D01*
X144209405Y-66938282D01*
X143890325Y-66982039D01*
X143585912Y-67087205D01*
X143411956Y-67180186D01*
X143316192Y-67444587D01*
X135332808Y-67444587D01*
X135534252Y-67309987D01*
X135761987Y-67082252D01*
X135940918Y-66814463D01*
X136064168Y-66516912D01*
X136127000Y-66201033D01*
X136127000Y-65878967D01*
X136064168Y-65563088D01*
X135940918Y-65265537D01*
X135761987Y-64997748D01*
X135534252Y-64770013D01*
X135266463Y-64591082D01*
X135096829Y-64520817D01*
X176032000Y-64520817D01*
X176032000Y-65019183D01*
X176129226Y-65507974D01*
X176319943Y-65968405D01*
X176596820Y-66382781D01*
X176949219Y-66735180D01*
X177363595Y-67012057D01*
X177824026Y-67202774D01*
X178312817Y-67300000D01*
X178811183Y-67300000D01*
X179299974Y-67202774D01*
X179760405Y-67012057D01*
X180174781Y-66735180D01*
X180527180Y-66382781D01*
X180804057Y-65968405D01*
X180994774Y-65507974D01*
X181092000Y-65019183D01*
X181092000Y-64520817D01*
X180994774Y-64032026D01*
X180804057Y-63571595D01*
X180527180Y-63157219D01*
X180174781Y-62804820D01*
X179760405Y-62527943D01*
X179299974Y-62337226D01*
X178811183Y-62240000D01*
X178312817Y-62240000D01*
X177824026Y-62337226D01*
X177363595Y-62527943D01*
X176949219Y-62804820D01*
X176596820Y-63157219D01*
X176319943Y-63571595D01*
X176129226Y-64032026D01*
X176032000Y-64520817D01*
X135096829Y-64520817D01*
X134968912Y-64467832D01*
X134653033Y-64405000D01*
X134330967Y-64405000D01*
X134015088Y-64467832D01*
X133717537Y-64591082D01*
X133449748Y-64770013D01*
X133222013Y-64997748D01*
X133043082Y-65265537D01*
X132919832Y-65563088D01*
X132857000Y-65878967D01*
X132127000Y-65878967D01*
X132064168Y-65563088D01*
X131940918Y-65265537D01*
X131761987Y-64997748D01*
X131534252Y-64770013D01*
X131266463Y-64591082D01*
X130968912Y-64467832D01*
X130653033Y-64405000D01*
X130330967Y-64405000D01*
X130015088Y-64467832D01*
X129717537Y-64591082D01*
X129449748Y-64770013D01*
X129222013Y-64997748D01*
X129043082Y-65265537D01*
X128919832Y-65563088D01*
X128857000Y-65878967D01*
X128130072Y-65878967D01*
X128130072Y-65040000D01*
X128117812Y-64915518D01*
X128081502Y-64795820D01*
X128022537Y-64685506D01*
X127943185Y-64588815D01*
X127846494Y-64509463D01*
X127736180Y-64450498D01*
X127616482Y-64414188D01*
X127492000Y-64401928D01*
X125492000Y-64401928D01*
X125367518Y-64414188D01*
X125247820Y-64450498D01*
X125137506Y-64509463D01*
X125040815Y-64588815D01*
X124961463Y-64685506D01*
X124902498Y-64795820D01*
X124866188Y-64915518D01*
X124853928Y-65040000D01*
X118857859Y-65040000D01*
X118862000Y-65019183D01*
X118862000Y-64520817D01*
X118764774Y-64032026D01*
X118574057Y-63571595D01*
X118297180Y-63157219D01*
X117944781Y-62804820D01*
X117530405Y-62527943D01*
X117069974Y-62337226D01*
X116581183Y-62240000D01*
X116082817Y-62240000D01*
X115594026Y-62337226D01*
X115133595Y-62527943D01*
X114719219Y-62804820D01*
X114366820Y-63157219D01*
X114089943Y-63571595D01*
X113899226Y-64032026D01*
X113802000Y-64520817D01*
X111912000Y-64520817D01*
X111912000Y-63532279D01*
X111975096Y-62888778D01*
X112152606Y-62300836D01*
X112440937Y-61758564D01*
X112829094Y-61282636D01*
X113302314Y-60891155D01*
X113842552Y-60599049D01*
X114429244Y-60417437D01*
X115070879Y-60350000D01*
X179799721Y-60350000D01*
X180443222Y-60413096D01*
G36*
X133352001Y-116722913D02*
G01*
X133237518Y-116734188D01*
X133117820Y-116770498D01*
X133007506Y-116829463D01*
X132910815Y-116908815D01*
X132831463Y-117005506D01*
X132772498Y-117115820D01*
X132736188Y-117235518D01*
X132723928Y-117360000D01*
X132723928Y-118860000D01*
X132725406Y-118875011D01*
X130418594Y-118875011D01*
X130420072Y-118860000D01*
X130417000Y-118395750D01*
X130258250Y-118237000D01*
X129159000Y-118237000D01*
X129159000Y-118257000D01*
X128905000Y-118257000D01*
X128905000Y-118237000D01*
X127805750Y-118237000D01*
X127647000Y-118395750D01*
X127643928Y-118860000D01*
X127645406Y-118875011D01*
X126791813Y-118875011D01*
X125515804Y-117599003D01*
X125492001Y-117569999D01*
X125376276Y-117475026D01*
X125340072Y-117455674D01*
X125340072Y-117360000D01*
X127643928Y-117360000D01*
X127647000Y-117824250D01*
X127805750Y-117983000D01*
X128905000Y-117983000D01*
X128905000Y-116883750D01*
X129159000Y-116883750D01*
X129159000Y-117983000D01*
X130258250Y-117983000D01*
X130417000Y-117824250D01*
X130420072Y-117360000D01*
X130407812Y-117235518D01*
X130371502Y-117115820D01*
X130312537Y-117005506D01*
X130233185Y-116908815D01*
X130136494Y-116829463D01*
X130026180Y-116770498D01*
X129906482Y-116734188D01*
X129782000Y-116721928D01*
X129317750Y-116725000D01*
X129159000Y-116883750D01*
X128905000Y-116883750D01*
X128746250Y-116725000D01*
X128282000Y-116721928D01*
X128157518Y-116734188D01*
X128037820Y-116770498D01*
X127927506Y-116829463D01*
X127830815Y-116908815D01*
X127751463Y-117005506D01*
X127692498Y-117115820D01*
X127656188Y-117235518D01*
X127643928Y-117360000D01*
X125340072Y-117360000D01*
X125327812Y-117235518D01*
X125291502Y-117115820D01*
X125232537Y-117005506D01*
X125153185Y-116908815D01*
X125056494Y-116829463D01*
X124946180Y-116770498D01*
X124826482Y-116734188D01*
X124712000Y-116722913D01*
X124712000Y-111679799D01*
X126496061Y-109895739D01*
X126563068Y-110021101D01*
X126742392Y-110239608D01*
X126960899Y-110418932D01*
X127210192Y-110552182D01*
X127480691Y-110634236D01*
X127691508Y-110655000D01*
X127832492Y-110655000D01*
X128043309Y-110634236D01*
X128313808Y-110552182D01*
X128563101Y-110418932D01*
X128781608Y-110239608D01*
X128960932Y-110021101D01*
X129094182Y-109771808D01*
X129176236Y-109501309D01*
X129203943Y-109220000D01*
X129176236Y-108938691D01*
X129094182Y-108668192D01*
X128960932Y-108418899D01*
X128871670Y-108310133D01*
X133352000Y-103829803D01*
X133352001Y-116722913D01*
X133352001Y-116722913D01*
G37*
X133352001Y-116722913D02*
X133237518Y-116734188D01*
X133117820Y-116770498D01*
X133007506Y-116829463D01*
X132910815Y-116908815D01*
X132831463Y-117005506D01*
X132772498Y-117115820D01*
X132736188Y-117235518D01*
X132723928Y-117360000D01*
X132723928Y-118860000D01*
X132725406Y-118875011D01*
X130418594Y-118875011D01*
X130420072Y-118860000D01*
X130417000Y-118395750D01*
X130258250Y-118237000D01*
X129159000Y-118237000D01*
X129159000Y-118257000D01*
X128905000Y-118257000D01*
X128905000Y-118237000D01*
X127805750Y-118237000D01*
X127647000Y-118395750D01*
X127643928Y-118860000D01*
X127645406Y-118875011D01*
X126791813Y-118875011D01*
X125515804Y-117599003D01*
X125492001Y-117569999D01*
X125376276Y-117475026D01*
X125340072Y-117455674D01*
X125340072Y-117360000D01*
X127643928Y-117360000D01*
X127647000Y-117824250D01*
X127805750Y-117983000D01*
X128905000Y-117983000D01*
X128905000Y-116883750D01*
X129159000Y-116883750D01*
X129159000Y-117983000D01*
X130258250Y-117983000D01*
X130417000Y-117824250D01*
X130420072Y-117360000D01*
X130407812Y-117235518D01*
X130371502Y-117115820D01*
X130312537Y-117005506D01*
X130233185Y-116908815D01*
X130136494Y-116829463D01*
X130026180Y-116770498D01*
X129906482Y-116734188D01*
X129782000Y-116721928D01*
X129317750Y-116725000D01*
X129159000Y-116883750D01*
X128905000Y-116883750D01*
X128746250Y-116725000D01*
X128282000Y-116721928D01*
X128157518Y-116734188D01*
X128037820Y-116770498D01*
X127927506Y-116829463D01*
X127830815Y-116908815D01*
X127751463Y-117005506D01*
X127692498Y-117115820D01*
X127656188Y-117235518D01*
X127643928Y-117360000D01*
X125340072Y-117360000D01*
X125327812Y-117235518D01*
X125291502Y-117115820D01*
X125232537Y-117005506D01*
X125153185Y-116908815D01*
X125056494Y-116829463D01*
X124946180Y-116770498D01*
X124826482Y-116734188D01*
X124712000Y-116722913D01*
X124712000Y-111679799D01*
X126496061Y-109895739D01*
X126563068Y-110021101D01*
X126742392Y-110239608D01*
X126960899Y-110418932D01*
X127210192Y-110552182D01*
X127480691Y-110634236D01*
X127691508Y-110655000D01*
X127832492Y-110655000D01*
X128043309Y-110634236D01*
X128313808Y-110552182D01*
X128563101Y-110418932D01*
X128781608Y-110239608D01*
X128960932Y-110021101D01*
X129094182Y-109771808D01*
X129176236Y-109501309D01*
X129203943Y-109220000D01*
X129176236Y-108938691D01*
X129094182Y-108668192D01*
X128960932Y-108418899D01*
X128871670Y-108310133D01*
X133352000Y-103829803D01*
X133352001Y-116722913D01*
G36*
X159666618Y-95995275D02*
G01*
X159833445Y-96198555D01*
X160022001Y-96353298D01*
X160022000Y-100687679D01*
X160018324Y-100725002D01*
X160022000Y-100762324D01*
X160022000Y-100762334D01*
X160032997Y-100873987D01*
X160060597Y-100964973D01*
X160076454Y-101017248D01*
X160147026Y-101149278D01*
X160186871Y-101197828D01*
X160241999Y-101265003D01*
X160271003Y-101288806D01*
X161762001Y-102779805D01*
X161762001Y-103302679D01*
X161758325Y-103340001D01*
X161762001Y-103377323D01*
X161762001Y-103377333D01*
X161772998Y-103488986D01*
X161806673Y-103599999D01*
X161816455Y-103632247D01*
X161887027Y-103764277D01*
X161923078Y-103808205D01*
X161907764Y-103858691D01*
X161880057Y-104140000D01*
X161882598Y-104165796D01*
X161345804Y-103629003D01*
X161322001Y-103599999D01*
X161206276Y-103505026D01*
X161074247Y-103434454D01*
X160930986Y-103390997D01*
X160819333Y-103380000D01*
X160819322Y-103380000D01*
X160782000Y-103376324D01*
X160744678Y-103380000D01*
X156922901Y-103380000D01*
X156900932Y-103338899D01*
X156721608Y-103120392D01*
X156608518Y-103027581D01*
X156626482Y-103025812D01*
X156746180Y-102989502D01*
X156856494Y-102930537D01*
X156953185Y-102851185D01*
X157032537Y-102754494D01*
X157091502Y-102644180D01*
X157127812Y-102524482D01*
X157140072Y-102400000D01*
X157137000Y-101885750D01*
X156978250Y-101727000D01*
X155829000Y-101727000D01*
X155829000Y-101747000D01*
X155575000Y-101747000D01*
X155575000Y-101727000D01*
X154425750Y-101727000D01*
X154267000Y-101885750D01*
X154263928Y-102400000D01*
X154276188Y-102524482D01*
X154312498Y-102644180D01*
X154371463Y-102754494D01*
X154450815Y-102851185D01*
X154547506Y-102930537D01*
X154657820Y-102989502D01*
X154777518Y-103025812D01*
X154795482Y-103027581D01*
X154682392Y-103120392D01*
X154503068Y-103338899D01*
X154369818Y-103588192D01*
X154287764Y-103858691D01*
X154260057Y-104140000D01*
X154287764Y-104421309D01*
X154369818Y-104691808D01*
X154503068Y-104941101D01*
X154682392Y-105159608D01*
X154900899Y-105338932D01*
X155033858Y-105410000D01*
X154900899Y-105481068D01*
X154682392Y-105660392D01*
X154503068Y-105878899D01*
X154369818Y-106128192D01*
X154287764Y-106398691D01*
X154260057Y-106680000D01*
X154287764Y-106961309D01*
X154369818Y-107231808D01*
X154503068Y-107481101D01*
X154682392Y-107699608D01*
X154900899Y-107878932D01*
X155033858Y-107950000D01*
X154900899Y-108021068D01*
X154682392Y-108200392D01*
X154503068Y-108418899D01*
X154369818Y-108668192D01*
X154287764Y-108938691D01*
X154260057Y-109220000D01*
X154287764Y-109501309D01*
X154369818Y-109771808D01*
X154503068Y-110021101D01*
X154682392Y-110239608D01*
X154900899Y-110418932D01*
X154929108Y-110434010D01*
X146314892Y-110434010D01*
X146343101Y-110418932D01*
X146561608Y-110239608D01*
X146740932Y-110021101D01*
X146874182Y-109771808D01*
X146956236Y-109501309D01*
X146983943Y-109220000D01*
X146956236Y-108938691D01*
X146874182Y-108668192D01*
X146740932Y-108418899D01*
X146561608Y-108200392D01*
X146343101Y-108021068D01*
X146210142Y-107950000D01*
X146343101Y-107878932D01*
X146561608Y-107699608D01*
X146740932Y-107481101D01*
X146762901Y-107440000D01*
X147649676Y-107440000D01*
X147686998Y-107443676D01*
X147724320Y-107440000D01*
X147724331Y-107440000D01*
X147835984Y-107429003D01*
X147979245Y-107385546D01*
X148111274Y-107314974D01*
X148226999Y-107220001D01*
X148250802Y-107190997D01*
X154266172Y-101175627D01*
X154267000Y-101314250D01*
X154425750Y-101473000D01*
X155575000Y-101473000D01*
X155575000Y-100323750D01*
X155829000Y-100323750D01*
X155829000Y-101473000D01*
X156978250Y-101473000D01*
X157137000Y-101314250D01*
X157140072Y-100800000D01*
X157127812Y-100675518D01*
X157091502Y-100555820D01*
X157032537Y-100445506D01*
X156953185Y-100348815D01*
X156856494Y-100269463D01*
X156746180Y-100210498D01*
X156626482Y-100174188D01*
X156502000Y-100161928D01*
X155987750Y-100165000D01*
X155829000Y-100323750D01*
X155575000Y-100323750D01*
X155416250Y-100165000D01*
X155277628Y-100164172D01*
X159589953Y-95851846D01*
X159666618Y-95995275D01*
X159666618Y-95995275D01*
G37*
X159666618Y-95995275D02*
X159833445Y-96198555D01*
X160022001Y-96353298D01*
X160022000Y-100687679D01*
X160018324Y-100725002D01*
X160022000Y-100762324D01*
X160022000Y-100762334D01*
X160032997Y-100873987D01*
X160060597Y-100964973D01*
X160076454Y-101017248D01*
X160147026Y-101149278D01*
X160186871Y-101197828D01*
X160241999Y-101265003D01*
X160271003Y-101288806D01*
X161762001Y-102779805D01*
X161762001Y-103302679D01*
X161758325Y-103340001D01*
X161762001Y-103377323D01*
X161762001Y-103377333D01*
X161772998Y-103488986D01*
X161806673Y-103599999D01*
X161816455Y-103632247D01*
X161887027Y-103764277D01*
X161923078Y-103808205D01*
X161907764Y-103858691D01*
X161880057Y-104140000D01*
X161882598Y-104165796D01*
X161345804Y-103629003D01*
X161322001Y-103599999D01*
X161206276Y-103505026D01*
X161074247Y-103434454D01*
X160930986Y-103390997D01*
X160819333Y-103380000D01*
X160819322Y-103380000D01*
X160782000Y-103376324D01*
X160744678Y-103380000D01*
X156922901Y-103380000D01*
X156900932Y-103338899D01*
X156721608Y-103120392D01*
X156608518Y-103027581D01*
X156626482Y-103025812D01*
X156746180Y-102989502D01*
X156856494Y-102930537D01*
X156953185Y-102851185D01*
X157032537Y-102754494D01*
X157091502Y-102644180D01*
X157127812Y-102524482D01*
X157140072Y-102400000D01*
X157137000Y-101885750D01*
X156978250Y-101727000D01*
X155829000Y-101727000D01*
X155829000Y-101747000D01*
X155575000Y-101747000D01*
X155575000Y-101727000D01*
X154425750Y-101727000D01*
X154267000Y-101885750D01*
X154263928Y-102400000D01*
X154276188Y-102524482D01*
X154312498Y-102644180D01*
X154371463Y-102754494D01*
X154450815Y-102851185D01*
X154547506Y-102930537D01*
X154657820Y-102989502D01*
X154777518Y-103025812D01*
X154795482Y-103027581D01*
X154682392Y-103120392D01*
X154503068Y-103338899D01*
X154369818Y-103588192D01*
X154287764Y-103858691D01*
X154260057Y-104140000D01*
X154287764Y-104421309D01*
X154369818Y-104691808D01*
X154503068Y-104941101D01*
X154682392Y-105159608D01*
X154900899Y-105338932D01*
X155033858Y-105410000D01*
X154900899Y-105481068D01*
X154682392Y-105660392D01*
X154503068Y-105878899D01*
X154369818Y-106128192D01*
X154287764Y-106398691D01*
X154260057Y-106680000D01*
X154287764Y-106961309D01*
X154369818Y-107231808D01*
X154503068Y-107481101D01*
X154682392Y-107699608D01*
X154900899Y-107878932D01*
X155033858Y-107950000D01*
X154900899Y-108021068D01*
X154682392Y-108200392D01*
X154503068Y-108418899D01*
X154369818Y-108668192D01*
X154287764Y-108938691D01*
X154260057Y-109220000D01*
X154287764Y-109501309D01*
X154369818Y-109771808D01*
X154503068Y-110021101D01*
X154682392Y-110239608D01*
X154900899Y-110418932D01*
X154929108Y-110434010D01*
X146314892Y-110434010D01*
X146343101Y-110418932D01*
X146561608Y-110239608D01*
X146740932Y-110021101D01*
X146874182Y-109771808D01*
X146956236Y-109501309D01*
X146983943Y-109220000D01*
X146956236Y-108938691D01*
X146874182Y-108668192D01*
X146740932Y-108418899D01*
X146561608Y-108200392D01*
X146343101Y-108021068D01*
X146210142Y-107950000D01*
X146343101Y-107878932D01*
X146561608Y-107699608D01*
X146740932Y-107481101D01*
X146762901Y-107440000D01*
X147649676Y-107440000D01*
X147686998Y-107443676D01*
X147724320Y-107440000D01*
X147724331Y-107440000D01*
X147835984Y-107429003D01*
X147979245Y-107385546D01*
X148111274Y-107314974D01*
X148226999Y-107220001D01*
X148250802Y-107190997D01*
X154266172Y-101175627D01*
X154267000Y-101314250D01*
X154425750Y-101473000D01*
X155575000Y-101473000D01*
X155575000Y-100323750D01*
X155829000Y-100323750D01*
X155829000Y-101473000D01*
X156978250Y-101473000D01*
X157137000Y-101314250D01*
X157140072Y-100800000D01*
X157127812Y-100675518D01*
X157091502Y-100555820D01*
X157032537Y-100445506D01*
X156953185Y-100348815D01*
X156856494Y-100269463D01*
X156746180Y-100210498D01*
X156626482Y-100174188D01*
X156502000Y-100161928D01*
X155987750Y-100165000D01*
X155829000Y-100323750D01*
X155575000Y-100323750D01*
X155416250Y-100165000D01*
X155277628Y-100164172D01*
X159589953Y-95851846D01*
X159666618Y-95995275D01*
G36*
X166605996Y-92797571D02*
G01*
X166880184Y-92866300D01*
X167162512Y-92880217D01*
X167442130Y-92838787D01*
X167497001Y-92819164D01*
X167497001Y-93872125D01*
X167303816Y-93823700D01*
X167021488Y-93809783D01*
X166741870Y-93851213D01*
X166475708Y-93946397D01*
X166350486Y-94013329D01*
X166278903Y-94257298D01*
X167092000Y-95070395D01*
X167106143Y-95056253D01*
X167285748Y-95235858D01*
X167271605Y-95250000D01*
X167285748Y-95264143D01*
X167106143Y-95443748D01*
X167092000Y-95429605D01*
X166278903Y-96242702D01*
X166350486Y-96486671D01*
X166605996Y-96607571D01*
X166880184Y-96676300D01*
X167162512Y-96690217D01*
X167442130Y-96648787D01*
X167497001Y-96629164D01*
X167497001Y-103970197D01*
X164761402Y-106705796D01*
X164763943Y-106680000D01*
X164736236Y-106398691D01*
X164722708Y-106354094D01*
X164958005Y-106118797D01*
X164987002Y-106095000D01*
X165081975Y-105979275D01*
X165152547Y-105847246D01*
X165196004Y-105703985D01*
X165207001Y-105592332D01*
X165207001Y-105592324D01*
X165210677Y-105554999D01*
X165207001Y-105517674D01*
X165207001Y-101297800D01*
X166881004Y-99623798D01*
X166910001Y-99600001D01*
X167004974Y-99484276D01*
X167075546Y-99352247D01*
X167119003Y-99208986D01*
X167130000Y-99097333D01*
X167130000Y-99097324D01*
X167133676Y-99060001D01*
X167130000Y-99022678D01*
X167130000Y-98730324D01*
X167133676Y-98693001D01*
X167130000Y-98655678D01*
X167130000Y-98655670D01*
X167119003Y-98544017D01*
X167075546Y-98400755D01*
X167004974Y-98268726D01*
X166966901Y-98222334D01*
X166933799Y-98181998D01*
X166933795Y-98181994D01*
X166910001Y-98153001D01*
X166881008Y-98129207D01*
X165272778Y-96520978D01*
X165506759Y-96364637D01*
X165706637Y-96164759D01*
X165840692Y-95964131D01*
X165855329Y-95991514D01*
X166099298Y-96063097D01*
X166912395Y-95250000D01*
X166099298Y-94436903D01*
X165855329Y-94508486D01*
X165841676Y-94537341D01*
X165706637Y-94335241D01*
X165506759Y-94135363D01*
X165272778Y-93979022D01*
X166268005Y-92983795D01*
X166297002Y-92959998D01*
X166362477Y-92880217D01*
X166391975Y-92844274D01*
X166455102Y-92726172D01*
X166605996Y-92797571D01*
X166605996Y-92797571D01*
G37*
X166605996Y-92797571D02*
X166880184Y-92866300D01*
X167162512Y-92880217D01*
X167442130Y-92838787D01*
X167497001Y-92819164D01*
X167497001Y-93872125D01*
X167303816Y-93823700D01*
X167021488Y-93809783D01*
X166741870Y-93851213D01*
X166475708Y-93946397D01*
X166350486Y-94013329D01*
X166278903Y-94257298D01*
X167092000Y-95070395D01*
X167106143Y-95056253D01*
X167285748Y-95235858D01*
X167271605Y-95250000D01*
X167285748Y-95264143D01*
X167106143Y-95443748D01*
X167092000Y-95429605D01*
X166278903Y-96242702D01*
X166350486Y-96486671D01*
X166605996Y-96607571D01*
X166880184Y-96676300D01*
X167162512Y-96690217D01*
X167442130Y-96648787D01*
X167497001Y-96629164D01*
X167497001Y-103970197D01*
X164761402Y-106705796D01*
X164763943Y-106680000D01*
X164736236Y-106398691D01*
X164722708Y-106354094D01*
X164958005Y-106118797D01*
X164987002Y-106095000D01*
X165081975Y-105979275D01*
X165152547Y-105847246D01*
X165196004Y-105703985D01*
X165207001Y-105592332D01*
X165207001Y-105592324D01*
X165210677Y-105554999D01*
X165207001Y-105517674D01*
X165207001Y-101297800D01*
X166881004Y-99623798D01*
X166910001Y-99600001D01*
X167004974Y-99484276D01*
X167075546Y-99352247D01*
X167119003Y-99208986D01*
X167130000Y-99097333D01*
X167130000Y-99097324D01*
X167133676Y-99060001D01*
X167130000Y-99022678D01*
X167130000Y-98730324D01*
X167133676Y-98693001D01*
X167130000Y-98655678D01*
X167130000Y-98655670D01*
X167119003Y-98544017D01*
X167075546Y-98400755D01*
X167004974Y-98268726D01*
X166966901Y-98222334D01*
X166933799Y-98181998D01*
X166933795Y-98181994D01*
X166910001Y-98153001D01*
X166881008Y-98129207D01*
X165272778Y-96520978D01*
X165506759Y-96364637D01*
X165706637Y-96164759D01*
X165840692Y-95964131D01*
X165855329Y-95991514D01*
X166099298Y-96063097D01*
X166912395Y-95250000D01*
X166099298Y-94436903D01*
X165855329Y-94508486D01*
X165841676Y-94537341D01*
X165706637Y-94335241D01*
X165506759Y-94135363D01*
X165272778Y-93979022D01*
X166268005Y-92983795D01*
X166297002Y-92959998D01*
X166362477Y-92880217D01*
X166391975Y-92844274D01*
X166455102Y-92726172D01*
X166605996Y-92797571D01*
G36*
X138049000Y-101473000D02*
G01*
X138069000Y-101473000D01*
X138069000Y-101727000D01*
X138049000Y-101727000D01*
X138049000Y-101747000D01*
X137795000Y-101747000D01*
X137795000Y-101727000D01*
X137775000Y-101727000D01*
X137775000Y-101473000D01*
X137795000Y-101473000D01*
X137795000Y-101453000D01*
X138049000Y-101453000D01*
X138049000Y-101473000D01*
X138049000Y-101473000D01*
G37*
X138049000Y-101473000D02*
X138069000Y-101473000D01*
X138069000Y-101727000D01*
X138049000Y-101727000D01*
X138049000Y-101747000D01*
X137795000Y-101747000D01*
X137795000Y-101727000D01*
X137775000Y-101727000D01*
X137775000Y-101473000D01*
X137795000Y-101473000D01*
X137795000Y-101453000D01*
X138049000Y-101453000D01*
X138049000Y-101473000D01*
G36*
X162054001Y-95816288D02*
G01*
X162010063Y-95860226D01*
X161896795Y-96029744D01*
X161818774Y-96218102D01*
X161779000Y-96418061D01*
X161779000Y-96621939D01*
X161818774Y-96821898D01*
X161896795Y-97010256D01*
X162010063Y-97179774D01*
X162154226Y-97323937D01*
X162323744Y-97437205D01*
X162512102Y-97515226D01*
X162712061Y-97555000D01*
X162915939Y-97555000D01*
X163115898Y-97515226D01*
X163304256Y-97437205D01*
X163473774Y-97323937D01*
X163617937Y-97179774D01*
X163683639Y-97081443D01*
X165478697Y-98876501D01*
X164080254Y-100274944D01*
X164071003Y-100181014D01*
X164027546Y-100037753D01*
X163956974Y-99905724D01*
X163943811Y-99889685D01*
X163885799Y-99818996D01*
X163885795Y-99818992D01*
X163862001Y-99789999D01*
X163833008Y-99766205D01*
X162771848Y-98705046D01*
X162771848Y-98642909D01*
X162732074Y-98442950D01*
X162654053Y-98254592D01*
X162540785Y-98085074D01*
X162396622Y-97940911D01*
X162227104Y-97827643D01*
X162038746Y-97749622D01*
X161838787Y-97709848D01*
X161634909Y-97709848D01*
X161542000Y-97728329D01*
X161542000Y-96353298D01*
X161730555Y-96198555D01*
X161897382Y-95995275D01*
X162021347Y-95763354D01*
X162054001Y-95655709D01*
X162054001Y-95816288D01*
X162054001Y-95816288D01*
G37*
X162054001Y-95816288D02*
X162010063Y-95860226D01*
X161896795Y-96029744D01*
X161818774Y-96218102D01*
X161779000Y-96418061D01*
X161779000Y-96621939D01*
X161818774Y-96821898D01*
X161896795Y-97010256D01*
X162010063Y-97179774D01*
X162154226Y-97323937D01*
X162323744Y-97437205D01*
X162512102Y-97515226D01*
X162712061Y-97555000D01*
X162915939Y-97555000D01*
X163115898Y-97515226D01*
X163304256Y-97437205D01*
X163473774Y-97323937D01*
X163617937Y-97179774D01*
X163683639Y-97081443D01*
X165478697Y-98876501D01*
X164080254Y-100274944D01*
X164071003Y-100181014D01*
X164027546Y-100037753D01*
X163956974Y-99905724D01*
X163943811Y-99889685D01*
X163885799Y-99818996D01*
X163885795Y-99818992D01*
X163862001Y-99789999D01*
X163833008Y-99766205D01*
X162771848Y-98705046D01*
X162771848Y-98642909D01*
X162732074Y-98442950D01*
X162654053Y-98254592D01*
X162540785Y-98085074D01*
X162396622Y-97940911D01*
X162227104Y-97827643D01*
X162038746Y-97749622D01*
X161838787Y-97709848D01*
X161634909Y-97709848D01*
X161542000Y-97728329D01*
X161542000Y-96353298D01*
X161730555Y-96198555D01*
X161897382Y-95995275D01*
X162021347Y-95763354D01*
X162054001Y-95655709D01*
X162054001Y-95816288D01*
G36*
X167285748Y-91425858D02*
G01*
X167271605Y-91440000D01*
X167285748Y-91454143D01*
X167106143Y-91633748D01*
X167092000Y-91619605D01*
X167077858Y-91633748D01*
X166898253Y-91454143D01*
X166912395Y-91440000D01*
X166898253Y-91425858D01*
X167077858Y-91246253D01*
X167092000Y-91260395D01*
X167106143Y-91246253D01*
X167285748Y-91425858D01*
X167285748Y-91425858D01*
G37*
X167285748Y-91425858D02*
X167271605Y-91440000D01*
X167285748Y-91454143D01*
X167106143Y-91633748D01*
X167092000Y-91619605D01*
X167077858Y-91633748D01*
X166898253Y-91454143D01*
X166912395Y-91440000D01*
X166898253Y-91425858D01*
X167077858Y-91246253D01*
X167092000Y-91260395D01*
X167106143Y-91246253D01*
X167285748Y-91425858D01*
G36*
X167325748Y-87615858D02*
G01*
X167311605Y-87630000D01*
X167325748Y-87644143D01*
X167146143Y-87823748D01*
X167132000Y-87809605D01*
X167117858Y-87823748D01*
X166938253Y-87644143D01*
X166952395Y-87630000D01*
X166938253Y-87615858D01*
X167117858Y-87436253D01*
X167132000Y-87450395D01*
X167146143Y-87436253D01*
X167325748Y-87615858D01*
X167325748Y-87615858D01*
G37*
X167325748Y-87615858D02*
X167311605Y-87630000D01*
X167325748Y-87644143D01*
X167146143Y-87823748D01*
X167132000Y-87809605D01*
X167117858Y-87823748D01*
X166938253Y-87644143D01*
X166952395Y-87630000D01*
X166938253Y-87615858D01*
X167117858Y-87436253D01*
X167132000Y-87450395D01*
X167146143Y-87436253D01*
X167325748Y-87615858D01*
G36*
X167285748Y-83805858D02*
G01*
X167271605Y-83820000D01*
X167285748Y-83834143D01*
X167106143Y-84013748D01*
X167092000Y-83999605D01*
X167077858Y-84013748D01*
X166898253Y-83834143D01*
X166912395Y-83820000D01*
X166898253Y-83805858D01*
X167077858Y-83626253D01*
X167092000Y-83640395D01*
X167106143Y-83626253D01*
X167285748Y-83805858D01*
X167285748Y-83805858D01*
G37*
X167285748Y-83805858D02*
X167271605Y-83820000D01*
X167285748Y-83834143D01*
X167106143Y-84013748D01*
X167092000Y-83999605D01*
X167077858Y-84013748D01*
X166898253Y-83834143D01*
X166912395Y-83820000D01*
X166898253Y-83805858D01*
X167077858Y-83626253D01*
X167092000Y-83640395D01*
X167106143Y-83626253D01*
X167285748Y-83805858D01*
G36*
X166768272Y-78616076D02*
G01*
X166515708Y-78706397D01*
X166390486Y-78773329D01*
X166318903Y-79017298D01*
X167132000Y-79830395D01*
X167146143Y-79816253D01*
X167325748Y-79995858D01*
X167311605Y-80010000D01*
X167325748Y-80024143D01*
X167146143Y-80203748D01*
X167132000Y-80189605D01*
X166318903Y-81002702D01*
X166390486Y-81246671D01*
X166645996Y-81367571D01*
X166920184Y-81436300D01*
X167202512Y-81450217D01*
X167482130Y-81408787D01*
X167497002Y-81403469D01*
X167497002Y-82442125D01*
X167303816Y-82393700D01*
X167021488Y-82379783D01*
X166741870Y-82421213D01*
X166517001Y-82501630D01*
X166517001Y-82303696D01*
X166520677Y-82266371D01*
X166517001Y-82229046D01*
X166517001Y-82229038D01*
X166506004Y-82117385D01*
X166462547Y-81974124D01*
X166391975Y-81842095D01*
X166297002Y-81726370D01*
X166268004Y-81702572D01*
X165618414Y-81052982D01*
X165746637Y-80924759D01*
X165880692Y-80724131D01*
X165895329Y-80751514D01*
X166139298Y-80823097D01*
X166952395Y-80010000D01*
X166139298Y-79196903D01*
X165895329Y-79268486D01*
X165881676Y-79297341D01*
X165746637Y-79095241D01*
X165546759Y-78895363D01*
X165311727Y-78738320D01*
X165050574Y-78630147D01*
X164773335Y-78575000D01*
X164490665Y-78575000D01*
X164308114Y-78611312D01*
X164082000Y-78385199D01*
X164082000Y-77541983D01*
X164173426Y-77579853D01*
X164450665Y-77635000D01*
X164733335Y-77635000D01*
X165010574Y-77579853D01*
X165271727Y-77471680D01*
X165277235Y-77468000D01*
X165620197Y-77468000D01*
X166768272Y-78616076D01*
X166768272Y-78616076D01*
G37*
X166768272Y-78616076D02*
X166515708Y-78706397D01*
X166390486Y-78773329D01*
X166318903Y-79017298D01*
X167132000Y-79830395D01*
X167146143Y-79816253D01*
X167325748Y-79995858D01*
X167311605Y-80010000D01*
X167325748Y-80024143D01*
X167146143Y-80203748D01*
X167132000Y-80189605D01*
X166318903Y-81002702D01*
X166390486Y-81246671D01*
X166645996Y-81367571D01*
X166920184Y-81436300D01*
X167202512Y-81450217D01*
X167482130Y-81408787D01*
X167497002Y-81403469D01*
X167497002Y-82442125D01*
X167303816Y-82393700D01*
X167021488Y-82379783D01*
X166741870Y-82421213D01*
X166517001Y-82501630D01*
X166517001Y-82303696D01*
X166520677Y-82266371D01*
X166517001Y-82229046D01*
X166517001Y-82229038D01*
X166506004Y-82117385D01*
X166462547Y-81974124D01*
X166391975Y-81842095D01*
X166297002Y-81726370D01*
X166268004Y-81702572D01*
X165618414Y-81052982D01*
X165746637Y-80924759D01*
X165880692Y-80724131D01*
X165895329Y-80751514D01*
X166139298Y-80823097D01*
X166952395Y-80010000D01*
X166139298Y-79196903D01*
X165895329Y-79268486D01*
X165881676Y-79297341D01*
X165746637Y-79095241D01*
X165546759Y-78895363D01*
X165311727Y-78738320D01*
X165050574Y-78630147D01*
X164773335Y-78575000D01*
X164490665Y-78575000D01*
X164308114Y-78611312D01*
X164082000Y-78385199D01*
X164082000Y-77541983D01*
X164173426Y-77579853D01*
X164450665Y-77635000D01*
X164733335Y-77635000D01*
X165010574Y-77579853D01*
X165271727Y-77471680D01*
X165277235Y-77468000D01*
X165620197Y-77468000D01*
X166768272Y-78616076D01*
M02*
