M48
; DRILL file {KiCad (5.1.2-1)-1} date Monday, 19 August 2019 at 03:38:39 pm
; FORMAT={-:-/ absolute / inch / decimal}
; #@! TF.CreationDate,2019-08-19T15:38:39+10:00
; #@! TF.GenerationSoftware,Kicad,Pcbnew,(5.1.2-1)-1
; #@! TF.FileFunction,Plated,1,2,PTH
FMAT,2
INCH
T1C0.0157
T2C0.0276
T3C0.0295
T4C0.0315
T5C0.0354
T6C0.0433
T7C0.0472
T8C0.1098
%
G90
G05
T1
X4.89Y-4.3
X5.0Y-4.51
X5.41Y-4.61
X5.62Y-4.11
X5.62Y-4.22
X6.27Y-3.84
X6.3676Y-3.8876
X6.37Y-3.83
X6.41Y-3.8
X6.47Y-3.89
X6.53Y-3.08
X6.55Y-3.84
T2
X6.13Y-3.15
X6.33Y-3.15
X6.83Y-3.99
X6.83Y-4.19
X6.13Y-3.6
X6.33Y-3.6
X6.13Y-3.3
X6.33Y-3.3
X6.13Y-3.0
X6.33Y-3.0
X6.83Y-3.49
X6.83Y-3.69
X6.13Y-3.75
X6.33Y-3.75
X6.13Y-3.45
X6.33Y-3.45
X6.83Y-2.94
X6.83Y-3.14
T3
X6.48Y-4.6
X6.5587Y-4.6
X6.6375Y-4.6
X6.08Y-4.6
X6.1587Y-4.6
T4
X6.48Y-3.3
X6.5784Y-3.3
X6.48Y-3.0
X6.5784Y-3.0
X6.48Y-3.6
X6.5784Y-3.6
X5.13Y-3.15
X5.13Y-3.25
X5.13Y-3.35
X5.13Y-3.45
X5.13Y-3.55
X5.13Y-3.65
X5.13Y-3.75
X5.43Y-3.15
X5.43Y-3.25
X5.43Y-3.35
X5.43Y-3.45
X5.43Y-3.55
X5.43Y-3.65
X5.43Y-3.75
X6.5816Y-2.8
X6.68Y-2.8
X6.13Y-4.0
X6.13Y-4.1
X6.13Y-4.2
X6.13Y-4.3
X6.43Y-4.0
X6.43Y-4.1
X6.43Y-4.2
X6.43Y-4.3
X5.43Y-4.0
X5.43Y-4.1
X5.43Y-4.2
X5.43Y-4.3
X5.73Y-4.0
X5.73Y-4.1
X5.73Y-4.2
X5.73Y-4.3
X4.73Y-4.0
X4.73Y-4.1
X4.73Y-4.2
X4.73Y-4.3
X5.03Y-4.0
X5.03Y-4.1
X5.03Y-4.2
X5.03Y-4.3
X6.4816Y-3.15
X6.58Y-3.15
X4.58Y-3.15
X4.58Y-3.25
X4.58Y-3.35
X4.58Y-3.45
X4.58Y-3.55
X4.58Y-3.65
X4.58Y-3.75
X4.88Y-3.15
X4.88Y-3.25
X4.88Y-3.35
X4.88Y-3.45
X4.88Y-3.55
X4.88Y-3.65
X4.88Y-3.75
X5.63Y-3.15
X5.63Y-3.25
X5.63Y-3.35
X5.63Y-3.45
X5.63Y-3.55
X5.63Y-3.65
X5.63Y-3.75
X5.93Y-3.15
X5.93Y-3.25
X5.93Y-3.35
X5.93Y-3.45
X5.93Y-3.55
X5.93Y-3.65
X5.93Y-3.75
X6.4816Y-3.45
X6.58Y-3.45
X6.48Y-3.75
X6.5784Y-3.75
X6.23Y-2.75
X6.33Y-2.75
X6.43Y-2.75
T5
X6.98Y-4.09
X7.08Y-4.09
X6.98Y-3.04
X7.08Y-3.04
X6.98Y-3.59
X7.08Y-3.59
T6
X5.68Y-2.7
X5.68Y-2.8772
X5.9359Y-2.7
X5.9359Y-2.8772
T7
X4.98Y-2.6
X4.98Y-2.7969
X5.1375Y-2.6
X5.1375Y-2.7969
X5.295Y-2.6
X5.295Y-2.7969
T8
X7.03Y-4.65
X7.03Y-2.55
X4.58Y-2.55
X4.58Y-4.65
T0
M30
