M48
; DRILL file {KiCad (5.1.2-1)-1} date Wednesday, 21 August 2019 at 09:49:32 pm
; FORMAT={-:-/ absolute / inch / decimal}
; #@! TF.CreationDate,2019-08-21T21:49:32+10:00
; #@! TF.GenerationSoftware,Kicad,Pcbnew,(5.1.2-1)-1
; #@! TF.FileFunction,Plated,1,2,PTH
FMAT,2
INCH
T1C0.0157
T2C0.0276
T3C0.0295
T4C0.0315
T5C0.0354
T6C0.1098
%
G90
G05
T1
X0.66Y-2.35
X0.79Y-3.2
X0.81Y-2.63
X0.84Y-2.52
X0.89Y-2.49
X0.95Y-2.44
X0.96Y-2.4
X0.98Y-2.11
X1.21Y-2.55
X1.2148Y-2.8252
X1.26Y-2.05
X1.55Y-2.05
X1.71Y-2.78
X1.73Y-2.9357
X1.73Y-3.0
X1.86Y-2.05
X1.8832Y-2.9928
X1.91Y-3.6
X1.92Y-3.03
X1.925Y-3.275
X1.945Y-2.815
X1.9598Y-3.0002
X2.01Y-3.3908
X2.04Y-3.42
X2.08Y-3.3908
X2.09Y-3.22
X2.21Y-2.71
X2.26Y-2.99
X2.3128Y-2.9972
X2.41Y-3.28
X2.4778Y-3.0622
X2.4978Y-2.9822
X2.5728Y-2.9572
X2.59Y-2.77
X2.6302Y-2.8398
X2.67Y-2.87
X2.7Y-2.9
X2.7Y-3.64
X2.86Y-3.26
X2.86Y-3.394
X3.47Y-2.29
X3.47Y-2.67
X3.47Y-3.0
X3.48Y-2.42
X3.48Y-2.54
X3.48Y-2.78
X3.48Y-2.89
X3.48Y-3.11
T2
X3.1Y-2.25
X3.3Y-2.25
X2.2Y-2.25
X2.4Y-2.25
X2.8Y-2.25
X3.0Y-2.25
X1.9Y-2.25
X2.1Y-2.25
X1.0Y-2.25
X1.2Y-2.25
X2.5Y-2.25
X2.7Y-2.25
X1.3Y-2.25
X1.5Y-2.25
X1.6Y-2.25
X1.8Y-2.25
T3
X2.0Y-3.9
X2.0787Y-3.9
X2.1575Y-3.9
X2.2362Y-3.9
X3.1Y-3.9
X3.1787Y-3.9
X2.55Y-3.9
X2.6287Y-3.9
X2.7075Y-3.9
X2.7862Y-3.9
X1.1Y-3.9
X1.1787Y-3.9
X1.2575Y-3.9
X1.3362Y-3.9
X1.415Y-3.9
X1.4937Y-3.9
X1.5724Y-3.9
X1.6512Y-3.9
T4
X0.95Y-2.62
X0.95Y-2.92
X1.05Y-2.62
X1.05Y-2.92
X1.15Y-2.62
X1.15Y-2.92
X1.25Y-2.62
X1.25Y-2.92
X1.35Y-2.62
X1.35Y-2.92
X1.45Y-2.62
X1.45Y-2.92
X1.55Y-2.62
X1.55Y-2.92
X1.65Y-2.62
X1.65Y-2.92
X0.95Y-3.15
X0.95Y-3.45
X1.05Y-3.15
X1.05Y-3.45
X1.15Y-3.15
X1.15Y-3.45
X1.25Y-3.15
X1.25Y-3.45
X1.35Y-3.15
X1.35Y-3.45
X1.45Y-3.15
X1.45Y-3.45
X1.55Y-3.15
X1.55Y-3.45
X1.65Y-3.15
X1.65Y-3.45
X1.75Y-3.15
X1.75Y-3.45
X1.85Y-3.15
X1.85Y-3.45
X2.3Y-3.15
X2.3Y-3.45
X2.4Y-3.15
X2.4Y-3.45
X2.5Y-3.15
X2.5Y-3.45
X2.6Y-3.15
X2.6Y-3.45
X2.7Y-3.15
X2.7Y-3.45
X2.8Y-3.15
X2.8Y-3.45
X2.9Y-3.15
X2.9Y-3.45
X3.0Y-3.15
X3.0Y-3.45
X1.95Y-2.9
X2.0484Y-2.9
T5
X1.05Y-2.05
X1.15Y-2.05
X2.25Y-2.05
X2.35Y-2.05
X2.85Y-2.05
X2.95Y-2.05
X3.15Y-2.05
X3.25Y-2.05
X2.55Y-2.05
X2.65Y-2.05
X1.65Y-2.05
X1.75Y-2.05
X1.95Y-2.05
X2.05Y-2.05
X1.35Y-2.05
X1.45Y-2.05
T6
X0.8Y-3.95
X3.5Y-2.05
X3.5Y-3.95
X0.8Y-2.05
T0
M30
