G04 #@! TF.GenerationSoftware,KiCad,Pcbnew,(5.1.2-1)-1*
G04 #@! TF.CreationDate,2019-08-25T20:16:48+10:00*
G04 #@! TF.ProjectId,control-logic,636f6e74-726f-46c2-9d6c-6f6769632e6b,rev?*
G04 #@! TF.SameCoordinates,Original*
G04 #@! TF.FileFunction,Legend,Top*
G04 #@! TF.FilePolarity,Positive*
%FSLAX46Y46*%
G04 Gerber Fmt 4.6, Leading zero omitted, Abs format (unit mm)*
G04 Created by KiCad (PCBNEW (5.1.2-1)-1) date 2019-08-25 20:16:48*
%MOMM*%
%LPD*%
G04 APERTURE LIST*
%ADD10C,0.127000*%
%ADD11C,0.150000*%
%ADD12C,0.120000*%
%ADD13C,0.100000*%
%ADD14C,0.101600*%
G04 APERTURE END LIST*
D10*
X150803428Y-95594714D02*
X150984857Y-96102714D01*
X151166285Y-95594714D01*
X151855714Y-96102714D02*
X151420285Y-96102714D01*
X151638000Y-96102714D02*
X151638000Y-95340714D01*
X151565428Y-95449571D01*
X151492857Y-95522142D01*
X151420285Y-95558428D01*
X152182285Y-96030142D02*
X152218571Y-96066428D01*
X152182285Y-96102714D01*
X152146000Y-96066428D01*
X152182285Y-96030142D01*
X152182285Y-96102714D01*
X152690285Y-95340714D02*
X152762857Y-95340714D01*
X152835428Y-95377000D01*
X152871714Y-95413285D01*
X152908000Y-95485857D01*
X152944285Y-95631000D01*
X152944285Y-95812428D01*
X152908000Y-95957571D01*
X152871714Y-96030142D01*
X152835428Y-96066428D01*
X152762857Y-96102714D01*
X152690285Y-96102714D01*
X152617714Y-96066428D01*
X152581428Y-96030142D01*
X152545142Y-95957571D01*
X152508857Y-95812428D01*
X152508857Y-95631000D01*
X152545142Y-95485857D01*
X152581428Y-95413285D01*
X152617714Y-95377000D01*
X152690285Y-95340714D01*
X142929428Y-94832714D02*
X142929428Y-94070714D01*
X143110857Y-94070714D01*
X143219714Y-94107000D01*
X143292285Y-94179571D01*
X143328571Y-94252142D01*
X143364857Y-94397285D01*
X143364857Y-94506142D01*
X143328571Y-94651285D01*
X143292285Y-94723857D01*
X143219714Y-94796428D01*
X143110857Y-94832714D01*
X142929428Y-94832714D01*
X143981714Y-94796428D02*
X143909142Y-94832714D01*
X143764000Y-94832714D01*
X143691428Y-94796428D01*
X143655142Y-94723857D01*
X143655142Y-94433571D01*
X143691428Y-94361000D01*
X143764000Y-94324714D01*
X143909142Y-94324714D01*
X143981714Y-94361000D01*
X144018000Y-94433571D01*
X144018000Y-94506142D01*
X143655142Y-94578714D01*
X144308285Y-94796428D02*
X144380857Y-94832714D01*
X144526000Y-94832714D01*
X144598571Y-94796428D01*
X144634857Y-94723857D01*
X144634857Y-94687571D01*
X144598571Y-94615000D01*
X144526000Y-94578714D01*
X144417142Y-94578714D01*
X144344571Y-94542428D01*
X144308285Y-94469857D01*
X144308285Y-94433571D01*
X144344571Y-94361000D01*
X144417142Y-94324714D01*
X144526000Y-94324714D01*
X144598571Y-94361000D01*
X144961428Y-94832714D02*
X144961428Y-94324714D01*
X144961428Y-94070714D02*
X144925142Y-94107000D01*
X144961428Y-94143285D01*
X144997714Y-94107000D01*
X144961428Y-94070714D01*
X144961428Y-94143285D01*
X145650857Y-94324714D02*
X145650857Y-94941571D01*
X145614571Y-95014142D01*
X145578285Y-95050428D01*
X145505714Y-95086714D01*
X145396857Y-95086714D01*
X145324285Y-95050428D01*
X145650857Y-94796428D02*
X145578285Y-94832714D01*
X145433142Y-94832714D01*
X145360571Y-94796428D01*
X145324285Y-94760142D01*
X145288000Y-94687571D01*
X145288000Y-94469857D01*
X145324285Y-94397285D01*
X145360571Y-94361000D01*
X145433142Y-94324714D01*
X145578285Y-94324714D01*
X145650857Y-94361000D01*
X146013714Y-94324714D02*
X146013714Y-94832714D01*
X146013714Y-94397285D02*
X146050000Y-94361000D01*
X146122571Y-94324714D01*
X146231428Y-94324714D01*
X146304000Y-94361000D01*
X146340285Y-94433571D01*
X146340285Y-94832714D01*
X146993428Y-94796428D02*
X146920857Y-94832714D01*
X146775714Y-94832714D01*
X146703142Y-94796428D01*
X146666857Y-94723857D01*
X146666857Y-94433571D01*
X146703142Y-94361000D01*
X146775714Y-94324714D01*
X146920857Y-94324714D01*
X146993428Y-94361000D01*
X147029714Y-94433571D01*
X147029714Y-94506142D01*
X146666857Y-94578714D01*
X147682857Y-94832714D02*
X147682857Y-94070714D01*
X147682857Y-94796428D02*
X147610285Y-94832714D01*
X147465142Y-94832714D01*
X147392571Y-94796428D01*
X147356285Y-94760142D01*
X147320000Y-94687571D01*
X147320000Y-94469857D01*
X147356285Y-94397285D01*
X147392571Y-94361000D01*
X147465142Y-94324714D01*
X147610285Y-94324714D01*
X147682857Y-94361000D01*
X148626285Y-94832714D02*
X148626285Y-94070714D01*
X148626285Y-94361000D02*
X148698857Y-94324714D01*
X148844000Y-94324714D01*
X148916571Y-94361000D01*
X148952857Y-94397285D01*
X148989142Y-94469857D01*
X148989142Y-94687571D01*
X148952857Y-94760142D01*
X148916571Y-94796428D01*
X148844000Y-94832714D01*
X148698857Y-94832714D01*
X148626285Y-94796428D01*
X149243142Y-94324714D02*
X149424571Y-94832714D01*
X149606000Y-94324714D02*
X149424571Y-94832714D01*
X149352000Y-95014142D01*
X149315714Y-95050428D01*
X149243142Y-95086714D01*
X150440571Y-94796428D02*
X150549428Y-94832714D01*
X150730857Y-94832714D01*
X150803428Y-94796428D01*
X150839714Y-94760142D01*
X150876000Y-94687571D01*
X150876000Y-94615000D01*
X150839714Y-94542428D01*
X150803428Y-94506142D01*
X150730857Y-94469857D01*
X150585714Y-94433571D01*
X150513142Y-94397285D01*
X150476857Y-94361000D01*
X150440571Y-94288428D01*
X150440571Y-94215857D01*
X150476857Y-94143285D01*
X150513142Y-94107000D01*
X150585714Y-94070714D01*
X150767142Y-94070714D01*
X150876000Y-94107000D01*
X151202571Y-94832714D02*
X151202571Y-94070714D01*
X151529142Y-94832714D02*
X151529142Y-94433571D01*
X151492857Y-94361000D01*
X151420285Y-94324714D01*
X151311428Y-94324714D01*
X151238857Y-94361000D01*
X151202571Y-94397285D01*
X152218571Y-94832714D02*
X152218571Y-94433571D01*
X152182285Y-94361000D01*
X152109714Y-94324714D01*
X151964571Y-94324714D01*
X151892000Y-94361000D01*
X152218571Y-94796428D02*
X152146000Y-94832714D01*
X151964571Y-94832714D01*
X151892000Y-94796428D01*
X151855714Y-94723857D01*
X151855714Y-94651285D01*
X151892000Y-94578714D01*
X151964571Y-94542428D01*
X152146000Y-94542428D01*
X152218571Y-94506142D01*
X152581428Y-94324714D02*
X152581428Y-94832714D01*
X152581428Y-94397285D02*
X152617714Y-94361000D01*
X152690285Y-94324714D01*
X152799142Y-94324714D01*
X152871714Y-94361000D01*
X152908000Y-94433571D01*
X152908000Y-94832714D01*
X153561142Y-94796428D02*
X153488571Y-94832714D01*
X153343428Y-94832714D01*
X153270857Y-94796428D01*
X153234571Y-94723857D01*
X153234571Y-94433571D01*
X153270857Y-94361000D01*
X153343428Y-94324714D01*
X153488571Y-94324714D01*
X153561142Y-94361000D01*
X153597428Y-94433571D01*
X153597428Y-94506142D01*
X153234571Y-94578714D01*
X154504571Y-94832714D02*
X154504571Y-94070714D01*
X154794857Y-94070714D01*
X154867428Y-94107000D01*
X154903714Y-94143285D01*
X154940000Y-94215857D01*
X154940000Y-94324714D01*
X154903714Y-94397285D01*
X154867428Y-94433571D01*
X154794857Y-94469857D01*
X154504571Y-94469857D01*
X155375428Y-94832714D02*
X155302857Y-94796428D01*
X155266571Y-94760142D01*
X155230285Y-94687571D01*
X155230285Y-94469857D01*
X155266571Y-94397285D01*
X155302857Y-94361000D01*
X155375428Y-94324714D01*
X155484285Y-94324714D01*
X155556857Y-94361000D01*
X155593142Y-94397285D01*
X155629428Y-94469857D01*
X155629428Y-94687571D01*
X155593142Y-94760142D01*
X155556857Y-94796428D01*
X155484285Y-94832714D01*
X155375428Y-94832714D01*
X155956000Y-94324714D02*
X155956000Y-95086714D01*
X155956000Y-94361000D02*
X156028571Y-94324714D01*
X156173714Y-94324714D01*
X156246285Y-94361000D01*
X156282571Y-94397285D01*
X156318857Y-94469857D01*
X156318857Y-94687571D01*
X156282571Y-94760142D01*
X156246285Y-94796428D01*
X156173714Y-94832714D01*
X156028571Y-94832714D01*
X155956000Y-94796428D01*
X156645428Y-94324714D02*
X156645428Y-95086714D01*
X156645428Y-94361000D02*
X156718000Y-94324714D01*
X156863142Y-94324714D01*
X156935714Y-94361000D01*
X156972000Y-94397285D01*
X157008285Y-94469857D01*
X157008285Y-94687571D01*
X156972000Y-94760142D01*
X156935714Y-94796428D01*
X156863142Y-94832714D01*
X156718000Y-94832714D01*
X156645428Y-94796428D01*
X157443714Y-94832714D02*
X157371142Y-94796428D01*
X157334857Y-94723857D01*
X157334857Y-94070714D01*
X158024285Y-94796428D02*
X157951714Y-94832714D01*
X157806571Y-94832714D01*
X157734000Y-94796428D01*
X157697714Y-94723857D01*
X157697714Y-94433571D01*
X157734000Y-94361000D01*
X157806571Y-94324714D01*
X157951714Y-94324714D01*
X158024285Y-94361000D01*
X158060571Y-94433571D01*
X158060571Y-94506142D01*
X157697714Y-94578714D01*
X158278285Y-94324714D02*
X158568571Y-94324714D01*
X158387142Y-94070714D02*
X158387142Y-94723857D01*
X158423428Y-94796428D01*
X158496000Y-94832714D01*
X158568571Y-94832714D01*
X158931428Y-94832714D02*
X158858857Y-94796428D01*
X158822571Y-94760142D01*
X158786285Y-94687571D01*
X158786285Y-94469857D01*
X158822571Y-94397285D01*
X158858857Y-94361000D01*
X158931428Y-94324714D01*
X159040285Y-94324714D01*
X159112857Y-94361000D01*
X159149142Y-94397285D01*
X159185428Y-94469857D01*
X159185428Y-94687571D01*
X159149142Y-94760142D01*
X159112857Y-94796428D01*
X159040285Y-94832714D01*
X158931428Y-94832714D01*
X159512000Y-94324714D02*
X159512000Y-94832714D01*
X159512000Y-94397285D02*
X159548285Y-94361000D01*
X159620857Y-94324714D01*
X159729714Y-94324714D01*
X159802285Y-94361000D01*
X159838571Y-94433571D01*
X159838571Y-94832714D01*
X147274642Y-93372214D02*
X147220214Y-93426642D01*
X147056928Y-93481071D01*
X146948071Y-93481071D01*
X146784785Y-93426642D01*
X146675928Y-93317785D01*
X146621500Y-93208928D01*
X146567071Y-92991214D01*
X146567071Y-92827928D01*
X146621500Y-92610214D01*
X146675928Y-92501357D01*
X146784785Y-92392500D01*
X146948071Y-92338071D01*
X147056928Y-92338071D01*
X147220214Y-92392500D01*
X147274642Y-92446928D01*
X147927785Y-93481071D02*
X147818928Y-93426642D01*
X147764500Y-93372214D01*
X147710071Y-93263357D01*
X147710071Y-92936785D01*
X147764500Y-92827928D01*
X147818928Y-92773500D01*
X147927785Y-92719071D01*
X148091071Y-92719071D01*
X148199928Y-92773500D01*
X148254357Y-92827928D01*
X148308785Y-92936785D01*
X148308785Y-93263357D01*
X148254357Y-93372214D01*
X148199928Y-93426642D01*
X148091071Y-93481071D01*
X147927785Y-93481071D01*
X148798642Y-92719071D02*
X148798642Y-93481071D01*
X148798642Y-92827928D02*
X148853071Y-92773500D01*
X148961928Y-92719071D01*
X149125214Y-92719071D01*
X149234071Y-92773500D01*
X149288500Y-92882357D01*
X149288500Y-93481071D01*
X149669500Y-92719071D02*
X150104928Y-92719071D01*
X149832785Y-92338071D02*
X149832785Y-93317785D01*
X149887214Y-93426642D01*
X149996071Y-93481071D01*
X150104928Y-93481071D01*
X150485928Y-93481071D02*
X150485928Y-92719071D01*
X150485928Y-92936785D02*
X150540357Y-92827928D01*
X150594785Y-92773500D01*
X150703642Y-92719071D01*
X150812500Y-92719071D01*
X151356785Y-93481071D02*
X151247928Y-93426642D01*
X151193500Y-93372214D01*
X151139071Y-93263357D01*
X151139071Y-92936785D01*
X151193500Y-92827928D01*
X151247928Y-92773500D01*
X151356785Y-92719071D01*
X151520071Y-92719071D01*
X151628928Y-92773500D01*
X151683357Y-92827928D01*
X151737785Y-92936785D01*
X151737785Y-93263357D01*
X151683357Y-93372214D01*
X151628928Y-93426642D01*
X151520071Y-93481071D01*
X151356785Y-93481071D01*
X152390928Y-93481071D02*
X152282071Y-93426642D01*
X152227642Y-93317785D01*
X152227642Y-92338071D01*
X154241500Y-93481071D02*
X153697214Y-93481071D01*
X153697214Y-92338071D01*
X154785785Y-93481071D02*
X154676928Y-93426642D01*
X154622500Y-93372214D01*
X154568071Y-93263357D01*
X154568071Y-92936785D01*
X154622500Y-92827928D01*
X154676928Y-92773500D01*
X154785785Y-92719071D01*
X154949071Y-92719071D01*
X155057928Y-92773500D01*
X155112357Y-92827928D01*
X155166785Y-92936785D01*
X155166785Y-93263357D01*
X155112357Y-93372214D01*
X155057928Y-93426642D01*
X154949071Y-93481071D01*
X154785785Y-93481071D01*
X156146500Y-92719071D02*
X156146500Y-93644357D01*
X156092071Y-93753214D01*
X156037642Y-93807642D01*
X155928785Y-93862071D01*
X155765500Y-93862071D01*
X155656642Y-93807642D01*
X156146500Y-93426642D02*
X156037642Y-93481071D01*
X155819928Y-93481071D01*
X155711071Y-93426642D01*
X155656642Y-93372214D01*
X155602214Y-93263357D01*
X155602214Y-92936785D01*
X155656642Y-92827928D01*
X155711071Y-92773500D01*
X155819928Y-92719071D01*
X156037642Y-92719071D01*
X156146500Y-92773500D01*
X156690785Y-93481071D02*
X156690785Y-92719071D01*
X156690785Y-92338071D02*
X156636357Y-92392500D01*
X156690785Y-92446928D01*
X156745214Y-92392500D01*
X156690785Y-92338071D01*
X156690785Y-92446928D01*
X157724928Y-93426642D02*
X157616071Y-93481071D01*
X157398357Y-93481071D01*
X157289500Y-93426642D01*
X157235071Y-93372214D01*
X157180642Y-93263357D01*
X157180642Y-92936785D01*
X157235071Y-92827928D01*
X157289500Y-92773500D01*
X157398357Y-92719071D01*
X157616071Y-92719071D01*
X157724928Y-92773500D01*
X142974785Y-91703071D02*
X142974785Y-90560071D01*
X143246928Y-90560071D01*
X143410214Y-90614500D01*
X143519071Y-90723357D01*
X143573500Y-90832214D01*
X143627928Y-91049928D01*
X143627928Y-91213214D01*
X143573500Y-91430928D01*
X143519071Y-91539785D01*
X143410214Y-91648642D01*
X143246928Y-91703071D01*
X142974785Y-91703071D01*
X144117785Y-91703071D02*
X144117785Y-90560071D01*
X144879785Y-91158785D02*
X144879785Y-91703071D01*
X144498785Y-90560071D02*
X144879785Y-91158785D01*
X145260785Y-90560071D01*
X146675928Y-91049928D02*
X146567071Y-90995500D01*
X146512642Y-90941071D01*
X146458214Y-90832214D01*
X146458214Y-90777785D01*
X146512642Y-90668928D01*
X146567071Y-90614500D01*
X146675928Y-90560071D01*
X146893642Y-90560071D01*
X147002500Y-90614500D01*
X147056928Y-90668928D01*
X147111357Y-90777785D01*
X147111357Y-90832214D01*
X147056928Y-90941071D01*
X147002500Y-90995500D01*
X146893642Y-91049928D01*
X146675928Y-91049928D01*
X146567071Y-91104357D01*
X146512642Y-91158785D01*
X146458214Y-91267642D01*
X146458214Y-91485357D01*
X146512642Y-91594214D01*
X146567071Y-91648642D01*
X146675928Y-91703071D01*
X146893642Y-91703071D01*
X147002500Y-91648642D01*
X147056928Y-91594214D01*
X147111357Y-91485357D01*
X147111357Y-91267642D01*
X147056928Y-91158785D01*
X147002500Y-91104357D01*
X146893642Y-91049928D01*
X147601214Y-91267642D02*
X148472071Y-91267642D01*
X149397357Y-91104357D02*
X149560642Y-91158785D01*
X149615071Y-91213214D01*
X149669500Y-91322071D01*
X149669500Y-91485357D01*
X149615071Y-91594214D01*
X149560642Y-91648642D01*
X149451785Y-91703071D01*
X149016357Y-91703071D01*
X149016357Y-90560071D01*
X149397357Y-90560071D01*
X149506214Y-90614500D01*
X149560642Y-90668928D01*
X149615071Y-90777785D01*
X149615071Y-90886642D01*
X149560642Y-90995500D01*
X149506214Y-91049928D01*
X149397357Y-91104357D01*
X149016357Y-91104357D01*
X150159357Y-91703071D02*
X150159357Y-90941071D01*
X150159357Y-90560071D02*
X150104928Y-90614500D01*
X150159357Y-90668928D01*
X150213785Y-90614500D01*
X150159357Y-90560071D01*
X150159357Y-90668928D01*
X150540357Y-90941071D02*
X150975785Y-90941071D01*
X150703642Y-90560071D02*
X150703642Y-91539785D01*
X150758071Y-91648642D01*
X150866928Y-91703071D01*
X150975785Y-91703071D01*
X152880785Y-91594214D02*
X152826357Y-91648642D01*
X152663071Y-91703071D01*
X152554214Y-91703071D01*
X152390928Y-91648642D01*
X152282071Y-91539785D01*
X152227642Y-91430928D01*
X152173214Y-91213214D01*
X152173214Y-91049928D01*
X152227642Y-90832214D01*
X152282071Y-90723357D01*
X152390928Y-90614500D01*
X152554214Y-90560071D01*
X152663071Y-90560071D01*
X152826357Y-90614500D01*
X152880785Y-90668928D01*
X153533928Y-91703071D02*
X153425071Y-91648642D01*
X153370642Y-91594214D01*
X153316214Y-91485357D01*
X153316214Y-91158785D01*
X153370642Y-91049928D01*
X153425071Y-90995500D01*
X153533928Y-90941071D01*
X153697214Y-90941071D01*
X153806071Y-90995500D01*
X153860500Y-91049928D01*
X153914928Y-91158785D01*
X153914928Y-91485357D01*
X153860500Y-91594214D01*
X153806071Y-91648642D01*
X153697214Y-91703071D01*
X153533928Y-91703071D01*
X154404785Y-91703071D02*
X154404785Y-90941071D01*
X154404785Y-91049928D02*
X154459214Y-90995500D01*
X154568071Y-90941071D01*
X154731357Y-90941071D01*
X154840214Y-90995500D01*
X154894642Y-91104357D01*
X154894642Y-91703071D01*
X154894642Y-91104357D02*
X154949071Y-90995500D01*
X155057928Y-90941071D01*
X155221214Y-90941071D01*
X155330071Y-90995500D01*
X155384500Y-91104357D01*
X155384500Y-91703071D01*
X155928785Y-90941071D02*
X155928785Y-92084071D01*
X155928785Y-90995500D02*
X156037642Y-90941071D01*
X156255357Y-90941071D01*
X156364214Y-90995500D01*
X156418642Y-91049928D01*
X156473071Y-91158785D01*
X156473071Y-91485357D01*
X156418642Y-91594214D01*
X156364214Y-91648642D01*
X156255357Y-91703071D01*
X156037642Y-91703071D01*
X155928785Y-91648642D01*
X157452785Y-90941071D02*
X157452785Y-91703071D01*
X156962928Y-90941071D02*
X156962928Y-91539785D01*
X157017357Y-91648642D01*
X157126214Y-91703071D01*
X157289500Y-91703071D01*
X157398357Y-91648642D01*
X157452785Y-91594214D01*
X157833785Y-90941071D02*
X158269214Y-90941071D01*
X157997071Y-90560071D02*
X157997071Y-91539785D01*
X158051500Y-91648642D01*
X158160357Y-91703071D01*
X158269214Y-91703071D01*
X159085642Y-91648642D02*
X158976785Y-91703071D01*
X158759071Y-91703071D01*
X158650214Y-91648642D01*
X158595785Y-91539785D01*
X158595785Y-91104357D01*
X158650214Y-90995500D01*
X158759071Y-90941071D01*
X158976785Y-90941071D01*
X159085642Y-90995500D01*
X159140071Y-91104357D01*
X159140071Y-91213214D01*
X158595785Y-91322071D01*
X159629928Y-91703071D02*
X159629928Y-90941071D01*
X159629928Y-91158785D02*
X159684357Y-91049928D01*
X159738785Y-90995500D01*
X159847642Y-90941071D01*
X159956500Y-90941071D01*
D11*
X175712380Y-138706761D02*
X174712380Y-138706761D01*
X175426666Y-138373428D01*
X174712380Y-138040095D01*
X175712380Y-138040095D01*
X175712380Y-137563904D02*
X175045714Y-137563904D01*
X174712380Y-137563904D02*
X174760000Y-137611523D01*
X174807619Y-137563904D01*
X174760000Y-137516285D01*
X174712380Y-137563904D01*
X174807619Y-137563904D01*
X175664761Y-136659142D02*
X175712380Y-136754380D01*
X175712380Y-136944857D01*
X175664761Y-137040095D01*
X175617142Y-137087714D01*
X175521904Y-137135333D01*
X175236190Y-137135333D01*
X175140952Y-137087714D01*
X175093333Y-137040095D01*
X175045714Y-136944857D01*
X175045714Y-136754380D01*
X175093333Y-136659142D01*
X175712380Y-136230571D02*
X175045714Y-136230571D01*
X175236190Y-136230571D02*
X175140952Y-136182952D01*
X175093333Y-136135333D01*
X175045714Y-136040095D01*
X175045714Y-135944857D01*
X175712380Y-135468666D02*
X175664761Y-135563904D01*
X175617142Y-135611523D01*
X175521904Y-135659142D01*
X175236190Y-135659142D01*
X175140952Y-135611523D01*
X175093333Y-135563904D01*
X175045714Y-135468666D01*
X175045714Y-135325809D01*
X175093333Y-135230571D01*
X175140952Y-135182952D01*
X175236190Y-135135333D01*
X175521904Y-135135333D01*
X175617142Y-135182952D01*
X175664761Y-135230571D01*
X175712380Y-135325809D01*
X175712380Y-135468666D01*
X175331428Y-134706761D02*
X175331428Y-133944857D01*
X175712380Y-133468666D02*
X174712380Y-133468666D01*
X175045714Y-132992476D02*
X175712380Y-132992476D01*
X175140952Y-132992476D02*
X175093333Y-132944857D01*
X175045714Y-132849619D01*
X175045714Y-132706761D01*
X175093333Y-132611523D01*
X175188571Y-132563904D01*
X175712380Y-132563904D01*
X175664761Y-132135333D02*
X175712380Y-132040095D01*
X175712380Y-131849619D01*
X175664761Y-131754380D01*
X175569523Y-131706761D01*
X175521904Y-131706761D01*
X175426666Y-131754380D01*
X175379047Y-131849619D01*
X175379047Y-131992476D01*
X175331428Y-132087714D01*
X175236190Y-132135333D01*
X175188571Y-132135333D01*
X175093333Y-132087714D01*
X175045714Y-131992476D01*
X175045714Y-131849619D01*
X175093333Y-131754380D01*
X175045714Y-131421047D02*
X175045714Y-131040095D01*
X174712380Y-131278190D02*
X175569523Y-131278190D01*
X175664761Y-131230571D01*
X175712380Y-131135333D01*
X175712380Y-131040095D01*
X175712380Y-130706761D02*
X175045714Y-130706761D01*
X175236190Y-130706761D02*
X175140952Y-130659142D01*
X175093333Y-130611523D01*
X175045714Y-130516285D01*
X175045714Y-130421047D01*
X175045714Y-129659142D02*
X175712380Y-129659142D01*
X175045714Y-130087714D02*
X175569523Y-130087714D01*
X175664761Y-130040095D01*
X175712380Y-129944857D01*
X175712380Y-129802000D01*
X175664761Y-129706761D01*
X175617142Y-129659142D01*
X175664761Y-128754380D02*
X175712380Y-128849619D01*
X175712380Y-129040095D01*
X175664761Y-129135333D01*
X175617142Y-129182952D01*
X175521904Y-129230571D01*
X175236190Y-129230571D01*
X175140952Y-129182952D01*
X175093333Y-129135333D01*
X175045714Y-129040095D01*
X175045714Y-128849619D01*
X175093333Y-128754380D01*
X175045714Y-128468666D02*
X175045714Y-128087714D01*
X174712380Y-128325809D02*
X175569523Y-128325809D01*
X175664761Y-128278190D01*
X175712380Y-128182952D01*
X175712380Y-128087714D01*
X175712380Y-127754380D02*
X175045714Y-127754380D01*
X174712380Y-127754380D02*
X174760000Y-127802000D01*
X174807619Y-127754380D01*
X174760000Y-127706761D01*
X174712380Y-127754380D01*
X174807619Y-127754380D01*
X175712380Y-127135333D02*
X175664761Y-127230571D01*
X175617142Y-127278190D01*
X175521904Y-127325809D01*
X175236190Y-127325809D01*
X175140952Y-127278190D01*
X175093333Y-127230571D01*
X175045714Y-127135333D01*
X175045714Y-126992476D01*
X175093333Y-126897238D01*
X175140952Y-126849619D01*
X175236190Y-126802000D01*
X175521904Y-126802000D01*
X175617142Y-126849619D01*
X175664761Y-126897238D01*
X175712380Y-126992476D01*
X175712380Y-127135333D01*
X175045714Y-126373428D02*
X175712380Y-126373428D01*
X175140952Y-126373428D02*
X175093333Y-126325809D01*
X175045714Y-126230571D01*
X175045714Y-126087714D01*
X175093333Y-125992476D01*
X175188571Y-125944857D01*
X175712380Y-125944857D01*
X175664761Y-124754380D02*
X175712380Y-124611523D01*
X175712380Y-124373428D01*
X175664761Y-124278190D01*
X175617142Y-124230571D01*
X175521904Y-124182952D01*
X175426666Y-124182952D01*
X175331428Y-124230571D01*
X175283809Y-124278190D01*
X175236190Y-124373428D01*
X175188571Y-124563904D01*
X175140952Y-124659142D01*
X175093333Y-124706761D01*
X174998095Y-124754380D01*
X174902857Y-124754380D01*
X174807619Y-124706761D01*
X174760000Y-124659142D01*
X174712380Y-124563904D01*
X174712380Y-124325809D01*
X174760000Y-124182952D01*
X175045714Y-123897238D02*
X175045714Y-123516285D01*
X174712380Y-123754380D02*
X175569523Y-123754380D01*
X175664761Y-123706761D01*
X175712380Y-123611523D01*
X175712380Y-123516285D01*
X175664761Y-122802000D02*
X175712380Y-122897238D01*
X175712380Y-123087714D01*
X175664761Y-123182952D01*
X175569523Y-123230571D01*
X175188571Y-123230571D01*
X175093333Y-123182952D01*
X175045714Y-123087714D01*
X175045714Y-122897238D01*
X175093333Y-122802000D01*
X175188571Y-122754380D01*
X175283809Y-122754380D01*
X175379047Y-123230571D01*
X175045714Y-122325809D02*
X176045714Y-122325809D01*
X175093333Y-122325809D02*
X175045714Y-122230571D01*
X175045714Y-122040095D01*
X175093333Y-121944857D01*
X175140952Y-121897238D01*
X175236190Y-121849619D01*
X175521904Y-121849619D01*
X175617142Y-121897238D01*
X175664761Y-121944857D01*
X175712380Y-122040095D01*
X175712380Y-122230571D01*
X175664761Y-122325809D01*
X175712380Y-108194857D02*
X174712380Y-108194857D01*
X175426666Y-107861523D01*
X174712380Y-107528190D01*
X175712380Y-107528190D01*
X175712380Y-107052000D02*
X175045714Y-107052000D01*
X174712380Y-107052000D02*
X174760000Y-107099619D01*
X174807619Y-107052000D01*
X174760000Y-107004380D01*
X174712380Y-107052000D01*
X174807619Y-107052000D01*
X175664761Y-106147238D02*
X175712380Y-106242476D01*
X175712380Y-106432952D01*
X175664761Y-106528190D01*
X175617142Y-106575809D01*
X175521904Y-106623428D01*
X175236190Y-106623428D01*
X175140952Y-106575809D01*
X175093333Y-106528190D01*
X175045714Y-106432952D01*
X175045714Y-106242476D01*
X175093333Y-106147238D01*
X175712380Y-105718666D02*
X175045714Y-105718666D01*
X175236190Y-105718666D02*
X175140952Y-105671047D01*
X175093333Y-105623428D01*
X175045714Y-105528190D01*
X175045714Y-105432952D01*
X175712380Y-104956761D02*
X175664761Y-105052000D01*
X175617142Y-105099619D01*
X175521904Y-105147238D01*
X175236190Y-105147238D01*
X175140952Y-105099619D01*
X175093333Y-105052000D01*
X175045714Y-104956761D01*
X175045714Y-104813904D01*
X175093333Y-104718666D01*
X175140952Y-104671047D01*
X175236190Y-104623428D01*
X175521904Y-104623428D01*
X175617142Y-104671047D01*
X175664761Y-104718666D01*
X175712380Y-104813904D01*
X175712380Y-104956761D01*
X175331428Y-104194857D02*
X175331428Y-103432952D01*
X175712380Y-102956761D02*
X174712380Y-102956761D01*
X175045714Y-102480571D02*
X175712380Y-102480571D01*
X175140952Y-102480571D02*
X175093333Y-102432952D01*
X175045714Y-102337714D01*
X175045714Y-102194857D01*
X175093333Y-102099619D01*
X175188571Y-102052000D01*
X175712380Y-102052000D01*
X175664761Y-101623428D02*
X175712380Y-101528190D01*
X175712380Y-101337714D01*
X175664761Y-101242476D01*
X175569523Y-101194857D01*
X175521904Y-101194857D01*
X175426666Y-101242476D01*
X175379047Y-101337714D01*
X175379047Y-101480571D01*
X175331428Y-101575809D01*
X175236190Y-101623428D01*
X175188571Y-101623428D01*
X175093333Y-101575809D01*
X175045714Y-101480571D01*
X175045714Y-101337714D01*
X175093333Y-101242476D01*
X175045714Y-100909142D02*
X175045714Y-100528190D01*
X174712380Y-100766285D02*
X175569523Y-100766285D01*
X175664761Y-100718666D01*
X175712380Y-100623428D01*
X175712380Y-100528190D01*
X175712380Y-100194857D02*
X175045714Y-100194857D01*
X175236190Y-100194857D02*
X175140952Y-100147238D01*
X175093333Y-100099619D01*
X175045714Y-100004380D01*
X175045714Y-99909142D01*
X175045714Y-99147238D02*
X175712380Y-99147238D01*
X175045714Y-99575809D02*
X175569523Y-99575809D01*
X175664761Y-99528190D01*
X175712380Y-99432952D01*
X175712380Y-99290095D01*
X175664761Y-99194857D01*
X175617142Y-99147238D01*
X175664761Y-98242476D02*
X175712380Y-98337714D01*
X175712380Y-98528190D01*
X175664761Y-98623428D01*
X175617142Y-98671047D01*
X175521904Y-98718666D01*
X175236190Y-98718666D01*
X175140952Y-98671047D01*
X175093333Y-98623428D01*
X175045714Y-98528190D01*
X175045714Y-98337714D01*
X175093333Y-98242476D01*
X175045714Y-97956761D02*
X175045714Y-97575809D01*
X174712380Y-97813904D02*
X175569523Y-97813904D01*
X175664761Y-97766285D01*
X175712380Y-97671047D01*
X175712380Y-97575809D01*
X175712380Y-97242476D02*
X175045714Y-97242476D01*
X174712380Y-97242476D02*
X174760000Y-97290095D01*
X174807619Y-97242476D01*
X174760000Y-97194857D01*
X174712380Y-97242476D01*
X174807619Y-97242476D01*
X175712380Y-96623428D02*
X175664761Y-96718666D01*
X175617142Y-96766285D01*
X175521904Y-96813904D01*
X175236190Y-96813904D01*
X175140952Y-96766285D01*
X175093333Y-96718666D01*
X175045714Y-96623428D01*
X175045714Y-96480571D01*
X175093333Y-96385333D01*
X175140952Y-96337714D01*
X175236190Y-96290095D01*
X175521904Y-96290095D01*
X175617142Y-96337714D01*
X175664761Y-96385333D01*
X175712380Y-96480571D01*
X175712380Y-96623428D01*
X175045714Y-95861523D02*
X175712380Y-95861523D01*
X175140952Y-95861523D02*
X175093333Y-95813904D01*
X175045714Y-95718666D01*
X175045714Y-95575809D01*
X175093333Y-95480571D01*
X175188571Y-95432952D01*
X175712380Y-95432952D01*
X175617142Y-93623428D02*
X175664761Y-93671047D01*
X175712380Y-93813904D01*
X175712380Y-93909142D01*
X175664761Y-94052000D01*
X175569523Y-94147238D01*
X175474285Y-94194857D01*
X175283809Y-94242476D01*
X175140952Y-94242476D01*
X174950476Y-94194857D01*
X174855238Y-94147238D01*
X174760000Y-94052000D01*
X174712380Y-93909142D01*
X174712380Y-93813904D01*
X174760000Y-93671047D01*
X174807619Y-93623428D01*
X175712380Y-93052000D02*
X175664761Y-93147238D01*
X175617142Y-93194857D01*
X175521904Y-93242476D01*
X175236190Y-93242476D01*
X175140952Y-93194857D01*
X175093333Y-93147238D01*
X175045714Y-93052000D01*
X175045714Y-92909142D01*
X175093333Y-92813904D01*
X175140952Y-92766285D01*
X175236190Y-92718666D01*
X175521904Y-92718666D01*
X175617142Y-92766285D01*
X175664761Y-92813904D01*
X175712380Y-92909142D01*
X175712380Y-93052000D01*
X175045714Y-91861523D02*
X175712380Y-91861523D01*
X175045714Y-92290095D02*
X175569523Y-92290095D01*
X175664761Y-92242476D01*
X175712380Y-92147238D01*
X175712380Y-92004380D01*
X175664761Y-91909142D01*
X175617142Y-91861523D01*
X175045714Y-91385333D02*
X175712380Y-91385333D01*
X175140952Y-91385333D02*
X175093333Y-91337714D01*
X175045714Y-91242476D01*
X175045714Y-91099619D01*
X175093333Y-91004380D01*
X175188571Y-90956761D01*
X175712380Y-90956761D01*
X175045714Y-90623428D02*
X175045714Y-90242476D01*
X174712380Y-90480571D02*
X175569523Y-90480571D01*
X175664761Y-90432952D01*
X175712380Y-90337714D01*
X175712380Y-90242476D01*
X175664761Y-89528190D02*
X175712380Y-89623428D01*
X175712380Y-89813904D01*
X175664761Y-89909142D01*
X175569523Y-89956761D01*
X175188571Y-89956761D01*
X175093333Y-89909142D01*
X175045714Y-89813904D01*
X175045714Y-89623428D01*
X175093333Y-89528190D01*
X175188571Y-89480571D01*
X175283809Y-89480571D01*
X175379047Y-89956761D01*
X175712380Y-89052000D02*
X175045714Y-89052000D01*
X175236190Y-89052000D02*
X175140952Y-89004380D01*
X175093333Y-88956761D01*
X175045714Y-88861523D01*
X175045714Y-88766285D01*
D12*
X122330000Y-153810000D02*
X122330000Y-152595000D01*
X122390000Y-157770000D02*
X122390000Y-160030000D01*
X122890000Y-157770000D02*
X122890000Y-160030000D01*
X143490000Y-156170000D02*
X144490000Y-156170000D01*
X143490000Y-157770000D02*
X143490000Y-156170000D01*
X144490000Y-157770000D02*
X143490000Y-157770000D01*
X144490000Y-156170000D02*
X144490000Y-157770000D01*
X122890000Y-156170000D02*
X121890000Y-156170000D01*
X122890000Y-157770000D02*
X122890000Y-156170000D01*
X121890000Y-157770000D02*
X122890000Y-157770000D01*
X121890000Y-156170000D02*
X121890000Y-157770000D01*
X145250000Y-153810000D02*
X144330000Y-153810000D01*
X121130000Y-153810000D02*
X122050000Y-153810000D01*
X142690000Y-155670000D02*
X142690000Y-160030000D01*
X123690000Y-155670000D02*
X142690000Y-155670000D01*
X123690000Y-160030000D02*
X123690000Y-155670000D01*
X144330000Y-153810000D02*
X144050000Y-153810000D01*
X144330000Y-152210000D02*
X144330000Y-153810000D01*
X145250000Y-152210000D02*
X144330000Y-152210000D01*
X145250000Y-160030000D02*
X145250000Y-152210000D01*
X121130000Y-160030000D02*
X145250000Y-160030000D01*
X121130000Y-152210000D02*
X121130000Y-160030000D01*
X122050000Y-152210000D02*
X121130000Y-152210000D01*
X122050000Y-153810000D02*
X122050000Y-152210000D01*
X122330000Y-153810000D02*
X122050000Y-153810000D01*
D13*
X94330017Y-154940000D02*
G75*
G03X94330017Y-154940000I-2890017J0D01*
G01*
X94330017Y-66040000D02*
G75*
G03X94330017Y-66040000I-2890017J0D01*
G01*
X174086017Y-66040000D02*
G75*
G03X174086017Y-66040000I-2890017J0D01*
G01*
X174340017Y-154940000D02*
G75*
G03X174340017Y-154940000I-2890017J0D01*
G01*
D12*
X147473000Y-146908000D02*
X148731000Y-146908000D01*
X147473000Y-148748000D02*
X148731000Y-148748000D01*
X153275000Y-148748000D02*
X154533000Y-148748000D01*
X153275000Y-146908000D02*
X154533000Y-146908000D01*
X169925538Y-148532000D02*
G75*
G03X171470830Y-142982000I462J2990000D01*
G01*
X169926462Y-148532000D02*
G75*
G02X168381170Y-142982000I-462J2990000D01*
G01*
X172426000Y-145542000D02*
G75*
G03X172426000Y-145542000I-2500000J0D01*
G01*
X171471000Y-142982000D02*
X168381000Y-142982000D01*
X169925538Y-140912000D02*
G75*
G03X171470830Y-135362000I462J2990000D01*
G01*
X169926462Y-140912000D02*
G75*
G02X168381170Y-135362000I-462J2990000D01*
G01*
X172426000Y-137922000D02*
G75*
G03X172426000Y-137922000I-2500000J0D01*
G01*
X171471000Y-135362000D02*
X168381000Y-135362000D01*
X169925538Y-133292000D02*
G75*
G03X171470830Y-127742000I462J2990000D01*
G01*
X169926462Y-133292000D02*
G75*
G02X168381170Y-127742000I-462J2990000D01*
G01*
X172426000Y-130302000D02*
G75*
G03X172426000Y-130302000I-2500000J0D01*
G01*
X171471000Y-127742000D02*
X168381000Y-127742000D01*
X171471000Y-120122000D02*
X168381000Y-120122000D01*
X172426000Y-122682000D02*
G75*
G03X172426000Y-122682000I-2500000J0D01*
G01*
X169926462Y-125672000D02*
G75*
G02X168381170Y-120122000I-462J2990000D01*
G01*
X169925538Y-125672000D02*
G75*
G03X171470830Y-120122000I462J2990000D01*
G01*
X171471000Y-112502000D02*
X168381000Y-112502000D01*
X172426000Y-115062000D02*
G75*
G03X172426000Y-115062000I-2500000J0D01*
G01*
X169926462Y-118052000D02*
G75*
G02X168381170Y-112502000I-462J2990000D01*
G01*
X169925538Y-118052000D02*
G75*
G03X171470830Y-112502000I462J2990000D01*
G01*
X103320000Y-66040462D02*
G75*
G03X97770000Y-64495170I-2990000J462D01*
G01*
X103320000Y-66039538D02*
G75*
G02X97770000Y-67584830I-2990000J-462D01*
G01*
X102830000Y-66040000D02*
G75*
G03X102830000Y-66040000I-2500000J0D01*
G01*
X97770000Y-64495000D02*
X97770000Y-67585000D01*
X105390000Y-64495000D02*
X105390000Y-67585000D01*
X110450000Y-66040000D02*
G75*
G03X110450000Y-66040000I-2500000J0D01*
G01*
X110940000Y-66039538D02*
G75*
G02X105390000Y-67584830I-2990000J-462D01*
G01*
X110940000Y-66040462D02*
G75*
G03X105390000Y-64495170I-2990000J462D01*
G01*
X118560000Y-66040462D02*
G75*
G03X113010000Y-64495170I-2990000J462D01*
G01*
X118560000Y-66039538D02*
G75*
G02X113010000Y-67584830I-2990000J-462D01*
G01*
X118070000Y-66040000D02*
G75*
G03X118070000Y-66040000I-2500000J0D01*
G01*
X113010000Y-64495000D02*
X113010000Y-67585000D01*
X120630000Y-64495000D02*
X120630000Y-67585000D01*
X125690000Y-66040000D02*
G75*
G03X125690000Y-66040000I-2500000J0D01*
G01*
X126180000Y-66039538D02*
G75*
G02X120630000Y-67584830I-2990000J-462D01*
G01*
X126180000Y-66040462D02*
G75*
G03X120630000Y-64495170I-2990000J462D01*
G01*
X169925538Y-109162000D02*
G75*
G03X171470830Y-103612000I462J2990000D01*
G01*
X169926462Y-109162000D02*
G75*
G02X168381170Y-103612000I-462J2990000D01*
G01*
X172426000Y-106172000D02*
G75*
G03X172426000Y-106172000I-2500000J0D01*
G01*
X171471000Y-103612000D02*
X168381000Y-103612000D01*
X171471000Y-95992000D02*
X168381000Y-95992000D01*
X172426000Y-98552000D02*
G75*
G03X172426000Y-98552000I-2500000J0D01*
G01*
X169926462Y-101542000D02*
G75*
G02X168381170Y-95992000I-462J2990000D01*
G01*
X169925538Y-101542000D02*
G75*
G03X171470830Y-95992000I462J2990000D01*
G01*
X171471000Y-88372000D02*
X168381000Y-88372000D01*
X172426000Y-90932000D02*
G75*
G03X172426000Y-90932000I-2500000J0D01*
G01*
X169926462Y-93922000D02*
G75*
G02X168381170Y-88372000I-462J2990000D01*
G01*
X169925538Y-93922000D02*
G75*
G03X171470830Y-88372000I462J2990000D01*
G01*
X133800000Y-66040462D02*
G75*
G03X128250000Y-64495170I-2990000J462D01*
G01*
X133800000Y-66039538D02*
G75*
G02X128250000Y-67584830I-2990000J-462D01*
G01*
X133310000Y-66040000D02*
G75*
G03X133310000Y-66040000I-2500000J0D01*
G01*
X128250000Y-64495000D02*
X128250000Y-67585000D01*
X135616000Y-64495000D02*
X135616000Y-67585000D01*
X140676000Y-66040000D02*
G75*
G03X140676000Y-66040000I-2500000J0D01*
G01*
X141166000Y-66039538D02*
G75*
G02X135616000Y-67584830I-2990000J-462D01*
G01*
X141166000Y-66040462D02*
G75*
G03X135616000Y-64495170I-2990000J462D01*
G01*
X143236000Y-64495000D02*
X143236000Y-67585000D01*
X148296000Y-66040000D02*
G75*
G03X148296000Y-66040000I-2500000J0D01*
G01*
X148786000Y-66039538D02*
G75*
G02X143236000Y-67584830I-2990000J-462D01*
G01*
X148786000Y-66040462D02*
G75*
G03X143236000Y-64495170I-2990000J462D01*
G01*
X156660000Y-66040462D02*
G75*
G03X151110000Y-64495170I-2990000J462D01*
G01*
X156660000Y-66039538D02*
G75*
G02X151110000Y-67584830I-2990000J-462D01*
G01*
X156170000Y-66040000D02*
G75*
G03X156170000Y-66040000I-2500000J0D01*
G01*
X151110000Y-64495000D02*
X151110000Y-67585000D01*
X97770000Y-77957000D02*
X97770000Y-81047000D01*
X102830000Y-79502000D02*
G75*
G03X102830000Y-79502000I-2500000J0D01*
G01*
X103320000Y-79501538D02*
G75*
G02X97770000Y-81046830I-2990000J-462D01*
G01*
X103320000Y-79502462D02*
G75*
G03X97770000Y-77957170I-2990000J462D01*
G01*
X110940000Y-79502462D02*
G75*
G03X105390000Y-77957170I-2990000J462D01*
G01*
X110940000Y-79501538D02*
G75*
G02X105390000Y-81046830I-2990000J-462D01*
G01*
X110450000Y-79502000D02*
G75*
G03X110450000Y-79502000I-2500000J0D01*
G01*
X105390000Y-77957000D02*
X105390000Y-81047000D01*
X118560000Y-79502462D02*
G75*
G03X113010000Y-77957170I-2990000J462D01*
G01*
X118560000Y-79501538D02*
G75*
G02X113010000Y-81046830I-2990000J-462D01*
G01*
X118070000Y-79502000D02*
G75*
G03X118070000Y-79502000I-2500000J0D01*
G01*
X113010000Y-77957000D02*
X113010000Y-81047000D01*
X120630000Y-77957000D02*
X120630000Y-81047000D01*
X125690000Y-79502000D02*
G75*
G03X125690000Y-79502000I-2500000J0D01*
G01*
X126180000Y-79501538D02*
G75*
G02X120630000Y-81046830I-2990000J-462D01*
G01*
X126180000Y-79502462D02*
G75*
G03X120630000Y-77957170I-2990000J462D01*
G01*
X133800000Y-79502462D02*
G75*
G03X128250000Y-77957170I-2990000J462D01*
G01*
X133800000Y-79501538D02*
G75*
G02X128250000Y-81046830I-2990000J-462D01*
G01*
X133310000Y-79502000D02*
G75*
G03X133310000Y-79502000I-2500000J0D01*
G01*
X128250000Y-77957000D02*
X128250000Y-81047000D01*
X135870000Y-77957000D02*
X135870000Y-81047000D01*
X140930000Y-79502000D02*
G75*
G03X140930000Y-79502000I-2500000J0D01*
G01*
X141420000Y-79501538D02*
G75*
G02X135870000Y-81046830I-2990000J-462D01*
G01*
X141420000Y-79502462D02*
G75*
G03X135870000Y-77957170I-2990000J462D01*
G01*
X149040000Y-79502462D02*
G75*
G03X143490000Y-77957170I-2990000J462D01*
G01*
X149040000Y-79501538D02*
G75*
G02X143490000Y-81046830I-2990000J-462D01*
G01*
X148550000Y-79502000D02*
G75*
G03X148550000Y-79502000I-2500000J0D01*
G01*
X143490000Y-77957000D02*
X143490000Y-81047000D01*
X151110000Y-77957000D02*
X151110000Y-81047000D01*
X156170000Y-79502000D02*
G75*
G03X156170000Y-79502000I-2500000J0D01*
G01*
X156660000Y-79501538D02*
G75*
G02X151110000Y-81046830I-2990000J-462D01*
G01*
X156660000Y-79502462D02*
G75*
G03X151110000Y-77957170I-2990000J462D01*
G01*
X160684000Y-153810000D02*
X160404000Y-153810000D01*
X160404000Y-153810000D02*
X160404000Y-152210000D01*
X160404000Y-152210000D02*
X159484000Y-152210000D01*
X159484000Y-152210000D02*
X159484000Y-160030000D01*
X159484000Y-160030000D02*
X165604000Y-160030000D01*
X165604000Y-160030000D02*
X165604000Y-152210000D01*
X165604000Y-152210000D02*
X164684000Y-152210000D01*
X164684000Y-152210000D02*
X164684000Y-153810000D01*
X164684000Y-153810000D02*
X164404000Y-153810000D01*
X162044000Y-160030000D02*
X162044000Y-155670000D01*
X162044000Y-155670000D02*
X163044000Y-155670000D01*
X163044000Y-155670000D02*
X163044000Y-160030000D01*
X159484000Y-153810000D02*
X160404000Y-153810000D01*
X165604000Y-153810000D02*
X164684000Y-153810000D01*
X160244000Y-156170000D02*
X160244000Y-157770000D01*
X160244000Y-157770000D02*
X161244000Y-157770000D01*
X161244000Y-157770000D02*
X161244000Y-156170000D01*
X161244000Y-156170000D02*
X160244000Y-156170000D01*
X164844000Y-156170000D02*
X164844000Y-157770000D01*
X164844000Y-157770000D02*
X163844000Y-157770000D01*
X163844000Y-157770000D02*
X163844000Y-156170000D01*
X163844000Y-156170000D02*
X164844000Y-156170000D01*
X161244000Y-157770000D02*
X161244000Y-160030000D01*
X160744000Y-157770000D02*
X160744000Y-160030000D01*
X160684000Y-153810000D02*
X160684000Y-152595000D01*
X147984000Y-153810000D02*
X147704000Y-153810000D01*
X147704000Y-153810000D02*
X147704000Y-152210000D01*
X147704000Y-152210000D02*
X146784000Y-152210000D01*
X146784000Y-152210000D02*
X146784000Y-160030000D01*
X146784000Y-160030000D02*
X156904000Y-160030000D01*
X156904000Y-160030000D02*
X156904000Y-152210000D01*
X156904000Y-152210000D02*
X155984000Y-152210000D01*
X155984000Y-152210000D02*
X155984000Y-153810000D01*
X155984000Y-153810000D02*
X155704000Y-153810000D01*
X149344000Y-160030000D02*
X149344000Y-155670000D01*
X149344000Y-155670000D02*
X154344000Y-155670000D01*
X154344000Y-155670000D02*
X154344000Y-160030000D01*
X146784000Y-153810000D02*
X147704000Y-153810000D01*
X156904000Y-153810000D02*
X155984000Y-153810000D01*
X147544000Y-156170000D02*
X147544000Y-157770000D01*
X147544000Y-157770000D02*
X148544000Y-157770000D01*
X148544000Y-157770000D02*
X148544000Y-156170000D01*
X148544000Y-156170000D02*
X147544000Y-156170000D01*
X156144000Y-156170000D02*
X156144000Y-157770000D01*
X156144000Y-157770000D02*
X155144000Y-157770000D01*
X155144000Y-157770000D02*
X155144000Y-156170000D01*
X155144000Y-156170000D02*
X156144000Y-156170000D01*
X148544000Y-157770000D02*
X148544000Y-160030000D01*
X148044000Y-157770000D02*
X148044000Y-160030000D01*
X147984000Y-153810000D02*
X147984000Y-152595000D01*
X98200000Y-153810000D02*
X98200000Y-152595000D01*
X98260000Y-157770000D02*
X98260000Y-160030000D01*
X98760000Y-157770000D02*
X98760000Y-160030000D01*
X117360000Y-156170000D02*
X118360000Y-156170000D01*
X117360000Y-157770000D02*
X117360000Y-156170000D01*
X118360000Y-157770000D02*
X117360000Y-157770000D01*
X118360000Y-156170000D02*
X118360000Y-157770000D01*
X98760000Y-156170000D02*
X97760000Y-156170000D01*
X98760000Y-157770000D02*
X98760000Y-156170000D01*
X97760000Y-157770000D02*
X98760000Y-157770000D01*
X97760000Y-156170000D02*
X97760000Y-157770000D01*
X119120000Y-153810000D02*
X118200000Y-153810000D01*
X97000000Y-153810000D02*
X97920000Y-153810000D01*
X116560000Y-155670000D02*
X116560000Y-160030000D01*
X99560000Y-155670000D02*
X116560000Y-155670000D01*
X99560000Y-160030000D02*
X99560000Y-155670000D01*
X118200000Y-153810000D02*
X117920000Y-153810000D01*
X118200000Y-152210000D02*
X118200000Y-153810000D01*
X119120000Y-152210000D02*
X118200000Y-152210000D01*
X119120000Y-160030000D02*
X119120000Y-152210000D01*
X97000000Y-160030000D02*
X119120000Y-160030000D01*
X97000000Y-152210000D02*
X97000000Y-160030000D01*
X97920000Y-152210000D02*
X97000000Y-152210000D01*
X97920000Y-153810000D02*
X97920000Y-152210000D01*
X98200000Y-153810000D02*
X97920000Y-153810000D01*
X158338000Y-103236000D02*
X158338000Y-107076000D01*
X160178000Y-103236000D02*
X160178000Y-107076000D01*
X163926000Y-143622000D02*
X163926000Y-147462000D01*
X165766000Y-143622000D02*
X165766000Y-147462000D01*
X165766000Y-136002000D02*
X165766000Y-139842000D01*
X163926000Y-136002000D02*
X163926000Y-139842000D01*
X165766000Y-128382000D02*
X165766000Y-132222000D01*
X163926000Y-128382000D02*
X163926000Y-132222000D01*
X165766000Y-120762000D02*
X165766000Y-124602000D01*
X163926000Y-120762000D02*
X163926000Y-124602000D01*
X163926000Y-113142000D02*
X163926000Y-116982000D01*
X165766000Y-113142000D02*
X165766000Y-116982000D01*
X98410000Y-72040000D02*
X102250000Y-72040000D01*
X98410000Y-70200000D02*
X102250000Y-70200000D01*
X106030000Y-72040000D02*
X109870000Y-72040000D01*
X106030000Y-70200000D02*
X109870000Y-70200000D01*
X165766000Y-104252000D02*
X165766000Y-108092000D01*
X163926000Y-104252000D02*
X163926000Y-108092000D01*
X165766000Y-96632000D02*
X165766000Y-100472000D01*
X163926000Y-96632000D02*
X163926000Y-100472000D01*
X165766000Y-89012000D02*
X165766000Y-92852000D01*
X163926000Y-89012000D02*
X163926000Y-92852000D01*
X113650000Y-72040000D02*
X117490000Y-72040000D01*
X113650000Y-70200000D02*
X117490000Y-70200000D01*
X121270000Y-72040000D02*
X125110000Y-72040000D01*
X121270000Y-70200000D02*
X125110000Y-70200000D01*
X128890000Y-70200000D02*
X132730000Y-70200000D01*
X128890000Y-72040000D02*
X132730000Y-72040000D01*
X136510000Y-70200000D02*
X140350000Y-70200000D01*
X136510000Y-72040000D02*
X140350000Y-72040000D01*
X144130000Y-70200000D02*
X147970000Y-70200000D01*
X144130000Y-72040000D02*
X147970000Y-72040000D01*
X151750000Y-70200000D02*
X155590000Y-70200000D01*
X151750000Y-72040000D02*
X155590000Y-72040000D01*
X98410000Y-83662000D02*
X102250000Y-83662000D01*
X98410000Y-85502000D02*
X102250000Y-85502000D01*
X106030000Y-83662000D02*
X109870000Y-83662000D01*
X106030000Y-85502000D02*
X109870000Y-85502000D01*
X113650000Y-85502000D02*
X117490000Y-85502000D01*
X113650000Y-83662000D02*
X117490000Y-83662000D01*
X121270000Y-85502000D02*
X125110000Y-85502000D01*
X121270000Y-83662000D02*
X125110000Y-83662000D01*
X128890000Y-85502000D02*
X132730000Y-85502000D01*
X128890000Y-83662000D02*
X132730000Y-83662000D01*
X136510000Y-85502000D02*
X140350000Y-85502000D01*
X136510000Y-83662000D02*
X140350000Y-83662000D01*
X144130000Y-85502000D02*
X147970000Y-85502000D01*
X144130000Y-83662000D02*
X147970000Y-83662000D01*
X151750000Y-83662000D02*
X155590000Y-83662000D01*
X151750000Y-85502000D02*
X155590000Y-85502000D01*
X133080000Y-97956000D02*
X137580000Y-97956000D01*
X131830000Y-93956000D02*
X131830000Y-95456000D01*
X137580000Y-91456000D02*
X133080000Y-91456000D01*
X138830000Y-95456000D02*
X138830000Y-93956000D01*
X90358000Y-97675001D02*
X90358000Y-99575001D01*
X90358000Y-99575001D02*
X88458000Y-99575001D01*
X88458000Y-99575001D02*
X88458000Y-97675001D01*
X88458000Y-97675001D02*
X90358000Y-97675001D01*
X88458000Y-100396000D02*
X90358000Y-100396000D01*
X88458000Y-102296000D02*
X88458000Y-100396000D01*
X90358000Y-102296000D02*
X88458000Y-102296000D01*
X90358000Y-100396000D02*
X90358000Y-102296000D01*
X88458000Y-88204000D02*
X90358000Y-88204000D01*
X88458000Y-90104000D02*
X88458000Y-88204000D01*
X90358000Y-90104000D02*
X88458000Y-90104000D01*
X90358000Y-88204000D02*
X90358000Y-90104000D01*
X88458000Y-85410000D02*
X90358000Y-85410000D01*
X88458000Y-87310000D02*
X88458000Y-85410000D01*
X90358000Y-87310000D02*
X88458000Y-87310000D01*
X90358000Y-85410000D02*
X90358000Y-87310000D01*
X88458000Y-82616000D02*
X90358000Y-82616000D01*
X88458000Y-84516000D02*
X88458000Y-82616000D01*
X90358000Y-84516000D02*
X88458000Y-84516000D01*
X90358000Y-82616000D02*
X90358000Y-84516000D01*
X88458000Y-70424000D02*
X90358000Y-70424000D01*
X88458000Y-72324000D02*
X88458000Y-70424000D01*
X90358000Y-72324000D02*
X88458000Y-72324000D01*
X90358000Y-70424000D02*
X90358000Y-72324000D01*
X88458000Y-73218000D02*
X90358000Y-73218000D01*
X88458000Y-75118000D02*
X88458000Y-73218000D01*
X90358000Y-75118000D02*
X88458000Y-75118000D01*
X90358000Y-73218000D02*
X90358000Y-75118000D01*
X88458000Y-76012000D02*
X90358000Y-76012000D01*
X88458000Y-77912000D02*
X88458000Y-76012000D01*
X90358000Y-77912000D02*
X88458000Y-77912000D01*
X90358000Y-76012000D02*
X90358000Y-77912000D01*
X88458000Y-78806000D02*
X90358000Y-78806000D01*
X88458000Y-80706000D02*
X88458000Y-78806000D01*
X90358000Y-80706000D02*
X88458000Y-80706000D01*
X90358000Y-78806000D02*
X90358000Y-80706000D01*
X90358000Y-93792000D02*
X90358000Y-95692000D01*
X90358000Y-95692000D02*
X88458000Y-95692000D01*
X88458000Y-95692000D02*
X88458000Y-93792000D01*
X88458000Y-93792000D02*
X90358000Y-93792000D01*
X88458000Y-90998000D02*
X90358000Y-90998000D01*
X88458000Y-92898000D02*
X88458000Y-90998000D01*
X90358000Y-92898000D02*
X88458000Y-92898000D01*
X90358000Y-90998000D02*
X90358000Y-92898000D01*
X162880000Y-64958000D02*
X162880000Y-63058000D01*
X162880000Y-63058000D02*
X164780000Y-63058000D01*
X164780000Y-63058000D02*
X164780000Y-64958000D01*
X164780000Y-64958000D02*
X162880000Y-64958000D01*
X162880000Y-78928000D02*
X162880000Y-77028000D01*
X162880000Y-77028000D02*
X164780000Y-77028000D01*
X164780000Y-77028000D02*
X164780000Y-78928000D01*
X164780000Y-78928000D02*
X162880000Y-78928000D01*
X162880000Y-67752000D02*
X162880000Y-65852000D01*
X162880000Y-65852000D02*
X164780000Y-65852000D01*
X164780000Y-65852000D02*
X164780000Y-67752000D01*
X164780000Y-67752000D02*
X162880000Y-67752000D01*
X162880000Y-81722000D02*
X162880000Y-79822000D01*
X162880000Y-79822000D02*
X164780000Y-79822000D01*
X164780000Y-79822000D02*
X164780000Y-81722000D01*
X164780000Y-81722000D02*
X162880000Y-81722000D01*
X162880000Y-70546000D02*
X162880000Y-68646000D01*
X162880000Y-68646000D02*
X164780000Y-68646000D01*
X164780000Y-68646000D02*
X164780000Y-70546000D01*
X164780000Y-70546000D02*
X162880000Y-70546000D01*
X162880000Y-84516000D02*
X162880000Y-82616000D01*
X162880000Y-82616000D02*
X164780000Y-82616000D01*
X164780000Y-82616000D02*
X164780000Y-84516000D01*
X164780000Y-84516000D02*
X162880000Y-84516000D01*
X162880000Y-73340000D02*
X162880000Y-71440000D01*
X162880000Y-71440000D02*
X164780000Y-71440000D01*
X164780000Y-71440000D02*
X164780000Y-73340000D01*
X164780000Y-73340000D02*
X162880000Y-73340000D01*
X162880000Y-76134000D02*
X162880000Y-74234000D01*
X162880000Y-74234000D02*
X164780000Y-74234000D01*
X164780000Y-74234000D02*
X164780000Y-76134000D01*
X164780000Y-76134000D02*
X162880000Y-76134000D01*
X158816000Y-64958000D02*
X158816000Y-63058000D01*
X158816000Y-63058000D02*
X160716000Y-63058000D01*
X160716000Y-63058000D02*
X160716000Y-64958000D01*
X160716000Y-64958000D02*
X158816000Y-64958000D01*
X158816000Y-73340000D02*
X158816000Y-71440000D01*
X158816000Y-71440000D02*
X160716000Y-71440000D01*
X160716000Y-71440000D02*
X160716000Y-73340000D01*
X160716000Y-73340000D02*
X158816000Y-73340000D01*
X160716000Y-78928000D02*
X158816000Y-78928000D01*
X160716000Y-77028000D02*
X160716000Y-78928000D01*
X158816000Y-77028000D02*
X160716000Y-77028000D01*
X158816000Y-78928000D02*
X158816000Y-77028000D01*
X158816000Y-67752000D02*
X158816000Y-65852000D01*
X158816000Y-65852000D02*
X160716000Y-65852000D01*
X160716000Y-65852000D02*
X160716000Y-67752000D01*
X160716000Y-67752000D02*
X158816000Y-67752000D01*
X160716000Y-81722000D02*
X158816000Y-81722000D01*
X160716000Y-79822000D02*
X160716000Y-81722000D01*
X158816000Y-79822000D02*
X160716000Y-79822000D01*
X158816000Y-81722000D02*
X158816000Y-79822000D01*
X160716000Y-76134000D02*
X158816000Y-76134000D01*
X160716000Y-74234000D02*
X160716000Y-76134000D01*
X158816000Y-74234000D02*
X160716000Y-74234000D01*
X158816000Y-76134000D02*
X158816000Y-74234000D01*
X160716000Y-84516000D02*
X158816000Y-84516000D01*
X160716000Y-82616000D02*
X160716000Y-84516000D01*
X158816000Y-82616000D02*
X160716000Y-82616000D01*
X158816000Y-84516000D02*
X158816000Y-82616000D01*
X158816000Y-70546000D02*
X158816000Y-68646000D01*
X158816000Y-68646000D02*
X160716000Y-68646000D01*
X160716000Y-68646000D02*
X160716000Y-70546000D01*
X160716000Y-70546000D02*
X158816000Y-70546000D01*
X150638000Y-118170000D02*
G75*
G02X152638000Y-118170000I1000000J0D01*
G01*
X152638000Y-118170000D02*
X154288000Y-118170000D01*
X154288000Y-118170000D02*
X154288000Y-100270000D01*
X154288000Y-100270000D02*
X148988000Y-100270000D01*
X148988000Y-100270000D02*
X148988000Y-118170000D01*
X148988000Y-118170000D02*
X150638000Y-118170000D01*
X156778000Y-118230000D02*
X156778000Y-100210000D01*
X156778000Y-100210000D02*
X146498000Y-100210000D01*
X146498000Y-100210000D02*
X146498000Y-118230000D01*
X146498000Y-118230000D02*
X156778000Y-118230000D01*
X136890000Y-123130000D02*
G75*
G02X134890000Y-123130000I-1000000J0D01*
G01*
X134890000Y-123130000D02*
X133240000Y-123130000D01*
X133240000Y-123130000D02*
X133240000Y-143570000D01*
X133240000Y-143570000D02*
X138540000Y-143570000D01*
X138540000Y-143570000D02*
X138540000Y-123130000D01*
X138540000Y-123130000D02*
X136890000Y-123130000D01*
X130750000Y-123070000D02*
X130750000Y-143630000D01*
X130750000Y-143630000D02*
X141030000Y-143630000D01*
X141030000Y-143630000D02*
X141030000Y-123070000D01*
X141030000Y-123070000D02*
X130750000Y-123070000D01*
X156778000Y-123070000D02*
X146498000Y-123070000D01*
X156778000Y-143630000D02*
X156778000Y-123070000D01*
X146498000Y-143630000D02*
X156778000Y-143630000D01*
X146498000Y-123070000D02*
X146498000Y-143630000D01*
X154288000Y-123130000D02*
X152638000Y-123130000D01*
X154288000Y-143570000D02*
X154288000Y-123130000D01*
X148988000Y-143570000D02*
X154288000Y-143570000D01*
X148988000Y-123130000D02*
X148988000Y-143570000D01*
X150638000Y-123130000D02*
X148988000Y-123130000D01*
X152638000Y-123130000D02*
G75*
G02X150638000Y-123130000I-1000000J0D01*
G01*
X113478000Y-143630000D02*
X123758000Y-143630000D01*
X113478000Y-112910000D02*
X113478000Y-143630000D01*
X123758000Y-112910000D02*
X113478000Y-112910000D01*
X123758000Y-143630000D02*
X123758000Y-112910000D01*
X115968000Y-143570000D02*
X117618000Y-143570000D01*
X115968000Y-112970000D02*
X115968000Y-143570000D01*
X121268000Y-112970000D02*
X115968000Y-112970000D01*
X121268000Y-143570000D02*
X121268000Y-112970000D01*
X119618000Y-143570000D02*
X121268000Y-143570000D01*
X117618000Y-143570000D02*
G75*
G02X119618000Y-143570000I1000000J0D01*
G01*
X100600000Y-143570000D02*
G75*
G02X102600000Y-143570000I1000000J0D01*
G01*
X102600000Y-143570000D02*
X104250000Y-143570000D01*
X104250000Y-143570000D02*
X104250000Y-112970000D01*
X104250000Y-112970000D02*
X98950000Y-112970000D01*
X98950000Y-112970000D02*
X98950000Y-143570000D01*
X98950000Y-143570000D02*
X100600000Y-143570000D01*
X106740000Y-143630000D02*
X106740000Y-112910000D01*
X106740000Y-112910000D02*
X96460000Y-112910000D01*
X96460000Y-112910000D02*
X96460000Y-143630000D01*
X96460000Y-143630000D02*
X106740000Y-143630000D01*
X130750000Y-118738000D02*
X141030000Y-118738000D01*
X130750000Y-100718000D02*
X130750000Y-118738000D01*
X141030000Y-100718000D02*
X130750000Y-100718000D01*
X141030000Y-118738000D02*
X141030000Y-100718000D01*
X133240000Y-118678000D02*
X134890000Y-118678000D01*
X133240000Y-100778000D02*
X133240000Y-118678000D01*
X138540000Y-100778000D02*
X133240000Y-100778000D01*
X138540000Y-118678000D02*
X138540000Y-100778000D01*
X136890000Y-118678000D02*
X138540000Y-118678000D01*
X134890000Y-118678000D02*
G75*
G02X136890000Y-118678000I1000000J0D01*
G01*
X101540000Y-98060000D02*
G75*
G02X101540000Y-100060000I0J-1000000D01*
G01*
X101540000Y-100060000D02*
X101540000Y-101710000D01*
X101540000Y-101710000D02*
X119440000Y-101710000D01*
X119440000Y-101710000D02*
X119440000Y-96410000D01*
X119440000Y-96410000D02*
X101540000Y-96410000D01*
X101540000Y-96410000D02*
X101540000Y-98060000D01*
X101480000Y-104200000D02*
X119500000Y-104200000D01*
X119500000Y-104200000D02*
X119500000Y-93920000D01*
X119500000Y-93920000D02*
X101480000Y-93920000D01*
X101480000Y-93920000D02*
X101480000Y-104200000D01*
D11*
X130310285Y-150550571D02*
X129976952Y-150550571D01*
X129976952Y-151074380D02*
X129976952Y-150074380D01*
X130453142Y-150074380D01*
X130976952Y-151074380D02*
X130881714Y-151026761D01*
X130834095Y-150931523D01*
X130834095Y-150074380D01*
X131786476Y-151074380D02*
X131786476Y-150550571D01*
X131738857Y-150455333D01*
X131643619Y-150407714D01*
X131453142Y-150407714D01*
X131357904Y-150455333D01*
X131786476Y-151026761D02*
X131691238Y-151074380D01*
X131453142Y-151074380D01*
X131357904Y-151026761D01*
X131310285Y-150931523D01*
X131310285Y-150836285D01*
X131357904Y-150741047D01*
X131453142Y-150693428D01*
X131691238Y-150693428D01*
X131786476Y-150645809D01*
X132691238Y-150407714D02*
X132691238Y-151217238D01*
X132643619Y-151312476D01*
X132596000Y-151360095D01*
X132500761Y-151407714D01*
X132357904Y-151407714D01*
X132262666Y-151360095D01*
X132691238Y-151026761D02*
X132596000Y-151074380D01*
X132405523Y-151074380D01*
X132310285Y-151026761D01*
X132262666Y-150979142D01*
X132215047Y-150883904D01*
X132215047Y-150598190D01*
X132262666Y-150502952D01*
X132310285Y-150455333D01*
X132405523Y-150407714D01*
X132596000Y-150407714D01*
X132691238Y-150455333D01*
X133119809Y-151026761D02*
X133215047Y-151074380D01*
X133405523Y-151074380D01*
X133500761Y-151026761D01*
X133548380Y-150931523D01*
X133548380Y-150883904D01*
X133500761Y-150788666D01*
X133405523Y-150741047D01*
X133262666Y-150741047D01*
X133167428Y-150693428D01*
X133119809Y-150598190D01*
X133119809Y-150550571D01*
X133167428Y-150455333D01*
X133262666Y-150407714D01*
X133405523Y-150407714D01*
X133500761Y-150455333D01*
X134691238Y-150407714D02*
X135405523Y-150407714D01*
X134976952Y-149979142D02*
X134691238Y-151264857D01*
X135310285Y-150836285D02*
X134596000Y-150836285D01*
X135024571Y-151264857D02*
X135310285Y-149979142D01*
X135691238Y-150169619D02*
X135738857Y-150122000D01*
X135834095Y-150074380D01*
X136072190Y-150074380D01*
X136167428Y-150122000D01*
X136215047Y-150169619D01*
X136262666Y-150264857D01*
X136262666Y-150360095D01*
X136215047Y-150502952D01*
X135643619Y-151074380D01*
X136262666Y-151074380D01*
X147935333Y-146135142D02*
X147887714Y-146182761D01*
X147744857Y-146230380D01*
X147649619Y-146230380D01*
X147506761Y-146182761D01*
X147411523Y-146087523D01*
X147363904Y-145992285D01*
X147316285Y-145801809D01*
X147316285Y-145658952D01*
X147363904Y-145468476D01*
X147411523Y-145373238D01*
X147506761Y-145278000D01*
X147649619Y-145230380D01*
X147744857Y-145230380D01*
X147887714Y-145278000D01*
X147935333Y-145325619D01*
X148887714Y-146230380D02*
X148316285Y-146230380D01*
X148602000Y-146230380D02*
X148602000Y-145230380D01*
X148506761Y-145373238D01*
X148411523Y-145468476D01*
X148316285Y-145516095D01*
X153737333Y-146153142D02*
X153689714Y-146200761D01*
X153546857Y-146248380D01*
X153451619Y-146248380D01*
X153308761Y-146200761D01*
X153213523Y-146105523D01*
X153165904Y-146010285D01*
X153118285Y-145819809D01*
X153118285Y-145676952D01*
X153165904Y-145486476D01*
X153213523Y-145391238D01*
X153308761Y-145296000D01*
X153451619Y-145248380D01*
X153546857Y-145248380D01*
X153689714Y-145296000D01*
X153737333Y-145343619D01*
X154118285Y-145343619D02*
X154165904Y-145296000D01*
X154261142Y-145248380D01*
X154499238Y-145248380D01*
X154594476Y-145296000D01*
X154642095Y-145343619D01*
X154689714Y-145438857D01*
X154689714Y-145534095D01*
X154642095Y-145676952D01*
X154070666Y-146248380D01*
X154689714Y-146248380D01*
X173442380Y-145303904D02*
X173442380Y-145780095D01*
X173918571Y-145827714D01*
X173870952Y-145780095D01*
X173823333Y-145684857D01*
X173823333Y-145446761D01*
X173870952Y-145351523D01*
X173918571Y-145303904D01*
X174013809Y-145256285D01*
X174251904Y-145256285D01*
X174347142Y-145303904D01*
X174394761Y-145351523D01*
X174442380Y-145446761D01*
X174442380Y-145684857D01*
X174394761Y-145780095D01*
X174347142Y-145827714D01*
X173775714Y-137731523D02*
X174442380Y-137731523D01*
X173394761Y-137969619D02*
X174109047Y-138207714D01*
X174109047Y-137588666D01*
X173442380Y-130635333D02*
X173442380Y-130016285D01*
X173823333Y-130349619D01*
X173823333Y-130206761D01*
X173870952Y-130111523D01*
X173918571Y-130063904D01*
X174013809Y-130016285D01*
X174251904Y-130016285D01*
X174347142Y-130063904D01*
X174394761Y-130111523D01*
X174442380Y-130206761D01*
X174442380Y-130492476D01*
X174394761Y-130587714D01*
X174347142Y-130635333D01*
X173537619Y-122967714D02*
X173490000Y-122920095D01*
X173442380Y-122824857D01*
X173442380Y-122586761D01*
X173490000Y-122491523D01*
X173537619Y-122443904D01*
X173632857Y-122396285D01*
X173728095Y-122396285D01*
X173870952Y-122443904D01*
X174442380Y-123015333D01*
X174442380Y-122396285D01*
X174442380Y-114776285D02*
X174442380Y-115347714D01*
X174442380Y-115062000D02*
X173442380Y-115062000D01*
X173585238Y-115157238D01*
X173680476Y-115252476D01*
X173728095Y-115347714D01*
X99258571Y-62428380D02*
X99258571Y-61428380D01*
X99258571Y-61904571D02*
X99830000Y-61904571D01*
X99830000Y-62428380D02*
X99830000Y-61428380D01*
X100782380Y-62428380D02*
X100306190Y-62428380D01*
X100306190Y-61428380D01*
X100972857Y-61428380D02*
X101544285Y-61428380D01*
X101258571Y-62428380D02*
X101258571Y-61428380D01*
X107378571Y-62428380D02*
X107378571Y-61428380D01*
X107711904Y-62142666D01*
X108045238Y-61428380D01*
X108045238Y-62428380D01*
X108521428Y-62428380D02*
X108521428Y-61428380D01*
X115641428Y-62428380D02*
X115308095Y-61952190D01*
X115070000Y-62428380D02*
X115070000Y-61428380D01*
X115450952Y-61428380D01*
X115546190Y-61476000D01*
X115593809Y-61523619D01*
X115641428Y-61618857D01*
X115641428Y-61761714D01*
X115593809Y-61856952D01*
X115546190Y-61904571D01*
X115450952Y-61952190D01*
X115070000Y-61952190D01*
X116070000Y-62428380D02*
X116070000Y-61428380D01*
X122975714Y-62428380D02*
X122642380Y-61952190D01*
X122404285Y-62428380D02*
X122404285Y-61428380D01*
X122785238Y-61428380D01*
X122880476Y-61476000D01*
X122928095Y-61523619D01*
X122975714Y-61618857D01*
X122975714Y-61761714D01*
X122928095Y-61856952D01*
X122880476Y-61904571D01*
X122785238Y-61952190D01*
X122404285Y-61952190D01*
X123594761Y-61428380D02*
X123785238Y-61428380D01*
X123880476Y-61476000D01*
X123975714Y-61571238D01*
X124023333Y-61761714D01*
X124023333Y-62095047D01*
X123975714Y-62285523D01*
X123880476Y-62380761D01*
X123785238Y-62428380D01*
X123594761Y-62428380D01*
X123499523Y-62380761D01*
X123404285Y-62285523D01*
X123356666Y-62095047D01*
X123356666Y-61761714D01*
X123404285Y-61571238D01*
X123499523Y-61476000D01*
X123594761Y-61428380D01*
X173775714Y-105981523D02*
X174442380Y-105981523D01*
X173394761Y-106219619D02*
X174109047Y-106457714D01*
X174109047Y-105838666D01*
X173537619Y-98837714D02*
X173490000Y-98790095D01*
X173442380Y-98694857D01*
X173442380Y-98456761D01*
X173490000Y-98361523D01*
X173537619Y-98313904D01*
X173632857Y-98266285D01*
X173728095Y-98266285D01*
X173870952Y-98313904D01*
X174442380Y-98885333D01*
X174442380Y-98266285D01*
X174442380Y-90646285D02*
X174442380Y-91217714D01*
X174442380Y-90932000D02*
X173442380Y-90932000D01*
X173585238Y-91027238D01*
X173680476Y-91122476D01*
X173728095Y-91217714D01*
X130286190Y-62428380D02*
X130286190Y-61428380D01*
X130952857Y-61428380D02*
X131143333Y-61428380D01*
X131238571Y-61476000D01*
X131333809Y-61571238D01*
X131381428Y-61761714D01*
X131381428Y-62095047D01*
X131333809Y-62285523D01*
X131238571Y-62380761D01*
X131143333Y-62428380D01*
X130952857Y-62428380D01*
X130857619Y-62380761D01*
X130762380Y-62285523D01*
X130714761Y-62095047D01*
X130714761Y-61761714D01*
X130762380Y-61571238D01*
X130857619Y-61476000D01*
X130952857Y-61428380D01*
X137937904Y-62428380D02*
X137937904Y-61428380D01*
X138414095Y-62428380D02*
X138414095Y-61428380D01*
X145319809Y-62142666D02*
X145796000Y-62142666D01*
X145224571Y-62428380D02*
X145557904Y-61428380D01*
X145891238Y-62428380D01*
X146224571Y-62428380D02*
X146224571Y-61428380D01*
X152908095Y-62142666D02*
X153384285Y-62142666D01*
X152812857Y-62428380D02*
X153146190Y-61428380D01*
X153479523Y-62428380D01*
X154003333Y-61428380D02*
X154193809Y-61428380D01*
X154289047Y-61476000D01*
X154384285Y-61571238D01*
X154431904Y-61761714D01*
X154431904Y-62095047D01*
X154384285Y-62285523D01*
X154289047Y-62380761D01*
X154193809Y-62428380D01*
X154003333Y-62428380D01*
X153908095Y-62380761D01*
X153812857Y-62285523D01*
X153765238Y-62095047D01*
X153765238Y-61761714D01*
X153812857Y-61571238D01*
X153908095Y-61476000D01*
X154003333Y-61428380D01*
X99591904Y-75366571D02*
X99925238Y-75366571D01*
X100068095Y-75890380D02*
X99591904Y-75890380D01*
X99591904Y-74890380D01*
X100068095Y-74890380D01*
X100687142Y-74890380D02*
X100877619Y-74890380D01*
X100972857Y-74938000D01*
X101068095Y-75033238D01*
X101115714Y-75223714D01*
X101115714Y-75557047D01*
X101068095Y-75747523D01*
X100972857Y-75842761D01*
X100877619Y-75890380D01*
X100687142Y-75890380D01*
X100591904Y-75842761D01*
X100496666Y-75747523D01*
X100449047Y-75557047D01*
X100449047Y-75223714D01*
X100496666Y-75033238D01*
X100591904Y-74938000D01*
X100687142Y-74890380D01*
X107140476Y-75842761D02*
X107283333Y-75890380D01*
X107521428Y-75890380D01*
X107616666Y-75842761D01*
X107664285Y-75795142D01*
X107711904Y-75699904D01*
X107711904Y-75604666D01*
X107664285Y-75509428D01*
X107616666Y-75461809D01*
X107521428Y-75414190D01*
X107330952Y-75366571D01*
X107235714Y-75318952D01*
X107188095Y-75271333D01*
X107140476Y-75176095D01*
X107140476Y-75080857D01*
X107188095Y-74985619D01*
X107235714Y-74938000D01*
X107330952Y-74890380D01*
X107569047Y-74890380D01*
X107711904Y-74938000D01*
X108140476Y-74890380D02*
X108140476Y-75699904D01*
X108188095Y-75795142D01*
X108235714Y-75842761D01*
X108330952Y-75890380D01*
X108521428Y-75890380D01*
X108616666Y-75842761D01*
X108664285Y-75795142D01*
X108711904Y-75699904D01*
X108711904Y-74890380D01*
X115403333Y-75366571D02*
X115546190Y-75414190D01*
X115593809Y-75461809D01*
X115641428Y-75557047D01*
X115641428Y-75699904D01*
X115593809Y-75795142D01*
X115546190Y-75842761D01*
X115450952Y-75890380D01*
X115070000Y-75890380D01*
X115070000Y-74890380D01*
X115403333Y-74890380D01*
X115498571Y-74938000D01*
X115546190Y-74985619D01*
X115593809Y-75080857D01*
X115593809Y-75176095D01*
X115546190Y-75271333D01*
X115498571Y-75318952D01*
X115403333Y-75366571D01*
X115070000Y-75366571D01*
X116070000Y-75890380D02*
X116070000Y-74890380D01*
X122856666Y-74890380D02*
X123047142Y-74890380D01*
X123142380Y-74938000D01*
X123237619Y-75033238D01*
X123285238Y-75223714D01*
X123285238Y-75557047D01*
X123237619Y-75747523D01*
X123142380Y-75842761D01*
X123047142Y-75890380D01*
X122856666Y-75890380D01*
X122761428Y-75842761D01*
X122666190Y-75747523D01*
X122618571Y-75557047D01*
X122618571Y-75223714D01*
X122666190Y-75033238D01*
X122761428Y-74938000D01*
X122856666Y-74890380D01*
X123713809Y-75890380D02*
X123713809Y-74890380D01*
X130667142Y-75795142D02*
X130619523Y-75842761D01*
X130476666Y-75890380D01*
X130381428Y-75890380D01*
X130238571Y-75842761D01*
X130143333Y-75747523D01*
X130095714Y-75652285D01*
X130048095Y-75461809D01*
X130048095Y-75318952D01*
X130095714Y-75128476D01*
X130143333Y-75033238D01*
X130238571Y-74938000D01*
X130381428Y-74890380D01*
X130476666Y-74890380D01*
X130619523Y-74938000D01*
X130667142Y-74985619D01*
X131095714Y-75366571D02*
X131429047Y-75366571D01*
X131571904Y-75890380D02*
X131095714Y-75890380D01*
X131095714Y-74890380D01*
X131571904Y-74890380D01*
X138215714Y-75795142D02*
X138168095Y-75842761D01*
X138025238Y-75890380D01*
X137930000Y-75890380D01*
X137787142Y-75842761D01*
X137691904Y-75747523D01*
X137644285Y-75652285D01*
X137596666Y-75461809D01*
X137596666Y-75318952D01*
X137644285Y-75128476D01*
X137691904Y-75033238D01*
X137787142Y-74938000D01*
X137930000Y-74890380D01*
X138025238Y-74890380D01*
X138168095Y-74938000D01*
X138215714Y-74985619D01*
X138834761Y-74890380D02*
X139025238Y-74890380D01*
X139120476Y-74938000D01*
X139215714Y-75033238D01*
X139263333Y-75223714D01*
X139263333Y-75557047D01*
X139215714Y-75747523D01*
X139120476Y-75842761D01*
X139025238Y-75890380D01*
X138834761Y-75890380D01*
X138739523Y-75842761D01*
X138644285Y-75747523D01*
X138596666Y-75557047D01*
X138596666Y-75223714D01*
X138644285Y-75033238D01*
X138739523Y-74938000D01*
X138834761Y-74890380D01*
X146192857Y-74890380D02*
X146192857Y-75604666D01*
X146145238Y-75747523D01*
X146050000Y-75842761D01*
X145907142Y-75890380D01*
X145811904Y-75890380D01*
X153574761Y-75366571D02*
X153241428Y-75366571D01*
X153241428Y-75890380D02*
X153241428Y-74890380D01*
X153717619Y-74890380D01*
X154098571Y-75890380D02*
X154098571Y-74890380D01*
X160567809Y-151328380D02*
X160567809Y-150328380D01*
X160948761Y-150328380D01*
X161044000Y-150376000D01*
X161091619Y-150423619D01*
X161139238Y-150518857D01*
X161139238Y-150661714D01*
X161091619Y-150756952D01*
X161044000Y-150804571D01*
X160948761Y-150852190D01*
X160567809Y-150852190D01*
X161710666Y-151328380D02*
X161615428Y-151280761D01*
X161567809Y-151233142D01*
X161520190Y-151137904D01*
X161520190Y-150852190D01*
X161567809Y-150756952D01*
X161615428Y-150709333D01*
X161710666Y-150661714D01*
X161853523Y-150661714D01*
X161948761Y-150709333D01*
X161996380Y-150756952D01*
X162044000Y-150852190D01*
X162044000Y-151137904D01*
X161996380Y-151233142D01*
X161948761Y-151280761D01*
X161853523Y-151328380D01*
X161710666Y-151328380D01*
X162377333Y-150661714D02*
X162567809Y-151328380D01*
X162758285Y-150852190D01*
X162948761Y-151328380D01*
X163139238Y-150661714D01*
X163901142Y-151280761D02*
X163805904Y-151328380D01*
X163615428Y-151328380D01*
X163520190Y-151280761D01*
X163472571Y-151185523D01*
X163472571Y-150804571D01*
X163520190Y-150709333D01*
X163615428Y-150661714D01*
X163805904Y-150661714D01*
X163901142Y-150709333D01*
X163948761Y-150804571D01*
X163948761Y-150899809D01*
X163472571Y-150995047D01*
X164377333Y-151328380D02*
X164377333Y-150661714D01*
X164377333Y-150852190D02*
X164424952Y-150756952D01*
X164472571Y-150709333D01*
X164567809Y-150661714D01*
X164663047Y-150661714D01*
X151344000Y-151328380D02*
X151344000Y-150328380D01*
X152391619Y-151328380D02*
X152058285Y-150852190D01*
X151820190Y-151328380D02*
X151820190Y-150328380D01*
X152201142Y-150328380D01*
X152296380Y-150376000D01*
X152344000Y-150423619D01*
X152391619Y-150518857D01*
X152391619Y-150661714D01*
X152344000Y-150756952D01*
X152296380Y-150804571D01*
X152201142Y-150852190D01*
X151820190Y-150852190D01*
X105164285Y-150550571D02*
X104830952Y-150550571D01*
X104830952Y-151074380D02*
X104830952Y-150074380D01*
X105307142Y-150074380D01*
X105830952Y-151074380D02*
X105735714Y-151026761D01*
X105688095Y-150931523D01*
X105688095Y-150074380D01*
X106640476Y-151074380D02*
X106640476Y-150550571D01*
X106592857Y-150455333D01*
X106497619Y-150407714D01*
X106307142Y-150407714D01*
X106211904Y-150455333D01*
X106640476Y-151026761D02*
X106545238Y-151074380D01*
X106307142Y-151074380D01*
X106211904Y-151026761D01*
X106164285Y-150931523D01*
X106164285Y-150836285D01*
X106211904Y-150741047D01*
X106307142Y-150693428D01*
X106545238Y-150693428D01*
X106640476Y-150645809D01*
X107545238Y-150407714D02*
X107545238Y-151217238D01*
X107497619Y-151312476D01*
X107450000Y-151360095D01*
X107354761Y-151407714D01*
X107211904Y-151407714D01*
X107116666Y-151360095D01*
X107545238Y-151026761D02*
X107450000Y-151074380D01*
X107259523Y-151074380D01*
X107164285Y-151026761D01*
X107116666Y-150979142D01*
X107069047Y-150883904D01*
X107069047Y-150598190D01*
X107116666Y-150502952D01*
X107164285Y-150455333D01*
X107259523Y-150407714D01*
X107450000Y-150407714D01*
X107545238Y-150455333D01*
X107973809Y-151026761D02*
X108069047Y-151074380D01*
X108259523Y-151074380D01*
X108354761Y-151026761D01*
X108402380Y-150931523D01*
X108402380Y-150883904D01*
X108354761Y-150788666D01*
X108259523Y-150741047D01*
X108116666Y-150741047D01*
X108021428Y-150693428D01*
X107973809Y-150598190D01*
X107973809Y-150550571D01*
X108021428Y-150455333D01*
X108116666Y-150407714D01*
X108259523Y-150407714D01*
X108354761Y-150455333D01*
X109545238Y-150407714D02*
X110259523Y-150407714D01*
X109830952Y-149979142D02*
X109545238Y-151264857D01*
X110164285Y-150836285D02*
X109450000Y-150836285D01*
X109878571Y-151264857D02*
X110164285Y-149979142D01*
X111116666Y-151074380D02*
X110545238Y-151074380D01*
X110830952Y-151074380D02*
X110830952Y-150074380D01*
X110735714Y-150217238D01*
X110640476Y-150312476D01*
X110545238Y-150360095D01*
X161630380Y-105322666D02*
X161154190Y-105656000D01*
X161630380Y-105894095D02*
X160630380Y-105894095D01*
X160630380Y-105513142D01*
X160678000Y-105417904D01*
X160725619Y-105370285D01*
X160820857Y-105322666D01*
X160963714Y-105322666D01*
X161058952Y-105370285D01*
X161106571Y-105417904D01*
X161154190Y-105513142D01*
X161154190Y-105894095D01*
X161630380Y-104370285D02*
X161630380Y-104941714D01*
X161630380Y-104656000D02*
X160630380Y-104656000D01*
X160773238Y-104751238D01*
X160868476Y-104846476D01*
X160916095Y-104941714D01*
X163520380Y-145708666D02*
X163044190Y-146042000D01*
X163520380Y-146280095D02*
X162520380Y-146280095D01*
X162520380Y-145899142D01*
X162568000Y-145803904D01*
X162615619Y-145756285D01*
X162710857Y-145708666D01*
X162853714Y-145708666D01*
X162948952Y-145756285D01*
X162996571Y-145803904D01*
X163044190Y-145899142D01*
X163044190Y-146280095D01*
X162615619Y-145327714D02*
X162568000Y-145280095D01*
X162520380Y-145184857D01*
X162520380Y-144946761D01*
X162568000Y-144851523D01*
X162615619Y-144803904D01*
X162710857Y-144756285D01*
X162806095Y-144756285D01*
X162948952Y-144803904D01*
X163520380Y-145375333D01*
X163520380Y-144756285D01*
X163520380Y-138088666D02*
X163044190Y-138422000D01*
X163520380Y-138660095D02*
X162520380Y-138660095D01*
X162520380Y-138279142D01*
X162568000Y-138183904D01*
X162615619Y-138136285D01*
X162710857Y-138088666D01*
X162853714Y-138088666D01*
X162948952Y-138136285D01*
X162996571Y-138183904D01*
X163044190Y-138279142D01*
X163044190Y-138660095D01*
X162520380Y-137755333D02*
X162520380Y-137136285D01*
X162901333Y-137469619D01*
X162901333Y-137326761D01*
X162948952Y-137231523D01*
X162996571Y-137183904D01*
X163091809Y-137136285D01*
X163329904Y-137136285D01*
X163425142Y-137183904D01*
X163472761Y-137231523D01*
X163520380Y-137326761D01*
X163520380Y-137612476D01*
X163472761Y-137707714D01*
X163425142Y-137755333D01*
X163520380Y-130468666D02*
X163044190Y-130802000D01*
X163520380Y-131040095D02*
X162520380Y-131040095D01*
X162520380Y-130659142D01*
X162568000Y-130563904D01*
X162615619Y-130516285D01*
X162710857Y-130468666D01*
X162853714Y-130468666D01*
X162948952Y-130516285D01*
X162996571Y-130563904D01*
X163044190Y-130659142D01*
X163044190Y-131040095D01*
X162853714Y-129611523D02*
X163520380Y-129611523D01*
X162472761Y-129849619D02*
X163187047Y-130087714D01*
X163187047Y-129468666D01*
X163520380Y-122848666D02*
X163044190Y-123182000D01*
X163520380Y-123420095D02*
X162520380Y-123420095D01*
X162520380Y-123039142D01*
X162568000Y-122943904D01*
X162615619Y-122896285D01*
X162710857Y-122848666D01*
X162853714Y-122848666D01*
X162948952Y-122896285D01*
X162996571Y-122943904D01*
X163044190Y-123039142D01*
X163044190Y-123420095D01*
X162520380Y-121943904D02*
X162520380Y-122420095D01*
X162996571Y-122467714D01*
X162948952Y-122420095D01*
X162901333Y-122324857D01*
X162901333Y-122086761D01*
X162948952Y-121991523D01*
X162996571Y-121943904D01*
X163091809Y-121896285D01*
X163329904Y-121896285D01*
X163425142Y-121943904D01*
X163472761Y-121991523D01*
X163520380Y-122086761D01*
X163520380Y-122324857D01*
X163472761Y-122420095D01*
X163425142Y-122467714D01*
X163520380Y-115228666D02*
X163044190Y-115562000D01*
X163520380Y-115800095D02*
X162520380Y-115800095D01*
X162520380Y-115419142D01*
X162568000Y-115323904D01*
X162615619Y-115276285D01*
X162710857Y-115228666D01*
X162853714Y-115228666D01*
X162948952Y-115276285D01*
X162996571Y-115323904D01*
X163044190Y-115419142D01*
X163044190Y-115800095D01*
X162520380Y-114371523D02*
X162520380Y-114562000D01*
X162568000Y-114657238D01*
X162615619Y-114704857D01*
X162758476Y-114800095D01*
X162948952Y-114847714D01*
X163329904Y-114847714D01*
X163425142Y-114800095D01*
X163472761Y-114752476D01*
X163520380Y-114657238D01*
X163520380Y-114466761D01*
X163472761Y-114371523D01*
X163425142Y-114323904D01*
X163329904Y-114276285D01*
X163091809Y-114276285D01*
X162996571Y-114323904D01*
X162948952Y-114371523D01*
X162901333Y-114466761D01*
X162901333Y-114657238D01*
X162948952Y-114752476D01*
X162996571Y-114800095D01*
X163091809Y-114847714D01*
X100163333Y-73350380D02*
X99830000Y-72874190D01*
X99591904Y-73350380D02*
X99591904Y-72350380D01*
X99972857Y-72350380D01*
X100068095Y-72398000D01*
X100115714Y-72445619D01*
X100163333Y-72540857D01*
X100163333Y-72683714D01*
X100115714Y-72778952D01*
X100068095Y-72826571D01*
X99972857Y-72874190D01*
X99591904Y-72874190D01*
X100496666Y-72350380D02*
X101163333Y-72350380D01*
X100734761Y-73350380D01*
X107783333Y-73350380D02*
X107450000Y-72874190D01*
X107211904Y-73350380D02*
X107211904Y-72350380D01*
X107592857Y-72350380D01*
X107688095Y-72398000D01*
X107735714Y-72445619D01*
X107783333Y-72540857D01*
X107783333Y-72683714D01*
X107735714Y-72778952D01*
X107688095Y-72826571D01*
X107592857Y-72874190D01*
X107211904Y-72874190D01*
X108354761Y-72778952D02*
X108259523Y-72731333D01*
X108211904Y-72683714D01*
X108164285Y-72588476D01*
X108164285Y-72540857D01*
X108211904Y-72445619D01*
X108259523Y-72398000D01*
X108354761Y-72350380D01*
X108545238Y-72350380D01*
X108640476Y-72398000D01*
X108688095Y-72445619D01*
X108735714Y-72540857D01*
X108735714Y-72588476D01*
X108688095Y-72683714D01*
X108640476Y-72731333D01*
X108545238Y-72778952D01*
X108354761Y-72778952D01*
X108259523Y-72826571D01*
X108211904Y-72874190D01*
X108164285Y-72969428D01*
X108164285Y-73159904D01*
X108211904Y-73255142D01*
X108259523Y-73302761D01*
X108354761Y-73350380D01*
X108545238Y-73350380D01*
X108640476Y-73302761D01*
X108688095Y-73255142D01*
X108735714Y-73159904D01*
X108735714Y-72969428D01*
X108688095Y-72874190D01*
X108640476Y-72826571D01*
X108545238Y-72778952D01*
X163266380Y-106338666D02*
X162790190Y-106672000D01*
X163266380Y-106910095D02*
X162266380Y-106910095D01*
X162266380Y-106529142D01*
X162314000Y-106433904D01*
X162361619Y-106386285D01*
X162456857Y-106338666D01*
X162599714Y-106338666D01*
X162694952Y-106386285D01*
X162742571Y-106433904D01*
X162790190Y-106529142D01*
X162790190Y-106910095D01*
X163266380Y-105862476D02*
X163266380Y-105672000D01*
X163218761Y-105576761D01*
X163171142Y-105529142D01*
X163028285Y-105433904D01*
X162837809Y-105386285D01*
X162456857Y-105386285D01*
X162361619Y-105433904D01*
X162314000Y-105481523D01*
X162266380Y-105576761D01*
X162266380Y-105767238D01*
X162314000Y-105862476D01*
X162361619Y-105910095D01*
X162456857Y-105957714D01*
X162694952Y-105957714D01*
X162790190Y-105910095D01*
X162837809Y-105862476D01*
X162885428Y-105767238D01*
X162885428Y-105576761D01*
X162837809Y-105481523D01*
X162790190Y-105433904D01*
X162694952Y-105386285D01*
X163266380Y-99194857D02*
X162790190Y-99528190D01*
X163266380Y-99766285D02*
X162266380Y-99766285D01*
X162266380Y-99385333D01*
X162314000Y-99290095D01*
X162361619Y-99242476D01*
X162456857Y-99194857D01*
X162599714Y-99194857D01*
X162694952Y-99242476D01*
X162742571Y-99290095D01*
X162790190Y-99385333D01*
X162790190Y-99766285D01*
X163266380Y-98242476D02*
X163266380Y-98813904D01*
X163266380Y-98528190D02*
X162266380Y-98528190D01*
X162409238Y-98623428D01*
X162504476Y-98718666D01*
X162552095Y-98813904D01*
X162266380Y-97623428D02*
X162266380Y-97528190D01*
X162314000Y-97432952D01*
X162361619Y-97385333D01*
X162456857Y-97337714D01*
X162647333Y-97290095D01*
X162885428Y-97290095D01*
X163075904Y-97337714D01*
X163171142Y-97385333D01*
X163218761Y-97432952D01*
X163266380Y-97528190D01*
X163266380Y-97623428D01*
X163218761Y-97718666D01*
X163171142Y-97766285D01*
X163075904Y-97813904D01*
X162885428Y-97861523D01*
X162647333Y-97861523D01*
X162456857Y-97813904D01*
X162361619Y-97766285D01*
X162314000Y-97718666D01*
X162266380Y-97623428D01*
X163266380Y-91574857D02*
X162790190Y-91908190D01*
X163266380Y-92146285D02*
X162266380Y-92146285D01*
X162266380Y-91765333D01*
X162314000Y-91670095D01*
X162361619Y-91622476D01*
X162456857Y-91574857D01*
X162599714Y-91574857D01*
X162694952Y-91622476D01*
X162742571Y-91670095D01*
X162790190Y-91765333D01*
X162790190Y-92146285D01*
X163266380Y-90622476D02*
X163266380Y-91193904D01*
X163266380Y-90908190D02*
X162266380Y-90908190D01*
X162409238Y-91003428D01*
X162504476Y-91098666D01*
X162552095Y-91193904D01*
X163266380Y-89670095D02*
X163266380Y-90241523D01*
X163266380Y-89955809D02*
X162266380Y-89955809D01*
X162409238Y-90051047D01*
X162504476Y-90146285D01*
X162552095Y-90241523D01*
X114927142Y-73350380D02*
X114593809Y-72874190D01*
X114355714Y-73350380D02*
X114355714Y-72350380D01*
X114736666Y-72350380D01*
X114831904Y-72398000D01*
X114879523Y-72445619D01*
X114927142Y-72540857D01*
X114927142Y-72683714D01*
X114879523Y-72778952D01*
X114831904Y-72826571D01*
X114736666Y-72874190D01*
X114355714Y-72874190D01*
X115879523Y-73350380D02*
X115308095Y-73350380D01*
X115593809Y-73350380D02*
X115593809Y-72350380D01*
X115498571Y-72493238D01*
X115403333Y-72588476D01*
X115308095Y-72636095D01*
X116260476Y-72445619D02*
X116308095Y-72398000D01*
X116403333Y-72350380D01*
X116641428Y-72350380D01*
X116736666Y-72398000D01*
X116784285Y-72445619D01*
X116831904Y-72540857D01*
X116831904Y-72636095D01*
X116784285Y-72778952D01*
X116212857Y-73350380D01*
X116831904Y-73350380D01*
X122547142Y-73350380D02*
X122213809Y-72874190D01*
X121975714Y-73350380D02*
X121975714Y-72350380D01*
X122356666Y-72350380D01*
X122451904Y-72398000D01*
X122499523Y-72445619D01*
X122547142Y-72540857D01*
X122547142Y-72683714D01*
X122499523Y-72778952D01*
X122451904Y-72826571D01*
X122356666Y-72874190D01*
X121975714Y-72874190D01*
X123499523Y-73350380D02*
X122928095Y-73350380D01*
X123213809Y-73350380D02*
X123213809Y-72350380D01*
X123118571Y-72493238D01*
X123023333Y-72588476D01*
X122928095Y-72636095D01*
X123832857Y-72350380D02*
X124451904Y-72350380D01*
X124118571Y-72731333D01*
X124261428Y-72731333D01*
X124356666Y-72778952D01*
X124404285Y-72826571D01*
X124451904Y-72921809D01*
X124451904Y-73159904D01*
X124404285Y-73255142D01*
X124356666Y-73302761D01*
X124261428Y-73350380D01*
X123975714Y-73350380D01*
X123880476Y-73302761D01*
X123832857Y-73255142D01*
X130167142Y-73350380D02*
X129833809Y-72874190D01*
X129595714Y-73350380D02*
X129595714Y-72350380D01*
X129976666Y-72350380D01*
X130071904Y-72398000D01*
X130119523Y-72445619D01*
X130167142Y-72540857D01*
X130167142Y-72683714D01*
X130119523Y-72778952D01*
X130071904Y-72826571D01*
X129976666Y-72874190D01*
X129595714Y-72874190D01*
X131119523Y-73350380D02*
X130548095Y-73350380D01*
X130833809Y-73350380D02*
X130833809Y-72350380D01*
X130738571Y-72493238D01*
X130643333Y-72588476D01*
X130548095Y-72636095D01*
X131976666Y-72683714D02*
X131976666Y-73350380D01*
X131738571Y-72302761D02*
X131500476Y-73017047D01*
X132119523Y-73017047D01*
X137787142Y-73350380D02*
X137453809Y-72874190D01*
X137215714Y-73350380D02*
X137215714Y-72350380D01*
X137596666Y-72350380D01*
X137691904Y-72398000D01*
X137739523Y-72445619D01*
X137787142Y-72540857D01*
X137787142Y-72683714D01*
X137739523Y-72778952D01*
X137691904Y-72826571D01*
X137596666Y-72874190D01*
X137215714Y-72874190D01*
X138739523Y-73350380D02*
X138168095Y-73350380D01*
X138453809Y-73350380D02*
X138453809Y-72350380D01*
X138358571Y-72493238D01*
X138263333Y-72588476D01*
X138168095Y-72636095D01*
X139644285Y-72350380D02*
X139168095Y-72350380D01*
X139120476Y-72826571D01*
X139168095Y-72778952D01*
X139263333Y-72731333D01*
X139501428Y-72731333D01*
X139596666Y-72778952D01*
X139644285Y-72826571D01*
X139691904Y-72921809D01*
X139691904Y-73159904D01*
X139644285Y-73255142D01*
X139596666Y-73302761D01*
X139501428Y-73350380D01*
X139263333Y-73350380D01*
X139168095Y-73302761D01*
X139120476Y-73255142D01*
X145407142Y-73350380D02*
X145073809Y-72874190D01*
X144835714Y-73350380D02*
X144835714Y-72350380D01*
X145216666Y-72350380D01*
X145311904Y-72398000D01*
X145359523Y-72445619D01*
X145407142Y-72540857D01*
X145407142Y-72683714D01*
X145359523Y-72778952D01*
X145311904Y-72826571D01*
X145216666Y-72874190D01*
X144835714Y-72874190D01*
X146359523Y-73350380D02*
X145788095Y-73350380D01*
X146073809Y-73350380D02*
X146073809Y-72350380D01*
X145978571Y-72493238D01*
X145883333Y-72588476D01*
X145788095Y-72636095D01*
X147216666Y-72350380D02*
X147026190Y-72350380D01*
X146930952Y-72398000D01*
X146883333Y-72445619D01*
X146788095Y-72588476D01*
X146740476Y-72778952D01*
X146740476Y-73159904D01*
X146788095Y-73255142D01*
X146835714Y-73302761D01*
X146930952Y-73350380D01*
X147121428Y-73350380D01*
X147216666Y-73302761D01*
X147264285Y-73255142D01*
X147311904Y-73159904D01*
X147311904Y-72921809D01*
X147264285Y-72826571D01*
X147216666Y-72778952D01*
X147121428Y-72731333D01*
X146930952Y-72731333D01*
X146835714Y-72778952D01*
X146788095Y-72826571D01*
X146740476Y-72921809D01*
X153027142Y-73350380D02*
X152693809Y-72874190D01*
X152455714Y-73350380D02*
X152455714Y-72350380D01*
X152836666Y-72350380D01*
X152931904Y-72398000D01*
X152979523Y-72445619D01*
X153027142Y-72540857D01*
X153027142Y-72683714D01*
X152979523Y-72778952D01*
X152931904Y-72826571D01*
X152836666Y-72874190D01*
X152455714Y-72874190D01*
X153979523Y-73350380D02*
X153408095Y-73350380D01*
X153693809Y-73350380D02*
X153693809Y-72350380D01*
X153598571Y-72493238D01*
X153503333Y-72588476D01*
X153408095Y-72636095D01*
X154312857Y-72350380D02*
X154979523Y-72350380D01*
X154550952Y-73350380D01*
X99687142Y-86812380D02*
X99353809Y-86336190D01*
X99115714Y-86812380D02*
X99115714Y-85812380D01*
X99496666Y-85812380D01*
X99591904Y-85860000D01*
X99639523Y-85907619D01*
X99687142Y-86002857D01*
X99687142Y-86145714D01*
X99639523Y-86240952D01*
X99591904Y-86288571D01*
X99496666Y-86336190D01*
X99115714Y-86336190D01*
X100639523Y-86812380D02*
X100068095Y-86812380D01*
X100353809Y-86812380D02*
X100353809Y-85812380D01*
X100258571Y-85955238D01*
X100163333Y-86050476D01*
X100068095Y-86098095D01*
X101210952Y-86240952D02*
X101115714Y-86193333D01*
X101068095Y-86145714D01*
X101020476Y-86050476D01*
X101020476Y-86002857D01*
X101068095Y-85907619D01*
X101115714Y-85860000D01*
X101210952Y-85812380D01*
X101401428Y-85812380D01*
X101496666Y-85860000D01*
X101544285Y-85907619D01*
X101591904Y-86002857D01*
X101591904Y-86050476D01*
X101544285Y-86145714D01*
X101496666Y-86193333D01*
X101401428Y-86240952D01*
X101210952Y-86240952D01*
X101115714Y-86288571D01*
X101068095Y-86336190D01*
X101020476Y-86431428D01*
X101020476Y-86621904D01*
X101068095Y-86717142D01*
X101115714Y-86764761D01*
X101210952Y-86812380D01*
X101401428Y-86812380D01*
X101496666Y-86764761D01*
X101544285Y-86717142D01*
X101591904Y-86621904D01*
X101591904Y-86431428D01*
X101544285Y-86336190D01*
X101496666Y-86288571D01*
X101401428Y-86240952D01*
X107307142Y-86812380D02*
X106973809Y-86336190D01*
X106735714Y-86812380D02*
X106735714Y-85812380D01*
X107116666Y-85812380D01*
X107211904Y-85860000D01*
X107259523Y-85907619D01*
X107307142Y-86002857D01*
X107307142Y-86145714D01*
X107259523Y-86240952D01*
X107211904Y-86288571D01*
X107116666Y-86336190D01*
X106735714Y-86336190D01*
X108259523Y-86812380D02*
X107688095Y-86812380D01*
X107973809Y-86812380D02*
X107973809Y-85812380D01*
X107878571Y-85955238D01*
X107783333Y-86050476D01*
X107688095Y-86098095D01*
X108735714Y-86812380D02*
X108926190Y-86812380D01*
X109021428Y-86764761D01*
X109069047Y-86717142D01*
X109164285Y-86574285D01*
X109211904Y-86383809D01*
X109211904Y-86002857D01*
X109164285Y-85907619D01*
X109116666Y-85860000D01*
X109021428Y-85812380D01*
X108830952Y-85812380D01*
X108735714Y-85860000D01*
X108688095Y-85907619D01*
X108640476Y-86002857D01*
X108640476Y-86240952D01*
X108688095Y-86336190D01*
X108735714Y-86383809D01*
X108830952Y-86431428D01*
X109021428Y-86431428D01*
X109116666Y-86383809D01*
X109164285Y-86336190D01*
X109211904Y-86240952D01*
X114927142Y-86812380D02*
X114593809Y-86336190D01*
X114355714Y-86812380D02*
X114355714Y-85812380D01*
X114736666Y-85812380D01*
X114831904Y-85860000D01*
X114879523Y-85907619D01*
X114927142Y-86002857D01*
X114927142Y-86145714D01*
X114879523Y-86240952D01*
X114831904Y-86288571D01*
X114736666Y-86336190D01*
X114355714Y-86336190D01*
X115308095Y-85907619D02*
X115355714Y-85860000D01*
X115450952Y-85812380D01*
X115689047Y-85812380D01*
X115784285Y-85860000D01*
X115831904Y-85907619D01*
X115879523Y-86002857D01*
X115879523Y-86098095D01*
X115831904Y-86240952D01*
X115260476Y-86812380D01*
X115879523Y-86812380D01*
X116498571Y-85812380D02*
X116593809Y-85812380D01*
X116689047Y-85860000D01*
X116736666Y-85907619D01*
X116784285Y-86002857D01*
X116831904Y-86193333D01*
X116831904Y-86431428D01*
X116784285Y-86621904D01*
X116736666Y-86717142D01*
X116689047Y-86764761D01*
X116593809Y-86812380D01*
X116498571Y-86812380D01*
X116403333Y-86764761D01*
X116355714Y-86717142D01*
X116308095Y-86621904D01*
X116260476Y-86431428D01*
X116260476Y-86193333D01*
X116308095Y-86002857D01*
X116355714Y-85907619D01*
X116403333Y-85860000D01*
X116498571Y-85812380D01*
X122547142Y-86812380D02*
X122213809Y-86336190D01*
X121975714Y-86812380D02*
X121975714Y-85812380D01*
X122356666Y-85812380D01*
X122451904Y-85860000D01*
X122499523Y-85907619D01*
X122547142Y-86002857D01*
X122547142Y-86145714D01*
X122499523Y-86240952D01*
X122451904Y-86288571D01*
X122356666Y-86336190D01*
X121975714Y-86336190D01*
X122928095Y-85907619D02*
X122975714Y-85860000D01*
X123070952Y-85812380D01*
X123309047Y-85812380D01*
X123404285Y-85860000D01*
X123451904Y-85907619D01*
X123499523Y-86002857D01*
X123499523Y-86098095D01*
X123451904Y-86240952D01*
X122880476Y-86812380D01*
X123499523Y-86812380D01*
X124451904Y-86812380D02*
X123880476Y-86812380D01*
X124166190Y-86812380D02*
X124166190Y-85812380D01*
X124070952Y-85955238D01*
X123975714Y-86050476D01*
X123880476Y-86098095D01*
X130167142Y-86812380D02*
X129833809Y-86336190D01*
X129595714Y-86812380D02*
X129595714Y-85812380D01*
X129976666Y-85812380D01*
X130071904Y-85860000D01*
X130119523Y-85907619D01*
X130167142Y-86002857D01*
X130167142Y-86145714D01*
X130119523Y-86240952D01*
X130071904Y-86288571D01*
X129976666Y-86336190D01*
X129595714Y-86336190D01*
X130548095Y-85907619D02*
X130595714Y-85860000D01*
X130690952Y-85812380D01*
X130929047Y-85812380D01*
X131024285Y-85860000D01*
X131071904Y-85907619D01*
X131119523Y-86002857D01*
X131119523Y-86098095D01*
X131071904Y-86240952D01*
X130500476Y-86812380D01*
X131119523Y-86812380D01*
X131500476Y-85907619D02*
X131548095Y-85860000D01*
X131643333Y-85812380D01*
X131881428Y-85812380D01*
X131976666Y-85860000D01*
X132024285Y-85907619D01*
X132071904Y-86002857D01*
X132071904Y-86098095D01*
X132024285Y-86240952D01*
X131452857Y-86812380D01*
X132071904Y-86812380D01*
X137787142Y-86812380D02*
X137453809Y-86336190D01*
X137215714Y-86812380D02*
X137215714Y-85812380D01*
X137596666Y-85812380D01*
X137691904Y-85860000D01*
X137739523Y-85907619D01*
X137787142Y-86002857D01*
X137787142Y-86145714D01*
X137739523Y-86240952D01*
X137691904Y-86288571D01*
X137596666Y-86336190D01*
X137215714Y-86336190D01*
X138168095Y-85907619D02*
X138215714Y-85860000D01*
X138310952Y-85812380D01*
X138549047Y-85812380D01*
X138644285Y-85860000D01*
X138691904Y-85907619D01*
X138739523Y-86002857D01*
X138739523Y-86098095D01*
X138691904Y-86240952D01*
X138120476Y-86812380D01*
X138739523Y-86812380D01*
X139072857Y-85812380D02*
X139691904Y-85812380D01*
X139358571Y-86193333D01*
X139501428Y-86193333D01*
X139596666Y-86240952D01*
X139644285Y-86288571D01*
X139691904Y-86383809D01*
X139691904Y-86621904D01*
X139644285Y-86717142D01*
X139596666Y-86764761D01*
X139501428Y-86812380D01*
X139215714Y-86812380D01*
X139120476Y-86764761D01*
X139072857Y-86717142D01*
X145407142Y-86812380D02*
X145073809Y-86336190D01*
X144835714Y-86812380D02*
X144835714Y-85812380D01*
X145216666Y-85812380D01*
X145311904Y-85860000D01*
X145359523Y-85907619D01*
X145407142Y-86002857D01*
X145407142Y-86145714D01*
X145359523Y-86240952D01*
X145311904Y-86288571D01*
X145216666Y-86336190D01*
X144835714Y-86336190D01*
X145788095Y-85907619D02*
X145835714Y-85860000D01*
X145930952Y-85812380D01*
X146169047Y-85812380D01*
X146264285Y-85860000D01*
X146311904Y-85907619D01*
X146359523Y-86002857D01*
X146359523Y-86098095D01*
X146311904Y-86240952D01*
X145740476Y-86812380D01*
X146359523Y-86812380D01*
X147216666Y-86145714D02*
X147216666Y-86812380D01*
X146978571Y-85764761D02*
X146740476Y-86479047D01*
X147359523Y-86479047D01*
X153027142Y-86812380D02*
X152693809Y-86336190D01*
X152455714Y-86812380D02*
X152455714Y-85812380D01*
X152836666Y-85812380D01*
X152931904Y-85860000D01*
X152979523Y-85907619D01*
X153027142Y-86002857D01*
X153027142Y-86145714D01*
X152979523Y-86240952D01*
X152931904Y-86288571D01*
X152836666Y-86336190D01*
X152455714Y-86336190D01*
X153408095Y-85907619D02*
X153455714Y-85860000D01*
X153550952Y-85812380D01*
X153789047Y-85812380D01*
X153884285Y-85860000D01*
X153931904Y-85907619D01*
X153979523Y-86002857D01*
X153979523Y-86098095D01*
X153931904Y-86240952D01*
X153360476Y-86812380D01*
X153979523Y-86812380D01*
X154884285Y-85812380D02*
X154408095Y-85812380D01*
X154360476Y-86288571D01*
X154408095Y-86240952D01*
X154503333Y-86193333D01*
X154741428Y-86193333D01*
X154836666Y-86240952D01*
X154884285Y-86288571D01*
X154931904Y-86383809D01*
X154931904Y-86621904D01*
X154884285Y-86717142D01*
X154836666Y-86764761D01*
X154741428Y-86812380D01*
X154503333Y-86812380D01*
X154408095Y-86764761D01*
X154360476Y-86717142D01*
X133996666Y-90860761D02*
X134139523Y-90908380D01*
X134377619Y-90908380D01*
X134472857Y-90860761D01*
X134520476Y-90813142D01*
X134568095Y-90717904D01*
X134568095Y-90622666D01*
X134520476Y-90527428D01*
X134472857Y-90479809D01*
X134377619Y-90432190D01*
X134187142Y-90384571D01*
X134091904Y-90336952D01*
X134044285Y-90289333D01*
X133996666Y-90194095D01*
X133996666Y-90098857D01*
X134044285Y-90003619D01*
X134091904Y-89956000D01*
X134187142Y-89908380D01*
X134425238Y-89908380D01*
X134568095Y-89956000D01*
X134901428Y-89908380D02*
X135139523Y-90908380D01*
X135330000Y-90194095D01*
X135520476Y-90908380D01*
X135758571Y-89908380D01*
X136663333Y-90908380D02*
X136091904Y-90908380D01*
X136377619Y-90908380D02*
X136377619Y-89908380D01*
X136282380Y-90051238D01*
X136187142Y-90146476D01*
X136091904Y-90194095D01*
D14*
X87694285Y-99278143D02*
X87694285Y-98891096D01*
X87887809Y-99084620D02*
X87500761Y-99084620D01*
X87379809Y-98407286D02*
X87379809Y-98649191D01*
X87621714Y-98673381D01*
X87597523Y-98649191D01*
X87573333Y-98600810D01*
X87573333Y-98479858D01*
X87597523Y-98431477D01*
X87621714Y-98407286D01*
X87670095Y-98383096D01*
X87791047Y-98383096D01*
X87839428Y-98407286D01*
X87863619Y-98431477D01*
X87887809Y-98479858D01*
X87887809Y-98600810D01*
X87863619Y-98649191D01*
X87839428Y-98673381D01*
X87379809Y-98237953D02*
X87887809Y-98068620D01*
X87379809Y-97899286D01*
X87404000Y-101733047D02*
X87379809Y-101781428D01*
X87379809Y-101854000D01*
X87404000Y-101926571D01*
X87452380Y-101974952D01*
X87500761Y-101999142D01*
X87597523Y-102023333D01*
X87670095Y-102023333D01*
X87766857Y-101999142D01*
X87815238Y-101974952D01*
X87863619Y-101926571D01*
X87887809Y-101854000D01*
X87887809Y-101805619D01*
X87863619Y-101733047D01*
X87839428Y-101708857D01*
X87670095Y-101708857D01*
X87670095Y-101805619D01*
X87887809Y-101491142D02*
X87379809Y-101491142D01*
X87887809Y-101200857D01*
X87379809Y-101200857D01*
X87887809Y-100958952D02*
X87379809Y-100958952D01*
X87379809Y-100838000D01*
X87404000Y-100765428D01*
X87452380Y-100717047D01*
X87500761Y-100692857D01*
X87597523Y-100668666D01*
X87670095Y-100668666D01*
X87766857Y-100692857D01*
X87815238Y-100717047D01*
X87863619Y-100765428D01*
X87887809Y-100838000D01*
X87887809Y-100958952D01*
X87160160Y-89867619D02*
X87160160Y-89359619D01*
X87839428Y-89456380D02*
X87863619Y-89480571D01*
X87887809Y-89553142D01*
X87887809Y-89601523D01*
X87863619Y-89674095D01*
X87815238Y-89722476D01*
X87766857Y-89746666D01*
X87670095Y-89770857D01*
X87597523Y-89770857D01*
X87500761Y-89746666D01*
X87452380Y-89722476D01*
X87404000Y-89674095D01*
X87379809Y-89601523D01*
X87379809Y-89553142D01*
X87404000Y-89480571D01*
X87428190Y-89456380D01*
X87160160Y-89359619D02*
X87160160Y-88948380D01*
X87887809Y-88996761D02*
X87887809Y-89238666D01*
X87379809Y-89238666D01*
X87160160Y-88948380D02*
X87160160Y-88440380D01*
X87887809Y-88537142D02*
X87645904Y-88706476D01*
X87887809Y-88827428D02*
X87379809Y-88827428D01*
X87379809Y-88633904D01*
X87404000Y-88585523D01*
X87428190Y-88561333D01*
X87476571Y-88537142D01*
X87549142Y-88537142D01*
X87597523Y-88561333D01*
X87621714Y-88585523D01*
X87645904Y-88633904D01*
X87645904Y-88827428D01*
X87839428Y-86662380D02*
X87863619Y-86686571D01*
X87887809Y-86759142D01*
X87887809Y-86807523D01*
X87863619Y-86880095D01*
X87815238Y-86928476D01*
X87766857Y-86952666D01*
X87670095Y-86976857D01*
X87597523Y-86976857D01*
X87500761Y-86952666D01*
X87452380Y-86928476D01*
X87404000Y-86880095D01*
X87379809Y-86807523D01*
X87379809Y-86759142D01*
X87404000Y-86686571D01*
X87428190Y-86662380D01*
X87887809Y-86202761D02*
X87887809Y-86444666D01*
X87379809Y-86444666D01*
X87887809Y-85743142D02*
X87645904Y-85912476D01*
X87887809Y-86033428D02*
X87379809Y-86033428D01*
X87379809Y-85839904D01*
X87404000Y-85791523D01*
X87428190Y-85767333D01*
X87476571Y-85743142D01*
X87549142Y-85743142D01*
X87597523Y-85767333D01*
X87621714Y-85791523D01*
X87645904Y-85839904D01*
X87645904Y-86033428D01*
X87160160Y-84279619D02*
X87160160Y-83771619D01*
X87839428Y-83868380D02*
X87863619Y-83892571D01*
X87887809Y-83965142D01*
X87887809Y-84013523D01*
X87863619Y-84086095D01*
X87815238Y-84134476D01*
X87766857Y-84158666D01*
X87670095Y-84182857D01*
X87597523Y-84182857D01*
X87500761Y-84158666D01*
X87452380Y-84134476D01*
X87404000Y-84086095D01*
X87379809Y-84013523D01*
X87379809Y-83965142D01*
X87404000Y-83892571D01*
X87428190Y-83868380D01*
X87160160Y-83771619D02*
X87160160Y-83360380D01*
X87887809Y-83408761D02*
X87887809Y-83650666D01*
X87379809Y-83650666D01*
X87160160Y-83360380D02*
X87160160Y-82852380D01*
X87887809Y-83239428D02*
X87379809Y-83239428D01*
X87887809Y-82949142D02*
X87597523Y-83166857D01*
X87379809Y-82949142D02*
X87670095Y-83239428D01*
X87887809Y-72063428D02*
X87379809Y-72063428D01*
X87887809Y-71531238D02*
X87645904Y-71700571D01*
X87887809Y-71821523D02*
X87379809Y-71821523D01*
X87379809Y-71628000D01*
X87404000Y-71579619D01*
X87428190Y-71555428D01*
X87476571Y-71531238D01*
X87549142Y-71531238D01*
X87597523Y-71555428D01*
X87621714Y-71579619D01*
X87645904Y-71628000D01*
X87645904Y-71821523D01*
X87936190Y-71434476D02*
X87936190Y-71047428D01*
X87549142Y-70708761D02*
X87887809Y-70708761D01*
X87355619Y-70829714D02*
X87718476Y-70950666D01*
X87718476Y-70636190D01*
X87887809Y-74857428D02*
X87379809Y-74857428D01*
X87887809Y-74325238D02*
X87645904Y-74494571D01*
X87887809Y-74615523D02*
X87379809Y-74615523D01*
X87379809Y-74422000D01*
X87404000Y-74373619D01*
X87428190Y-74349428D01*
X87476571Y-74325238D01*
X87549142Y-74325238D01*
X87597523Y-74349428D01*
X87621714Y-74373619D01*
X87645904Y-74422000D01*
X87645904Y-74615523D01*
X87936190Y-74228476D02*
X87936190Y-73841428D01*
X87379809Y-73478571D02*
X87379809Y-73720476D01*
X87621714Y-73744666D01*
X87597523Y-73720476D01*
X87573333Y-73672095D01*
X87573333Y-73551142D01*
X87597523Y-73502761D01*
X87621714Y-73478571D01*
X87670095Y-73454380D01*
X87791047Y-73454380D01*
X87839428Y-73478571D01*
X87863619Y-73502761D01*
X87887809Y-73551142D01*
X87887809Y-73672095D01*
X87863619Y-73720476D01*
X87839428Y-73744666D01*
X87887809Y-77651428D02*
X87379809Y-77651428D01*
X87887809Y-77119238D02*
X87645904Y-77288571D01*
X87887809Y-77409523D02*
X87379809Y-77409523D01*
X87379809Y-77216000D01*
X87404000Y-77167619D01*
X87428190Y-77143428D01*
X87476571Y-77119238D01*
X87549142Y-77119238D01*
X87597523Y-77143428D01*
X87621714Y-77167619D01*
X87645904Y-77216000D01*
X87645904Y-77409523D01*
X87936190Y-77022476D02*
X87936190Y-76635428D01*
X87379809Y-76296761D02*
X87379809Y-76393523D01*
X87404000Y-76441904D01*
X87428190Y-76466095D01*
X87500761Y-76514476D01*
X87597523Y-76538666D01*
X87791047Y-76538666D01*
X87839428Y-76514476D01*
X87863619Y-76490285D01*
X87887809Y-76441904D01*
X87887809Y-76345142D01*
X87863619Y-76296761D01*
X87839428Y-76272571D01*
X87791047Y-76248380D01*
X87670095Y-76248380D01*
X87621714Y-76272571D01*
X87597523Y-76296761D01*
X87573333Y-76345142D01*
X87573333Y-76441904D01*
X87597523Y-76490285D01*
X87621714Y-76514476D01*
X87670095Y-76538666D01*
X87887809Y-80445428D02*
X87379809Y-80445428D01*
X87887809Y-79913238D02*
X87645904Y-80082571D01*
X87887809Y-80203523D02*
X87379809Y-80203523D01*
X87379809Y-80010000D01*
X87404000Y-79961619D01*
X87428190Y-79937428D01*
X87476571Y-79913238D01*
X87549142Y-79913238D01*
X87597523Y-79937428D01*
X87621714Y-79961619D01*
X87645904Y-80010000D01*
X87645904Y-80203523D01*
X87936190Y-79816476D02*
X87936190Y-79429428D01*
X87379809Y-79356857D02*
X87379809Y-79018190D01*
X87887809Y-79235904D01*
X87839428Y-94802476D02*
X87863619Y-94826666D01*
X87887809Y-94899238D01*
X87887809Y-94947619D01*
X87863619Y-95020190D01*
X87815238Y-95068571D01*
X87766857Y-95092761D01*
X87670095Y-95116952D01*
X87597523Y-95116952D01*
X87500761Y-95092761D01*
X87452380Y-95068571D01*
X87404000Y-95020190D01*
X87379809Y-94947619D01*
X87379809Y-94899238D01*
X87404000Y-94826666D01*
X87428190Y-94802476D01*
X87621714Y-94415428D02*
X87621714Y-94584761D01*
X87887809Y-94584761D02*
X87379809Y-94584761D01*
X87379809Y-94342857D01*
X87379809Y-92335047D02*
X87379809Y-91996380D01*
X87887809Y-92335047D01*
X87887809Y-91996380D01*
X87621714Y-91633523D02*
X87621714Y-91802857D01*
X87887809Y-91802857D02*
X87379809Y-91802857D01*
X87379809Y-91560952D01*
X165809809Y-64552285D02*
X165301809Y-64552285D01*
X165543714Y-64552285D02*
X165543714Y-64262000D01*
X165809809Y-64262000D02*
X165301809Y-64262000D01*
X165809809Y-63778190D02*
X165809809Y-64020095D01*
X165301809Y-64020095D01*
X165301809Y-63681428D02*
X165301809Y-63391142D01*
X165809809Y-63536285D02*
X165301809Y-63536285D01*
X165082160Y-78219904D02*
X165082160Y-77978000D01*
X165809809Y-78098952D02*
X165301809Y-78098952D01*
X165082160Y-77978000D02*
X165082160Y-77736095D01*
X165809809Y-77857047D02*
X165301809Y-77857047D01*
X165082160Y-67213238D02*
X165082160Y-66632666D01*
X165809809Y-67092285D02*
X165301809Y-67092285D01*
X165664666Y-66922952D01*
X165301809Y-66753619D01*
X165809809Y-66753619D01*
X165082160Y-66632666D02*
X165082160Y-66390761D01*
X165809809Y-66511714D02*
X165301809Y-66511714D01*
X165082160Y-81110666D02*
X165082160Y-80675238D01*
X165664666Y-81013904D02*
X165664666Y-80772000D01*
X165809809Y-81062285D02*
X165301809Y-80892952D01*
X165809809Y-80723619D01*
X165082160Y-80675238D02*
X165082160Y-80433333D01*
X165809809Y-80554285D02*
X165301809Y-80554285D01*
X165809809Y-69559714D02*
X165567904Y-69729047D01*
X165809809Y-69850000D02*
X165301809Y-69850000D01*
X165301809Y-69656476D01*
X165326000Y-69608095D01*
X165350190Y-69583904D01*
X165398571Y-69559714D01*
X165471142Y-69559714D01*
X165519523Y-69583904D01*
X165543714Y-69608095D01*
X165567904Y-69656476D01*
X165567904Y-69850000D01*
X165809809Y-69342000D02*
X165301809Y-69342000D01*
X165082160Y-84049809D02*
X165082160Y-83614380D01*
X165664666Y-83953047D02*
X165664666Y-83711142D01*
X165809809Y-84001428D02*
X165301809Y-83832095D01*
X165809809Y-83662761D01*
X165082160Y-83614380D02*
X165082160Y-83082190D01*
X165301809Y-83396666D02*
X165301809Y-83299904D01*
X165326000Y-83251523D01*
X165374380Y-83203142D01*
X165471142Y-83178952D01*
X165640476Y-83178952D01*
X165737238Y-83203142D01*
X165785619Y-83251523D01*
X165809809Y-83299904D01*
X165809809Y-83396666D01*
X165785619Y-83445047D01*
X165737238Y-83493428D01*
X165640476Y-83517619D01*
X165471142Y-83517619D01*
X165374380Y-83493428D01*
X165326000Y-83445047D01*
X165301809Y-83396666D01*
X165082160Y-72910095D02*
X165082160Y-72402095D01*
X165809809Y-72498857D02*
X165567904Y-72668190D01*
X165809809Y-72789142D02*
X165301809Y-72789142D01*
X165301809Y-72595619D01*
X165326000Y-72547238D01*
X165350190Y-72523047D01*
X165398571Y-72498857D01*
X165471142Y-72498857D01*
X165519523Y-72523047D01*
X165543714Y-72547238D01*
X165567904Y-72595619D01*
X165567904Y-72789142D01*
X165082160Y-72402095D02*
X165082160Y-71869904D01*
X165301809Y-72184380D02*
X165301809Y-72087619D01*
X165326000Y-72039238D01*
X165374380Y-71990857D01*
X165471142Y-71966666D01*
X165640476Y-71966666D01*
X165737238Y-71990857D01*
X165785619Y-72039238D01*
X165809809Y-72087619D01*
X165809809Y-72184380D01*
X165785619Y-72232761D01*
X165737238Y-72281142D01*
X165640476Y-72305333D01*
X165471142Y-72305333D01*
X165374380Y-72281142D01*
X165326000Y-72232761D01*
X165301809Y-72184380D01*
X165082160Y-75571047D02*
X165082160Y-75329142D01*
X165809809Y-75450095D02*
X165301809Y-75450095D01*
X165082160Y-75329142D02*
X165082160Y-74796952D01*
X165301809Y-75111428D02*
X165301809Y-75014666D01*
X165326000Y-74966285D01*
X165374380Y-74917904D01*
X165471142Y-74893714D01*
X165640476Y-74893714D01*
X165737238Y-74917904D01*
X165785619Y-74966285D01*
X165809809Y-75014666D01*
X165809809Y-75111428D01*
X165785619Y-75159809D01*
X165737238Y-75208190D01*
X165640476Y-75232380D01*
X165471142Y-75232380D01*
X165374380Y-75208190D01*
X165326000Y-75159809D01*
X165301809Y-75111428D01*
X161018160Y-64503904D02*
X161018160Y-64044285D01*
X161479714Y-64382952D02*
X161479714Y-64213619D01*
X161745809Y-64141047D02*
X161745809Y-64382952D01*
X161237809Y-64382952D01*
X161237809Y-64141047D01*
X161018160Y-64044285D02*
X161018160Y-63512095D01*
X161237809Y-63826571D02*
X161237809Y-63729809D01*
X161262000Y-63681428D01*
X161310380Y-63633047D01*
X161407142Y-63608857D01*
X161576476Y-63608857D01*
X161673238Y-63633047D01*
X161721619Y-63681428D01*
X161745809Y-63729809D01*
X161745809Y-63826571D01*
X161721619Y-63874952D01*
X161673238Y-63923333D01*
X161576476Y-63947523D01*
X161407142Y-63947523D01*
X161310380Y-63923333D01*
X161262000Y-63874952D01*
X161237809Y-63826571D01*
X161237809Y-72559333D02*
X161237809Y-72462571D01*
X161262000Y-72414190D01*
X161310380Y-72365809D01*
X161407142Y-72341619D01*
X161576476Y-72341619D01*
X161673238Y-72365809D01*
X161721619Y-72414190D01*
X161745809Y-72462571D01*
X161745809Y-72559333D01*
X161721619Y-72607714D01*
X161673238Y-72656095D01*
X161576476Y-72680285D01*
X161407142Y-72680285D01*
X161310380Y-72656095D01*
X161262000Y-72607714D01*
X161237809Y-72559333D01*
X161745809Y-72123904D02*
X161237809Y-72123904D01*
X161018160Y-78498095D02*
X161018160Y-77990095D01*
X161697428Y-78086857D02*
X161721619Y-78111047D01*
X161745809Y-78183619D01*
X161745809Y-78232000D01*
X161721619Y-78304571D01*
X161673238Y-78352952D01*
X161624857Y-78377142D01*
X161528095Y-78401333D01*
X161455523Y-78401333D01*
X161358761Y-78377142D01*
X161310380Y-78352952D01*
X161262000Y-78304571D01*
X161237809Y-78232000D01*
X161237809Y-78183619D01*
X161262000Y-78111047D01*
X161286190Y-78086857D01*
X161018160Y-77990095D02*
X161018160Y-77457904D01*
X161237809Y-77772380D02*
X161237809Y-77675619D01*
X161262000Y-77627238D01*
X161310380Y-77578857D01*
X161407142Y-77554666D01*
X161576476Y-77554666D01*
X161673238Y-77578857D01*
X161721619Y-77627238D01*
X161745809Y-77675619D01*
X161745809Y-77772380D01*
X161721619Y-77820761D01*
X161673238Y-77869142D01*
X161576476Y-77893333D01*
X161407142Y-77893333D01*
X161310380Y-77869142D01*
X161262000Y-77820761D01*
X161237809Y-77772380D01*
X161721619Y-67213238D02*
X161745809Y-67140666D01*
X161745809Y-67019714D01*
X161721619Y-66971333D01*
X161697428Y-66947142D01*
X161649047Y-66922952D01*
X161600666Y-66922952D01*
X161552285Y-66947142D01*
X161528095Y-66971333D01*
X161503904Y-67019714D01*
X161479714Y-67116476D01*
X161455523Y-67164857D01*
X161431333Y-67189047D01*
X161382952Y-67213238D01*
X161334571Y-67213238D01*
X161286190Y-67189047D01*
X161262000Y-67164857D01*
X161237809Y-67116476D01*
X161237809Y-66995523D01*
X161262000Y-66922952D01*
X161237809Y-66705238D02*
X161649047Y-66705238D01*
X161697428Y-66681047D01*
X161721619Y-66656857D01*
X161745809Y-66608476D01*
X161745809Y-66511714D01*
X161721619Y-66463333D01*
X161697428Y-66439142D01*
X161649047Y-66414952D01*
X161237809Y-66414952D01*
X161018160Y-80965523D02*
X161018160Y-80578476D01*
X161237809Y-80699428D02*
X161600666Y-80699428D01*
X161673238Y-80723619D01*
X161721619Y-80772000D01*
X161745809Y-80844571D01*
X161745809Y-80892952D01*
X161697428Y-75256571D02*
X161721619Y-75280761D01*
X161745809Y-75353333D01*
X161745809Y-75401714D01*
X161721619Y-75474285D01*
X161673238Y-75522666D01*
X161624857Y-75546857D01*
X161528095Y-75571047D01*
X161455523Y-75571047D01*
X161358761Y-75546857D01*
X161310380Y-75522666D01*
X161262000Y-75474285D01*
X161237809Y-75401714D01*
X161237809Y-75353333D01*
X161262000Y-75280761D01*
X161286190Y-75256571D01*
X161479714Y-75038857D02*
X161479714Y-74869523D01*
X161745809Y-74796952D02*
X161745809Y-75038857D01*
X161237809Y-75038857D01*
X161237809Y-74796952D01*
X161018160Y-83904666D02*
X161018160Y-83469238D01*
X161479714Y-83614380D02*
X161479714Y-83783714D01*
X161745809Y-83783714D02*
X161237809Y-83783714D01*
X161237809Y-83541809D01*
X161018160Y-83469238D02*
X161018160Y-83227333D01*
X161745809Y-83348285D02*
X161237809Y-83348285D01*
X161018160Y-69970952D02*
X161018160Y-69462952D01*
X161479714Y-69680666D02*
X161503904Y-69608095D01*
X161528095Y-69583904D01*
X161576476Y-69559714D01*
X161649047Y-69559714D01*
X161697428Y-69583904D01*
X161721619Y-69608095D01*
X161745809Y-69656476D01*
X161745809Y-69850000D01*
X161237809Y-69850000D01*
X161237809Y-69680666D01*
X161262000Y-69632285D01*
X161286190Y-69608095D01*
X161334571Y-69583904D01*
X161382952Y-69583904D01*
X161431333Y-69608095D01*
X161455523Y-69632285D01*
X161479714Y-69680666D01*
X161479714Y-69850000D01*
X161018160Y-69462952D02*
X161018160Y-69221047D01*
X161745809Y-69342000D02*
X161237809Y-69342000D01*
D11*
X150876095Y-118622380D02*
X150876095Y-119431904D01*
X150923714Y-119527142D01*
X150971333Y-119574761D01*
X151066571Y-119622380D01*
X151257047Y-119622380D01*
X151352285Y-119574761D01*
X151399904Y-119527142D01*
X151447523Y-119431904D01*
X151447523Y-118622380D01*
X152447523Y-119622380D02*
X151876095Y-119622380D01*
X152161809Y-119622380D02*
X152161809Y-118622380D01*
X152066571Y-118765238D01*
X151971333Y-118860476D01*
X151876095Y-118908095D01*
X135128095Y-121582380D02*
X135128095Y-122391904D01*
X135175714Y-122487142D01*
X135223333Y-122534761D01*
X135318571Y-122582380D01*
X135509047Y-122582380D01*
X135604285Y-122534761D01*
X135651904Y-122487142D01*
X135699523Y-122391904D01*
X135699523Y-121582380D01*
X136128095Y-121677619D02*
X136175714Y-121630000D01*
X136270952Y-121582380D01*
X136509047Y-121582380D01*
X136604285Y-121630000D01*
X136651904Y-121677619D01*
X136699523Y-121772857D01*
X136699523Y-121868095D01*
X136651904Y-122010952D01*
X136080476Y-122582380D01*
X136699523Y-122582380D01*
X150876095Y-121582380D02*
X150876095Y-122391904D01*
X150923714Y-122487142D01*
X150971333Y-122534761D01*
X151066571Y-122582380D01*
X151257047Y-122582380D01*
X151352285Y-122534761D01*
X151399904Y-122487142D01*
X151447523Y-122391904D01*
X151447523Y-121582380D01*
X151828476Y-121582380D02*
X152447523Y-121582380D01*
X152114190Y-121963333D01*
X152257047Y-121963333D01*
X152352285Y-122010952D01*
X152399904Y-122058571D01*
X152447523Y-122153809D01*
X152447523Y-122391904D01*
X152399904Y-122487142D01*
X152352285Y-122534761D01*
X152257047Y-122582380D01*
X151971333Y-122582380D01*
X151876095Y-122534761D01*
X151828476Y-122487142D01*
X117856095Y-144022380D02*
X117856095Y-144831904D01*
X117903714Y-144927142D01*
X117951333Y-144974761D01*
X118046571Y-145022380D01*
X118237047Y-145022380D01*
X118332285Y-144974761D01*
X118379904Y-144927142D01*
X118427523Y-144831904D01*
X118427523Y-144022380D01*
X119332285Y-144355714D02*
X119332285Y-145022380D01*
X119094190Y-143974761D02*
X118856095Y-144689047D01*
X119475142Y-144689047D01*
X100838095Y-144022380D02*
X100838095Y-144831904D01*
X100885714Y-144927142D01*
X100933333Y-144974761D01*
X101028571Y-145022380D01*
X101219047Y-145022380D01*
X101314285Y-144974761D01*
X101361904Y-144927142D01*
X101409523Y-144831904D01*
X101409523Y-144022380D01*
X102361904Y-144022380D02*
X101885714Y-144022380D01*
X101838095Y-144498571D01*
X101885714Y-144450952D01*
X101980952Y-144403333D01*
X102219047Y-144403333D01*
X102314285Y-144450952D01*
X102361904Y-144498571D01*
X102409523Y-144593809D01*
X102409523Y-144831904D01*
X102361904Y-144927142D01*
X102314285Y-144974761D01*
X102219047Y-145022380D01*
X101980952Y-145022380D01*
X101885714Y-144974761D01*
X101838095Y-144927142D01*
X135128095Y-119130380D02*
X135128095Y-119939904D01*
X135175714Y-120035142D01*
X135223333Y-120082761D01*
X135318571Y-120130380D01*
X135509047Y-120130380D01*
X135604285Y-120082761D01*
X135651904Y-120035142D01*
X135699523Y-119939904D01*
X135699523Y-119130380D01*
X136604285Y-119130380D02*
X136413809Y-119130380D01*
X136318571Y-119178000D01*
X136270952Y-119225619D01*
X136175714Y-119368476D01*
X136128095Y-119558952D01*
X136128095Y-119939904D01*
X136175714Y-120035142D01*
X136223333Y-120082761D01*
X136318571Y-120130380D01*
X136509047Y-120130380D01*
X136604285Y-120082761D01*
X136651904Y-120035142D01*
X136699523Y-119939904D01*
X136699523Y-119701809D01*
X136651904Y-119606571D01*
X136604285Y-119558952D01*
X136509047Y-119511333D01*
X136318571Y-119511333D01*
X136223333Y-119558952D01*
X136175714Y-119606571D01*
X136128095Y-119701809D01*
X99992380Y-99821904D02*
X100801904Y-99821904D01*
X100897142Y-99774285D01*
X100944761Y-99726666D01*
X100992380Y-99631428D01*
X100992380Y-99440952D01*
X100944761Y-99345714D01*
X100897142Y-99298095D01*
X100801904Y-99250476D01*
X99992380Y-99250476D01*
X99992380Y-98869523D02*
X99992380Y-98202857D01*
X100992380Y-98631428D01*
M02*
