M48
; DRILL file {KiCad (5.1.2-1)-1} date Sunday, 25 August 2019 at 08:16:45 pm
; FORMAT={-:-/ absolute / inch / decimal}
; #@! TF.CreationDate,2019-08-25T20:16:45+10:00
; #@! TF.GenerationSoftware,Kicad,Pcbnew,(5.1.2-1)-1
; #@! TF.FileFunction,Plated,1,2,PTH
FMAT,2
INCH
T1C0.0157
T2C0.0276
T3C0.0295
T4C0.0315
T5C0.0354
T6C0.0433
T7C0.1098
%
G90
G05
T1
X3.57Y-4.07
X3.58Y-3.88
X3.6Y-3.54
X3.62Y-3.4
X3.6648Y-5.3552
X3.6685Y-5.17
X3.6934Y-5.29
X3.7018Y-5.1911
X3.754Y-3.85
X3.77Y-3.92
X3.7785Y-4.6798
X3.7825Y-3.79
X3.86Y-4.37
X3.9228Y-4.0898
X3.95Y-3.85
X3.95Y-4.29
X3.95Y-4.68
X3.95Y-4.79
X3.95Y-5.61
X3.9715Y-3.35
X3.9894Y-5.61
X4.0Y-2.51
X4.02Y-4.33
X4.03Y-4.79
X4.03Y-5.61
X4.0443Y-5.3557
X4.06Y-4.68
X4.08Y-5.45
X4.0915Y-3.8915
X4.22Y-4.29
X4.23Y-4.84
X4.25Y-5.6
X4.29Y-4.61
X4.3Y-3.69
X4.31Y-4.86
X4.31Y-5.6
X4.32Y-4.35
X4.3348Y-3.9248
X4.3698Y-2.8998
X4.37Y-3.88
X4.37Y-5.6
X4.3798Y-3.9798
X4.38Y-4.61
X4.38Y-4.74
X4.39Y-4.41
X4.41Y-5.59
X4.42Y-3.93
X4.42Y-4.66
X4.43Y-4.86
X4.46Y-4.55
X4.49Y-3.45
X4.52Y-3.87
X4.56Y-3.93
X4.57Y-3.43
X4.5702Y-3.8298
X4.59Y-2.81
X4.59Y-4.55
X4.6Y-3.64
X4.61Y-2.87
X4.61Y-4.67
X4.64Y-4.29
X4.6415Y-4.38
X4.645Y-4.145
X4.68Y-2.96
X4.7487Y-4.3787
X4.75Y-5.12
X4.7609Y-3.4291
X4.8Y-3.93
X4.8Y-4.41
X4.82Y-3.58
X4.8537Y-3.82
X4.8537Y-3.96
X4.8715Y-3.58
X4.8715Y-3.64
X4.89Y-5.71
X4.91Y-4.25
X4.91Y-5.66
X4.9285Y-3.52
X4.9289Y-2.9489
X4.93Y-4.44
X4.9318Y-4.2172
X4.94Y-5.74
X4.9604Y-3.6
X4.98Y-3.0
X4.98Y-3.48
X4.9902Y-3.5602
X4.9998Y-2.8118
X5.0Y-4.94
X5.0242Y-2.9342
X5.0352Y-3.5648
X5.04Y-4.43
X5.08Y-5.83
X5.1048Y-4.0748
X5.11Y-4.03
X5.13Y-4.24
X5.1385Y-3.695
X5.1385Y-3.7344
X5.2Y-2.8118
X5.2501Y-3.9453
X5.26Y-4.017
X5.27Y-5.2843
X5.2787Y-3.0224
X5.28Y-6.1917
X5.2829Y-2.9833
X5.2849Y-3.9269
X5.318Y-4.232
X5.3257Y-4.11
X5.3398Y-3.9117
X5.3498Y-3.9498
X5.35Y-4.41
X5.35Y-5.57
X5.3543Y-4.2757
X5.38Y-3.47
X5.3882Y-5.8472
X5.41Y-5.88
X5.4102Y-3.4285
X5.45Y-5.68
X5.4601Y-3.3701
X5.48Y-3.7485
X5.4988Y-2.8
X5.5085Y-5.68
X5.55Y-3.91
X5.5596Y-3.8096
X5.5596Y-3.6596
X5.56Y-3.85
X5.58Y-3.52
X5.58Y-4.56
X5.5899Y-3.1902
X5.59Y-4.16
X5.6183Y-4.3
X5.6183Y-4.48
X5.6198Y-3.7698
X5.62Y-3.69
X5.62Y-3.81
X5.62Y-3.9
X5.62Y-3.16
X5.6293Y-3.6303
X5.63Y-4.19
X5.6323Y-4.9077
X5.6446Y-3.5746
X5.6469Y-3.8526
X5.66Y-3.45
X5.68Y-4.68
X5.7285Y-4.54
X5.76Y-3.97
X5.786Y-3.8944
X5.79Y-2.8118
X5.82Y-4.67
X5.8221Y-3.8081
X5.83Y-3.8883
X5.8615Y-3.8101
X5.87Y-2.96
X5.91Y-3.0
X5.91Y-4.68
X5.92Y-3.23
X5.95Y-2.95
X5.98Y-3.03
X5.9801Y-3.6585
X6.0052Y-2.8052
X6.01Y-3.6015
X6.01Y-3.89
X6.0195Y-3.6585
X6.06Y-3.6
X6.1Y-3.5285
X6.1334Y-3.0242
X6.14Y-3.5285
X6.15Y-2.9885
X6.1852Y-2.6252
X6.2189Y-2.8295
X6.22Y-3.3515
X6.23Y-3.39
X6.28Y-3.43
X6.35Y-3.38
T2
X5.95Y-2.8
X6.15Y-2.8
X4.15Y-2.8
X4.35Y-2.8
X4.45Y-2.8
X4.65Y-2.8
X6.49Y-5.33
X6.49Y-5.53
X5.35Y-3.33
X5.55Y-3.33
X3.85Y-3.33
X4.05Y-3.33
X6.49Y-4.08
X6.49Y-4.28
X4.75Y-2.8
X4.95Y-2.8
X6.49Y-5.03
X6.49Y-5.23
X5.65Y-3.33
X5.85Y-3.33
X4.15Y-3.33
X4.35Y-3.33
X5.05Y-2.8
X5.25Y-2.8
X6.49Y-4.73
X6.49Y-4.93
X5.95Y-3.33
X6.15Y-3.33
X4.45Y-3.33
X4.65Y-3.33
X5.35Y-2.8
X5.55Y-2.8
X6.49Y-4.43
X6.49Y-4.63
X6.49Y-3.78
X6.49Y-3.98
X6.27Y-4.04
X6.27Y-4.24
X4.75Y-3.33
X4.95Y-3.33
X5.65Y-2.8
X5.85Y-2.8
X3.85Y-2.8
X4.05Y-2.8
X6.49Y-3.48
X6.49Y-3.68
X6.49Y-5.63
X6.49Y-5.83
X5.05Y-3.33
X5.25Y-3.33
T3
X3.9Y-6.05
X3.9787Y-6.05
X4.0575Y-6.05
X4.1362Y-6.05
X4.215Y-6.05
X4.2937Y-6.05
X4.3724Y-6.05
X4.4512Y-6.05
X4.5299Y-6.05
X4.6087Y-6.05
X5.86Y-6.05
X5.9387Y-6.05
X6.0175Y-6.05
X6.0962Y-6.05
X6.36Y-6.05
X6.4387Y-6.05
X4.85Y-6.05
X4.9287Y-6.05
X5.0075Y-6.05
X5.0862Y-6.05
X5.165Y-6.05
X5.2437Y-6.05
X5.3224Y-6.05
X5.4012Y-6.05
X5.4799Y-6.05
X5.5587Y-6.05
X5.6374Y-6.05
T4
X5.2Y-4.02
X5.2Y-4.12
X5.2Y-4.22
X5.2Y-4.32
X5.2Y-4.42
X5.2Y-4.52
X5.2Y-4.62
X5.5Y-4.02
X5.5Y-4.12
X5.5Y-4.22
X5.5Y-4.32
X5.5Y-4.42
X5.5Y-4.52
X5.5Y-4.62
X4.52Y-4.5
X4.52Y-4.6
X4.52Y-4.7
X4.52Y-4.8
X4.52Y-4.9
X4.52Y-5.0
X4.52Y-5.1
X4.52Y-5.2
X4.52Y-5.3
X4.52Y-5.4
X4.52Y-5.5
X4.52Y-5.6
X4.82Y-4.5
X4.82Y-4.6
X4.82Y-4.7
X4.82Y-4.8
X4.82Y-4.9
X4.82Y-5.0
X4.82Y-5.1
X4.82Y-5.2
X4.82Y-5.3
X4.82Y-5.4
X4.82Y-5.5
X4.82Y-5.6
X5.7816Y-5.82
X5.88Y-5.82
X5.2Y-4.9
X5.2Y-5.0
X5.2Y-5.1
X5.2Y-5.2
X5.2Y-5.3
X5.2Y-5.4
X5.2Y-5.5
X5.2Y-5.6
X5.5Y-4.9
X5.5Y-5.0
X5.5Y-5.1
X5.5Y-5.2
X5.5Y-5.3
X5.5Y-5.4
X5.5Y-5.5
X5.5Y-5.6
X3.85Y-4.5
X3.85Y-4.6
X3.85Y-4.7
X3.85Y-4.8
X3.85Y-4.9
X3.85Y-5.0
X3.85Y-5.1
X3.85Y-5.2
X3.85Y-5.3
X3.85Y-5.4
X3.85Y-5.5
X3.85Y-5.6
X4.15Y-4.5
X4.15Y-4.6
X4.15Y-4.7
X4.15Y-4.8
X4.15Y-4.9
X4.15Y-5.0
X4.15Y-5.1
X4.15Y-5.2
X4.15Y-5.3
X4.15Y-5.4
X4.15Y-5.5
X4.15Y-5.6
X4.05Y-3.75
X4.05Y-4.05
X4.15Y-3.75
X4.15Y-4.05
X4.25Y-3.75
X4.25Y-4.05
X4.35Y-3.75
X4.35Y-4.05
X4.45Y-3.75
X4.45Y-4.05
X4.55Y-3.75
X4.55Y-4.05
X4.65Y-3.75
X4.65Y-4.05
X5.82Y-4.9
X5.82Y-5.0
X5.82Y-5.1
X5.82Y-5.2
X5.82Y-5.3
X5.82Y-5.4
X5.82Y-5.5
X5.82Y-5.6
X6.12Y-4.9
X6.12Y-5.0
X6.12Y-5.1
X6.12Y-5.2
X6.12Y-5.3
X6.12Y-5.4
X6.12Y-5.5
X6.12Y-5.6
X6.01Y-5.82
X6.1084Y-5.82
X5.82Y-4.0
X5.82Y-4.1
X5.82Y-4.2
X5.82Y-4.3
X5.82Y-4.4
X5.82Y-4.5
X5.82Y-4.6
X6.12Y-4.0
X6.12Y-4.1
X6.12Y-4.2
X6.12Y-4.3
X6.12Y-4.4
X6.12Y-4.5
X6.12Y-4.6
T5
X5.1Y-3.13
X5.2Y-3.13
X6.69Y-3.83
X6.69Y-3.93
X4.8Y-2.6
X4.9Y-2.6
X6.69Y-5.08
X6.69Y-5.18
X6.0Y-3.13
X6.1Y-3.13
X4.2Y-3.13
X4.3Y-3.13
X3.9Y-3.13
X4.0Y-3.13
X5.69Y-2.6
X5.79Y-2.6
X3.9Y-2.6
X4.0Y-2.6
X5.39Y-2.6
X5.49Y-2.6
X5.4Y-3.13
X5.5Y-3.13
X6.69Y-4.48
X6.69Y-4.58
X5.1Y-2.6
X5.2Y-2.6
X4.5Y-3.13
X4.6Y-3.13
X4.2Y-2.6
X4.3Y-2.6
X4.8Y-3.13
X4.9Y-3.13
X6.69Y-5.38
X6.69Y-5.48
X6.69Y-4.78
X6.69Y-4.88
X6.69Y-4.13
X6.69Y-4.23
X6.0Y-2.6
X6.1Y-2.6
X6.69Y-5.68
X6.69Y-5.78
X5.7Y-3.13
X5.8Y-3.13
X6.69Y-3.53
X6.69Y-3.63
X4.5Y-2.6
X4.6Y-2.6
T6
X5.2Y-3.64
X5.2Y-3.8172
X5.4559Y-3.64
X5.4559Y-3.8172
T7
X6.75Y-6.1
X3.6Y-6.1
X6.74Y-2.6
X3.6Y-2.6
T0
M30
