G04 #@! TF.GenerationSoftware,KiCad,Pcbnew,(5.1.2-1)-1*
G04 #@! TF.CreationDate,2019-08-26T08:10:11+10:00*
G04 #@! TF.ProjectId,control-logic,636f6e74-726f-46c2-9d6c-6f6769632e6b,rev?*
G04 #@! TF.SameCoordinates,Original*
G04 #@! TF.FileFunction,Soldermask,Bot*
G04 #@! TF.FilePolarity,Negative*
%FSLAX46Y46*%
G04 Gerber Fmt 4.6, Leading zero omitted, Abs format (unit mm)*
G04 Created by KiCad (PCBNEW (5.1.2-1)-1) date 2019-08-26 08:10:11*
%MOMM*%
%LPD*%
G04 APERTURE LIST*
%ADD10O,1.200000X1.750000*%
%ADD11C,0.100000*%
%ADD12C,1.200000*%
%ADD13C,3.790000*%
%ADD14C,1.600000*%
%ADD15R,1.800000X1.800000*%
%ADD16C,1.800000*%
%ADD17O,1.400000X1.400000*%
%ADD18C,1.400000*%
%ADD19C,2.000000*%
%ADD20R,1.600000X1.600000*%
%ADD21O,1.600000X1.600000*%
G04 APERTURE END LIST*
D10*
X143190000Y-153670000D03*
X141190000Y-153670000D03*
X139190000Y-153670000D03*
X137190000Y-153670000D03*
X135190000Y-153670000D03*
X133190000Y-153670000D03*
X131190000Y-153670000D03*
X129190000Y-153670000D03*
X127190000Y-153670000D03*
X125190000Y-153670000D03*
D11*
G36*
X123564505Y-152796204D02*
G01*
X123588773Y-152799804D01*
X123612572Y-152805765D01*
X123635671Y-152814030D01*
X123657850Y-152824520D01*
X123678893Y-152837132D01*
X123698599Y-152851747D01*
X123716777Y-152868223D01*
X123733253Y-152886401D01*
X123747868Y-152906107D01*
X123760480Y-152927150D01*
X123770970Y-152949329D01*
X123779235Y-152972428D01*
X123785196Y-152996227D01*
X123788796Y-153020495D01*
X123790000Y-153044999D01*
X123790000Y-154295001D01*
X123788796Y-154319505D01*
X123785196Y-154343773D01*
X123779235Y-154367572D01*
X123770970Y-154390671D01*
X123760480Y-154412850D01*
X123747868Y-154433893D01*
X123733253Y-154453599D01*
X123716777Y-154471777D01*
X123698599Y-154488253D01*
X123678893Y-154502868D01*
X123657850Y-154515480D01*
X123635671Y-154525970D01*
X123612572Y-154534235D01*
X123588773Y-154540196D01*
X123564505Y-154543796D01*
X123540001Y-154545000D01*
X122839999Y-154545000D01*
X122815495Y-154543796D01*
X122791227Y-154540196D01*
X122767428Y-154534235D01*
X122744329Y-154525970D01*
X122722150Y-154515480D01*
X122701107Y-154502868D01*
X122681401Y-154488253D01*
X122663223Y-154471777D01*
X122646747Y-154453599D01*
X122632132Y-154433893D01*
X122619520Y-154412850D01*
X122609030Y-154390671D01*
X122600765Y-154367572D01*
X122594804Y-154343773D01*
X122591204Y-154319505D01*
X122590000Y-154295001D01*
X122590000Y-153044999D01*
X122591204Y-153020495D01*
X122594804Y-152996227D01*
X122600765Y-152972428D01*
X122609030Y-152949329D01*
X122619520Y-152927150D01*
X122632132Y-152906107D01*
X122646747Y-152886401D01*
X122663223Y-152868223D01*
X122681401Y-152851747D01*
X122701107Y-152837132D01*
X122722150Y-152824520D01*
X122744329Y-152814030D01*
X122767428Y-152805765D01*
X122791227Y-152799804D01*
X122815495Y-152796204D01*
X122839999Y-152795000D01*
X123540001Y-152795000D01*
X123564505Y-152796204D01*
X123564505Y-152796204D01*
G37*
D12*
X123190000Y-153670000D03*
D13*
X91440000Y-154940000D03*
X91440000Y-66040000D03*
X171196000Y-66040000D03*
X171450000Y-154940000D03*
D14*
X146852000Y-147828000D03*
X149352000Y-147828000D03*
X155154000Y-147828000D03*
X152654000Y-147828000D03*
D15*
X169926000Y-144272000D03*
D16*
X169926000Y-146812000D03*
D15*
X169926000Y-136652000D03*
D16*
X169926000Y-139192000D03*
D15*
X169926000Y-129032000D03*
D16*
X169926000Y-131572000D03*
X169926000Y-123952000D03*
D15*
X169926000Y-121412000D03*
D16*
X169926000Y-116332000D03*
D15*
X169926000Y-113792000D03*
X99060000Y-66040000D03*
D16*
X101600000Y-66040000D03*
X109220000Y-66040000D03*
D15*
X106680000Y-66040000D03*
X114300000Y-66040000D03*
D16*
X116840000Y-66040000D03*
X124460000Y-66040000D03*
D15*
X121920000Y-66040000D03*
X169926000Y-104902000D03*
D16*
X169926000Y-107442000D03*
X169926000Y-99822000D03*
D15*
X169926000Y-97282000D03*
D16*
X169926000Y-92202000D03*
D15*
X169926000Y-89662000D03*
X129540000Y-66040000D03*
D16*
X132080000Y-66040000D03*
X139446000Y-66040000D03*
D15*
X136906000Y-66040000D03*
D16*
X147066000Y-66040000D03*
D15*
X144526000Y-66040000D03*
X152400000Y-66040000D03*
D16*
X154940000Y-66040000D03*
X101600000Y-79502000D03*
D15*
X99060000Y-79502000D03*
X106680000Y-79502000D03*
D16*
X109220000Y-79502000D03*
D15*
X114300000Y-79502000D03*
D16*
X116840000Y-79502000D03*
X124460000Y-79502000D03*
D15*
X121920000Y-79502000D03*
X129540000Y-79502000D03*
D16*
X132080000Y-79502000D03*
X139700000Y-79502000D03*
D15*
X137160000Y-79502000D03*
X144780000Y-79502000D03*
D16*
X147320000Y-79502000D03*
X154940000Y-79502000D03*
D15*
X152400000Y-79502000D03*
D11*
G36*
X161918505Y-152796204D02*
G01*
X161942773Y-152799804D01*
X161966572Y-152805765D01*
X161989671Y-152814030D01*
X162011850Y-152824520D01*
X162032893Y-152837132D01*
X162052599Y-152851747D01*
X162070777Y-152868223D01*
X162087253Y-152886401D01*
X162101868Y-152906107D01*
X162114480Y-152927150D01*
X162124970Y-152949329D01*
X162133235Y-152972428D01*
X162139196Y-152996227D01*
X162142796Y-153020495D01*
X162144000Y-153044999D01*
X162144000Y-154295001D01*
X162142796Y-154319505D01*
X162139196Y-154343773D01*
X162133235Y-154367572D01*
X162124970Y-154390671D01*
X162114480Y-154412850D01*
X162101868Y-154433893D01*
X162087253Y-154453599D01*
X162070777Y-154471777D01*
X162052599Y-154488253D01*
X162032893Y-154502868D01*
X162011850Y-154515480D01*
X161989671Y-154525970D01*
X161966572Y-154534235D01*
X161942773Y-154540196D01*
X161918505Y-154543796D01*
X161894001Y-154545000D01*
X161193999Y-154545000D01*
X161169495Y-154543796D01*
X161145227Y-154540196D01*
X161121428Y-154534235D01*
X161098329Y-154525970D01*
X161076150Y-154515480D01*
X161055107Y-154502868D01*
X161035401Y-154488253D01*
X161017223Y-154471777D01*
X161000747Y-154453599D01*
X160986132Y-154433893D01*
X160973520Y-154412850D01*
X160963030Y-154390671D01*
X160954765Y-154367572D01*
X160948804Y-154343773D01*
X160945204Y-154319505D01*
X160944000Y-154295001D01*
X160944000Y-153044999D01*
X160945204Y-153020495D01*
X160948804Y-152996227D01*
X160954765Y-152972428D01*
X160963030Y-152949329D01*
X160973520Y-152927150D01*
X160986132Y-152906107D01*
X161000747Y-152886401D01*
X161017223Y-152868223D01*
X161035401Y-152851747D01*
X161055107Y-152837132D01*
X161076150Y-152824520D01*
X161098329Y-152814030D01*
X161121428Y-152805765D01*
X161145227Y-152799804D01*
X161169495Y-152796204D01*
X161193999Y-152795000D01*
X161894001Y-152795000D01*
X161918505Y-152796204D01*
X161918505Y-152796204D01*
G37*
D12*
X161544000Y-153670000D03*
D10*
X163544000Y-153670000D03*
D11*
G36*
X149218505Y-152796204D02*
G01*
X149242773Y-152799804D01*
X149266572Y-152805765D01*
X149289671Y-152814030D01*
X149311850Y-152824520D01*
X149332893Y-152837132D01*
X149352599Y-152851747D01*
X149370777Y-152868223D01*
X149387253Y-152886401D01*
X149401868Y-152906107D01*
X149414480Y-152927150D01*
X149424970Y-152949329D01*
X149433235Y-152972428D01*
X149439196Y-152996227D01*
X149442796Y-153020495D01*
X149444000Y-153044999D01*
X149444000Y-154295001D01*
X149442796Y-154319505D01*
X149439196Y-154343773D01*
X149433235Y-154367572D01*
X149424970Y-154390671D01*
X149414480Y-154412850D01*
X149401868Y-154433893D01*
X149387253Y-154453599D01*
X149370777Y-154471777D01*
X149352599Y-154488253D01*
X149332893Y-154502868D01*
X149311850Y-154515480D01*
X149289671Y-154525970D01*
X149266572Y-154534235D01*
X149242773Y-154540196D01*
X149218505Y-154543796D01*
X149194001Y-154545000D01*
X148493999Y-154545000D01*
X148469495Y-154543796D01*
X148445227Y-154540196D01*
X148421428Y-154534235D01*
X148398329Y-154525970D01*
X148376150Y-154515480D01*
X148355107Y-154502868D01*
X148335401Y-154488253D01*
X148317223Y-154471777D01*
X148300747Y-154453599D01*
X148286132Y-154433893D01*
X148273520Y-154412850D01*
X148263030Y-154390671D01*
X148254765Y-154367572D01*
X148248804Y-154343773D01*
X148245204Y-154319505D01*
X148244000Y-154295001D01*
X148244000Y-153044999D01*
X148245204Y-153020495D01*
X148248804Y-152996227D01*
X148254765Y-152972428D01*
X148263030Y-152949329D01*
X148273520Y-152927150D01*
X148286132Y-152906107D01*
X148300747Y-152886401D01*
X148317223Y-152868223D01*
X148335401Y-152851747D01*
X148355107Y-152837132D01*
X148376150Y-152824520D01*
X148398329Y-152814030D01*
X148421428Y-152805765D01*
X148445227Y-152799804D01*
X148469495Y-152796204D01*
X148493999Y-152795000D01*
X149194001Y-152795000D01*
X149218505Y-152796204D01*
X149218505Y-152796204D01*
G37*
D12*
X148844000Y-153670000D03*
D10*
X150844000Y-153670000D03*
X152844000Y-153670000D03*
X154844000Y-153670000D03*
X117060000Y-153670000D03*
X115060000Y-153670000D03*
X113060000Y-153670000D03*
X111060000Y-153670000D03*
X109060000Y-153670000D03*
X107060000Y-153670000D03*
X105060000Y-153670000D03*
X103060000Y-153670000D03*
X101060000Y-153670000D03*
D11*
G36*
X99434505Y-152796204D02*
G01*
X99458773Y-152799804D01*
X99482572Y-152805765D01*
X99505671Y-152814030D01*
X99527850Y-152824520D01*
X99548893Y-152837132D01*
X99568599Y-152851747D01*
X99586777Y-152868223D01*
X99603253Y-152886401D01*
X99617868Y-152906107D01*
X99630480Y-152927150D01*
X99640970Y-152949329D01*
X99649235Y-152972428D01*
X99655196Y-152996227D01*
X99658796Y-153020495D01*
X99660000Y-153044999D01*
X99660000Y-154295001D01*
X99658796Y-154319505D01*
X99655196Y-154343773D01*
X99649235Y-154367572D01*
X99640970Y-154390671D01*
X99630480Y-154412850D01*
X99617868Y-154433893D01*
X99603253Y-154453599D01*
X99586777Y-154471777D01*
X99568599Y-154488253D01*
X99548893Y-154502868D01*
X99527850Y-154515480D01*
X99505671Y-154525970D01*
X99482572Y-154534235D01*
X99458773Y-154540196D01*
X99434505Y-154543796D01*
X99410001Y-154545000D01*
X98709999Y-154545000D01*
X98685495Y-154543796D01*
X98661227Y-154540196D01*
X98637428Y-154534235D01*
X98614329Y-154525970D01*
X98592150Y-154515480D01*
X98571107Y-154502868D01*
X98551401Y-154488253D01*
X98533223Y-154471777D01*
X98516747Y-154453599D01*
X98502132Y-154433893D01*
X98489520Y-154412850D01*
X98479030Y-154390671D01*
X98470765Y-154367572D01*
X98464804Y-154343773D01*
X98461204Y-154319505D01*
X98460000Y-154295001D01*
X98460000Y-153044999D01*
X98461204Y-153020495D01*
X98464804Y-152996227D01*
X98470765Y-152972428D01*
X98479030Y-152949329D01*
X98489520Y-152927150D01*
X98502132Y-152906107D01*
X98516747Y-152886401D01*
X98533223Y-152868223D01*
X98551401Y-152851747D01*
X98571107Y-152837132D01*
X98592150Y-152824520D01*
X98614329Y-152814030D01*
X98637428Y-152805765D01*
X98661227Y-152799804D01*
X98685495Y-152796204D01*
X98709999Y-152795000D01*
X99410001Y-152795000D01*
X99434505Y-152796204D01*
X99434505Y-152796204D01*
G37*
D12*
X99060000Y-153670000D03*
D17*
X159258000Y-107696000D03*
D18*
X159258000Y-102616000D03*
D17*
X164846000Y-148082000D03*
D18*
X164846000Y-143002000D03*
X164846000Y-135382000D03*
D17*
X164846000Y-140462000D03*
D18*
X164846000Y-127762000D03*
D17*
X164846000Y-132842000D03*
D18*
X164846000Y-120142000D03*
D17*
X164846000Y-125222000D03*
X164846000Y-117602000D03*
D18*
X164846000Y-112522000D03*
D17*
X102870000Y-71120000D03*
D18*
X97790000Y-71120000D03*
D17*
X110490000Y-71120000D03*
D18*
X105410000Y-71120000D03*
X164846000Y-103632000D03*
D17*
X164846000Y-108712000D03*
D18*
X164846000Y-96012000D03*
D17*
X164846000Y-101092000D03*
D18*
X164846000Y-88392000D03*
D17*
X164846000Y-93472000D03*
X118110000Y-71120000D03*
D18*
X113030000Y-71120000D03*
D17*
X125730000Y-71120000D03*
D18*
X120650000Y-71120000D03*
X128270000Y-71120000D03*
D17*
X133350000Y-71120000D03*
D18*
X135890000Y-71120000D03*
D17*
X140970000Y-71120000D03*
D18*
X143510000Y-71120000D03*
D17*
X148590000Y-71120000D03*
D18*
X151130000Y-71120000D03*
D17*
X156210000Y-71120000D03*
D18*
X97790000Y-84582000D03*
D17*
X102870000Y-84582000D03*
D18*
X105410000Y-84582000D03*
D17*
X110490000Y-84582000D03*
X118110000Y-84582000D03*
D18*
X113030000Y-84582000D03*
D17*
X125730000Y-84582000D03*
D18*
X120650000Y-84582000D03*
D17*
X133350000Y-84582000D03*
D18*
X128270000Y-84582000D03*
D17*
X140970000Y-84582000D03*
D18*
X135890000Y-84582000D03*
D17*
X148590000Y-84582000D03*
D18*
X143510000Y-84582000D03*
X151130000Y-84582000D03*
D17*
X156210000Y-84582000D03*
D19*
X132080000Y-96956000D03*
X132080000Y-92456000D03*
X138580000Y-96956000D03*
X138580000Y-92456000D03*
D20*
X155448000Y-116840000D03*
D21*
X147828000Y-101600000D03*
X155448000Y-114300000D03*
X147828000Y-104140000D03*
X155448000Y-111760000D03*
X147828000Y-106680000D03*
X155448000Y-109220000D03*
X147828000Y-109220000D03*
X155448000Y-106680000D03*
X147828000Y-111760000D03*
X155448000Y-104140000D03*
X147828000Y-114300000D03*
X155448000Y-101600000D03*
X147828000Y-116840000D03*
D20*
X132080000Y-124460000D03*
D21*
X139700000Y-142240000D03*
X132080000Y-127000000D03*
X139700000Y-139700000D03*
X132080000Y-129540000D03*
X139700000Y-137160000D03*
X132080000Y-132080000D03*
X139700000Y-134620000D03*
X132080000Y-134620000D03*
X139700000Y-132080000D03*
X132080000Y-137160000D03*
X139700000Y-129540000D03*
X132080000Y-139700000D03*
X139700000Y-127000000D03*
X132080000Y-142240000D03*
X139700000Y-124460000D03*
X155448000Y-124460000D03*
X147828000Y-142240000D03*
X155448000Y-127000000D03*
X147828000Y-139700000D03*
X155448000Y-129540000D03*
X147828000Y-137160000D03*
X155448000Y-132080000D03*
X147828000Y-134620000D03*
X155448000Y-134620000D03*
X147828000Y-132080000D03*
X155448000Y-137160000D03*
X147828000Y-129540000D03*
X155448000Y-139700000D03*
X147828000Y-127000000D03*
X155448000Y-142240000D03*
D20*
X147828000Y-124460000D03*
D21*
X114808000Y-142240000D03*
X122428000Y-114300000D03*
X114808000Y-139700000D03*
X122428000Y-116840000D03*
X114808000Y-137160000D03*
X122428000Y-119380000D03*
X114808000Y-134620000D03*
X122428000Y-121920000D03*
X114808000Y-132080000D03*
X122428000Y-124460000D03*
X114808000Y-129540000D03*
X122428000Y-127000000D03*
X114808000Y-127000000D03*
X122428000Y-129540000D03*
X114808000Y-124460000D03*
X122428000Y-132080000D03*
X114808000Y-121920000D03*
X122428000Y-134620000D03*
X114808000Y-119380000D03*
X122428000Y-137160000D03*
X114808000Y-116840000D03*
X122428000Y-139700000D03*
X114808000Y-114300000D03*
D20*
X122428000Y-142240000D03*
X105410000Y-142240000D03*
D21*
X97790000Y-114300000D03*
X105410000Y-139700000D03*
X97790000Y-116840000D03*
X105410000Y-137160000D03*
X97790000Y-119380000D03*
X105410000Y-134620000D03*
X97790000Y-121920000D03*
X105410000Y-132080000D03*
X97790000Y-124460000D03*
X105410000Y-129540000D03*
X97790000Y-127000000D03*
X105410000Y-127000000D03*
X97790000Y-129540000D03*
X105410000Y-124460000D03*
X97790000Y-132080000D03*
X105410000Y-121920000D03*
X97790000Y-134620000D03*
X105410000Y-119380000D03*
X97790000Y-137160000D03*
X105410000Y-116840000D03*
X97790000Y-139700000D03*
X105410000Y-114300000D03*
X97790000Y-142240000D03*
X132080000Y-117348000D03*
X139700000Y-102108000D03*
X132080000Y-114808000D03*
X139700000Y-104648000D03*
X132080000Y-112268000D03*
X139700000Y-107188000D03*
X132080000Y-109728000D03*
X139700000Y-109728000D03*
X132080000Y-107188000D03*
X139700000Y-112268000D03*
X132080000Y-104648000D03*
X139700000Y-114808000D03*
X132080000Y-102108000D03*
D20*
X139700000Y-117348000D03*
X102870000Y-102870000D03*
D21*
X118110000Y-95250000D03*
X105410000Y-102870000D03*
X115570000Y-95250000D03*
X107950000Y-102870000D03*
X113030000Y-95250000D03*
X110490000Y-102870000D03*
X110490000Y-95250000D03*
X113030000Y-102870000D03*
X107950000Y-95250000D03*
X115570000Y-102870000D03*
X105410000Y-95250000D03*
X118110000Y-102870000D03*
X102870000Y-95250000D03*
M02*
