M48
; DRILL file {KiCad (5.1.2-1)-1} date Saturday, 24 August 2019 at 03:09:09 pm
; FORMAT={-:-/ absolute / inch / decimal}
; #@! TF.CreationDate,2019-08-24T15:09:09+10:00
; #@! TF.GenerationSoftware,Kicad,Pcbnew,(5.1.2-1)-1
; #@! TF.FileFunction,Plated,1,2,PTH
FMAT,2
INCH
T1C0.0157
T2C0.0276
T3C0.0295
T4C0.0315
T5C0.0472
T6C0.1098
%
G90
G05
T1
X4.41Y-4.88
X4.44Y-3.84
X4.4453Y-3.7447
X4.4647Y-3.5753
X4.48Y-3.37
X4.49Y-3.49
X4.5147Y-3.2953
X4.5197Y-3.1903
X4.5297Y-3.0903
X4.6326Y-3.49
X4.64Y-3.28
X4.64Y-3.56
X4.84Y-3.66
X4.95Y-5.04
X5.0048Y-3.6352
X5.02Y-4.83
X5.1127Y-4.9127
X5.12Y-3.99
X5.13Y-5.0
X5.1552Y-3.6048
X5.1563Y-4.65
X5.1848Y-4.6948
X5.2134Y-4.61
X5.27Y-4.77
X5.3027Y-4.7227
X5.46Y-4.69
X5.5948Y-4.1148
X5.62Y-3.1
X5.74Y-4.11
X5.75Y-3.88
X5.78Y-3.52
X5.8315Y-3.87
X5.89Y-3.86
X5.9Y-3.53
X5.9Y-4.01
X5.95Y-3.11
X6.1115Y-3.95
X6.12Y-4.59
X6.1685Y-4.5398
X6.22Y-3.92
X6.24Y-3.82
X6.3Y-3.1
X6.3654Y-3.8487
X6.3929Y-3.902
X6.4215Y-3.87
X6.47Y-3.71
X6.4985Y-3.84
X6.67Y-3.87
X6.78Y-3.42
X6.81Y-3.32
X6.95Y-4.82
X6.98Y-4.65
X6.9981Y-4.0
X7.01Y-4.51
X7.0473Y-4.2
X7.0631Y-4.4
X7.09Y-4.47
X7.1044Y-4.31
T2
X4.75Y-3.22
X4.95Y-3.22
X5.43Y-4.87
X5.63Y-4.87
X5.43Y-4.77
X5.63Y-4.77
T3
X4.78Y-5.12
X4.8587Y-5.12
X4.9375Y-5.12
X5.0162Y-5.12
X5.095Y-5.12
X5.1737Y-5.12
X5.2524Y-5.12
X5.3312Y-5.12
X6.08Y-5.12
X6.1587Y-5.12
X5.63Y-5.12
X5.7087Y-5.12
X5.7875Y-5.12
T4
X5.38Y-4.62
X5.4784Y-4.62
X5.98Y-3.47
X5.98Y-3.57
X5.98Y-3.67
X5.98Y-3.77
X5.98Y-3.87
X5.98Y-3.97
X5.98Y-4.07
X5.98Y-4.17
X5.98Y-4.27
X5.98Y-4.37
X5.98Y-4.47
X5.98Y-4.57
X6.28Y-3.47
X6.28Y-3.57
X6.28Y-3.67
X6.28Y-3.77
X6.28Y-3.87
X6.28Y-3.97
X6.28Y-4.07
X6.28Y-4.17
X6.28Y-4.27
X6.28Y-4.37
X6.28Y-4.47
X6.28Y-4.57
X6.08Y-2.62
X6.08Y-2.72
X6.08Y-2.82
X6.08Y-2.92
X6.08Y-3.02
X6.28Y-2.62
X6.28Y-2.72
X6.28Y-2.82
X6.28Y-2.92
X6.28Y-3.02
X6.08Y-4.87
X6.1784Y-4.87
X6.58Y-4.17
X6.58Y-4.27
X6.58Y-4.37
X6.58Y-4.47
X6.58Y-4.57
X6.58Y-4.67
X6.58Y-4.77
X6.58Y-4.87
X6.88Y-4.17
X6.88Y-4.27
X6.88Y-4.37
X6.88Y-4.47
X6.88Y-4.57
X6.88Y-4.67
X6.88Y-4.77
X6.88Y-4.87
X6.43Y-2.62
X6.43Y-2.72
X6.43Y-2.82
X6.43Y-2.92
X6.43Y-3.02
X6.63Y-2.62
X6.63Y-2.72
X6.63Y-2.82
X6.63Y-2.92
X6.63Y-3.02
X5.73Y-2.62
X5.73Y-2.72
X5.73Y-2.82
X5.73Y-2.92
X5.73Y-3.02
X5.93Y-2.62
X5.93Y-2.72
X5.93Y-2.82
X5.93Y-2.92
X5.93Y-3.02
X6.58Y-3.32
X6.58Y-3.42
X6.58Y-3.52
X6.58Y-3.62
X6.58Y-3.72
X6.58Y-3.82
X6.58Y-3.92
X6.88Y-3.32
X6.88Y-3.42
X6.88Y-3.52
X6.88Y-3.62
X6.88Y-3.72
X6.88Y-3.82
X6.88Y-3.92
X5.38Y-2.62
X5.38Y-2.72
X5.38Y-2.82
X5.38Y-2.92
X5.38Y-3.02
X5.58Y-2.62
X5.58Y-2.72
X5.58Y-2.82
X5.58Y-2.92
X5.58Y-3.02
X4.78Y-3.47
X4.78Y-3.57
X4.78Y-3.67
X4.78Y-3.77
X5.08Y-3.47
X5.08Y-3.57
X5.08Y-3.67
X5.08Y-3.77
X5.58Y-4.62
X5.6784Y-4.62
X5.38Y-3.47
X5.38Y-3.57
X5.38Y-3.67
X5.38Y-3.77
X5.38Y-3.87
X5.38Y-3.97
X5.38Y-4.07
X5.38Y-4.17
X5.38Y-4.27
X5.38Y-4.37
X5.68Y-3.47
X5.68Y-3.57
X5.68Y-3.67
X5.68Y-3.77
X5.68Y-3.87
X5.68Y-3.97
X5.68Y-4.07
X5.68Y-4.17
X5.68Y-4.27
X5.68Y-4.37
X4.78Y-4.07
X4.78Y-4.17
X4.78Y-4.27
X4.78Y-4.37
X4.78Y-4.47
X4.78Y-4.57
X4.78Y-4.67
X4.78Y-4.77
X5.08Y-4.07
X5.08Y-4.17
X5.08Y-4.27
X5.08Y-4.37
X5.08Y-4.47
X5.08Y-4.57
X5.08Y-4.67
X5.08Y-4.77
X6.08Y-4.77
X6.1784Y-4.77
T5
X4.83Y-2.72
X4.83Y-2.9169
X4.9875Y-2.72
X4.9875Y-2.9169
X5.145Y-2.72
X5.145Y-2.9169
T6
X4.48Y-2.62
X6.93Y-5.17
X4.48Y-5.17
X6.93Y-2.62
T0
M30
