G04 #@! TF.GenerationSoftware,KiCad,Pcbnew,(5.1.2-1)-1*
G04 #@! TF.CreationDate,2019-08-26T08:20:16+10:00*
G04 #@! TF.ProjectId,output-register,6f757470-7574-42d7-9265-676973746572,rev?*
G04 #@! TF.SameCoordinates,Original*
G04 #@! TF.FileFunction,Legend,Top*
G04 #@! TF.FilePolarity,Positive*
%FSLAX46Y46*%
G04 Gerber Fmt 4.6, Leading zero omitted, Abs format (unit mm)*
G04 Created by KiCad (PCBNEW (5.1.2-1)-1) date 2019-08-26 08:20:16*
%MOMM*%
%LPD*%
G04 APERTURE LIST*
%ADD10C,0.150000*%
%ADD11C,0.127000*%
%ADD12C,0.101600*%
%ADD13C,0.120000*%
%ADD14C,0.100000*%
G04 APERTURE END LIST*
D10*
X120587238Y-64063619D02*
X120634857Y-64016000D01*
X120730095Y-63968380D01*
X120968190Y-63968380D01*
X121063428Y-64016000D01*
X121111047Y-64063619D01*
X121158666Y-64158857D01*
X121158666Y-64254095D01*
X121111047Y-64396952D01*
X120539619Y-64968380D01*
X121158666Y-64968380D01*
X121634857Y-63968380D02*
X121634857Y-64016000D01*
X121587238Y-64111238D01*
X121539619Y-64158857D01*
X122015809Y-64920761D02*
X122111047Y-64968380D01*
X122301523Y-64968380D01*
X122396761Y-64920761D01*
X122444380Y-64825523D01*
X122444380Y-64777904D01*
X122396761Y-64682666D01*
X122301523Y-64635047D01*
X122158666Y-64635047D01*
X122063428Y-64587428D01*
X122015809Y-64492190D01*
X122015809Y-64444571D01*
X122063428Y-64349333D01*
X122158666Y-64301714D01*
X122301523Y-64301714D01*
X122396761Y-64349333D01*
X124206285Y-64873142D02*
X124158666Y-64920761D01*
X124015809Y-64968380D01*
X123920571Y-64968380D01*
X123777714Y-64920761D01*
X123682476Y-64825523D01*
X123634857Y-64730285D01*
X123587238Y-64539809D01*
X123587238Y-64396952D01*
X123634857Y-64206476D01*
X123682476Y-64111238D01*
X123777714Y-64016000D01*
X123920571Y-63968380D01*
X124015809Y-63968380D01*
X124158666Y-64016000D01*
X124206285Y-64063619D01*
X124777714Y-64968380D02*
X124682476Y-64920761D01*
X124634857Y-64873142D01*
X124587238Y-64777904D01*
X124587238Y-64492190D01*
X124634857Y-64396952D01*
X124682476Y-64349333D01*
X124777714Y-64301714D01*
X124920571Y-64301714D01*
X125015809Y-64349333D01*
X125063428Y-64396952D01*
X125111047Y-64492190D01*
X125111047Y-64777904D01*
X125063428Y-64873142D01*
X125015809Y-64920761D01*
X124920571Y-64968380D01*
X124777714Y-64968380D01*
X125539619Y-64968380D02*
X125539619Y-64301714D01*
X125539619Y-64396952D02*
X125587238Y-64349333D01*
X125682476Y-64301714D01*
X125825333Y-64301714D01*
X125920571Y-64349333D01*
X125968190Y-64444571D01*
X125968190Y-64968380D01*
X125968190Y-64444571D02*
X126015809Y-64349333D01*
X126111047Y-64301714D01*
X126253904Y-64301714D01*
X126349142Y-64349333D01*
X126396761Y-64444571D01*
X126396761Y-64968380D01*
X126872952Y-64301714D02*
X126872952Y-65301714D01*
X126872952Y-64349333D02*
X126968190Y-64301714D01*
X127158666Y-64301714D01*
X127253904Y-64349333D01*
X127301523Y-64396952D01*
X127349142Y-64492190D01*
X127349142Y-64777904D01*
X127301523Y-64873142D01*
X127253904Y-64920761D01*
X127158666Y-64968380D01*
X126968190Y-64968380D01*
X126872952Y-64920761D01*
X127920571Y-64968380D02*
X127825333Y-64920761D01*
X127777714Y-64825523D01*
X127777714Y-63968380D01*
X128682476Y-64920761D02*
X128587238Y-64968380D01*
X128396761Y-64968380D01*
X128301523Y-64920761D01*
X128253904Y-64825523D01*
X128253904Y-64444571D01*
X128301523Y-64349333D01*
X128396761Y-64301714D01*
X128587238Y-64301714D01*
X128682476Y-64349333D01*
X128730095Y-64444571D01*
X128730095Y-64539809D01*
X128253904Y-64635047D01*
X129158666Y-64968380D02*
X129158666Y-64301714D01*
X129158666Y-64396952D02*
X129206285Y-64349333D01*
X129301523Y-64301714D01*
X129444380Y-64301714D01*
X129539619Y-64349333D01*
X129587238Y-64444571D01*
X129587238Y-64968380D01*
X129587238Y-64444571D02*
X129634857Y-64349333D01*
X129730095Y-64301714D01*
X129872952Y-64301714D01*
X129968190Y-64349333D01*
X130015809Y-64444571D01*
X130015809Y-64968380D01*
X130872952Y-64920761D02*
X130777714Y-64968380D01*
X130587238Y-64968380D01*
X130492000Y-64920761D01*
X130444380Y-64825523D01*
X130444380Y-64444571D01*
X130492000Y-64349333D01*
X130587238Y-64301714D01*
X130777714Y-64301714D01*
X130872952Y-64349333D01*
X130920571Y-64444571D01*
X130920571Y-64539809D01*
X130444380Y-64635047D01*
X131349142Y-64301714D02*
X131349142Y-64968380D01*
X131349142Y-64396952D02*
X131396761Y-64349333D01*
X131492000Y-64301714D01*
X131634857Y-64301714D01*
X131730095Y-64349333D01*
X131777714Y-64444571D01*
X131777714Y-64968380D01*
X132111047Y-64301714D02*
X132492000Y-64301714D01*
X132253904Y-63968380D02*
X132253904Y-64825523D01*
X132301523Y-64920761D01*
X132396761Y-64968380D01*
X132492000Y-64968380D01*
D11*
X147501428Y-84418714D02*
X147682857Y-84926714D01*
X147864285Y-84418714D01*
X148553714Y-84926714D02*
X148118285Y-84926714D01*
X148336000Y-84926714D02*
X148336000Y-84164714D01*
X148263428Y-84273571D01*
X148190857Y-84346142D01*
X148118285Y-84382428D01*
X148880285Y-84854142D02*
X148916571Y-84890428D01*
X148880285Y-84926714D01*
X148844000Y-84890428D01*
X148880285Y-84854142D01*
X148880285Y-84926714D01*
X149388285Y-84164714D02*
X149460857Y-84164714D01*
X149533428Y-84201000D01*
X149569714Y-84237285D01*
X149606000Y-84309857D01*
X149642285Y-84455000D01*
X149642285Y-84636428D01*
X149606000Y-84781571D01*
X149569714Y-84854142D01*
X149533428Y-84890428D01*
X149460857Y-84926714D01*
X149388285Y-84926714D01*
X149315714Y-84890428D01*
X149279428Y-84854142D01*
X149243142Y-84781571D01*
X149206857Y-84636428D01*
X149206857Y-84455000D01*
X149243142Y-84309857D01*
X149279428Y-84237285D01*
X149315714Y-84201000D01*
X149388285Y-84164714D01*
D12*
X142306523Y-82310211D02*
X142306523Y-81675211D01*
X142457714Y-81675211D01*
X142548428Y-81705450D01*
X142608904Y-81765926D01*
X142639142Y-81826402D01*
X142669380Y-81947354D01*
X142669380Y-82038069D01*
X142639142Y-82159021D01*
X142608904Y-82219497D01*
X142548428Y-82279973D01*
X142457714Y-82310211D01*
X142306523Y-82310211D01*
X143183428Y-82279973D02*
X143122952Y-82310211D01*
X143002000Y-82310211D01*
X142941523Y-82279973D01*
X142911285Y-82219497D01*
X142911285Y-81977592D01*
X142941523Y-81917116D01*
X143002000Y-81886878D01*
X143122952Y-81886878D01*
X143183428Y-81917116D01*
X143213666Y-81977592D01*
X143213666Y-82038069D01*
X142911285Y-82098545D01*
X143455571Y-82279973D02*
X143516047Y-82310211D01*
X143637000Y-82310211D01*
X143697476Y-82279973D01*
X143727714Y-82219497D01*
X143727714Y-82189259D01*
X143697476Y-82128783D01*
X143637000Y-82098545D01*
X143546285Y-82098545D01*
X143485809Y-82068307D01*
X143455571Y-82007830D01*
X143455571Y-81977592D01*
X143485809Y-81917116D01*
X143546285Y-81886878D01*
X143637000Y-81886878D01*
X143697476Y-81917116D01*
X143999857Y-82310211D02*
X143999857Y-81886878D01*
X143999857Y-81675211D02*
X143969619Y-81705450D01*
X143999857Y-81735688D01*
X144030095Y-81705450D01*
X143999857Y-81675211D01*
X143999857Y-81735688D01*
X144574380Y-81886878D02*
X144574380Y-82400926D01*
X144544142Y-82461402D01*
X144513904Y-82491640D01*
X144453428Y-82521878D01*
X144362714Y-82521878D01*
X144302238Y-82491640D01*
X144574380Y-82279973D02*
X144513904Y-82310211D01*
X144392952Y-82310211D01*
X144332476Y-82279973D01*
X144302238Y-82249735D01*
X144272000Y-82189259D01*
X144272000Y-82007830D01*
X144302238Y-81947354D01*
X144332476Y-81917116D01*
X144392952Y-81886878D01*
X144513904Y-81886878D01*
X144574380Y-81917116D01*
X144876761Y-81886878D02*
X144876761Y-82310211D01*
X144876761Y-81947354D02*
X144907000Y-81917116D01*
X144967476Y-81886878D01*
X145058190Y-81886878D01*
X145118666Y-81917116D01*
X145148904Y-81977592D01*
X145148904Y-82310211D01*
X145693190Y-82279973D02*
X145632714Y-82310211D01*
X145511761Y-82310211D01*
X145451285Y-82279973D01*
X145421047Y-82219497D01*
X145421047Y-81977592D01*
X145451285Y-81917116D01*
X145511761Y-81886878D01*
X145632714Y-81886878D01*
X145693190Y-81917116D01*
X145723428Y-81977592D01*
X145723428Y-82038069D01*
X145421047Y-82098545D01*
X146267714Y-82310211D02*
X146267714Y-81675211D01*
X146267714Y-82279973D02*
X146207238Y-82310211D01*
X146086285Y-82310211D01*
X146025809Y-82279973D01*
X145995571Y-82249735D01*
X145965333Y-82189259D01*
X145965333Y-82007830D01*
X145995571Y-81947354D01*
X146025809Y-81917116D01*
X146086285Y-81886878D01*
X146207238Y-81886878D01*
X146267714Y-81917116D01*
X147053904Y-82310211D02*
X147053904Y-81675211D01*
X147053904Y-81917116D02*
X147114380Y-81886878D01*
X147235333Y-81886878D01*
X147295809Y-81917116D01*
X147326047Y-81947354D01*
X147356285Y-82007830D01*
X147356285Y-82189259D01*
X147326047Y-82249735D01*
X147295809Y-82279973D01*
X147235333Y-82310211D01*
X147114380Y-82310211D01*
X147053904Y-82279973D01*
X147567952Y-81886878D02*
X147719142Y-82310211D01*
X147870333Y-81886878D02*
X147719142Y-82310211D01*
X147658666Y-82461402D01*
X147628428Y-82491640D01*
X147567952Y-82521878D01*
X148565809Y-82279973D02*
X148656523Y-82310211D01*
X148807714Y-82310211D01*
X148868190Y-82279973D01*
X148898428Y-82249735D01*
X148928666Y-82189259D01*
X148928666Y-82128783D01*
X148898428Y-82068307D01*
X148868190Y-82038069D01*
X148807714Y-82007830D01*
X148686761Y-81977592D01*
X148626285Y-81947354D01*
X148596047Y-81917116D01*
X148565809Y-81856640D01*
X148565809Y-81796164D01*
X148596047Y-81735688D01*
X148626285Y-81705450D01*
X148686761Y-81675211D01*
X148837952Y-81675211D01*
X148928666Y-81705450D01*
X149200809Y-82310211D02*
X149200809Y-81675211D01*
X149472952Y-82310211D02*
X149472952Y-81977592D01*
X149442714Y-81917116D01*
X149382238Y-81886878D01*
X149291523Y-81886878D01*
X149231047Y-81917116D01*
X149200809Y-81947354D01*
X150047476Y-82310211D02*
X150047476Y-81977592D01*
X150017238Y-81917116D01*
X149956761Y-81886878D01*
X149835809Y-81886878D01*
X149775333Y-81917116D01*
X150047476Y-82279973D02*
X149987000Y-82310211D01*
X149835809Y-82310211D01*
X149775333Y-82279973D01*
X149745095Y-82219497D01*
X149745095Y-82159021D01*
X149775333Y-82098545D01*
X149835809Y-82068307D01*
X149987000Y-82068307D01*
X150047476Y-82038069D01*
X150349857Y-81886878D02*
X150349857Y-82310211D01*
X150349857Y-81947354D02*
X150380095Y-81917116D01*
X150440571Y-81886878D01*
X150531285Y-81886878D01*
X150591761Y-81917116D01*
X150622000Y-81977592D01*
X150622000Y-82310211D01*
X151166285Y-82279973D02*
X151105809Y-82310211D01*
X150984857Y-82310211D01*
X150924380Y-82279973D01*
X150894142Y-82219497D01*
X150894142Y-81977592D01*
X150924380Y-81917116D01*
X150984857Y-81886878D01*
X151105809Y-81886878D01*
X151166285Y-81917116D01*
X151196523Y-81977592D01*
X151196523Y-82038069D01*
X150894142Y-82098545D01*
X151952476Y-82310211D02*
X151952476Y-81675211D01*
X152194380Y-81675211D01*
X152254857Y-81705450D01*
X152285095Y-81735688D01*
X152315333Y-81796164D01*
X152315333Y-81886878D01*
X152285095Y-81947354D01*
X152254857Y-81977592D01*
X152194380Y-82007830D01*
X151952476Y-82007830D01*
X152678190Y-82310211D02*
X152617714Y-82279973D01*
X152587476Y-82249735D01*
X152557238Y-82189259D01*
X152557238Y-82007830D01*
X152587476Y-81947354D01*
X152617714Y-81917116D01*
X152678190Y-81886878D01*
X152768904Y-81886878D01*
X152829380Y-81917116D01*
X152859619Y-81947354D01*
X152889857Y-82007830D01*
X152889857Y-82189259D01*
X152859619Y-82249735D01*
X152829380Y-82279973D01*
X152768904Y-82310211D01*
X152678190Y-82310211D01*
X153162000Y-81886878D02*
X153162000Y-82521878D01*
X153162000Y-81917116D02*
X153222476Y-81886878D01*
X153343428Y-81886878D01*
X153403904Y-81917116D01*
X153434142Y-81947354D01*
X153464380Y-82007830D01*
X153464380Y-82189259D01*
X153434142Y-82249735D01*
X153403904Y-82279973D01*
X153343428Y-82310211D01*
X153222476Y-82310211D01*
X153162000Y-82279973D01*
X153736523Y-81886878D02*
X153736523Y-82521878D01*
X153736523Y-81917116D02*
X153797000Y-81886878D01*
X153917952Y-81886878D01*
X153978428Y-81917116D01*
X154008666Y-81947354D01*
X154038904Y-82007830D01*
X154038904Y-82189259D01*
X154008666Y-82249735D01*
X153978428Y-82279973D01*
X153917952Y-82310211D01*
X153797000Y-82310211D01*
X153736523Y-82279973D01*
X154401761Y-82310211D02*
X154341285Y-82279973D01*
X154311047Y-82219497D01*
X154311047Y-81675211D01*
X154885571Y-82279973D02*
X154825095Y-82310211D01*
X154704142Y-82310211D01*
X154643666Y-82279973D01*
X154613428Y-82219497D01*
X154613428Y-81977592D01*
X154643666Y-81917116D01*
X154704142Y-81886878D01*
X154825095Y-81886878D01*
X154885571Y-81917116D01*
X154915809Y-81977592D01*
X154915809Y-82038069D01*
X154613428Y-82098545D01*
X155097238Y-81886878D02*
X155339142Y-81886878D01*
X155187952Y-81675211D02*
X155187952Y-82219497D01*
X155218190Y-82279973D01*
X155278666Y-82310211D01*
X155339142Y-82310211D01*
X155641523Y-82310211D02*
X155581047Y-82279973D01*
X155550809Y-82249735D01*
X155520571Y-82189259D01*
X155520571Y-82007830D01*
X155550809Y-81947354D01*
X155581047Y-81917116D01*
X155641523Y-81886878D01*
X155732238Y-81886878D01*
X155792714Y-81917116D01*
X155822952Y-81947354D01*
X155853190Y-82007830D01*
X155853190Y-82189259D01*
X155822952Y-82249735D01*
X155792714Y-82279973D01*
X155732238Y-82310211D01*
X155641523Y-82310211D01*
X156125333Y-81886878D02*
X156125333Y-82310211D01*
X156125333Y-81947354D02*
X156155571Y-81917116D01*
X156216047Y-81886878D01*
X156306761Y-81886878D01*
X156367238Y-81917116D01*
X156397476Y-81977592D01*
X156397476Y-82310211D01*
X132539619Y-83364311D02*
X132539619Y-82729311D01*
X132539619Y-82971216D02*
X132600095Y-82940978D01*
X132721047Y-82940978D01*
X132781523Y-82971216D01*
X132811761Y-83001454D01*
X132842000Y-83061930D01*
X132842000Y-83243359D01*
X132811761Y-83303835D01*
X132781523Y-83334073D01*
X132721047Y-83364311D01*
X132600095Y-83364311D01*
X132539619Y-83334073D01*
X133386285Y-83364311D02*
X133386285Y-83031692D01*
X133356047Y-82971216D01*
X133295571Y-82940978D01*
X133174619Y-82940978D01*
X133114142Y-82971216D01*
X133386285Y-83334073D02*
X133325809Y-83364311D01*
X133174619Y-83364311D01*
X133114142Y-83334073D01*
X133083904Y-83273597D01*
X133083904Y-83213121D01*
X133114142Y-83152645D01*
X133174619Y-83122407D01*
X133325809Y-83122407D01*
X133386285Y-83092169D01*
X133658428Y-83334073D02*
X133718904Y-83364311D01*
X133839857Y-83364311D01*
X133900333Y-83334073D01*
X133930571Y-83273597D01*
X133930571Y-83243359D01*
X133900333Y-83182883D01*
X133839857Y-83152645D01*
X133749142Y-83152645D01*
X133688666Y-83122407D01*
X133658428Y-83061930D01*
X133658428Y-83031692D01*
X133688666Y-82971216D01*
X133749142Y-82940978D01*
X133839857Y-82940978D01*
X133900333Y-82971216D01*
X134444619Y-83334073D02*
X134384142Y-83364311D01*
X134263190Y-83364311D01*
X134202714Y-83334073D01*
X134172476Y-83273597D01*
X134172476Y-83031692D01*
X134202714Y-82971216D01*
X134263190Y-82940978D01*
X134384142Y-82940978D01*
X134444619Y-82971216D01*
X134474857Y-83031692D01*
X134474857Y-83092169D01*
X134172476Y-83152645D01*
X135019142Y-83364311D02*
X135019142Y-82729311D01*
X135019142Y-83334073D02*
X134958666Y-83364311D01*
X134837714Y-83364311D01*
X134777238Y-83334073D01*
X134747000Y-83303835D01*
X134716761Y-83243359D01*
X134716761Y-83061930D01*
X134747000Y-83001454D01*
X134777238Y-82971216D01*
X134837714Y-82940978D01*
X134958666Y-82940978D01*
X135019142Y-82971216D01*
X135896047Y-83364311D02*
X135835571Y-83334073D01*
X135805333Y-83303835D01*
X135775095Y-83243359D01*
X135775095Y-83061930D01*
X135805333Y-83001454D01*
X135835571Y-82971216D01*
X135896047Y-82940978D01*
X135986761Y-82940978D01*
X136047238Y-82971216D01*
X136077476Y-83001454D01*
X136107714Y-83061930D01*
X136107714Y-83243359D01*
X136077476Y-83303835D01*
X136047238Y-83334073D01*
X135986761Y-83364311D01*
X135896047Y-83364311D01*
X136379857Y-82940978D02*
X136379857Y-83364311D01*
X136379857Y-83001454D02*
X136410095Y-82971216D01*
X136470571Y-82940978D01*
X136561285Y-82940978D01*
X136621761Y-82971216D01*
X136652000Y-83031692D01*
X136652000Y-83364311D01*
X137438190Y-83364311D02*
X137438190Y-82729311D01*
X137438190Y-82971216D02*
X137498666Y-82940978D01*
X137619619Y-82940978D01*
X137680095Y-82971216D01*
X137710333Y-83001454D01*
X137740571Y-83061930D01*
X137740571Y-83243359D01*
X137710333Y-83303835D01*
X137680095Y-83334073D01*
X137619619Y-83364311D01*
X137498666Y-83364311D01*
X137438190Y-83334073D01*
X138012714Y-83364311D02*
X138012714Y-82940978D01*
X138012714Y-83061930D02*
X138042952Y-83001454D01*
X138073190Y-82971216D01*
X138133666Y-82940978D01*
X138194142Y-82940978D01*
X138647714Y-83334073D02*
X138587238Y-83364311D01*
X138466285Y-83364311D01*
X138405809Y-83334073D01*
X138375571Y-83273597D01*
X138375571Y-83031692D01*
X138405809Y-82971216D01*
X138466285Y-82940978D01*
X138587238Y-82940978D01*
X138647714Y-82971216D01*
X138677952Y-83031692D01*
X138677952Y-83092169D01*
X138375571Y-83152645D01*
X139222238Y-83364311D02*
X139222238Y-83031692D01*
X139192000Y-82971216D01*
X139131523Y-82940978D01*
X139010571Y-82940978D01*
X138950095Y-82971216D01*
X139222238Y-83334073D02*
X139161761Y-83364311D01*
X139010571Y-83364311D01*
X138950095Y-83334073D01*
X138919857Y-83273597D01*
X138919857Y-83213121D01*
X138950095Y-83152645D01*
X139010571Y-83122407D01*
X139161761Y-83122407D01*
X139222238Y-83092169D01*
X139796761Y-83364311D02*
X139796761Y-82729311D01*
X139796761Y-83334073D02*
X139736285Y-83364311D01*
X139615333Y-83364311D01*
X139554857Y-83334073D01*
X139524619Y-83303835D01*
X139494380Y-83243359D01*
X139494380Y-83061930D01*
X139524619Y-83001454D01*
X139554857Y-82971216D01*
X139615333Y-82940978D01*
X139736285Y-82940978D01*
X139796761Y-82971216D01*
X140099142Y-83364311D02*
X140099142Y-82729311D01*
X140099142Y-82971216D02*
X140159619Y-82940978D01*
X140280571Y-82940978D01*
X140341047Y-82971216D01*
X140371285Y-83001454D01*
X140401523Y-83061930D01*
X140401523Y-83243359D01*
X140371285Y-83303835D01*
X140341047Y-83334073D01*
X140280571Y-83364311D01*
X140159619Y-83364311D01*
X140099142Y-83334073D01*
X140764380Y-83364311D02*
X140703904Y-83334073D01*
X140673666Y-83303835D01*
X140643428Y-83243359D01*
X140643428Y-83061930D01*
X140673666Y-83001454D01*
X140703904Y-82971216D01*
X140764380Y-82940978D01*
X140855095Y-82940978D01*
X140915571Y-82971216D01*
X140945809Y-83001454D01*
X140976047Y-83061930D01*
X140976047Y-83243359D01*
X140945809Y-83303835D01*
X140915571Y-83334073D01*
X140855095Y-83364311D01*
X140764380Y-83364311D01*
X141520333Y-83364311D02*
X141520333Y-83031692D01*
X141490095Y-82971216D01*
X141429619Y-82940978D01*
X141308666Y-82940978D01*
X141248190Y-82971216D01*
X141520333Y-83334073D02*
X141459857Y-83364311D01*
X141308666Y-83364311D01*
X141248190Y-83334073D01*
X141217952Y-83273597D01*
X141217952Y-83213121D01*
X141248190Y-83152645D01*
X141308666Y-83122407D01*
X141459857Y-83122407D01*
X141520333Y-83092169D01*
X141822714Y-83364311D02*
X141822714Y-82940978D01*
X141822714Y-83061930D02*
X141852952Y-83001454D01*
X141883190Y-82971216D01*
X141943666Y-82940978D01*
X142004142Y-82940978D01*
X142487952Y-83364311D02*
X142487952Y-82729311D01*
X142487952Y-83334073D02*
X142427476Y-83364311D01*
X142306523Y-83364311D01*
X142246047Y-83334073D01*
X142215809Y-83303835D01*
X142185571Y-83243359D01*
X142185571Y-83061930D01*
X142215809Y-83001454D01*
X142246047Y-82971216D01*
X142306523Y-82940978D01*
X142427476Y-82940978D01*
X142487952Y-82971216D01*
X143546285Y-83334073D02*
X143485809Y-83364311D01*
X143364857Y-83364311D01*
X143304380Y-83334073D01*
X143274142Y-83303835D01*
X143243904Y-83243359D01*
X143243904Y-83061930D01*
X143274142Y-83001454D01*
X143304380Y-82971216D01*
X143364857Y-82940978D01*
X143485809Y-82940978D01*
X143546285Y-82971216D01*
X143909142Y-83364311D02*
X143848666Y-83334073D01*
X143818428Y-83303835D01*
X143788190Y-83243359D01*
X143788190Y-83061930D01*
X143818428Y-83001454D01*
X143848666Y-82971216D01*
X143909142Y-82940978D01*
X143999857Y-82940978D01*
X144060333Y-82971216D01*
X144090571Y-83001454D01*
X144120809Y-83061930D01*
X144120809Y-83243359D01*
X144090571Y-83303835D01*
X144060333Y-83334073D01*
X143999857Y-83364311D01*
X143909142Y-83364311D01*
X144392952Y-83364311D02*
X144392952Y-82940978D01*
X144392952Y-83001454D02*
X144423190Y-82971216D01*
X144483666Y-82940978D01*
X144574380Y-82940978D01*
X144634857Y-82971216D01*
X144665095Y-83031692D01*
X144665095Y-83364311D01*
X144665095Y-83031692D02*
X144695333Y-82971216D01*
X144755809Y-82940978D01*
X144846523Y-82940978D01*
X144907000Y-82971216D01*
X144937238Y-83031692D01*
X144937238Y-83364311D01*
X145239619Y-82940978D02*
X145239619Y-83575978D01*
X145239619Y-82971216D02*
X145300095Y-82940978D01*
X145421047Y-82940978D01*
X145481523Y-82971216D01*
X145511761Y-83001454D01*
X145542000Y-83061930D01*
X145542000Y-83243359D01*
X145511761Y-83303835D01*
X145481523Y-83334073D01*
X145421047Y-83364311D01*
X145300095Y-83364311D01*
X145239619Y-83334073D01*
X146086285Y-82940978D02*
X146086285Y-83364311D01*
X145814142Y-82940978D02*
X145814142Y-83273597D01*
X145844380Y-83334073D01*
X145904857Y-83364311D01*
X145995571Y-83364311D01*
X146056047Y-83334073D01*
X146086285Y-83303835D01*
X146297952Y-82940978D02*
X146539857Y-82940978D01*
X146388666Y-82729311D02*
X146388666Y-83273597D01*
X146418904Y-83334073D01*
X146479380Y-83364311D01*
X146539857Y-83364311D01*
X146993428Y-83334073D02*
X146932952Y-83364311D01*
X146812000Y-83364311D01*
X146751523Y-83334073D01*
X146721285Y-83273597D01*
X146721285Y-83031692D01*
X146751523Y-82971216D01*
X146812000Y-82940978D01*
X146932952Y-82940978D01*
X146993428Y-82971216D01*
X147023666Y-83031692D01*
X147023666Y-83092169D01*
X146721285Y-83152645D01*
X147295809Y-83364311D02*
X147295809Y-82940978D01*
X147295809Y-83061930D02*
X147326047Y-83001454D01*
X147356285Y-82971216D01*
X147416761Y-82940978D01*
X147477238Y-82940978D01*
X148172714Y-83364311D02*
X148172714Y-82729311D01*
X148172714Y-82971216D02*
X148233190Y-82940978D01*
X148354142Y-82940978D01*
X148414619Y-82971216D01*
X148444857Y-83001454D01*
X148475095Y-83061930D01*
X148475095Y-83243359D01*
X148444857Y-83303835D01*
X148414619Y-83334073D01*
X148354142Y-83364311D01*
X148233190Y-83364311D01*
X148172714Y-83334073D01*
X148686761Y-82940978D02*
X148837952Y-83364311D01*
X148989142Y-82940978D02*
X148837952Y-83364311D01*
X148777476Y-83515502D01*
X148747238Y-83545740D01*
X148686761Y-83575978D01*
X149926523Y-83031692D02*
X150017238Y-83061930D01*
X150047476Y-83092169D01*
X150077714Y-83152645D01*
X150077714Y-83243359D01*
X150047476Y-83303835D01*
X150017238Y-83334073D01*
X149956761Y-83364311D01*
X149714857Y-83364311D01*
X149714857Y-82729311D01*
X149926523Y-82729311D01*
X149987000Y-82759550D01*
X150017238Y-82789788D01*
X150047476Y-82850264D01*
X150047476Y-82910740D01*
X150017238Y-82971216D01*
X149987000Y-83001454D01*
X149926523Y-83031692D01*
X149714857Y-83031692D01*
X150591761Y-83334073D02*
X150531285Y-83364311D01*
X150410333Y-83364311D01*
X150349857Y-83334073D01*
X150319619Y-83273597D01*
X150319619Y-83031692D01*
X150349857Y-82971216D01*
X150410333Y-82940978D01*
X150531285Y-82940978D01*
X150591761Y-82971216D01*
X150622000Y-83031692D01*
X150622000Y-83092169D01*
X150319619Y-83152645D01*
X150894142Y-82940978D02*
X150894142Y-83364311D01*
X150894142Y-83001454D02*
X150924380Y-82971216D01*
X150984857Y-82940978D01*
X151075571Y-82940978D01*
X151136047Y-82971216D01*
X151166285Y-83031692D01*
X151166285Y-83364311D01*
X151952476Y-83031692D02*
X152164142Y-83031692D01*
X152254857Y-83364311D02*
X151952476Y-83364311D01*
X151952476Y-82729311D01*
X152254857Y-82729311D01*
X152799142Y-83364311D02*
X152799142Y-83031692D01*
X152768904Y-82971216D01*
X152708428Y-82940978D01*
X152587476Y-82940978D01*
X152527000Y-82971216D01*
X152799142Y-83334073D02*
X152738666Y-83364311D01*
X152587476Y-83364311D01*
X152527000Y-83334073D01*
X152496761Y-83273597D01*
X152496761Y-83213121D01*
X152527000Y-83152645D01*
X152587476Y-83122407D01*
X152738666Y-83122407D01*
X152799142Y-83092169D01*
X153010809Y-82940978D02*
X153252714Y-82940978D01*
X153101523Y-82729311D02*
X153101523Y-83273597D01*
X153131761Y-83334073D01*
X153192238Y-83364311D01*
X153252714Y-83364311D01*
X153706285Y-83334073D02*
X153645809Y-83364311D01*
X153524857Y-83364311D01*
X153464380Y-83334073D01*
X153434142Y-83273597D01*
X153434142Y-83031692D01*
X153464380Y-82971216D01*
X153524857Y-82940978D01*
X153645809Y-82940978D01*
X153706285Y-82971216D01*
X153736523Y-83031692D01*
X153736523Y-83092169D01*
X153434142Y-83152645D01*
X154008666Y-83364311D02*
X154008666Y-82940978D01*
X154008666Y-83061930D02*
X154038904Y-83001454D01*
X154069142Y-82971216D01*
X154129619Y-82940978D01*
X154190095Y-82940978D01*
X155067000Y-83606216D02*
X155036761Y-83575978D01*
X154976285Y-83485264D01*
X154946047Y-83424788D01*
X154915809Y-83334073D01*
X154885571Y-83182883D01*
X154885571Y-83061930D01*
X154915809Y-82910740D01*
X154946047Y-82820026D01*
X154976285Y-82759550D01*
X155036761Y-82668835D01*
X155067000Y-82638597D01*
X155308904Y-83364311D02*
X155308904Y-82729311D01*
X155581047Y-83364311D02*
X155581047Y-83031692D01*
X155550809Y-82971216D01*
X155490333Y-82940978D01*
X155399619Y-82940978D01*
X155339142Y-82971216D01*
X155308904Y-83001454D01*
X155792714Y-82940978D02*
X156034619Y-82940978D01*
X155883428Y-82729311D02*
X155883428Y-83273597D01*
X155913666Y-83334073D01*
X155974142Y-83364311D01*
X156034619Y-83364311D01*
X156155571Y-82940978D02*
X156397476Y-82940978D01*
X156246285Y-82729311D02*
X156246285Y-83273597D01*
X156276523Y-83334073D01*
X156337000Y-83364311D01*
X156397476Y-83364311D01*
X156609142Y-82940978D02*
X156609142Y-83575978D01*
X156609142Y-82971216D02*
X156669619Y-82940978D01*
X156790571Y-82940978D01*
X156851047Y-82971216D01*
X156881285Y-83001454D01*
X156911523Y-83061930D01*
X156911523Y-83243359D01*
X156881285Y-83303835D01*
X156851047Y-83334073D01*
X156790571Y-83364311D01*
X156669619Y-83364311D01*
X156609142Y-83334073D01*
X157153428Y-83334073D02*
X157213904Y-83364311D01*
X157334857Y-83364311D01*
X157395333Y-83334073D01*
X157425571Y-83273597D01*
X157425571Y-83243359D01*
X157395333Y-83182883D01*
X157334857Y-83152645D01*
X157244142Y-83152645D01*
X157183666Y-83122407D01*
X157153428Y-83061930D01*
X157153428Y-83031692D01*
X157183666Y-82971216D01*
X157244142Y-82940978D01*
X157334857Y-82940978D01*
X157395333Y-82971216D01*
X157697714Y-83303835D02*
X157727952Y-83334073D01*
X157697714Y-83364311D01*
X157667476Y-83334073D01*
X157697714Y-83303835D01*
X157697714Y-83364311D01*
X157697714Y-82971216D02*
X157727952Y-83001454D01*
X157697714Y-83031692D01*
X157667476Y-83001454D01*
X157697714Y-82971216D01*
X157697714Y-83031692D01*
X158453666Y-82699073D02*
X157909380Y-83515502D01*
X159118904Y-82699073D02*
X158574619Y-83515502D01*
X159572476Y-83334073D02*
X159512000Y-83364311D01*
X159391047Y-83364311D01*
X159330571Y-83334073D01*
X159300333Y-83273597D01*
X159300333Y-83031692D01*
X159330571Y-82971216D01*
X159391047Y-82940978D01*
X159512000Y-82940978D01*
X159572476Y-82971216D01*
X159602714Y-83031692D01*
X159602714Y-83092169D01*
X159300333Y-83152645D01*
X160147000Y-83364311D02*
X160147000Y-83031692D01*
X160116761Y-82971216D01*
X160056285Y-82940978D01*
X159935333Y-82940978D01*
X159874857Y-82971216D01*
X160147000Y-83334073D02*
X160086523Y-83364311D01*
X159935333Y-83364311D01*
X159874857Y-83334073D01*
X159844619Y-83273597D01*
X159844619Y-83213121D01*
X159874857Y-83152645D01*
X159935333Y-83122407D01*
X160086523Y-83122407D01*
X160147000Y-83092169D01*
X160358666Y-82940978D02*
X160600571Y-82940978D01*
X160449380Y-82729311D02*
X160449380Y-83273597D01*
X160479619Y-83334073D01*
X160540095Y-83364311D01*
X160600571Y-83364311D01*
X161054142Y-83334073D02*
X160993666Y-83364311D01*
X160872714Y-83364311D01*
X160812238Y-83334073D01*
X160782000Y-83273597D01*
X160782000Y-83031692D01*
X160812238Y-82971216D01*
X160872714Y-82940978D01*
X160993666Y-82940978D01*
X161054142Y-82971216D01*
X161084380Y-83031692D01*
X161084380Y-83092169D01*
X160782000Y-83152645D01*
X161356523Y-83364311D02*
X161356523Y-82940978D01*
X161356523Y-83061930D02*
X161386761Y-83001454D01*
X161417000Y-82971216D01*
X161477476Y-82940978D01*
X161537952Y-82940978D01*
X161749619Y-83303835D02*
X161779857Y-83334073D01*
X161749619Y-83364311D01*
X161719380Y-83334073D01*
X161749619Y-83303835D01*
X161749619Y-83364311D01*
X162052000Y-82940978D02*
X162052000Y-83364311D01*
X162052000Y-83001454D02*
X162082238Y-82971216D01*
X162142714Y-82940978D01*
X162233428Y-82940978D01*
X162293904Y-82971216D01*
X162324142Y-83031692D01*
X162324142Y-83364311D01*
X162868428Y-83334073D02*
X162807952Y-83364311D01*
X162687000Y-83364311D01*
X162626523Y-83334073D01*
X162596285Y-83273597D01*
X162596285Y-83031692D01*
X162626523Y-82971216D01*
X162687000Y-82940978D01*
X162807952Y-82940978D01*
X162868428Y-82971216D01*
X162898666Y-83031692D01*
X162898666Y-83092169D01*
X162596285Y-83152645D01*
X163080095Y-82940978D02*
X163322000Y-82940978D01*
X163170809Y-82729311D02*
X163170809Y-83273597D01*
X163201047Y-83334073D01*
X163261523Y-83364311D01*
X163322000Y-83364311D01*
X163987238Y-82699073D02*
X163442952Y-83515502D01*
X164289619Y-83001454D02*
X164229142Y-82971216D01*
X164198904Y-82940978D01*
X164168666Y-82880502D01*
X164168666Y-82850264D01*
X164198904Y-82789788D01*
X164229142Y-82759550D01*
X164289619Y-82729311D01*
X164410571Y-82729311D01*
X164471047Y-82759550D01*
X164501285Y-82789788D01*
X164531523Y-82850264D01*
X164531523Y-82880502D01*
X164501285Y-82940978D01*
X164471047Y-82971216D01*
X164410571Y-83001454D01*
X164289619Y-83001454D01*
X164229142Y-83031692D01*
X164198904Y-83061930D01*
X164168666Y-83122407D01*
X164168666Y-83243359D01*
X164198904Y-83303835D01*
X164229142Y-83334073D01*
X164289619Y-83364311D01*
X164410571Y-83364311D01*
X164471047Y-83334073D01*
X164501285Y-83303835D01*
X164531523Y-83243359D01*
X164531523Y-83122407D01*
X164501285Y-83061930D01*
X164471047Y-83031692D01*
X164410571Y-83001454D01*
X164803666Y-83364311D02*
X164803666Y-82729311D01*
X164803666Y-82971216D02*
X164864142Y-82940978D01*
X164985095Y-82940978D01*
X165045571Y-82971216D01*
X165075809Y-83001454D01*
X165106047Y-83061930D01*
X165106047Y-83243359D01*
X165075809Y-83303835D01*
X165045571Y-83334073D01*
X164985095Y-83364311D01*
X164864142Y-83364311D01*
X164803666Y-83334073D01*
X165378190Y-83364311D02*
X165378190Y-82940978D01*
X165378190Y-82729311D02*
X165347952Y-82759550D01*
X165378190Y-82789788D01*
X165408428Y-82759550D01*
X165378190Y-82729311D01*
X165378190Y-82789788D01*
X165589857Y-82940978D02*
X165831761Y-82940978D01*
X165680571Y-82729311D02*
X165680571Y-83273597D01*
X165710809Y-83334073D01*
X165771285Y-83364311D01*
X165831761Y-83364311D01*
X165982952Y-83606216D02*
X166013190Y-83575978D01*
X166073666Y-83485264D01*
X166103904Y-83424788D01*
X166134142Y-83334073D01*
X166164380Y-83182883D01*
X166164380Y-83061930D01*
X166134142Y-82910740D01*
X166103904Y-82820026D01*
X166073666Y-82759550D01*
X166013190Y-82668835D01*
X165982952Y-82638597D01*
D11*
X132134428Y-81035071D02*
X132134428Y-79892071D01*
X132406571Y-79892071D01*
X132569857Y-79946500D01*
X132678714Y-80055357D01*
X132733142Y-80164214D01*
X132787571Y-80381928D01*
X132787571Y-80545214D01*
X132733142Y-80762928D01*
X132678714Y-80871785D01*
X132569857Y-80980642D01*
X132406571Y-81035071D01*
X132134428Y-81035071D01*
X133277428Y-81035071D02*
X133277428Y-79892071D01*
X134039428Y-80490785D02*
X134039428Y-81035071D01*
X133658428Y-79892071D02*
X134039428Y-80490785D01*
X134420428Y-79892071D01*
X135835571Y-80381928D02*
X135726714Y-80327500D01*
X135672285Y-80273071D01*
X135617857Y-80164214D01*
X135617857Y-80109785D01*
X135672285Y-80000928D01*
X135726714Y-79946500D01*
X135835571Y-79892071D01*
X136053285Y-79892071D01*
X136162142Y-79946500D01*
X136216571Y-80000928D01*
X136271000Y-80109785D01*
X136271000Y-80164214D01*
X136216571Y-80273071D01*
X136162142Y-80327500D01*
X136053285Y-80381928D01*
X135835571Y-80381928D01*
X135726714Y-80436357D01*
X135672285Y-80490785D01*
X135617857Y-80599642D01*
X135617857Y-80817357D01*
X135672285Y-80926214D01*
X135726714Y-80980642D01*
X135835571Y-81035071D01*
X136053285Y-81035071D01*
X136162142Y-80980642D01*
X136216571Y-80926214D01*
X136271000Y-80817357D01*
X136271000Y-80599642D01*
X136216571Y-80490785D01*
X136162142Y-80436357D01*
X136053285Y-80381928D01*
X136760857Y-80599642D02*
X137631714Y-80599642D01*
X138557000Y-80436357D02*
X138720285Y-80490785D01*
X138774714Y-80545214D01*
X138829142Y-80654071D01*
X138829142Y-80817357D01*
X138774714Y-80926214D01*
X138720285Y-80980642D01*
X138611428Y-81035071D01*
X138176000Y-81035071D01*
X138176000Y-79892071D01*
X138557000Y-79892071D01*
X138665857Y-79946500D01*
X138720285Y-80000928D01*
X138774714Y-80109785D01*
X138774714Y-80218642D01*
X138720285Y-80327500D01*
X138665857Y-80381928D01*
X138557000Y-80436357D01*
X138176000Y-80436357D01*
X139319000Y-81035071D02*
X139319000Y-80273071D01*
X139319000Y-79892071D02*
X139264571Y-79946500D01*
X139319000Y-80000928D01*
X139373428Y-79946500D01*
X139319000Y-79892071D01*
X139319000Y-80000928D01*
X139700000Y-80273071D02*
X140135428Y-80273071D01*
X139863285Y-79892071D02*
X139863285Y-80871785D01*
X139917714Y-80980642D01*
X140026571Y-81035071D01*
X140135428Y-81035071D01*
X142040428Y-80926214D02*
X141986000Y-80980642D01*
X141822714Y-81035071D01*
X141713857Y-81035071D01*
X141550571Y-80980642D01*
X141441714Y-80871785D01*
X141387285Y-80762928D01*
X141332857Y-80545214D01*
X141332857Y-80381928D01*
X141387285Y-80164214D01*
X141441714Y-80055357D01*
X141550571Y-79946500D01*
X141713857Y-79892071D01*
X141822714Y-79892071D01*
X141986000Y-79946500D01*
X142040428Y-80000928D01*
X142693571Y-81035071D02*
X142584714Y-80980642D01*
X142530285Y-80926214D01*
X142475857Y-80817357D01*
X142475857Y-80490785D01*
X142530285Y-80381928D01*
X142584714Y-80327500D01*
X142693571Y-80273071D01*
X142856857Y-80273071D01*
X142965714Y-80327500D01*
X143020142Y-80381928D01*
X143074571Y-80490785D01*
X143074571Y-80817357D01*
X143020142Y-80926214D01*
X142965714Y-80980642D01*
X142856857Y-81035071D01*
X142693571Y-81035071D01*
X143564428Y-81035071D02*
X143564428Y-80273071D01*
X143564428Y-80381928D02*
X143618857Y-80327500D01*
X143727714Y-80273071D01*
X143891000Y-80273071D01*
X143999857Y-80327500D01*
X144054285Y-80436357D01*
X144054285Y-81035071D01*
X144054285Y-80436357D02*
X144108714Y-80327500D01*
X144217571Y-80273071D01*
X144380857Y-80273071D01*
X144489714Y-80327500D01*
X144544142Y-80436357D01*
X144544142Y-81035071D01*
X145088428Y-80273071D02*
X145088428Y-81416071D01*
X145088428Y-80327500D02*
X145197285Y-80273071D01*
X145415000Y-80273071D01*
X145523857Y-80327500D01*
X145578285Y-80381928D01*
X145632714Y-80490785D01*
X145632714Y-80817357D01*
X145578285Y-80926214D01*
X145523857Y-80980642D01*
X145415000Y-81035071D01*
X145197285Y-81035071D01*
X145088428Y-80980642D01*
X146612428Y-80273071D02*
X146612428Y-81035071D01*
X146122571Y-80273071D02*
X146122571Y-80871785D01*
X146177000Y-80980642D01*
X146285857Y-81035071D01*
X146449142Y-81035071D01*
X146558000Y-80980642D01*
X146612428Y-80926214D01*
X146993428Y-80273071D02*
X147428857Y-80273071D01*
X147156714Y-79892071D02*
X147156714Y-80871785D01*
X147211142Y-80980642D01*
X147320000Y-81035071D01*
X147428857Y-81035071D01*
X148245285Y-80980642D02*
X148136428Y-81035071D01*
X147918714Y-81035071D01*
X147809857Y-80980642D01*
X147755428Y-80871785D01*
X147755428Y-80436357D01*
X147809857Y-80327500D01*
X147918714Y-80273071D01*
X148136428Y-80273071D01*
X148245285Y-80327500D01*
X148299714Y-80436357D01*
X148299714Y-80545214D01*
X147755428Y-80654071D01*
X148789571Y-81035071D02*
X148789571Y-80273071D01*
X148789571Y-80490785D02*
X148844000Y-80381928D01*
X148898428Y-80327500D01*
X149007285Y-80273071D01*
X149116142Y-80273071D01*
X150368000Y-80599642D02*
X151238857Y-80599642D01*
X152871714Y-79892071D02*
X153089428Y-79892071D01*
X153198285Y-79946500D01*
X153307142Y-80055357D01*
X153361571Y-80273071D01*
X153361571Y-80654071D01*
X153307142Y-80871785D01*
X153198285Y-80980642D01*
X153089428Y-81035071D01*
X152871714Y-81035071D01*
X152762857Y-80980642D01*
X152654000Y-80871785D01*
X152599571Y-80654071D01*
X152599571Y-80273071D01*
X152654000Y-80055357D01*
X152762857Y-79946500D01*
X152871714Y-79892071D01*
X154341285Y-80273071D02*
X154341285Y-81035071D01*
X153851428Y-80273071D02*
X153851428Y-80871785D01*
X153905857Y-80980642D01*
X154014714Y-81035071D01*
X154178000Y-81035071D01*
X154286857Y-80980642D01*
X154341285Y-80926214D01*
X154722285Y-80273071D02*
X155157714Y-80273071D01*
X154885571Y-79892071D02*
X154885571Y-80871785D01*
X154940000Y-80980642D01*
X155048857Y-81035071D01*
X155157714Y-81035071D01*
X155538714Y-80273071D02*
X155538714Y-81416071D01*
X155538714Y-80327500D02*
X155647571Y-80273071D01*
X155865285Y-80273071D01*
X155974142Y-80327500D01*
X156028571Y-80381928D01*
X156083000Y-80490785D01*
X156083000Y-80817357D01*
X156028571Y-80926214D01*
X155974142Y-80980642D01*
X155865285Y-81035071D01*
X155647571Y-81035071D01*
X155538714Y-80980642D01*
X157062714Y-80273071D02*
X157062714Y-81035071D01*
X156572857Y-80273071D02*
X156572857Y-80871785D01*
X156627285Y-80980642D01*
X156736142Y-81035071D01*
X156899428Y-81035071D01*
X157008285Y-80980642D01*
X157062714Y-80926214D01*
X157443714Y-80273071D02*
X157879142Y-80273071D01*
X157607000Y-79892071D02*
X157607000Y-80871785D01*
X157661428Y-80980642D01*
X157770285Y-81035071D01*
X157879142Y-81035071D01*
X159784142Y-81035071D02*
X159403142Y-80490785D01*
X159131000Y-81035071D02*
X159131000Y-79892071D01*
X159566428Y-79892071D01*
X159675285Y-79946500D01*
X159729714Y-80000928D01*
X159784142Y-80109785D01*
X159784142Y-80273071D01*
X159729714Y-80381928D01*
X159675285Y-80436357D01*
X159566428Y-80490785D01*
X159131000Y-80490785D01*
X160709428Y-80980642D02*
X160600571Y-81035071D01*
X160382857Y-81035071D01*
X160274000Y-80980642D01*
X160219571Y-80871785D01*
X160219571Y-80436357D01*
X160274000Y-80327500D01*
X160382857Y-80273071D01*
X160600571Y-80273071D01*
X160709428Y-80327500D01*
X160763857Y-80436357D01*
X160763857Y-80545214D01*
X160219571Y-80654071D01*
X161743571Y-80273071D02*
X161743571Y-81198357D01*
X161689142Y-81307214D01*
X161634714Y-81361642D01*
X161525857Y-81416071D01*
X161362571Y-81416071D01*
X161253714Y-81361642D01*
X161743571Y-80980642D02*
X161634714Y-81035071D01*
X161417000Y-81035071D01*
X161308142Y-80980642D01*
X161253714Y-80926214D01*
X161199285Y-80817357D01*
X161199285Y-80490785D01*
X161253714Y-80381928D01*
X161308142Y-80327500D01*
X161417000Y-80273071D01*
X161634714Y-80273071D01*
X161743571Y-80327500D01*
X162287857Y-81035071D02*
X162287857Y-80273071D01*
X162287857Y-79892071D02*
X162233428Y-79946500D01*
X162287857Y-80000928D01*
X162342285Y-79946500D01*
X162287857Y-79892071D01*
X162287857Y-80000928D01*
X162777714Y-80980642D02*
X162886571Y-81035071D01*
X163104285Y-81035071D01*
X163213142Y-80980642D01*
X163267571Y-80871785D01*
X163267571Y-80817357D01*
X163213142Y-80708500D01*
X163104285Y-80654071D01*
X162941000Y-80654071D01*
X162832142Y-80599642D01*
X162777714Y-80490785D01*
X162777714Y-80436357D01*
X162832142Y-80327500D01*
X162941000Y-80273071D01*
X163104285Y-80273071D01*
X163213142Y-80327500D01*
X163594142Y-80273071D02*
X164029571Y-80273071D01*
X163757428Y-79892071D02*
X163757428Y-80871785D01*
X163811857Y-80980642D01*
X163920714Y-81035071D01*
X164029571Y-81035071D01*
X164846000Y-80980642D02*
X164737142Y-81035071D01*
X164519428Y-81035071D01*
X164410571Y-80980642D01*
X164356142Y-80871785D01*
X164356142Y-80436357D01*
X164410571Y-80327500D01*
X164519428Y-80273071D01*
X164737142Y-80273071D01*
X164846000Y-80327500D01*
X164900428Y-80436357D01*
X164900428Y-80545214D01*
X164356142Y-80654071D01*
X165390285Y-81035071D02*
X165390285Y-80273071D01*
X165390285Y-80490785D02*
X165444714Y-80381928D01*
X165499142Y-80327500D01*
X165608000Y-80273071D01*
X165716857Y-80273071D01*
D13*
X171942000Y-82998000D02*
G75*
G02X169942000Y-82998000I-1000000J0D01*
G01*
X169942000Y-82998000D02*
X168292000Y-82998000D01*
X168292000Y-82998000D02*
X168292000Y-100898000D01*
X168292000Y-100898000D02*
X173592000Y-100898000D01*
X173592000Y-100898000D02*
X173592000Y-82998000D01*
X173592000Y-82998000D02*
X171942000Y-82998000D01*
X165802000Y-82938000D02*
X165802000Y-100958000D01*
X165802000Y-100958000D02*
X176082000Y-100958000D01*
X176082000Y-100958000D02*
X176082000Y-82938000D01*
X176082000Y-82938000D02*
X165802000Y-82938000D01*
D14*
X178912017Y-131318000D02*
G75*
G03X178912017Y-131318000I-2890017J0D01*
G01*
X178912017Y-66548000D02*
G75*
G03X178912017Y-66548000I-2890017J0D01*
G01*
X116682017Y-131318000D02*
G75*
G03X116682017Y-131318000I-2890017J0D01*
G01*
X116682017Y-66548000D02*
G75*
G03X116682017Y-66548000I-2890017J0D01*
G01*
D13*
X137273000Y-118268000D02*
X138531000Y-118268000D01*
X137273000Y-116428000D02*
X138531000Y-116428000D01*
X142353000Y-116428000D02*
X143611000Y-116428000D01*
X142353000Y-118268000D02*
X143611000Y-118268000D01*
X155053000Y-122778000D02*
X156311000Y-122778000D01*
X155053000Y-124618000D02*
X156311000Y-124618000D01*
X155053000Y-122078000D02*
X156311000Y-122078000D01*
X155053000Y-120238000D02*
X156311000Y-120238000D01*
X120552000Y-130188000D02*
X120272000Y-130188000D01*
X120272000Y-130188000D02*
X120272000Y-128588000D01*
X120272000Y-128588000D02*
X119352000Y-128588000D01*
X119352000Y-128588000D02*
X119352000Y-136408000D01*
X119352000Y-136408000D02*
X137472000Y-136408000D01*
X137472000Y-136408000D02*
X137472000Y-128588000D01*
X137472000Y-128588000D02*
X136552000Y-128588000D01*
X136552000Y-128588000D02*
X136552000Y-130188000D01*
X136552000Y-130188000D02*
X136272000Y-130188000D01*
X121912000Y-136408000D02*
X121912000Y-132048000D01*
X121912000Y-132048000D02*
X134912000Y-132048000D01*
X134912000Y-132048000D02*
X134912000Y-136408000D01*
X119352000Y-130188000D02*
X120272000Y-130188000D01*
X137472000Y-130188000D02*
X136552000Y-130188000D01*
X120112000Y-132548000D02*
X120112000Y-134148000D01*
X120112000Y-134148000D02*
X121112000Y-134148000D01*
X121112000Y-134148000D02*
X121112000Y-132548000D01*
X121112000Y-132548000D02*
X120112000Y-132548000D01*
X136712000Y-132548000D02*
X136712000Y-134148000D01*
X136712000Y-134148000D02*
X135712000Y-134148000D01*
X135712000Y-134148000D02*
X135712000Y-132548000D01*
X135712000Y-132548000D02*
X136712000Y-132548000D01*
X121112000Y-134148000D02*
X121112000Y-136408000D01*
X120612000Y-134148000D02*
X120612000Y-136408000D01*
X120552000Y-130188000D02*
X120552000Y-128973000D01*
X153572000Y-130188000D02*
X153292000Y-130188000D01*
X153292000Y-130188000D02*
X153292000Y-128588000D01*
X153292000Y-128588000D02*
X152372000Y-128588000D01*
X152372000Y-128588000D02*
X152372000Y-136408000D01*
X152372000Y-136408000D02*
X158492000Y-136408000D01*
X158492000Y-136408000D02*
X158492000Y-128588000D01*
X158492000Y-128588000D02*
X157572000Y-128588000D01*
X157572000Y-128588000D02*
X157572000Y-130188000D01*
X157572000Y-130188000D02*
X157292000Y-130188000D01*
X154932000Y-136408000D02*
X154932000Y-132048000D01*
X154932000Y-132048000D02*
X155932000Y-132048000D01*
X155932000Y-132048000D02*
X155932000Y-136408000D01*
X152372000Y-130188000D02*
X153292000Y-130188000D01*
X158492000Y-130188000D02*
X157572000Y-130188000D01*
X153132000Y-132548000D02*
X153132000Y-134148000D01*
X153132000Y-134148000D02*
X154132000Y-134148000D01*
X154132000Y-134148000D02*
X154132000Y-132548000D01*
X154132000Y-132548000D02*
X153132000Y-132548000D01*
X157732000Y-132548000D02*
X157732000Y-134148000D01*
X157732000Y-134148000D02*
X156732000Y-134148000D01*
X156732000Y-134148000D02*
X156732000Y-132548000D01*
X156732000Y-132548000D02*
X157732000Y-132548000D01*
X154132000Y-134148000D02*
X154132000Y-136408000D01*
X153632000Y-134148000D02*
X153632000Y-136408000D01*
X153572000Y-130188000D02*
X153572000Y-128973000D01*
X142142000Y-130188000D02*
X141862000Y-130188000D01*
X141862000Y-130188000D02*
X141862000Y-128588000D01*
X141862000Y-128588000D02*
X140942000Y-128588000D01*
X140942000Y-128588000D02*
X140942000Y-136408000D01*
X140942000Y-136408000D02*
X149062000Y-136408000D01*
X149062000Y-136408000D02*
X149062000Y-128588000D01*
X149062000Y-128588000D02*
X148142000Y-128588000D01*
X148142000Y-128588000D02*
X148142000Y-130188000D01*
X148142000Y-130188000D02*
X147862000Y-130188000D01*
X143502000Y-136408000D02*
X143502000Y-132048000D01*
X143502000Y-132048000D02*
X146502000Y-132048000D01*
X146502000Y-132048000D02*
X146502000Y-136408000D01*
X140942000Y-130188000D02*
X141862000Y-130188000D01*
X149062000Y-130188000D02*
X148142000Y-130188000D01*
X141702000Y-132548000D02*
X141702000Y-134148000D01*
X141702000Y-134148000D02*
X142702000Y-134148000D01*
X142702000Y-134148000D02*
X142702000Y-132548000D01*
X142702000Y-132548000D02*
X141702000Y-132548000D01*
X148302000Y-132548000D02*
X148302000Y-134148000D01*
X148302000Y-134148000D02*
X147302000Y-134148000D01*
X147302000Y-134148000D02*
X147302000Y-132548000D01*
X147302000Y-132548000D02*
X148302000Y-132548000D01*
X142702000Y-134148000D02*
X142702000Y-136408000D01*
X142202000Y-134148000D02*
X142202000Y-136408000D01*
X142142000Y-130188000D02*
X142142000Y-128973000D01*
X121270000Y-80868000D02*
X125110000Y-80868000D01*
X121270000Y-82708000D02*
X125110000Y-82708000D01*
X142382000Y-122078000D02*
X138542000Y-122078000D01*
X142382000Y-120238000D02*
X138542000Y-120238000D01*
X138542000Y-124618000D02*
X142382000Y-124618000D01*
X138542000Y-122778000D02*
X142382000Y-122778000D01*
X119882000Y-65488000D02*
X133482000Y-65488000D01*
X133482000Y-77688000D02*
X133482000Y-65488000D01*
X133482000Y-77688000D02*
X119882000Y-77688000D01*
X119882000Y-65488000D02*
X119882000Y-77688000D01*
X112202000Y-91506000D02*
X112202000Y-93406000D01*
X112202000Y-93406000D02*
X110302000Y-93406000D01*
X110302000Y-93406000D02*
X110302000Y-91506000D01*
X110302000Y-91506000D02*
X112202000Y-91506000D01*
X110302000Y-88712000D02*
X112202000Y-88712000D01*
X110302000Y-90612000D02*
X110302000Y-88712000D01*
X112202000Y-90612000D02*
X110302000Y-90612000D01*
X112202000Y-88712000D02*
X112202000Y-90612000D01*
X110302000Y-85918000D02*
X112202000Y-85918000D01*
X110302000Y-87818000D02*
X110302000Y-85918000D01*
X112202000Y-87818000D02*
X110302000Y-87818000D01*
X112202000Y-85918000D02*
X112202000Y-87818000D01*
X112202000Y-83124000D02*
X112202000Y-85024000D01*
X112202000Y-85024000D02*
X110302000Y-85024000D01*
X110302000Y-85024000D02*
X110302000Y-83124000D01*
X110302000Y-83124000D02*
X112202000Y-83124000D01*
X112202000Y-80330000D02*
X112202000Y-82230000D01*
X112202000Y-82230000D02*
X110302000Y-82230000D01*
X110302000Y-82230000D02*
X110302000Y-80330000D01*
X110302000Y-80330000D02*
X112202000Y-80330000D01*
X110302000Y-77536000D02*
X112202000Y-77536000D01*
X110302000Y-79436000D02*
X110302000Y-77536000D01*
X112202000Y-79436000D02*
X110302000Y-79436000D01*
X112202000Y-77536000D02*
X112202000Y-79436000D01*
X112202000Y-74742000D02*
X112202000Y-76642000D01*
X112202000Y-76642000D02*
X110302000Y-76642000D01*
X110302000Y-76642000D02*
X110302000Y-74742000D01*
X110302000Y-74742000D02*
X112202000Y-74742000D01*
X110302000Y-71948000D02*
X112202000Y-71948000D01*
X110302000Y-73848000D02*
X110302000Y-71948000D01*
X112202000Y-73848000D02*
X110302000Y-73848000D01*
X112202000Y-71948000D02*
X112202000Y-73848000D01*
X110302000Y-95824000D02*
X112202000Y-95824000D01*
X110302000Y-97724000D02*
X110302000Y-95824000D01*
X112202000Y-97724000D02*
X110302000Y-97724000D01*
X112202000Y-95824000D02*
X112202000Y-97724000D01*
X112202000Y-98618000D02*
X112202000Y-100518000D01*
X112202000Y-100518000D02*
X110302000Y-100518000D01*
X110302000Y-100518000D02*
X110302000Y-98618000D01*
X110302000Y-98618000D02*
X112202000Y-98618000D01*
X126222000Y-86808000D02*
G75*
G02X124222000Y-86808000I-1000000J0D01*
G01*
X124222000Y-86808000D02*
X122572000Y-86808000D01*
X122572000Y-86808000D02*
X122572000Y-97088000D01*
X122572000Y-97088000D02*
X127872000Y-97088000D01*
X127872000Y-97088000D02*
X127872000Y-86808000D01*
X127872000Y-86808000D02*
X126222000Y-86808000D01*
X120082000Y-86748000D02*
X120082000Y-97148000D01*
X120082000Y-97148000D02*
X130362000Y-97148000D01*
X130362000Y-97148000D02*
X130362000Y-86748000D01*
X130362000Y-86748000D02*
X120082000Y-86748000D01*
X141462000Y-86808000D02*
G75*
G02X139462000Y-86808000I-1000000J0D01*
G01*
X139462000Y-86808000D02*
X137812000Y-86808000D01*
X137812000Y-86808000D02*
X137812000Y-112328000D01*
X137812000Y-112328000D02*
X143112000Y-112328000D01*
X143112000Y-112328000D02*
X143112000Y-86808000D01*
X143112000Y-86808000D02*
X141462000Y-86808000D01*
X135322000Y-86748000D02*
X135322000Y-112388000D01*
X135322000Y-112388000D02*
X145602000Y-112388000D01*
X145602000Y-112388000D02*
X145602000Y-86748000D01*
X145602000Y-86748000D02*
X135322000Y-86748000D01*
X130362000Y-101988000D02*
X120082000Y-101988000D01*
X130362000Y-122548000D02*
X130362000Y-101988000D01*
X120082000Y-122548000D02*
X130362000Y-122548000D01*
X120082000Y-101988000D02*
X120082000Y-122548000D01*
X127872000Y-102048000D02*
X126222000Y-102048000D01*
X127872000Y-122488000D02*
X127872000Y-102048000D01*
X122572000Y-122488000D02*
X127872000Y-122488000D01*
X122572000Y-102048000D02*
X122572000Y-122488000D01*
X124222000Y-102048000D02*
X122572000Y-102048000D01*
X126222000Y-102048000D02*
G75*
G02X124222000Y-102048000I-1000000J0D01*
G01*
X156702000Y-86808000D02*
G75*
G02X154702000Y-86808000I-1000000J0D01*
G01*
X154702000Y-86808000D02*
X153052000Y-86808000D01*
X153052000Y-86808000D02*
X153052000Y-117408000D01*
X153052000Y-117408000D02*
X158352000Y-117408000D01*
X158352000Y-117408000D02*
X158352000Y-86808000D01*
X158352000Y-86808000D02*
X156702000Y-86808000D01*
X150562000Y-86748000D02*
X150562000Y-117468000D01*
X150562000Y-117468000D02*
X160842000Y-117468000D01*
X160842000Y-117468000D02*
X160842000Y-86748000D01*
X160842000Y-86748000D02*
X150562000Y-86748000D01*
X171942000Y-104588000D02*
G75*
G02X169942000Y-104588000I-1000000J0D01*
G01*
X169942000Y-104588000D02*
X168292000Y-104588000D01*
X168292000Y-104588000D02*
X168292000Y-125028000D01*
X168292000Y-125028000D02*
X173592000Y-125028000D01*
X173592000Y-125028000D02*
X173592000Y-104588000D01*
X173592000Y-104588000D02*
X171942000Y-104588000D01*
X165802000Y-104528000D02*
X165802000Y-125088000D01*
X165802000Y-125088000D02*
X176082000Y-125088000D01*
X176082000Y-125088000D02*
X176082000Y-104528000D01*
X176082000Y-104528000D02*
X165802000Y-104528000D01*
X135022000Y-64918000D02*
X136652000Y-64918000D01*
X135022000Y-66548000D02*
X135022000Y-64918000D01*
D10*
X143002000Y-65278000D02*
X135382000Y-65278000D01*
X135382000Y-65278000D02*
X135382000Y-77978000D01*
X135382000Y-77978000D02*
X143002000Y-77978000D01*
X143002000Y-77978000D02*
X143002000Y-65278000D01*
X151892000Y-77978000D02*
X151892000Y-65278000D01*
X144272000Y-77978000D02*
X151892000Y-77978000D01*
X144272000Y-65278000D02*
X144272000Y-77978000D01*
X151892000Y-65278000D02*
X144272000Y-65278000D01*
D13*
X143912000Y-66548000D02*
X143912000Y-64918000D01*
X143912000Y-64918000D02*
X145542000Y-64918000D01*
X152802000Y-64918000D02*
X154432000Y-64918000D01*
X152802000Y-66548000D02*
X152802000Y-64918000D01*
D10*
X160782000Y-65278000D02*
X153162000Y-65278000D01*
X153162000Y-65278000D02*
X153162000Y-77978000D01*
X153162000Y-77978000D02*
X160782000Y-77978000D01*
X160782000Y-77978000D02*
X160782000Y-65278000D01*
X169672000Y-77978000D02*
X169672000Y-65278000D01*
X162052000Y-77978000D02*
X169672000Y-77978000D01*
X162052000Y-65278000D02*
X162052000Y-77978000D01*
X169672000Y-65278000D02*
X162052000Y-65278000D01*
D13*
X161692000Y-66548000D02*
X161692000Y-64918000D01*
X161692000Y-64918000D02*
X163322000Y-64918000D01*
D10*
X170180095Y-81450380D02*
X170180095Y-82259904D01*
X170227714Y-82355142D01*
X170275333Y-82402761D01*
X170370571Y-82450380D01*
X170561047Y-82450380D01*
X170656285Y-82402761D01*
X170703904Y-82355142D01*
X170751523Y-82259904D01*
X170751523Y-81450380D01*
X171751523Y-82450380D02*
X171180095Y-82450380D01*
X171465809Y-82450380D02*
X171465809Y-81450380D01*
X171370571Y-81593238D01*
X171275333Y-81688476D01*
X171180095Y-81736095D01*
X137735333Y-115655142D02*
X137687714Y-115702761D01*
X137544857Y-115750380D01*
X137449619Y-115750380D01*
X137306761Y-115702761D01*
X137211523Y-115607523D01*
X137163904Y-115512285D01*
X137116285Y-115321809D01*
X137116285Y-115178952D01*
X137163904Y-114988476D01*
X137211523Y-114893238D01*
X137306761Y-114798000D01*
X137449619Y-114750380D01*
X137544857Y-114750380D01*
X137687714Y-114798000D01*
X137735333Y-114845619D01*
X138687714Y-115750380D02*
X138116285Y-115750380D01*
X138402000Y-115750380D02*
X138402000Y-114750380D01*
X138306761Y-114893238D01*
X138211523Y-114988476D01*
X138116285Y-115036095D01*
X142815333Y-115655142D02*
X142767714Y-115702761D01*
X142624857Y-115750380D01*
X142529619Y-115750380D01*
X142386761Y-115702761D01*
X142291523Y-115607523D01*
X142243904Y-115512285D01*
X142196285Y-115321809D01*
X142196285Y-115178952D01*
X142243904Y-114988476D01*
X142291523Y-114893238D01*
X142386761Y-114798000D01*
X142529619Y-114750380D01*
X142624857Y-114750380D01*
X142767714Y-114798000D01*
X142815333Y-114845619D01*
X143196285Y-114845619D02*
X143243904Y-114798000D01*
X143339142Y-114750380D01*
X143577238Y-114750380D01*
X143672476Y-114798000D01*
X143720095Y-114845619D01*
X143767714Y-114940857D01*
X143767714Y-115036095D01*
X143720095Y-115178952D01*
X143148666Y-115750380D01*
X143767714Y-115750380D01*
X155515333Y-122005142D02*
X155467714Y-122052761D01*
X155324857Y-122100380D01*
X155229619Y-122100380D01*
X155086761Y-122052761D01*
X154991523Y-121957523D01*
X154943904Y-121862285D01*
X154896285Y-121671809D01*
X154896285Y-121528952D01*
X154943904Y-121338476D01*
X154991523Y-121243238D01*
X155086761Y-121148000D01*
X155229619Y-121100380D01*
X155324857Y-121100380D01*
X155467714Y-121148000D01*
X155515333Y-121195619D01*
X155848666Y-121100380D02*
X156467714Y-121100380D01*
X156134380Y-121481333D01*
X156277238Y-121481333D01*
X156372476Y-121528952D01*
X156420095Y-121576571D01*
X156467714Y-121671809D01*
X156467714Y-121909904D01*
X156420095Y-122005142D01*
X156372476Y-122052761D01*
X156277238Y-122100380D01*
X155991523Y-122100380D01*
X155896285Y-122052761D01*
X155848666Y-122005142D01*
X155515333Y-119465142D02*
X155467714Y-119512761D01*
X155324857Y-119560380D01*
X155229619Y-119560380D01*
X155086761Y-119512761D01*
X154991523Y-119417523D01*
X154943904Y-119322285D01*
X154896285Y-119131809D01*
X154896285Y-118988952D01*
X154943904Y-118798476D01*
X154991523Y-118703238D01*
X155086761Y-118608000D01*
X155229619Y-118560380D01*
X155324857Y-118560380D01*
X155467714Y-118608000D01*
X155515333Y-118655619D01*
X156372476Y-118893714D02*
X156372476Y-119560380D01*
X156134380Y-118512761D02*
X155896285Y-119227047D01*
X156515333Y-119227047D01*
X127626285Y-127182571D02*
X127769142Y-127230190D01*
X127816761Y-127277809D01*
X127864380Y-127373047D01*
X127864380Y-127515904D01*
X127816761Y-127611142D01*
X127769142Y-127658761D01*
X127673904Y-127706380D01*
X127292952Y-127706380D01*
X127292952Y-126706380D01*
X127626285Y-126706380D01*
X127721523Y-126754000D01*
X127769142Y-126801619D01*
X127816761Y-126896857D01*
X127816761Y-126992095D01*
X127769142Y-127087333D01*
X127721523Y-127134952D01*
X127626285Y-127182571D01*
X127292952Y-127182571D01*
X128721523Y-127039714D02*
X128721523Y-127706380D01*
X128292952Y-127039714D02*
X128292952Y-127563523D01*
X128340571Y-127658761D01*
X128435809Y-127706380D01*
X128578666Y-127706380D01*
X128673904Y-127658761D01*
X128721523Y-127611142D01*
X129150095Y-127658761D02*
X129245333Y-127706380D01*
X129435809Y-127706380D01*
X129531047Y-127658761D01*
X129578666Y-127563523D01*
X129578666Y-127515904D01*
X129531047Y-127420666D01*
X129435809Y-127373047D01*
X129292952Y-127373047D01*
X129197714Y-127325428D01*
X129150095Y-127230190D01*
X129150095Y-127182571D01*
X129197714Y-127087333D01*
X129292952Y-127039714D01*
X129435809Y-127039714D01*
X129531047Y-127087333D01*
X153455809Y-127706380D02*
X153455809Y-126706380D01*
X153836761Y-126706380D01*
X153932000Y-126754000D01*
X153979619Y-126801619D01*
X154027238Y-126896857D01*
X154027238Y-127039714D01*
X153979619Y-127134952D01*
X153932000Y-127182571D01*
X153836761Y-127230190D01*
X153455809Y-127230190D01*
X154598666Y-127706380D02*
X154503428Y-127658761D01*
X154455809Y-127611142D01*
X154408190Y-127515904D01*
X154408190Y-127230190D01*
X154455809Y-127134952D01*
X154503428Y-127087333D01*
X154598666Y-127039714D01*
X154741523Y-127039714D01*
X154836761Y-127087333D01*
X154884380Y-127134952D01*
X154932000Y-127230190D01*
X154932000Y-127515904D01*
X154884380Y-127611142D01*
X154836761Y-127658761D01*
X154741523Y-127706380D01*
X154598666Y-127706380D01*
X155265333Y-127039714D02*
X155455809Y-127706380D01*
X155646285Y-127230190D01*
X155836761Y-127706380D01*
X156027238Y-127039714D01*
X156789142Y-127658761D02*
X156693904Y-127706380D01*
X156503428Y-127706380D01*
X156408190Y-127658761D01*
X156360571Y-127563523D01*
X156360571Y-127182571D01*
X156408190Y-127087333D01*
X156503428Y-127039714D01*
X156693904Y-127039714D01*
X156789142Y-127087333D01*
X156836761Y-127182571D01*
X156836761Y-127277809D01*
X156360571Y-127373047D01*
X157265333Y-127706380D02*
X157265333Y-127039714D01*
X157265333Y-127230190D02*
X157312952Y-127134952D01*
X157360571Y-127087333D01*
X157455809Y-127039714D01*
X157551047Y-127039714D01*
X143597238Y-127706380D02*
X143597238Y-126706380D01*
X143930571Y-127420666D01*
X144263904Y-126706380D01*
X144263904Y-127706380D01*
X144740095Y-127706380D02*
X144740095Y-127039714D01*
X144740095Y-126706380D02*
X144692476Y-126754000D01*
X144740095Y-126801619D01*
X144787714Y-126754000D01*
X144740095Y-126706380D01*
X144740095Y-126801619D01*
X145168666Y-127658761D02*
X145263904Y-127706380D01*
X145454380Y-127706380D01*
X145549619Y-127658761D01*
X145597238Y-127563523D01*
X145597238Y-127515904D01*
X145549619Y-127420666D01*
X145454380Y-127373047D01*
X145311523Y-127373047D01*
X145216285Y-127325428D01*
X145168666Y-127230190D01*
X145168666Y-127182571D01*
X145216285Y-127087333D01*
X145311523Y-127039714D01*
X145454380Y-127039714D01*
X145549619Y-127087333D01*
X146454380Y-127658761D02*
X146359142Y-127706380D01*
X146168666Y-127706380D01*
X146073428Y-127658761D01*
X146025809Y-127611142D01*
X145978190Y-127515904D01*
X145978190Y-127230190D01*
X146025809Y-127134952D01*
X146073428Y-127087333D01*
X146168666Y-127039714D01*
X146359142Y-127039714D01*
X146454380Y-127087333D01*
X123023333Y-80320380D02*
X122690000Y-79844190D01*
X122451904Y-80320380D02*
X122451904Y-79320380D01*
X122832857Y-79320380D01*
X122928095Y-79368000D01*
X122975714Y-79415619D01*
X123023333Y-79510857D01*
X123023333Y-79653714D01*
X122975714Y-79748952D01*
X122928095Y-79796571D01*
X122832857Y-79844190D01*
X122451904Y-79844190D01*
X123975714Y-80320380D02*
X123404285Y-80320380D01*
X123690000Y-80320380D02*
X123690000Y-79320380D01*
X123594761Y-79463238D01*
X123499523Y-79558476D01*
X123404285Y-79606095D01*
X135723333Y-121610380D02*
X135390000Y-121134190D01*
X135151904Y-121610380D02*
X135151904Y-120610380D01*
X135532857Y-120610380D01*
X135628095Y-120658000D01*
X135675714Y-120705619D01*
X135723333Y-120800857D01*
X135723333Y-120943714D01*
X135675714Y-121038952D01*
X135628095Y-121086571D01*
X135532857Y-121134190D01*
X135151904Y-121134190D01*
X136104285Y-120705619D02*
X136151904Y-120658000D01*
X136247142Y-120610380D01*
X136485238Y-120610380D01*
X136580476Y-120658000D01*
X136628095Y-120705619D01*
X136675714Y-120800857D01*
X136675714Y-120896095D01*
X136628095Y-121038952D01*
X136056666Y-121610380D01*
X136675714Y-121610380D01*
X135723333Y-124150380D02*
X135390000Y-123674190D01*
X135151904Y-124150380D02*
X135151904Y-123150380D01*
X135532857Y-123150380D01*
X135628095Y-123198000D01*
X135675714Y-123245619D01*
X135723333Y-123340857D01*
X135723333Y-123483714D01*
X135675714Y-123578952D01*
X135628095Y-123626571D01*
X135532857Y-123674190D01*
X135151904Y-123674190D01*
X136056666Y-123150380D02*
X136675714Y-123150380D01*
X136342380Y-123531333D01*
X136485238Y-123531333D01*
X136580476Y-123578952D01*
X136628095Y-123626571D01*
X136675714Y-123721809D01*
X136675714Y-123959904D01*
X136628095Y-124055142D01*
X136580476Y-124102761D01*
X136485238Y-124150380D01*
X136199523Y-124150380D01*
X136104285Y-124102761D01*
X136056666Y-124055142D01*
X125412666Y-79144761D02*
X125555523Y-79192380D01*
X125793619Y-79192380D01*
X125888857Y-79144761D01*
X125936476Y-79097142D01*
X125984095Y-79001904D01*
X125984095Y-78906666D01*
X125936476Y-78811428D01*
X125888857Y-78763809D01*
X125793619Y-78716190D01*
X125603142Y-78668571D01*
X125507904Y-78620952D01*
X125460285Y-78573333D01*
X125412666Y-78478095D01*
X125412666Y-78382857D01*
X125460285Y-78287619D01*
X125507904Y-78240000D01*
X125603142Y-78192380D01*
X125841238Y-78192380D01*
X125984095Y-78240000D01*
X126317428Y-78192380D02*
X126555523Y-79192380D01*
X126746000Y-78478095D01*
X126936476Y-79192380D01*
X127174571Y-78192380D01*
X128079333Y-79192380D02*
X127507904Y-79192380D01*
X127793619Y-79192380D02*
X127793619Y-78192380D01*
X127698380Y-78335238D01*
X127603142Y-78430476D01*
X127507904Y-78478095D01*
D12*
X109465714Y-93363142D02*
X109489904Y-93290571D01*
X109514095Y-93266380D01*
X109562476Y-93242190D01*
X109635047Y-93242190D01*
X109683428Y-93266380D01*
X109707619Y-93290571D01*
X109731809Y-93338952D01*
X109731809Y-93532476D01*
X109223809Y-93532476D01*
X109223809Y-93363142D01*
X109248000Y-93314761D01*
X109272190Y-93290571D01*
X109320571Y-93266380D01*
X109368952Y-93266380D01*
X109417333Y-93290571D01*
X109441523Y-93314761D01*
X109465714Y-93363142D01*
X109465714Y-93532476D01*
X109223809Y-93024476D02*
X109635047Y-93024476D01*
X109683428Y-93000285D01*
X109707619Y-92976095D01*
X109731809Y-92927714D01*
X109731809Y-92830952D01*
X109707619Y-92782571D01*
X109683428Y-92758380D01*
X109635047Y-92734190D01*
X109223809Y-92734190D01*
X109707619Y-92516476D02*
X109731809Y-92443904D01*
X109731809Y-92322952D01*
X109707619Y-92274571D01*
X109683428Y-92250380D01*
X109635047Y-92226190D01*
X109586666Y-92226190D01*
X109538285Y-92250380D01*
X109514095Y-92274571D01*
X109489904Y-92322952D01*
X109465714Y-92419714D01*
X109441523Y-92468095D01*
X109417333Y-92492285D01*
X109368952Y-92516476D01*
X109320571Y-92516476D01*
X109272190Y-92492285D01*
X109248000Y-92468095D01*
X109223809Y-92419714D01*
X109223809Y-92298761D01*
X109248000Y-92226190D01*
X109780190Y-92129428D02*
X109780190Y-91742380D01*
X109223809Y-91524666D02*
X109223809Y-91476285D01*
X109248000Y-91427904D01*
X109272190Y-91403714D01*
X109320571Y-91379523D01*
X109417333Y-91355333D01*
X109538285Y-91355333D01*
X109635047Y-91379523D01*
X109683428Y-91403714D01*
X109707619Y-91427904D01*
X109731809Y-91476285D01*
X109731809Y-91524666D01*
X109707619Y-91573047D01*
X109683428Y-91597238D01*
X109635047Y-91621428D01*
X109538285Y-91645619D01*
X109417333Y-91645619D01*
X109320571Y-91621428D01*
X109272190Y-91597238D01*
X109248000Y-91573047D01*
X109223809Y-91524666D01*
X109465714Y-90569142D02*
X109489904Y-90496571D01*
X109514095Y-90472380D01*
X109562476Y-90448190D01*
X109635047Y-90448190D01*
X109683428Y-90472380D01*
X109707619Y-90496571D01*
X109731809Y-90544952D01*
X109731809Y-90738476D01*
X109223809Y-90738476D01*
X109223809Y-90569142D01*
X109248000Y-90520761D01*
X109272190Y-90496571D01*
X109320571Y-90472380D01*
X109368952Y-90472380D01*
X109417333Y-90496571D01*
X109441523Y-90520761D01*
X109465714Y-90569142D01*
X109465714Y-90738476D01*
X109223809Y-90230476D02*
X109635047Y-90230476D01*
X109683428Y-90206285D01*
X109707619Y-90182095D01*
X109731809Y-90133714D01*
X109731809Y-90036952D01*
X109707619Y-89988571D01*
X109683428Y-89964380D01*
X109635047Y-89940190D01*
X109223809Y-89940190D01*
X109707619Y-89722476D02*
X109731809Y-89649904D01*
X109731809Y-89528952D01*
X109707619Y-89480571D01*
X109683428Y-89456380D01*
X109635047Y-89432190D01*
X109586666Y-89432190D01*
X109538285Y-89456380D01*
X109514095Y-89480571D01*
X109489904Y-89528952D01*
X109465714Y-89625714D01*
X109441523Y-89674095D01*
X109417333Y-89698285D01*
X109368952Y-89722476D01*
X109320571Y-89722476D01*
X109272190Y-89698285D01*
X109248000Y-89674095D01*
X109223809Y-89625714D01*
X109223809Y-89504761D01*
X109248000Y-89432190D01*
X109780190Y-89335428D02*
X109780190Y-88948380D01*
X109731809Y-88561333D02*
X109731809Y-88851619D01*
X109731809Y-88706476D02*
X109223809Y-88706476D01*
X109296380Y-88754857D01*
X109344761Y-88803238D01*
X109368952Y-88851619D01*
X109465714Y-87775142D02*
X109489904Y-87702571D01*
X109514095Y-87678380D01*
X109562476Y-87654190D01*
X109635047Y-87654190D01*
X109683428Y-87678380D01*
X109707619Y-87702571D01*
X109731809Y-87750952D01*
X109731809Y-87944476D01*
X109223809Y-87944476D01*
X109223809Y-87775142D01*
X109248000Y-87726761D01*
X109272190Y-87702571D01*
X109320571Y-87678380D01*
X109368952Y-87678380D01*
X109417333Y-87702571D01*
X109441523Y-87726761D01*
X109465714Y-87775142D01*
X109465714Y-87944476D01*
X109223809Y-87436476D02*
X109635047Y-87436476D01*
X109683428Y-87412285D01*
X109707619Y-87388095D01*
X109731809Y-87339714D01*
X109731809Y-87242952D01*
X109707619Y-87194571D01*
X109683428Y-87170380D01*
X109635047Y-87146190D01*
X109223809Y-87146190D01*
X109707619Y-86928476D02*
X109731809Y-86855904D01*
X109731809Y-86734952D01*
X109707619Y-86686571D01*
X109683428Y-86662380D01*
X109635047Y-86638190D01*
X109586666Y-86638190D01*
X109538285Y-86662380D01*
X109514095Y-86686571D01*
X109489904Y-86734952D01*
X109465714Y-86831714D01*
X109441523Y-86880095D01*
X109417333Y-86904285D01*
X109368952Y-86928476D01*
X109320571Y-86928476D01*
X109272190Y-86904285D01*
X109248000Y-86880095D01*
X109223809Y-86831714D01*
X109223809Y-86710761D01*
X109248000Y-86638190D01*
X109780190Y-86541428D02*
X109780190Y-86154380D01*
X109272190Y-86057619D02*
X109248000Y-86033428D01*
X109223809Y-85985047D01*
X109223809Y-85864095D01*
X109248000Y-85815714D01*
X109272190Y-85791523D01*
X109320571Y-85767333D01*
X109368952Y-85767333D01*
X109441523Y-85791523D01*
X109731809Y-86081809D01*
X109731809Y-85767333D01*
X109465714Y-84981142D02*
X109489904Y-84908571D01*
X109514095Y-84884380D01*
X109562476Y-84860190D01*
X109635047Y-84860190D01*
X109683428Y-84884380D01*
X109707619Y-84908571D01*
X109731809Y-84956952D01*
X109731809Y-85150476D01*
X109223809Y-85150476D01*
X109223809Y-84981142D01*
X109248000Y-84932761D01*
X109272190Y-84908571D01*
X109320571Y-84884380D01*
X109368952Y-84884380D01*
X109417333Y-84908571D01*
X109441523Y-84932761D01*
X109465714Y-84981142D01*
X109465714Y-85150476D01*
X109223809Y-84642476D02*
X109635047Y-84642476D01*
X109683428Y-84618285D01*
X109707619Y-84594095D01*
X109731809Y-84545714D01*
X109731809Y-84448952D01*
X109707619Y-84400571D01*
X109683428Y-84376380D01*
X109635047Y-84352190D01*
X109223809Y-84352190D01*
X109707619Y-84134476D02*
X109731809Y-84061904D01*
X109731809Y-83940952D01*
X109707619Y-83892571D01*
X109683428Y-83868380D01*
X109635047Y-83844190D01*
X109586666Y-83844190D01*
X109538285Y-83868380D01*
X109514095Y-83892571D01*
X109489904Y-83940952D01*
X109465714Y-84037714D01*
X109441523Y-84086095D01*
X109417333Y-84110285D01*
X109368952Y-84134476D01*
X109320571Y-84134476D01*
X109272190Y-84110285D01*
X109248000Y-84086095D01*
X109223809Y-84037714D01*
X109223809Y-83916761D01*
X109248000Y-83844190D01*
X109780190Y-83747428D02*
X109780190Y-83360380D01*
X109223809Y-83287809D02*
X109223809Y-82973333D01*
X109417333Y-83142666D01*
X109417333Y-83070095D01*
X109441523Y-83021714D01*
X109465714Y-82997523D01*
X109514095Y-82973333D01*
X109635047Y-82973333D01*
X109683428Y-82997523D01*
X109707619Y-83021714D01*
X109731809Y-83070095D01*
X109731809Y-83215238D01*
X109707619Y-83263619D01*
X109683428Y-83287809D01*
X109465714Y-82187142D02*
X109489904Y-82114571D01*
X109514095Y-82090380D01*
X109562476Y-82066190D01*
X109635047Y-82066190D01*
X109683428Y-82090380D01*
X109707619Y-82114571D01*
X109731809Y-82162952D01*
X109731809Y-82356476D01*
X109223809Y-82356476D01*
X109223809Y-82187142D01*
X109248000Y-82138761D01*
X109272190Y-82114571D01*
X109320571Y-82090380D01*
X109368952Y-82090380D01*
X109417333Y-82114571D01*
X109441523Y-82138761D01*
X109465714Y-82187142D01*
X109465714Y-82356476D01*
X109223809Y-81848476D02*
X109635047Y-81848476D01*
X109683428Y-81824285D01*
X109707619Y-81800095D01*
X109731809Y-81751714D01*
X109731809Y-81654952D01*
X109707619Y-81606571D01*
X109683428Y-81582380D01*
X109635047Y-81558190D01*
X109223809Y-81558190D01*
X109707619Y-81340476D02*
X109731809Y-81267904D01*
X109731809Y-81146952D01*
X109707619Y-81098571D01*
X109683428Y-81074380D01*
X109635047Y-81050190D01*
X109586666Y-81050190D01*
X109538285Y-81074380D01*
X109514095Y-81098571D01*
X109489904Y-81146952D01*
X109465714Y-81243714D01*
X109441523Y-81292095D01*
X109417333Y-81316285D01*
X109368952Y-81340476D01*
X109320571Y-81340476D01*
X109272190Y-81316285D01*
X109248000Y-81292095D01*
X109223809Y-81243714D01*
X109223809Y-81122761D01*
X109248000Y-81050190D01*
X109780190Y-80953428D02*
X109780190Y-80566380D01*
X109393142Y-80227714D02*
X109731809Y-80227714D01*
X109199619Y-80348666D02*
X109562476Y-80469619D01*
X109562476Y-80155142D01*
X109465714Y-79393142D02*
X109489904Y-79320571D01*
X109514095Y-79296380D01*
X109562476Y-79272190D01*
X109635047Y-79272190D01*
X109683428Y-79296380D01*
X109707619Y-79320571D01*
X109731809Y-79368952D01*
X109731809Y-79562476D01*
X109223809Y-79562476D01*
X109223809Y-79393142D01*
X109248000Y-79344761D01*
X109272190Y-79320571D01*
X109320571Y-79296380D01*
X109368952Y-79296380D01*
X109417333Y-79320571D01*
X109441523Y-79344761D01*
X109465714Y-79393142D01*
X109465714Y-79562476D01*
X109223809Y-79054476D02*
X109635047Y-79054476D01*
X109683428Y-79030285D01*
X109707619Y-79006095D01*
X109731809Y-78957714D01*
X109731809Y-78860952D01*
X109707619Y-78812571D01*
X109683428Y-78788380D01*
X109635047Y-78764190D01*
X109223809Y-78764190D01*
X109707619Y-78546476D02*
X109731809Y-78473904D01*
X109731809Y-78352952D01*
X109707619Y-78304571D01*
X109683428Y-78280380D01*
X109635047Y-78256190D01*
X109586666Y-78256190D01*
X109538285Y-78280380D01*
X109514095Y-78304571D01*
X109489904Y-78352952D01*
X109465714Y-78449714D01*
X109441523Y-78498095D01*
X109417333Y-78522285D01*
X109368952Y-78546476D01*
X109320571Y-78546476D01*
X109272190Y-78522285D01*
X109248000Y-78498095D01*
X109223809Y-78449714D01*
X109223809Y-78328761D01*
X109248000Y-78256190D01*
X109780190Y-78159428D02*
X109780190Y-77772380D01*
X109223809Y-77409523D02*
X109223809Y-77651428D01*
X109465714Y-77675619D01*
X109441523Y-77651428D01*
X109417333Y-77603047D01*
X109417333Y-77482095D01*
X109441523Y-77433714D01*
X109465714Y-77409523D01*
X109514095Y-77385333D01*
X109635047Y-77385333D01*
X109683428Y-77409523D01*
X109707619Y-77433714D01*
X109731809Y-77482095D01*
X109731809Y-77603047D01*
X109707619Y-77651428D01*
X109683428Y-77675619D01*
X109465714Y-76599142D02*
X109489904Y-76526571D01*
X109514095Y-76502380D01*
X109562476Y-76478190D01*
X109635047Y-76478190D01*
X109683428Y-76502380D01*
X109707619Y-76526571D01*
X109731809Y-76574952D01*
X109731809Y-76768476D01*
X109223809Y-76768476D01*
X109223809Y-76599142D01*
X109248000Y-76550761D01*
X109272190Y-76526571D01*
X109320571Y-76502380D01*
X109368952Y-76502380D01*
X109417333Y-76526571D01*
X109441523Y-76550761D01*
X109465714Y-76599142D01*
X109465714Y-76768476D01*
X109223809Y-76260476D02*
X109635047Y-76260476D01*
X109683428Y-76236285D01*
X109707619Y-76212095D01*
X109731809Y-76163714D01*
X109731809Y-76066952D01*
X109707619Y-76018571D01*
X109683428Y-75994380D01*
X109635047Y-75970190D01*
X109223809Y-75970190D01*
X109707619Y-75752476D02*
X109731809Y-75679904D01*
X109731809Y-75558952D01*
X109707619Y-75510571D01*
X109683428Y-75486380D01*
X109635047Y-75462190D01*
X109586666Y-75462190D01*
X109538285Y-75486380D01*
X109514095Y-75510571D01*
X109489904Y-75558952D01*
X109465714Y-75655714D01*
X109441523Y-75704095D01*
X109417333Y-75728285D01*
X109368952Y-75752476D01*
X109320571Y-75752476D01*
X109272190Y-75728285D01*
X109248000Y-75704095D01*
X109223809Y-75655714D01*
X109223809Y-75534761D01*
X109248000Y-75462190D01*
X109780190Y-75365428D02*
X109780190Y-74978380D01*
X109223809Y-74639714D02*
X109223809Y-74736476D01*
X109248000Y-74784857D01*
X109272190Y-74809047D01*
X109344761Y-74857428D01*
X109441523Y-74881619D01*
X109635047Y-74881619D01*
X109683428Y-74857428D01*
X109707619Y-74833238D01*
X109731809Y-74784857D01*
X109731809Y-74688095D01*
X109707619Y-74639714D01*
X109683428Y-74615523D01*
X109635047Y-74591333D01*
X109514095Y-74591333D01*
X109465714Y-74615523D01*
X109441523Y-74639714D01*
X109417333Y-74688095D01*
X109417333Y-74784857D01*
X109441523Y-74833238D01*
X109465714Y-74857428D01*
X109514095Y-74881619D01*
X109465714Y-73805142D02*
X109489904Y-73732571D01*
X109514095Y-73708380D01*
X109562476Y-73684190D01*
X109635047Y-73684190D01*
X109683428Y-73708380D01*
X109707619Y-73732571D01*
X109731809Y-73780952D01*
X109731809Y-73974476D01*
X109223809Y-73974476D01*
X109223809Y-73805142D01*
X109248000Y-73756761D01*
X109272190Y-73732571D01*
X109320571Y-73708380D01*
X109368952Y-73708380D01*
X109417333Y-73732571D01*
X109441523Y-73756761D01*
X109465714Y-73805142D01*
X109465714Y-73974476D01*
X109223809Y-73466476D02*
X109635047Y-73466476D01*
X109683428Y-73442285D01*
X109707619Y-73418095D01*
X109731809Y-73369714D01*
X109731809Y-73272952D01*
X109707619Y-73224571D01*
X109683428Y-73200380D01*
X109635047Y-73176190D01*
X109223809Y-73176190D01*
X109707619Y-72958476D02*
X109731809Y-72885904D01*
X109731809Y-72764952D01*
X109707619Y-72716571D01*
X109683428Y-72692380D01*
X109635047Y-72668190D01*
X109586666Y-72668190D01*
X109538285Y-72692380D01*
X109514095Y-72716571D01*
X109489904Y-72764952D01*
X109465714Y-72861714D01*
X109441523Y-72910095D01*
X109417333Y-72934285D01*
X109368952Y-72958476D01*
X109320571Y-72958476D01*
X109272190Y-72934285D01*
X109248000Y-72910095D01*
X109223809Y-72861714D01*
X109223809Y-72740761D01*
X109248000Y-72668190D01*
X109780190Y-72571428D02*
X109780190Y-72184380D01*
X109223809Y-72111809D02*
X109223809Y-71773142D01*
X109731809Y-71990857D01*
X109538285Y-97427142D02*
X109538285Y-97040095D01*
X109731809Y-97233619D02*
X109344761Y-97233619D01*
X109223809Y-96556285D02*
X109223809Y-96798190D01*
X109465714Y-96822380D01*
X109441523Y-96798190D01*
X109417333Y-96749809D01*
X109417333Y-96628857D01*
X109441523Y-96580476D01*
X109465714Y-96556285D01*
X109514095Y-96532095D01*
X109635047Y-96532095D01*
X109683428Y-96556285D01*
X109707619Y-96580476D01*
X109731809Y-96628857D01*
X109731809Y-96749809D01*
X109707619Y-96798190D01*
X109683428Y-96822380D01*
X109223809Y-96386952D02*
X109731809Y-96217619D01*
X109223809Y-96048285D01*
X109248000Y-99955047D02*
X109223809Y-100003428D01*
X109223809Y-100076000D01*
X109248000Y-100148571D01*
X109296380Y-100196952D01*
X109344761Y-100221142D01*
X109441523Y-100245333D01*
X109514095Y-100245333D01*
X109610857Y-100221142D01*
X109659238Y-100196952D01*
X109707619Y-100148571D01*
X109731809Y-100076000D01*
X109731809Y-100027619D01*
X109707619Y-99955047D01*
X109683428Y-99930857D01*
X109514095Y-99930857D01*
X109514095Y-100027619D01*
X109731809Y-99713142D02*
X109223809Y-99713142D01*
X109731809Y-99422857D01*
X109223809Y-99422857D01*
X109731809Y-99180952D02*
X109223809Y-99180952D01*
X109223809Y-99060000D01*
X109248000Y-98987428D01*
X109296380Y-98939047D01*
X109344761Y-98914857D01*
X109441523Y-98890666D01*
X109514095Y-98890666D01*
X109610857Y-98914857D01*
X109659238Y-98939047D01*
X109707619Y-98987428D01*
X109731809Y-99060000D01*
X109731809Y-99180952D01*
D10*
X124460095Y-85260380D02*
X124460095Y-86069904D01*
X124507714Y-86165142D01*
X124555333Y-86212761D01*
X124650571Y-86260380D01*
X124841047Y-86260380D01*
X124936285Y-86212761D01*
X124983904Y-86165142D01*
X125031523Y-86069904D01*
X125031523Y-85260380D01*
X125460095Y-85355619D02*
X125507714Y-85308000D01*
X125602952Y-85260380D01*
X125841047Y-85260380D01*
X125936285Y-85308000D01*
X125983904Y-85355619D01*
X126031523Y-85450857D01*
X126031523Y-85546095D01*
X125983904Y-85688952D01*
X125412476Y-86260380D01*
X126031523Y-86260380D01*
X139700095Y-85260380D02*
X139700095Y-86069904D01*
X139747714Y-86165142D01*
X139795333Y-86212761D01*
X139890571Y-86260380D01*
X140081047Y-86260380D01*
X140176285Y-86212761D01*
X140223904Y-86165142D01*
X140271523Y-86069904D01*
X140271523Y-85260380D01*
X140652476Y-85260380D02*
X141271523Y-85260380D01*
X140938190Y-85641333D01*
X141081047Y-85641333D01*
X141176285Y-85688952D01*
X141223904Y-85736571D01*
X141271523Y-85831809D01*
X141271523Y-86069904D01*
X141223904Y-86165142D01*
X141176285Y-86212761D01*
X141081047Y-86260380D01*
X140795333Y-86260380D01*
X140700095Y-86212761D01*
X140652476Y-86165142D01*
X124460095Y-100500380D02*
X124460095Y-101309904D01*
X124507714Y-101405142D01*
X124555333Y-101452761D01*
X124650571Y-101500380D01*
X124841047Y-101500380D01*
X124936285Y-101452761D01*
X124983904Y-101405142D01*
X125031523Y-101309904D01*
X125031523Y-100500380D01*
X125936285Y-100833714D02*
X125936285Y-101500380D01*
X125698190Y-100452761D02*
X125460095Y-101167047D01*
X126079142Y-101167047D01*
X154940095Y-85260380D02*
X154940095Y-86069904D01*
X154987714Y-86165142D01*
X155035333Y-86212761D01*
X155130571Y-86260380D01*
X155321047Y-86260380D01*
X155416285Y-86212761D01*
X155463904Y-86165142D01*
X155511523Y-86069904D01*
X155511523Y-85260380D01*
X156463904Y-85260380D02*
X155987714Y-85260380D01*
X155940095Y-85736571D01*
X155987714Y-85688952D01*
X156082952Y-85641333D01*
X156321047Y-85641333D01*
X156416285Y-85688952D01*
X156463904Y-85736571D01*
X156511523Y-85831809D01*
X156511523Y-86069904D01*
X156463904Y-86165142D01*
X156416285Y-86212761D01*
X156321047Y-86260380D01*
X156082952Y-86260380D01*
X155987714Y-86212761D01*
X155940095Y-86165142D01*
X170180095Y-103040380D02*
X170180095Y-103849904D01*
X170227714Y-103945142D01*
X170275333Y-103992761D01*
X170370571Y-104040380D01*
X170561047Y-104040380D01*
X170656285Y-103992761D01*
X170703904Y-103945142D01*
X170751523Y-103849904D01*
X170751523Y-103040380D01*
X171656285Y-103040380D02*
X171465809Y-103040380D01*
X171370571Y-103088000D01*
X171322952Y-103135619D01*
X171227714Y-103278476D01*
X171180095Y-103468952D01*
X171180095Y-103849904D01*
X171227714Y-103945142D01*
X171275333Y-103992761D01*
X171370571Y-104040380D01*
X171561047Y-104040380D01*
X171656285Y-103992761D01*
X171703904Y-103945142D01*
X171751523Y-103849904D01*
X171751523Y-103611809D01*
X171703904Y-103516571D01*
X171656285Y-103468952D01*
X171561047Y-103421333D01*
X171370571Y-103421333D01*
X171275333Y-103468952D01*
X171227714Y-103516571D01*
X171180095Y-103611809D01*
X138430095Y-63841380D02*
X138430095Y-64650904D01*
X138477714Y-64746142D01*
X138525333Y-64793761D01*
X138620571Y-64841380D01*
X138811047Y-64841380D01*
X138906285Y-64793761D01*
X138953904Y-64746142D01*
X139001523Y-64650904D01*
X139001523Y-63841380D01*
X139382476Y-63841380D02*
X140049142Y-63841380D01*
X139620571Y-64841380D01*
X147320095Y-63841380D02*
X147320095Y-64650904D01*
X147367714Y-64746142D01*
X147415333Y-64793761D01*
X147510571Y-64841380D01*
X147701047Y-64841380D01*
X147796285Y-64793761D01*
X147843904Y-64746142D01*
X147891523Y-64650904D01*
X147891523Y-63841380D01*
X148510571Y-64269952D02*
X148415333Y-64222333D01*
X148367714Y-64174714D01*
X148320095Y-64079476D01*
X148320095Y-64031857D01*
X148367714Y-63936619D01*
X148415333Y-63889000D01*
X148510571Y-63841380D01*
X148701047Y-63841380D01*
X148796285Y-63889000D01*
X148843904Y-63936619D01*
X148891523Y-64031857D01*
X148891523Y-64079476D01*
X148843904Y-64174714D01*
X148796285Y-64222333D01*
X148701047Y-64269952D01*
X148510571Y-64269952D01*
X148415333Y-64317571D01*
X148367714Y-64365190D01*
X148320095Y-64460428D01*
X148320095Y-64650904D01*
X148367714Y-64746142D01*
X148415333Y-64793761D01*
X148510571Y-64841380D01*
X148701047Y-64841380D01*
X148796285Y-64793761D01*
X148843904Y-64746142D01*
X148891523Y-64650904D01*
X148891523Y-64460428D01*
X148843904Y-64365190D01*
X148796285Y-64317571D01*
X148701047Y-64269952D01*
X156210095Y-63841380D02*
X156210095Y-64650904D01*
X156257714Y-64746142D01*
X156305333Y-64793761D01*
X156400571Y-64841380D01*
X156591047Y-64841380D01*
X156686285Y-64793761D01*
X156733904Y-64746142D01*
X156781523Y-64650904D01*
X156781523Y-63841380D01*
X157305333Y-64841380D02*
X157495809Y-64841380D01*
X157591047Y-64793761D01*
X157638666Y-64746142D01*
X157733904Y-64603285D01*
X157781523Y-64412809D01*
X157781523Y-64031857D01*
X157733904Y-63936619D01*
X157686285Y-63889000D01*
X157591047Y-63841380D01*
X157400571Y-63841380D01*
X157305333Y-63889000D01*
X157257714Y-63936619D01*
X157210095Y-64031857D01*
X157210095Y-64269952D01*
X157257714Y-64365190D01*
X157305333Y-64412809D01*
X157400571Y-64460428D01*
X157591047Y-64460428D01*
X157686285Y-64412809D01*
X157733904Y-64365190D01*
X157781523Y-64269952D01*
X164623904Y-63841380D02*
X164623904Y-64650904D01*
X164671523Y-64746142D01*
X164719142Y-64793761D01*
X164814380Y-64841380D01*
X165004857Y-64841380D01*
X165100095Y-64793761D01*
X165147714Y-64746142D01*
X165195333Y-64650904D01*
X165195333Y-63841380D01*
X166195333Y-64841380D02*
X165623904Y-64841380D01*
X165909619Y-64841380D02*
X165909619Y-63841380D01*
X165814380Y-63984238D01*
X165719142Y-64079476D01*
X165623904Y-64127095D01*
X166814380Y-63841380D02*
X166909619Y-63841380D01*
X167004857Y-63889000D01*
X167052476Y-63936619D01*
X167100095Y-64031857D01*
X167147714Y-64222333D01*
X167147714Y-64460428D01*
X167100095Y-64650904D01*
X167052476Y-64746142D01*
X167004857Y-64793761D01*
X166909619Y-64841380D01*
X166814380Y-64841380D01*
X166719142Y-64793761D01*
X166671523Y-64746142D01*
X166623904Y-64650904D01*
X166576285Y-64460428D01*
X166576285Y-64222333D01*
X166623904Y-64031857D01*
X166671523Y-63936619D01*
X166719142Y-63889000D01*
X166814380Y-63841380D01*
M02*
