G04 #@! TF.GenerationSoftware,KiCad,Pcbnew,(5.1.2-1)-1*
G04 #@! TF.CreationDate,2019-08-24T15:09:12+10:00*
G04 #@! TF.ProjectId,output-register,6f757470-7574-42d7-9265-676973746572,rev?*
G04 #@! TF.SameCoordinates,Original*
G04 #@! TF.FileFunction,Copper,L1,Top*
G04 #@! TF.FilePolarity,Positive*
%FSLAX46Y46*%
G04 Gerber Fmt 4.6, Leading zero omitted, Abs format (unit mm)*
G04 Created by KiCad (PCBNEW (5.1.2-1)-1) date 2019-08-24 15:09:12*
%MOMM*%
%LPD*%
G04 APERTURE LIST*
%ADD10R,1.600000X1.600000*%
%ADD11O,1.600000X1.600000*%
%ADD12C,3.790000*%
%ADD13C,1.600000*%
%ADD14C,0.100000*%
%ADD15C,1.200000*%
%ADD16O,1.200000X1.750000*%
%ADD17C,1.400000*%
%ADD18O,1.400000X1.400000*%
%ADD19R,2.000000X2.000000*%
%ADD20C,2.000000*%
%ADD21R,1.500000X1.500000*%
%ADD22C,0.800000*%
%ADD23C,0.250000*%
%ADD24C,0.254000*%
G04 APERTURE END LIST*
D10*
X167132000Y-84328000D03*
D11*
X174752000Y-99568000D03*
X167132000Y-86868000D03*
X174752000Y-97028000D03*
X167132000Y-89408000D03*
X174752000Y-94488000D03*
X167132000Y-91948000D03*
X174752000Y-91948000D03*
X167132000Y-94488000D03*
X174752000Y-89408000D03*
X167132000Y-97028000D03*
X174752000Y-86868000D03*
X167132000Y-99568000D03*
X174752000Y-84328000D03*
D12*
X176022000Y-131318000D03*
X176022000Y-66548000D03*
X113792000Y-131318000D03*
X113792000Y-66548000D03*
D13*
X139152000Y-117348000D03*
X136652000Y-117348000D03*
X141732000Y-117348000D03*
X144232000Y-117348000D03*
X154432000Y-123698000D03*
X156932000Y-123698000D03*
X156932000Y-121158000D03*
X154432000Y-121158000D03*
D14*
G36*
X121786505Y-129174204D02*
G01*
X121810773Y-129177804D01*
X121834572Y-129183765D01*
X121857671Y-129192030D01*
X121879850Y-129202520D01*
X121900893Y-129215132D01*
X121920599Y-129229747D01*
X121938777Y-129246223D01*
X121955253Y-129264401D01*
X121969868Y-129284107D01*
X121982480Y-129305150D01*
X121992970Y-129327329D01*
X122001235Y-129350428D01*
X122007196Y-129374227D01*
X122010796Y-129398495D01*
X122012000Y-129422999D01*
X122012000Y-130673001D01*
X122010796Y-130697505D01*
X122007196Y-130721773D01*
X122001235Y-130745572D01*
X121992970Y-130768671D01*
X121982480Y-130790850D01*
X121969868Y-130811893D01*
X121955253Y-130831599D01*
X121938777Y-130849777D01*
X121920599Y-130866253D01*
X121900893Y-130880868D01*
X121879850Y-130893480D01*
X121857671Y-130903970D01*
X121834572Y-130912235D01*
X121810773Y-130918196D01*
X121786505Y-130921796D01*
X121762001Y-130923000D01*
X121061999Y-130923000D01*
X121037495Y-130921796D01*
X121013227Y-130918196D01*
X120989428Y-130912235D01*
X120966329Y-130903970D01*
X120944150Y-130893480D01*
X120923107Y-130880868D01*
X120903401Y-130866253D01*
X120885223Y-130849777D01*
X120868747Y-130831599D01*
X120854132Y-130811893D01*
X120841520Y-130790850D01*
X120831030Y-130768671D01*
X120822765Y-130745572D01*
X120816804Y-130721773D01*
X120813204Y-130697505D01*
X120812000Y-130673001D01*
X120812000Y-129422999D01*
X120813204Y-129398495D01*
X120816804Y-129374227D01*
X120822765Y-129350428D01*
X120831030Y-129327329D01*
X120841520Y-129305150D01*
X120854132Y-129284107D01*
X120868747Y-129264401D01*
X120885223Y-129246223D01*
X120903401Y-129229747D01*
X120923107Y-129215132D01*
X120944150Y-129202520D01*
X120966329Y-129192030D01*
X120989428Y-129183765D01*
X121013227Y-129177804D01*
X121037495Y-129174204D01*
X121061999Y-129173000D01*
X121762001Y-129173000D01*
X121786505Y-129174204D01*
X121786505Y-129174204D01*
G37*
D15*
X121412000Y-130048000D03*
D16*
X123412000Y-130048000D03*
X125412000Y-130048000D03*
X127412000Y-130048000D03*
X129412000Y-130048000D03*
X131412000Y-130048000D03*
X133412000Y-130048000D03*
X135412000Y-130048000D03*
D14*
G36*
X154806505Y-129174204D02*
G01*
X154830773Y-129177804D01*
X154854572Y-129183765D01*
X154877671Y-129192030D01*
X154899850Y-129202520D01*
X154920893Y-129215132D01*
X154940599Y-129229747D01*
X154958777Y-129246223D01*
X154975253Y-129264401D01*
X154989868Y-129284107D01*
X155002480Y-129305150D01*
X155012970Y-129327329D01*
X155021235Y-129350428D01*
X155027196Y-129374227D01*
X155030796Y-129398495D01*
X155032000Y-129422999D01*
X155032000Y-130673001D01*
X155030796Y-130697505D01*
X155027196Y-130721773D01*
X155021235Y-130745572D01*
X155012970Y-130768671D01*
X155002480Y-130790850D01*
X154989868Y-130811893D01*
X154975253Y-130831599D01*
X154958777Y-130849777D01*
X154940599Y-130866253D01*
X154920893Y-130880868D01*
X154899850Y-130893480D01*
X154877671Y-130903970D01*
X154854572Y-130912235D01*
X154830773Y-130918196D01*
X154806505Y-130921796D01*
X154782001Y-130923000D01*
X154081999Y-130923000D01*
X154057495Y-130921796D01*
X154033227Y-130918196D01*
X154009428Y-130912235D01*
X153986329Y-130903970D01*
X153964150Y-130893480D01*
X153943107Y-130880868D01*
X153923401Y-130866253D01*
X153905223Y-130849777D01*
X153888747Y-130831599D01*
X153874132Y-130811893D01*
X153861520Y-130790850D01*
X153851030Y-130768671D01*
X153842765Y-130745572D01*
X153836804Y-130721773D01*
X153833204Y-130697505D01*
X153832000Y-130673001D01*
X153832000Y-129422999D01*
X153833204Y-129398495D01*
X153836804Y-129374227D01*
X153842765Y-129350428D01*
X153851030Y-129327329D01*
X153861520Y-129305150D01*
X153874132Y-129284107D01*
X153888747Y-129264401D01*
X153905223Y-129246223D01*
X153923401Y-129229747D01*
X153943107Y-129215132D01*
X153964150Y-129202520D01*
X153986329Y-129192030D01*
X154009428Y-129183765D01*
X154033227Y-129177804D01*
X154057495Y-129174204D01*
X154081999Y-129173000D01*
X154782001Y-129173000D01*
X154806505Y-129174204D01*
X154806505Y-129174204D01*
G37*
D15*
X154432000Y-130048000D03*
D16*
X156432000Y-130048000D03*
D14*
G36*
X143376505Y-129174204D02*
G01*
X143400773Y-129177804D01*
X143424572Y-129183765D01*
X143447671Y-129192030D01*
X143469850Y-129202520D01*
X143490893Y-129215132D01*
X143510599Y-129229747D01*
X143528777Y-129246223D01*
X143545253Y-129264401D01*
X143559868Y-129284107D01*
X143572480Y-129305150D01*
X143582970Y-129327329D01*
X143591235Y-129350428D01*
X143597196Y-129374227D01*
X143600796Y-129398495D01*
X143602000Y-129422999D01*
X143602000Y-130673001D01*
X143600796Y-130697505D01*
X143597196Y-130721773D01*
X143591235Y-130745572D01*
X143582970Y-130768671D01*
X143572480Y-130790850D01*
X143559868Y-130811893D01*
X143545253Y-130831599D01*
X143528777Y-130849777D01*
X143510599Y-130866253D01*
X143490893Y-130880868D01*
X143469850Y-130893480D01*
X143447671Y-130903970D01*
X143424572Y-130912235D01*
X143400773Y-130918196D01*
X143376505Y-130921796D01*
X143352001Y-130923000D01*
X142651999Y-130923000D01*
X142627495Y-130921796D01*
X142603227Y-130918196D01*
X142579428Y-130912235D01*
X142556329Y-130903970D01*
X142534150Y-130893480D01*
X142513107Y-130880868D01*
X142493401Y-130866253D01*
X142475223Y-130849777D01*
X142458747Y-130831599D01*
X142444132Y-130811893D01*
X142431520Y-130790850D01*
X142421030Y-130768671D01*
X142412765Y-130745572D01*
X142406804Y-130721773D01*
X142403204Y-130697505D01*
X142402000Y-130673001D01*
X142402000Y-129422999D01*
X142403204Y-129398495D01*
X142406804Y-129374227D01*
X142412765Y-129350428D01*
X142421030Y-129327329D01*
X142431520Y-129305150D01*
X142444132Y-129284107D01*
X142458747Y-129264401D01*
X142475223Y-129246223D01*
X142493401Y-129229747D01*
X142513107Y-129215132D01*
X142534150Y-129202520D01*
X142556329Y-129192030D01*
X142579428Y-129183765D01*
X142603227Y-129177804D01*
X142627495Y-129174204D01*
X142651999Y-129173000D01*
X143352001Y-129173000D01*
X143376505Y-129174204D01*
X143376505Y-129174204D01*
G37*
D15*
X143002000Y-130048000D03*
D16*
X145002000Y-130048000D03*
X147002000Y-130048000D03*
D17*
X120650000Y-81788000D03*
D18*
X125730000Y-81788000D03*
D17*
X143002000Y-121158000D03*
D18*
X137922000Y-121158000D03*
X143002000Y-123698000D03*
D17*
X137922000Y-123698000D03*
D19*
X122682000Y-69088000D03*
D20*
X126682000Y-69088000D03*
X130682000Y-69088000D03*
X122682000Y-74088000D03*
X126682000Y-74088000D03*
X130682000Y-74088000D03*
D21*
X111252000Y-92456000D03*
X111252000Y-89662000D03*
X111252000Y-86868000D03*
X111252000Y-84074000D03*
X111252000Y-81280000D03*
X111252000Y-78486000D03*
X111252000Y-75692000D03*
X111252000Y-72898000D03*
X111252000Y-96774000D03*
X111252000Y-99568000D03*
D10*
X121412000Y-88138000D03*
D11*
X129032000Y-95758000D03*
X121412000Y-90678000D03*
X129032000Y-93218000D03*
X121412000Y-93218000D03*
X129032000Y-90678000D03*
X121412000Y-95758000D03*
X129032000Y-88138000D03*
D10*
X136652000Y-88138000D03*
D11*
X144272000Y-110998000D03*
X136652000Y-90678000D03*
X144272000Y-108458000D03*
X136652000Y-93218000D03*
X144272000Y-105918000D03*
X136652000Y-95758000D03*
X144272000Y-103378000D03*
X136652000Y-98298000D03*
X144272000Y-100838000D03*
X136652000Y-100838000D03*
X144272000Y-98298000D03*
X136652000Y-103378000D03*
X144272000Y-95758000D03*
X136652000Y-105918000D03*
X144272000Y-93218000D03*
X136652000Y-108458000D03*
X144272000Y-90678000D03*
X136652000Y-110998000D03*
X144272000Y-88138000D03*
X129032000Y-103378000D03*
X121412000Y-121158000D03*
X129032000Y-105918000D03*
X121412000Y-118618000D03*
X129032000Y-108458000D03*
X121412000Y-116078000D03*
X129032000Y-110998000D03*
X121412000Y-113538000D03*
X129032000Y-113538000D03*
X121412000Y-110998000D03*
X129032000Y-116078000D03*
X121412000Y-108458000D03*
X129032000Y-118618000D03*
X121412000Y-105918000D03*
X129032000Y-121158000D03*
D10*
X121412000Y-103378000D03*
X151892000Y-88138000D03*
D11*
X159512000Y-116078000D03*
X151892000Y-90678000D03*
X159512000Y-113538000D03*
X151892000Y-93218000D03*
X159512000Y-110998000D03*
X151892000Y-95758000D03*
X159512000Y-108458000D03*
X151892000Y-98298000D03*
X159512000Y-105918000D03*
X151892000Y-100838000D03*
X159512000Y-103378000D03*
X151892000Y-103378000D03*
X159512000Y-100838000D03*
X151892000Y-105918000D03*
X159512000Y-98298000D03*
X151892000Y-108458000D03*
X159512000Y-95758000D03*
X151892000Y-110998000D03*
X159512000Y-93218000D03*
X151892000Y-113538000D03*
X159512000Y-90678000D03*
X151892000Y-116078000D03*
X159512000Y-88138000D03*
D10*
X167132000Y-105918000D03*
D11*
X174752000Y-123698000D03*
X167132000Y-108458000D03*
X174752000Y-121158000D03*
X167132000Y-110998000D03*
X174752000Y-118618000D03*
X167132000Y-113538000D03*
X174752000Y-116078000D03*
X167132000Y-116078000D03*
X174752000Y-113538000D03*
X167132000Y-118618000D03*
X174752000Y-110998000D03*
X167132000Y-121158000D03*
X174752000Y-108458000D03*
X167132000Y-123698000D03*
X174752000Y-105918000D03*
D13*
X141732000Y-66548000D03*
X141732000Y-69088000D03*
X141732000Y-71628000D03*
X141732000Y-74168000D03*
X141732000Y-76708000D03*
X136652000Y-76708000D03*
X136652000Y-74168000D03*
X136652000Y-71628000D03*
X136652000Y-69088000D03*
D10*
X136652000Y-66548000D03*
X145542000Y-66548000D03*
D13*
X145542000Y-69088000D03*
X145542000Y-71628000D03*
X145542000Y-74168000D03*
X145542000Y-76708000D03*
X150622000Y-76708000D03*
X150622000Y-74168000D03*
X150622000Y-71628000D03*
X150622000Y-69088000D03*
X150622000Y-66548000D03*
X159512000Y-66548000D03*
X159512000Y-69088000D03*
X159512000Y-71628000D03*
X159512000Y-74168000D03*
X159512000Y-76708000D03*
X154432000Y-76708000D03*
X154432000Y-74168000D03*
X154432000Y-71628000D03*
X154432000Y-69088000D03*
D10*
X154432000Y-66548000D03*
X163322000Y-66548000D03*
D13*
X163322000Y-69088000D03*
X163322000Y-71628000D03*
X163322000Y-74168000D03*
X163322000Y-76708000D03*
X168402000Y-76708000D03*
X168402000Y-74168000D03*
X168402000Y-71628000D03*
X168402000Y-69088000D03*
X168402000Y-66548000D03*
D22*
X157988000Y-99568000D03*
X130302000Y-127000000D03*
X112014000Y-123952000D03*
X133858000Y-121158000D03*
X131694347Y-119248347D03*
X134688858Y-119956858D03*
X130969347Y-118110000D03*
X112776000Y-97536000D03*
X149860000Y-89662000D03*
X146812000Y-89408000D03*
X115054000Y-78494000D03*
X117856000Y-83312000D03*
X114800000Y-81034000D03*
X114673000Y-83701000D03*
X125730000Y-128016000D03*
X113792000Y-85598000D03*
X114046000Y-88646000D03*
X122936000Y-92964000D03*
X130048000Y-101346000D03*
X113403000Y-90813000D03*
X117856000Y-90424000D03*
X127122347Y-92333653D03*
X130941653Y-91562347D03*
X112911000Y-95115000D03*
X117667070Y-88646000D03*
X172974000Y-84328000D03*
X172212000Y-86868000D03*
X132419347Y-117094000D03*
X138684000Y-119126000D03*
X155231000Y-100330000D03*
X158496000Y-97028000D03*
X156681000Y-115311347D03*
X155448000Y-116586000D03*
X146050000Y-98552000D03*
X142108347Y-104516347D03*
X145796000Y-104394000D03*
X149860000Y-101854000D03*
X149606000Y-98044000D03*
X148119000Y-98298000D03*
X129862858Y-124782858D03*
X127508000Y-122682000D03*
X176530000Y-122428000D03*
X178054000Y-114554000D03*
X179402980Y-111760000D03*
X180452000Y-109474000D03*
X177751940Y-101600000D03*
X179001999Y-106680000D03*
X180086000Y-113538000D03*
X177292000Y-118110000D03*
X163105000Y-98298000D03*
X169418000Y-98298000D03*
X160020000Y-78740000D03*
X162380000Y-99111375D03*
X165063000Y-97536000D03*
X151130000Y-78994000D03*
X164338000Y-94234000D03*
X161680935Y-97757818D03*
X142748000Y-78740000D03*
D23*
X159258000Y-98298000D02*
X157988000Y-99568000D01*
X159512000Y-98298000D02*
X159258000Y-98298000D01*
X126492000Y-90678000D02*
X129032000Y-93218000D01*
X121412000Y-90678000D02*
X126492000Y-90678000D01*
X137922000Y-121158000D02*
X133858000Y-121158000D01*
X131694347Y-95880347D02*
X129032000Y-93218000D01*
X131694347Y-119248347D02*
X131694347Y-95880347D01*
X137922000Y-118618000D02*
X136652000Y-117348000D01*
X137922000Y-121158000D02*
X137922000Y-118618000D01*
X135526999Y-119118717D02*
X134688858Y-119956858D01*
X135526999Y-116807999D02*
X135526999Y-119118717D01*
X136111999Y-116222999D02*
X135526999Y-116807999D01*
X140606999Y-116222999D02*
X136111999Y-116222999D01*
X141732000Y-117348000D02*
X140606999Y-116222999D01*
X130969347Y-97695347D02*
X129032000Y-95758000D01*
X130969347Y-118110000D02*
X130969347Y-97695347D01*
X112014000Y-96774000D02*
X112776000Y-97536000D01*
X111252000Y-96774000D02*
X112014000Y-96774000D01*
X147066000Y-89662000D02*
X146812000Y-89408000D01*
X149860000Y-89662000D02*
X147066000Y-89662000D01*
X112252000Y-72898000D02*
X111252000Y-72898000D01*
X116942070Y-77588070D02*
X115308000Y-75954000D01*
X116942070Y-126585610D02*
X116942070Y-77588070D01*
X120404460Y-130048000D02*
X116942070Y-126585610D01*
X121412000Y-130048000D02*
X120404460Y-130048000D01*
X115308000Y-75954000D02*
X112252000Y-72898000D01*
X117720070Y-77588070D02*
X116942070Y-77588070D01*
X140606999Y-89552999D02*
X135881997Y-89552999D01*
X122327002Y-84989002D02*
X119126000Y-81788000D01*
X119126000Y-78994000D02*
X117720070Y-77588070D01*
X135881997Y-89552999D02*
X131318000Y-84989002D01*
X119126000Y-81788000D02*
X119126000Y-78994000D01*
X131318000Y-84989002D02*
X122327002Y-84989002D01*
X144272000Y-93218000D02*
X140606999Y-89552999D01*
X116492060Y-126772010D02*
X116492060Y-79932060D01*
X112252000Y-75692000D02*
X111252000Y-75692000D01*
X119306383Y-129586333D02*
X116492060Y-126772010D01*
X119306384Y-131489924D02*
X119306383Y-129586333D01*
X123412000Y-131661990D02*
X121977990Y-133096000D01*
X120912460Y-133096000D02*
X119306384Y-131489924D01*
X121977990Y-133096000D02*
X120912460Y-133096000D01*
X116492060Y-79932060D02*
X115054000Y-78494000D01*
X123412000Y-130048000D02*
X123412000Y-131661990D01*
X115054000Y-78494000D02*
X112252000Y-75692000D01*
X134620000Y-90311002D02*
X134620000Y-88927412D01*
X136111999Y-91803001D02*
X134620000Y-90311002D01*
X136902003Y-91803001D02*
X136111999Y-91803001D01*
X140857002Y-95758000D02*
X136902003Y-91803001D01*
X134620000Y-88927412D02*
X131131600Y-85439012D01*
X144272000Y-95758000D02*
X140857002Y-95758000D01*
X119983012Y-85439012D02*
X117856000Y-83312000D01*
X131131600Y-85439012D02*
X119983012Y-85439012D01*
X112252000Y-78486000D02*
X111252000Y-78486000D01*
X116042050Y-82276050D02*
X114800000Y-81034000D01*
X116042050Y-126958410D02*
X116042050Y-82276050D01*
X125412000Y-130048000D02*
X125412000Y-132687950D01*
X118856374Y-131676324D02*
X118856374Y-129772734D01*
X118856374Y-129772734D02*
X116042050Y-126958410D01*
X124495950Y-133604000D02*
X120784050Y-133604000D01*
X120784050Y-133604000D02*
X118856374Y-131676324D01*
X125412000Y-132687950D02*
X124495950Y-133604000D01*
X127254000Y-127931000D02*
X127254000Y-125730000D01*
X125412000Y-129773000D02*
X127254000Y-127931000D01*
X125412000Y-130048000D02*
X125412000Y-129773000D01*
X127254000Y-125730000D02*
X134366000Y-118618000D01*
X134366000Y-118618000D02*
X134366000Y-116078000D01*
X134366000Y-116078000D02*
X140716000Y-109728000D01*
X140716000Y-106934000D02*
X144272000Y-103378000D01*
X140716000Y-109728000D02*
X140716000Y-106934000D01*
X114800000Y-81034000D02*
X112252000Y-78486000D01*
X112252000Y-81280000D02*
X111252000Y-81280000D01*
X115592040Y-84620040D02*
X114673000Y-83701000D01*
X118406364Y-131862724D02*
X118406364Y-129959134D01*
X127412000Y-133677960D02*
X127000000Y-134089960D01*
X120633600Y-134089960D02*
X118406364Y-131862724D01*
X127000000Y-134089960D02*
X120633600Y-134089960D01*
X115592040Y-127144810D02*
X115592040Y-84620040D01*
X118406364Y-129959134D02*
X115592040Y-127144810D01*
X127412000Y-130048000D02*
X127412000Y-133677960D01*
X134816010Y-116264400D02*
X143472001Y-107608409D01*
X143472001Y-106717999D02*
X144272000Y-105918000D01*
X128778000Y-124842410D02*
X134816010Y-118804400D01*
X128778000Y-127043410D02*
X128778000Y-124842410D01*
X134816010Y-118804400D02*
X134816010Y-116264400D01*
X143472001Y-107608409D02*
X143472001Y-106717999D01*
X127412000Y-128409410D02*
X128778000Y-127043410D01*
X127412000Y-130048000D02*
X127412000Y-128409410D01*
X114673000Y-83701000D02*
X112252000Y-81280000D01*
X115142030Y-127331210D02*
X115142030Y-86964030D01*
X117956355Y-130145535D02*
X115142030Y-127331210D01*
X120447200Y-134539970D02*
X117956356Y-132049126D01*
X112252000Y-84074000D02*
X111252000Y-84074000D01*
X117956356Y-132049126D02*
X117956355Y-130145535D01*
X128270000Y-134539970D02*
X120447200Y-134539970D01*
X115142030Y-86964030D02*
X114419000Y-86241000D01*
X129412000Y-133397970D02*
X128270000Y-134539970D01*
X129412000Y-130048000D02*
X129412000Y-133397970D01*
X125730000Y-128016000D02*
X125730000Y-126238000D01*
X125730000Y-126238000D02*
X133350000Y-118618000D01*
X133350000Y-109220000D02*
X136652000Y-105918000D01*
X133350000Y-118618000D02*
X133350000Y-109220000D01*
X114419000Y-86241000D02*
X112252000Y-84074000D01*
X114894243Y-127762000D02*
X114692020Y-127559777D01*
X117506346Y-130331936D02*
X114936410Y-127762000D01*
X114936410Y-127762000D02*
X114894243Y-127762000D01*
X117506346Y-132235526D02*
X117506346Y-130331936D01*
X120260800Y-134989980D02*
X117506346Y-132235526D01*
X129472200Y-134989980D02*
X120260800Y-134989980D01*
X131412000Y-133050180D02*
X129472200Y-134989980D01*
X131412000Y-130048000D02*
X131412000Y-133050180D01*
X112252000Y-86868000D02*
X111252000Y-86868000D01*
X114692020Y-89308020D02*
X113911000Y-88527000D01*
X114692020Y-119518020D02*
X114692020Y-89308020D01*
X114692020Y-127559777D02*
X114692020Y-119518020D01*
X114692020Y-119518020D02*
X114692020Y-119380000D01*
X113911000Y-88527000D02*
X112252000Y-86868000D01*
X130048000Y-100076000D02*
X130048000Y-101346000D01*
X122936000Y-92964000D02*
X130048000Y-100076000D01*
X112252000Y-89662000D02*
X111252000Y-89662000D01*
X114242010Y-91652010D02*
X113403000Y-90813000D01*
X117056336Y-130560503D02*
X114242010Y-127746177D01*
X120074400Y-135439990D02*
X117056336Y-132421926D01*
X129658600Y-135439990D02*
X120074400Y-135439990D01*
X133412000Y-131686590D02*
X129658600Y-135439990D01*
X117056336Y-132421926D02*
X117056336Y-130560503D01*
X114242010Y-127746177D02*
X114242010Y-91652010D01*
X133412000Y-130048000D02*
X133412000Y-131686590D01*
X113403000Y-90813000D02*
X112252000Y-89662000D01*
X126591695Y-91803001D02*
X127122347Y-92333653D01*
X119235001Y-91803001D02*
X126591695Y-91803001D01*
X117856000Y-90424000D02*
X119235001Y-91803001D01*
X135137306Y-95758000D02*
X136652000Y-95758000D01*
X130941653Y-91562347D02*
X135137306Y-95758000D01*
X113792000Y-95996000D02*
X112911000Y-95115000D01*
X113792000Y-127932577D02*
X113792000Y-95996000D01*
X116586000Y-130726577D02*
X113792000Y-127932577D01*
X116586000Y-132126521D02*
X116586000Y-130726577D01*
X111252000Y-93456000D02*
X111252000Y-92456000D01*
X135412000Y-130323000D02*
X129845000Y-135890000D01*
X116618368Y-132620368D02*
X116586000Y-132126521D01*
X129845000Y-135890000D02*
X119888000Y-135890000D01*
X119888000Y-135890000D02*
X116618368Y-132620368D01*
X135412000Y-130048000D02*
X135412000Y-130323000D01*
X112911000Y-95115000D02*
X111252000Y-93456000D01*
X135852001Y-92418001D02*
X136652000Y-93218000D01*
X132986999Y-89552999D02*
X135852001Y-92418001D01*
X118574069Y-89552999D02*
X132986999Y-89552999D01*
X117667070Y-88646000D02*
X118574069Y-89552999D01*
X172974000Y-84328000D02*
X172974000Y-127508000D01*
X172974000Y-127508000D02*
X167386000Y-133096000D01*
X146050000Y-133096000D02*
X143002000Y-130048000D01*
X167386000Y-133096000D02*
X146050000Y-133096000D01*
X167257590Y-132588000D02*
X172212000Y-127633590D01*
X172212000Y-127633590D02*
X172212000Y-86868000D01*
X145002000Y-130323000D02*
X147267000Y-132588000D01*
X147267000Y-132588000D02*
X167257590Y-132588000D01*
X145002000Y-130048000D02*
X145002000Y-130323000D01*
X121432000Y-69088000D02*
X122682000Y-69088000D01*
X120650000Y-69870000D02*
X121432000Y-69088000D01*
X120650000Y-81788000D02*
X120650000Y-69870000D01*
X143002000Y-123698000D02*
X143002000Y-121158000D01*
X132419347Y-94065347D02*
X132419347Y-117094000D01*
X129032000Y-90678000D02*
X132419347Y-94065347D01*
X140970000Y-119126000D02*
X143002000Y-121158000D01*
X138684000Y-119126000D02*
X140970000Y-119126000D01*
X126682000Y-70502213D02*
X126682000Y-69088000D01*
X126682000Y-72049002D02*
X126682000Y-70502213D01*
X134097999Y-79465001D02*
X126682000Y-72049002D01*
X146267001Y-79465001D02*
X134097999Y-79465001D01*
X155231000Y-88429000D02*
X146267001Y-79465001D01*
X155231000Y-100330000D02*
X155231000Y-88429000D01*
X156681000Y-98843000D02*
X156681000Y-115311347D01*
X158496000Y-97028000D02*
X156681000Y-98843000D01*
X155448000Y-116586000D02*
X153162000Y-118872000D01*
X152146000Y-118872000D02*
X144272000Y-110998000D01*
X153162000Y-118872000D02*
X152146000Y-118872000D01*
X120286999Y-94343001D02*
X120612001Y-94017999D01*
X120612001Y-94017999D02*
X121412000Y-93218000D01*
X121412000Y-102328000D02*
X120286999Y-101202999D01*
X120286999Y-101202999D02*
X120286999Y-94343001D01*
X121412000Y-103378000D02*
X121412000Y-102328000D01*
X152691999Y-105118001D02*
X151892000Y-105918000D01*
X153917021Y-103892979D02*
X152691999Y-105118001D01*
X153917021Y-91038019D02*
X153917021Y-103892979D01*
X152432001Y-89552999D02*
X153917021Y-91038019D01*
X143731999Y-94343001D02*
X146561997Y-94343001D01*
X151351999Y-89552999D02*
X152432001Y-89552999D01*
X140741989Y-91352991D02*
X143731999Y-94343001D01*
X146561997Y-94343001D02*
X151351999Y-89552999D01*
X136818991Y-91352991D02*
X140741989Y-91352991D01*
X136652000Y-91186000D02*
X136818991Y-91352991D01*
X136652000Y-90678000D02*
X136652000Y-91186000D01*
X145071999Y-107658001D02*
X144272000Y-108458000D01*
X147937001Y-104792999D02*
X145071999Y-107658001D01*
X152255001Y-104792999D02*
X147937001Y-104792999D01*
X153467011Y-103580989D02*
X152255001Y-104792999D01*
X153467011Y-97333011D02*
X153467011Y-103580989D01*
X151892000Y-95758000D02*
X153467011Y-97333011D01*
X137451999Y-99097999D02*
X136652000Y-98298000D01*
X137777001Y-99423001D02*
X137451999Y-99097999D01*
X152432001Y-99423001D02*
X137777001Y-99423001D01*
X153017001Y-100008001D02*
X152432001Y-99423001D01*
X153017001Y-102252999D02*
X153017001Y-100008001D01*
X151892000Y-103378000D02*
X153017001Y-102252999D01*
X146558000Y-98552000D02*
X146050000Y-98552000D01*
X151892000Y-93218000D02*
X146558000Y-98552000D01*
X137451999Y-101637999D02*
X136652000Y-100838000D01*
X137777001Y-101963001D02*
X137451999Y-101637999D01*
X144812001Y-101963001D02*
X137777001Y-101963001D01*
X145937002Y-100838000D02*
X144812001Y-101963001D01*
X151892000Y-100838000D02*
X145937002Y-100838000D01*
X145071999Y-97498001D02*
X151892000Y-90678000D01*
X144272000Y-98298000D02*
X145071999Y-97498001D01*
X138166694Y-108458000D02*
X142108347Y-104516347D01*
X136652000Y-108458000D02*
X138166694Y-108458000D01*
X148336000Y-101854000D02*
X149860000Y-101854000D01*
X145796000Y-104394000D02*
X148336000Y-101854000D01*
X146812000Y-88138000D02*
X144272000Y-90678000D01*
X151892000Y-88138000D02*
X146812000Y-88138000D01*
X129032000Y-108458000D02*
X121412000Y-116078000D01*
X159512000Y-90678000D02*
X164338000Y-95504000D01*
X164338000Y-105664000D02*
X167132000Y-108458000D01*
X164338000Y-95504000D02*
X164338000Y-105664000D01*
X148373000Y-98044000D02*
X148119000Y-98298000D01*
X149606000Y-98044000D02*
X148373000Y-98044000D01*
X168263370Y-110998000D02*
X170434000Y-113168630D01*
X167132000Y-110998000D02*
X168263370Y-110998000D01*
X170434000Y-113168630D02*
X170434000Y-125984000D01*
X170434000Y-125984000D02*
X169418000Y-127000000D01*
X132080000Y-127000000D02*
X129862858Y-124782858D01*
X169418000Y-127000000D02*
X132080000Y-127000000D01*
X127508000Y-120142000D02*
X129032000Y-118618000D01*
X127508000Y-122682000D02*
X127508000Y-120142000D01*
X167132000Y-110123002D02*
X163830000Y-106821002D01*
X167132000Y-110998000D02*
X167132000Y-110123002D01*
X163830000Y-97536000D02*
X159512000Y-93218000D01*
X163830000Y-106821002D02*
X163830000Y-97536000D01*
X155231999Y-77507999D02*
X154432000Y-76708000D01*
X162196999Y-77833001D02*
X155557001Y-77833001D01*
X155557001Y-77833001D02*
X155231999Y-77507999D01*
X163322000Y-76708000D02*
X162196999Y-77833001D01*
X146341999Y-77507999D02*
X145542000Y-76708000D01*
X153306999Y-77833001D02*
X146667001Y-77833001D01*
X146667001Y-77833001D02*
X146341999Y-77507999D01*
X154432000Y-76708000D02*
X153306999Y-77833001D01*
X137451999Y-77507999D02*
X136652000Y-76708000D01*
X137777001Y-77833001D02*
X137451999Y-77507999D01*
X144416999Y-77833001D02*
X137777001Y-77833001D01*
X145542000Y-76708000D02*
X144416999Y-77833001D01*
X176530000Y-102927002D02*
X176530000Y-122428000D01*
X177026939Y-102430063D02*
X176530000Y-102927002D01*
X177576920Y-100702018D02*
X177026939Y-101251999D01*
X177436999Y-75582999D02*
X177576920Y-75722920D01*
X167861999Y-75582999D02*
X177436999Y-75582999D01*
X177026939Y-101251999D02*
X177026939Y-102430063D01*
X177576920Y-75722920D02*
X177576920Y-100702018D01*
X166736998Y-76708000D02*
X167861999Y-75582999D01*
X163322000Y-76708000D02*
X166736998Y-76708000D01*
X160311999Y-72427999D02*
X159512000Y-71628000D01*
X160637001Y-72753001D02*
X160311999Y-72427999D01*
X166145629Y-72753001D02*
X160637001Y-72753001D01*
X167270630Y-71628000D02*
X166145629Y-72753001D01*
X168402000Y-71628000D02*
X167270630Y-71628000D01*
X151421999Y-72427999D02*
X150622000Y-71628000D01*
X151747001Y-72753001D02*
X151421999Y-72427999D01*
X158380630Y-71628000D02*
X157255629Y-72753001D01*
X157255629Y-72753001D02*
X151747001Y-72753001D01*
X159512000Y-71628000D02*
X158380630Y-71628000D01*
X142857001Y-72753001D02*
X142531999Y-72427999D01*
X142531999Y-72427999D02*
X141732000Y-71628000D01*
X149496999Y-72753001D02*
X142857001Y-72753001D01*
X150622000Y-71628000D02*
X149496999Y-72753001D01*
X177245334Y-71628000D02*
X175768000Y-71628000D01*
X178926950Y-105682047D02*
X178926950Y-73309616D01*
X178276998Y-106331999D02*
X178926950Y-105682047D01*
X178276998Y-108680998D02*
X178276998Y-106331999D01*
X178677980Y-109081980D02*
X178276998Y-108680998D01*
X178677980Y-113930020D02*
X178677980Y-109081980D01*
X175768000Y-71628000D02*
X168402000Y-71628000D01*
X178926950Y-73309616D02*
X177245334Y-71628000D01*
X178054000Y-114554000D02*
X178677980Y-113930020D01*
X160311999Y-69887999D02*
X159512000Y-69088000D01*
X160637001Y-70213001D02*
X160311999Y-69887999D01*
X166145629Y-70213001D02*
X160637001Y-70213001D01*
X167270630Y-69088000D02*
X166145629Y-70213001D01*
X168402000Y-69088000D02*
X167270630Y-69088000D01*
X151421999Y-69887999D02*
X150622000Y-69088000D01*
X152036999Y-70502999D02*
X151421999Y-69887999D01*
X158097001Y-70502999D02*
X152036999Y-70502999D01*
X159512000Y-69088000D02*
X158097001Y-70502999D01*
X142531999Y-69887999D02*
X141732000Y-69088000D01*
X142857001Y-70213001D02*
X142531999Y-69887999D01*
X148365629Y-70213001D02*
X142857001Y-70213001D01*
X149490630Y-69088000D02*
X148365629Y-70213001D01*
X150622000Y-69088000D02*
X149490630Y-69088000D01*
X173733180Y-69088000D02*
X168402000Y-69088000D01*
X174698169Y-70052989D02*
X173733180Y-69088000D01*
X175355237Y-70052989D02*
X174698169Y-70052989D01*
X179826970Y-107955030D02*
X179826970Y-72936816D01*
X179276989Y-108505011D02*
X179826970Y-107955030D01*
X177279687Y-70389533D02*
X175691781Y-70389533D01*
X179826970Y-72936816D02*
X177279687Y-70389533D01*
X179276989Y-110008401D02*
X179276989Y-108505011D01*
X175691781Y-70389533D02*
X175355237Y-70052989D01*
X179402980Y-110134392D02*
X179276989Y-110008401D01*
X179402980Y-111760000D02*
X179402980Y-110134392D01*
X160311999Y-67347999D02*
X159512000Y-66548000D01*
X167270630Y-66548000D02*
X166145629Y-67673001D01*
X160637001Y-67673001D02*
X160311999Y-67347999D01*
X166145629Y-67673001D02*
X160637001Y-67673001D01*
X168402000Y-66548000D02*
X167270630Y-66548000D01*
X151421999Y-67347999D02*
X150622000Y-66548000D01*
X151747001Y-67673001D02*
X151421999Y-67347999D01*
X157255629Y-67673001D02*
X151747001Y-67673001D01*
X158380630Y-66548000D02*
X157255629Y-67673001D01*
X159512000Y-66548000D02*
X158380630Y-66548000D01*
X142531999Y-67347999D02*
X141732000Y-66548000D01*
X142857001Y-67673001D02*
X142531999Y-67347999D01*
X148365629Y-67673001D02*
X142857001Y-67673001D01*
X149490630Y-66548000D02*
X148365629Y-67673001D01*
X150622000Y-66548000D02*
X149490630Y-66548000D01*
X172466000Y-66548000D02*
X168402000Y-66548000D01*
X175715534Y-69140466D02*
X175058466Y-69140466D01*
X177652487Y-69489513D02*
X176064581Y-69489513D01*
X180726990Y-72522990D02*
X180381026Y-72177026D01*
X180726990Y-108458000D02*
X180726990Y-72522990D01*
X175058466Y-69140466D02*
X172466000Y-66548000D01*
X176064581Y-69489513D02*
X175715534Y-69140466D01*
X180340000Y-72177026D02*
X177652487Y-69489513D01*
X180381026Y-72177026D02*
X180340000Y-72177026D01*
X180452000Y-108732990D02*
X180726990Y-108458000D01*
X180452000Y-109474000D02*
X180452000Y-108732990D01*
X166145629Y-75293001D02*
X160637001Y-75293001D01*
X167270630Y-74168000D02*
X166145629Y-75293001D01*
X160311999Y-74967999D02*
X159512000Y-74168000D01*
X160637001Y-75293001D02*
X160311999Y-74967999D01*
X168402000Y-74168000D02*
X167270630Y-74168000D01*
X151421999Y-74967999D02*
X150622000Y-74168000D01*
X151747001Y-75293001D02*
X151421999Y-74967999D01*
X157255629Y-75293001D02*
X151747001Y-75293001D01*
X158380630Y-74168000D02*
X157255629Y-75293001D01*
X159512000Y-74168000D02*
X158380630Y-74168000D01*
X149496999Y-75293001D02*
X142857001Y-75293001D01*
X142531999Y-74967999D02*
X141732000Y-74168000D01*
X142857001Y-75293001D02*
X142531999Y-74967999D01*
X150622000Y-74168000D02*
X149496999Y-75293001D01*
X169533370Y-74168000D02*
X168402000Y-74168000D01*
X177751940Y-101600000D02*
X177751940Y-101394060D01*
X178026930Y-101119070D02*
X178026930Y-74394930D01*
X177800000Y-74168000D02*
X169533370Y-74168000D01*
X178026930Y-74394930D02*
X177800000Y-74168000D01*
X177751940Y-101394060D02*
X178026930Y-101119070D01*
X143635590Y-71628000D02*
X144410630Y-71628000D01*
X142510589Y-70502999D02*
X143635590Y-71628000D01*
X144410630Y-71628000D02*
X145542000Y-71628000D01*
X137777001Y-70502999D02*
X142510589Y-70502999D01*
X136652000Y-71628000D02*
X137777001Y-70502999D01*
X153300630Y-71628000D02*
X154432000Y-71628000D01*
X152525590Y-71628000D02*
X153300630Y-71628000D01*
X151255590Y-70358000D02*
X152525590Y-71628000D01*
X148956998Y-71628000D02*
X150226998Y-70358000D01*
X150226998Y-70358000D02*
X151255590Y-70358000D01*
X145542000Y-71628000D02*
X148956998Y-71628000D01*
X160290589Y-70502999D02*
X161415590Y-71628000D01*
X158521989Y-70953009D02*
X158971999Y-70502999D01*
X161415590Y-71628000D02*
X162190630Y-71628000D01*
X156238361Y-70953009D02*
X158521989Y-70953009D01*
X162190630Y-71628000D02*
X163322000Y-71628000D01*
X155563370Y-71628000D02*
X156238361Y-70953009D01*
X158971999Y-70502999D02*
X160290589Y-70502999D01*
X154432000Y-71628000D02*
X155563370Y-71628000D01*
X167276999Y-71087999D02*
X164993371Y-71087999D01*
X167861999Y-70502999D02*
X167276999Y-71087999D01*
X177119744Y-70866000D02*
X175531838Y-70866000D01*
X164993371Y-71087999D02*
X164453370Y-71628000D01*
X175168837Y-70502999D02*
X167861999Y-70502999D01*
X179001999Y-106680000D02*
X179070000Y-106680000D01*
X179376960Y-73123216D02*
X177119744Y-70866000D01*
X179376960Y-106373040D02*
X179376960Y-73123216D01*
X164453370Y-71628000D02*
X163322000Y-71628000D01*
X175531838Y-70866000D02*
X175168837Y-70502999D01*
X179070000Y-106680000D02*
X179376960Y-106373040D01*
X144410630Y-69088000D02*
X145542000Y-69088000D01*
X142220591Y-67673001D02*
X143635590Y-69088000D01*
X143635590Y-69088000D02*
X144410630Y-69088000D01*
X138066999Y-67673001D02*
X142220591Y-67673001D01*
X136652000Y-69088000D02*
X138066999Y-67673001D01*
X153300630Y-69088000D02*
X154432000Y-69088000D01*
X152525590Y-69088000D02*
X153300630Y-69088000D01*
X151255590Y-67818000D02*
X152525590Y-69088000D01*
X148857040Y-67818000D02*
X151255590Y-67818000D01*
X147587040Y-69088000D02*
X148857040Y-67818000D01*
X145542000Y-69088000D02*
X147587040Y-69088000D01*
X162190630Y-69088000D02*
X163322000Y-69088000D01*
X161415590Y-69088000D02*
X162190630Y-69088000D01*
X160290589Y-67962999D02*
X161415590Y-69088000D01*
X158971999Y-67962999D02*
X160290589Y-67962999D01*
X157846998Y-69088000D02*
X158971999Y-67962999D01*
X154432000Y-69088000D02*
X157846998Y-69088000D01*
X167759221Y-67962999D02*
X171848999Y-67962999D01*
X166634220Y-69088000D02*
X167759221Y-67962999D01*
X163322000Y-69088000D02*
X166634220Y-69088000D01*
X173244589Y-67962999D02*
X174872066Y-69590476D01*
X174872066Y-69590476D02*
X175529134Y-69590476D01*
X171848999Y-67962999D02*
X173244589Y-67962999D01*
X175529134Y-69590476D02*
X175878181Y-69939523D01*
X175878181Y-69939523D02*
X177466087Y-69939523D01*
X177466087Y-69939523D02*
X179889990Y-72363426D01*
X180127981Y-110222983D02*
X179726999Y-109822001D01*
X180127981Y-112108001D02*
X180127981Y-110222983D01*
X180086000Y-112149982D02*
X180127981Y-112108001D01*
X180086000Y-113538000D02*
X180086000Y-112149982D01*
X180276980Y-72750416D02*
X180276980Y-73219600D01*
X179889990Y-72363426D02*
X180276980Y-72750416D01*
X180276980Y-73219600D02*
X180276980Y-75438000D01*
X180276980Y-75438000D02*
X180276980Y-75759600D01*
X180276980Y-75759600D02*
X180276980Y-84074000D01*
X179726999Y-108817001D02*
X180276980Y-108267020D01*
X179726999Y-109822001D02*
X179726999Y-108817001D01*
X180276980Y-108267020D02*
X180276980Y-107188000D01*
X180276980Y-107188000D02*
X180276980Y-84074000D01*
X155563370Y-74168000D02*
X154432000Y-74168000D01*
X157602041Y-73042999D02*
X156477040Y-74168000D01*
X160052001Y-73042999D02*
X157602041Y-73042999D01*
X161177002Y-74168000D02*
X160052001Y-73042999D01*
X156477040Y-74168000D02*
X155563370Y-74168000D01*
X163322000Y-74168000D02*
X161177002Y-74168000D01*
X148718410Y-74168000D02*
X146673370Y-74168000D01*
X149843411Y-73042999D02*
X148718410Y-74168000D01*
X146673370Y-74168000D02*
X145542000Y-74168000D01*
X151162001Y-73042999D02*
X149843411Y-73042999D01*
X151487003Y-73368001D02*
X151162001Y-73042999D01*
X153632001Y-73368001D02*
X151487003Y-73368001D01*
X154432000Y-74168000D02*
X153632001Y-73368001D01*
X137777001Y-73042999D02*
X137451999Y-73368001D01*
X142272001Y-73042999D02*
X137777001Y-73042999D01*
X143397002Y-74168000D02*
X142272001Y-73042999D01*
X137451999Y-73368001D02*
X136652000Y-74168000D01*
X145542000Y-74168000D02*
X143397002Y-74168000D01*
X164453370Y-74168000D02*
X163322000Y-74168000D01*
X167498998Y-73406000D02*
X165215370Y-73406000D01*
X167861999Y-73042999D02*
X167498998Y-73406000D01*
X178476940Y-73574940D02*
X177944999Y-73042999D01*
X178476940Y-105495060D02*
X178476940Y-73574940D01*
X177944999Y-73042999D02*
X167861999Y-73042999D01*
X177292000Y-106680000D02*
X178476940Y-105495060D01*
X165215370Y-73406000D02*
X164453370Y-74168000D01*
X177292000Y-118110000D02*
X177292000Y-106680000D01*
X163105000Y-109511000D02*
X163105000Y-98298000D01*
X167132000Y-113538000D02*
X163105000Y-109511000D01*
X169418000Y-77724000D02*
X168402000Y-76708000D01*
X169418000Y-98298000D02*
X169418000Y-77724000D01*
X162380000Y-111326000D02*
X162380000Y-99111375D01*
X167132000Y-116078000D02*
X162380000Y-111326000D01*
X165063000Y-83783000D02*
X160020000Y-78740000D01*
X165063000Y-97536000D02*
X165063000Y-83783000D01*
X151130000Y-78994000D02*
X159004000Y-78994000D01*
X160782000Y-80772000D02*
X160782000Y-81026000D01*
X159004000Y-78994000D02*
X160782000Y-80772000D01*
X164338000Y-84582000D02*
X164338000Y-94234000D01*
X160782000Y-81026000D02*
X164338000Y-84582000D01*
X161654999Y-113140999D02*
X166332001Y-117818001D01*
X166332001Y-117818001D02*
X167132000Y-118618000D01*
X161654999Y-98349439D02*
X161654999Y-113140999D01*
X161680935Y-98323503D02*
X161654999Y-98349439D01*
X161680935Y-97757818D02*
X161680935Y-98323503D01*
X142748000Y-78740000D02*
X147320000Y-78740000D01*
X147320000Y-78740000D02*
X155956000Y-87376000D01*
X155956000Y-87376000D02*
X155956000Y-115824000D01*
X161290000Y-121158000D02*
X167132000Y-121158000D01*
X155956000Y-115824000D02*
X161290000Y-121158000D01*
D24*
G36*
X177898344Y-62215738D02*
G01*
X178481595Y-62391832D01*
X179019529Y-62677856D01*
X179491667Y-63062922D01*
X179880019Y-63532359D01*
X180169794Y-64068286D01*
X180349955Y-64650291D01*
X180417000Y-65288189D01*
X180417000Y-71179224D01*
X178216291Y-68978516D01*
X178192488Y-68949512D01*
X178076763Y-68854539D01*
X177944734Y-68783967D01*
X177801473Y-68740510D01*
X177689820Y-68729513D01*
X177689809Y-68729513D01*
X177652487Y-68725837D01*
X177615165Y-68729513D01*
X177311016Y-68729513D01*
X177634781Y-68513180D01*
X177987180Y-68160781D01*
X178264057Y-67746405D01*
X178454774Y-67285974D01*
X178552000Y-66797183D01*
X178552000Y-66298817D01*
X178454774Y-65810026D01*
X178264057Y-65349595D01*
X177987180Y-64935219D01*
X177634781Y-64582820D01*
X177220405Y-64305943D01*
X176759974Y-64115226D01*
X176271183Y-64018000D01*
X175772817Y-64018000D01*
X175284026Y-64115226D01*
X174823595Y-64305943D01*
X174409219Y-64582820D01*
X174056820Y-64935219D01*
X173779943Y-65349595D01*
X173589226Y-65810026D01*
X173492000Y-66298817D01*
X173492000Y-66499199D01*
X173029804Y-66037003D01*
X173006001Y-66007999D01*
X172890276Y-65913026D01*
X172758247Y-65842454D01*
X172614986Y-65798997D01*
X172503333Y-65788000D01*
X172503322Y-65788000D01*
X172466000Y-65784324D01*
X172428678Y-65788000D01*
X169620043Y-65788000D01*
X169516637Y-65633241D01*
X169316759Y-65433363D01*
X169081727Y-65276320D01*
X168820574Y-65168147D01*
X168543335Y-65113000D01*
X168260665Y-65113000D01*
X167983426Y-65168147D01*
X167722273Y-65276320D01*
X167487241Y-65433363D01*
X167287363Y-65633241D01*
X167180481Y-65793202D01*
X167121644Y-65798997D01*
X166978383Y-65842454D01*
X166846354Y-65913026D01*
X166730629Y-66007999D01*
X166706831Y-66036997D01*
X165830828Y-66913001D01*
X164760072Y-66913001D01*
X164760072Y-65748000D01*
X164747812Y-65623518D01*
X164711502Y-65503820D01*
X164652537Y-65393506D01*
X164573185Y-65296815D01*
X164476494Y-65217463D01*
X164366180Y-65158498D01*
X164246482Y-65122188D01*
X164122000Y-65109928D01*
X162522000Y-65109928D01*
X162397518Y-65122188D01*
X162277820Y-65158498D01*
X162167506Y-65217463D01*
X162070815Y-65296815D01*
X161991463Y-65393506D01*
X161932498Y-65503820D01*
X161896188Y-65623518D01*
X161883928Y-65748000D01*
X161883928Y-66913001D01*
X160951802Y-66913001D01*
X160910688Y-66871887D01*
X160947000Y-66689335D01*
X160947000Y-66406665D01*
X160891853Y-66129426D01*
X160783680Y-65868273D01*
X160626637Y-65633241D01*
X160426759Y-65433363D01*
X160191727Y-65276320D01*
X159930574Y-65168147D01*
X159653335Y-65113000D01*
X159370665Y-65113000D01*
X159093426Y-65168147D01*
X158832273Y-65276320D01*
X158597241Y-65433363D01*
X158397363Y-65633241D01*
X158290481Y-65793202D01*
X158231644Y-65798997D01*
X158088383Y-65842454D01*
X157956354Y-65913026D01*
X157840629Y-66007999D01*
X157816831Y-66036997D01*
X156940828Y-66913001D01*
X155870072Y-66913001D01*
X155870072Y-65748000D01*
X155857812Y-65623518D01*
X155821502Y-65503820D01*
X155762537Y-65393506D01*
X155683185Y-65296815D01*
X155586494Y-65217463D01*
X155476180Y-65158498D01*
X155356482Y-65122188D01*
X155232000Y-65109928D01*
X153632000Y-65109928D01*
X153507518Y-65122188D01*
X153387820Y-65158498D01*
X153277506Y-65217463D01*
X153180815Y-65296815D01*
X153101463Y-65393506D01*
X153042498Y-65503820D01*
X153006188Y-65623518D01*
X152993928Y-65748000D01*
X152993928Y-66913001D01*
X152061802Y-66913001D01*
X152020688Y-66871887D01*
X152057000Y-66689335D01*
X152057000Y-66406665D01*
X152001853Y-66129426D01*
X151893680Y-65868273D01*
X151736637Y-65633241D01*
X151536759Y-65433363D01*
X151301727Y-65276320D01*
X151040574Y-65168147D01*
X150763335Y-65113000D01*
X150480665Y-65113000D01*
X150203426Y-65168147D01*
X149942273Y-65276320D01*
X149707241Y-65433363D01*
X149507363Y-65633241D01*
X149400481Y-65793202D01*
X149341644Y-65798997D01*
X149198383Y-65842454D01*
X149066354Y-65913026D01*
X148950629Y-66007999D01*
X148926831Y-66036997D01*
X148050828Y-66913001D01*
X146980072Y-66913001D01*
X146980072Y-65748000D01*
X146967812Y-65623518D01*
X146931502Y-65503820D01*
X146872537Y-65393506D01*
X146793185Y-65296815D01*
X146696494Y-65217463D01*
X146586180Y-65158498D01*
X146466482Y-65122188D01*
X146342000Y-65109928D01*
X144742000Y-65109928D01*
X144617518Y-65122188D01*
X144497820Y-65158498D01*
X144387506Y-65217463D01*
X144290815Y-65296815D01*
X144211463Y-65393506D01*
X144152498Y-65503820D01*
X144116188Y-65623518D01*
X144103928Y-65748000D01*
X144103928Y-66913001D01*
X143171802Y-66913001D01*
X143130688Y-66871887D01*
X143167000Y-66689335D01*
X143167000Y-66406665D01*
X143111853Y-66129426D01*
X143003680Y-65868273D01*
X142846637Y-65633241D01*
X142646759Y-65433363D01*
X142411727Y-65276320D01*
X142150574Y-65168147D01*
X141873335Y-65113000D01*
X141590665Y-65113000D01*
X141313426Y-65168147D01*
X141052273Y-65276320D01*
X140817241Y-65433363D01*
X140617363Y-65633241D01*
X140460320Y-65868273D01*
X140352147Y-66129426D01*
X140297000Y-66406665D01*
X140297000Y-66689335D01*
X140341491Y-66913001D01*
X138104324Y-66913001D01*
X138090072Y-66911597D01*
X138090072Y-65748000D01*
X138077812Y-65623518D01*
X138041502Y-65503820D01*
X137982537Y-65393506D01*
X137903185Y-65296815D01*
X137806494Y-65217463D01*
X137696180Y-65158498D01*
X137576482Y-65122188D01*
X137452000Y-65109928D01*
X135852000Y-65109928D01*
X135727518Y-65122188D01*
X135607820Y-65158498D01*
X135497506Y-65217463D01*
X135400815Y-65296815D01*
X135321463Y-65393506D01*
X135262498Y-65503820D01*
X135226188Y-65623518D01*
X135213928Y-65748000D01*
X135213928Y-67348000D01*
X135226188Y-67472482D01*
X135262498Y-67592180D01*
X135321463Y-67702494D01*
X135400815Y-67799185D01*
X135497506Y-67878537D01*
X135607820Y-67937502D01*
X135727518Y-67973812D01*
X135735961Y-67974643D01*
X135537363Y-68173241D01*
X135380320Y-68408273D01*
X135272147Y-68669426D01*
X135217000Y-68946665D01*
X135217000Y-69229335D01*
X135272147Y-69506574D01*
X135380320Y-69767727D01*
X135537363Y-70002759D01*
X135737241Y-70202637D01*
X135969759Y-70358000D01*
X135737241Y-70513363D01*
X135537363Y-70713241D01*
X135380320Y-70948273D01*
X135272147Y-71209426D01*
X135217000Y-71486665D01*
X135217000Y-71769335D01*
X135272147Y-72046574D01*
X135380320Y-72307727D01*
X135537363Y-72542759D01*
X135737241Y-72742637D01*
X135969759Y-72898000D01*
X135737241Y-73053363D01*
X135537363Y-73253241D01*
X135380320Y-73488273D01*
X135272147Y-73749426D01*
X135217000Y-74026665D01*
X135217000Y-74309335D01*
X135272147Y-74586574D01*
X135380320Y-74847727D01*
X135537363Y-75082759D01*
X135737241Y-75282637D01*
X135969759Y-75438000D01*
X135737241Y-75593363D01*
X135537363Y-75793241D01*
X135380320Y-76028273D01*
X135272147Y-76289426D01*
X135217000Y-76566665D01*
X135217000Y-76849335D01*
X135272147Y-77126574D01*
X135380320Y-77387727D01*
X135537363Y-77622759D01*
X135737241Y-77822637D01*
X135972273Y-77979680D01*
X136233426Y-78087853D01*
X136510665Y-78143000D01*
X136793335Y-78143000D01*
X136975887Y-78106688D01*
X137213197Y-78343998D01*
X137237000Y-78373002D01*
X137352725Y-78467975D01*
X137484754Y-78538547D01*
X137628015Y-78582004D01*
X137739668Y-78593001D01*
X137739677Y-78593001D01*
X137777000Y-78596677D01*
X137814323Y-78593001D01*
X141721963Y-78593001D01*
X141713000Y-78638061D01*
X141713000Y-78705001D01*
X134412801Y-78705001D01*
X131306736Y-75598937D01*
X131456463Y-75536918D01*
X131724252Y-75357987D01*
X131951987Y-75130252D01*
X132130918Y-74862463D01*
X132254168Y-74564912D01*
X132317000Y-74249033D01*
X132317000Y-73926967D01*
X132254168Y-73611088D01*
X132130918Y-73313537D01*
X131951987Y-73045748D01*
X131724252Y-72818013D01*
X131456463Y-72639082D01*
X131158912Y-72515832D01*
X130843033Y-72453000D01*
X130520967Y-72453000D01*
X130205088Y-72515832D01*
X129907537Y-72639082D01*
X129639748Y-72818013D01*
X129412013Y-73045748D01*
X129233082Y-73313537D01*
X129171063Y-73463264D01*
X127442000Y-71734201D01*
X127442000Y-70542909D01*
X127456463Y-70536918D01*
X127724252Y-70357987D01*
X127951987Y-70130252D01*
X128130918Y-69862463D01*
X128254168Y-69564912D01*
X128317000Y-69249033D01*
X128317000Y-68926967D01*
X129047000Y-68926967D01*
X129047000Y-69249033D01*
X129109832Y-69564912D01*
X129233082Y-69862463D01*
X129412013Y-70130252D01*
X129639748Y-70357987D01*
X129907537Y-70536918D01*
X130205088Y-70660168D01*
X130520967Y-70723000D01*
X130843033Y-70723000D01*
X131158912Y-70660168D01*
X131456463Y-70536918D01*
X131724252Y-70357987D01*
X131951987Y-70130252D01*
X132130918Y-69862463D01*
X132254168Y-69564912D01*
X132317000Y-69249033D01*
X132317000Y-68926967D01*
X132254168Y-68611088D01*
X132130918Y-68313537D01*
X131951987Y-68045748D01*
X131724252Y-67818013D01*
X131456463Y-67639082D01*
X131158912Y-67515832D01*
X130843033Y-67453000D01*
X130520967Y-67453000D01*
X130205088Y-67515832D01*
X129907537Y-67639082D01*
X129639748Y-67818013D01*
X129412013Y-68045748D01*
X129233082Y-68313537D01*
X129109832Y-68611088D01*
X129047000Y-68926967D01*
X128317000Y-68926967D01*
X128254168Y-68611088D01*
X128130918Y-68313537D01*
X127951987Y-68045748D01*
X127724252Y-67818013D01*
X127456463Y-67639082D01*
X127158912Y-67515832D01*
X126843033Y-67453000D01*
X126520967Y-67453000D01*
X126205088Y-67515832D01*
X125907537Y-67639082D01*
X125639748Y-67818013D01*
X125412013Y-68045748D01*
X125233082Y-68313537D01*
X125109832Y-68611088D01*
X125047000Y-68926967D01*
X125047000Y-69249033D01*
X125109832Y-69564912D01*
X125233082Y-69862463D01*
X125412013Y-70130252D01*
X125639748Y-70357987D01*
X125907537Y-70536918D01*
X125922001Y-70542909D01*
X125922000Y-72011679D01*
X125918324Y-72049002D01*
X125922000Y-72086324D01*
X125922000Y-72086334D01*
X125932997Y-72197987D01*
X125972655Y-72328725D01*
X125976454Y-72341248D01*
X126047026Y-72473278D01*
X126081950Y-72515832D01*
X126113189Y-72553898D01*
X125907537Y-72639082D01*
X125639748Y-72818013D01*
X125412013Y-73045748D01*
X125233082Y-73313537D01*
X125109832Y-73611088D01*
X125047000Y-73926967D01*
X125047000Y-74249033D01*
X125109832Y-74564912D01*
X125233082Y-74862463D01*
X125412013Y-75130252D01*
X125639748Y-75357987D01*
X125907537Y-75536918D01*
X126205088Y-75660168D01*
X126520967Y-75723000D01*
X126843033Y-75723000D01*
X127158912Y-75660168D01*
X127456463Y-75536918D01*
X127724252Y-75357987D01*
X127951987Y-75130252D01*
X128130918Y-74862463D01*
X128215782Y-74657585D01*
X133534199Y-79976003D01*
X133557998Y-80005002D01*
X133673723Y-80099975D01*
X133805752Y-80170547D01*
X133949013Y-80214004D01*
X134060666Y-80225001D01*
X134060675Y-80225001D01*
X134097998Y-80228677D01*
X134135321Y-80225001D01*
X145952200Y-80225001D01*
X152427126Y-86699928D01*
X151092000Y-86699928D01*
X150967518Y-86712188D01*
X150847820Y-86748498D01*
X150737506Y-86807463D01*
X150640815Y-86886815D01*
X150561463Y-86983506D01*
X150502498Y-87093820D01*
X150466188Y-87213518D01*
X150453928Y-87338000D01*
X150453928Y-87378000D01*
X146849322Y-87378000D01*
X146811999Y-87374324D01*
X146774676Y-87378000D01*
X146774667Y-87378000D01*
X146663014Y-87388997D01*
X146519753Y-87432454D01*
X146387724Y-87503026D01*
X146371685Y-87516189D01*
X146300996Y-87574201D01*
X146300992Y-87574205D01*
X146271999Y-87597999D01*
X146248205Y-87626992D01*
X145711402Y-88163795D01*
X145713943Y-88138000D01*
X145686236Y-87856691D01*
X145604182Y-87586192D01*
X145470932Y-87336899D01*
X145291608Y-87118392D01*
X145073101Y-86939068D01*
X144823808Y-86805818D01*
X144553309Y-86723764D01*
X144342492Y-86703000D01*
X144201508Y-86703000D01*
X143990691Y-86723764D01*
X143720192Y-86805818D01*
X143470899Y-86939068D01*
X143252392Y-87118392D01*
X143073068Y-87336899D01*
X142939818Y-87586192D01*
X142857764Y-87856691D01*
X142830057Y-88138000D01*
X142857764Y-88419309D01*
X142939818Y-88689808D01*
X143073068Y-88939101D01*
X143252392Y-89157608D01*
X143470899Y-89336932D01*
X143603858Y-89408000D01*
X143470899Y-89479068D01*
X143252392Y-89658392D01*
X143073068Y-89876899D01*
X142939818Y-90126192D01*
X142857764Y-90396691D01*
X142830057Y-90678000D01*
X142832598Y-90703796D01*
X141170803Y-89042002D01*
X141147000Y-89012998D01*
X141031275Y-88918025D01*
X140899246Y-88847453D01*
X140755985Y-88803996D01*
X140644332Y-88792999D01*
X140644321Y-88792999D01*
X140606999Y-88789323D01*
X140569677Y-88792999D01*
X138090072Y-88792999D01*
X138090072Y-87338000D01*
X138077812Y-87213518D01*
X138041502Y-87093820D01*
X137982537Y-86983506D01*
X137903185Y-86886815D01*
X137806494Y-86807463D01*
X137696180Y-86748498D01*
X137576482Y-86712188D01*
X137452000Y-86699928D01*
X135852000Y-86699928D01*
X135727518Y-86712188D01*
X135607820Y-86748498D01*
X135497506Y-86807463D01*
X135400815Y-86886815D01*
X135321463Y-86983506D01*
X135262498Y-87093820D01*
X135226188Y-87213518D01*
X135213928Y-87338000D01*
X135213928Y-87810128D01*
X131881804Y-84478005D01*
X131858001Y-84449001D01*
X131742276Y-84354028D01*
X131610247Y-84283456D01*
X131466986Y-84239999D01*
X131355333Y-84229002D01*
X131355322Y-84229002D01*
X131318000Y-84225326D01*
X131280678Y-84229002D01*
X122641805Y-84229002D01*
X121343206Y-82930404D01*
X121501013Y-82824962D01*
X121686962Y-82639013D01*
X121833061Y-82420359D01*
X121933696Y-82177405D01*
X121944850Y-82121329D01*
X124437284Y-82121329D01*
X124469953Y-82229044D01*
X124580208Y-82466392D01*
X124734649Y-82677670D01*
X124927340Y-82854759D01*
X125150877Y-82990853D01*
X125396670Y-83080722D01*
X125603000Y-82958201D01*
X125603000Y-81915000D01*
X125857000Y-81915000D01*
X125857000Y-82958201D01*
X126063330Y-83080722D01*
X126309123Y-82990853D01*
X126532660Y-82854759D01*
X126725351Y-82677670D01*
X126879792Y-82466392D01*
X126990047Y-82229044D01*
X127022716Y-82121329D01*
X126899374Y-81915000D01*
X125857000Y-81915000D01*
X125603000Y-81915000D01*
X124560626Y-81915000D01*
X124437284Y-82121329D01*
X121944850Y-82121329D01*
X121985000Y-81919486D01*
X121985000Y-81656514D01*
X121944851Y-81454671D01*
X124437284Y-81454671D01*
X124560626Y-81661000D01*
X125603000Y-81661000D01*
X125603000Y-80617799D01*
X125857000Y-80617799D01*
X125857000Y-81661000D01*
X126899374Y-81661000D01*
X127022716Y-81454671D01*
X126990047Y-81346956D01*
X126879792Y-81109608D01*
X126725351Y-80898330D01*
X126532660Y-80721241D01*
X126309123Y-80585147D01*
X126063330Y-80495278D01*
X125857000Y-80617799D01*
X125603000Y-80617799D01*
X125396670Y-80495278D01*
X125150877Y-80585147D01*
X124927340Y-80721241D01*
X124734649Y-80898330D01*
X124580208Y-81109608D01*
X124469953Y-81346956D01*
X124437284Y-81454671D01*
X121944851Y-81454671D01*
X121933696Y-81398595D01*
X121833061Y-81155641D01*
X121686962Y-80936987D01*
X121501013Y-80751038D01*
X121410000Y-80690225D01*
X121410000Y-75127239D01*
X121412013Y-75130252D01*
X121639748Y-75357987D01*
X121907537Y-75536918D01*
X122205088Y-75660168D01*
X122520967Y-75723000D01*
X122843033Y-75723000D01*
X123158912Y-75660168D01*
X123456463Y-75536918D01*
X123724252Y-75357987D01*
X123951987Y-75130252D01*
X124130918Y-74862463D01*
X124254168Y-74564912D01*
X124317000Y-74249033D01*
X124317000Y-73926967D01*
X124254168Y-73611088D01*
X124130918Y-73313537D01*
X123951987Y-73045748D01*
X123724252Y-72818013D01*
X123456463Y-72639082D01*
X123158912Y-72515832D01*
X122843033Y-72453000D01*
X122520967Y-72453000D01*
X122205088Y-72515832D01*
X121907537Y-72639082D01*
X121639748Y-72818013D01*
X121412013Y-73045748D01*
X121410000Y-73048761D01*
X121410000Y-70662632D01*
X121437820Y-70677502D01*
X121557518Y-70713812D01*
X121682000Y-70726072D01*
X123682000Y-70726072D01*
X123806482Y-70713812D01*
X123926180Y-70677502D01*
X124036494Y-70618537D01*
X124133185Y-70539185D01*
X124212537Y-70442494D01*
X124271502Y-70332180D01*
X124307812Y-70212482D01*
X124320072Y-70088000D01*
X124320072Y-68088000D01*
X124307812Y-67963518D01*
X124271502Y-67843820D01*
X124212537Y-67733506D01*
X124133185Y-67636815D01*
X124036494Y-67557463D01*
X123926180Y-67498498D01*
X123806482Y-67462188D01*
X123682000Y-67449928D01*
X121682000Y-67449928D01*
X121557518Y-67462188D01*
X121437820Y-67498498D01*
X121327506Y-67557463D01*
X121230815Y-67636815D01*
X121151463Y-67733506D01*
X121092498Y-67843820D01*
X121056188Y-67963518D01*
X121043928Y-68088000D01*
X121043928Y-68433674D01*
X121007723Y-68453026D01*
X120946830Y-68503000D01*
X120891999Y-68547999D01*
X120868201Y-68576997D01*
X120138998Y-69306201D01*
X120110000Y-69329999D01*
X120086202Y-69358997D01*
X120086201Y-69358998D01*
X120015026Y-69445724D01*
X119944454Y-69577754D01*
X119926028Y-69638499D01*
X119900998Y-69721014D01*
X119894150Y-69790538D01*
X119886324Y-69870000D01*
X119890001Y-69907332D01*
X119890000Y-80690225D01*
X119886000Y-80692898D01*
X119886000Y-79031322D01*
X119889676Y-78993999D01*
X119886000Y-78956676D01*
X119886000Y-78956667D01*
X119875003Y-78845014D01*
X119831546Y-78701753D01*
X119760974Y-78569724D01*
X119666001Y-78453999D01*
X119637003Y-78430201D01*
X118283874Y-77077073D01*
X118260071Y-77048069D01*
X118144346Y-76953096D01*
X118012317Y-76882524D01*
X117869056Y-76839067D01*
X117757403Y-76828070D01*
X117757392Y-76828070D01*
X117720070Y-76824394D01*
X117682748Y-76828070D01*
X117256872Y-76828070D01*
X115871803Y-75443002D01*
X115871799Y-75442997D01*
X112815804Y-72387003D01*
X112792001Y-72357999D01*
X112676276Y-72263026D01*
X112640072Y-72243674D01*
X112640072Y-72148000D01*
X112627812Y-72023518D01*
X112591502Y-71903820D01*
X112532537Y-71793506D01*
X112453185Y-71696815D01*
X112356494Y-71617463D01*
X112246180Y-71558498D01*
X112126482Y-71522188D01*
X112002000Y-71509928D01*
X110502000Y-71509928D01*
X110377518Y-71522188D01*
X110257820Y-71558498D01*
X110147506Y-71617463D01*
X110050815Y-71696815D01*
X109971463Y-71793506D01*
X109912498Y-71903820D01*
X109876188Y-72023518D01*
X109863928Y-72148000D01*
X109863928Y-73648000D01*
X109876188Y-73772482D01*
X109912498Y-73892180D01*
X109971463Y-74002494D01*
X110050815Y-74099185D01*
X110147506Y-74178537D01*
X110257820Y-74237502D01*
X110377518Y-74273812D01*
X110502000Y-74286072D01*
X112002000Y-74286072D01*
X112126482Y-74273812D01*
X112246180Y-74237502D01*
X112356494Y-74178537D01*
X112412101Y-74132902D01*
X114796997Y-76517799D01*
X114797002Y-76517803D01*
X116182071Y-77902873D01*
X116182071Y-78547270D01*
X116089000Y-78454199D01*
X116089000Y-78392061D01*
X116049226Y-78192102D01*
X115971205Y-78003744D01*
X115857937Y-77834226D01*
X115713774Y-77690063D01*
X115544256Y-77576795D01*
X115355898Y-77498774D01*
X115155939Y-77459000D01*
X115093803Y-77459000D01*
X112815804Y-75181003D01*
X112792001Y-75151999D01*
X112676276Y-75057026D01*
X112640072Y-75037674D01*
X112640072Y-74942000D01*
X112627812Y-74817518D01*
X112591502Y-74697820D01*
X112532537Y-74587506D01*
X112453185Y-74490815D01*
X112356494Y-74411463D01*
X112246180Y-74352498D01*
X112126482Y-74316188D01*
X112002000Y-74303928D01*
X110502000Y-74303928D01*
X110377518Y-74316188D01*
X110257820Y-74352498D01*
X110147506Y-74411463D01*
X110050815Y-74490815D01*
X109971463Y-74587506D01*
X109912498Y-74697820D01*
X109876188Y-74817518D01*
X109863928Y-74942000D01*
X109863928Y-76442000D01*
X109876188Y-76566482D01*
X109912498Y-76686180D01*
X109971463Y-76796494D01*
X110050815Y-76893185D01*
X110147506Y-76972537D01*
X110257820Y-77031502D01*
X110377518Y-77067812D01*
X110502000Y-77080072D01*
X112002000Y-77080072D01*
X112126482Y-77067812D01*
X112246180Y-77031502D01*
X112356494Y-76972537D01*
X112412101Y-76926902D01*
X114019000Y-78533803D01*
X114019000Y-78595939D01*
X114058774Y-78795898D01*
X114136795Y-78984256D01*
X114250063Y-79153774D01*
X114394226Y-79297937D01*
X114563744Y-79411205D01*
X114752102Y-79489226D01*
X114952061Y-79529000D01*
X115014199Y-79529000D01*
X115732061Y-80246863D01*
X115732061Y-80579609D01*
X115717205Y-80543744D01*
X115603937Y-80374226D01*
X115459774Y-80230063D01*
X115290256Y-80116795D01*
X115101898Y-80038774D01*
X114901939Y-79999000D01*
X114839802Y-79999000D01*
X112815804Y-77975003D01*
X112792001Y-77945999D01*
X112676276Y-77851026D01*
X112640072Y-77831674D01*
X112640072Y-77736000D01*
X112627812Y-77611518D01*
X112591502Y-77491820D01*
X112532537Y-77381506D01*
X112453185Y-77284815D01*
X112356494Y-77205463D01*
X112246180Y-77146498D01*
X112126482Y-77110188D01*
X112002000Y-77097928D01*
X110502000Y-77097928D01*
X110377518Y-77110188D01*
X110257820Y-77146498D01*
X110147506Y-77205463D01*
X110050815Y-77284815D01*
X109971463Y-77381506D01*
X109912498Y-77491820D01*
X109876188Y-77611518D01*
X109863928Y-77736000D01*
X109863928Y-79236000D01*
X109876188Y-79360482D01*
X109912498Y-79480180D01*
X109971463Y-79590494D01*
X110050815Y-79687185D01*
X110147506Y-79766537D01*
X110257820Y-79825502D01*
X110377518Y-79861812D01*
X110502000Y-79874072D01*
X112002000Y-79874072D01*
X112126482Y-79861812D01*
X112246180Y-79825502D01*
X112356494Y-79766537D01*
X112412101Y-79720902D01*
X113765000Y-81073802D01*
X113765000Y-81135939D01*
X113804774Y-81335898D01*
X113882795Y-81524256D01*
X113996063Y-81693774D01*
X114140226Y-81837937D01*
X114309744Y-81951205D01*
X114498102Y-82029226D01*
X114698061Y-82069000D01*
X114760199Y-82069000D01*
X115282051Y-82590853D01*
X115282051Y-82863171D01*
X115163256Y-82783795D01*
X114974898Y-82705774D01*
X114774939Y-82666000D01*
X114712802Y-82666000D01*
X112815804Y-80769003D01*
X112792001Y-80739999D01*
X112676276Y-80645026D01*
X112640072Y-80625674D01*
X112640072Y-80530000D01*
X112627812Y-80405518D01*
X112591502Y-80285820D01*
X112532537Y-80175506D01*
X112453185Y-80078815D01*
X112356494Y-79999463D01*
X112246180Y-79940498D01*
X112126482Y-79904188D01*
X112002000Y-79891928D01*
X110502000Y-79891928D01*
X110377518Y-79904188D01*
X110257820Y-79940498D01*
X110147506Y-79999463D01*
X110050815Y-80078815D01*
X109971463Y-80175506D01*
X109912498Y-80285820D01*
X109876188Y-80405518D01*
X109863928Y-80530000D01*
X109863928Y-82030000D01*
X109876188Y-82154482D01*
X109912498Y-82274180D01*
X109971463Y-82384494D01*
X110050815Y-82481185D01*
X110147506Y-82560537D01*
X110257820Y-82619502D01*
X110377518Y-82655812D01*
X110502000Y-82668072D01*
X112002000Y-82668072D01*
X112126482Y-82655812D01*
X112246180Y-82619502D01*
X112356494Y-82560537D01*
X112412101Y-82514902D01*
X113638000Y-83740802D01*
X113638000Y-83802939D01*
X113677774Y-84002898D01*
X113755795Y-84191256D01*
X113869063Y-84360774D01*
X114013226Y-84504937D01*
X114182744Y-84618205D01*
X114371102Y-84696226D01*
X114571061Y-84736000D01*
X114633198Y-84736000D01*
X114832041Y-84934843D01*
X114832041Y-85579239D01*
X114827000Y-85574198D01*
X114827000Y-85496061D01*
X114787226Y-85296102D01*
X114709205Y-85107744D01*
X114595937Y-84938226D01*
X114451774Y-84794063D01*
X114282256Y-84680795D01*
X114093898Y-84602774D01*
X113893939Y-84563000D01*
X113815801Y-84563000D01*
X112815804Y-83563003D01*
X112792001Y-83533999D01*
X112676276Y-83439026D01*
X112640072Y-83419674D01*
X112640072Y-83324000D01*
X112627812Y-83199518D01*
X112591502Y-83079820D01*
X112532537Y-82969506D01*
X112453185Y-82872815D01*
X112356494Y-82793463D01*
X112246180Y-82734498D01*
X112126482Y-82698188D01*
X112002000Y-82685928D01*
X110502000Y-82685928D01*
X110377518Y-82698188D01*
X110257820Y-82734498D01*
X110147506Y-82793463D01*
X110050815Y-82872815D01*
X109971463Y-82969506D01*
X109912498Y-83079820D01*
X109876188Y-83199518D01*
X109863928Y-83324000D01*
X109863928Y-84824000D01*
X109876188Y-84948482D01*
X109912498Y-85068180D01*
X109971463Y-85178494D01*
X110050815Y-85275185D01*
X110147506Y-85354537D01*
X110257820Y-85413502D01*
X110377518Y-85449812D01*
X110502000Y-85462072D01*
X112002000Y-85462072D01*
X112126482Y-85449812D01*
X112246180Y-85413502D01*
X112356494Y-85354537D01*
X112412101Y-85308902D01*
X112757000Y-85653801D01*
X112757000Y-85699939D01*
X112796774Y-85899898D01*
X112874795Y-86088256D01*
X112988063Y-86257774D01*
X113132226Y-86401937D01*
X113301744Y-86515205D01*
X113490102Y-86593226D01*
X113690061Y-86633000D01*
X113736198Y-86633000D01*
X113907997Y-86804799D01*
X113908002Y-86804803D01*
X114382031Y-87278833D01*
X114382031Y-87664912D01*
X114347898Y-87650774D01*
X114147939Y-87611000D01*
X114069802Y-87611000D01*
X112815804Y-86357003D01*
X112792001Y-86327999D01*
X112676276Y-86233026D01*
X112640072Y-86213674D01*
X112640072Y-86118000D01*
X112627812Y-85993518D01*
X112591502Y-85873820D01*
X112532537Y-85763506D01*
X112453185Y-85666815D01*
X112356494Y-85587463D01*
X112246180Y-85528498D01*
X112126482Y-85492188D01*
X112002000Y-85479928D01*
X110502000Y-85479928D01*
X110377518Y-85492188D01*
X110257820Y-85528498D01*
X110147506Y-85587463D01*
X110050815Y-85666815D01*
X109971463Y-85763506D01*
X109912498Y-85873820D01*
X109876188Y-85993518D01*
X109863928Y-86118000D01*
X109863928Y-87618000D01*
X109876188Y-87742482D01*
X109912498Y-87862180D01*
X109971463Y-87972494D01*
X110050815Y-88069185D01*
X110147506Y-88148537D01*
X110257820Y-88207502D01*
X110377518Y-88243812D01*
X110502000Y-88256072D01*
X112002000Y-88256072D01*
X112126482Y-88243812D01*
X112246180Y-88207502D01*
X112356494Y-88148537D01*
X112412101Y-88102902D01*
X113011000Y-88701802D01*
X113011000Y-88747939D01*
X113050774Y-88947898D01*
X113128795Y-89136256D01*
X113242063Y-89305774D01*
X113386226Y-89449937D01*
X113555744Y-89563205D01*
X113744102Y-89641226D01*
X113932021Y-89678605D01*
X113932021Y-89921697D01*
X113893256Y-89895795D01*
X113704898Y-89817774D01*
X113504939Y-89778000D01*
X113442802Y-89778000D01*
X112815804Y-89151003D01*
X112792001Y-89121999D01*
X112676276Y-89027026D01*
X112640072Y-89007674D01*
X112640072Y-88912000D01*
X112627812Y-88787518D01*
X112591502Y-88667820D01*
X112532537Y-88557506D01*
X112453185Y-88460815D01*
X112356494Y-88381463D01*
X112246180Y-88322498D01*
X112126482Y-88286188D01*
X112002000Y-88273928D01*
X110502000Y-88273928D01*
X110377518Y-88286188D01*
X110257820Y-88322498D01*
X110147506Y-88381463D01*
X110050815Y-88460815D01*
X109971463Y-88557506D01*
X109912498Y-88667820D01*
X109876188Y-88787518D01*
X109863928Y-88912000D01*
X109863928Y-90412000D01*
X109876188Y-90536482D01*
X109912498Y-90656180D01*
X109971463Y-90766494D01*
X110050815Y-90863185D01*
X110147506Y-90942537D01*
X110257820Y-91001502D01*
X110377518Y-91037812D01*
X110502000Y-91050072D01*
X112002000Y-91050072D01*
X112126482Y-91037812D01*
X112246180Y-91001502D01*
X112356494Y-90942537D01*
X112371105Y-90930547D01*
X112407774Y-91114898D01*
X112478514Y-91285679D01*
X112453185Y-91254815D01*
X112356494Y-91175463D01*
X112246180Y-91116498D01*
X112126482Y-91080188D01*
X112002000Y-91067928D01*
X110502000Y-91067928D01*
X110377518Y-91080188D01*
X110257820Y-91116498D01*
X110147506Y-91175463D01*
X110050815Y-91254815D01*
X109971463Y-91351506D01*
X109912498Y-91461820D01*
X109876188Y-91581518D01*
X109863928Y-91706000D01*
X109863928Y-93206000D01*
X109876188Y-93330482D01*
X109912498Y-93450180D01*
X109971463Y-93560494D01*
X110050815Y-93657185D01*
X110147506Y-93736537D01*
X110257820Y-93795502D01*
X110377518Y-93831812D01*
X110502000Y-93844072D01*
X110597674Y-93844072D01*
X110617026Y-93880276D01*
X110648581Y-93918725D01*
X110711999Y-93996001D01*
X110741003Y-94019804D01*
X111876000Y-95154802D01*
X111876000Y-95216939D01*
X111909614Y-95385928D01*
X110502000Y-95385928D01*
X110377518Y-95398188D01*
X110257820Y-95434498D01*
X110147506Y-95493463D01*
X110050815Y-95572815D01*
X109971463Y-95669506D01*
X109912498Y-95779820D01*
X109876188Y-95899518D01*
X109863928Y-96024000D01*
X109863928Y-97524000D01*
X109876188Y-97648482D01*
X109912498Y-97768180D01*
X109971463Y-97878494D01*
X110050815Y-97975185D01*
X110147506Y-98054537D01*
X110257820Y-98113502D01*
X110377518Y-98149812D01*
X110502000Y-98162072D01*
X111949544Y-98162072D01*
X111961653Y-98180195D01*
X111537750Y-98183000D01*
X111379000Y-98341750D01*
X111379000Y-99441000D01*
X112478250Y-99441000D01*
X112637000Y-99282250D01*
X112640072Y-98818000D01*
X112627812Y-98693518D01*
X112591502Y-98573820D01*
X112579993Y-98552289D01*
X112674061Y-98571000D01*
X112877939Y-98571000D01*
X113032001Y-98540355D01*
X113032000Y-127895255D01*
X113028324Y-127932577D01*
X113032000Y-127969899D01*
X113032000Y-127969909D01*
X113042997Y-128081562D01*
X113074761Y-128186276D01*
X113086454Y-128224823D01*
X113157026Y-128356853D01*
X113176967Y-128381151D01*
X113251999Y-128472578D01*
X113281003Y-128496381D01*
X113572622Y-128788000D01*
X113542817Y-128788000D01*
X113054026Y-128885226D01*
X112593595Y-129075943D01*
X112179219Y-129352820D01*
X111826820Y-129705219D01*
X111549943Y-130119595D01*
X111359226Y-130580026D01*
X111262000Y-131068817D01*
X111262000Y-131567183D01*
X111359226Y-132055974D01*
X111549943Y-132516405D01*
X111826820Y-132930781D01*
X112179219Y-133283180D01*
X112593595Y-133560057D01*
X113054026Y-133750774D01*
X113542817Y-133848000D01*
X114041183Y-133848000D01*
X114529974Y-133750774D01*
X114990405Y-133560057D01*
X115404781Y-133283180D01*
X115757180Y-132930781D01*
X115868811Y-132763714D01*
X115869366Y-132769353D01*
X115876633Y-132793311D01*
X115880713Y-132818021D01*
X115898315Y-132864788D01*
X115912822Y-132912614D01*
X115924628Y-132934701D01*
X115933447Y-132958133D01*
X115959833Y-133000564D01*
X115983394Y-133044644D01*
X115999283Y-133064004D01*
X116012503Y-133085264D01*
X116046662Y-133121736D01*
X116054569Y-133131370D01*
X116072181Y-133148982D01*
X116114841Y-133194530D01*
X116125031Y-133201832D01*
X118636198Y-135713000D01*
X112555505Y-135713000D01*
X111915657Y-135650262D01*
X111332405Y-135474168D01*
X110794469Y-135188143D01*
X110322333Y-134803078D01*
X109933981Y-134333641D01*
X109644206Y-133797713D01*
X109464044Y-133215705D01*
X109397000Y-132577811D01*
X109397000Y-100318000D01*
X109863928Y-100318000D01*
X109876188Y-100442482D01*
X109912498Y-100562180D01*
X109971463Y-100672494D01*
X110050815Y-100769185D01*
X110147506Y-100848537D01*
X110257820Y-100907502D01*
X110377518Y-100943812D01*
X110502000Y-100956072D01*
X110966250Y-100953000D01*
X111125000Y-100794250D01*
X111125000Y-99695000D01*
X111379000Y-99695000D01*
X111379000Y-100794250D01*
X111537750Y-100953000D01*
X112002000Y-100956072D01*
X112126482Y-100943812D01*
X112246180Y-100907502D01*
X112356494Y-100848537D01*
X112453185Y-100769185D01*
X112532537Y-100672494D01*
X112591502Y-100562180D01*
X112627812Y-100442482D01*
X112640072Y-100318000D01*
X112637000Y-99853750D01*
X112478250Y-99695000D01*
X111379000Y-99695000D01*
X111125000Y-99695000D01*
X110025750Y-99695000D01*
X109867000Y-99853750D01*
X109863928Y-100318000D01*
X109397000Y-100318000D01*
X109397000Y-98818000D01*
X109863928Y-98818000D01*
X109867000Y-99282250D01*
X110025750Y-99441000D01*
X111125000Y-99441000D01*
X111125000Y-98341750D01*
X110966250Y-98183000D01*
X110502000Y-98179928D01*
X110377518Y-98192188D01*
X110257820Y-98228498D01*
X110147506Y-98287463D01*
X110050815Y-98366815D01*
X109971463Y-98463506D01*
X109912498Y-98573820D01*
X109876188Y-98693518D01*
X109863928Y-98818000D01*
X109397000Y-98818000D01*
X109397000Y-66298817D01*
X111262000Y-66298817D01*
X111262000Y-66797183D01*
X111359226Y-67285974D01*
X111549943Y-67746405D01*
X111826820Y-68160781D01*
X112179219Y-68513180D01*
X112593595Y-68790057D01*
X113054026Y-68980774D01*
X113542817Y-69078000D01*
X114041183Y-69078000D01*
X114529974Y-68980774D01*
X114990405Y-68790057D01*
X115404781Y-68513180D01*
X115757180Y-68160781D01*
X116034057Y-67746405D01*
X116224774Y-67285974D01*
X116322000Y-66797183D01*
X116322000Y-66298817D01*
X116224774Y-65810026D01*
X116034057Y-65349595D01*
X115757180Y-64935219D01*
X115404781Y-64582820D01*
X114990405Y-64305943D01*
X114529974Y-64115226D01*
X114041183Y-64018000D01*
X113542817Y-64018000D01*
X113054026Y-64115226D01*
X112593595Y-64305943D01*
X112179219Y-64582820D01*
X111826820Y-64935219D01*
X111549943Y-65349595D01*
X111359226Y-65810026D01*
X111262000Y-66298817D01*
X109397000Y-66298817D01*
X109397000Y-65311504D01*
X109459738Y-64671656D01*
X109635832Y-64088405D01*
X109921856Y-63550471D01*
X110306922Y-63078333D01*
X110776359Y-62689981D01*
X111312286Y-62400206D01*
X111894291Y-62220045D01*
X112532189Y-62153000D01*
X177258496Y-62153000D01*
X177898344Y-62215738D01*
X177898344Y-62215738D01*
G37*
X177898344Y-62215738D02*
X178481595Y-62391832D01*
X179019529Y-62677856D01*
X179491667Y-63062922D01*
X179880019Y-63532359D01*
X180169794Y-64068286D01*
X180349955Y-64650291D01*
X180417000Y-65288189D01*
X180417000Y-71179224D01*
X178216291Y-68978516D01*
X178192488Y-68949512D01*
X178076763Y-68854539D01*
X177944734Y-68783967D01*
X177801473Y-68740510D01*
X177689820Y-68729513D01*
X177689809Y-68729513D01*
X177652487Y-68725837D01*
X177615165Y-68729513D01*
X177311016Y-68729513D01*
X177634781Y-68513180D01*
X177987180Y-68160781D01*
X178264057Y-67746405D01*
X178454774Y-67285974D01*
X178552000Y-66797183D01*
X178552000Y-66298817D01*
X178454774Y-65810026D01*
X178264057Y-65349595D01*
X177987180Y-64935219D01*
X177634781Y-64582820D01*
X177220405Y-64305943D01*
X176759974Y-64115226D01*
X176271183Y-64018000D01*
X175772817Y-64018000D01*
X175284026Y-64115226D01*
X174823595Y-64305943D01*
X174409219Y-64582820D01*
X174056820Y-64935219D01*
X173779943Y-65349595D01*
X173589226Y-65810026D01*
X173492000Y-66298817D01*
X173492000Y-66499199D01*
X173029804Y-66037003D01*
X173006001Y-66007999D01*
X172890276Y-65913026D01*
X172758247Y-65842454D01*
X172614986Y-65798997D01*
X172503333Y-65788000D01*
X172503322Y-65788000D01*
X172466000Y-65784324D01*
X172428678Y-65788000D01*
X169620043Y-65788000D01*
X169516637Y-65633241D01*
X169316759Y-65433363D01*
X169081727Y-65276320D01*
X168820574Y-65168147D01*
X168543335Y-65113000D01*
X168260665Y-65113000D01*
X167983426Y-65168147D01*
X167722273Y-65276320D01*
X167487241Y-65433363D01*
X167287363Y-65633241D01*
X167180481Y-65793202D01*
X167121644Y-65798997D01*
X166978383Y-65842454D01*
X166846354Y-65913026D01*
X166730629Y-66007999D01*
X166706831Y-66036997D01*
X165830828Y-66913001D01*
X164760072Y-66913001D01*
X164760072Y-65748000D01*
X164747812Y-65623518D01*
X164711502Y-65503820D01*
X164652537Y-65393506D01*
X164573185Y-65296815D01*
X164476494Y-65217463D01*
X164366180Y-65158498D01*
X164246482Y-65122188D01*
X164122000Y-65109928D01*
X162522000Y-65109928D01*
X162397518Y-65122188D01*
X162277820Y-65158498D01*
X162167506Y-65217463D01*
X162070815Y-65296815D01*
X161991463Y-65393506D01*
X161932498Y-65503820D01*
X161896188Y-65623518D01*
X161883928Y-65748000D01*
X161883928Y-66913001D01*
X160951802Y-66913001D01*
X160910688Y-66871887D01*
X160947000Y-66689335D01*
X160947000Y-66406665D01*
X160891853Y-66129426D01*
X160783680Y-65868273D01*
X160626637Y-65633241D01*
X160426759Y-65433363D01*
X160191727Y-65276320D01*
X159930574Y-65168147D01*
X159653335Y-65113000D01*
X159370665Y-65113000D01*
X159093426Y-65168147D01*
X158832273Y-65276320D01*
X158597241Y-65433363D01*
X158397363Y-65633241D01*
X158290481Y-65793202D01*
X158231644Y-65798997D01*
X158088383Y-65842454D01*
X157956354Y-65913026D01*
X157840629Y-66007999D01*
X157816831Y-66036997D01*
X156940828Y-66913001D01*
X155870072Y-66913001D01*
X155870072Y-65748000D01*
X155857812Y-65623518D01*
X155821502Y-65503820D01*
X155762537Y-65393506D01*
X155683185Y-65296815D01*
X155586494Y-65217463D01*
X155476180Y-65158498D01*
X155356482Y-65122188D01*
X155232000Y-65109928D01*
X153632000Y-65109928D01*
X153507518Y-65122188D01*
X153387820Y-65158498D01*
X153277506Y-65217463D01*
X153180815Y-65296815D01*
X153101463Y-65393506D01*
X153042498Y-65503820D01*
X153006188Y-65623518D01*
X152993928Y-65748000D01*
X152993928Y-66913001D01*
X152061802Y-66913001D01*
X152020688Y-66871887D01*
X152057000Y-66689335D01*
X152057000Y-66406665D01*
X152001853Y-66129426D01*
X151893680Y-65868273D01*
X151736637Y-65633241D01*
X151536759Y-65433363D01*
X151301727Y-65276320D01*
X151040574Y-65168147D01*
X150763335Y-65113000D01*
X150480665Y-65113000D01*
X150203426Y-65168147D01*
X149942273Y-65276320D01*
X149707241Y-65433363D01*
X149507363Y-65633241D01*
X149400481Y-65793202D01*
X149341644Y-65798997D01*
X149198383Y-65842454D01*
X149066354Y-65913026D01*
X148950629Y-66007999D01*
X148926831Y-66036997D01*
X148050828Y-66913001D01*
X146980072Y-66913001D01*
X146980072Y-65748000D01*
X146967812Y-65623518D01*
X146931502Y-65503820D01*
X146872537Y-65393506D01*
X146793185Y-65296815D01*
X146696494Y-65217463D01*
X146586180Y-65158498D01*
X146466482Y-65122188D01*
X146342000Y-65109928D01*
X144742000Y-65109928D01*
X144617518Y-65122188D01*
X144497820Y-65158498D01*
X144387506Y-65217463D01*
X144290815Y-65296815D01*
X144211463Y-65393506D01*
X144152498Y-65503820D01*
X144116188Y-65623518D01*
X144103928Y-65748000D01*
X144103928Y-66913001D01*
X143171802Y-66913001D01*
X143130688Y-66871887D01*
X143167000Y-66689335D01*
X143167000Y-66406665D01*
X143111853Y-66129426D01*
X143003680Y-65868273D01*
X142846637Y-65633241D01*
X142646759Y-65433363D01*
X142411727Y-65276320D01*
X142150574Y-65168147D01*
X141873335Y-65113000D01*
X141590665Y-65113000D01*
X141313426Y-65168147D01*
X141052273Y-65276320D01*
X140817241Y-65433363D01*
X140617363Y-65633241D01*
X140460320Y-65868273D01*
X140352147Y-66129426D01*
X140297000Y-66406665D01*
X140297000Y-66689335D01*
X140341491Y-66913001D01*
X138104324Y-66913001D01*
X138090072Y-66911597D01*
X138090072Y-65748000D01*
X138077812Y-65623518D01*
X138041502Y-65503820D01*
X137982537Y-65393506D01*
X137903185Y-65296815D01*
X137806494Y-65217463D01*
X137696180Y-65158498D01*
X137576482Y-65122188D01*
X137452000Y-65109928D01*
X135852000Y-65109928D01*
X135727518Y-65122188D01*
X135607820Y-65158498D01*
X135497506Y-65217463D01*
X135400815Y-65296815D01*
X135321463Y-65393506D01*
X135262498Y-65503820D01*
X135226188Y-65623518D01*
X135213928Y-65748000D01*
X135213928Y-67348000D01*
X135226188Y-67472482D01*
X135262498Y-67592180D01*
X135321463Y-67702494D01*
X135400815Y-67799185D01*
X135497506Y-67878537D01*
X135607820Y-67937502D01*
X135727518Y-67973812D01*
X135735961Y-67974643D01*
X135537363Y-68173241D01*
X135380320Y-68408273D01*
X135272147Y-68669426D01*
X135217000Y-68946665D01*
X135217000Y-69229335D01*
X135272147Y-69506574D01*
X135380320Y-69767727D01*
X135537363Y-70002759D01*
X135737241Y-70202637D01*
X135969759Y-70358000D01*
X135737241Y-70513363D01*
X135537363Y-70713241D01*
X135380320Y-70948273D01*
X135272147Y-71209426D01*
X135217000Y-71486665D01*
X135217000Y-71769335D01*
X135272147Y-72046574D01*
X135380320Y-72307727D01*
X135537363Y-72542759D01*
X135737241Y-72742637D01*
X135969759Y-72898000D01*
X135737241Y-73053363D01*
X135537363Y-73253241D01*
X135380320Y-73488273D01*
X135272147Y-73749426D01*
X135217000Y-74026665D01*
X135217000Y-74309335D01*
X135272147Y-74586574D01*
X135380320Y-74847727D01*
X135537363Y-75082759D01*
X135737241Y-75282637D01*
X135969759Y-75438000D01*
X135737241Y-75593363D01*
X135537363Y-75793241D01*
X135380320Y-76028273D01*
X135272147Y-76289426D01*
X135217000Y-76566665D01*
X135217000Y-76849335D01*
X135272147Y-77126574D01*
X135380320Y-77387727D01*
X135537363Y-77622759D01*
X135737241Y-77822637D01*
X135972273Y-77979680D01*
X136233426Y-78087853D01*
X136510665Y-78143000D01*
X136793335Y-78143000D01*
X136975887Y-78106688D01*
X137213197Y-78343998D01*
X137237000Y-78373002D01*
X137352725Y-78467975D01*
X137484754Y-78538547D01*
X137628015Y-78582004D01*
X137739668Y-78593001D01*
X137739677Y-78593001D01*
X137777000Y-78596677D01*
X137814323Y-78593001D01*
X141721963Y-78593001D01*
X141713000Y-78638061D01*
X141713000Y-78705001D01*
X134412801Y-78705001D01*
X131306736Y-75598937D01*
X131456463Y-75536918D01*
X131724252Y-75357987D01*
X131951987Y-75130252D01*
X132130918Y-74862463D01*
X132254168Y-74564912D01*
X132317000Y-74249033D01*
X132317000Y-73926967D01*
X132254168Y-73611088D01*
X132130918Y-73313537D01*
X131951987Y-73045748D01*
X131724252Y-72818013D01*
X131456463Y-72639082D01*
X131158912Y-72515832D01*
X130843033Y-72453000D01*
X130520967Y-72453000D01*
X130205088Y-72515832D01*
X129907537Y-72639082D01*
X129639748Y-72818013D01*
X129412013Y-73045748D01*
X129233082Y-73313537D01*
X129171063Y-73463264D01*
X127442000Y-71734201D01*
X127442000Y-70542909D01*
X127456463Y-70536918D01*
X127724252Y-70357987D01*
X127951987Y-70130252D01*
X128130918Y-69862463D01*
X128254168Y-69564912D01*
X128317000Y-69249033D01*
X128317000Y-68926967D01*
X129047000Y-68926967D01*
X129047000Y-69249033D01*
X129109832Y-69564912D01*
X129233082Y-69862463D01*
X129412013Y-70130252D01*
X129639748Y-70357987D01*
X129907537Y-70536918D01*
X130205088Y-70660168D01*
X130520967Y-70723000D01*
X130843033Y-70723000D01*
X131158912Y-70660168D01*
X131456463Y-70536918D01*
X131724252Y-70357987D01*
X131951987Y-70130252D01*
X132130918Y-69862463D01*
X132254168Y-69564912D01*
X132317000Y-69249033D01*
X132317000Y-68926967D01*
X132254168Y-68611088D01*
X132130918Y-68313537D01*
X131951987Y-68045748D01*
X131724252Y-67818013D01*
X131456463Y-67639082D01*
X131158912Y-67515832D01*
X130843033Y-67453000D01*
X130520967Y-67453000D01*
X130205088Y-67515832D01*
X129907537Y-67639082D01*
X129639748Y-67818013D01*
X129412013Y-68045748D01*
X129233082Y-68313537D01*
X129109832Y-68611088D01*
X129047000Y-68926967D01*
X128317000Y-68926967D01*
X128254168Y-68611088D01*
X128130918Y-68313537D01*
X127951987Y-68045748D01*
X127724252Y-67818013D01*
X127456463Y-67639082D01*
X127158912Y-67515832D01*
X126843033Y-67453000D01*
X126520967Y-67453000D01*
X126205088Y-67515832D01*
X125907537Y-67639082D01*
X125639748Y-67818013D01*
X125412013Y-68045748D01*
X125233082Y-68313537D01*
X125109832Y-68611088D01*
X125047000Y-68926967D01*
X125047000Y-69249033D01*
X125109832Y-69564912D01*
X125233082Y-69862463D01*
X125412013Y-70130252D01*
X125639748Y-70357987D01*
X125907537Y-70536918D01*
X125922001Y-70542909D01*
X125922000Y-72011679D01*
X125918324Y-72049002D01*
X125922000Y-72086324D01*
X125922000Y-72086334D01*
X125932997Y-72197987D01*
X125972655Y-72328725D01*
X125976454Y-72341248D01*
X126047026Y-72473278D01*
X126081950Y-72515832D01*
X126113189Y-72553898D01*
X125907537Y-72639082D01*
X125639748Y-72818013D01*
X125412013Y-73045748D01*
X125233082Y-73313537D01*
X125109832Y-73611088D01*
X125047000Y-73926967D01*
X125047000Y-74249033D01*
X125109832Y-74564912D01*
X125233082Y-74862463D01*
X125412013Y-75130252D01*
X125639748Y-75357987D01*
X125907537Y-75536918D01*
X126205088Y-75660168D01*
X126520967Y-75723000D01*
X126843033Y-75723000D01*
X127158912Y-75660168D01*
X127456463Y-75536918D01*
X127724252Y-75357987D01*
X127951987Y-75130252D01*
X128130918Y-74862463D01*
X128215782Y-74657585D01*
X133534199Y-79976003D01*
X133557998Y-80005002D01*
X133673723Y-80099975D01*
X133805752Y-80170547D01*
X133949013Y-80214004D01*
X134060666Y-80225001D01*
X134060675Y-80225001D01*
X134097998Y-80228677D01*
X134135321Y-80225001D01*
X145952200Y-80225001D01*
X152427126Y-86699928D01*
X151092000Y-86699928D01*
X150967518Y-86712188D01*
X150847820Y-86748498D01*
X150737506Y-86807463D01*
X150640815Y-86886815D01*
X150561463Y-86983506D01*
X150502498Y-87093820D01*
X150466188Y-87213518D01*
X150453928Y-87338000D01*
X150453928Y-87378000D01*
X146849322Y-87378000D01*
X146811999Y-87374324D01*
X146774676Y-87378000D01*
X146774667Y-87378000D01*
X146663014Y-87388997D01*
X146519753Y-87432454D01*
X146387724Y-87503026D01*
X146371685Y-87516189D01*
X146300996Y-87574201D01*
X146300992Y-87574205D01*
X146271999Y-87597999D01*
X146248205Y-87626992D01*
X145711402Y-88163795D01*
X145713943Y-88138000D01*
X145686236Y-87856691D01*
X145604182Y-87586192D01*
X145470932Y-87336899D01*
X145291608Y-87118392D01*
X145073101Y-86939068D01*
X144823808Y-86805818D01*
X144553309Y-86723764D01*
X144342492Y-86703000D01*
X144201508Y-86703000D01*
X143990691Y-86723764D01*
X143720192Y-86805818D01*
X143470899Y-86939068D01*
X143252392Y-87118392D01*
X143073068Y-87336899D01*
X142939818Y-87586192D01*
X142857764Y-87856691D01*
X142830057Y-88138000D01*
X142857764Y-88419309D01*
X142939818Y-88689808D01*
X143073068Y-88939101D01*
X143252392Y-89157608D01*
X143470899Y-89336932D01*
X143603858Y-89408000D01*
X143470899Y-89479068D01*
X143252392Y-89658392D01*
X143073068Y-89876899D01*
X142939818Y-90126192D01*
X142857764Y-90396691D01*
X142830057Y-90678000D01*
X142832598Y-90703796D01*
X141170803Y-89042002D01*
X141147000Y-89012998D01*
X141031275Y-88918025D01*
X140899246Y-88847453D01*
X140755985Y-88803996D01*
X140644332Y-88792999D01*
X140644321Y-88792999D01*
X140606999Y-88789323D01*
X140569677Y-88792999D01*
X138090072Y-88792999D01*
X138090072Y-87338000D01*
X138077812Y-87213518D01*
X138041502Y-87093820D01*
X137982537Y-86983506D01*
X137903185Y-86886815D01*
X137806494Y-86807463D01*
X137696180Y-86748498D01*
X137576482Y-86712188D01*
X137452000Y-86699928D01*
X135852000Y-86699928D01*
X135727518Y-86712188D01*
X135607820Y-86748498D01*
X135497506Y-86807463D01*
X135400815Y-86886815D01*
X135321463Y-86983506D01*
X135262498Y-87093820D01*
X135226188Y-87213518D01*
X135213928Y-87338000D01*
X135213928Y-87810128D01*
X131881804Y-84478005D01*
X131858001Y-84449001D01*
X131742276Y-84354028D01*
X131610247Y-84283456D01*
X131466986Y-84239999D01*
X131355333Y-84229002D01*
X131355322Y-84229002D01*
X131318000Y-84225326D01*
X131280678Y-84229002D01*
X122641805Y-84229002D01*
X121343206Y-82930404D01*
X121501013Y-82824962D01*
X121686962Y-82639013D01*
X121833061Y-82420359D01*
X121933696Y-82177405D01*
X121944850Y-82121329D01*
X124437284Y-82121329D01*
X124469953Y-82229044D01*
X124580208Y-82466392D01*
X124734649Y-82677670D01*
X124927340Y-82854759D01*
X125150877Y-82990853D01*
X125396670Y-83080722D01*
X125603000Y-82958201D01*
X125603000Y-81915000D01*
X125857000Y-81915000D01*
X125857000Y-82958201D01*
X126063330Y-83080722D01*
X126309123Y-82990853D01*
X126532660Y-82854759D01*
X126725351Y-82677670D01*
X126879792Y-82466392D01*
X126990047Y-82229044D01*
X127022716Y-82121329D01*
X126899374Y-81915000D01*
X125857000Y-81915000D01*
X125603000Y-81915000D01*
X124560626Y-81915000D01*
X124437284Y-82121329D01*
X121944850Y-82121329D01*
X121985000Y-81919486D01*
X121985000Y-81656514D01*
X121944851Y-81454671D01*
X124437284Y-81454671D01*
X124560626Y-81661000D01*
X125603000Y-81661000D01*
X125603000Y-80617799D01*
X125857000Y-80617799D01*
X125857000Y-81661000D01*
X126899374Y-81661000D01*
X127022716Y-81454671D01*
X126990047Y-81346956D01*
X126879792Y-81109608D01*
X126725351Y-80898330D01*
X126532660Y-80721241D01*
X126309123Y-80585147D01*
X126063330Y-80495278D01*
X125857000Y-80617799D01*
X125603000Y-80617799D01*
X125396670Y-80495278D01*
X125150877Y-80585147D01*
X124927340Y-80721241D01*
X124734649Y-80898330D01*
X124580208Y-81109608D01*
X124469953Y-81346956D01*
X124437284Y-81454671D01*
X121944851Y-81454671D01*
X121933696Y-81398595D01*
X121833061Y-81155641D01*
X121686962Y-80936987D01*
X121501013Y-80751038D01*
X121410000Y-80690225D01*
X121410000Y-75127239D01*
X121412013Y-75130252D01*
X121639748Y-75357987D01*
X121907537Y-75536918D01*
X122205088Y-75660168D01*
X122520967Y-75723000D01*
X122843033Y-75723000D01*
X123158912Y-75660168D01*
X123456463Y-75536918D01*
X123724252Y-75357987D01*
X123951987Y-75130252D01*
X124130918Y-74862463D01*
X124254168Y-74564912D01*
X124317000Y-74249033D01*
X124317000Y-73926967D01*
X124254168Y-73611088D01*
X124130918Y-73313537D01*
X123951987Y-73045748D01*
X123724252Y-72818013D01*
X123456463Y-72639082D01*
X123158912Y-72515832D01*
X122843033Y-72453000D01*
X122520967Y-72453000D01*
X122205088Y-72515832D01*
X121907537Y-72639082D01*
X121639748Y-72818013D01*
X121412013Y-73045748D01*
X121410000Y-73048761D01*
X121410000Y-70662632D01*
X121437820Y-70677502D01*
X121557518Y-70713812D01*
X121682000Y-70726072D01*
X123682000Y-70726072D01*
X123806482Y-70713812D01*
X123926180Y-70677502D01*
X124036494Y-70618537D01*
X124133185Y-70539185D01*
X124212537Y-70442494D01*
X124271502Y-70332180D01*
X124307812Y-70212482D01*
X124320072Y-70088000D01*
X124320072Y-68088000D01*
X124307812Y-67963518D01*
X124271502Y-67843820D01*
X124212537Y-67733506D01*
X124133185Y-67636815D01*
X124036494Y-67557463D01*
X123926180Y-67498498D01*
X123806482Y-67462188D01*
X123682000Y-67449928D01*
X121682000Y-67449928D01*
X121557518Y-67462188D01*
X121437820Y-67498498D01*
X121327506Y-67557463D01*
X121230815Y-67636815D01*
X121151463Y-67733506D01*
X121092498Y-67843820D01*
X121056188Y-67963518D01*
X121043928Y-68088000D01*
X121043928Y-68433674D01*
X121007723Y-68453026D01*
X120946830Y-68503000D01*
X120891999Y-68547999D01*
X120868201Y-68576997D01*
X120138998Y-69306201D01*
X120110000Y-69329999D01*
X120086202Y-69358997D01*
X120086201Y-69358998D01*
X120015026Y-69445724D01*
X119944454Y-69577754D01*
X119926028Y-69638499D01*
X119900998Y-69721014D01*
X119894150Y-69790538D01*
X119886324Y-69870000D01*
X119890001Y-69907332D01*
X119890000Y-80690225D01*
X119886000Y-80692898D01*
X119886000Y-79031322D01*
X119889676Y-78993999D01*
X119886000Y-78956676D01*
X119886000Y-78956667D01*
X119875003Y-78845014D01*
X119831546Y-78701753D01*
X119760974Y-78569724D01*
X119666001Y-78453999D01*
X119637003Y-78430201D01*
X118283874Y-77077073D01*
X118260071Y-77048069D01*
X118144346Y-76953096D01*
X118012317Y-76882524D01*
X117869056Y-76839067D01*
X117757403Y-76828070D01*
X117757392Y-76828070D01*
X117720070Y-76824394D01*
X117682748Y-76828070D01*
X117256872Y-76828070D01*
X115871803Y-75443002D01*
X115871799Y-75442997D01*
X112815804Y-72387003D01*
X112792001Y-72357999D01*
X112676276Y-72263026D01*
X112640072Y-72243674D01*
X112640072Y-72148000D01*
X112627812Y-72023518D01*
X112591502Y-71903820D01*
X112532537Y-71793506D01*
X112453185Y-71696815D01*
X112356494Y-71617463D01*
X112246180Y-71558498D01*
X112126482Y-71522188D01*
X112002000Y-71509928D01*
X110502000Y-71509928D01*
X110377518Y-71522188D01*
X110257820Y-71558498D01*
X110147506Y-71617463D01*
X110050815Y-71696815D01*
X109971463Y-71793506D01*
X109912498Y-71903820D01*
X109876188Y-72023518D01*
X109863928Y-72148000D01*
X109863928Y-73648000D01*
X109876188Y-73772482D01*
X109912498Y-73892180D01*
X109971463Y-74002494D01*
X110050815Y-74099185D01*
X110147506Y-74178537D01*
X110257820Y-74237502D01*
X110377518Y-74273812D01*
X110502000Y-74286072D01*
X112002000Y-74286072D01*
X112126482Y-74273812D01*
X112246180Y-74237502D01*
X112356494Y-74178537D01*
X112412101Y-74132902D01*
X114796997Y-76517799D01*
X114797002Y-76517803D01*
X116182071Y-77902873D01*
X116182071Y-78547270D01*
X116089000Y-78454199D01*
X116089000Y-78392061D01*
X116049226Y-78192102D01*
X115971205Y-78003744D01*
X115857937Y-77834226D01*
X115713774Y-77690063D01*
X115544256Y-77576795D01*
X115355898Y-77498774D01*
X115155939Y-77459000D01*
X115093803Y-77459000D01*
X112815804Y-75181003D01*
X112792001Y-75151999D01*
X112676276Y-75057026D01*
X112640072Y-75037674D01*
X112640072Y-74942000D01*
X112627812Y-74817518D01*
X112591502Y-74697820D01*
X112532537Y-74587506D01*
X112453185Y-74490815D01*
X112356494Y-74411463D01*
X112246180Y-74352498D01*
X112126482Y-74316188D01*
X112002000Y-74303928D01*
X110502000Y-74303928D01*
X110377518Y-74316188D01*
X110257820Y-74352498D01*
X110147506Y-74411463D01*
X110050815Y-74490815D01*
X109971463Y-74587506D01*
X109912498Y-74697820D01*
X109876188Y-74817518D01*
X109863928Y-74942000D01*
X109863928Y-76442000D01*
X109876188Y-76566482D01*
X109912498Y-76686180D01*
X109971463Y-76796494D01*
X110050815Y-76893185D01*
X110147506Y-76972537D01*
X110257820Y-77031502D01*
X110377518Y-77067812D01*
X110502000Y-77080072D01*
X112002000Y-77080072D01*
X112126482Y-77067812D01*
X112246180Y-77031502D01*
X112356494Y-76972537D01*
X112412101Y-76926902D01*
X114019000Y-78533803D01*
X114019000Y-78595939D01*
X114058774Y-78795898D01*
X114136795Y-78984256D01*
X114250063Y-79153774D01*
X114394226Y-79297937D01*
X114563744Y-79411205D01*
X114752102Y-79489226D01*
X114952061Y-79529000D01*
X115014199Y-79529000D01*
X115732061Y-80246863D01*
X115732061Y-80579609D01*
X115717205Y-80543744D01*
X115603937Y-80374226D01*
X115459774Y-80230063D01*
X115290256Y-80116795D01*
X115101898Y-80038774D01*
X114901939Y-79999000D01*
X114839802Y-79999000D01*
X112815804Y-77975003D01*
X112792001Y-77945999D01*
X112676276Y-77851026D01*
X112640072Y-77831674D01*
X112640072Y-77736000D01*
X112627812Y-77611518D01*
X112591502Y-77491820D01*
X112532537Y-77381506D01*
X112453185Y-77284815D01*
X112356494Y-77205463D01*
X112246180Y-77146498D01*
X112126482Y-77110188D01*
X112002000Y-77097928D01*
X110502000Y-77097928D01*
X110377518Y-77110188D01*
X110257820Y-77146498D01*
X110147506Y-77205463D01*
X110050815Y-77284815D01*
X109971463Y-77381506D01*
X109912498Y-77491820D01*
X109876188Y-77611518D01*
X109863928Y-77736000D01*
X109863928Y-79236000D01*
X109876188Y-79360482D01*
X109912498Y-79480180D01*
X109971463Y-79590494D01*
X110050815Y-79687185D01*
X110147506Y-79766537D01*
X110257820Y-79825502D01*
X110377518Y-79861812D01*
X110502000Y-79874072D01*
X112002000Y-79874072D01*
X112126482Y-79861812D01*
X112246180Y-79825502D01*
X112356494Y-79766537D01*
X112412101Y-79720902D01*
X113765000Y-81073802D01*
X113765000Y-81135939D01*
X113804774Y-81335898D01*
X113882795Y-81524256D01*
X113996063Y-81693774D01*
X114140226Y-81837937D01*
X114309744Y-81951205D01*
X114498102Y-82029226D01*
X114698061Y-82069000D01*
X114760199Y-82069000D01*
X115282051Y-82590853D01*
X115282051Y-82863171D01*
X115163256Y-82783795D01*
X114974898Y-82705774D01*
X114774939Y-82666000D01*
X114712802Y-82666000D01*
X112815804Y-80769003D01*
X112792001Y-80739999D01*
X112676276Y-80645026D01*
X112640072Y-80625674D01*
X112640072Y-80530000D01*
X112627812Y-80405518D01*
X112591502Y-80285820D01*
X112532537Y-80175506D01*
X112453185Y-80078815D01*
X112356494Y-79999463D01*
X112246180Y-79940498D01*
X112126482Y-79904188D01*
X112002000Y-79891928D01*
X110502000Y-79891928D01*
X110377518Y-79904188D01*
X110257820Y-79940498D01*
X110147506Y-79999463D01*
X110050815Y-80078815D01*
X109971463Y-80175506D01*
X109912498Y-80285820D01*
X109876188Y-80405518D01*
X109863928Y-80530000D01*
X109863928Y-82030000D01*
X109876188Y-82154482D01*
X109912498Y-82274180D01*
X109971463Y-82384494D01*
X110050815Y-82481185D01*
X110147506Y-82560537D01*
X110257820Y-82619502D01*
X110377518Y-82655812D01*
X110502000Y-82668072D01*
X112002000Y-82668072D01*
X112126482Y-82655812D01*
X112246180Y-82619502D01*
X112356494Y-82560537D01*
X112412101Y-82514902D01*
X113638000Y-83740802D01*
X113638000Y-83802939D01*
X113677774Y-84002898D01*
X113755795Y-84191256D01*
X113869063Y-84360774D01*
X114013226Y-84504937D01*
X114182744Y-84618205D01*
X114371102Y-84696226D01*
X114571061Y-84736000D01*
X114633198Y-84736000D01*
X114832041Y-84934843D01*
X114832041Y-85579239D01*
X114827000Y-85574198D01*
X114827000Y-85496061D01*
X114787226Y-85296102D01*
X114709205Y-85107744D01*
X114595937Y-84938226D01*
X114451774Y-84794063D01*
X114282256Y-84680795D01*
X114093898Y-84602774D01*
X113893939Y-84563000D01*
X113815801Y-84563000D01*
X112815804Y-83563003D01*
X112792001Y-83533999D01*
X112676276Y-83439026D01*
X112640072Y-83419674D01*
X112640072Y-83324000D01*
X112627812Y-83199518D01*
X112591502Y-83079820D01*
X112532537Y-82969506D01*
X112453185Y-82872815D01*
X112356494Y-82793463D01*
X112246180Y-82734498D01*
X112126482Y-82698188D01*
X112002000Y-82685928D01*
X110502000Y-82685928D01*
X110377518Y-82698188D01*
X110257820Y-82734498D01*
X110147506Y-82793463D01*
X110050815Y-82872815D01*
X109971463Y-82969506D01*
X109912498Y-83079820D01*
X109876188Y-83199518D01*
X109863928Y-83324000D01*
X109863928Y-84824000D01*
X109876188Y-84948482D01*
X109912498Y-85068180D01*
X109971463Y-85178494D01*
X110050815Y-85275185D01*
X110147506Y-85354537D01*
X110257820Y-85413502D01*
X110377518Y-85449812D01*
X110502000Y-85462072D01*
X112002000Y-85462072D01*
X112126482Y-85449812D01*
X112246180Y-85413502D01*
X112356494Y-85354537D01*
X112412101Y-85308902D01*
X112757000Y-85653801D01*
X112757000Y-85699939D01*
X112796774Y-85899898D01*
X112874795Y-86088256D01*
X112988063Y-86257774D01*
X113132226Y-86401937D01*
X113301744Y-86515205D01*
X113490102Y-86593226D01*
X113690061Y-86633000D01*
X113736198Y-86633000D01*
X113907997Y-86804799D01*
X113908002Y-86804803D01*
X114382031Y-87278833D01*
X114382031Y-87664912D01*
X114347898Y-87650774D01*
X114147939Y-87611000D01*
X114069802Y-87611000D01*
X112815804Y-86357003D01*
X112792001Y-86327999D01*
X112676276Y-86233026D01*
X112640072Y-86213674D01*
X112640072Y-86118000D01*
X112627812Y-85993518D01*
X112591502Y-85873820D01*
X112532537Y-85763506D01*
X112453185Y-85666815D01*
X112356494Y-85587463D01*
X112246180Y-85528498D01*
X112126482Y-85492188D01*
X112002000Y-85479928D01*
X110502000Y-85479928D01*
X110377518Y-85492188D01*
X110257820Y-85528498D01*
X110147506Y-85587463D01*
X110050815Y-85666815D01*
X109971463Y-85763506D01*
X109912498Y-85873820D01*
X109876188Y-85993518D01*
X109863928Y-86118000D01*
X109863928Y-87618000D01*
X109876188Y-87742482D01*
X109912498Y-87862180D01*
X109971463Y-87972494D01*
X110050815Y-88069185D01*
X110147506Y-88148537D01*
X110257820Y-88207502D01*
X110377518Y-88243812D01*
X110502000Y-88256072D01*
X112002000Y-88256072D01*
X112126482Y-88243812D01*
X112246180Y-88207502D01*
X112356494Y-88148537D01*
X112412101Y-88102902D01*
X113011000Y-88701802D01*
X113011000Y-88747939D01*
X113050774Y-88947898D01*
X113128795Y-89136256D01*
X113242063Y-89305774D01*
X113386226Y-89449937D01*
X113555744Y-89563205D01*
X113744102Y-89641226D01*
X113932021Y-89678605D01*
X113932021Y-89921697D01*
X113893256Y-89895795D01*
X113704898Y-89817774D01*
X113504939Y-89778000D01*
X113442802Y-89778000D01*
X112815804Y-89151003D01*
X112792001Y-89121999D01*
X112676276Y-89027026D01*
X112640072Y-89007674D01*
X112640072Y-88912000D01*
X112627812Y-88787518D01*
X112591502Y-88667820D01*
X112532537Y-88557506D01*
X112453185Y-88460815D01*
X112356494Y-88381463D01*
X112246180Y-88322498D01*
X112126482Y-88286188D01*
X112002000Y-88273928D01*
X110502000Y-88273928D01*
X110377518Y-88286188D01*
X110257820Y-88322498D01*
X110147506Y-88381463D01*
X110050815Y-88460815D01*
X109971463Y-88557506D01*
X109912498Y-88667820D01*
X109876188Y-88787518D01*
X109863928Y-88912000D01*
X109863928Y-90412000D01*
X109876188Y-90536482D01*
X109912498Y-90656180D01*
X109971463Y-90766494D01*
X110050815Y-90863185D01*
X110147506Y-90942537D01*
X110257820Y-91001502D01*
X110377518Y-91037812D01*
X110502000Y-91050072D01*
X112002000Y-91050072D01*
X112126482Y-91037812D01*
X112246180Y-91001502D01*
X112356494Y-90942537D01*
X112371105Y-90930547D01*
X112407774Y-91114898D01*
X112478514Y-91285679D01*
X112453185Y-91254815D01*
X112356494Y-91175463D01*
X112246180Y-91116498D01*
X112126482Y-91080188D01*
X112002000Y-91067928D01*
X110502000Y-91067928D01*
X110377518Y-91080188D01*
X110257820Y-91116498D01*
X110147506Y-91175463D01*
X110050815Y-91254815D01*
X109971463Y-91351506D01*
X109912498Y-91461820D01*
X109876188Y-91581518D01*
X109863928Y-91706000D01*
X109863928Y-93206000D01*
X109876188Y-93330482D01*
X109912498Y-93450180D01*
X109971463Y-93560494D01*
X110050815Y-93657185D01*
X110147506Y-93736537D01*
X110257820Y-93795502D01*
X110377518Y-93831812D01*
X110502000Y-93844072D01*
X110597674Y-93844072D01*
X110617026Y-93880276D01*
X110648581Y-93918725D01*
X110711999Y-93996001D01*
X110741003Y-94019804D01*
X111876000Y-95154802D01*
X111876000Y-95216939D01*
X111909614Y-95385928D01*
X110502000Y-95385928D01*
X110377518Y-95398188D01*
X110257820Y-95434498D01*
X110147506Y-95493463D01*
X110050815Y-95572815D01*
X109971463Y-95669506D01*
X109912498Y-95779820D01*
X109876188Y-95899518D01*
X109863928Y-96024000D01*
X109863928Y-97524000D01*
X109876188Y-97648482D01*
X109912498Y-97768180D01*
X109971463Y-97878494D01*
X110050815Y-97975185D01*
X110147506Y-98054537D01*
X110257820Y-98113502D01*
X110377518Y-98149812D01*
X110502000Y-98162072D01*
X111949544Y-98162072D01*
X111961653Y-98180195D01*
X111537750Y-98183000D01*
X111379000Y-98341750D01*
X111379000Y-99441000D01*
X112478250Y-99441000D01*
X112637000Y-99282250D01*
X112640072Y-98818000D01*
X112627812Y-98693518D01*
X112591502Y-98573820D01*
X112579993Y-98552289D01*
X112674061Y-98571000D01*
X112877939Y-98571000D01*
X113032001Y-98540355D01*
X113032000Y-127895255D01*
X113028324Y-127932577D01*
X113032000Y-127969899D01*
X113032000Y-127969909D01*
X113042997Y-128081562D01*
X113074761Y-128186276D01*
X113086454Y-128224823D01*
X113157026Y-128356853D01*
X113176967Y-128381151D01*
X113251999Y-128472578D01*
X113281003Y-128496381D01*
X113572622Y-128788000D01*
X113542817Y-128788000D01*
X113054026Y-128885226D01*
X112593595Y-129075943D01*
X112179219Y-129352820D01*
X111826820Y-129705219D01*
X111549943Y-130119595D01*
X111359226Y-130580026D01*
X111262000Y-131068817D01*
X111262000Y-131567183D01*
X111359226Y-132055974D01*
X111549943Y-132516405D01*
X111826820Y-132930781D01*
X112179219Y-133283180D01*
X112593595Y-133560057D01*
X113054026Y-133750774D01*
X113542817Y-133848000D01*
X114041183Y-133848000D01*
X114529974Y-133750774D01*
X114990405Y-133560057D01*
X115404781Y-133283180D01*
X115757180Y-132930781D01*
X115868811Y-132763714D01*
X115869366Y-132769353D01*
X115876633Y-132793311D01*
X115880713Y-132818021D01*
X115898315Y-132864788D01*
X115912822Y-132912614D01*
X115924628Y-132934701D01*
X115933447Y-132958133D01*
X115959833Y-133000564D01*
X115983394Y-133044644D01*
X115999283Y-133064004D01*
X116012503Y-133085264D01*
X116046662Y-133121736D01*
X116054569Y-133131370D01*
X116072181Y-133148982D01*
X116114841Y-133194530D01*
X116125031Y-133201832D01*
X118636198Y-135713000D01*
X112555505Y-135713000D01*
X111915657Y-135650262D01*
X111332405Y-135474168D01*
X110794469Y-135188143D01*
X110322333Y-134803078D01*
X109933981Y-134333641D01*
X109644206Y-133797713D01*
X109464044Y-133215705D01*
X109397000Y-132577811D01*
X109397000Y-100318000D01*
X109863928Y-100318000D01*
X109876188Y-100442482D01*
X109912498Y-100562180D01*
X109971463Y-100672494D01*
X110050815Y-100769185D01*
X110147506Y-100848537D01*
X110257820Y-100907502D01*
X110377518Y-100943812D01*
X110502000Y-100956072D01*
X110966250Y-100953000D01*
X111125000Y-100794250D01*
X111125000Y-99695000D01*
X111379000Y-99695000D01*
X111379000Y-100794250D01*
X111537750Y-100953000D01*
X112002000Y-100956072D01*
X112126482Y-100943812D01*
X112246180Y-100907502D01*
X112356494Y-100848537D01*
X112453185Y-100769185D01*
X112532537Y-100672494D01*
X112591502Y-100562180D01*
X112627812Y-100442482D01*
X112640072Y-100318000D01*
X112637000Y-99853750D01*
X112478250Y-99695000D01*
X111379000Y-99695000D01*
X111125000Y-99695000D01*
X110025750Y-99695000D01*
X109867000Y-99853750D01*
X109863928Y-100318000D01*
X109397000Y-100318000D01*
X109397000Y-98818000D01*
X109863928Y-98818000D01*
X109867000Y-99282250D01*
X110025750Y-99441000D01*
X111125000Y-99441000D01*
X111125000Y-98341750D01*
X110966250Y-98183000D01*
X110502000Y-98179928D01*
X110377518Y-98192188D01*
X110257820Y-98228498D01*
X110147506Y-98287463D01*
X110050815Y-98366815D01*
X109971463Y-98463506D01*
X109912498Y-98573820D01*
X109876188Y-98693518D01*
X109863928Y-98818000D01*
X109397000Y-98818000D01*
X109397000Y-66298817D01*
X111262000Y-66298817D01*
X111262000Y-66797183D01*
X111359226Y-67285974D01*
X111549943Y-67746405D01*
X111826820Y-68160781D01*
X112179219Y-68513180D01*
X112593595Y-68790057D01*
X113054026Y-68980774D01*
X113542817Y-69078000D01*
X114041183Y-69078000D01*
X114529974Y-68980774D01*
X114990405Y-68790057D01*
X115404781Y-68513180D01*
X115757180Y-68160781D01*
X116034057Y-67746405D01*
X116224774Y-67285974D01*
X116322000Y-66797183D01*
X116322000Y-66298817D01*
X116224774Y-65810026D01*
X116034057Y-65349595D01*
X115757180Y-64935219D01*
X115404781Y-64582820D01*
X114990405Y-64305943D01*
X114529974Y-64115226D01*
X114041183Y-64018000D01*
X113542817Y-64018000D01*
X113054026Y-64115226D01*
X112593595Y-64305943D01*
X112179219Y-64582820D01*
X111826820Y-64935219D01*
X111549943Y-65349595D01*
X111359226Y-65810026D01*
X111262000Y-66298817D01*
X109397000Y-66298817D01*
X109397000Y-65311504D01*
X109459738Y-64671656D01*
X109635832Y-64088405D01*
X109921856Y-63550471D01*
X110306922Y-63078333D01*
X110776359Y-62689981D01*
X111312286Y-62400206D01*
X111894291Y-62220045D01*
X112532189Y-62153000D01*
X177258496Y-62153000D01*
X177898344Y-62215738D01*
G36*
X176816921Y-100387215D02*
G01*
X176515941Y-100688196D01*
X176486938Y-100711998D01*
X176441855Y-100766932D01*
X176391965Y-100827723D01*
X176329914Y-100943812D01*
X176321393Y-100959753D01*
X176277936Y-101103014D01*
X176266939Y-101214667D01*
X176266939Y-101214677D01*
X176263263Y-101251999D01*
X176266939Y-101289322D01*
X176266940Y-102115261D01*
X176019003Y-102363198D01*
X175989999Y-102387001D01*
X175935410Y-102453518D01*
X175895026Y-102502726D01*
X175835548Y-102614000D01*
X175824454Y-102634756D01*
X175780997Y-102778017D01*
X175770000Y-102889670D01*
X175770000Y-102889680D01*
X175766324Y-102927002D01*
X175770000Y-102964324D01*
X175770000Y-104897072D01*
X175553101Y-104719068D01*
X175303808Y-104585818D01*
X175033309Y-104503764D01*
X174822492Y-104483000D01*
X174681508Y-104483000D01*
X174470691Y-104503764D01*
X174200192Y-104585818D01*
X173950899Y-104719068D01*
X173734000Y-104897072D01*
X173734000Y-100588928D01*
X173950899Y-100766932D01*
X174200192Y-100900182D01*
X174470691Y-100982236D01*
X174681508Y-101003000D01*
X174822492Y-101003000D01*
X175033309Y-100982236D01*
X175303808Y-100900182D01*
X175553101Y-100766932D01*
X175771608Y-100587608D01*
X175950932Y-100369101D01*
X176084182Y-100119808D01*
X176166236Y-99849309D01*
X176193943Y-99568000D01*
X176166236Y-99286691D01*
X176084182Y-99016192D01*
X175950932Y-98766899D01*
X175771608Y-98548392D01*
X175553101Y-98369068D01*
X175420142Y-98298000D01*
X175553101Y-98226932D01*
X175771608Y-98047608D01*
X175950932Y-97829101D01*
X176084182Y-97579808D01*
X176166236Y-97309309D01*
X176193943Y-97028000D01*
X176166236Y-96746691D01*
X176084182Y-96476192D01*
X175950932Y-96226899D01*
X175771608Y-96008392D01*
X175553101Y-95829068D01*
X175420142Y-95758000D01*
X175553101Y-95686932D01*
X175771608Y-95507608D01*
X175950932Y-95289101D01*
X176084182Y-95039808D01*
X176166236Y-94769309D01*
X176193943Y-94488000D01*
X176166236Y-94206691D01*
X176084182Y-93936192D01*
X175950932Y-93686899D01*
X175771608Y-93468392D01*
X175553101Y-93289068D01*
X175420142Y-93218000D01*
X175553101Y-93146932D01*
X175771608Y-92967608D01*
X175950932Y-92749101D01*
X176084182Y-92499808D01*
X176166236Y-92229309D01*
X176193943Y-91948000D01*
X176166236Y-91666691D01*
X176084182Y-91396192D01*
X175950932Y-91146899D01*
X175771608Y-90928392D01*
X175553101Y-90749068D01*
X175420142Y-90678000D01*
X175553101Y-90606932D01*
X175771608Y-90427608D01*
X175950932Y-90209101D01*
X176084182Y-89959808D01*
X176166236Y-89689309D01*
X176193943Y-89408000D01*
X176166236Y-89126691D01*
X176084182Y-88856192D01*
X175950932Y-88606899D01*
X175771608Y-88388392D01*
X175553101Y-88209068D01*
X175420142Y-88138000D01*
X175553101Y-88066932D01*
X175771608Y-87887608D01*
X175950932Y-87669101D01*
X176084182Y-87419808D01*
X176166236Y-87149309D01*
X176193943Y-86868000D01*
X176166236Y-86586691D01*
X176084182Y-86316192D01*
X175950932Y-86066899D01*
X175771608Y-85848392D01*
X175553101Y-85669068D01*
X175420142Y-85598000D01*
X175553101Y-85526932D01*
X175771608Y-85347608D01*
X175950932Y-85129101D01*
X176084182Y-84879808D01*
X176166236Y-84609309D01*
X176193943Y-84328000D01*
X176166236Y-84046691D01*
X176084182Y-83776192D01*
X175950932Y-83526899D01*
X175771608Y-83308392D01*
X175553101Y-83129068D01*
X175303808Y-82995818D01*
X175033309Y-82913764D01*
X174822492Y-82893000D01*
X174681508Y-82893000D01*
X174470691Y-82913764D01*
X174200192Y-82995818D01*
X173950899Y-83129068D01*
X173732392Y-83308392D01*
X173583154Y-83490240D01*
X173464256Y-83410795D01*
X173275898Y-83332774D01*
X173075939Y-83293000D01*
X172872061Y-83293000D01*
X172672102Y-83332774D01*
X172483744Y-83410795D01*
X172314226Y-83524063D01*
X172170063Y-83668226D01*
X172056795Y-83837744D01*
X171978774Y-84026102D01*
X171939000Y-84226061D01*
X171939000Y-84429939D01*
X171978774Y-84629898D01*
X172056795Y-84818256D01*
X172170063Y-84987774D01*
X172214000Y-85031711D01*
X172214000Y-85833000D01*
X172110061Y-85833000D01*
X171910102Y-85872774D01*
X171721744Y-85950795D01*
X171552226Y-86064063D01*
X171408063Y-86208226D01*
X171294795Y-86377744D01*
X171216774Y-86566102D01*
X171177000Y-86766061D01*
X171177000Y-86969939D01*
X171216774Y-87169898D01*
X171294795Y-87358256D01*
X171408063Y-87527774D01*
X171452001Y-87571712D01*
X171452000Y-127318788D01*
X166942789Y-131828000D01*
X147581802Y-131828000D01*
X147282334Y-131528532D01*
X147476901Y-131469511D01*
X147691449Y-131354833D01*
X147879502Y-131200502D01*
X148033833Y-131012449D01*
X148148511Y-130797900D01*
X148219130Y-130565101D01*
X148237000Y-130383664D01*
X148237000Y-129712335D01*
X148219130Y-129530898D01*
X148186400Y-129422999D01*
X153193928Y-129422999D01*
X153193928Y-130673001D01*
X153210992Y-130846255D01*
X153261528Y-131012851D01*
X153343595Y-131166387D01*
X153454038Y-131300962D01*
X153588613Y-131411405D01*
X153742149Y-131493472D01*
X153908745Y-131544008D01*
X154081999Y-131561072D01*
X154782001Y-131561072D01*
X154955255Y-131544008D01*
X155121851Y-131493472D01*
X155275387Y-131411405D01*
X155409962Y-131300962D01*
X155520405Y-131166387D01*
X155522967Y-131161594D01*
X155648526Y-131286078D01*
X155851467Y-131420421D01*
X156076718Y-131512591D01*
X156114391Y-131516462D01*
X156305000Y-131391731D01*
X156305000Y-130175000D01*
X156559000Y-130175000D01*
X156559000Y-131391731D01*
X156749609Y-131516462D01*
X156787282Y-131512591D01*
X157012533Y-131420421D01*
X157215474Y-131286078D01*
X157388307Y-131114725D01*
X157524390Y-130912946D01*
X157618493Y-130688496D01*
X157667000Y-130450000D01*
X157667000Y-130175000D01*
X156559000Y-130175000D01*
X156305000Y-130175000D01*
X156285000Y-130175000D01*
X156285000Y-129921000D01*
X156305000Y-129921000D01*
X156305000Y-128704269D01*
X156559000Y-128704269D01*
X156559000Y-129921000D01*
X157667000Y-129921000D01*
X157667000Y-129646000D01*
X157618493Y-129407504D01*
X157524390Y-129183054D01*
X157388307Y-128981275D01*
X157215474Y-128809922D01*
X157012533Y-128675579D01*
X156787282Y-128583409D01*
X156749609Y-128579538D01*
X156559000Y-128704269D01*
X156305000Y-128704269D01*
X156114391Y-128579538D01*
X156076718Y-128583409D01*
X155851467Y-128675579D01*
X155648526Y-128809922D01*
X155522967Y-128934406D01*
X155520405Y-128929613D01*
X155409962Y-128795038D01*
X155275387Y-128684595D01*
X155121851Y-128602528D01*
X154955255Y-128551992D01*
X154782001Y-128534928D01*
X154081999Y-128534928D01*
X153908745Y-128551992D01*
X153742149Y-128602528D01*
X153588613Y-128684595D01*
X153454038Y-128795038D01*
X153343595Y-128929613D01*
X153261528Y-129083149D01*
X153210992Y-129249745D01*
X153193928Y-129422999D01*
X148186400Y-129422999D01*
X148148511Y-129298099D01*
X148033833Y-129083551D01*
X147879502Y-128895498D01*
X147691448Y-128741167D01*
X147476900Y-128626489D01*
X147244101Y-128555870D01*
X147002000Y-128532025D01*
X146759898Y-128555870D01*
X146527099Y-128626489D01*
X146312551Y-128741167D01*
X146124498Y-128895498D01*
X146002000Y-129044763D01*
X145879502Y-128895498D01*
X145691448Y-128741167D01*
X145476900Y-128626489D01*
X145244101Y-128555870D01*
X145002000Y-128532025D01*
X144759898Y-128555870D01*
X144527099Y-128626489D01*
X144312551Y-128741167D01*
X144124498Y-128895498D01*
X144092809Y-128934111D01*
X144090405Y-128929613D01*
X143979962Y-128795038D01*
X143845387Y-128684595D01*
X143691851Y-128602528D01*
X143525255Y-128551992D01*
X143352001Y-128534928D01*
X142651999Y-128534928D01*
X142478745Y-128551992D01*
X142312149Y-128602528D01*
X142158613Y-128684595D01*
X142024038Y-128795038D01*
X141913595Y-128929613D01*
X141831528Y-129083149D01*
X141780992Y-129249745D01*
X141763928Y-129422999D01*
X141763928Y-130673001D01*
X141780992Y-130846255D01*
X141831528Y-131012851D01*
X141913595Y-131166387D01*
X142024038Y-131300962D01*
X142158613Y-131411405D01*
X142312149Y-131493472D01*
X142478745Y-131544008D01*
X142651999Y-131561072D01*
X143352001Y-131561072D01*
X143432356Y-131553158D01*
X145486201Y-133607003D01*
X145509999Y-133636001D01*
X145538997Y-133659799D01*
X145625723Y-133730974D01*
X145737540Y-133790742D01*
X145757753Y-133801546D01*
X145901014Y-133845003D01*
X146012667Y-133856000D01*
X146012677Y-133856000D01*
X146050000Y-133859676D01*
X146087323Y-133856000D01*
X167348678Y-133856000D01*
X167386000Y-133859676D01*
X167423322Y-133856000D01*
X167423333Y-133856000D01*
X167534986Y-133845003D01*
X167678247Y-133801546D01*
X167810276Y-133730974D01*
X167926001Y-133636001D01*
X167949804Y-133606997D01*
X170487984Y-131068817D01*
X173492000Y-131068817D01*
X173492000Y-131567183D01*
X173589226Y-132055974D01*
X173779943Y-132516405D01*
X174056820Y-132930781D01*
X174409219Y-133283180D01*
X174823595Y-133560057D01*
X175284026Y-133750774D01*
X175772817Y-133848000D01*
X176271183Y-133848000D01*
X176759974Y-133750774D01*
X177220405Y-133560057D01*
X177634781Y-133283180D01*
X177987180Y-132930781D01*
X178264057Y-132516405D01*
X178454774Y-132055974D01*
X178552000Y-131567183D01*
X178552000Y-131068817D01*
X178454774Y-130580026D01*
X178264057Y-130119595D01*
X177987180Y-129705219D01*
X177634781Y-129352820D01*
X177220405Y-129075943D01*
X176759974Y-128885226D01*
X176271183Y-128788000D01*
X175772817Y-128788000D01*
X175284026Y-128885226D01*
X174823595Y-129075943D01*
X174409219Y-129352820D01*
X174056820Y-129705219D01*
X173779943Y-130119595D01*
X173589226Y-130580026D01*
X173492000Y-131068817D01*
X170487984Y-131068817D01*
X173485008Y-128071795D01*
X173514001Y-128048001D01*
X173537795Y-128019008D01*
X173537799Y-128019004D01*
X173608973Y-127932277D01*
X173608974Y-127932276D01*
X173679546Y-127800247D01*
X173723003Y-127656986D01*
X173734000Y-127545333D01*
X173734000Y-127545324D01*
X173737676Y-127508001D01*
X173734000Y-127470678D01*
X173734000Y-124718928D01*
X173950899Y-124896932D01*
X174200192Y-125030182D01*
X174470691Y-125112236D01*
X174681508Y-125133000D01*
X174822492Y-125133000D01*
X175033309Y-125112236D01*
X175303808Y-125030182D01*
X175553101Y-124896932D01*
X175771608Y-124717608D01*
X175950932Y-124499101D01*
X176084182Y-124249808D01*
X176166236Y-123979309D01*
X176193943Y-123698000D01*
X176166236Y-123416691D01*
X176159613Y-123394857D01*
X176228102Y-123423226D01*
X176428061Y-123463000D01*
X176631939Y-123463000D01*
X176831898Y-123423226D01*
X177020256Y-123345205D01*
X177189774Y-123231937D01*
X177333937Y-123087774D01*
X177447205Y-122918256D01*
X177525226Y-122729898D01*
X177565000Y-122529939D01*
X177565000Y-122326061D01*
X177525226Y-122126102D01*
X177447205Y-121937744D01*
X177333937Y-121768226D01*
X177290000Y-121724289D01*
X177290000Y-119145000D01*
X177393939Y-119145000D01*
X177593898Y-119105226D01*
X177782256Y-119027205D01*
X177951774Y-118913937D01*
X178095937Y-118769774D01*
X178209205Y-118600256D01*
X178287226Y-118411898D01*
X178327000Y-118211939D01*
X178327000Y-118008061D01*
X178287226Y-117808102D01*
X178209205Y-117619744D01*
X178095937Y-117450226D01*
X178052000Y-117406289D01*
X178052000Y-115589000D01*
X178155939Y-115589000D01*
X178355898Y-115549226D01*
X178544256Y-115471205D01*
X178713774Y-115357937D01*
X178857937Y-115213774D01*
X178971205Y-115044256D01*
X179049226Y-114855898D01*
X179089000Y-114655939D01*
X179089000Y-114593802D01*
X179188984Y-114493818D01*
X179217981Y-114470021D01*
X179271330Y-114405015D01*
X179312954Y-114354297D01*
X179356715Y-114272426D01*
X179426226Y-114341937D01*
X179595744Y-114455205D01*
X179784102Y-114533226D01*
X179984061Y-114573000D01*
X180187939Y-114573000D01*
X180387898Y-114533226D01*
X180417001Y-114521171D01*
X180417001Y-132554485D01*
X180354262Y-133194343D01*
X180178168Y-133777595D01*
X179892143Y-134315531D01*
X179507078Y-134787667D01*
X179037641Y-135176019D01*
X178501714Y-135465794D01*
X177919705Y-135645956D01*
X177281811Y-135713000D01*
X131096801Y-135713000D01*
X135260726Y-131549076D01*
X135412000Y-131563975D01*
X135654102Y-131540130D01*
X135886901Y-131469511D01*
X136101449Y-131354833D01*
X136289502Y-131200502D01*
X136443833Y-131012449D01*
X136558511Y-130797900D01*
X136629130Y-130565101D01*
X136647000Y-130383664D01*
X136647000Y-129712335D01*
X136629130Y-129530898D01*
X136558511Y-129298099D01*
X136443833Y-129083551D01*
X136289502Y-128895498D01*
X136101448Y-128741167D01*
X135886900Y-128626489D01*
X135654101Y-128555870D01*
X135412000Y-128532025D01*
X135169898Y-128555870D01*
X134937099Y-128626489D01*
X134722551Y-128741167D01*
X134534498Y-128895498D01*
X134412000Y-129044763D01*
X134289502Y-128895498D01*
X134101448Y-128741167D01*
X133886900Y-128626489D01*
X133654101Y-128555870D01*
X133412000Y-128532025D01*
X133169898Y-128555870D01*
X132937099Y-128626489D01*
X132722551Y-128741167D01*
X132534498Y-128895498D01*
X132412000Y-129044763D01*
X132289502Y-128895498D01*
X132101448Y-128741167D01*
X131886900Y-128626489D01*
X131654101Y-128555870D01*
X131412000Y-128532025D01*
X131169898Y-128555870D01*
X130937099Y-128626489D01*
X130722551Y-128741167D01*
X130534498Y-128895498D01*
X130412000Y-129044763D01*
X130289502Y-128895498D01*
X130101448Y-128741167D01*
X129886900Y-128626489D01*
X129654101Y-128555870D01*
X129412000Y-128532025D01*
X129169898Y-128555870D01*
X128937099Y-128626489D01*
X128722551Y-128741167D01*
X128534498Y-128895498D01*
X128412000Y-129044763D01*
X128289502Y-128895498D01*
X128172000Y-128799067D01*
X128172000Y-128724211D01*
X129289004Y-127607208D01*
X129318001Y-127583411D01*
X129412974Y-127467686D01*
X129483546Y-127335657D01*
X129527003Y-127192396D01*
X129538000Y-127080743D01*
X129538000Y-127080735D01*
X129541676Y-127043410D01*
X129538000Y-127006085D01*
X129538000Y-125768574D01*
X129560960Y-125778084D01*
X129760919Y-125817858D01*
X129823057Y-125817858D01*
X131516201Y-127511003D01*
X131539999Y-127540001D01*
X131655724Y-127634974D01*
X131787753Y-127705546D01*
X131931014Y-127749003D01*
X132042667Y-127760000D01*
X132042676Y-127760000D01*
X132079999Y-127763676D01*
X132117322Y-127760000D01*
X169380678Y-127760000D01*
X169418000Y-127763676D01*
X169455322Y-127760000D01*
X169455333Y-127760000D01*
X169566986Y-127749003D01*
X169710247Y-127705546D01*
X169842276Y-127634974D01*
X169958001Y-127540001D01*
X169981804Y-127510998D01*
X170945003Y-126547799D01*
X170974001Y-126524001D01*
X171045709Y-126436625D01*
X171068974Y-126408277D01*
X171139546Y-126276247D01*
X171160184Y-126208211D01*
X171183003Y-126132986D01*
X171194000Y-126021333D01*
X171194000Y-126021323D01*
X171197676Y-125984000D01*
X171194000Y-125946678D01*
X171194000Y-113205952D01*
X171197676Y-113168629D01*
X171194000Y-113131306D01*
X171194000Y-113131297D01*
X171183003Y-113019644D01*
X171139546Y-112876383D01*
X171068974Y-112744354D01*
X171046298Y-112716723D01*
X170997799Y-112657626D01*
X170997795Y-112657622D01*
X170974001Y-112628629D01*
X170945009Y-112604836D01*
X168827174Y-110487002D01*
X168803371Y-110457999D01*
X168687646Y-110363026D01*
X168555617Y-110292454D01*
X168412356Y-110248997D01*
X168355802Y-110243427D01*
X168330932Y-110196899D01*
X168151608Y-109978392D01*
X167933101Y-109799068D01*
X167800142Y-109728000D01*
X167933101Y-109656932D01*
X168151608Y-109477608D01*
X168330932Y-109259101D01*
X168464182Y-109009808D01*
X168546236Y-108739309D01*
X168573943Y-108458000D01*
X168546236Y-108176691D01*
X168464182Y-107906192D01*
X168330932Y-107656899D01*
X168151608Y-107438392D01*
X168038518Y-107345581D01*
X168056482Y-107343812D01*
X168176180Y-107307502D01*
X168286494Y-107248537D01*
X168383185Y-107169185D01*
X168462537Y-107072494D01*
X168521502Y-106962180D01*
X168557812Y-106842482D01*
X168570072Y-106718000D01*
X168567000Y-106203750D01*
X168408250Y-106045000D01*
X167259000Y-106045000D01*
X167259000Y-106065000D01*
X167005000Y-106065000D01*
X167005000Y-106045000D01*
X165855750Y-106045000D01*
X165824776Y-106075974D01*
X165098000Y-105349199D01*
X165098000Y-105118000D01*
X165693928Y-105118000D01*
X165697000Y-105632250D01*
X165855750Y-105791000D01*
X167005000Y-105791000D01*
X167005000Y-104641750D01*
X167259000Y-104641750D01*
X167259000Y-105791000D01*
X168408250Y-105791000D01*
X168567000Y-105632250D01*
X168570072Y-105118000D01*
X168557812Y-104993518D01*
X168521502Y-104873820D01*
X168462537Y-104763506D01*
X168383185Y-104666815D01*
X168286494Y-104587463D01*
X168176180Y-104528498D01*
X168056482Y-104492188D01*
X167932000Y-104479928D01*
X167417750Y-104483000D01*
X167259000Y-104641750D01*
X167005000Y-104641750D01*
X166846250Y-104483000D01*
X166332000Y-104479928D01*
X166207518Y-104492188D01*
X166087820Y-104528498D01*
X165977506Y-104587463D01*
X165880815Y-104666815D01*
X165801463Y-104763506D01*
X165742498Y-104873820D01*
X165706188Y-104993518D01*
X165693928Y-105118000D01*
X165098000Y-105118000D01*
X165098000Y-98571000D01*
X165164939Y-98571000D01*
X165364898Y-98531226D01*
X165553256Y-98453205D01*
X165722774Y-98339937D01*
X165866937Y-98195774D01*
X165980205Y-98026256D01*
X166018666Y-97933403D01*
X166112392Y-98047608D01*
X166330899Y-98226932D01*
X166463858Y-98298000D01*
X166330899Y-98369068D01*
X166112392Y-98548392D01*
X165933068Y-98766899D01*
X165799818Y-99016192D01*
X165717764Y-99286691D01*
X165690057Y-99568000D01*
X165717764Y-99849309D01*
X165799818Y-100119808D01*
X165933068Y-100369101D01*
X166112392Y-100587608D01*
X166330899Y-100766932D01*
X166580192Y-100900182D01*
X166850691Y-100982236D01*
X167061508Y-101003000D01*
X167202492Y-101003000D01*
X167413309Y-100982236D01*
X167683808Y-100900182D01*
X167933101Y-100766932D01*
X168151608Y-100587608D01*
X168330932Y-100369101D01*
X168464182Y-100119808D01*
X168546236Y-99849309D01*
X168573943Y-99568000D01*
X168546236Y-99286691D01*
X168464182Y-99016192D01*
X168330932Y-98766899D01*
X168151608Y-98548392D01*
X167933101Y-98369068D01*
X167800142Y-98298000D01*
X167933101Y-98226932D01*
X168151608Y-98047608D01*
X168330932Y-97829101D01*
X168464182Y-97579808D01*
X168546236Y-97309309D01*
X168573943Y-97028000D01*
X168546236Y-96746691D01*
X168464182Y-96476192D01*
X168330932Y-96226899D01*
X168151608Y-96008392D01*
X167933101Y-95829068D01*
X167800142Y-95758000D01*
X167933101Y-95686932D01*
X168151608Y-95507608D01*
X168330932Y-95289101D01*
X168464182Y-95039808D01*
X168546236Y-94769309D01*
X168573943Y-94488000D01*
X168546236Y-94206691D01*
X168464182Y-93936192D01*
X168330932Y-93686899D01*
X168151608Y-93468392D01*
X167933101Y-93289068D01*
X167800142Y-93218000D01*
X167933101Y-93146932D01*
X168151608Y-92967608D01*
X168330932Y-92749101D01*
X168464182Y-92499808D01*
X168546236Y-92229309D01*
X168573943Y-91948000D01*
X168546236Y-91666691D01*
X168464182Y-91396192D01*
X168330932Y-91146899D01*
X168151608Y-90928392D01*
X167933101Y-90749068D01*
X167800142Y-90678000D01*
X167933101Y-90606932D01*
X168151608Y-90427608D01*
X168330932Y-90209101D01*
X168464182Y-89959808D01*
X168546236Y-89689309D01*
X168573943Y-89408000D01*
X168546236Y-89126691D01*
X168464182Y-88856192D01*
X168330932Y-88606899D01*
X168151608Y-88388392D01*
X167933101Y-88209068D01*
X167800142Y-88138000D01*
X167933101Y-88066932D01*
X168151608Y-87887608D01*
X168330932Y-87669101D01*
X168464182Y-87419808D01*
X168546236Y-87149309D01*
X168573943Y-86868000D01*
X168546236Y-86586691D01*
X168464182Y-86316192D01*
X168330932Y-86066899D01*
X168151608Y-85848392D01*
X168038518Y-85755581D01*
X168056482Y-85753812D01*
X168176180Y-85717502D01*
X168286494Y-85658537D01*
X168383185Y-85579185D01*
X168462537Y-85482494D01*
X168521502Y-85372180D01*
X168557812Y-85252482D01*
X168570072Y-85128000D01*
X168570072Y-83528000D01*
X168557812Y-83403518D01*
X168521502Y-83283820D01*
X168462537Y-83173506D01*
X168383185Y-83076815D01*
X168286494Y-82997463D01*
X168176180Y-82938498D01*
X168056482Y-82902188D01*
X167932000Y-82889928D01*
X166332000Y-82889928D01*
X166207518Y-82902188D01*
X166087820Y-82938498D01*
X165977506Y-82997463D01*
X165880815Y-83076815D01*
X165801463Y-83173506D01*
X165742498Y-83283820D01*
X165711883Y-83384745D01*
X165697974Y-83358723D01*
X165626799Y-83271997D01*
X165603001Y-83242999D01*
X165574003Y-83219201D01*
X161055000Y-78700199D01*
X161055000Y-78638061D01*
X161046037Y-78593001D01*
X162159677Y-78593001D01*
X162196999Y-78596677D01*
X162234321Y-78593001D01*
X162234332Y-78593001D01*
X162345985Y-78582004D01*
X162489246Y-78538547D01*
X162621275Y-78467975D01*
X162737000Y-78373002D01*
X162760803Y-78343999D01*
X162998113Y-78106688D01*
X163180665Y-78143000D01*
X163463335Y-78143000D01*
X163740574Y-78087853D01*
X164001727Y-77979680D01*
X164236759Y-77822637D01*
X164436637Y-77622759D01*
X164540043Y-77468000D01*
X166699676Y-77468000D01*
X166736998Y-77471676D01*
X166774320Y-77468000D01*
X166774331Y-77468000D01*
X166885984Y-77457003D01*
X167029245Y-77413546D01*
X167120754Y-77364633D01*
X167130320Y-77387727D01*
X167287363Y-77622759D01*
X167487241Y-77822637D01*
X167722273Y-77979680D01*
X167983426Y-78087853D01*
X168260665Y-78143000D01*
X168543335Y-78143000D01*
X168658001Y-78120191D01*
X168658000Y-97594289D01*
X168614063Y-97638226D01*
X168500795Y-97807744D01*
X168422774Y-97996102D01*
X168383000Y-98196061D01*
X168383000Y-98399939D01*
X168422774Y-98599898D01*
X168500795Y-98788256D01*
X168614063Y-98957774D01*
X168758226Y-99101937D01*
X168927744Y-99215205D01*
X169116102Y-99293226D01*
X169316061Y-99333000D01*
X169519939Y-99333000D01*
X169719898Y-99293226D01*
X169908256Y-99215205D01*
X170077774Y-99101937D01*
X170221937Y-98957774D01*
X170335205Y-98788256D01*
X170413226Y-98599898D01*
X170453000Y-98399939D01*
X170453000Y-98196061D01*
X170413226Y-97996102D01*
X170335205Y-97807744D01*
X170221937Y-97638226D01*
X170178000Y-97594289D01*
X170178000Y-77761322D01*
X170181676Y-77724000D01*
X170178000Y-77686677D01*
X170178000Y-77686667D01*
X170167003Y-77575014D01*
X170123546Y-77431753D01*
X170076092Y-77342974D01*
X170052974Y-77299723D01*
X169981799Y-77212997D01*
X169958001Y-77183999D01*
X169929003Y-77160201D01*
X169800688Y-77031886D01*
X169837000Y-76849335D01*
X169837000Y-76566665D01*
X169792509Y-76342999D01*
X176816920Y-76342999D01*
X176816921Y-100387215D01*
X176816921Y-100387215D01*
G37*
X176816921Y-100387215D02*
X176515941Y-100688196D01*
X176486938Y-100711998D01*
X176441855Y-100766932D01*
X176391965Y-100827723D01*
X176329914Y-100943812D01*
X176321393Y-100959753D01*
X176277936Y-101103014D01*
X176266939Y-101214667D01*
X176266939Y-101214677D01*
X176263263Y-101251999D01*
X176266939Y-101289322D01*
X176266940Y-102115261D01*
X176019003Y-102363198D01*
X175989999Y-102387001D01*
X175935410Y-102453518D01*
X175895026Y-102502726D01*
X175835548Y-102614000D01*
X175824454Y-102634756D01*
X175780997Y-102778017D01*
X175770000Y-102889670D01*
X175770000Y-102889680D01*
X175766324Y-102927002D01*
X175770000Y-102964324D01*
X175770000Y-104897072D01*
X175553101Y-104719068D01*
X175303808Y-104585818D01*
X175033309Y-104503764D01*
X174822492Y-104483000D01*
X174681508Y-104483000D01*
X174470691Y-104503764D01*
X174200192Y-104585818D01*
X173950899Y-104719068D01*
X173734000Y-104897072D01*
X173734000Y-100588928D01*
X173950899Y-100766932D01*
X174200192Y-100900182D01*
X174470691Y-100982236D01*
X174681508Y-101003000D01*
X174822492Y-101003000D01*
X175033309Y-100982236D01*
X175303808Y-100900182D01*
X175553101Y-100766932D01*
X175771608Y-100587608D01*
X175950932Y-100369101D01*
X176084182Y-100119808D01*
X176166236Y-99849309D01*
X176193943Y-99568000D01*
X176166236Y-99286691D01*
X176084182Y-99016192D01*
X175950932Y-98766899D01*
X175771608Y-98548392D01*
X175553101Y-98369068D01*
X175420142Y-98298000D01*
X175553101Y-98226932D01*
X175771608Y-98047608D01*
X175950932Y-97829101D01*
X176084182Y-97579808D01*
X176166236Y-97309309D01*
X176193943Y-97028000D01*
X176166236Y-96746691D01*
X176084182Y-96476192D01*
X175950932Y-96226899D01*
X175771608Y-96008392D01*
X175553101Y-95829068D01*
X175420142Y-95758000D01*
X175553101Y-95686932D01*
X175771608Y-95507608D01*
X175950932Y-95289101D01*
X176084182Y-95039808D01*
X176166236Y-94769309D01*
X176193943Y-94488000D01*
X176166236Y-94206691D01*
X176084182Y-93936192D01*
X175950932Y-93686899D01*
X175771608Y-93468392D01*
X175553101Y-93289068D01*
X175420142Y-93218000D01*
X175553101Y-93146932D01*
X175771608Y-92967608D01*
X175950932Y-92749101D01*
X176084182Y-92499808D01*
X176166236Y-92229309D01*
X176193943Y-91948000D01*
X176166236Y-91666691D01*
X176084182Y-91396192D01*
X175950932Y-91146899D01*
X175771608Y-90928392D01*
X175553101Y-90749068D01*
X175420142Y-90678000D01*
X175553101Y-90606932D01*
X175771608Y-90427608D01*
X175950932Y-90209101D01*
X176084182Y-89959808D01*
X176166236Y-89689309D01*
X176193943Y-89408000D01*
X176166236Y-89126691D01*
X176084182Y-88856192D01*
X175950932Y-88606899D01*
X175771608Y-88388392D01*
X175553101Y-88209068D01*
X175420142Y-88138000D01*
X175553101Y-88066932D01*
X175771608Y-87887608D01*
X175950932Y-87669101D01*
X176084182Y-87419808D01*
X176166236Y-87149309D01*
X176193943Y-86868000D01*
X176166236Y-86586691D01*
X176084182Y-86316192D01*
X175950932Y-86066899D01*
X175771608Y-85848392D01*
X175553101Y-85669068D01*
X175420142Y-85598000D01*
X175553101Y-85526932D01*
X175771608Y-85347608D01*
X175950932Y-85129101D01*
X176084182Y-84879808D01*
X176166236Y-84609309D01*
X176193943Y-84328000D01*
X176166236Y-84046691D01*
X176084182Y-83776192D01*
X175950932Y-83526899D01*
X175771608Y-83308392D01*
X175553101Y-83129068D01*
X175303808Y-82995818D01*
X175033309Y-82913764D01*
X174822492Y-82893000D01*
X174681508Y-82893000D01*
X174470691Y-82913764D01*
X174200192Y-82995818D01*
X173950899Y-83129068D01*
X173732392Y-83308392D01*
X173583154Y-83490240D01*
X173464256Y-83410795D01*
X173275898Y-83332774D01*
X173075939Y-83293000D01*
X172872061Y-83293000D01*
X172672102Y-83332774D01*
X172483744Y-83410795D01*
X172314226Y-83524063D01*
X172170063Y-83668226D01*
X172056795Y-83837744D01*
X171978774Y-84026102D01*
X171939000Y-84226061D01*
X171939000Y-84429939D01*
X171978774Y-84629898D01*
X172056795Y-84818256D01*
X172170063Y-84987774D01*
X172214000Y-85031711D01*
X172214000Y-85833000D01*
X172110061Y-85833000D01*
X171910102Y-85872774D01*
X171721744Y-85950795D01*
X171552226Y-86064063D01*
X171408063Y-86208226D01*
X171294795Y-86377744D01*
X171216774Y-86566102D01*
X171177000Y-86766061D01*
X171177000Y-86969939D01*
X171216774Y-87169898D01*
X171294795Y-87358256D01*
X171408063Y-87527774D01*
X171452001Y-87571712D01*
X171452000Y-127318788D01*
X166942789Y-131828000D01*
X147581802Y-131828000D01*
X147282334Y-131528532D01*
X147476901Y-131469511D01*
X147691449Y-131354833D01*
X147879502Y-131200502D01*
X148033833Y-131012449D01*
X148148511Y-130797900D01*
X148219130Y-130565101D01*
X148237000Y-130383664D01*
X148237000Y-129712335D01*
X148219130Y-129530898D01*
X148186400Y-129422999D01*
X153193928Y-129422999D01*
X153193928Y-130673001D01*
X153210992Y-130846255D01*
X153261528Y-131012851D01*
X153343595Y-131166387D01*
X153454038Y-131300962D01*
X153588613Y-131411405D01*
X153742149Y-131493472D01*
X153908745Y-131544008D01*
X154081999Y-131561072D01*
X154782001Y-131561072D01*
X154955255Y-131544008D01*
X155121851Y-131493472D01*
X155275387Y-131411405D01*
X155409962Y-131300962D01*
X155520405Y-131166387D01*
X155522967Y-131161594D01*
X155648526Y-131286078D01*
X155851467Y-131420421D01*
X156076718Y-131512591D01*
X156114391Y-131516462D01*
X156305000Y-131391731D01*
X156305000Y-130175000D01*
X156559000Y-130175000D01*
X156559000Y-131391731D01*
X156749609Y-131516462D01*
X156787282Y-131512591D01*
X157012533Y-131420421D01*
X157215474Y-131286078D01*
X157388307Y-131114725D01*
X157524390Y-130912946D01*
X157618493Y-130688496D01*
X157667000Y-130450000D01*
X157667000Y-130175000D01*
X156559000Y-130175000D01*
X156305000Y-130175000D01*
X156285000Y-130175000D01*
X156285000Y-129921000D01*
X156305000Y-129921000D01*
X156305000Y-128704269D01*
X156559000Y-128704269D01*
X156559000Y-129921000D01*
X157667000Y-129921000D01*
X157667000Y-129646000D01*
X157618493Y-129407504D01*
X157524390Y-129183054D01*
X157388307Y-128981275D01*
X157215474Y-128809922D01*
X157012533Y-128675579D01*
X156787282Y-128583409D01*
X156749609Y-128579538D01*
X156559000Y-128704269D01*
X156305000Y-128704269D01*
X156114391Y-128579538D01*
X156076718Y-128583409D01*
X155851467Y-128675579D01*
X155648526Y-128809922D01*
X155522967Y-128934406D01*
X155520405Y-128929613D01*
X155409962Y-128795038D01*
X155275387Y-128684595D01*
X155121851Y-128602528D01*
X154955255Y-128551992D01*
X154782001Y-128534928D01*
X154081999Y-128534928D01*
X153908745Y-128551992D01*
X153742149Y-128602528D01*
X153588613Y-128684595D01*
X153454038Y-128795038D01*
X153343595Y-128929613D01*
X153261528Y-129083149D01*
X153210992Y-129249745D01*
X153193928Y-129422999D01*
X148186400Y-129422999D01*
X148148511Y-129298099D01*
X148033833Y-129083551D01*
X147879502Y-128895498D01*
X147691448Y-128741167D01*
X147476900Y-128626489D01*
X147244101Y-128555870D01*
X147002000Y-128532025D01*
X146759898Y-128555870D01*
X146527099Y-128626489D01*
X146312551Y-128741167D01*
X146124498Y-128895498D01*
X146002000Y-129044763D01*
X145879502Y-128895498D01*
X145691448Y-128741167D01*
X145476900Y-128626489D01*
X145244101Y-128555870D01*
X145002000Y-128532025D01*
X144759898Y-128555870D01*
X144527099Y-128626489D01*
X144312551Y-128741167D01*
X144124498Y-128895498D01*
X144092809Y-128934111D01*
X144090405Y-128929613D01*
X143979962Y-128795038D01*
X143845387Y-128684595D01*
X143691851Y-128602528D01*
X143525255Y-128551992D01*
X143352001Y-128534928D01*
X142651999Y-128534928D01*
X142478745Y-128551992D01*
X142312149Y-128602528D01*
X142158613Y-128684595D01*
X142024038Y-128795038D01*
X141913595Y-128929613D01*
X141831528Y-129083149D01*
X141780992Y-129249745D01*
X141763928Y-129422999D01*
X141763928Y-130673001D01*
X141780992Y-130846255D01*
X141831528Y-131012851D01*
X141913595Y-131166387D01*
X142024038Y-131300962D01*
X142158613Y-131411405D01*
X142312149Y-131493472D01*
X142478745Y-131544008D01*
X142651999Y-131561072D01*
X143352001Y-131561072D01*
X143432356Y-131553158D01*
X145486201Y-133607003D01*
X145509999Y-133636001D01*
X145538997Y-133659799D01*
X145625723Y-133730974D01*
X145737540Y-133790742D01*
X145757753Y-133801546D01*
X145901014Y-133845003D01*
X146012667Y-133856000D01*
X146012677Y-133856000D01*
X146050000Y-133859676D01*
X146087323Y-133856000D01*
X167348678Y-133856000D01*
X167386000Y-133859676D01*
X167423322Y-133856000D01*
X167423333Y-133856000D01*
X167534986Y-133845003D01*
X167678247Y-133801546D01*
X167810276Y-133730974D01*
X167926001Y-133636001D01*
X167949804Y-133606997D01*
X170487984Y-131068817D01*
X173492000Y-131068817D01*
X173492000Y-131567183D01*
X173589226Y-132055974D01*
X173779943Y-132516405D01*
X174056820Y-132930781D01*
X174409219Y-133283180D01*
X174823595Y-133560057D01*
X175284026Y-133750774D01*
X175772817Y-133848000D01*
X176271183Y-133848000D01*
X176759974Y-133750774D01*
X177220405Y-133560057D01*
X177634781Y-133283180D01*
X177987180Y-132930781D01*
X178264057Y-132516405D01*
X178454774Y-132055974D01*
X178552000Y-131567183D01*
X178552000Y-131068817D01*
X178454774Y-130580026D01*
X178264057Y-130119595D01*
X177987180Y-129705219D01*
X177634781Y-129352820D01*
X177220405Y-129075943D01*
X176759974Y-128885226D01*
X176271183Y-128788000D01*
X175772817Y-128788000D01*
X175284026Y-128885226D01*
X174823595Y-129075943D01*
X174409219Y-129352820D01*
X174056820Y-129705219D01*
X173779943Y-130119595D01*
X173589226Y-130580026D01*
X173492000Y-131068817D01*
X170487984Y-131068817D01*
X173485008Y-128071795D01*
X173514001Y-128048001D01*
X173537795Y-128019008D01*
X173537799Y-128019004D01*
X173608973Y-127932277D01*
X173608974Y-127932276D01*
X173679546Y-127800247D01*
X173723003Y-127656986D01*
X173734000Y-127545333D01*
X173734000Y-127545324D01*
X173737676Y-127508001D01*
X173734000Y-127470678D01*
X173734000Y-124718928D01*
X173950899Y-124896932D01*
X174200192Y-125030182D01*
X174470691Y-125112236D01*
X174681508Y-125133000D01*
X174822492Y-125133000D01*
X175033309Y-125112236D01*
X175303808Y-125030182D01*
X175553101Y-124896932D01*
X175771608Y-124717608D01*
X175950932Y-124499101D01*
X176084182Y-124249808D01*
X176166236Y-123979309D01*
X176193943Y-123698000D01*
X176166236Y-123416691D01*
X176159613Y-123394857D01*
X176228102Y-123423226D01*
X176428061Y-123463000D01*
X176631939Y-123463000D01*
X176831898Y-123423226D01*
X177020256Y-123345205D01*
X177189774Y-123231937D01*
X177333937Y-123087774D01*
X177447205Y-122918256D01*
X177525226Y-122729898D01*
X177565000Y-122529939D01*
X177565000Y-122326061D01*
X177525226Y-122126102D01*
X177447205Y-121937744D01*
X177333937Y-121768226D01*
X177290000Y-121724289D01*
X177290000Y-119145000D01*
X177393939Y-119145000D01*
X177593898Y-119105226D01*
X177782256Y-119027205D01*
X177951774Y-118913937D01*
X178095937Y-118769774D01*
X178209205Y-118600256D01*
X178287226Y-118411898D01*
X178327000Y-118211939D01*
X178327000Y-118008061D01*
X178287226Y-117808102D01*
X178209205Y-117619744D01*
X178095937Y-117450226D01*
X178052000Y-117406289D01*
X178052000Y-115589000D01*
X178155939Y-115589000D01*
X178355898Y-115549226D01*
X178544256Y-115471205D01*
X178713774Y-115357937D01*
X178857937Y-115213774D01*
X178971205Y-115044256D01*
X179049226Y-114855898D01*
X179089000Y-114655939D01*
X179089000Y-114593802D01*
X179188984Y-114493818D01*
X179217981Y-114470021D01*
X179271330Y-114405015D01*
X179312954Y-114354297D01*
X179356715Y-114272426D01*
X179426226Y-114341937D01*
X179595744Y-114455205D01*
X179784102Y-114533226D01*
X179984061Y-114573000D01*
X180187939Y-114573000D01*
X180387898Y-114533226D01*
X180417001Y-114521171D01*
X180417001Y-132554485D01*
X180354262Y-133194343D01*
X180178168Y-133777595D01*
X179892143Y-134315531D01*
X179507078Y-134787667D01*
X179037641Y-135176019D01*
X178501714Y-135465794D01*
X177919705Y-135645956D01*
X177281811Y-135713000D01*
X131096801Y-135713000D01*
X135260726Y-131549076D01*
X135412000Y-131563975D01*
X135654102Y-131540130D01*
X135886901Y-131469511D01*
X136101449Y-131354833D01*
X136289502Y-131200502D01*
X136443833Y-131012449D01*
X136558511Y-130797900D01*
X136629130Y-130565101D01*
X136647000Y-130383664D01*
X136647000Y-129712335D01*
X136629130Y-129530898D01*
X136558511Y-129298099D01*
X136443833Y-129083551D01*
X136289502Y-128895498D01*
X136101448Y-128741167D01*
X135886900Y-128626489D01*
X135654101Y-128555870D01*
X135412000Y-128532025D01*
X135169898Y-128555870D01*
X134937099Y-128626489D01*
X134722551Y-128741167D01*
X134534498Y-128895498D01*
X134412000Y-129044763D01*
X134289502Y-128895498D01*
X134101448Y-128741167D01*
X133886900Y-128626489D01*
X133654101Y-128555870D01*
X133412000Y-128532025D01*
X133169898Y-128555870D01*
X132937099Y-128626489D01*
X132722551Y-128741167D01*
X132534498Y-128895498D01*
X132412000Y-129044763D01*
X132289502Y-128895498D01*
X132101448Y-128741167D01*
X131886900Y-128626489D01*
X131654101Y-128555870D01*
X131412000Y-128532025D01*
X131169898Y-128555870D01*
X130937099Y-128626489D01*
X130722551Y-128741167D01*
X130534498Y-128895498D01*
X130412000Y-129044763D01*
X130289502Y-128895498D01*
X130101448Y-128741167D01*
X129886900Y-128626489D01*
X129654101Y-128555870D01*
X129412000Y-128532025D01*
X129169898Y-128555870D01*
X128937099Y-128626489D01*
X128722551Y-128741167D01*
X128534498Y-128895498D01*
X128412000Y-129044763D01*
X128289502Y-128895498D01*
X128172000Y-128799067D01*
X128172000Y-128724211D01*
X129289004Y-127607208D01*
X129318001Y-127583411D01*
X129412974Y-127467686D01*
X129483546Y-127335657D01*
X129527003Y-127192396D01*
X129538000Y-127080743D01*
X129538000Y-127080735D01*
X129541676Y-127043410D01*
X129538000Y-127006085D01*
X129538000Y-125768574D01*
X129560960Y-125778084D01*
X129760919Y-125817858D01*
X129823057Y-125817858D01*
X131516201Y-127511003D01*
X131539999Y-127540001D01*
X131655724Y-127634974D01*
X131787753Y-127705546D01*
X131931014Y-127749003D01*
X132042667Y-127760000D01*
X132042676Y-127760000D01*
X132079999Y-127763676D01*
X132117322Y-127760000D01*
X169380678Y-127760000D01*
X169418000Y-127763676D01*
X169455322Y-127760000D01*
X169455333Y-127760000D01*
X169566986Y-127749003D01*
X169710247Y-127705546D01*
X169842276Y-127634974D01*
X169958001Y-127540001D01*
X169981804Y-127510998D01*
X170945003Y-126547799D01*
X170974001Y-126524001D01*
X171045709Y-126436625D01*
X171068974Y-126408277D01*
X171139546Y-126276247D01*
X171160184Y-126208211D01*
X171183003Y-126132986D01*
X171194000Y-126021333D01*
X171194000Y-126021323D01*
X171197676Y-125984000D01*
X171194000Y-125946678D01*
X171194000Y-113205952D01*
X171197676Y-113168629D01*
X171194000Y-113131306D01*
X171194000Y-113131297D01*
X171183003Y-113019644D01*
X171139546Y-112876383D01*
X171068974Y-112744354D01*
X171046298Y-112716723D01*
X170997799Y-112657626D01*
X170997795Y-112657622D01*
X170974001Y-112628629D01*
X170945009Y-112604836D01*
X168827174Y-110487002D01*
X168803371Y-110457999D01*
X168687646Y-110363026D01*
X168555617Y-110292454D01*
X168412356Y-110248997D01*
X168355802Y-110243427D01*
X168330932Y-110196899D01*
X168151608Y-109978392D01*
X167933101Y-109799068D01*
X167800142Y-109728000D01*
X167933101Y-109656932D01*
X168151608Y-109477608D01*
X168330932Y-109259101D01*
X168464182Y-109009808D01*
X168546236Y-108739309D01*
X168573943Y-108458000D01*
X168546236Y-108176691D01*
X168464182Y-107906192D01*
X168330932Y-107656899D01*
X168151608Y-107438392D01*
X168038518Y-107345581D01*
X168056482Y-107343812D01*
X168176180Y-107307502D01*
X168286494Y-107248537D01*
X168383185Y-107169185D01*
X168462537Y-107072494D01*
X168521502Y-106962180D01*
X168557812Y-106842482D01*
X168570072Y-106718000D01*
X168567000Y-106203750D01*
X168408250Y-106045000D01*
X167259000Y-106045000D01*
X167259000Y-106065000D01*
X167005000Y-106065000D01*
X167005000Y-106045000D01*
X165855750Y-106045000D01*
X165824776Y-106075974D01*
X165098000Y-105349199D01*
X165098000Y-105118000D01*
X165693928Y-105118000D01*
X165697000Y-105632250D01*
X165855750Y-105791000D01*
X167005000Y-105791000D01*
X167005000Y-104641750D01*
X167259000Y-104641750D01*
X167259000Y-105791000D01*
X168408250Y-105791000D01*
X168567000Y-105632250D01*
X168570072Y-105118000D01*
X168557812Y-104993518D01*
X168521502Y-104873820D01*
X168462537Y-104763506D01*
X168383185Y-104666815D01*
X168286494Y-104587463D01*
X168176180Y-104528498D01*
X168056482Y-104492188D01*
X167932000Y-104479928D01*
X167417750Y-104483000D01*
X167259000Y-104641750D01*
X167005000Y-104641750D01*
X166846250Y-104483000D01*
X166332000Y-104479928D01*
X166207518Y-104492188D01*
X166087820Y-104528498D01*
X165977506Y-104587463D01*
X165880815Y-104666815D01*
X165801463Y-104763506D01*
X165742498Y-104873820D01*
X165706188Y-104993518D01*
X165693928Y-105118000D01*
X165098000Y-105118000D01*
X165098000Y-98571000D01*
X165164939Y-98571000D01*
X165364898Y-98531226D01*
X165553256Y-98453205D01*
X165722774Y-98339937D01*
X165866937Y-98195774D01*
X165980205Y-98026256D01*
X166018666Y-97933403D01*
X166112392Y-98047608D01*
X166330899Y-98226932D01*
X166463858Y-98298000D01*
X166330899Y-98369068D01*
X166112392Y-98548392D01*
X165933068Y-98766899D01*
X165799818Y-99016192D01*
X165717764Y-99286691D01*
X165690057Y-99568000D01*
X165717764Y-99849309D01*
X165799818Y-100119808D01*
X165933068Y-100369101D01*
X166112392Y-100587608D01*
X166330899Y-100766932D01*
X166580192Y-100900182D01*
X166850691Y-100982236D01*
X167061508Y-101003000D01*
X167202492Y-101003000D01*
X167413309Y-100982236D01*
X167683808Y-100900182D01*
X167933101Y-100766932D01*
X168151608Y-100587608D01*
X168330932Y-100369101D01*
X168464182Y-100119808D01*
X168546236Y-99849309D01*
X168573943Y-99568000D01*
X168546236Y-99286691D01*
X168464182Y-99016192D01*
X168330932Y-98766899D01*
X168151608Y-98548392D01*
X167933101Y-98369068D01*
X167800142Y-98298000D01*
X167933101Y-98226932D01*
X168151608Y-98047608D01*
X168330932Y-97829101D01*
X168464182Y-97579808D01*
X168546236Y-97309309D01*
X168573943Y-97028000D01*
X168546236Y-96746691D01*
X168464182Y-96476192D01*
X168330932Y-96226899D01*
X168151608Y-96008392D01*
X167933101Y-95829068D01*
X167800142Y-95758000D01*
X167933101Y-95686932D01*
X168151608Y-95507608D01*
X168330932Y-95289101D01*
X168464182Y-95039808D01*
X168546236Y-94769309D01*
X168573943Y-94488000D01*
X168546236Y-94206691D01*
X168464182Y-93936192D01*
X168330932Y-93686899D01*
X168151608Y-93468392D01*
X167933101Y-93289068D01*
X167800142Y-93218000D01*
X167933101Y-93146932D01*
X168151608Y-92967608D01*
X168330932Y-92749101D01*
X168464182Y-92499808D01*
X168546236Y-92229309D01*
X168573943Y-91948000D01*
X168546236Y-91666691D01*
X168464182Y-91396192D01*
X168330932Y-91146899D01*
X168151608Y-90928392D01*
X167933101Y-90749068D01*
X167800142Y-90678000D01*
X167933101Y-90606932D01*
X168151608Y-90427608D01*
X168330932Y-90209101D01*
X168464182Y-89959808D01*
X168546236Y-89689309D01*
X168573943Y-89408000D01*
X168546236Y-89126691D01*
X168464182Y-88856192D01*
X168330932Y-88606899D01*
X168151608Y-88388392D01*
X167933101Y-88209068D01*
X167800142Y-88138000D01*
X167933101Y-88066932D01*
X168151608Y-87887608D01*
X168330932Y-87669101D01*
X168464182Y-87419808D01*
X168546236Y-87149309D01*
X168573943Y-86868000D01*
X168546236Y-86586691D01*
X168464182Y-86316192D01*
X168330932Y-86066899D01*
X168151608Y-85848392D01*
X168038518Y-85755581D01*
X168056482Y-85753812D01*
X168176180Y-85717502D01*
X168286494Y-85658537D01*
X168383185Y-85579185D01*
X168462537Y-85482494D01*
X168521502Y-85372180D01*
X168557812Y-85252482D01*
X168570072Y-85128000D01*
X168570072Y-83528000D01*
X168557812Y-83403518D01*
X168521502Y-83283820D01*
X168462537Y-83173506D01*
X168383185Y-83076815D01*
X168286494Y-82997463D01*
X168176180Y-82938498D01*
X168056482Y-82902188D01*
X167932000Y-82889928D01*
X166332000Y-82889928D01*
X166207518Y-82902188D01*
X166087820Y-82938498D01*
X165977506Y-82997463D01*
X165880815Y-83076815D01*
X165801463Y-83173506D01*
X165742498Y-83283820D01*
X165711883Y-83384745D01*
X165697974Y-83358723D01*
X165626799Y-83271997D01*
X165603001Y-83242999D01*
X165574003Y-83219201D01*
X161055000Y-78700199D01*
X161055000Y-78638061D01*
X161046037Y-78593001D01*
X162159677Y-78593001D01*
X162196999Y-78596677D01*
X162234321Y-78593001D01*
X162234332Y-78593001D01*
X162345985Y-78582004D01*
X162489246Y-78538547D01*
X162621275Y-78467975D01*
X162737000Y-78373002D01*
X162760803Y-78343999D01*
X162998113Y-78106688D01*
X163180665Y-78143000D01*
X163463335Y-78143000D01*
X163740574Y-78087853D01*
X164001727Y-77979680D01*
X164236759Y-77822637D01*
X164436637Y-77622759D01*
X164540043Y-77468000D01*
X166699676Y-77468000D01*
X166736998Y-77471676D01*
X166774320Y-77468000D01*
X166774331Y-77468000D01*
X166885984Y-77457003D01*
X167029245Y-77413546D01*
X167120754Y-77364633D01*
X167130320Y-77387727D01*
X167287363Y-77622759D01*
X167487241Y-77822637D01*
X167722273Y-77979680D01*
X167983426Y-78087853D01*
X168260665Y-78143000D01*
X168543335Y-78143000D01*
X168658001Y-78120191D01*
X168658000Y-97594289D01*
X168614063Y-97638226D01*
X168500795Y-97807744D01*
X168422774Y-97996102D01*
X168383000Y-98196061D01*
X168383000Y-98399939D01*
X168422774Y-98599898D01*
X168500795Y-98788256D01*
X168614063Y-98957774D01*
X168758226Y-99101937D01*
X168927744Y-99215205D01*
X169116102Y-99293226D01*
X169316061Y-99333000D01*
X169519939Y-99333000D01*
X169719898Y-99293226D01*
X169908256Y-99215205D01*
X170077774Y-99101937D01*
X170221937Y-98957774D01*
X170335205Y-98788256D01*
X170413226Y-98599898D01*
X170453000Y-98399939D01*
X170453000Y-98196061D01*
X170413226Y-97996102D01*
X170335205Y-97807744D01*
X170221937Y-97638226D01*
X170178000Y-97594289D01*
X170178000Y-77761322D01*
X170181676Y-77724000D01*
X170178000Y-77686677D01*
X170178000Y-77686667D01*
X170167003Y-77575014D01*
X170123546Y-77431753D01*
X170076092Y-77342974D01*
X170052974Y-77299723D01*
X169981799Y-77212997D01*
X169958001Y-77183999D01*
X169929003Y-77160201D01*
X169800688Y-77031886D01*
X169837000Y-76849335D01*
X169837000Y-76566665D01*
X169792509Y-76342999D01*
X176816920Y-76342999D01*
X176816921Y-100387215D01*
G36*
X143073068Y-109259101D02*
G01*
X143252392Y-109477608D01*
X143470899Y-109656932D01*
X143603858Y-109728000D01*
X143470899Y-109799068D01*
X143252392Y-109978392D01*
X143073068Y-110196899D01*
X142939818Y-110446192D01*
X142857764Y-110716691D01*
X142830057Y-110998000D01*
X142857764Y-111279309D01*
X142939818Y-111549808D01*
X143073068Y-111799101D01*
X143252392Y-112017608D01*
X143470899Y-112196932D01*
X143720192Y-112330182D01*
X143990691Y-112412236D01*
X144201508Y-112433000D01*
X144342492Y-112433000D01*
X144553309Y-112412236D01*
X144597907Y-112398708D01*
X151582201Y-119383003D01*
X151605999Y-119412001D01*
X151634997Y-119435799D01*
X151721724Y-119506974D01*
X151853753Y-119577546D01*
X151997014Y-119621003D01*
X152146000Y-119635677D01*
X152183333Y-119632000D01*
X153124678Y-119632000D01*
X153162000Y-119635676D01*
X153199322Y-119632000D01*
X153199333Y-119632000D01*
X153310986Y-119621003D01*
X153454247Y-119577546D01*
X153586276Y-119506974D01*
X153702001Y-119412001D01*
X153725804Y-119382997D01*
X155487802Y-117621000D01*
X155549939Y-117621000D01*
X155749898Y-117581226D01*
X155938256Y-117503205D01*
X156107774Y-117389937D01*
X156251937Y-117245774D01*
X156272379Y-117215180D01*
X160726201Y-121669003D01*
X160749999Y-121698001D01*
X160778997Y-121721799D01*
X160865723Y-121792974D01*
X160997753Y-121863546D01*
X161141014Y-121907003D01*
X161252667Y-121918000D01*
X161252676Y-121918000D01*
X161289999Y-121921676D01*
X161327322Y-121918000D01*
X165911099Y-121918000D01*
X165933068Y-121959101D01*
X166112392Y-122177608D01*
X166330899Y-122356932D01*
X166463858Y-122428000D01*
X166330899Y-122499068D01*
X166112392Y-122678392D01*
X165933068Y-122896899D01*
X165799818Y-123146192D01*
X165717764Y-123416691D01*
X165690057Y-123698000D01*
X165717764Y-123979309D01*
X165799818Y-124249808D01*
X165933068Y-124499101D01*
X166112392Y-124717608D01*
X166330899Y-124896932D01*
X166580192Y-125030182D01*
X166850691Y-125112236D01*
X167061508Y-125133000D01*
X167202492Y-125133000D01*
X167413309Y-125112236D01*
X167683808Y-125030182D01*
X167933101Y-124896932D01*
X168151608Y-124717608D01*
X168330932Y-124499101D01*
X168464182Y-124249808D01*
X168546236Y-123979309D01*
X168573943Y-123698000D01*
X168546236Y-123416691D01*
X168464182Y-123146192D01*
X168330932Y-122896899D01*
X168151608Y-122678392D01*
X167933101Y-122499068D01*
X167800142Y-122428000D01*
X167933101Y-122356932D01*
X168151608Y-122177608D01*
X168330932Y-121959101D01*
X168464182Y-121709808D01*
X168546236Y-121439309D01*
X168573943Y-121158000D01*
X168546236Y-120876691D01*
X168464182Y-120606192D01*
X168330932Y-120356899D01*
X168151608Y-120138392D01*
X167933101Y-119959068D01*
X167800142Y-119888000D01*
X167933101Y-119816932D01*
X168151608Y-119637608D01*
X168330932Y-119419101D01*
X168464182Y-119169808D01*
X168546236Y-118899309D01*
X168573943Y-118618000D01*
X168546236Y-118336691D01*
X168464182Y-118066192D01*
X168330932Y-117816899D01*
X168151608Y-117598392D01*
X167933101Y-117419068D01*
X167800142Y-117348000D01*
X167933101Y-117276932D01*
X168151608Y-117097608D01*
X168330932Y-116879101D01*
X168464182Y-116629808D01*
X168546236Y-116359309D01*
X168573943Y-116078000D01*
X168546236Y-115796691D01*
X168464182Y-115526192D01*
X168330932Y-115276899D01*
X168151608Y-115058392D01*
X167933101Y-114879068D01*
X167800142Y-114808000D01*
X167933101Y-114736932D01*
X168151608Y-114557608D01*
X168330932Y-114339101D01*
X168464182Y-114089808D01*
X168546236Y-113819309D01*
X168573943Y-113538000D01*
X168546236Y-113256691D01*
X168464182Y-112986192D01*
X168330932Y-112736899D01*
X168151608Y-112518392D01*
X167933101Y-112339068D01*
X167800142Y-112268000D01*
X167933101Y-112196932D01*
X168151608Y-112017608D01*
X168177107Y-111986538D01*
X169674000Y-113483433D01*
X169674001Y-125669197D01*
X169103199Y-126240000D01*
X132394802Y-126240000D01*
X130897858Y-124743057D01*
X130897858Y-124680919D01*
X130858084Y-124480960D01*
X130780063Y-124292602D01*
X130666795Y-124123084D01*
X130619461Y-124075750D01*
X132983317Y-121711895D01*
X133054063Y-121817774D01*
X133198226Y-121961937D01*
X133367744Y-122075205D01*
X133556102Y-122153226D01*
X133756061Y-122193000D01*
X133959939Y-122193000D01*
X134159898Y-122153226D01*
X134348256Y-122075205D01*
X134517774Y-121961937D01*
X134561711Y-121918000D01*
X136818702Y-121918000D01*
X136973445Y-122106555D01*
X137176725Y-122273382D01*
X137408646Y-122397347D01*
X137503828Y-122426220D01*
X137289641Y-122514939D01*
X137070987Y-122661038D01*
X136885038Y-122846987D01*
X136738939Y-123065641D01*
X136638304Y-123308595D01*
X136587000Y-123566514D01*
X136587000Y-123829486D01*
X136638304Y-124087405D01*
X136738939Y-124330359D01*
X136885038Y-124549013D01*
X137070987Y-124734962D01*
X137289641Y-124881061D01*
X137532595Y-124981696D01*
X137790514Y-125033000D01*
X138053486Y-125033000D01*
X138311405Y-124981696D01*
X138554359Y-124881061D01*
X138773013Y-124734962D01*
X138958962Y-124549013D01*
X139105061Y-124330359D01*
X139205696Y-124087405D01*
X139257000Y-123829486D01*
X139257000Y-123566514D01*
X139205696Y-123308595D01*
X139105061Y-123065641D01*
X138958962Y-122846987D01*
X138773013Y-122661038D01*
X138554359Y-122514939D01*
X138340172Y-122426220D01*
X138435354Y-122397347D01*
X138667275Y-122273382D01*
X138870555Y-122106555D01*
X139037382Y-121903275D01*
X139161347Y-121671354D01*
X139237683Y-121419706D01*
X139263459Y-121158000D01*
X139237683Y-120896294D01*
X139161347Y-120644646D01*
X139037382Y-120412725D01*
X138870555Y-120209445D01*
X138806533Y-120156904D01*
X138985898Y-120121226D01*
X139174256Y-120043205D01*
X139343774Y-119929937D01*
X139387711Y-119886000D01*
X140655199Y-119886000D01*
X141688355Y-120919157D01*
X141667000Y-121026514D01*
X141667000Y-121289486D01*
X141718304Y-121547405D01*
X141818939Y-121790359D01*
X141965038Y-122009013D01*
X142150987Y-122194962D01*
X142242001Y-122255775D01*
X142242000Y-122594702D01*
X142053445Y-122749445D01*
X141886618Y-122952725D01*
X141762653Y-123184646D01*
X141686317Y-123436294D01*
X141660541Y-123698000D01*
X141686317Y-123959706D01*
X141762653Y-124211354D01*
X141886618Y-124443275D01*
X142053445Y-124646555D01*
X142256725Y-124813382D01*
X142488646Y-124937347D01*
X142740294Y-125013683D01*
X142936421Y-125033000D01*
X143067579Y-125033000D01*
X143263706Y-125013683D01*
X143515354Y-124937347D01*
X143747275Y-124813382D01*
X143950555Y-124646555D01*
X144117382Y-124443275D01*
X144241347Y-124211354D01*
X144317683Y-123959706D01*
X144343459Y-123698000D01*
X144317683Y-123436294D01*
X144241347Y-123184646D01*
X144117382Y-122952725D01*
X143950555Y-122749445D01*
X143762000Y-122594702D01*
X143762000Y-122255775D01*
X143853013Y-122194962D01*
X144038962Y-122009013D01*
X144185061Y-121790359D01*
X144285696Y-121547405D01*
X144337000Y-121289486D01*
X144337000Y-121026514D01*
X144335041Y-121016665D01*
X152997000Y-121016665D01*
X152997000Y-121299335D01*
X153052147Y-121576574D01*
X153160320Y-121837727D01*
X153317363Y-122072759D01*
X153517241Y-122272637D01*
X153749759Y-122428000D01*
X153517241Y-122583363D01*
X153317363Y-122783241D01*
X153160320Y-123018273D01*
X153052147Y-123279426D01*
X152997000Y-123556665D01*
X152997000Y-123839335D01*
X153052147Y-124116574D01*
X153160320Y-124377727D01*
X153317363Y-124612759D01*
X153517241Y-124812637D01*
X153752273Y-124969680D01*
X154013426Y-125077853D01*
X154290665Y-125133000D01*
X154573335Y-125133000D01*
X154850574Y-125077853D01*
X155111727Y-124969680D01*
X155346759Y-124812637D01*
X155468694Y-124690702D01*
X156118903Y-124690702D01*
X156190486Y-124934671D01*
X156445996Y-125055571D01*
X156720184Y-125124300D01*
X157002512Y-125138217D01*
X157282130Y-125096787D01*
X157548292Y-125001603D01*
X157673514Y-124934671D01*
X157745097Y-124690702D01*
X156932000Y-123877605D01*
X156118903Y-124690702D01*
X155468694Y-124690702D01*
X155546637Y-124612759D01*
X155680692Y-124412131D01*
X155695329Y-124439514D01*
X155939298Y-124511097D01*
X156752395Y-123698000D01*
X157111605Y-123698000D01*
X157924702Y-124511097D01*
X158168671Y-124439514D01*
X158289571Y-124184004D01*
X158358300Y-123909816D01*
X158372217Y-123627488D01*
X158330787Y-123347870D01*
X158235603Y-123081708D01*
X158168671Y-122956486D01*
X157924702Y-122884903D01*
X157111605Y-123698000D01*
X156752395Y-123698000D01*
X155939298Y-122884903D01*
X155695329Y-122956486D01*
X155681676Y-122985341D01*
X155546637Y-122783241D01*
X155346759Y-122583363D01*
X155114241Y-122428000D01*
X155346759Y-122272637D01*
X155468694Y-122150702D01*
X156118903Y-122150702D01*
X156190486Y-122394671D01*
X156256636Y-122425971D01*
X156190486Y-122461329D01*
X156118903Y-122705298D01*
X156932000Y-123518395D01*
X157745097Y-122705298D01*
X157673514Y-122461329D01*
X157607364Y-122430029D01*
X157673514Y-122394671D01*
X157745097Y-122150702D01*
X156932000Y-121337605D01*
X156118903Y-122150702D01*
X155468694Y-122150702D01*
X155546637Y-122072759D01*
X155680692Y-121872131D01*
X155695329Y-121899514D01*
X155939298Y-121971097D01*
X156752395Y-121158000D01*
X157111605Y-121158000D01*
X157924702Y-121971097D01*
X158168671Y-121899514D01*
X158289571Y-121644004D01*
X158358300Y-121369816D01*
X158372217Y-121087488D01*
X158330787Y-120807870D01*
X158235603Y-120541708D01*
X158168671Y-120416486D01*
X157924702Y-120344903D01*
X157111605Y-121158000D01*
X156752395Y-121158000D01*
X155939298Y-120344903D01*
X155695329Y-120416486D01*
X155681676Y-120445341D01*
X155546637Y-120243241D01*
X155468694Y-120165298D01*
X156118903Y-120165298D01*
X156932000Y-120978395D01*
X157745097Y-120165298D01*
X157673514Y-119921329D01*
X157418004Y-119800429D01*
X157143816Y-119731700D01*
X156861488Y-119717783D01*
X156581870Y-119759213D01*
X156315708Y-119854397D01*
X156190486Y-119921329D01*
X156118903Y-120165298D01*
X155468694Y-120165298D01*
X155346759Y-120043363D01*
X155111727Y-119886320D01*
X154850574Y-119778147D01*
X154573335Y-119723000D01*
X154290665Y-119723000D01*
X154013426Y-119778147D01*
X153752273Y-119886320D01*
X153517241Y-120043363D01*
X153317363Y-120243241D01*
X153160320Y-120478273D01*
X153052147Y-120739426D01*
X152997000Y-121016665D01*
X144335041Y-121016665D01*
X144285696Y-120768595D01*
X144185061Y-120525641D01*
X144038962Y-120306987D01*
X143853013Y-120121038D01*
X143634359Y-119974939D01*
X143391405Y-119874304D01*
X143133486Y-119823000D01*
X142870514Y-119823000D01*
X142763157Y-119844355D01*
X141701801Y-118783000D01*
X141873335Y-118783000D01*
X142150574Y-118727853D01*
X142411727Y-118619680D01*
X142646759Y-118462637D01*
X142768694Y-118340702D01*
X143418903Y-118340702D01*
X143490486Y-118584671D01*
X143745996Y-118705571D01*
X144020184Y-118774300D01*
X144302512Y-118788217D01*
X144582130Y-118746787D01*
X144848292Y-118651603D01*
X144973514Y-118584671D01*
X145045097Y-118340702D01*
X144232000Y-117527605D01*
X143418903Y-118340702D01*
X142768694Y-118340702D01*
X142846637Y-118262759D01*
X142980692Y-118062131D01*
X142995329Y-118089514D01*
X143239298Y-118161097D01*
X144052395Y-117348000D01*
X144411605Y-117348000D01*
X145224702Y-118161097D01*
X145468671Y-118089514D01*
X145589571Y-117834004D01*
X145658300Y-117559816D01*
X145672217Y-117277488D01*
X145630787Y-116997870D01*
X145535603Y-116731708D01*
X145468671Y-116606486D01*
X145224702Y-116534903D01*
X144411605Y-117348000D01*
X144052395Y-117348000D01*
X143239298Y-116534903D01*
X142995329Y-116606486D01*
X142981676Y-116635341D01*
X142846637Y-116433241D01*
X142768694Y-116355298D01*
X143418903Y-116355298D01*
X144232000Y-117168395D01*
X145045097Y-116355298D01*
X144973514Y-116111329D01*
X144718004Y-115990429D01*
X144443816Y-115921700D01*
X144161488Y-115907783D01*
X143881870Y-115949213D01*
X143615708Y-116044397D01*
X143490486Y-116111329D01*
X143418903Y-116355298D01*
X142768694Y-116355298D01*
X142646759Y-116233363D01*
X142411727Y-116076320D01*
X142150574Y-115968147D01*
X141873335Y-115913000D01*
X141590665Y-115913000D01*
X141408113Y-115949312D01*
X141170803Y-115712001D01*
X141147000Y-115682998D01*
X141031275Y-115588025D01*
X140899246Y-115517453D01*
X140755985Y-115473996D01*
X140644332Y-115462999D01*
X140644321Y-115462999D01*
X140606999Y-115459323D01*
X140569677Y-115462999D01*
X136692212Y-115462999D01*
X143011429Y-109143783D01*
X143073068Y-109259101D01*
X143073068Y-109259101D01*
G37*
X143073068Y-109259101D02*
X143252392Y-109477608D01*
X143470899Y-109656932D01*
X143603858Y-109728000D01*
X143470899Y-109799068D01*
X143252392Y-109978392D01*
X143073068Y-110196899D01*
X142939818Y-110446192D01*
X142857764Y-110716691D01*
X142830057Y-110998000D01*
X142857764Y-111279309D01*
X142939818Y-111549808D01*
X143073068Y-111799101D01*
X143252392Y-112017608D01*
X143470899Y-112196932D01*
X143720192Y-112330182D01*
X143990691Y-112412236D01*
X144201508Y-112433000D01*
X144342492Y-112433000D01*
X144553309Y-112412236D01*
X144597907Y-112398708D01*
X151582201Y-119383003D01*
X151605999Y-119412001D01*
X151634997Y-119435799D01*
X151721724Y-119506974D01*
X151853753Y-119577546D01*
X151997014Y-119621003D01*
X152146000Y-119635677D01*
X152183333Y-119632000D01*
X153124678Y-119632000D01*
X153162000Y-119635676D01*
X153199322Y-119632000D01*
X153199333Y-119632000D01*
X153310986Y-119621003D01*
X153454247Y-119577546D01*
X153586276Y-119506974D01*
X153702001Y-119412001D01*
X153725804Y-119382997D01*
X155487802Y-117621000D01*
X155549939Y-117621000D01*
X155749898Y-117581226D01*
X155938256Y-117503205D01*
X156107774Y-117389937D01*
X156251937Y-117245774D01*
X156272379Y-117215180D01*
X160726201Y-121669003D01*
X160749999Y-121698001D01*
X160778997Y-121721799D01*
X160865723Y-121792974D01*
X160997753Y-121863546D01*
X161141014Y-121907003D01*
X161252667Y-121918000D01*
X161252676Y-121918000D01*
X161289999Y-121921676D01*
X161327322Y-121918000D01*
X165911099Y-121918000D01*
X165933068Y-121959101D01*
X166112392Y-122177608D01*
X166330899Y-122356932D01*
X166463858Y-122428000D01*
X166330899Y-122499068D01*
X166112392Y-122678392D01*
X165933068Y-122896899D01*
X165799818Y-123146192D01*
X165717764Y-123416691D01*
X165690057Y-123698000D01*
X165717764Y-123979309D01*
X165799818Y-124249808D01*
X165933068Y-124499101D01*
X166112392Y-124717608D01*
X166330899Y-124896932D01*
X166580192Y-125030182D01*
X166850691Y-125112236D01*
X167061508Y-125133000D01*
X167202492Y-125133000D01*
X167413309Y-125112236D01*
X167683808Y-125030182D01*
X167933101Y-124896932D01*
X168151608Y-124717608D01*
X168330932Y-124499101D01*
X168464182Y-124249808D01*
X168546236Y-123979309D01*
X168573943Y-123698000D01*
X168546236Y-123416691D01*
X168464182Y-123146192D01*
X168330932Y-122896899D01*
X168151608Y-122678392D01*
X167933101Y-122499068D01*
X167800142Y-122428000D01*
X167933101Y-122356932D01*
X168151608Y-122177608D01*
X168330932Y-121959101D01*
X168464182Y-121709808D01*
X168546236Y-121439309D01*
X168573943Y-121158000D01*
X168546236Y-120876691D01*
X168464182Y-120606192D01*
X168330932Y-120356899D01*
X168151608Y-120138392D01*
X167933101Y-119959068D01*
X167800142Y-119888000D01*
X167933101Y-119816932D01*
X168151608Y-119637608D01*
X168330932Y-119419101D01*
X168464182Y-119169808D01*
X168546236Y-118899309D01*
X168573943Y-118618000D01*
X168546236Y-118336691D01*
X168464182Y-118066192D01*
X168330932Y-117816899D01*
X168151608Y-117598392D01*
X167933101Y-117419068D01*
X167800142Y-117348000D01*
X167933101Y-117276932D01*
X168151608Y-117097608D01*
X168330932Y-116879101D01*
X168464182Y-116629808D01*
X168546236Y-116359309D01*
X168573943Y-116078000D01*
X168546236Y-115796691D01*
X168464182Y-115526192D01*
X168330932Y-115276899D01*
X168151608Y-115058392D01*
X167933101Y-114879068D01*
X167800142Y-114808000D01*
X167933101Y-114736932D01*
X168151608Y-114557608D01*
X168330932Y-114339101D01*
X168464182Y-114089808D01*
X168546236Y-113819309D01*
X168573943Y-113538000D01*
X168546236Y-113256691D01*
X168464182Y-112986192D01*
X168330932Y-112736899D01*
X168151608Y-112518392D01*
X167933101Y-112339068D01*
X167800142Y-112268000D01*
X167933101Y-112196932D01*
X168151608Y-112017608D01*
X168177107Y-111986538D01*
X169674000Y-113483433D01*
X169674001Y-125669197D01*
X169103199Y-126240000D01*
X132394802Y-126240000D01*
X130897858Y-124743057D01*
X130897858Y-124680919D01*
X130858084Y-124480960D01*
X130780063Y-124292602D01*
X130666795Y-124123084D01*
X130619461Y-124075750D01*
X132983317Y-121711895D01*
X133054063Y-121817774D01*
X133198226Y-121961937D01*
X133367744Y-122075205D01*
X133556102Y-122153226D01*
X133756061Y-122193000D01*
X133959939Y-122193000D01*
X134159898Y-122153226D01*
X134348256Y-122075205D01*
X134517774Y-121961937D01*
X134561711Y-121918000D01*
X136818702Y-121918000D01*
X136973445Y-122106555D01*
X137176725Y-122273382D01*
X137408646Y-122397347D01*
X137503828Y-122426220D01*
X137289641Y-122514939D01*
X137070987Y-122661038D01*
X136885038Y-122846987D01*
X136738939Y-123065641D01*
X136638304Y-123308595D01*
X136587000Y-123566514D01*
X136587000Y-123829486D01*
X136638304Y-124087405D01*
X136738939Y-124330359D01*
X136885038Y-124549013D01*
X137070987Y-124734962D01*
X137289641Y-124881061D01*
X137532595Y-124981696D01*
X137790514Y-125033000D01*
X138053486Y-125033000D01*
X138311405Y-124981696D01*
X138554359Y-124881061D01*
X138773013Y-124734962D01*
X138958962Y-124549013D01*
X139105061Y-124330359D01*
X139205696Y-124087405D01*
X139257000Y-123829486D01*
X139257000Y-123566514D01*
X139205696Y-123308595D01*
X139105061Y-123065641D01*
X138958962Y-122846987D01*
X138773013Y-122661038D01*
X138554359Y-122514939D01*
X138340172Y-122426220D01*
X138435354Y-122397347D01*
X138667275Y-122273382D01*
X138870555Y-122106555D01*
X139037382Y-121903275D01*
X139161347Y-121671354D01*
X139237683Y-121419706D01*
X139263459Y-121158000D01*
X139237683Y-120896294D01*
X139161347Y-120644646D01*
X139037382Y-120412725D01*
X138870555Y-120209445D01*
X138806533Y-120156904D01*
X138985898Y-120121226D01*
X139174256Y-120043205D01*
X139343774Y-119929937D01*
X139387711Y-119886000D01*
X140655199Y-119886000D01*
X141688355Y-120919157D01*
X141667000Y-121026514D01*
X141667000Y-121289486D01*
X141718304Y-121547405D01*
X141818939Y-121790359D01*
X141965038Y-122009013D01*
X142150987Y-122194962D01*
X142242001Y-122255775D01*
X142242000Y-122594702D01*
X142053445Y-122749445D01*
X141886618Y-122952725D01*
X141762653Y-123184646D01*
X141686317Y-123436294D01*
X141660541Y-123698000D01*
X141686317Y-123959706D01*
X141762653Y-124211354D01*
X141886618Y-124443275D01*
X142053445Y-124646555D01*
X142256725Y-124813382D01*
X142488646Y-124937347D01*
X142740294Y-125013683D01*
X142936421Y-125033000D01*
X143067579Y-125033000D01*
X143263706Y-125013683D01*
X143515354Y-124937347D01*
X143747275Y-124813382D01*
X143950555Y-124646555D01*
X144117382Y-124443275D01*
X144241347Y-124211354D01*
X144317683Y-123959706D01*
X144343459Y-123698000D01*
X144317683Y-123436294D01*
X144241347Y-123184646D01*
X144117382Y-122952725D01*
X143950555Y-122749445D01*
X143762000Y-122594702D01*
X143762000Y-122255775D01*
X143853013Y-122194962D01*
X144038962Y-122009013D01*
X144185061Y-121790359D01*
X144285696Y-121547405D01*
X144337000Y-121289486D01*
X144337000Y-121026514D01*
X144335041Y-121016665D01*
X152997000Y-121016665D01*
X152997000Y-121299335D01*
X153052147Y-121576574D01*
X153160320Y-121837727D01*
X153317363Y-122072759D01*
X153517241Y-122272637D01*
X153749759Y-122428000D01*
X153517241Y-122583363D01*
X153317363Y-122783241D01*
X153160320Y-123018273D01*
X153052147Y-123279426D01*
X152997000Y-123556665D01*
X152997000Y-123839335D01*
X153052147Y-124116574D01*
X153160320Y-124377727D01*
X153317363Y-124612759D01*
X153517241Y-124812637D01*
X153752273Y-124969680D01*
X154013426Y-125077853D01*
X154290665Y-125133000D01*
X154573335Y-125133000D01*
X154850574Y-125077853D01*
X155111727Y-124969680D01*
X155346759Y-124812637D01*
X155468694Y-124690702D01*
X156118903Y-124690702D01*
X156190486Y-124934671D01*
X156445996Y-125055571D01*
X156720184Y-125124300D01*
X157002512Y-125138217D01*
X157282130Y-125096787D01*
X157548292Y-125001603D01*
X157673514Y-124934671D01*
X157745097Y-124690702D01*
X156932000Y-123877605D01*
X156118903Y-124690702D01*
X155468694Y-124690702D01*
X155546637Y-124612759D01*
X155680692Y-124412131D01*
X155695329Y-124439514D01*
X155939298Y-124511097D01*
X156752395Y-123698000D01*
X157111605Y-123698000D01*
X157924702Y-124511097D01*
X158168671Y-124439514D01*
X158289571Y-124184004D01*
X158358300Y-123909816D01*
X158372217Y-123627488D01*
X158330787Y-123347870D01*
X158235603Y-123081708D01*
X158168671Y-122956486D01*
X157924702Y-122884903D01*
X157111605Y-123698000D01*
X156752395Y-123698000D01*
X155939298Y-122884903D01*
X155695329Y-122956486D01*
X155681676Y-122985341D01*
X155546637Y-122783241D01*
X155346759Y-122583363D01*
X155114241Y-122428000D01*
X155346759Y-122272637D01*
X155468694Y-122150702D01*
X156118903Y-122150702D01*
X156190486Y-122394671D01*
X156256636Y-122425971D01*
X156190486Y-122461329D01*
X156118903Y-122705298D01*
X156932000Y-123518395D01*
X157745097Y-122705298D01*
X157673514Y-122461329D01*
X157607364Y-122430029D01*
X157673514Y-122394671D01*
X157745097Y-122150702D01*
X156932000Y-121337605D01*
X156118903Y-122150702D01*
X155468694Y-122150702D01*
X155546637Y-122072759D01*
X155680692Y-121872131D01*
X155695329Y-121899514D01*
X155939298Y-121971097D01*
X156752395Y-121158000D01*
X157111605Y-121158000D01*
X157924702Y-121971097D01*
X158168671Y-121899514D01*
X158289571Y-121644004D01*
X158358300Y-121369816D01*
X158372217Y-121087488D01*
X158330787Y-120807870D01*
X158235603Y-120541708D01*
X158168671Y-120416486D01*
X157924702Y-120344903D01*
X157111605Y-121158000D01*
X156752395Y-121158000D01*
X155939298Y-120344903D01*
X155695329Y-120416486D01*
X155681676Y-120445341D01*
X155546637Y-120243241D01*
X155468694Y-120165298D01*
X156118903Y-120165298D01*
X156932000Y-120978395D01*
X157745097Y-120165298D01*
X157673514Y-119921329D01*
X157418004Y-119800429D01*
X157143816Y-119731700D01*
X156861488Y-119717783D01*
X156581870Y-119759213D01*
X156315708Y-119854397D01*
X156190486Y-119921329D01*
X156118903Y-120165298D01*
X155468694Y-120165298D01*
X155346759Y-120043363D01*
X155111727Y-119886320D01*
X154850574Y-119778147D01*
X154573335Y-119723000D01*
X154290665Y-119723000D01*
X154013426Y-119778147D01*
X153752273Y-119886320D01*
X153517241Y-120043363D01*
X153317363Y-120243241D01*
X153160320Y-120478273D01*
X153052147Y-120739426D01*
X152997000Y-121016665D01*
X144335041Y-121016665D01*
X144285696Y-120768595D01*
X144185061Y-120525641D01*
X144038962Y-120306987D01*
X143853013Y-120121038D01*
X143634359Y-119974939D01*
X143391405Y-119874304D01*
X143133486Y-119823000D01*
X142870514Y-119823000D01*
X142763157Y-119844355D01*
X141701801Y-118783000D01*
X141873335Y-118783000D01*
X142150574Y-118727853D01*
X142411727Y-118619680D01*
X142646759Y-118462637D01*
X142768694Y-118340702D01*
X143418903Y-118340702D01*
X143490486Y-118584671D01*
X143745996Y-118705571D01*
X144020184Y-118774300D01*
X144302512Y-118788217D01*
X144582130Y-118746787D01*
X144848292Y-118651603D01*
X144973514Y-118584671D01*
X145045097Y-118340702D01*
X144232000Y-117527605D01*
X143418903Y-118340702D01*
X142768694Y-118340702D01*
X142846637Y-118262759D01*
X142980692Y-118062131D01*
X142995329Y-118089514D01*
X143239298Y-118161097D01*
X144052395Y-117348000D01*
X144411605Y-117348000D01*
X145224702Y-118161097D01*
X145468671Y-118089514D01*
X145589571Y-117834004D01*
X145658300Y-117559816D01*
X145672217Y-117277488D01*
X145630787Y-116997870D01*
X145535603Y-116731708D01*
X145468671Y-116606486D01*
X145224702Y-116534903D01*
X144411605Y-117348000D01*
X144052395Y-117348000D01*
X143239298Y-116534903D01*
X142995329Y-116606486D01*
X142981676Y-116635341D01*
X142846637Y-116433241D01*
X142768694Y-116355298D01*
X143418903Y-116355298D01*
X144232000Y-117168395D01*
X145045097Y-116355298D01*
X144973514Y-116111329D01*
X144718004Y-115990429D01*
X144443816Y-115921700D01*
X144161488Y-115907783D01*
X143881870Y-115949213D01*
X143615708Y-116044397D01*
X143490486Y-116111329D01*
X143418903Y-116355298D01*
X142768694Y-116355298D01*
X142646759Y-116233363D01*
X142411727Y-116076320D01*
X142150574Y-115968147D01*
X141873335Y-115913000D01*
X141590665Y-115913000D01*
X141408113Y-115949312D01*
X141170803Y-115712001D01*
X141147000Y-115682998D01*
X141031275Y-115588025D01*
X140899246Y-115517453D01*
X140755985Y-115473996D01*
X140644332Y-115462999D01*
X140644321Y-115462999D01*
X140606999Y-115459323D01*
X140569677Y-115462999D01*
X136692212Y-115462999D01*
X143011429Y-109143783D01*
X143073068Y-109259101D01*
G36*
X158120096Y-98647039D02*
G01*
X158160754Y-98781087D01*
X158280963Y-99035420D01*
X158448481Y-99261414D01*
X158656869Y-99450385D01*
X158848682Y-99565421D01*
X158710899Y-99639068D01*
X158492392Y-99818392D01*
X158313068Y-100036899D01*
X158179818Y-100286192D01*
X158097764Y-100556691D01*
X158070057Y-100838000D01*
X158097764Y-101119309D01*
X158179818Y-101389808D01*
X158313068Y-101639101D01*
X158492392Y-101857608D01*
X158710899Y-102036932D01*
X158848682Y-102110579D01*
X158656869Y-102225615D01*
X158448481Y-102414586D01*
X158280963Y-102640580D01*
X158160754Y-102894913D01*
X158120096Y-103028961D01*
X158242085Y-103251000D01*
X159385000Y-103251000D01*
X159385000Y-103231000D01*
X159639000Y-103231000D01*
X159639000Y-103251000D01*
X159659000Y-103251000D01*
X159659000Y-103505000D01*
X159639000Y-103505000D01*
X159639000Y-103525000D01*
X159385000Y-103525000D01*
X159385000Y-103505000D01*
X158242085Y-103505000D01*
X158120096Y-103727039D01*
X158160754Y-103861087D01*
X158280963Y-104115420D01*
X158448481Y-104341414D01*
X158656869Y-104530385D01*
X158848682Y-104645421D01*
X158710899Y-104719068D01*
X158492392Y-104898392D01*
X158313068Y-105116899D01*
X158179818Y-105366192D01*
X158097764Y-105636691D01*
X158070057Y-105918000D01*
X158097764Y-106199309D01*
X158179818Y-106469808D01*
X158313068Y-106719101D01*
X158492392Y-106937608D01*
X158710899Y-107116932D01*
X158843858Y-107188000D01*
X158710899Y-107259068D01*
X158492392Y-107438392D01*
X158313068Y-107656899D01*
X158179818Y-107906192D01*
X158097764Y-108176691D01*
X158070057Y-108458000D01*
X158097764Y-108739309D01*
X158179818Y-109009808D01*
X158313068Y-109259101D01*
X158492392Y-109477608D01*
X158710899Y-109656932D01*
X158843858Y-109728000D01*
X158710899Y-109799068D01*
X158492392Y-109978392D01*
X158313068Y-110196899D01*
X158179818Y-110446192D01*
X158097764Y-110716691D01*
X158070057Y-110998000D01*
X158097764Y-111279309D01*
X158179818Y-111549808D01*
X158313068Y-111799101D01*
X158492392Y-112017608D01*
X158710899Y-112196932D01*
X158843858Y-112268000D01*
X158710899Y-112339068D01*
X158492392Y-112518392D01*
X158313068Y-112736899D01*
X158179818Y-112986192D01*
X158097764Y-113256691D01*
X158070057Y-113538000D01*
X158097764Y-113819309D01*
X158179818Y-114089808D01*
X158313068Y-114339101D01*
X158492392Y-114557608D01*
X158710899Y-114736932D01*
X158843858Y-114808000D01*
X158710899Y-114879068D01*
X158492392Y-115058392D01*
X158313068Y-115276899D01*
X158179818Y-115526192D01*
X158097764Y-115796691D01*
X158070057Y-116078000D01*
X158097764Y-116359309D01*
X158179818Y-116629808D01*
X158313068Y-116879101D01*
X158492392Y-117097608D01*
X158710899Y-117276932D01*
X158960192Y-117410182D01*
X159230691Y-117492236D01*
X159441508Y-117513000D01*
X159582492Y-117513000D01*
X159793309Y-117492236D01*
X160063808Y-117410182D01*
X160313101Y-117276932D01*
X160531608Y-117097608D01*
X160710932Y-116879101D01*
X160844182Y-116629808D01*
X160926236Y-116359309D01*
X160953943Y-116078000D01*
X160926236Y-115796691D01*
X160844182Y-115526192D01*
X160710932Y-115276899D01*
X160531608Y-115058392D01*
X160313101Y-114879068D01*
X160180142Y-114808000D01*
X160313101Y-114736932D01*
X160531608Y-114557608D01*
X160710932Y-114339101D01*
X160844182Y-114089808D01*
X160926236Y-113819309D01*
X160953943Y-113538000D01*
X160940823Y-113404795D01*
X160949453Y-113433245D01*
X161020025Y-113565275D01*
X161042701Y-113592905D01*
X161114999Y-113681000D01*
X161143997Y-113704798D01*
X165731292Y-118292094D01*
X165717764Y-118336691D01*
X165690057Y-118618000D01*
X165717764Y-118899309D01*
X165799818Y-119169808D01*
X165933068Y-119419101D01*
X166112392Y-119637608D01*
X166330899Y-119816932D01*
X166463858Y-119888000D01*
X166330899Y-119959068D01*
X166112392Y-120138392D01*
X165933068Y-120356899D01*
X165911099Y-120398000D01*
X161604802Y-120398000D01*
X157329571Y-116122770D01*
X157340774Y-116115284D01*
X157484937Y-115971121D01*
X157598205Y-115801603D01*
X157676226Y-115613245D01*
X157716000Y-115413286D01*
X157716000Y-115209408D01*
X157676226Y-115009449D01*
X157598205Y-114821091D01*
X157484937Y-114651573D01*
X157441000Y-114607636D01*
X157441000Y-99157801D01*
X158173800Y-98425002D01*
X158242084Y-98425002D01*
X158120096Y-98647039D01*
X158120096Y-98647039D01*
G37*
X158120096Y-98647039D02*
X158160754Y-98781087D01*
X158280963Y-99035420D01*
X158448481Y-99261414D01*
X158656869Y-99450385D01*
X158848682Y-99565421D01*
X158710899Y-99639068D01*
X158492392Y-99818392D01*
X158313068Y-100036899D01*
X158179818Y-100286192D01*
X158097764Y-100556691D01*
X158070057Y-100838000D01*
X158097764Y-101119309D01*
X158179818Y-101389808D01*
X158313068Y-101639101D01*
X158492392Y-101857608D01*
X158710899Y-102036932D01*
X158848682Y-102110579D01*
X158656869Y-102225615D01*
X158448481Y-102414586D01*
X158280963Y-102640580D01*
X158160754Y-102894913D01*
X158120096Y-103028961D01*
X158242085Y-103251000D01*
X159385000Y-103251000D01*
X159385000Y-103231000D01*
X159639000Y-103231000D01*
X159639000Y-103251000D01*
X159659000Y-103251000D01*
X159659000Y-103505000D01*
X159639000Y-103505000D01*
X159639000Y-103525000D01*
X159385000Y-103525000D01*
X159385000Y-103505000D01*
X158242085Y-103505000D01*
X158120096Y-103727039D01*
X158160754Y-103861087D01*
X158280963Y-104115420D01*
X158448481Y-104341414D01*
X158656869Y-104530385D01*
X158848682Y-104645421D01*
X158710899Y-104719068D01*
X158492392Y-104898392D01*
X158313068Y-105116899D01*
X158179818Y-105366192D01*
X158097764Y-105636691D01*
X158070057Y-105918000D01*
X158097764Y-106199309D01*
X158179818Y-106469808D01*
X158313068Y-106719101D01*
X158492392Y-106937608D01*
X158710899Y-107116932D01*
X158843858Y-107188000D01*
X158710899Y-107259068D01*
X158492392Y-107438392D01*
X158313068Y-107656899D01*
X158179818Y-107906192D01*
X158097764Y-108176691D01*
X158070057Y-108458000D01*
X158097764Y-108739309D01*
X158179818Y-109009808D01*
X158313068Y-109259101D01*
X158492392Y-109477608D01*
X158710899Y-109656932D01*
X158843858Y-109728000D01*
X158710899Y-109799068D01*
X158492392Y-109978392D01*
X158313068Y-110196899D01*
X158179818Y-110446192D01*
X158097764Y-110716691D01*
X158070057Y-110998000D01*
X158097764Y-111279309D01*
X158179818Y-111549808D01*
X158313068Y-111799101D01*
X158492392Y-112017608D01*
X158710899Y-112196932D01*
X158843858Y-112268000D01*
X158710899Y-112339068D01*
X158492392Y-112518392D01*
X158313068Y-112736899D01*
X158179818Y-112986192D01*
X158097764Y-113256691D01*
X158070057Y-113538000D01*
X158097764Y-113819309D01*
X158179818Y-114089808D01*
X158313068Y-114339101D01*
X158492392Y-114557608D01*
X158710899Y-114736932D01*
X158843858Y-114808000D01*
X158710899Y-114879068D01*
X158492392Y-115058392D01*
X158313068Y-115276899D01*
X158179818Y-115526192D01*
X158097764Y-115796691D01*
X158070057Y-116078000D01*
X158097764Y-116359309D01*
X158179818Y-116629808D01*
X158313068Y-116879101D01*
X158492392Y-117097608D01*
X158710899Y-117276932D01*
X158960192Y-117410182D01*
X159230691Y-117492236D01*
X159441508Y-117513000D01*
X159582492Y-117513000D01*
X159793309Y-117492236D01*
X160063808Y-117410182D01*
X160313101Y-117276932D01*
X160531608Y-117097608D01*
X160710932Y-116879101D01*
X160844182Y-116629808D01*
X160926236Y-116359309D01*
X160953943Y-116078000D01*
X160926236Y-115796691D01*
X160844182Y-115526192D01*
X160710932Y-115276899D01*
X160531608Y-115058392D01*
X160313101Y-114879068D01*
X160180142Y-114808000D01*
X160313101Y-114736932D01*
X160531608Y-114557608D01*
X160710932Y-114339101D01*
X160844182Y-114089808D01*
X160926236Y-113819309D01*
X160953943Y-113538000D01*
X160940823Y-113404795D01*
X160949453Y-113433245D01*
X161020025Y-113565275D01*
X161042701Y-113592905D01*
X161114999Y-113681000D01*
X161143997Y-113704798D01*
X165731292Y-118292094D01*
X165717764Y-118336691D01*
X165690057Y-118618000D01*
X165717764Y-118899309D01*
X165799818Y-119169808D01*
X165933068Y-119419101D01*
X166112392Y-119637608D01*
X166330899Y-119816932D01*
X166463858Y-119888000D01*
X166330899Y-119959068D01*
X166112392Y-120138392D01*
X165933068Y-120356899D01*
X165911099Y-120398000D01*
X161604802Y-120398000D01*
X157329571Y-116122770D01*
X157340774Y-116115284D01*
X157484937Y-115971121D01*
X157598205Y-115801603D01*
X157676226Y-115613245D01*
X157716000Y-115413286D01*
X157716000Y-115209408D01*
X157676226Y-115009449D01*
X157598205Y-114821091D01*
X157484937Y-114651573D01*
X157441000Y-114607636D01*
X157441000Y-99157801D01*
X158173800Y-98425002D01*
X158242084Y-98425002D01*
X158120096Y-98647039D01*
G36*
X154740744Y-101247205D02*
G01*
X154929102Y-101325226D01*
X155129061Y-101365000D01*
X155196000Y-101365000D01*
X155196001Y-115580849D01*
X155146102Y-115590774D01*
X154957744Y-115668795D01*
X154788226Y-115782063D01*
X154644063Y-115926226D01*
X154530795Y-116095744D01*
X154452774Y-116284102D01*
X154413000Y-116484061D01*
X154413000Y-116546198D01*
X152847199Y-118112000D01*
X152460802Y-118112000D01*
X151721298Y-117372496D01*
X151765000Y-117348624D01*
X151765000Y-116205000D01*
X152019000Y-116205000D01*
X152019000Y-117348624D01*
X152241040Y-117469909D01*
X152505881Y-117375070D01*
X152747131Y-117230385D01*
X152955519Y-117041414D01*
X153123037Y-116815420D01*
X153243246Y-116561087D01*
X153283904Y-116427039D01*
X153161915Y-116205000D01*
X152019000Y-116205000D01*
X151765000Y-116205000D01*
X150622085Y-116205000D01*
X150597872Y-116249071D01*
X145672708Y-111323907D01*
X145686236Y-111279309D01*
X145713943Y-110998000D01*
X145686236Y-110716691D01*
X145604182Y-110446192D01*
X145470932Y-110196899D01*
X145291608Y-109978392D01*
X145073101Y-109799068D01*
X144940142Y-109728000D01*
X145073101Y-109656932D01*
X145291608Y-109477608D01*
X145470932Y-109259101D01*
X145604182Y-109009808D01*
X145686236Y-108739309D01*
X145713943Y-108458000D01*
X145686236Y-108176691D01*
X145672708Y-108132093D01*
X148251803Y-105552999D01*
X150503151Y-105552999D01*
X150477764Y-105636691D01*
X150450057Y-105918000D01*
X150477764Y-106199309D01*
X150559818Y-106469808D01*
X150693068Y-106719101D01*
X150872392Y-106937608D01*
X151090899Y-107116932D01*
X151223858Y-107188000D01*
X151090899Y-107259068D01*
X150872392Y-107438392D01*
X150693068Y-107656899D01*
X150559818Y-107906192D01*
X150477764Y-108176691D01*
X150450057Y-108458000D01*
X150477764Y-108739309D01*
X150559818Y-109009808D01*
X150693068Y-109259101D01*
X150872392Y-109477608D01*
X151090899Y-109656932D01*
X151223858Y-109728000D01*
X151090899Y-109799068D01*
X150872392Y-109978392D01*
X150693068Y-110196899D01*
X150559818Y-110446192D01*
X150477764Y-110716691D01*
X150450057Y-110998000D01*
X150477764Y-111279309D01*
X150559818Y-111549808D01*
X150693068Y-111799101D01*
X150872392Y-112017608D01*
X151090899Y-112196932D01*
X151223858Y-112268000D01*
X151090899Y-112339068D01*
X150872392Y-112518392D01*
X150693068Y-112736899D01*
X150559818Y-112986192D01*
X150477764Y-113256691D01*
X150450057Y-113538000D01*
X150477764Y-113819309D01*
X150559818Y-114089808D01*
X150693068Y-114339101D01*
X150872392Y-114557608D01*
X151090899Y-114736932D01*
X151228682Y-114810579D01*
X151036869Y-114925615D01*
X150828481Y-115114586D01*
X150660963Y-115340580D01*
X150540754Y-115594913D01*
X150500096Y-115728961D01*
X150622085Y-115951000D01*
X151765000Y-115951000D01*
X151765000Y-115931000D01*
X152019000Y-115931000D01*
X152019000Y-115951000D01*
X153161915Y-115951000D01*
X153283904Y-115728961D01*
X153243246Y-115594913D01*
X153123037Y-115340580D01*
X152955519Y-115114586D01*
X152747131Y-114925615D01*
X152555318Y-114810579D01*
X152693101Y-114736932D01*
X152911608Y-114557608D01*
X153090932Y-114339101D01*
X153224182Y-114089808D01*
X153306236Y-113819309D01*
X153333943Y-113538000D01*
X153306236Y-113256691D01*
X153224182Y-112986192D01*
X153090932Y-112736899D01*
X152911608Y-112518392D01*
X152693101Y-112339068D01*
X152560142Y-112268000D01*
X152693101Y-112196932D01*
X152911608Y-112017608D01*
X153090932Y-111799101D01*
X153224182Y-111549808D01*
X153306236Y-111279309D01*
X153333943Y-110998000D01*
X153306236Y-110716691D01*
X153224182Y-110446192D01*
X153090932Y-110196899D01*
X152911608Y-109978392D01*
X152693101Y-109799068D01*
X152560142Y-109728000D01*
X152693101Y-109656932D01*
X152911608Y-109477608D01*
X153090932Y-109259101D01*
X153224182Y-109009808D01*
X153306236Y-108739309D01*
X153333943Y-108458000D01*
X153306236Y-108176691D01*
X153224182Y-107906192D01*
X153090932Y-107656899D01*
X152911608Y-107438392D01*
X152693101Y-107259068D01*
X152560142Y-107188000D01*
X152693101Y-107116932D01*
X152911608Y-106937608D01*
X153090932Y-106719101D01*
X153224182Y-106469808D01*
X153306236Y-106199309D01*
X153333943Y-105918000D01*
X153306236Y-105636691D01*
X153292708Y-105592093D01*
X154428024Y-104456778D01*
X154457022Y-104432980D01*
X154551995Y-104317255D01*
X154622567Y-104185226D01*
X154666024Y-104041965D01*
X154677021Y-103930312D01*
X154677021Y-103930304D01*
X154680697Y-103892979D01*
X154677021Y-103855654D01*
X154677021Y-101204627D01*
X154740744Y-101247205D01*
X154740744Y-101247205D01*
G37*
X154740744Y-101247205D02*
X154929102Y-101325226D01*
X155129061Y-101365000D01*
X155196000Y-101365000D01*
X155196001Y-115580849D01*
X155146102Y-115590774D01*
X154957744Y-115668795D01*
X154788226Y-115782063D01*
X154644063Y-115926226D01*
X154530795Y-116095744D01*
X154452774Y-116284102D01*
X154413000Y-116484061D01*
X154413000Y-116546198D01*
X152847199Y-118112000D01*
X152460802Y-118112000D01*
X151721298Y-117372496D01*
X151765000Y-117348624D01*
X151765000Y-116205000D01*
X152019000Y-116205000D01*
X152019000Y-117348624D01*
X152241040Y-117469909D01*
X152505881Y-117375070D01*
X152747131Y-117230385D01*
X152955519Y-117041414D01*
X153123037Y-116815420D01*
X153243246Y-116561087D01*
X153283904Y-116427039D01*
X153161915Y-116205000D01*
X152019000Y-116205000D01*
X151765000Y-116205000D01*
X150622085Y-116205000D01*
X150597872Y-116249071D01*
X145672708Y-111323907D01*
X145686236Y-111279309D01*
X145713943Y-110998000D01*
X145686236Y-110716691D01*
X145604182Y-110446192D01*
X145470932Y-110196899D01*
X145291608Y-109978392D01*
X145073101Y-109799068D01*
X144940142Y-109728000D01*
X145073101Y-109656932D01*
X145291608Y-109477608D01*
X145470932Y-109259101D01*
X145604182Y-109009808D01*
X145686236Y-108739309D01*
X145713943Y-108458000D01*
X145686236Y-108176691D01*
X145672708Y-108132093D01*
X148251803Y-105552999D01*
X150503151Y-105552999D01*
X150477764Y-105636691D01*
X150450057Y-105918000D01*
X150477764Y-106199309D01*
X150559818Y-106469808D01*
X150693068Y-106719101D01*
X150872392Y-106937608D01*
X151090899Y-107116932D01*
X151223858Y-107188000D01*
X151090899Y-107259068D01*
X150872392Y-107438392D01*
X150693068Y-107656899D01*
X150559818Y-107906192D01*
X150477764Y-108176691D01*
X150450057Y-108458000D01*
X150477764Y-108739309D01*
X150559818Y-109009808D01*
X150693068Y-109259101D01*
X150872392Y-109477608D01*
X151090899Y-109656932D01*
X151223858Y-109728000D01*
X151090899Y-109799068D01*
X150872392Y-109978392D01*
X150693068Y-110196899D01*
X150559818Y-110446192D01*
X150477764Y-110716691D01*
X150450057Y-110998000D01*
X150477764Y-111279309D01*
X150559818Y-111549808D01*
X150693068Y-111799101D01*
X150872392Y-112017608D01*
X151090899Y-112196932D01*
X151223858Y-112268000D01*
X151090899Y-112339068D01*
X150872392Y-112518392D01*
X150693068Y-112736899D01*
X150559818Y-112986192D01*
X150477764Y-113256691D01*
X150450057Y-113538000D01*
X150477764Y-113819309D01*
X150559818Y-114089808D01*
X150693068Y-114339101D01*
X150872392Y-114557608D01*
X151090899Y-114736932D01*
X151228682Y-114810579D01*
X151036869Y-114925615D01*
X150828481Y-115114586D01*
X150660963Y-115340580D01*
X150540754Y-115594913D01*
X150500096Y-115728961D01*
X150622085Y-115951000D01*
X151765000Y-115951000D01*
X151765000Y-115931000D01*
X152019000Y-115931000D01*
X152019000Y-115951000D01*
X153161915Y-115951000D01*
X153283904Y-115728961D01*
X153243246Y-115594913D01*
X153123037Y-115340580D01*
X152955519Y-115114586D01*
X152747131Y-114925615D01*
X152555318Y-114810579D01*
X152693101Y-114736932D01*
X152911608Y-114557608D01*
X153090932Y-114339101D01*
X153224182Y-114089808D01*
X153306236Y-113819309D01*
X153333943Y-113538000D01*
X153306236Y-113256691D01*
X153224182Y-112986192D01*
X153090932Y-112736899D01*
X152911608Y-112518392D01*
X152693101Y-112339068D01*
X152560142Y-112268000D01*
X152693101Y-112196932D01*
X152911608Y-112017608D01*
X153090932Y-111799101D01*
X153224182Y-111549808D01*
X153306236Y-111279309D01*
X153333943Y-110998000D01*
X153306236Y-110716691D01*
X153224182Y-110446192D01*
X153090932Y-110196899D01*
X152911608Y-109978392D01*
X152693101Y-109799068D01*
X152560142Y-109728000D01*
X152693101Y-109656932D01*
X152911608Y-109477608D01*
X153090932Y-109259101D01*
X153224182Y-109009808D01*
X153306236Y-108739309D01*
X153333943Y-108458000D01*
X153306236Y-108176691D01*
X153224182Y-107906192D01*
X153090932Y-107656899D01*
X152911608Y-107438392D01*
X152693101Y-107259068D01*
X152560142Y-107188000D01*
X152693101Y-107116932D01*
X152911608Y-106937608D01*
X153090932Y-106719101D01*
X153224182Y-106469808D01*
X153306236Y-106199309D01*
X153333943Y-105918000D01*
X153306236Y-105636691D01*
X153292708Y-105592093D01*
X154428024Y-104456778D01*
X154457022Y-104432980D01*
X154551995Y-104317255D01*
X154622567Y-104185226D01*
X154666024Y-104041965D01*
X154677021Y-103930312D01*
X154677021Y-103930304D01*
X154680697Y-103892979D01*
X154677021Y-103855654D01*
X154677021Y-101204627D01*
X154740744Y-101247205D01*
G36*
X139345748Y-117333858D02*
G01*
X139331605Y-117348000D01*
X139345748Y-117362143D01*
X139166143Y-117541748D01*
X139152000Y-117527605D01*
X139137858Y-117541748D01*
X138958253Y-117362143D01*
X138972395Y-117348000D01*
X138958253Y-117333858D01*
X139137858Y-117154253D01*
X139152000Y-117168395D01*
X139166143Y-117154253D01*
X139345748Y-117333858D01*
X139345748Y-117333858D01*
G37*
X139345748Y-117333858D02*
X139331605Y-117348000D01*
X139345748Y-117362143D01*
X139166143Y-117541748D01*
X139152000Y-117527605D01*
X139137858Y-117541748D01*
X138958253Y-117362143D01*
X138972395Y-117348000D01*
X138958253Y-117333858D01*
X139137858Y-117154253D01*
X139152000Y-117168395D01*
X139166143Y-117154253D01*
X139345748Y-117333858D01*
G36*
X139956000Y-109413198D02*
G01*
X138036194Y-111333005D01*
X137921915Y-111125000D01*
X136779000Y-111125000D01*
X136779000Y-112268624D01*
X136986973Y-112382225D01*
X134110000Y-115259199D01*
X134110000Y-111347039D01*
X135260096Y-111347039D01*
X135300754Y-111481087D01*
X135420963Y-111735420D01*
X135588481Y-111961414D01*
X135796869Y-112150385D01*
X136038119Y-112295070D01*
X136302960Y-112389909D01*
X136525000Y-112268624D01*
X136525000Y-111125000D01*
X135382085Y-111125000D01*
X135260096Y-111347039D01*
X134110000Y-111347039D01*
X134110000Y-109534801D01*
X135212598Y-108432204D01*
X135210057Y-108458000D01*
X135237764Y-108739309D01*
X135319818Y-109009808D01*
X135453068Y-109259101D01*
X135632392Y-109477608D01*
X135850899Y-109656932D01*
X135988682Y-109730579D01*
X135796869Y-109845615D01*
X135588481Y-110034586D01*
X135420963Y-110260580D01*
X135300754Y-110514913D01*
X135260096Y-110648961D01*
X135382085Y-110871000D01*
X136525000Y-110871000D01*
X136525000Y-110851000D01*
X136779000Y-110851000D01*
X136779000Y-110871000D01*
X137921915Y-110871000D01*
X138043904Y-110648961D01*
X138003246Y-110514913D01*
X137883037Y-110260580D01*
X137715519Y-110034586D01*
X137507131Y-109845615D01*
X137315318Y-109730579D01*
X137453101Y-109656932D01*
X137671608Y-109477608D01*
X137850932Y-109259101D01*
X137872901Y-109218000D01*
X138129372Y-109218000D01*
X138166694Y-109221676D01*
X138204016Y-109218000D01*
X138204027Y-109218000D01*
X138315680Y-109207003D01*
X138458941Y-109163546D01*
X138590970Y-109092974D01*
X138706695Y-108998001D01*
X138730498Y-108968997D01*
X139956001Y-107743495D01*
X139956000Y-109413198D01*
X139956000Y-109413198D01*
G37*
X139956000Y-109413198D02*
X138036194Y-111333005D01*
X137921915Y-111125000D01*
X136779000Y-111125000D01*
X136779000Y-112268624D01*
X136986973Y-112382225D01*
X134110000Y-115259199D01*
X134110000Y-111347039D01*
X135260096Y-111347039D01*
X135300754Y-111481087D01*
X135420963Y-111735420D01*
X135588481Y-111961414D01*
X135796869Y-112150385D01*
X136038119Y-112295070D01*
X136302960Y-112389909D01*
X136525000Y-112268624D01*
X136525000Y-111125000D01*
X135382085Y-111125000D01*
X135260096Y-111347039D01*
X134110000Y-111347039D01*
X134110000Y-109534801D01*
X135212598Y-108432204D01*
X135210057Y-108458000D01*
X135237764Y-108739309D01*
X135319818Y-109009808D01*
X135453068Y-109259101D01*
X135632392Y-109477608D01*
X135850899Y-109656932D01*
X135988682Y-109730579D01*
X135796869Y-109845615D01*
X135588481Y-110034586D01*
X135420963Y-110260580D01*
X135300754Y-110514913D01*
X135260096Y-110648961D01*
X135382085Y-110871000D01*
X136525000Y-110871000D01*
X136525000Y-110851000D01*
X136779000Y-110851000D01*
X136779000Y-110871000D01*
X137921915Y-110871000D01*
X138043904Y-110648961D01*
X138003246Y-110514913D01*
X137883037Y-110260580D01*
X137715519Y-110034586D01*
X137507131Y-109845615D01*
X137315318Y-109730579D01*
X137453101Y-109656932D01*
X137671608Y-109477608D01*
X137850932Y-109259101D01*
X137872901Y-109218000D01*
X138129372Y-109218000D01*
X138166694Y-109221676D01*
X138204016Y-109218000D01*
X138204027Y-109218000D01*
X138315680Y-109207003D01*
X138458941Y-109163546D01*
X138590970Y-109092974D01*
X138706695Y-108998001D01*
X138730498Y-108968997D01*
X139956001Y-107743495D01*
X139956000Y-109413198D01*
G36*
X159639000Y-98171000D02*
G01*
X159659000Y-98171000D01*
X159659000Y-98425000D01*
X159639000Y-98425000D01*
X159639000Y-98445000D01*
X159385000Y-98445000D01*
X159385000Y-98425000D01*
X159365000Y-98425000D01*
X159365000Y-98171000D01*
X159385000Y-98171000D01*
X159385000Y-98151000D01*
X159639000Y-98151000D01*
X159639000Y-98171000D01*
X159639000Y-98171000D01*
G37*
X159639000Y-98171000D02*
X159659000Y-98171000D01*
X159659000Y-98425000D01*
X159639000Y-98425000D01*
X159639000Y-98445000D01*
X159385000Y-98445000D01*
X159385000Y-98425000D01*
X159365000Y-98425000D01*
X159365000Y-98171000D01*
X159385000Y-98171000D01*
X159385000Y-98151000D01*
X159639000Y-98151000D01*
X159639000Y-98171000D01*
G36*
X117754061Y-84347000D02*
G01*
X117816199Y-84347000D01*
X119419212Y-85950014D01*
X119443011Y-85979013D01*
X119558736Y-86073986D01*
X119690765Y-86144558D01*
X119834026Y-86188015D01*
X119945679Y-86199012D01*
X119945688Y-86199012D01*
X119983011Y-86202688D01*
X120020334Y-86199012D01*
X130816799Y-86199012D01*
X133860001Y-89242215D01*
X133860001Y-89351200D01*
X133550803Y-89042002D01*
X133527000Y-89012998D01*
X133411275Y-88918025D01*
X133279246Y-88847453D01*
X133135985Y-88803996D01*
X133024332Y-88792999D01*
X133024321Y-88792999D01*
X132986999Y-88789323D01*
X132949677Y-88792999D01*
X130309025Y-88792999D01*
X130364182Y-88689808D01*
X130446236Y-88419309D01*
X130473943Y-88138000D01*
X130446236Y-87856691D01*
X130364182Y-87586192D01*
X130230932Y-87336899D01*
X130051608Y-87118392D01*
X129833101Y-86939068D01*
X129583808Y-86805818D01*
X129313309Y-86723764D01*
X129102492Y-86703000D01*
X128961508Y-86703000D01*
X128750691Y-86723764D01*
X128480192Y-86805818D01*
X128230899Y-86939068D01*
X128012392Y-87118392D01*
X127833068Y-87336899D01*
X127699818Y-87586192D01*
X127617764Y-87856691D01*
X127590057Y-88138000D01*
X127617764Y-88419309D01*
X127699818Y-88689808D01*
X127754975Y-88792999D01*
X122849206Y-88792999D01*
X122847000Y-88423750D01*
X122688250Y-88265000D01*
X121539000Y-88265000D01*
X121539000Y-88285000D01*
X121285000Y-88285000D01*
X121285000Y-88265000D01*
X120135750Y-88265000D01*
X119977000Y-88423750D01*
X119974794Y-88792999D01*
X118888871Y-88792999D01*
X118702070Y-88606198D01*
X118702070Y-88544061D01*
X118662296Y-88344102D01*
X118584275Y-88155744D01*
X118471007Y-87986226D01*
X118326844Y-87842063D01*
X118157326Y-87728795D01*
X117968968Y-87650774D01*
X117769009Y-87611000D01*
X117702070Y-87611000D01*
X117702070Y-87338000D01*
X119973928Y-87338000D01*
X119977000Y-87852250D01*
X120135750Y-88011000D01*
X121285000Y-88011000D01*
X121285000Y-86861750D01*
X121539000Y-86861750D01*
X121539000Y-88011000D01*
X122688250Y-88011000D01*
X122847000Y-87852250D01*
X122850072Y-87338000D01*
X122837812Y-87213518D01*
X122801502Y-87093820D01*
X122742537Y-86983506D01*
X122663185Y-86886815D01*
X122566494Y-86807463D01*
X122456180Y-86748498D01*
X122336482Y-86712188D01*
X122212000Y-86699928D01*
X121697750Y-86703000D01*
X121539000Y-86861750D01*
X121285000Y-86861750D01*
X121126250Y-86703000D01*
X120612000Y-86699928D01*
X120487518Y-86712188D01*
X120367820Y-86748498D01*
X120257506Y-86807463D01*
X120160815Y-86886815D01*
X120081463Y-86983506D01*
X120022498Y-87093820D01*
X119986188Y-87213518D01*
X119973928Y-87338000D01*
X117702070Y-87338000D01*
X117702070Y-84336658D01*
X117754061Y-84347000D01*
X117754061Y-84347000D01*
G37*
X117754061Y-84347000D02*
X117816199Y-84347000D01*
X119419212Y-85950014D01*
X119443011Y-85979013D01*
X119558736Y-86073986D01*
X119690765Y-86144558D01*
X119834026Y-86188015D01*
X119945679Y-86199012D01*
X119945688Y-86199012D01*
X119983011Y-86202688D01*
X120020334Y-86199012D01*
X130816799Y-86199012D01*
X133860001Y-89242215D01*
X133860001Y-89351200D01*
X133550803Y-89042002D01*
X133527000Y-89012998D01*
X133411275Y-88918025D01*
X133279246Y-88847453D01*
X133135985Y-88803996D01*
X133024332Y-88792999D01*
X133024321Y-88792999D01*
X132986999Y-88789323D01*
X132949677Y-88792999D01*
X130309025Y-88792999D01*
X130364182Y-88689808D01*
X130446236Y-88419309D01*
X130473943Y-88138000D01*
X130446236Y-87856691D01*
X130364182Y-87586192D01*
X130230932Y-87336899D01*
X130051608Y-87118392D01*
X129833101Y-86939068D01*
X129583808Y-86805818D01*
X129313309Y-86723764D01*
X129102492Y-86703000D01*
X128961508Y-86703000D01*
X128750691Y-86723764D01*
X128480192Y-86805818D01*
X128230899Y-86939068D01*
X128012392Y-87118392D01*
X127833068Y-87336899D01*
X127699818Y-87586192D01*
X127617764Y-87856691D01*
X127590057Y-88138000D01*
X127617764Y-88419309D01*
X127699818Y-88689808D01*
X127754975Y-88792999D01*
X122849206Y-88792999D01*
X122847000Y-88423750D01*
X122688250Y-88265000D01*
X121539000Y-88265000D01*
X121539000Y-88285000D01*
X121285000Y-88285000D01*
X121285000Y-88265000D01*
X120135750Y-88265000D01*
X119977000Y-88423750D01*
X119974794Y-88792999D01*
X118888871Y-88792999D01*
X118702070Y-88606198D01*
X118702070Y-88544061D01*
X118662296Y-88344102D01*
X118584275Y-88155744D01*
X118471007Y-87986226D01*
X118326844Y-87842063D01*
X118157326Y-87728795D01*
X117968968Y-87650774D01*
X117769009Y-87611000D01*
X117702070Y-87611000D01*
X117702070Y-87338000D01*
X119973928Y-87338000D01*
X119977000Y-87852250D01*
X120135750Y-88011000D01*
X121285000Y-88011000D01*
X121285000Y-86861750D01*
X121539000Y-86861750D01*
X121539000Y-88011000D01*
X122688250Y-88011000D01*
X122847000Y-87852250D01*
X122850072Y-87338000D01*
X122837812Y-87213518D01*
X122801502Y-87093820D01*
X122742537Y-86983506D01*
X122663185Y-86886815D01*
X122566494Y-86807463D01*
X122456180Y-86748498D01*
X122336482Y-86712188D01*
X122212000Y-86699928D01*
X121697750Y-86703000D01*
X121539000Y-86861750D01*
X121285000Y-86861750D01*
X121126250Y-86703000D01*
X120612000Y-86699928D01*
X120487518Y-86712188D01*
X120367820Y-86748498D01*
X120257506Y-86807463D01*
X120160815Y-86886815D01*
X120081463Y-86983506D01*
X120022498Y-87093820D01*
X119986188Y-87213518D01*
X119973928Y-87338000D01*
X117702070Y-87338000D01*
X117702070Y-84336658D01*
X117754061Y-84347000D01*
M02*
