M48
; DRILL file {KiCad (5.1.2-1)-1} date Monday, 19 August 2019 at 03:41:24 pm
; FORMAT={-:-/ absolute / inch / decimal}
; #@! TF.CreationDate,2019-08-19T15:41:24+10:00
; #@! TF.GenerationSoftware,Kicad,Pcbnew,(5.1.2-1)-1
; #@! TF.FileFunction,Plated,1,2,PTH
FMAT,2
INCH
T1C0.0157
T2C0.0276
T3C0.0295
T4C0.0315
T5C0.0354
T6C0.0433
T7C0.1098
%
G90
G05
T1
X4.13Y-2.88
X4.2185Y-4.16
X4.25Y-2.92
X4.35Y-2.49
X4.3757Y-3.09
X4.38Y-2.57
X4.4443Y-2.57
X4.5Y-4.12
X4.55Y-3.84
X4.58Y-2.63
X4.6398Y-3.9898
X4.64Y-3.8
X4.7Y-3.71
X4.7Y-3.79
X4.78Y-3.471
X4.78Y-4.16
X4.7872Y-3.4139
X4.7872Y-3.7216
X4.8Y-2.91
X4.8Y-4.01
X4.83Y-4.13
X4.8443Y-3.81
X4.85Y-3.5
X4.85Y-3.72
X4.87Y-2.9385
X4.8998Y-3.1302
X4.9092Y-3.2065
X4.9328Y-2.96
X4.94Y-2.87
X4.95Y-3.14
X4.96Y-3.7485
X4.97Y-2.64
X4.9757Y-3.11
X5.0024Y-3.4424
X5.01Y-2.86
X5.01Y-4.01
X5.0398Y-2.7898
X5.04Y-2.26
X5.04Y-3.15
X5.04Y-3.31
X5.04Y-3.5372
X5.06Y-2.33
X5.06Y-2.4715
X5.06Y-2.71
X5.07Y-2.53
X5.0898Y-3.6502
X5.09Y-2.18
X5.11Y-2.24
X5.11Y-2.51
X5.11Y-2.7
X5.1194Y-2.5885
X5.12Y-2.33
X5.1215Y-2.7889
X5.13Y-3.32
X5.1302Y-3.8902
X5.14Y-3.18
X5.14Y-3.66
X5.14Y-3.78
X5.1452Y-2.8771
X5.1479Y-3.08
X5.1479Y-3.38
X5.19Y-2.25
X5.2227Y-2.29
X5.2227Y-2.92
X5.2227Y-3.08
X5.2227Y-3.66
X5.23Y-3.35
X5.24Y-2.23
X5.243Y-3.1211
X5.2512Y-2.4
X5.2512Y-2.44
X5.2512Y-2.67
X5.26Y-3.29
X5.2698Y-3.6698
X5.28Y-3.08
X5.2977Y-3.642
X5.32Y-3.02
X5.3224Y-3.1224
X5.3366Y-3.4091
X5.34Y-3.23
X5.3412Y-3.37
X5.3429Y-3.448
X5.35Y-2.49
X5.35Y-3.65
X5.3624Y-3.0824
X5.3715Y-3.48
X5.39Y-3.66
X5.4Y-3.53
X5.4Y-3.74
X5.4452Y-2.9352
X5.4454Y-2.9994
X5.4507Y-3.6593
X5.4573Y-3.0973
X5.49Y-3.36
X5.5Y-3.76
X5.52Y-2.0
X5.52Y-2.66
X5.53Y-3.02
X5.53Y-3.48
X5.55Y-2.9372
X5.56Y-2.58
X5.57Y-4.5437
X5.58Y-3.26
X5.58Y-3.62
X5.59Y-3.34
X5.59Y-3.3806
X5.6309Y-3.7991
X5.6323Y-3.0977
X5.6703Y-3.8001
X5.6757Y-3.53
X5.68Y-4.63
X5.6872Y-3.07
X5.7Y-2.82
X5.72Y-2.33
X5.7328Y-3.84
X5.77Y-2.9263
X5.77Y-3.14
X5.7998Y-3.4902
X5.8Y-3.45
X5.81Y-2.34
X5.87Y-2.29
X5.88Y-2.7828
X5.88Y-2.83
X5.88Y-4.13
X5.8802Y-3.4898
X5.8872Y-3.83
X5.92Y-2.66
X5.9298Y-2.6098
X5.9443Y-3.83
X5.96Y-2.7828
X5.9872Y-2.49
X6.0Y-3.52
X6.0102Y-2.6102
X6.0445Y-2.3145
X6.06Y-2.01
X6.0673Y-2.6157
X6.08Y-2.13
X6.08Y-4.0
X6.0802Y-4.1302
X6.0966Y-4.2855
X6.1Y-3.3828
X6.11Y-2.79
X6.12Y-2.6157
X6.1295Y-2.2295
X6.1624Y-3.9673
X6.19Y-2.65
X6.1976Y-2.9263
X6.21Y-3.11
X6.2315Y-4.38
X6.2525Y-4.0325
X6.26Y-4.42
X6.262Y-3.202
X6.2757Y-3.83
X6.31Y-3.06
X6.3328Y-3.83
X6.3496Y-2.8304
X6.38Y-3.17
X6.38Y-3.52
X6.3815Y-2.9744
X6.4Y-2.22
X6.41Y-2.65
X6.41Y-3.64
X6.4115Y-2.81
X6.4385Y-3.2215
X6.44Y-2.62
X6.44Y-2.95
X6.4447Y-3.1695
X6.45Y-3.52
X6.458Y-3.902
X6.46Y-2.22
X6.47Y-4.94
X6.5Y-2.5
X6.5Y-2.6157
X6.5Y-2.7385
X6.5002Y-3.1098
X6.5198Y-2.8202
X6.52Y-3.31
X6.5398Y-3.7798
X6.5643Y-2.9328
X6.577Y-3.083
X6.5898Y-2.7898
X6.59Y-4.57
X6.6002Y-2.8602
X6.62Y-2.0
X6.62Y-3.27
X6.64Y-3.61
X6.6602Y-3.0402
X6.67Y-4.05
X6.68Y-2.9757
X6.6824Y-3.1076
X6.7Y-2.7604
X6.72Y-1.96
X7.05Y-2.23
X7.1Y-4.84
X7.12Y-2.6108
X7.2Y-3.58
X7.31Y-4.53
X7.53Y-3.22
X7.54Y-2.65
X7.54Y-2.95
T2
X7.31Y-3.26
X7.31Y-3.46
X7.31Y-2.96
X7.31Y-3.16
X7.31Y-4.46
X7.31Y-4.66
X7.31Y-4.16
X7.31Y-4.36
X7.31Y-2.66
X7.31Y-2.86
X7.31Y-3.86
X7.31Y-4.06
X7.31Y-2.36
X7.31Y-2.56
X7.31Y-3.56
X7.31Y-3.76
X6.95Y-4.86
X7.15Y-4.86
T3
X5.26Y-4.86
X5.3387Y-4.86
X5.4175Y-4.86
X5.4962Y-4.86
X5.575Y-4.86
X5.6537Y-4.86
X5.7324Y-4.86
X5.8112Y-4.86
X4.76Y-4.86
X4.8387Y-4.86
X4.9175Y-4.86
X4.9962Y-4.86
X6.06Y-4.86
X6.1387Y-4.86
X6.2175Y-4.86
X6.2962Y-4.86
X4.46Y-4.86
X4.5387Y-4.86
T4
X4.26Y-4.21
X4.26Y-4.51
X4.36Y-4.21
X4.36Y-4.51
X4.46Y-4.21
X4.46Y-4.51
X4.56Y-4.21
X4.56Y-4.51
X4.66Y-4.21
X4.66Y-4.51
X4.76Y-4.21
X4.76Y-4.51
X4.86Y-4.21
X4.86Y-4.51
X4.96Y-4.21
X4.96Y-4.51
X5.06Y-4.21
X5.06Y-4.51
X5.16Y-4.21
X5.16Y-4.51
X4.26Y-3.01
X4.26Y-3.31
X4.36Y-3.01
X4.36Y-3.31
X4.46Y-3.01
X4.46Y-3.31
X4.56Y-3.01
X4.56Y-3.31
X4.66Y-3.01
X4.66Y-3.31
X4.76Y-3.01
X4.76Y-3.31
X4.86Y-3.01
X4.86Y-3.31
X4.96Y-3.01
X4.96Y-3.31
X5.66Y-2.41
X5.66Y-2.71
X5.76Y-2.41
X5.76Y-2.71
X5.86Y-2.41
X5.86Y-2.71
X5.96Y-2.41
X5.96Y-2.71
X6.06Y-2.41
X6.06Y-2.71
X6.16Y-2.41
X6.16Y-2.71
X6.26Y-2.41
X6.26Y-2.71
X6.36Y-2.41
X6.36Y-2.71
X6.76Y-3.91
X6.76Y-4.01
X6.76Y-4.11
X6.76Y-4.21
X6.76Y-4.31
X6.76Y-4.41
X6.76Y-4.51
X7.06Y-3.91
X7.06Y-4.01
X7.06Y-4.11
X7.06Y-4.21
X7.06Y-4.31
X7.06Y-4.41
X7.06Y-4.51
X5.66Y-3.61
X5.66Y-3.91
X5.76Y-3.61
X5.76Y-3.91
X5.86Y-3.61
X5.86Y-3.91
X5.96Y-3.61
X5.96Y-3.91
X6.06Y-3.61
X6.06Y-3.91
X6.16Y-3.61
X6.16Y-3.91
X6.26Y-3.61
X6.26Y-3.91
X6.36Y-3.61
X6.36Y-3.91
X6.76Y-2.86
X6.76Y-2.96
X6.76Y-3.06
X6.76Y-3.16
X6.76Y-3.26
X6.76Y-3.36
X6.76Y-3.46
X6.76Y-3.56
X7.06Y-2.86
X7.06Y-2.96
X7.06Y-3.06
X7.06Y-3.16
X7.06Y-3.26
X7.06Y-3.36
X7.06Y-3.46
X7.06Y-3.56
X4.26Y-2.41
X4.26Y-2.71
X4.36Y-2.41
X4.36Y-2.71
X4.46Y-2.41
X4.46Y-2.71
X4.56Y-2.41
X4.56Y-2.71
X4.66Y-2.41
X4.66Y-2.71
X4.76Y-2.41
X4.76Y-2.71
X4.86Y-2.41
X4.86Y-2.71
X4.96Y-2.41
X4.96Y-2.71
X4.26Y-3.61
X4.26Y-3.91
X4.36Y-3.61
X4.36Y-3.91
X4.46Y-3.61
X4.46Y-3.91
X4.56Y-3.61
X4.56Y-3.91
X4.66Y-3.61
X4.66Y-3.91
X4.76Y-3.61
X4.76Y-3.91
X4.86Y-3.61
X4.86Y-3.91
X4.96Y-3.61
X4.96Y-3.91
X5.66Y-3.01
X5.66Y-3.31
X5.76Y-3.01
X5.76Y-3.31
X5.86Y-3.01
X5.86Y-3.31
X5.96Y-3.01
X5.96Y-3.31
X6.06Y-3.01
X6.06Y-3.31
X6.16Y-3.01
X6.16Y-3.31
X6.26Y-3.01
X6.26Y-3.31
X5.66Y-4.21
X5.66Y-4.51
X5.76Y-4.21
X5.76Y-4.51
X5.86Y-4.21
X5.86Y-4.51
X5.96Y-4.21
X5.96Y-4.51
X6.06Y-4.21
X6.06Y-4.51
X6.16Y-4.21
X6.16Y-4.51
X6.26Y-4.21
X6.26Y-4.51
X6.62Y-4.86
X6.7184Y-4.86
T5
X7.51Y-4.51
X7.51Y-4.61
X7.51Y-4.31
X7.51Y-3.91
X7.51Y-4.01
X7.51Y-3.61
X7.51Y-3.71
X7.51Y-4.21
X7.51Y-3.31
X7.51Y-3.41
X7.51Y-3.12
X7.51Y-2.72
X7.51Y-2.82
X7.51Y-2.42
X7.51Y-2.52
X7.51Y-3.02
T6
X6.76Y-2.41
X6.76Y-2.5872
X7.0159Y-2.41
X7.0159Y-2.5872
T7
X7.56Y-4.91
X7.56Y-2.11
X4.21Y-2.11
X4.21Y-4.91
T0
M30
