G04 #@! TF.GenerationSoftware,KiCad,Pcbnew,(5.1.2-1)-1*
G04 #@! TF.CreationDate,2019-08-19T15:41:30+10:00*
G04 #@! TF.ProjectId,memory,6d656d6f-7279-42e6-9b69-6361645f7063,rev?*
G04 #@! TF.SameCoordinates,Original*
G04 #@! TF.FileFunction,Soldermask,Bot*
G04 #@! TF.FilePolarity,Negative*
%FSLAX46Y46*%
G04 Gerber Fmt 4.6, Leading zero omitted, Abs format (unit mm)*
G04 Created by KiCad (PCBNEW (5.1.2-1)-1) date 2019-08-19 15:41:30*
%MOMM*%
%LPD*%
G04 APERTURE LIST*
%ADD10R,1.600000X1.600000*%
%ADD11O,1.600000X1.600000*%
%ADD12C,3.790000*%
%ADD13C,1.600000*%
%ADD14R,1.800000X1.800000*%
%ADD15C,1.800000*%
%ADD16C,0.100000*%
%ADD17C,1.200000*%
%ADD18O,1.200000X1.750000*%
%ADD19O,1.400000X1.400000*%
%ADD20C,1.400000*%
%ADD21C,2.000000*%
G04 APERTURE END LIST*
D10*
X125984000Y-91694000D03*
D11*
X108204000Y-99314000D03*
X123444000Y-91694000D03*
X110744000Y-99314000D03*
X120904000Y-91694000D03*
X113284000Y-99314000D03*
X118364000Y-91694000D03*
X115824000Y-99314000D03*
X115824000Y-91694000D03*
X118364000Y-99314000D03*
X113284000Y-91694000D03*
X120904000Y-99314000D03*
X110744000Y-91694000D03*
X123444000Y-99314000D03*
X108204000Y-91694000D03*
X125984000Y-99314000D03*
D12*
X106934000Y-124714000D03*
X106934000Y-53594000D03*
X192024000Y-53594000D03*
X192024000Y-124714000D03*
D13*
X168148000Y-123444000D03*
X170648000Y-123444000D03*
D14*
X190754000Y-117094000D03*
D15*
X190754000Y-114554000D03*
X190754000Y-106934000D03*
D14*
X190754000Y-109474000D03*
X190754000Y-101854000D03*
D15*
X190754000Y-99314000D03*
X190754000Y-91694000D03*
D14*
X190754000Y-94234000D03*
D15*
X190754000Y-84074000D03*
D14*
X190754000Y-86614000D03*
X190754000Y-79248000D03*
D15*
X190754000Y-76708000D03*
X190754000Y-69088000D03*
D14*
X190754000Y-71628000D03*
X190754000Y-64008000D03*
D15*
X190754000Y-61468000D03*
D16*
G36*
X113658505Y-122570204D02*
G01*
X113682773Y-122573804D01*
X113706572Y-122579765D01*
X113729671Y-122588030D01*
X113751850Y-122598520D01*
X113772893Y-122611132D01*
X113792599Y-122625747D01*
X113810777Y-122642223D01*
X113827253Y-122660401D01*
X113841868Y-122680107D01*
X113854480Y-122701150D01*
X113864970Y-122723329D01*
X113873235Y-122746428D01*
X113879196Y-122770227D01*
X113882796Y-122794495D01*
X113884000Y-122818999D01*
X113884000Y-124069001D01*
X113882796Y-124093505D01*
X113879196Y-124117773D01*
X113873235Y-124141572D01*
X113864970Y-124164671D01*
X113854480Y-124186850D01*
X113841868Y-124207893D01*
X113827253Y-124227599D01*
X113810777Y-124245777D01*
X113792599Y-124262253D01*
X113772893Y-124276868D01*
X113751850Y-124289480D01*
X113729671Y-124299970D01*
X113706572Y-124308235D01*
X113682773Y-124314196D01*
X113658505Y-124317796D01*
X113634001Y-124319000D01*
X112933999Y-124319000D01*
X112909495Y-124317796D01*
X112885227Y-124314196D01*
X112861428Y-124308235D01*
X112838329Y-124299970D01*
X112816150Y-124289480D01*
X112795107Y-124276868D01*
X112775401Y-124262253D01*
X112757223Y-124245777D01*
X112740747Y-124227599D01*
X112726132Y-124207893D01*
X112713520Y-124186850D01*
X112703030Y-124164671D01*
X112694765Y-124141572D01*
X112688804Y-124117773D01*
X112685204Y-124093505D01*
X112684000Y-124069001D01*
X112684000Y-122818999D01*
X112685204Y-122794495D01*
X112688804Y-122770227D01*
X112694765Y-122746428D01*
X112703030Y-122723329D01*
X112713520Y-122701150D01*
X112726132Y-122680107D01*
X112740747Y-122660401D01*
X112757223Y-122642223D01*
X112775401Y-122625747D01*
X112795107Y-122611132D01*
X112816150Y-122598520D01*
X112838329Y-122588030D01*
X112861428Y-122579765D01*
X112885227Y-122573804D01*
X112909495Y-122570204D01*
X112933999Y-122569000D01*
X113634001Y-122569000D01*
X113658505Y-122570204D01*
X113658505Y-122570204D01*
G37*
D17*
X113284000Y-123444000D03*
D18*
X115284000Y-123444000D03*
D16*
G36*
X154298505Y-122570204D02*
G01*
X154322773Y-122573804D01*
X154346572Y-122579765D01*
X154369671Y-122588030D01*
X154391850Y-122598520D01*
X154412893Y-122611132D01*
X154432599Y-122625747D01*
X154450777Y-122642223D01*
X154467253Y-122660401D01*
X154481868Y-122680107D01*
X154494480Y-122701150D01*
X154504970Y-122723329D01*
X154513235Y-122746428D01*
X154519196Y-122770227D01*
X154522796Y-122794495D01*
X154524000Y-122818999D01*
X154524000Y-124069001D01*
X154522796Y-124093505D01*
X154519196Y-124117773D01*
X154513235Y-124141572D01*
X154504970Y-124164671D01*
X154494480Y-124186850D01*
X154481868Y-124207893D01*
X154467253Y-124227599D01*
X154450777Y-124245777D01*
X154432599Y-124262253D01*
X154412893Y-124276868D01*
X154391850Y-124289480D01*
X154369671Y-124299970D01*
X154346572Y-124308235D01*
X154322773Y-124314196D01*
X154298505Y-124317796D01*
X154274001Y-124319000D01*
X153573999Y-124319000D01*
X153549495Y-124317796D01*
X153525227Y-124314196D01*
X153501428Y-124308235D01*
X153478329Y-124299970D01*
X153456150Y-124289480D01*
X153435107Y-124276868D01*
X153415401Y-124262253D01*
X153397223Y-124245777D01*
X153380747Y-124227599D01*
X153366132Y-124207893D01*
X153353520Y-124186850D01*
X153343030Y-124164671D01*
X153334765Y-124141572D01*
X153328804Y-124117773D01*
X153325204Y-124093505D01*
X153324000Y-124069001D01*
X153324000Y-122818999D01*
X153325204Y-122794495D01*
X153328804Y-122770227D01*
X153334765Y-122746428D01*
X153343030Y-122723329D01*
X153353520Y-122701150D01*
X153366132Y-122680107D01*
X153380747Y-122660401D01*
X153397223Y-122642223D01*
X153415401Y-122625747D01*
X153435107Y-122611132D01*
X153456150Y-122598520D01*
X153478329Y-122588030D01*
X153501428Y-122579765D01*
X153525227Y-122573804D01*
X153549495Y-122570204D01*
X153573999Y-122569000D01*
X154274001Y-122569000D01*
X154298505Y-122570204D01*
X154298505Y-122570204D01*
G37*
D17*
X153924000Y-123444000D03*
D18*
X155924000Y-123444000D03*
X157924000Y-123444000D03*
X159924000Y-123444000D03*
X126904000Y-123444000D03*
X124904000Y-123444000D03*
X122904000Y-123444000D03*
D16*
G36*
X121278505Y-122570204D02*
G01*
X121302773Y-122573804D01*
X121326572Y-122579765D01*
X121349671Y-122588030D01*
X121371850Y-122598520D01*
X121392893Y-122611132D01*
X121412599Y-122625747D01*
X121430777Y-122642223D01*
X121447253Y-122660401D01*
X121461868Y-122680107D01*
X121474480Y-122701150D01*
X121484970Y-122723329D01*
X121493235Y-122746428D01*
X121499196Y-122770227D01*
X121502796Y-122794495D01*
X121504000Y-122818999D01*
X121504000Y-124069001D01*
X121502796Y-124093505D01*
X121499196Y-124117773D01*
X121493235Y-124141572D01*
X121484970Y-124164671D01*
X121474480Y-124186850D01*
X121461868Y-124207893D01*
X121447253Y-124227599D01*
X121430777Y-124245777D01*
X121412599Y-124262253D01*
X121392893Y-124276868D01*
X121371850Y-124289480D01*
X121349671Y-124299970D01*
X121326572Y-124308235D01*
X121302773Y-124314196D01*
X121278505Y-124317796D01*
X121254001Y-124319000D01*
X120553999Y-124319000D01*
X120529495Y-124317796D01*
X120505227Y-124314196D01*
X120481428Y-124308235D01*
X120458329Y-124299970D01*
X120436150Y-124289480D01*
X120415107Y-124276868D01*
X120395401Y-124262253D01*
X120377223Y-124245777D01*
X120360747Y-124227599D01*
X120346132Y-124207893D01*
X120333520Y-124186850D01*
X120323030Y-124164671D01*
X120314765Y-124141572D01*
X120308804Y-124117773D01*
X120305204Y-124093505D01*
X120304000Y-124069001D01*
X120304000Y-122818999D01*
X120305204Y-122794495D01*
X120308804Y-122770227D01*
X120314765Y-122746428D01*
X120323030Y-122723329D01*
X120333520Y-122701150D01*
X120346132Y-122680107D01*
X120360747Y-122660401D01*
X120377223Y-122642223D01*
X120395401Y-122625747D01*
X120415107Y-122611132D01*
X120436150Y-122598520D01*
X120458329Y-122588030D01*
X120481428Y-122579765D01*
X120505227Y-122573804D01*
X120529495Y-122570204D01*
X120553999Y-122569000D01*
X121254001Y-122569000D01*
X121278505Y-122570204D01*
X121278505Y-122570204D01*
G37*
D17*
X120904000Y-123444000D03*
D16*
G36*
X133978505Y-122570204D02*
G01*
X134002773Y-122573804D01*
X134026572Y-122579765D01*
X134049671Y-122588030D01*
X134071850Y-122598520D01*
X134092893Y-122611132D01*
X134112599Y-122625747D01*
X134130777Y-122642223D01*
X134147253Y-122660401D01*
X134161868Y-122680107D01*
X134174480Y-122701150D01*
X134184970Y-122723329D01*
X134193235Y-122746428D01*
X134199196Y-122770227D01*
X134202796Y-122794495D01*
X134204000Y-122818999D01*
X134204000Y-124069001D01*
X134202796Y-124093505D01*
X134199196Y-124117773D01*
X134193235Y-124141572D01*
X134184970Y-124164671D01*
X134174480Y-124186850D01*
X134161868Y-124207893D01*
X134147253Y-124227599D01*
X134130777Y-124245777D01*
X134112599Y-124262253D01*
X134092893Y-124276868D01*
X134071850Y-124289480D01*
X134049671Y-124299970D01*
X134026572Y-124308235D01*
X134002773Y-124314196D01*
X133978505Y-124317796D01*
X133954001Y-124319000D01*
X133253999Y-124319000D01*
X133229495Y-124317796D01*
X133205227Y-124314196D01*
X133181428Y-124308235D01*
X133158329Y-124299970D01*
X133136150Y-124289480D01*
X133115107Y-124276868D01*
X133095401Y-124262253D01*
X133077223Y-124245777D01*
X133060747Y-124227599D01*
X133046132Y-124207893D01*
X133033520Y-124186850D01*
X133023030Y-124164671D01*
X133014765Y-124141572D01*
X133008804Y-124117773D01*
X133005204Y-124093505D01*
X133004000Y-124069001D01*
X133004000Y-122818999D01*
X133005204Y-122794495D01*
X133008804Y-122770227D01*
X133014765Y-122746428D01*
X133023030Y-122723329D01*
X133033520Y-122701150D01*
X133046132Y-122680107D01*
X133060747Y-122660401D01*
X133077223Y-122642223D01*
X133095401Y-122625747D01*
X133115107Y-122611132D01*
X133136150Y-122598520D01*
X133158329Y-122588030D01*
X133181428Y-122579765D01*
X133205227Y-122573804D01*
X133229495Y-122570204D01*
X133253999Y-122569000D01*
X133954001Y-122569000D01*
X133978505Y-122570204D01*
X133978505Y-122570204D01*
G37*
D17*
X133604000Y-123444000D03*
D18*
X135604000Y-123444000D03*
X137604000Y-123444000D03*
X139604000Y-123444000D03*
X141604000Y-123444000D03*
X143604000Y-123444000D03*
X145604000Y-123444000D03*
X147604000Y-123444000D03*
D19*
X185674000Y-113284000D03*
D20*
X185674000Y-118364000D03*
X185674000Y-110744000D03*
D19*
X185674000Y-105664000D03*
X185674000Y-98044000D03*
D20*
X185674000Y-103124000D03*
X185674000Y-95504000D03*
D19*
X185674000Y-90424000D03*
D20*
X185674000Y-87884000D03*
D19*
X185674000Y-82804000D03*
X185674000Y-75184000D03*
D20*
X185674000Y-80264000D03*
X185674000Y-72644000D03*
D19*
X185674000Y-67564000D03*
X185674000Y-59944000D03*
D20*
X185674000Y-65024000D03*
X176530000Y-123444000D03*
D19*
X181610000Y-123444000D03*
D21*
X171704000Y-65714000D03*
X171704000Y-61214000D03*
X178204000Y-65714000D03*
X178204000Y-61214000D03*
D10*
X179324000Y-90424000D03*
D11*
X171704000Y-72644000D03*
X179324000Y-87884000D03*
X171704000Y-75184000D03*
X179324000Y-85344000D03*
X171704000Y-77724000D03*
X179324000Y-82804000D03*
X171704000Y-80264000D03*
X179324000Y-80264000D03*
X171704000Y-82804000D03*
X179324000Y-77724000D03*
X171704000Y-85344000D03*
X179324000Y-75184000D03*
X171704000Y-87884000D03*
X179324000Y-72644000D03*
X171704000Y-90424000D03*
D10*
X108204000Y-84074000D03*
D11*
X125984000Y-76454000D03*
X110744000Y-84074000D03*
X123444000Y-76454000D03*
X113284000Y-84074000D03*
X120904000Y-76454000D03*
X115824000Y-84074000D03*
X118364000Y-76454000D03*
X118364000Y-84074000D03*
X115824000Y-76454000D03*
X120904000Y-84074000D03*
X113284000Y-76454000D03*
X123444000Y-84074000D03*
X110744000Y-76454000D03*
X125984000Y-84074000D03*
X108204000Y-76454000D03*
X143764000Y-91694000D03*
X161544000Y-99314000D03*
X146304000Y-91694000D03*
X159004000Y-99314000D03*
X148844000Y-91694000D03*
X156464000Y-99314000D03*
X151384000Y-91694000D03*
X153924000Y-99314000D03*
X153924000Y-91694000D03*
X151384000Y-99314000D03*
X156464000Y-91694000D03*
X148844000Y-99314000D03*
X159004000Y-91694000D03*
X146304000Y-99314000D03*
X161544000Y-91694000D03*
D10*
X143764000Y-99314000D03*
X143764000Y-114554000D03*
D11*
X159004000Y-106934000D03*
X146304000Y-114554000D03*
X156464000Y-106934000D03*
X148844000Y-114554000D03*
X153924000Y-106934000D03*
X151384000Y-114554000D03*
X151384000Y-106934000D03*
X153924000Y-114554000D03*
X148844000Y-106934000D03*
X156464000Y-114554000D03*
X146304000Y-106934000D03*
X159004000Y-114554000D03*
X143764000Y-106934000D03*
D10*
X171704000Y-99314000D03*
D11*
X179324000Y-114554000D03*
X171704000Y-101854000D03*
X179324000Y-112014000D03*
X171704000Y-104394000D03*
X179324000Y-109474000D03*
X171704000Y-106934000D03*
X179324000Y-106934000D03*
X171704000Y-109474000D03*
X179324000Y-104394000D03*
X171704000Y-112014000D03*
X179324000Y-101854000D03*
X171704000Y-114554000D03*
X179324000Y-99314000D03*
X143764000Y-76454000D03*
X159004000Y-84074000D03*
X146304000Y-76454000D03*
X156464000Y-84074000D03*
X148844000Y-76454000D03*
X153924000Y-84074000D03*
X151384000Y-76454000D03*
X151384000Y-84074000D03*
X153924000Y-76454000D03*
X148844000Y-84074000D03*
X156464000Y-76454000D03*
X146304000Y-84074000D03*
X159004000Y-76454000D03*
D10*
X143764000Y-84074000D03*
X108204000Y-114554000D03*
D11*
X131064000Y-106934000D03*
X110744000Y-114554000D03*
X128524000Y-106934000D03*
X113284000Y-114554000D03*
X125984000Y-106934000D03*
X115824000Y-114554000D03*
X123444000Y-106934000D03*
X118364000Y-114554000D03*
X120904000Y-106934000D03*
X120904000Y-114554000D03*
X118364000Y-106934000D03*
X123444000Y-114554000D03*
X115824000Y-106934000D03*
X125984000Y-114554000D03*
X113284000Y-106934000D03*
X128524000Y-114554000D03*
X110744000Y-106934000D03*
X131064000Y-114554000D03*
X108204000Y-106934000D03*
D10*
X143764000Y-68834000D03*
D11*
X161544000Y-61214000D03*
X146304000Y-68834000D03*
X159004000Y-61214000D03*
X148844000Y-68834000D03*
X156464000Y-61214000D03*
X151384000Y-68834000D03*
X153924000Y-61214000D03*
X153924000Y-68834000D03*
X151384000Y-61214000D03*
X156464000Y-68834000D03*
X148844000Y-61214000D03*
X159004000Y-68834000D03*
X146304000Y-61214000D03*
X161544000Y-68834000D03*
X143764000Y-61214000D03*
X125984000Y-68834000D03*
X108204000Y-61214000D03*
X123444000Y-68834000D03*
X110744000Y-61214000D03*
X120904000Y-68834000D03*
X113284000Y-61214000D03*
X118364000Y-68834000D03*
X115824000Y-61214000D03*
X115824000Y-68834000D03*
X118364000Y-61214000D03*
X113284000Y-68834000D03*
X120904000Y-61214000D03*
X110744000Y-68834000D03*
X123444000Y-61214000D03*
X108204000Y-68834000D03*
D10*
X125984000Y-61214000D03*
M02*
