G04 #@! TF.GenerationSoftware,KiCad,Pcbnew,(5.1.2-1)-1*
G04 #@! TF.CreationDate,2019-08-26T08:18:24+10:00*
G04 #@! TF.ProjectId,memory,6d656d6f-7279-42e6-9b69-6361645f7063,rev?*
G04 #@! TF.SameCoordinates,Original*
G04 #@! TF.FileFunction,Legend,Top*
G04 #@! TF.FilePolarity,Positive*
%FSLAX46Y46*%
G04 Gerber Fmt 4.6, Leading zero omitted, Abs format (unit mm)*
G04 Created by KiCad (PCBNEW (5.1.2-1)-1) date 2019-08-26 08:18:24*
%MOMM*%
%LPD*%
G04 APERTURE LIST*
%ADD10C,0.127000*%
%ADD11C,0.101600*%
%ADD12C,0.120000*%
%ADD13C,0.100000*%
%ADD14C,0.150000*%
G04 APERTURE END LIST*
D10*
X137504714Y-82876571D02*
X138012714Y-82695142D01*
X137504714Y-82513714D01*
X138012714Y-81824285D02*
X138012714Y-82259714D01*
X138012714Y-82042000D02*
X137250714Y-82042000D01*
X137359571Y-82114571D01*
X137432142Y-82187142D01*
X137468428Y-82259714D01*
X137940142Y-81497714D02*
X137976428Y-81461428D01*
X138012714Y-81497714D01*
X137976428Y-81534000D01*
X137940142Y-81497714D01*
X138012714Y-81497714D01*
X137250714Y-80989714D02*
X137250714Y-80917142D01*
X137287000Y-80844571D01*
X137323285Y-80808285D01*
X137395857Y-80772000D01*
X137541000Y-80735714D01*
X137722428Y-80735714D01*
X137867571Y-80772000D01*
X137940142Y-80808285D01*
X137976428Y-80844571D01*
X138012714Y-80917142D01*
X138012714Y-80989714D01*
X137976428Y-81062285D01*
X137940142Y-81098571D01*
X137867571Y-81134857D01*
X137722428Y-81171142D01*
X137541000Y-81171142D01*
X137395857Y-81134857D01*
X137323285Y-81098571D01*
X137287000Y-81062285D01*
X137250714Y-80989714D01*
D11*
X135650211Y-88325476D02*
X135015211Y-88325476D01*
X135015211Y-88174285D01*
X135045450Y-88083571D01*
X135105926Y-88023095D01*
X135166402Y-87992857D01*
X135287354Y-87962619D01*
X135378069Y-87962619D01*
X135499021Y-87992857D01*
X135559497Y-88023095D01*
X135619973Y-88083571D01*
X135650211Y-88174285D01*
X135650211Y-88325476D01*
X135619973Y-87448571D02*
X135650211Y-87509047D01*
X135650211Y-87630000D01*
X135619973Y-87690476D01*
X135559497Y-87720714D01*
X135317592Y-87720714D01*
X135257116Y-87690476D01*
X135226878Y-87630000D01*
X135226878Y-87509047D01*
X135257116Y-87448571D01*
X135317592Y-87418333D01*
X135378069Y-87418333D01*
X135438545Y-87720714D01*
X135619973Y-87176428D02*
X135650211Y-87115952D01*
X135650211Y-86995000D01*
X135619973Y-86934523D01*
X135559497Y-86904285D01*
X135529259Y-86904285D01*
X135468783Y-86934523D01*
X135438545Y-86995000D01*
X135438545Y-87085714D01*
X135408307Y-87146190D01*
X135347830Y-87176428D01*
X135317592Y-87176428D01*
X135257116Y-87146190D01*
X135226878Y-87085714D01*
X135226878Y-86995000D01*
X135257116Y-86934523D01*
X135650211Y-86632142D02*
X135226878Y-86632142D01*
X135015211Y-86632142D02*
X135045450Y-86662380D01*
X135075688Y-86632142D01*
X135045450Y-86601904D01*
X135015211Y-86632142D01*
X135075688Y-86632142D01*
X135226878Y-86057619D02*
X135740926Y-86057619D01*
X135801402Y-86087857D01*
X135831640Y-86118095D01*
X135861878Y-86178571D01*
X135861878Y-86269285D01*
X135831640Y-86329761D01*
X135619973Y-86057619D02*
X135650211Y-86118095D01*
X135650211Y-86239047D01*
X135619973Y-86299523D01*
X135589735Y-86329761D01*
X135529259Y-86360000D01*
X135347830Y-86360000D01*
X135287354Y-86329761D01*
X135257116Y-86299523D01*
X135226878Y-86239047D01*
X135226878Y-86118095D01*
X135257116Y-86057619D01*
X135226878Y-85755238D02*
X135650211Y-85755238D01*
X135287354Y-85755238D02*
X135257116Y-85725000D01*
X135226878Y-85664523D01*
X135226878Y-85573809D01*
X135257116Y-85513333D01*
X135317592Y-85483095D01*
X135650211Y-85483095D01*
X135619973Y-84938809D02*
X135650211Y-84999285D01*
X135650211Y-85120238D01*
X135619973Y-85180714D01*
X135559497Y-85210952D01*
X135317592Y-85210952D01*
X135257116Y-85180714D01*
X135226878Y-85120238D01*
X135226878Y-84999285D01*
X135257116Y-84938809D01*
X135317592Y-84908571D01*
X135378069Y-84908571D01*
X135438545Y-85210952D01*
X135650211Y-84364285D02*
X135015211Y-84364285D01*
X135619973Y-84364285D02*
X135650211Y-84424761D01*
X135650211Y-84545714D01*
X135619973Y-84606190D01*
X135589735Y-84636428D01*
X135529259Y-84666666D01*
X135347830Y-84666666D01*
X135287354Y-84636428D01*
X135257116Y-84606190D01*
X135226878Y-84545714D01*
X135226878Y-84424761D01*
X135257116Y-84364285D01*
X135650211Y-83578095D02*
X135015211Y-83578095D01*
X135257116Y-83578095D02*
X135226878Y-83517619D01*
X135226878Y-83396666D01*
X135257116Y-83336190D01*
X135287354Y-83305952D01*
X135347830Y-83275714D01*
X135529259Y-83275714D01*
X135589735Y-83305952D01*
X135619973Y-83336190D01*
X135650211Y-83396666D01*
X135650211Y-83517619D01*
X135619973Y-83578095D01*
X135226878Y-83064047D02*
X135650211Y-82912857D01*
X135226878Y-82761666D02*
X135650211Y-82912857D01*
X135801402Y-82973333D01*
X135831640Y-83003571D01*
X135861878Y-83064047D01*
X135619973Y-82066190D02*
X135650211Y-81975476D01*
X135650211Y-81824285D01*
X135619973Y-81763809D01*
X135589735Y-81733571D01*
X135529259Y-81703333D01*
X135468783Y-81703333D01*
X135408307Y-81733571D01*
X135378069Y-81763809D01*
X135347830Y-81824285D01*
X135317592Y-81945238D01*
X135287354Y-82005714D01*
X135257116Y-82035952D01*
X135196640Y-82066190D01*
X135136164Y-82066190D01*
X135075688Y-82035952D01*
X135045450Y-82005714D01*
X135015211Y-81945238D01*
X135015211Y-81794047D01*
X135045450Y-81703333D01*
X135650211Y-81431190D02*
X135015211Y-81431190D01*
X135650211Y-81159047D02*
X135317592Y-81159047D01*
X135257116Y-81189285D01*
X135226878Y-81249761D01*
X135226878Y-81340476D01*
X135257116Y-81400952D01*
X135287354Y-81431190D01*
X135650211Y-80584523D02*
X135317592Y-80584523D01*
X135257116Y-80614761D01*
X135226878Y-80675238D01*
X135226878Y-80796190D01*
X135257116Y-80856666D01*
X135619973Y-80584523D02*
X135650211Y-80645000D01*
X135650211Y-80796190D01*
X135619973Y-80856666D01*
X135559497Y-80886904D01*
X135499021Y-80886904D01*
X135438545Y-80856666D01*
X135408307Y-80796190D01*
X135408307Y-80645000D01*
X135378069Y-80584523D01*
X135226878Y-80282142D02*
X135650211Y-80282142D01*
X135287354Y-80282142D02*
X135257116Y-80251904D01*
X135226878Y-80191428D01*
X135226878Y-80100714D01*
X135257116Y-80040238D01*
X135317592Y-80010000D01*
X135650211Y-80010000D01*
X135619973Y-79465714D02*
X135650211Y-79526190D01*
X135650211Y-79647142D01*
X135619973Y-79707619D01*
X135559497Y-79737857D01*
X135317592Y-79737857D01*
X135257116Y-79707619D01*
X135226878Y-79647142D01*
X135226878Y-79526190D01*
X135257116Y-79465714D01*
X135317592Y-79435476D01*
X135378069Y-79435476D01*
X135438545Y-79737857D01*
X135650211Y-78679523D02*
X135015211Y-78679523D01*
X135015211Y-78437619D01*
X135045450Y-78377142D01*
X135075688Y-78346904D01*
X135136164Y-78316666D01*
X135226878Y-78316666D01*
X135287354Y-78346904D01*
X135317592Y-78377142D01*
X135347830Y-78437619D01*
X135347830Y-78679523D01*
X135650211Y-77953809D02*
X135619973Y-78014285D01*
X135589735Y-78044523D01*
X135529259Y-78074761D01*
X135347830Y-78074761D01*
X135287354Y-78044523D01*
X135257116Y-78014285D01*
X135226878Y-77953809D01*
X135226878Y-77863095D01*
X135257116Y-77802619D01*
X135287354Y-77772380D01*
X135347830Y-77742142D01*
X135529259Y-77742142D01*
X135589735Y-77772380D01*
X135619973Y-77802619D01*
X135650211Y-77863095D01*
X135650211Y-77953809D01*
X135226878Y-77470000D02*
X135861878Y-77470000D01*
X135257116Y-77470000D02*
X135226878Y-77409523D01*
X135226878Y-77288571D01*
X135257116Y-77228095D01*
X135287354Y-77197857D01*
X135347830Y-77167619D01*
X135529259Y-77167619D01*
X135589735Y-77197857D01*
X135619973Y-77228095D01*
X135650211Y-77288571D01*
X135650211Y-77409523D01*
X135619973Y-77470000D01*
X135226878Y-76895476D02*
X135861878Y-76895476D01*
X135257116Y-76895476D02*
X135226878Y-76835000D01*
X135226878Y-76714047D01*
X135257116Y-76653571D01*
X135287354Y-76623333D01*
X135347830Y-76593095D01*
X135529259Y-76593095D01*
X135589735Y-76623333D01*
X135619973Y-76653571D01*
X135650211Y-76714047D01*
X135650211Y-76835000D01*
X135619973Y-76895476D01*
X135650211Y-76230238D02*
X135619973Y-76290714D01*
X135559497Y-76320952D01*
X135015211Y-76320952D01*
X135619973Y-75746428D02*
X135650211Y-75806904D01*
X135650211Y-75927857D01*
X135619973Y-75988333D01*
X135559497Y-76018571D01*
X135317592Y-76018571D01*
X135257116Y-75988333D01*
X135226878Y-75927857D01*
X135226878Y-75806904D01*
X135257116Y-75746428D01*
X135317592Y-75716190D01*
X135378069Y-75716190D01*
X135438545Y-76018571D01*
X135226878Y-75534761D02*
X135226878Y-75292857D01*
X135015211Y-75444047D02*
X135559497Y-75444047D01*
X135619973Y-75413809D01*
X135650211Y-75353333D01*
X135650211Y-75292857D01*
X135650211Y-74990476D02*
X135619973Y-75050952D01*
X135589735Y-75081190D01*
X135529259Y-75111428D01*
X135347830Y-75111428D01*
X135287354Y-75081190D01*
X135257116Y-75050952D01*
X135226878Y-74990476D01*
X135226878Y-74899761D01*
X135257116Y-74839285D01*
X135287354Y-74809047D01*
X135347830Y-74778809D01*
X135529259Y-74778809D01*
X135589735Y-74809047D01*
X135619973Y-74839285D01*
X135650211Y-74899761D01*
X135650211Y-74990476D01*
X135226878Y-74506666D02*
X135650211Y-74506666D01*
X135287354Y-74506666D02*
X135257116Y-74476428D01*
X135226878Y-74415952D01*
X135226878Y-74325238D01*
X135257116Y-74264761D01*
X135317592Y-74234523D01*
X135650211Y-74234523D01*
X136704311Y-98092380D02*
X136069311Y-98092380D01*
X136311216Y-98092380D02*
X136280978Y-98031904D01*
X136280978Y-97910952D01*
X136311216Y-97850476D01*
X136341454Y-97820238D01*
X136401930Y-97789999D01*
X136583359Y-97789999D01*
X136643835Y-97820238D01*
X136674073Y-97850476D01*
X136704311Y-97910952D01*
X136704311Y-98031904D01*
X136674073Y-98092380D01*
X136704311Y-97245714D02*
X136371692Y-97245714D01*
X136311216Y-97275952D01*
X136280978Y-97336428D01*
X136280978Y-97457380D01*
X136311216Y-97517857D01*
X136674073Y-97245714D02*
X136704311Y-97306190D01*
X136704311Y-97457380D01*
X136674073Y-97517857D01*
X136613597Y-97548095D01*
X136553121Y-97548095D01*
X136492645Y-97517857D01*
X136462407Y-97457380D01*
X136462407Y-97306190D01*
X136432169Y-97245714D01*
X136674073Y-96973571D02*
X136704311Y-96913095D01*
X136704311Y-96792142D01*
X136674073Y-96731666D01*
X136613597Y-96701428D01*
X136583359Y-96701428D01*
X136522883Y-96731666D01*
X136492645Y-96792142D01*
X136492645Y-96882857D01*
X136462407Y-96943333D01*
X136401930Y-96973571D01*
X136371692Y-96973571D01*
X136311216Y-96943333D01*
X136280978Y-96882857D01*
X136280978Y-96792142D01*
X136311216Y-96731666D01*
X136674073Y-96187380D02*
X136704311Y-96247857D01*
X136704311Y-96368809D01*
X136674073Y-96429285D01*
X136613597Y-96459523D01*
X136371692Y-96459523D01*
X136311216Y-96429285D01*
X136280978Y-96368809D01*
X136280978Y-96247857D01*
X136311216Y-96187380D01*
X136371692Y-96157142D01*
X136432169Y-96157142D01*
X136492645Y-96459523D01*
X136704311Y-95612857D02*
X136069311Y-95612857D01*
X136674073Y-95612857D02*
X136704311Y-95673333D01*
X136704311Y-95794285D01*
X136674073Y-95854761D01*
X136643835Y-95884999D01*
X136583359Y-95915238D01*
X136401930Y-95915238D01*
X136341454Y-95884999D01*
X136311216Y-95854761D01*
X136280978Y-95794285D01*
X136280978Y-95673333D01*
X136311216Y-95612857D01*
X136704311Y-94735952D02*
X136674073Y-94796428D01*
X136643835Y-94826666D01*
X136583359Y-94856904D01*
X136401930Y-94856904D01*
X136341454Y-94826666D01*
X136311216Y-94796428D01*
X136280978Y-94735952D01*
X136280978Y-94645238D01*
X136311216Y-94584761D01*
X136341454Y-94554523D01*
X136401930Y-94524285D01*
X136583359Y-94524285D01*
X136643835Y-94554523D01*
X136674073Y-94584761D01*
X136704311Y-94645238D01*
X136704311Y-94735952D01*
X136280978Y-94252142D02*
X136704311Y-94252142D01*
X136341454Y-94252142D02*
X136311216Y-94221904D01*
X136280978Y-94161428D01*
X136280978Y-94070714D01*
X136311216Y-94010238D01*
X136371692Y-93979999D01*
X136704311Y-93979999D01*
X136704311Y-93193809D02*
X136069311Y-93193809D01*
X136311216Y-93193809D02*
X136280978Y-93133333D01*
X136280978Y-93012380D01*
X136311216Y-92951904D01*
X136341454Y-92921666D01*
X136401930Y-92891428D01*
X136583359Y-92891428D01*
X136643835Y-92921666D01*
X136674073Y-92951904D01*
X136704311Y-93012380D01*
X136704311Y-93133333D01*
X136674073Y-93193809D01*
X136704311Y-92619285D02*
X136280978Y-92619285D01*
X136401930Y-92619285D02*
X136341454Y-92589047D01*
X136311216Y-92558809D01*
X136280978Y-92498333D01*
X136280978Y-92437857D01*
X136674073Y-91984285D02*
X136704311Y-92044761D01*
X136704311Y-92165714D01*
X136674073Y-92226190D01*
X136613597Y-92256428D01*
X136371692Y-92256428D01*
X136311216Y-92226190D01*
X136280978Y-92165714D01*
X136280978Y-92044761D01*
X136311216Y-91984285D01*
X136371692Y-91954047D01*
X136432169Y-91954047D01*
X136492645Y-92256428D01*
X136704311Y-91409761D02*
X136371692Y-91409761D01*
X136311216Y-91439999D01*
X136280978Y-91500476D01*
X136280978Y-91621428D01*
X136311216Y-91681904D01*
X136674073Y-91409761D02*
X136704311Y-91470238D01*
X136704311Y-91621428D01*
X136674073Y-91681904D01*
X136613597Y-91712142D01*
X136553121Y-91712142D01*
X136492645Y-91681904D01*
X136462407Y-91621428D01*
X136462407Y-91470238D01*
X136432169Y-91409761D01*
X136704311Y-90835238D02*
X136069311Y-90835238D01*
X136674073Y-90835238D02*
X136704311Y-90895714D01*
X136704311Y-91016666D01*
X136674073Y-91077142D01*
X136643835Y-91107380D01*
X136583359Y-91137619D01*
X136401930Y-91137619D01*
X136341454Y-91107380D01*
X136311216Y-91077142D01*
X136280978Y-91016666D01*
X136280978Y-90895714D01*
X136311216Y-90835238D01*
X136704311Y-90532857D02*
X136069311Y-90532857D01*
X136311216Y-90532857D02*
X136280978Y-90472380D01*
X136280978Y-90351428D01*
X136311216Y-90290952D01*
X136341454Y-90260714D01*
X136401930Y-90230476D01*
X136583359Y-90230476D01*
X136643835Y-90260714D01*
X136674073Y-90290952D01*
X136704311Y-90351428D01*
X136704311Y-90472380D01*
X136674073Y-90532857D01*
X136704311Y-89867619D02*
X136674073Y-89928095D01*
X136643835Y-89958333D01*
X136583359Y-89988571D01*
X136401930Y-89988571D01*
X136341454Y-89958333D01*
X136311216Y-89928095D01*
X136280978Y-89867619D01*
X136280978Y-89776904D01*
X136311216Y-89716428D01*
X136341454Y-89686190D01*
X136401930Y-89655952D01*
X136583359Y-89655952D01*
X136643835Y-89686190D01*
X136674073Y-89716428D01*
X136704311Y-89776904D01*
X136704311Y-89867619D01*
X136704311Y-89111666D02*
X136371692Y-89111666D01*
X136311216Y-89141904D01*
X136280978Y-89202380D01*
X136280978Y-89323333D01*
X136311216Y-89383809D01*
X136674073Y-89111666D02*
X136704311Y-89172142D01*
X136704311Y-89323333D01*
X136674073Y-89383809D01*
X136613597Y-89414047D01*
X136553121Y-89414047D01*
X136492645Y-89383809D01*
X136462407Y-89323333D01*
X136462407Y-89172142D01*
X136432169Y-89111666D01*
X136704311Y-88809285D02*
X136280978Y-88809285D01*
X136401930Y-88809285D02*
X136341454Y-88779047D01*
X136311216Y-88748809D01*
X136280978Y-88688333D01*
X136280978Y-88627857D01*
X136704311Y-88144047D02*
X136069311Y-88144047D01*
X136674073Y-88144047D02*
X136704311Y-88204523D01*
X136704311Y-88325476D01*
X136674073Y-88385952D01*
X136643835Y-88416190D01*
X136583359Y-88446428D01*
X136401930Y-88446428D01*
X136341454Y-88416190D01*
X136311216Y-88385952D01*
X136280978Y-88325476D01*
X136280978Y-88204523D01*
X136311216Y-88144047D01*
X136674073Y-87085714D02*
X136704311Y-87146190D01*
X136704311Y-87267142D01*
X136674073Y-87327619D01*
X136643835Y-87357857D01*
X136583359Y-87388095D01*
X136401930Y-87388095D01*
X136341454Y-87357857D01*
X136311216Y-87327619D01*
X136280978Y-87267142D01*
X136280978Y-87146190D01*
X136311216Y-87085714D01*
X136704311Y-86722857D02*
X136674073Y-86783333D01*
X136643835Y-86813571D01*
X136583359Y-86843809D01*
X136401930Y-86843809D01*
X136341454Y-86813571D01*
X136311216Y-86783333D01*
X136280978Y-86722857D01*
X136280978Y-86632142D01*
X136311216Y-86571666D01*
X136341454Y-86541428D01*
X136401930Y-86511190D01*
X136583359Y-86511190D01*
X136643835Y-86541428D01*
X136674073Y-86571666D01*
X136704311Y-86632142D01*
X136704311Y-86722857D01*
X136704311Y-86239047D02*
X136280978Y-86239047D01*
X136341454Y-86239047D02*
X136311216Y-86208809D01*
X136280978Y-86148333D01*
X136280978Y-86057619D01*
X136311216Y-85997142D01*
X136371692Y-85966904D01*
X136704311Y-85966904D01*
X136371692Y-85966904D02*
X136311216Y-85936666D01*
X136280978Y-85876190D01*
X136280978Y-85785476D01*
X136311216Y-85724999D01*
X136371692Y-85694761D01*
X136704311Y-85694761D01*
X136280978Y-85392380D02*
X136915978Y-85392380D01*
X136311216Y-85392380D02*
X136280978Y-85331904D01*
X136280978Y-85210952D01*
X136311216Y-85150476D01*
X136341454Y-85120238D01*
X136401930Y-85089999D01*
X136583359Y-85089999D01*
X136643835Y-85120238D01*
X136674073Y-85150476D01*
X136704311Y-85210952D01*
X136704311Y-85331904D01*
X136674073Y-85392380D01*
X136280978Y-84545714D02*
X136704311Y-84545714D01*
X136280978Y-84817857D02*
X136613597Y-84817857D01*
X136674073Y-84787619D01*
X136704311Y-84727142D01*
X136704311Y-84636428D01*
X136674073Y-84575952D01*
X136643835Y-84545714D01*
X136280978Y-84334047D02*
X136280978Y-84092142D01*
X136069311Y-84243333D02*
X136613597Y-84243333D01*
X136674073Y-84213095D01*
X136704311Y-84152619D01*
X136704311Y-84092142D01*
X136674073Y-83638571D02*
X136704311Y-83699047D01*
X136704311Y-83819999D01*
X136674073Y-83880476D01*
X136613597Y-83910714D01*
X136371692Y-83910714D01*
X136311216Y-83880476D01*
X136280978Y-83819999D01*
X136280978Y-83699047D01*
X136311216Y-83638571D01*
X136371692Y-83608333D01*
X136432169Y-83608333D01*
X136492645Y-83910714D01*
X136704311Y-83336190D02*
X136280978Y-83336190D01*
X136401930Y-83336190D02*
X136341454Y-83305952D01*
X136311216Y-83275714D01*
X136280978Y-83215238D01*
X136280978Y-83154761D01*
X136704311Y-82459285D02*
X136069311Y-82459285D01*
X136311216Y-82459285D02*
X136280978Y-82398809D01*
X136280978Y-82277857D01*
X136311216Y-82217380D01*
X136341454Y-82187142D01*
X136401930Y-82156904D01*
X136583359Y-82156904D01*
X136643835Y-82187142D01*
X136674073Y-82217380D01*
X136704311Y-82277857D01*
X136704311Y-82398809D01*
X136674073Y-82459285D01*
X136280978Y-81945238D02*
X136704311Y-81794047D01*
X136280978Y-81642857D02*
X136704311Y-81794047D01*
X136855502Y-81854523D01*
X136885740Y-81884761D01*
X136915978Y-81945238D01*
X136371692Y-80705476D02*
X136401930Y-80614761D01*
X136432169Y-80584523D01*
X136492645Y-80554285D01*
X136583359Y-80554285D01*
X136643835Y-80584523D01*
X136674073Y-80614761D01*
X136704311Y-80675238D01*
X136704311Y-80917142D01*
X136069311Y-80917142D01*
X136069311Y-80705476D01*
X136099550Y-80645000D01*
X136129788Y-80614761D01*
X136190264Y-80584523D01*
X136250740Y-80584523D01*
X136311216Y-80614761D01*
X136341454Y-80645000D01*
X136371692Y-80705476D01*
X136371692Y-80917142D01*
X136674073Y-80040238D02*
X136704311Y-80100714D01*
X136704311Y-80221666D01*
X136674073Y-80282142D01*
X136613597Y-80312380D01*
X136371692Y-80312380D01*
X136311216Y-80282142D01*
X136280978Y-80221666D01*
X136280978Y-80100714D01*
X136311216Y-80040238D01*
X136371692Y-80010000D01*
X136432169Y-80010000D01*
X136492645Y-80312380D01*
X136280978Y-79737857D02*
X136704311Y-79737857D01*
X136341454Y-79737857D02*
X136311216Y-79707619D01*
X136280978Y-79647142D01*
X136280978Y-79556428D01*
X136311216Y-79495952D01*
X136371692Y-79465714D01*
X136704311Y-79465714D01*
X136371692Y-78679523D02*
X136371692Y-78467857D01*
X136704311Y-78377142D02*
X136704311Y-78679523D01*
X136069311Y-78679523D01*
X136069311Y-78377142D01*
X136704311Y-77832857D02*
X136371692Y-77832857D01*
X136311216Y-77863095D01*
X136280978Y-77923571D01*
X136280978Y-78044523D01*
X136311216Y-78105000D01*
X136674073Y-77832857D02*
X136704311Y-77893333D01*
X136704311Y-78044523D01*
X136674073Y-78105000D01*
X136613597Y-78135238D01*
X136553121Y-78135238D01*
X136492645Y-78105000D01*
X136462407Y-78044523D01*
X136462407Y-77893333D01*
X136432169Y-77832857D01*
X136280978Y-77621190D02*
X136280978Y-77379285D01*
X136069311Y-77530476D02*
X136613597Y-77530476D01*
X136674073Y-77500238D01*
X136704311Y-77439761D01*
X136704311Y-77379285D01*
X136674073Y-76925714D02*
X136704311Y-76986190D01*
X136704311Y-77107142D01*
X136674073Y-77167619D01*
X136613597Y-77197857D01*
X136371692Y-77197857D01*
X136311216Y-77167619D01*
X136280978Y-77107142D01*
X136280978Y-76986190D01*
X136311216Y-76925714D01*
X136371692Y-76895476D01*
X136432169Y-76895476D01*
X136492645Y-77197857D01*
X136704311Y-76623333D02*
X136280978Y-76623333D01*
X136401930Y-76623333D02*
X136341454Y-76593095D01*
X136311216Y-76562857D01*
X136280978Y-76502380D01*
X136280978Y-76441904D01*
X136946216Y-75565000D02*
X136915978Y-75595238D01*
X136825264Y-75655714D01*
X136764788Y-75685952D01*
X136674073Y-75716190D01*
X136522883Y-75746428D01*
X136401930Y-75746428D01*
X136250740Y-75716190D01*
X136160026Y-75685952D01*
X136099550Y-75655714D01*
X136008835Y-75595238D01*
X135978597Y-75565000D01*
X136704311Y-75323095D02*
X136069311Y-75323095D01*
X136704311Y-75050952D02*
X136371692Y-75050952D01*
X136311216Y-75081190D01*
X136280978Y-75141666D01*
X136280978Y-75232380D01*
X136311216Y-75292857D01*
X136341454Y-75323095D01*
X136280978Y-74839285D02*
X136280978Y-74597380D01*
X136069311Y-74748571D02*
X136613597Y-74748571D01*
X136674073Y-74718333D01*
X136704311Y-74657857D01*
X136704311Y-74597380D01*
X136280978Y-74476428D02*
X136280978Y-74234523D01*
X136069311Y-74385714D02*
X136613597Y-74385714D01*
X136674073Y-74355476D01*
X136704311Y-74295000D01*
X136704311Y-74234523D01*
X136280978Y-74022857D02*
X136915978Y-74022857D01*
X136311216Y-74022857D02*
X136280978Y-73962380D01*
X136280978Y-73841428D01*
X136311216Y-73780952D01*
X136341454Y-73750714D01*
X136401930Y-73720476D01*
X136583359Y-73720476D01*
X136643835Y-73750714D01*
X136674073Y-73780952D01*
X136704311Y-73841428D01*
X136704311Y-73962380D01*
X136674073Y-74022857D01*
X136674073Y-73478571D02*
X136704311Y-73418095D01*
X136704311Y-73297142D01*
X136674073Y-73236666D01*
X136613597Y-73206428D01*
X136583359Y-73206428D01*
X136522883Y-73236666D01*
X136492645Y-73297142D01*
X136492645Y-73387857D01*
X136462407Y-73448333D01*
X136401930Y-73478571D01*
X136371692Y-73478571D01*
X136311216Y-73448333D01*
X136280978Y-73387857D01*
X136280978Y-73297142D01*
X136311216Y-73236666D01*
X136643835Y-72934285D02*
X136674073Y-72904047D01*
X136704311Y-72934285D01*
X136674073Y-72964523D01*
X136643835Y-72934285D01*
X136704311Y-72934285D01*
X136311216Y-72934285D02*
X136341454Y-72904047D01*
X136371692Y-72934285D01*
X136341454Y-72964523D01*
X136311216Y-72934285D01*
X136371692Y-72934285D01*
X136039073Y-72178333D02*
X136855502Y-72722619D01*
X136039073Y-71513095D02*
X136855502Y-72057380D01*
X136674073Y-71059523D02*
X136704311Y-71120000D01*
X136704311Y-71240952D01*
X136674073Y-71301428D01*
X136613597Y-71331666D01*
X136371692Y-71331666D01*
X136311216Y-71301428D01*
X136280978Y-71240952D01*
X136280978Y-71120000D01*
X136311216Y-71059523D01*
X136371692Y-71029285D01*
X136432169Y-71029285D01*
X136492645Y-71331666D01*
X136704311Y-70485000D02*
X136371692Y-70485000D01*
X136311216Y-70515238D01*
X136280978Y-70575714D01*
X136280978Y-70696666D01*
X136311216Y-70757142D01*
X136674073Y-70485000D02*
X136704311Y-70545476D01*
X136704311Y-70696666D01*
X136674073Y-70757142D01*
X136613597Y-70787380D01*
X136553121Y-70787380D01*
X136492645Y-70757142D01*
X136462407Y-70696666D01*
X136462407Y-70545476D01*
X136432169Y-70485000D01*
X136280978Y-70273333D02*
X136280978Y-70031428D01*
X136069311Y-70182619D02*
X136613597Y-70182619D01*
X136674073Y-70152380D01*
X136704311Y-70091904D01*
X136704311Y-70031428D01*
X136674073Y-69577857D02*
X136704311Y-69638333D01*
X136704311Y-69759285D01*
X136674073Y-69819761D01*
X136613597Y-69850000D01*
X136371692Y-69850000D01*
X136311216Y-69819761D01*
X136280978Y-69759285D01*
X136280978Y-69638333D01*
X136311216Y-69577857D01*
X136371692Y-69547619D01*
X136432169Y-69547619D01*
X136492645Y-69850000D01*
X136704311Y-69275476D02*
X136280978Y-69275476D01*
X136401930Y-69275476D02*
X136341454Y-69245238D01*
X136311216Y-69215000D01*
X136280978Y-69154523D01*
X136280978Y-69094047D01*
X136643835Y-68882380D02*
X136674073Y-68852142D01*
X136704311Y-68882380D01*
X136674073Y-68912619D01*
X136643835Y-68882380D01*
X136704311Y-68882380D01*
X136280978Y-68580000D02*
X136704311Y-68580000D01*
X136341454Y-68580000D02*
X136311216Y-68549761D01*
X136280978Y-68489285D01*
X136280978Y-68398571D01*
X136311216Y-68338095D01*
X136371692Y-68307857D01*
X136704311Y-68307857D01*
X136674073Y-67763571D02*
X136704311Y-67824047D01*
X136704311Y-67945000D01*
X136674073Y-68005476D01*
X136613597Y-68035714D01*
X136371692Y-68035714D01*
X136311216Y-68005476D01*
X136280978Y-67945000D01*
X136280978Y-67824047D01*
X136311216Y-67763571D01*
X136371692Y-67733333D01*
X136432169Y-67733333D01*
X136492645Y-68035714D01*
X136280978Y-67551904D02*
X136280978Y-67310000D01*
X136069311Y-67461190D02*
X136613597Y-67461190D01*
X136674073Y-67430952D01*
X136704311Y-67370476D01*
X136704311Y-67310000D01*
X136039073Y-66644761D02*
X136855502Y-67189047D01*
X136341454Y-66342380D02*
X136311216Y-66402857D01*
X136280978Y-66433095D01*
X136220502Y-66463333D01*
X136190264Y-66463333D01*
X136129788Y-66433095D01*
X136099550Y-66402857D01*
X136069311Y-66342380D01*
X136069311Y-66221428D01*
X136099550Y-66160952D01*
X136129788Y-66130714D01*
X136190264Y-66100476D01*
X136220502Y-66100476D01*
X136280978Y-66130714D01*
X136311216Y-66160952D01*
X136341454Y-66221428D01*
X136341454Y-66342380D01*
X136371692Y-66402857D01*
X136401930Y-66433095D01*
X136462407Y-66463333D01*
X136583359Y-66463333D01*
X136643835Y-66433095D01*
X136674073Y-66402857D01*
X136704311Y-66342380D01*
X136704311Y-66221428D01*
X136674073Y-66160952D01*
X136643835Y-66130714D01*
X136583359Y-66100476D01*
X136462407Y-66100476D01*
X136401930Y-66130714D01*
X136371692Y-66160952D01*
X136341454Y-66221428D01*
X136704311Y-65828333D02*
X136069311Y-65828333D01*
X136311216Y-65828333D02*
X136280978Y-65767857D01*
X136280978Y-65646904D01*
X136311216Y-65586428D01*
X136341454Y-65556190D01*
X136401930Y-65525952D01*
X136583359Y-65525952D01*
X136643835Y-65556190D01*
X136674073Y-65586428D01*
X136704311Y-65646904D01*
X136704311Y-65767857D01*
X136674073Y-65828333D01*
X136704311Y-65253809D02*
X136280978Y-65253809D01*
X136069311Y-65253809D02*
X136099550Y-65284047D01*
X136129788Y-65253809D01*
X136099550Y-65223571D01*
X136069311Y-65253809D01*
X136129788Y-65253809D01*
X136280978Y-65042142D02*
X136280978Y-64800238D01*
X136069311Y-64951428D02*
X136613597Y-64951428D01*
X136674073Y-64921190D01*
X136704311Y-64860714D01*
X136704311Y-64800238D01*
X136946216Y-64649047D02*
X136915978Y-64618809D01*
X136825264Y-64558333D01*
X136764788Y-64528095D01*
X136674073Y-64497857D01*
X136522883Y-64467619D01*
X136401930Y-64467619D01*
X136250740Y-64497857D01*
X136160026Y-64528095D01*
X136099550Y-64558333D01*
X136008835Y-64618809D01*
X135978597Y-64649047D01*
D10*
X134375071Y-94732928D02*
X133232071Y-94732928D01*
X133232071Y-94460785D01*
X133286500Y-94297500D01*
X133395357Y-94188642D01*
X133504214Y-94134214D01*
X133721928Y-94079785D01*
X133885214Y-94079785D01*
X134102928Y-94134214D01*
X134211785Y-94188642D01*
X134320642Y-94297500D01*
X134375071Y-94460785D01*
X134375071Y-94732928D01*
X134375071Y-93589928D02*
X133232071Y-93589928D01*
X133830785Y-92827928D02*
X134375071Y-92827928D01*
X133232071Y-93208928D02*
X133830785Y-92827928D01*
X133232071Y-92446928D01*
X133721928Y-91031785D02*
X133667500Y-91140642D01*
X133613071Y-91195071D01*
X133504214Y-91249500D01*
X133449785Y-91249500D01*
X133340928Y-91195071D01*
X133286500Y-91140642D01*
X133232071Y-91031785D01*
X133232071Y-90814071D01*
X133286500Y-90705214D01*
X133340928Y-90650785D01*
X133449785Y-90596357D01*
X133504214Y-90596357D01*
X133613071Y-90650785D01*
X133667500Y-90705214D01*
X133721928Y-90814071D01*
X133721928Y-91031785D01*
X133776357Y-91140642D01*
X133830785Y-91195071D01*
X133939642Y-91249500D01*
X134157357Y-91249500D01*
X134266214Y-91195071D01*
X134320642Y-91140642D01*
X134375071Y-91031785D01*
X134375071Y-90814071D01*
X134320642Y-90705214D01*
X134266214Y-90650785D01*
X134157357Y-90596357D01*
X133939642Y-90596357D01*
X133830785Y-90650785D01*
X133776357Y-90705214D01*
X133721928Y-90814071D01*
X133939642Y-90106500D02*
X133939642Y-89235642D01*
X133776357Y-88310357D02*
X133830785Y-88147071D01*
X133885214Y-88092642D01*
X133994071Y-88038214D01*
X134157357Y-88038214D01*
X134266214Y-88092642D01*
X134320642Y-88147071D01*
X134375071Y-88255928D01*
X134375071Y-88691357D01*
X133232071Y-88691357D01*
X133232071Y-88310357D01*
X133286500Y-88201500D01*
X133340928Y-88147071D01*
X133449785Y-88092642D01*
X133558642Y-88092642D01*
X133667500Y-88147071D01*
X133721928Y-88201500D01*
X133776357Y-88310357D01*
X133776357Y-88691357D01*
X134375071Y-87548357D02*
X133613071Y-87548357D01*
X133232071Y-87548357D02*
X133286500Y-87602785D01*
X133340928Y-87548357D01*
X133286500Y-87493928D01*
X133232071Y-87548357D01*
X133340928Y-87548357D01*
X133613071Y-87167357D02*
X133613071Y-86731928D01*
X133232071Y-87004071D02*
X134211785Y-87004071D01*
X134320642Y-86949642D01*
X134375071Y-86840785D01*
X134375071Y-86731928D01*
X134266214Y-84826928D02*
X134320642Y-84881357D01*
X134375071Y-85044642D01*
X134375071Y-85153500D01*
X134320642Y-85316785D01*
X134211785Y-85425642D01*
X134102928Y-85480071D01*
X133885214Y-85534500D01*
X133721928Y-85534500D01*
X133504214Y-85480071D01*
X133395357Y-85425642D01*
X133286500Y-85316785D01*
X133232071Y-85153500D01*
X133232071Y-85044642D01*
X133286500Y-84881357D01*
X133340928Y-84826928D01*
X134375071Y-84173785D02*
X134320642Y-84282642D01*
X134266214Y-84337071D01*
X134157357Y-84391500D01*
X133830785Y-84391500D01*
X133721928Y-84337071D01*
X133667500Y-84282642D01*
X133613071Y-84173785D01*
X133613071Y-84010500D01*
X133667500Y-83901642D01*
X133721928Y-83847214D01*
X133830785Y-83792785D01*
X134157357Y-83792785D01*
X134266214Y-83847214D01*
X134320642Y-83901642D01*
X134375071Y-84010500D01*
X134375071Y-84173785D01*
X134375071Y-83302928D02*
X133613071Y-83302928D01*
X133721928Y-83302928D02*
X133667500Y-83248500D01*
X133613071Y-83139642D01*
X133613071Y-82976357D01*
X133667500Y-82867500D01*
X133776357Y-82813071D01*
X134375071Y-82813071D01*
X133776357Y-82813071D02*
X133667500Y-82758642D01*
X133613071Y-82649785D01*
X133613071Y-82486500D01*
X133667500Y-82377642D01*
X133776357Y-82323214D01*
X134375071Y-82323214D01*
X133613071Y-81778928D02*
X134756071Y-81778928D01*
X133667500Y-81778928D02*
X133613071Y-81670071D01*
X133613071Y-81452357D01*
X133667500Y-81343500D01*
X133721928Y-81289071D01*
X133830785Y-81234642D01*
X134157357Y-81234642D01*
X134266214Y-81289071D01*
X134320642Y-81343500D01*
X134375071Y-81452357D01*
X134375071Y-81670071D01*
X134320642Y-81778928D01*
X133613071Y-80254928D02*
X134375071Y-80254928D01*
X133613071Y-80744785D02*
X134211785Y-80744785D01*
X134320642Y-80690357D01*
X134375071Y-80581500D01*
X134375071Y-80418214D01*
X134320642Y-80309357D01*
X134266214Y-80254928D01*
X133613071Y-79873928D02*
X133613071Y-79438500D01*
X133232071Y-79710642D02*
X134211785Y-79710642D01*
X134320642Y-79656214D01*
X134375071Y-79547357D01*
X134375071Y-79438500D01*
X134320642Y-78622071D02*
X134375071Y-78730928D01*
X134375071Y-78948642D01*
X134320642Y-79057500D01*
X134211785Y-79111928D01*
X133776357Y-79111928D01*
X133667500Y-79057500D01*
X133613071Y-78948642D01*
X133613071Y-78730928D01*
X133667500Y-78622071D01*
X133776357Y-78567642D01*
X133885214Y-78567642D01*
X133994071Y-79111928D01*
X134375071Y-78077785D02*
X133613071Y-78077785D01*
X133830785Y-78077785D02*
X133721928Y-78023357D01*
X133667500Y-77968928D01*
X133613071Y-77860071D01*
X133613071Y-77751214D01*
X133939642Y-76499357D02*
X133939642Y-75628500D01*
X134375071Y-74213357D02*
X133232071Y-74213357D01*
X134048500Y-73832357D01*
X133232071Y-73451357D01*
X134375071Y-73451357D01*
X134320642Y-72471642D02*
X134375071Y-72580500D01*
X134375071Y-72798214D01*
X134320642Y-72907071D01*
X134211785Y-72961500D01*
X133776357Y-72961500D01*
X133667500Y-72907071D01*
X133613071Y-72798214D01*
X133613071Y-72580500D01*
X133667500Y-72471642D01*
X133776357Y-72417214D01*
X133885214Y-72417214D01*
X133994071Y-72961500D01*
X134375071Y-71927357D02*
X133613071Y-71927357D01*
X133721928Y-71927357D02*
X133667500Y-71872928D01*
X133613071Y-71764071D01*
X133613071Y-71600785D01*
X133667500Y-71491928D01*
X133776357Y-71437500D01*
X134375071Y-71437500D01*
X133776357Y-71437500D02*
X133667500Y-71383071D01*
X133613071Y-71274214D01*
X133613071Y-71110928D01*
X133667500Y-71002071D01*
X133776357Y-70947642D01*
X134375071Y-70947642D01*
X134375071Y-70240071D02*
X134320642Y-70348928D01*
X134266214Y-70403357D01*
X134157357Y-70457785D01*
X133830785Y-70457785D01*
X133721928Y-70403357D01*
X133667500Y-70348928D01*
X133613071Y-70240071D01*
X133613071Y-70076785D01*
X133667500Y-69967928D01*
X133721928Y-69913500D01*
X133830785Y-69859071D01*
X134157357Y-69859071D01*
X134266214Y-69913500D01*
X134320642Y-69967928D01*
X134375071Y-70076785D01*
X134375071Y-70240071D01*
X134375071Y-69369214D02*
X133613071Y-69369214D01*
X133830785Y-69369214D02*
X133721928Y-69314785D01*
X133667500Y-69260357D01*
X133613071Y-69151500D01*
X133613071Y-69042642D01*
X133613071Y-68770500D02*
X134375071Y-68498357D01*
X133613071Y-68226214D02*
X134375071Y-68498357D01*
X134647214Y-68607214D01*
X134701642Y-68661642D01*
X134756071Y-68770500D01*
D12*
X127314000Y-96504000D02*
G75*
G02X127314000Y-94504000I0J1000000D01*
G01*
X127314000Y-94504000D02*
X127314000Y-92854000D01*
X127314000Y-92854000D02*
X106874000Y-92854000D01*
X106874000Y-92854000D02*
X106874000Y-98154000D01*
X106874000Y-98154000D02*
X127314000Y-98154000D01*
X127314000Y-98154000D02*
X127314000Y-96504000D01*
X127374000Y-90364000D02*
X106814000Y-90364000D01*
X106814000Y-90364000D02*
X106814000Y-100644000D01*
X106814000Y-100644000D02*
X127374000Y-100644000D01*
X127374000Y-100644000D02*
X127374000Y-90364000D01*
D13*
X109824017Y-124714000D02*
G75*
G03X109824017Y-124714000I-2890017J0D01*
G01*
X109824017Y-53594000D02*
G75*
G03X109824017Y-53594000I-2890017J0D01*
G01*
X194914017Y-53594000D02*
G75*
G03X194914017Y-53594000I-2890017J0D01*
G01*
X194914017Y-124714000D02*
G75*
G03X194914017Y-124714000I-2890017J0D01*
G01*
D12*
X168769000Y-122524000D02*
X170027000Y-122524000D01*
X168769000Y-124364000D02*
X170027000Y-124364000D01*
X190754462Y-112834000D02*
G75*
G03X189209170Y-118384000I-462J-2990000D01*
G01*
X190753538Y-112834000D02*
G75*
G02X192298830Y-118384000I462J-2990000D01*
G01*
X193254000Y-115824000D02*
G75*
G03X193254000Y-115824000I-2500000J0D01*
G01*
X189209000Y-118384000D02*
X192299000Y-118384000D01*
X189209000Y-110764000D02*
X192299000Y-110764000D01*
X193254000Y-108204000D02*
G75*
G03X193254000Y-108204000I-2500000J0D01*
G01*
X190753538Y-105214000D02*
G75*
G02X192298830Y-110764000I462J-2990000D01*
G01*
X190754462Y-105214000D02*
G75*
G03X189209170Y-110764000I-462J-2990000D01*
G01*
X190754462Y-97594000D02*
G75*
G03X189209170Y-103144000I-462J-2990000D01*
G01*
X190753538Y-97594000D02*
G75*
G02X192298830Y-103144000I462J-2990000D01*
G01*
X193254000Y-100584000D02*
G75*
G03X193254000Y-100584000I-2500000J0D01*
G01*
X189209000Y-103144000D02*
X192299000Y-103144000D01*
X189209000Y-95524000D02*
X192299000Y-95524000D01*
X193254000Y-92964000D02*
G75*
G03X193254000Y-92964000I-2500000J0D01*
G01*
X190753538Y-89974000D02*
G75*
G02X192298830Y-95524000I462J-2990000D01*
G01*
X190754462Y-89974000D02*
G75*
G03X189209170Y-95524000I-462J-2990000D01*
G01*
X189209000Y-87904000D02*
X192299000Y-87904000D01*
X193254000Y-85344000D02*
G75*
G03X193254000Y-85344000I-2500000J0D01*
G01*
X190753538Y-82354000D02*
G75*
G02X192298830Y-87904000I462J-2990000D01*
G01*
X190754462Y-82354000D02*
G75*
G03X189209170Y-87904000I-462J-2990000D01*
G01*
X190754462Y-74988000D02*
G75*
G03X189209170Y-80538000I-462J-2990000D01*
G01*
X190753538Y-74988000D02*
G75*
G02X192298830Y-80538000I462J-2990000D01*
G01*
X193254000Y-77978000D02*
G75*
G03X193254000Y-77978000I-2500000J0D01*
G01*
X189209000Y-80538000D02*
X192299000Y-80538000D01*
X189209000Y-72918000D02*
X192299000Y-72918000D01*
X193254000Y-70358000D02*
G75*
G03X193254000Y-70358000I-2500000J0D01*
G01*
X190753538Y-67368000D02*
G75*
G02X192298830Y-72918000I462J-2990000D01*
G01*
X190754462Y-67368000D02*
G75*
G03X189209170Y-72918000I-462J-2990000D01*
G01*
X190754462Y-59748000D02*
G75*
G03X189209170Y-65298000I-462J-2990000D01*
G01*
X190753538Y-59748000D02*
G75*
G02X192298830Y-65298000I462J-2990000D01*
G01*
X193254000Y-62738000D02*
G75*
G03X193254000Y-62738000I-2500000J0D01*
G01*
X189209000Y-65298000D02*
X192299000Y-65298000D01*
X112424000Y-123584000D02*
X112144000Y-123584000D01*
X112144000Y-123584000D02*
X112144000Y-121984000D01*
X112144000Y-121984000D02*
X111224000Y-121984000D01*
X111224000Y-121984000D02*
X111224000Y-129804000D01*
X111224000Y-129804000D02*
X117344000Y-129804000D01*
X117344000Y-129804000D02*
X117344000Y-121984000D01*
X117344000Y-121984000D02*
X116424000Y-121984000D01*
X116424000Y-121984000D02*
X116424000Y-123584000D01*
X116424000Y-123584000D02*
X116144000Y-123584000D01*
X113784000Y-129804000D02*
X113784000Y-125444000D01*
X113784000Y-125444000D02*
X114784000Y-125444000D01*
X114784000Y-125444000D02*
X114784000Y-129804000D01*
X111224000Y-123584000D02*
X112144000Y-123584000D01*
X117344000Y-123584000D02*
X116424000Y-123584000D01*
X111984000Y-125944000D02*
X111984000Y-127544000D01*
X111984000Y-127544000D02*
X112984000Y-127544000D01*
X112984000Y-127544000D02*
X112984000Y-125944000D01*
X112984000Y-125944000D02*
X111984000Y-125944000D01*
X116584000Y-125944000D02*
X116584000Y-127544000D01*
X116584000Y-127544000D02*
X115584000Y-127544000D01*
X115584000Y-127544000D02*
X115584000Y-125944000D01*
X115584000Y-125944000D02*
X116584000Y-125944000D01*
X112984000Y-127544000D02*
X112984000Y-129804000D01*
X112484000Y-127544000D02*
X112484000Y-129804000D01*
X112424000Y-123584000D02*
X112424000Y-122369000D01*
X153064000Y-123584000D02*
X152784000Y-123584000D01*
X152784000Y-123584000D02*
X152784000Y-121984000D01*
X152784000Y-121984000D02*
X151864000Y-121984000D01*
X151864000Y-121984000D02*
X151864000Y-129804000D01*
X151864000Y-129804000D02*
X161984000Y-129804000D01*
X161984000Y-129804000D02*
X161984000Y-121984000D01*
X161984000Y-121984000D02*
X161064000Y-121984000D01*
X161064000Y-121984000D02*
X161064000Y-123584000D01*
X161064000Y-123584000D02*
X160784000Y-123584000D01*
X154424000Y-129804000D02*
X154424000Y-125444000D01*
X154424000Y-125444000D02*
X159424000Y-125444000D01*
X159424000Y-125444000D02*
X159424000Y-129804000D01*
X151864000Y-123584000D02*
X152784000Y-123584000D01*
X161984000Y-123584000D02*
X161064000Y-123584000D01*
X152624000Y-125944000D02*
X152624000Y-127544000D01*
X152624000Y-127544000D02*
X153624000Y-127544000D01*
X153624000Y-127544000D02*
X153624000Y-125944000D01*
X153624000Y-125944000D02*
X152624000Y-125944000D01*
X161224000Y-125944000D02*
X161224000Y-127544000D01*
X161224000Y-127544000D02*
X160224000Y-127544000D01*
X160224000Y-127544000D02*
X160224000Y-125944000D01*
X160224000Y-125944000D02*
X161224000Y-125944000D01*
X153624000Y-127544000D02*
X153624000Y-129804000D01*
X153124000Y-127544000D02*
X153124000Y-129804000D01*
X153064000Y-123584000D02*
X153064000Y-122369000D01*
X120044000Y-123584000D02*
X120044000Y-122369000D01*
X120104000Y-127544000D02*
X120104000Y-129804000D01*
X120604000Y-127544000D02*
X120604000Y-129804000D01*
X127204000Y-125944000D02*
X128204000Y-125944000D01*
X127204000Y-127544000D02*
X127204000Y-125944000D01*
X128204000Y-127544000D02*
X127204000Y-127544000D01*
X128204000Y-125944000D02*
X128204000Y-127544000D01*
X120604000Y-125944000D02*
X119604000Y-125944000D01*
X120604000Y-127544000D02*
X120604000Y-125944000D01*
X119604000Y-127544000D02*
X120604000Y-127544000D01*
X119604000Y-125944000D02*
X119604000Y-127544000D01*
X128964000Y-123584000D02*
X128044000Y-123584000D01*
X118844000Y-123584000D02*
X119764000Y-123584000D01*
X126404000Y-125444000D02*
X126404000Y-129804000D01*
X121404000Y-125444000D02*
X126404000Y-125444000D01*
X121404000Y-129804000D02*
X121404000Y-125444000D01*
X128044000Y-123584000D02*
X127764000Y-123584000D01*
X128044000Y-121984000D02*
X128044000Y-123584000D01*
X128964000Y-121984000D02*
X128044000Y-121984000D01*
X128964000Y-129804000D02*
X128964000Y-121984000D01*
X118844000Y-129804000D02*
X128964000Y-129804000D01*
X118844000Y-121984000D02*
X118844000Y-129804000D01*
X119764000Y-121984000D02*
X118844000Y-121984000D01*
X119764000Y-123584000D02*
X119764000Y-121984000D01*
X120044000Y-123584000D02*
X119764000Y-123584000D01*
X132744000Y-123584000D02*
X132464000Y-123584000D01*
X132464000Y-123584000D02*
X132464000Y-121984000D01*
X132464000Y-121984000D02*
X131544000Y-121984000D01*
X131544000Y-121984000D02*
X131544000Y-129804000D01*
X131544000Y-129804000D02*
X149664000Y-129804000D01*
X149664000Y-129804000D02*
X149664000Y-121984000D01*
X149664000Y-121984000D02*
X148744000Y-121984000D01*
X148744000Y-121984000D02*
X148744000Y-123584000D01*
X148744000Y-123584000D02*
X148464000Y-123584000D01*
X134104000Y-129804000D02*
X134104000Y-125444000D01*
X134104000Y-125444000D02*
X147104000Y-125444000D01*
X147104000Y-125444000D02*
X147104000Y-129804000D01*
X131544000Y-123584000D02*
X132464000Y-123584000D01*
X149664000Y-123584000D02*
X148744000Y-123584000D01*
X132304000Y-125944000D02*
X132304000Y-127544000D01*
X132304000Y-127544000D02*
X133304000Y-127544000D01*
X133304000Y-127544000D02*
X133304000Y-125944000D01*
X133304000Y-125944000D02*
X132304000Y-125944000D01*
X148904000Y-125944000D02*
X148904000Y-127544000D01*
X148904000Y-127544000D02*
X147904000Y-127544000D01*
X147904000Y-127544000D02*
X147904000Y-125944000D01*
X147904000Y-125944000D02*
X148904000Y-125944000D01*
X133304000Y-127544000D02*
X133304000Y-129804000D01*
X132804000Y-127544000D02*
X132804000Y-129804000D01*
X132744000Y-123584000D02*
X132744000Y-122369000D01*
X186594000Y-117744000D02*
X186594000Y-113904000D01*
X184754000Y-117744000D02*
X184754000Y-113904000D01*
X184754000Y-110124000D02*
X184754000Y-106284000D01*
X186594000Y-110124000D02*
X186594000Y-106284000D01*
X186594000Y-102504000D02*
X186594000Y-98664000D01*
X184754000Y-102504000D02*
X184754000Y-98664000D01*
X184754000Y-94884000D02*
X184754000Y-91044000D01*
X186594000Y-94884000D02*
X186594000Y-91044000D01*
X184754000Y-87264000D02*
X184754000Y-83424000D01*
X186594000Y-87264000D02*
X186594000Y-83424000D01*
X186594000Y-79644000D02*
X186594000Y-75804000D01*
X184754000Y-79644000D02*
X184754000Y-75804000D01*
X184754000Y-72024000D02*
X184754000Y-68184000D01*
X186594000Y-72024000D02*
X186594000Y-68184000D01*
X186594000Y-64404000D02*
X186594000Y-60564000D01*
X184754000Y-64404000D02*
X184754000Y-60564000D01*
X177150000Y-122524000D02*
X180990000Y-122524000D01*
X177150000Y-124364000D02*
X180990000Y-124364000D01*
X172704000Y-66714000D02*
X177204000Y-66714000D01*
X171454000Y-62714000D02*
X171454000Y-64214000D01*
X177204000Y-60214000D02*
X172704000Y-60214000D01*
X178454000Y-64214000D02*
X178454000Y-62714000D01*
X180464000Y-92844000D02*
X170564000Y-92844000D01*
X180464000Y-70223000D02*
X170564000Y-70223000D01*
X180464000Y-92844000D02*
X180464000Y-70223000D01*
X170564000Y-92844000D02*
X170564000Y-70223000D01*
X180704000Y-93084000D02*
X179320000Y-93084000D01*
X180704000Y-93084000D02*
X180704000Y-91701000D01*
X177544000Y-91059000D02*
X177544000Y-89789000D01*
X177544000Y-89789000D02*
X173484000Y-89789000D01*
X173484000Y-89789000D02*
X173484000Y-91059000D01*
X173484000Y-91059000D02*
X177544000Y-91059000D01*
X177544000Y-90939000D02*
X176190667Y-90939000D01*
X177544000Y-90819000D02*
X176190667Y-90819000D01*
X177544000Y-90699000D02*
X176190667Y-90699000D01*
X177544000Y-90579000D02*
X176190667Y-90579000D01*
X177544000Y-90459000D02*
X176190667Y-90459000D01*
X177544000Y-90339000D02*
X176190667Y-90339000D01*
X177544000Y-90219000D02*
X176190667Y-90219000D01*
X177544000Y-90099000D02*
X176190667Y-90099000D01*
X177544000Y-89979000D02*
X176190667Y-89979000D01*
X177544000Y-89859000D02*
X176190667Y-89859000D01*
X176190667Y-91059000D02*
X176190667Y-89789000D01*
X177544000Y-88519000D02*
X177544000Y-87249000D01*
X177544000Y-87249000D02*
X173484000Y-87249000D01*
X173484000Y-87249000D02*
X173484000Y-88519000D01*
X173484000Y-88519000D02*
X177544000Y-88519000D01*
X177544000Y-88399000D02*
X176190667Y-88399000D01*
X177544000Y-88279000D02*
X176190667Y-88279000D01*
X177544000Y-88159000D02*
X176190667Y-88159000D01*
X177544000Y-88039000D02*
X176190667Y-88039000D01*
X177544000Y-87919000D02*
X176190667Y-87919000D01*
X177544000Y-87799000D02*
X176190667Y-87799000D01*
X177544000Y-87679000D02*
X176190667Y-87679000D01*
X177544000Y-87559000D02*
X176190667Y-87559000D01*
X177544000Y-87439000D02*
X176190667Y-87439000D01*
X177544000Y-87319000D02*
X176190667Y-87319000D01*
X176190667Y-88519000D02*
X176190667Y-87249000D01*
X177544000Y-85979000D02*
X177544000Y-84709000D01*
X177544000Y-84709000D02*
X173484000Y-84709000D01*
X173484000Y-84709000D02*
X173484000Y-85979000D01*
X173484000Y-85979000D02*
X177544000Y-85979000D01*
X177544000Y-85859000D02*
X176190667Y-85859000D01*
X177544000Y-85739000D02*
X176190667Y-85739000D01*
X177544000Y-85619000D02*
X176190667Y-85619000D01*
X177544000Y-85499000D02*
X176190667Y-85499000D01*
X177544000Y-85379000D02*
X176190667Y-85379000D01*
X177544000Y-85259000D02*
X176190667Y-85259000D01*
X177544000Y-85139000D02*
X176190667Y-85139000D01*
X177544000Y-85019000D02*
X176190667Y-85019000D01*
X177544000Y-84899000D02*
X176190667Y-84899000D01*
X177544000Y-84779000D02*
X176190667Y-84779000D01*
X176190667Y-85979000D02*
X176190667Y-84709000D01*
X177544000Y-83439000D02*
X177544000Y-82169000D01*
X177544000Y-82169000D02*
X173484000Y-82169000D01*
X173484000Y-82169000D02*
X173484000Y-83439000D01*
X173484000Y-83439000D02*
X177544000Y-83439000D01*
X177544000Y-83319000D02*
X176190667Y-83319000D01*
X177544000Y-83199000D02*
X176190667Y-83199000D01*
X177544000Y-83079000D02*
X176190667Y-83079000D01*
X177544000Y-82959000D02*
X176190667Y-82959000D01*
X177544000Y-82839000D02*
X176190667Y-82839000D01*
X177544000Y-82719000D02*
X176190667Y-82719000D01*
X177544000Y-82599000D02*
X176190667Y-82599000D01*
X177544000Y-82479000D02*
X176190667Y-82479000D01*
X177544000Y-82359000D02*
X176190667Y-82359000D01*
X177544000Y-82239000D02*
X176190667Y-82239000D01*
X176190667Y-83439000D02*
X176190667Y-82169000D01*
X177544000Y-80899000D02*
X177544000Y-79629000D01*
X177544000Y-79629000D02*
X173484000Y-79629000D01*
X173484000Y-79629000D02*
X173484000Y-80899000D01*
X173484000Y-80899000D02*
X177544000Y-80899000D01*
X177544000Y-80779000D02*
X176190667Y-80779000D01*
X177544000Y-80659000D02*
X176190667Y-80659000D01*
X177544000Y-80539000D02*
X176190667Y-80539000D01*
X177544000Y-80419000D02*
X176190667Y-80419000D01*
X177544000Y-80299000D02*
X176190667Y-80299000D01*
X177544000Y-80179000D02*
X176190667Y-80179000D01*
X177544000Y-80059000D02*
X176190667Y-80059000D01*
X177544000Y-79939000D02*
X176190667Y-79939000D01*
X177544000Y-79819000D02*
X176190667Y-79819000D01*
X177544000Y-79699000D02*
X176190667Y-79699000D01*
X176190667Y-80899000D02*
X176190667Y-79629000D01*
X177544000Y-78359000D02*
X177544000Y-77089000D01*
X177544000Y-77089000D02*
X173484000Y-77089000D01*
X173484000Y-77089000D02*
X173484000Y-78359000D01*
X173484000Y-78359000D02*
X177544000Y-78359000D01*
X177544000Y-78239000D02*
X176190667Y-78239000D01*
X177544000Y-78119000D02*
X176190667Y-78119000D01*
X177544000Y-77999000D02*
X176190667Y-77999000D01*
X177544000Y-77879000D02*
X176190667Y-77879000D01*
X177544000Y-77759000D02*
X176190667Y-77759000D01*
X177544000Y-77639000D02*
X176190667Y-77639000D01*
X177544000Y-77519000D02*
X176190667Y-77519000D01*
X177544000Y-77399000D02*
X176190667Y-77399000D01*
X177544000Y-77279000D02*
X176190667Y-77279000D01*
X177544000Y-77159000D02*
X176190667Y-77159000D01*
X176190667Y-78359000D02*
X176190667Y-77089000D01*
X177544000Y-75819000D02*
X177544000Y-74549000D01*
X177544000Y-74549000D02*
X173484000Y-74549000D01*
X173484000Y-74549000D02*
X173484000Y-75819000D01*
X173484000Y-75819000D02*
X177544000Y-75819000D01*
X177544000Y-75699000D02*
X176190667Y-75699000D01*
X177544000Y-75579000D02*
X176190667Y-75579000D01*
X177544000Y-75459000D02*
X176190667Y-75459000D01*
X177544000Y-75339000D02*
X176190667Y-75339000D01*
X177544000Y-75219000D02*
X176190667Y-75219000D01*
X177544000Y-75099000D02*
X176190667Y-75099000D01*
X177544000Y-74979000D02*
X176190667Y-74979000D01*
X177544000Y-74859000D02*
X176190667Y-74859000D01*
X177544000Y-74739000D02*
X176190667Y-74739000D01*
X177544000Y-74619000D02*
X176190667Y-74619000D01*
X176190667Y-75819000D02*
X176190667Y-74549000D01*
X177544000Y-73279000D02*
X177544000Y-72009000D01*
X177544000Y-72009000D02*
X173484000Y-72009000D01*
X173484000Y-72009000D02*
X173484000Y-73279000D01*
X173484000Y-73279000D02*
X177544000Y-73279000D01*
X177544000Y-73159000D02*
X176190667Y-73159000D01*
X177544000Y-73039000D02*
X176190667Y-73039000D01*
X177544000Y-72919000D02*
X176190667Y-72919000D01*
X177544000Y-72799000D02*
X176190667Y-72799000D01*
X177544000Y-72679000D02*
X176190667Y-72679000D01*
X177544000Y-72559000D02*
X176190667Y-72559000D01*
X177544000Y-72439000D02*
X176190667Y-72439000D01*
X177544000Y-72319000D02*
X176190667Y-72319000D01*
X177544000Y-72199000D02*
X176190667Y-72199000D01*
X177544000Y-72079000D02*
X176190667Y-72079000D01*
X176190667Y-73279000D02*
X176190667Y-72009000D01*
X147894000Y-52136000D02*
X149794000Y-52136000D01*
X149794000Y-52136000D02*
X149794000Y-54036000D01*
X149794000Y-54036000D02*
X147894000Y-54036000D01*
X147894000Y-54036000D02*
X147894000Y-52136000D01*
X168722000Y-52136000D02*
X170622000Y-52136000D01*
X170622000Y-52136000D02*
X170622000Y-54036000D01*
X170622000Y-54036000D02*
X168722000Y-54036000D01*
X168722000Y-54036000D02*
X168722000Y-52136000D01*
X150942000Y-54036000D02*
X150942000Y-52136000D01*
X152842000Y-54036000D02*
X150942000Y-54036000D01*
X152842000Y-52136000D02*
X152842000Y-54036000D01*
X150942000Y-52136000D02*
X152842000Y-52136000D01*
X164404000Y-54036000D02*
X164404000Y-52136000D01*
X166304000Y-54036000D02*
X164404000Y-54036000D01*
X166304000Y-52136000D02*
X166304000Y-54036000D01*
X164404000Y-52136000D02*
X166304000Y-52136000D01*
X161356000Y-52136000D02*
X163256000Y-52136000D01*
X163256000Y-52136000D02*
X163256000Y-54036000D01*
X163256000Y-54036000D02*
X161356000Y-54036000D01*
X161356000Y-54036000D02*
X161356000Y-52136000D01*
X158308000Y-52136000D02*
X160208000Y-52136000D01*
X160208000Y-52136000D02*
X160208000Y-54036000D01*
X160208000Y-54036000D02*
X158308000Y-54036000D01*
X158308000Y-54036000D02*
X158308000Y-52136000D01*
X177866000Y-52136000D02*
X179766000Y-52136000D01*
X179766000Y-52136000D02*
X179766000Y-54036000D01*
X179766000Y-54036000D02*
X177866000Y-54036000D01*
X177866000Y-54036000D02*
X177866000Y-52136000D01*
X155260000Y-54036000D02*
X155260000Y-52136000D01*
X157160000Y-54036000D02*
X155260000Y-54036000D01*
X157160000Y-52136000D02*
X157160000Y-54036000D01*
X155260000Y-52136000D02*
X157160000Y-52136000D01*
X174818000Y-54036000D02*
X174818000Y-52136000D01*
X176718000Y-54036000D02*
X174818000Y-54036000D01*
X176718000Y-52136000D02*
X176718000Y-54036000D01*
X174818000Y-52136000D02*
X176718000Y-52136000D01*
X171770000Y-54036000D02*
X171770000Y-52136000D01*
X173670000Y-54036000D02*
X171770000Y-54036000D01*
X173670000Y-52136000D02*
X173670000Y-54036000D01*
X171770000Y-52136000D02*
X173670000Y-52136000D01*
X124140000Y-52136000D02*
X124140000Y-54036000D01*
X122240000Y-52136000D02*
X124140000Y-52136000D01*
X122240000Y-54036000D02*
X122240000Y-52136000D01*
X124140000Y-54036000D02*
X122240000Y-54036000D01*
X127188000Y-54036000D02*
X125288000Y-54036000D01*
X125288000Y-54036000D02*
X125288000Y-52136000D01*
X125288000Y-52136000D02*
X127188000Y-52136000D01*
X127188000Y-52136000D02*
X127188000Y-54036000D01*
X130236000Y-52136000D02*
X130236000Y-54036000D01*
X128336000Y-52136000D02*
X130236000Y-52136000D01*
X128336000Y-54036000D02*
X128336000Y-52136000D01*
X130236000Y-54036000D02*
X128336000Y-54036000D01*
X133284000Y-54036000D02*
X131384000Y-54036000D01*
X131384000Y-54036000D02*
X131384000Y-52136000D01*
X131384000Y-52136000D02*
X133284000Y-52136000D01*
X133284000Y-52136000D02*
X133284000Y-54036000D01*
X136332000Y-52136000D02*
X136332000Y-54036000D01*
X134432000Y-52136000D02*
X136332000Y-52136000D01*
X134432000Y-54036000D02*
X134432000Y-52136000D01*
X136332000Y-54036000D02*
X134432000Y-54036000D01*
X139380000Y-54036000D02*
X137480000Y-54036000D01*
X137480000Y-54036000D02*
X137480000Y-52136000D01*
X137480000Y-52136000D02*
X139380000Y-52136000D01*
X139380000Y-52136000D02*
X139380000Y-54036000D01*
X142428000Y-52136000D02*
X142428000Y-54036000D01*
X140528000Y-52136000D02*
X142428000Y-52136000D01*
X140528000Y-54036000D02*
X140528000Y-52136000D01*
X142428000Y-54036000D02*
X140528000Y-54036000D01*
X145476000Y-54036000D02*
X143576000Y-54036000D01*
X143576000Y-54036000D02*
X143576000Y-52136000D01*
X143576000Y-52136000D02*
X145476000Y-52136000D01*
X145476000Y-52136000D02*
X145476000Y-54036000D01*
X106874000Y-79264000D02*
G75*
G02X106874000Y-81264000I0J-1000000D01*
G01*
X106874000Y-81264000D02*
X106874000Y-82914000D01*
X106874000Y-82914000D02*
X127314000Y-82914000D01*
X127314000Y-82914000D02*
X127314000Y-77614000D01*
X127314000Y-77614000D02*
X106874000Y-77614000D01*
X106874000Y-77614000D02*
X106874000Y-79264000D01*
X106814000Y-85404000D02*
X127374000Y-85404000D01*
X127374000Y-85404000D02*
X127374000Y-75124000D01*
X127374000Y-75124000D02*
X106814000Y-75124000D01*
X106814000Y-75124000D02*
X106814000Y-85404000D01*
X142374000Y-90364000D02*
X142374000Y-100644000D01*
X162934000Y-90364000D02*
X142374000Y-90364000D01*
X162934000Y-100644000D02*
X162934000Y-90364000D01*
X142374000Y-100644000D02*
X162934000Y-100644000D01*
X142434000Y-92854000D02*
X142434000Y-94504000D01*
X162874000Y-92854000D02*
X142434000Y-92854000D01*
X162874000Y-98154000D02*
X162874000Y-92854000D01*
X142434000Y-98154000D02*
X162874000Y-98154000D01*
X142434000Y-96504000D02*
X142434000Y-98154000D01*
X142434000Y-94504000D02*
G75*
G02X142434000Y-96504000I0J-1000000D01*
G01*
X142434000Y-109744000D02*
G75*
G02X142434000Y-111744000I0J-1000000D01*
G01*
X142434000Y-111744000D02*
X142434000Y-113394000D01*
X142434000Y-113394000D02*
X160334000Y-113394000D01*
X160334000Y-113394000D02*
X160334000Y-108094000D01*
X160334000Y-108094000D02*
X142434000Y-108094000D01*
X142434000Y-108094000D02*
X142434000Y-109744000D01*
X142374000Y-115884000D02*
X160394000Y-115884000D01*
X160394000Y-115884000D02*
X160394000Y-105604000D01*
X160394000Y-105604000D02*
X142374000Y-105604000D01*
X142374000Y-105604000D02*
X142374000Y-115884000D01*
X176514000Y-97984000D02*
G75*
G02X174514000Y-97984000I-1000000J0D01*
G01*
X174514000Y-97984000D02*
X172864000Y-97984000D01*
X172864000Y-97984000D02*
X172864000Y-115884000D01*
X172864000Y-115884000D02*
X178164000Y-115884000D01*
X178164000Y-115884000D02*
X178164000Y-97984000D01*
X178164000Y-97984000D02*
X176514000Y-97984000D01*
X170374000Y-97924000D02*
X170374000Y-115944000D01*
X170374000Y-115944000D02*
X180654000Y-115944000D01*
X180654000Y-115944000D02*
X180654000Y-97924000D01*
X180654000Y-97924000D02*
X170374000Y-97924000D01*
X142374000Y-75124000D02*
X142374000Y-85404000D01*
X160394000Y-75124000D02*
X142374000Y-75124000D01*
X160394000Y-85404000D02*
X160394000Y-75124000D01*
X142374000Y-85404000D02*
X160394000Y-85404000D01*
X142434000Y-77614000D02*
X142434000Y-79264000D01*
X160334000Y-77614000D02*
X142434000Y-77614000D01*
X160334000Y-82914000D02*
X160334000Y-77614000D01*
X142434000Y-82914000D02*
X160334000Y-82914000D01*
X142434000Y-81264000D02*
X142434000Y-82914000D01*
X142434000Y-79264000D02*
G75*
G02X142434000Y-81264000I0J-1000000D01*
G01*
X106874000Y-109744000D02*
G75*
G02X106874000Y-111744000I0J-1000000D01*
G01*
X106874000Y-111744000D02*
X106874000Y-113394000D01*
X106874000Y-113394000D02*
X132394000Y-113394000D01*
X132394000Y-113394000D02*
X132394000Y-108094000D01*
X132394000Y-108094000D02*
X106874000Y-108094000D01*
X106874000Y-108094000D02*
X106874000Y-109744000D01*
X106814000Y-115884000D02*
X132454000Y-115884000D01*
X132454000Y-115884000D02*
X132454000Y-105604000D01*
X132454000Y-105604000D02*
X106814000Y-105604000D01*
X106814000Y-105604000D02*
X106814000Y-115884000D01*
X142434000Y-64024000D02*
G75*
G02X142434000Y-66024000I0J-1000000D01*
G01*
X142434000Y-66024000D02*
X142434000Y-67674000D01*
X142434000Y-67674000D02*
X162874000Y-67674000D01*
X162874000Y-67674000D02*
X162874000Y-62374000D01*
X162874000Y-62374000D02*
X142434000Y-62374000D01*
X142434000Y-62374000D02*
X142434000Y-64024000D01*
X142374000Y-70164000D02*
X162934000Y-70164000D01*
X162934000Y-70164000D02*
X162934000Y-59884000D01*
X162934000Y-59884000D02*
X142374000Y-59884000D01*
X142374000Y-59884000D02*
X142374000Y-70164000D01*
X127374000Y-70164000D02*
X127374000Y-59884000D01*
X106814000Y-70164000D02*
X127374000Y-70164000D01*
X106814000Y-59884000D02*
X106814000Y-70164000D01*
X127374000Y-59884000D02*
X106814000Y-59884000D01*
X127314000Y-67674000D02*
X127314000Y-66024000D01*
X106874000Y-67674000D02*
X127314000Y-67674000D01*
X106874000Y-62374000D02*
X106874000Y-67674000D01*
X127314000Y-62374000D02*
X106874000Y-62374000D01*
X127314000Y-64024000D02*
X127314000Y-62374000D01*
X127314000Y-66024000D02*
G75*
G02X127314000Y-64024000I0J1000000D01*
G01*
D14*
X127766380Y-96265904D02*
X128575904Y-96265904D01*
X128671142Y-96218285D01*
X128718761Y-96170666D01*
X128766380Y-96075428D01*
X128766380Y-95884952D01*
X128718761Y-95789714D01*
X128671142Y-95742095D01*
X128575904Y-95694476D01*
X127766380Y-95694476D01*
X127766380Y-94789714D02*
X127766380Y-94980190D01*
X127814000Y-95075428D01*
X127861619Y-95123047D01*
X128004476Y-95218285D01*
X128194952Y-95265904D01*
X128575904Y-95265904D01*
X128671142Y-95218285D01*
X128718761Y-95170666D01*
X128766380Y-95075428D01*
X128766380Y-94884952D01*
X128718761Y-94789714D01*
X128671142Y-94742095D01*
X128575904Y-94694476D01*
X128337809Y-94694476D01*
X128242571Y-94742095D01*
X128194952Y-94789714D01*
X128147333Y-94884952D01*
X128147333Y-95075428D01*
X128194952Y-95170666D01*
X128242571Y-95218285D01*
X128337809Y-95265904D01*
X169231333Y-121751142D02*
X169183714Y-121798761D01*
X169040857Y-121846380D01*
X168945619Y-121846380D01*
X168802761Y-121798761D01*
X168707523Y-121703523D01*
X168659904Y-121608285D01*
X168612285Y-121417809D01*
X168612285Y-121274952D01*
X168659904Y-121084476D01*
X168707523Y-120989238D01*
X168802761Y-120894000D01*
X168945619Y-120846380D01*
X169040857Y-120846380D01*
X169183714Y-120894000D01*
X169231333Y-120941619D01*
X170183714Y-121846380D02*
X169612285Y-121846380D01*
X169898000Y-121846380D02*
X169898000Y-120846380D01*
X169802761Y-120989238D01*
X169707523Y-121084476D01*
X169612285Y-121132095D01*
X195270380Y-116562095D02*
X194270380Y-116562095D01*
X194270380Y-116324000D01*
X194318000Y-116181142D01*
X194413238Y-116085904D01*
X194508476Y-116038285D01*
X194698952Y-115990666D01*
X194841809Y-115990666D01*
X195032285Y-116038285D01*
X195127523Y-116085904D01*
X195222761Y-116181142D01*
X195270380Y-116324000D01*
X195270380Y-116562095D01*
X195270380Y-115038285D02*
X195270380Y-115609714D01*
X195270380Y-115324000D02*
X194270380Y-115324000D01*
X194413238Y-115419238D01*
X194508476Y-115514476D01*
X194556095Y-115609714D01*
X195270380Y-108942095D02*
X194270380Y-108942095D01*
X194270380Y-108704000D01*
X194318000Y-108561142D01*
X194413238Y-108465904D01*
X194508476Y-108418285D01*
X194698952Y-108370666D01*
X194841809Y-108370666D01*
X195032285Y-108418285D01*
X195127523Y-108465904D01*
X195222761Y-108561142D01*
X195270380Y-108704000D01*
X195270380Y-108942095D01*
X194365619Y-107989714D02*
X194318000Y-107942095D01*
X194270380Y-107846857D01*
X194270380Y-107608761D01*
X194318000Y-107513523D01*
X194365619Y-107465904D01*
X194460857Y-107418285D01*
X194556095Y-107418285D01*
X194698952Y-107465904D01*
X195270380Y-108037333D01*
X195270380Y-107418285D01*
X195270380Y-101322095D02*
X194270380Y-101322095D01*
X194270380Y-101084000D01*
X194318000Y-100941142D01*
X194413238Y-100845904D01*
X194508476Y-100798285D01*
X194698952Y-100750666D01*
X194841809Y-100750666D01*
X195032285Y-100798285D01*
X195127523Y-100845904D01*
X195222761Y-100941142D01*
X195270380Y-101084000D01*
X195270380Y-101322095D01*
X194270380Y-100417333D02*
X194270380Y-99798285D01*
X194651333Y-100131619D01*
X194651333Y-99988761D01*
X194698952Y-99893523D01*
X194746571Y-99845904D01*
X194841809Y-99798285D01*
X195079904Y-99798285D01*
X195175142Y-99845904D01*
X195222761Y-99893523D01*
X195270380Y-99988761D01*
X195270380Y-100274476D01*
X195222761Y-100369714D01*
X195175142Y-100417333D01*
X195270380Y-93702095D02*
X194270380Y-93702095D01*
X194270380Y-93464000D01*
X194318000Y-93321142D01*
X194413238Y-93225904D01*
X194508476Y-93178285D01*
X194698952Y-93130666D01*
X194841809Y-93130666D01*
X195032285Y-93178285D01*
X195127523Y-93225904D01*
X195222761Y-93321142D01*
X195270380Y-93464000D01*
X195270380Y-93702095D01*
X194603714Y-92273523D02*
X195270380Y-92273523D01*
X194222761Y-92511619D02*
X194937047Y-92749714D01*
X194937047Y-92130666D01*
X195270380Y-86082095D02*
X194270380Y-86082095D01*
X194270380Y-85844000D01*
X194318000Y-85701142D01*
X194413238Y-85605904D01*
X194508476Y-85558285D01*
X194698952Y-85510666D01*
X194841809Y-85510666D01*
X195032285Y-85558285D01*
X195127523Y-85605904D01*
X195222761Y-85701142D01*
X195270380Y-85844000D01*
X195270380Y-86082095D01*
X194270380Y-84605904D02*
X194270380Y-85082095D01*
X194746571Y-85129714D01*
X194698952Y-85082095D01*
X194651333Y-84986857D01*
X194651333Y-84748761D01*
X194698952Y-84653523D01*
X194746571Y-84605904D01*
X194841809Y-84558285D01*
X195079904Y-84558285D01*
X195175142Y-84605904D01*
X195222761Y-84653523D01*
X195270380Y-84748761D01*
X195270380Y-84986857D01*
X195222761Y-85082095D01*
X195175142Y-85129714D01*
X195270380Y-78716095D02*
X194270380Y-78716095D01*
X194270380Y-78478000D01*
X194318000Y-78335142D01*
X194413238Y-78239904D01*
X194508476Y-78192285D01*
X194698952Y-78144666D01*
X194841809Y-78144666D01*
X195032285Y-78192285D01*
X195127523Y-78239904D01*
X195222761Y-78335142D01*
X195270380Y-78478000D01*
X195270380Y-78716095D01*
X194270380Y-77287523D02*
X194270380Y-77478000D01*
X194318000Y-77573238D01*
X194365619Y-77620857D01*
X194508476Y-77716095D01*
X194698952Y-77763714D01*
X195079904Y-77763714D01*
X195175142Y-77716095D01*
X195222761Y-77668476D01*
X195270380Y-77573238D01*
X195270380Y-77382761D01*
X195222761Y-77287523D01*
X195175142Y-77239904D01*
X195079904Y-77192285D01*
X194841809Y-77192285D01*
X194746571Y-77239904D01*
X194698952Y-77287523D01*
X194651333Y-77382761D01*
X194651333Y-77573238D01*
X194698952Y-77668476D01*
X194746571Y-77716095D01*
X194841809Y-77763714D01*
X195270380Y-71096095D02*
X194270380Y-71096095D01*
X194270380Y-70858000D01*
X194318000Y-70715142D01*
X194413238Y-70619904D01*
X194508476Y-70572285D01*
X194698952Y-70524666D01*
X194841809Y-70524666D01*
X195032285Y-70572285D01*
X195127523Y-70619904D01*
X195222761Y-70715142D01*
X195270380Y-70858000D01*
X195270380Y-71096095D01*
X194270380Y-70191333D02*
X194270380Y-69524666D01*
X195270380Y-69953238D01*
X195270380Y-63476095D02*
X194270380Y-63476095D01*
X194270380Y-63238000D01*
X194318000Y-63095142D01*
X194413238Y-62999904D01*
X194508476Y-62952285D01*
X194698952Y-62904666D01*
X194841809Y-62904666D01*
X195032285Y-62952285D01*
X195127523Y-62999904D01*
X195222761Y-63095142D01*
X195270380Y-63238000D01*
X195270380Y-63476095D01*
X194698952Y-62333238D02*
X194651333Y-62428476D01*
X194603714Y-62476095D01*
X194508476Y-62523714D01*
X194460857Y-62523714D01*
X194365619Y-62476095D01*
X194318000Y-62428476D01*
X194270380Y-62333238D01*
X194270380Y-62142761D01*
X194318000Y-62047523D01*
X194365619Y-61999904D01*
X194460857Y-61952285D01*
X194508476Y-61952285D01*
X194603714Y-61999904D01*
X194651333Y-62047523D01*
X194698952Y-62142761D01*
X194698952Y-62333238D01*
X194746571Y-62428476D01*
X194794190Y-62476095D01*
X194889428Y-62523714D01*
X195079904Y-62523714D01*
X195175142Y-62476095D01*
X195222761Y-62428476D01*
X195270380Y-62333238D01*
X195270380Y-62142761D01*
X195222761Y-62047523D01*
X195175142Y-61999904D01*
X195079904Y-61952285D01*
X194889428Y-61952285D01*
X194794190Y-61999904D01*
X194746571Y-62047523D01*
X194698952Y-62142761D01*
X112307809Y-121102380D02*
X112307809Y-120102380D01*
X112688761Y-120102380D01*
X112784000Y-120150000D01*
X112831619Y-120197619D01*
X112879238Y-120292857D01*
X112879238Y-120435714D01*
X112831619Y-120530952D01*
X112784000Y-120578571D01*
X112688761Y-120626190D01*
X112307809Y-120626190D01*
X113450666Y-121102380D02*
X113355428Y-121054761D01*
X113307809Y-121007142D01*
X113260190Y-120911904D01*
X113260190Y-120626190D01*
X113307809Y-120530952D01*
X113355428Y-120483333D01*
X113450666Y-120435714D01*
X113593523Y-120435714D01*
X113688761Y-120483333D01*
X113736380Y-120530952D01*
X113784000Y-120626190D01*
X113784000Y-120911904D01*
X113736380Y-121007142D01*
X113688761Y-121054761D01*
X113593523Y-121102380D01*
X113450666Y-121102380D01*
X114117333Y-120435714D02*
X114307809Y-121102380D01*
X114498285Y-120626190D01*
X114688761Y-121102380D01*
X114879238Y-120435714D01*
X115641142Y-121054761D02*
X115545904Y-121102380D01*
X115355428Y-121102380D01*
X115260190Y-121054761D01*
X115212571Y-120959523D01*
X115212571Y-120578571D01*
X115260190Y-120483333D01*
X115355428Y-120435714D01*
X115545904Y-120435714D01*
X115641142Y-120483333D01*
X115688761Y-120578571D01*
X115688761Y-120673809D01*
X115212571Y-120769047D01*
X116117333Y-121102380D02*
X116117333Y-120435714D01*
X116117333Y-120626190D02*
X116164952Y-120530952D01*
X116212571Y-120483333D01*
X116307809Y-120435714D01*
X116403047Y-120435714D01*
X155440238Y-121102380D02*
X155440238Y-120102380D01*
X155773571Y-120816666D01*
X156106904Y-120102380D01*
X156106904Y-121102380D01*
X156583095Y-121102380D02*
X156583095Y-120435714D01*
X156583095Y-120102380D02*
X156535476Y-120150000D01*
X156583095Y-120197619D01*
X156630714Y-120150000D01*
X156583095Y-120102380D01*
X156583095Y-120197619D01*
X157011666Y-121054761D02*
X157106904Y-121102380D01*
X157297380Y-121102380D01*
X157392619Y-121054761D01*
X157440238Y-120959523D01*
X157440238Y-120911904D01*
X157392619Y-120816666D01*
X157297380Y-120769047D01*
X157154523Y-120769047D01*
X157059285Y-120721428D01*
X157011666Y-120626190D01*
X157011666Y-120578571D01*
X157059285Y-120483333D01*
X157154523Y-120435714D01*
X157297380Y-120435714D01*
X157392619Y-120483333D01*
X158297380Y-121054761D02*
X158202142Y-121102380D01*
X158011666Y-121102380D01*
X157916428Y-121054761D01*
X157868809Y-121007142D01*
X157821190Y-120911904D01*
X157821190Y-120626190D01*
X157868809Y-120530952D01*
X157916428Y-120483333D01*
X158011666Y-120435714D01*
X158202142Y-120435714D01*
X158297380Y-120483333D01*
X121134523Y-120816666D02*
X121610714Y-120816666D01*
X121039285Y-121102380D02*
X121372619Y-120102380D01*
X121705952Y-121102380D01*
X122467857Y-121102380D02*
X122467857Y-120102380D01*
X122467857Y-121054761D02*
X122372619Y-121102380D01*
X122182142Y-121102380D01*
X122086904Y-121054761D01*
X122039285Y-121007142D01*
X121991666Y-120911904D01*
X121991666Y-120626190D01*
X122039285Y-120530952D01*
X122086904Y-120483333D01*
X122182142Y-120435714D01*
X122372619Y-120435714D01*
X122467857Y-120483333D01*
X123372619Y-121102380D02*
X123372619Y-120102380D01*
X123372619Y-121054761D02*
X123277380Y-121102380D01*
X123086904Y-121102380D01*
X122991666Y-121054761D01*
X122944047Y-121007142D01*
X122896428Y-120911904D01*
X122896428Y-120626190D01*
X122944047Y-120530952D01*
X122991666Y-120483333D01*
X123086904Y-120435714D01*
X123277380Y-120435714D01*
X123372619Y-120483333D01*
X123848809Y-121102380D02*
X123848809Y-120435714D01*
X123848809Y-120626190D02*
X123896428Y-120530952D01*
X123944047Y-120483333D01*
X124039285Y-120435714D01*
X124134523Y-120435714D01*
X124848809Y-121054761D02*
X124753571Y-121102380D01*
X124563095Y-121102380D01*
X124467857Y-121054761D01*
X124420238Y-120959523D01*
X124420238Y-120578571D01*
X124467857Y-120483333D01*
X124563095Y-120435714D01*
X124753571Y-120435714D01*
X124848809Y-120483333D01*
X124896428Y-120578571D01*
X124896428Y-120673809D01*
X124420238Y-120769047D01*
X125277380Y-121054761D02*
X125372619Y-121102380D01*
X125563095Y-121102380D01*
X125658333Y-121054761D01*
X125705952Y-120959523D01*
X125705952Y-120911904D01*
X125658333Y-120816666D01*
X125563095Y-120769047D01*
X125420238Y-120769047D01*
X125324999Y-120721428D01*
X125277380Y-120626190D01*
X125277380Y-120578571D01*
X125324999Y-120483333D01*
X125420238Y-120435714D01*
X125563095Y-120435714D01*
X125658333Y-120483333D01*
X126086904Y-121054761D02*
X126182142Y-121102380D01*
X126372619Y-121102380D01*
X126467857Y-121054761D01*
X126515476Y-120959523D01*
X126515476Y-120911904D01*
X126467857Y-120816666D01*
X126372619Y-120769047D01*
X126229761Y-120769047D01*
X126134523Y-120721428D01*
X126086904Y-120626190D01*
X126086904Y-120578571D01*
X126134523Y-120483333D01*
X126229761Y-120435714D01*
X126372619Y-120435714D01*
X126467857Y-120483333D01*
X139549285Y-120578571D02*
X139692142Y-120626190D01*
X139739761Y-120673809D01*
X139787380Y-120769047D01*
X139787380Y-120911904D01*
X139739761Y-121007142D01*
X139692142Y-121054761D01*
X139596904Y-121102380D01*
X139215952Y-121102380D01*
X139215952Y-120102380D01*
X139549285Y-120102380D01*
X139644523Y-120150000D01*
X139692142Y-120197619D01*
X139739761Y-120292857D01*
X139739761Y-120388095D01*
X139692142Y-120483333D01*
X139644523Y-120530952D01*
X139549285Y-120578571D01*
X139215952Y-120578571D01*
X140644523Y-120435714D02*
X140644523Y-121102380D01*
X140215952Y-120435714D02*
X140215952Y-120959523D01*
X140263571Y-121054761D01*
X140358809Y-121102380D01*
X140501666Y-121102380D01*
X140596904Y-121054761D01*
X140644523Y-121007142D01*
X141073095Y-121054761D02*
X141168333Y-121102380D01*
X141358809Y-121102380D01*
X141454047Y-121054761D01*
X141501666Y-120959523D01*
X141501666Y-120911904D01*
X141454047Y-120816666D01*
X141358809Y-120769047D01*
X141215952Y-120769047D01*
X141120714Y-120721428D01*
X141073095Y-120626190D01*
X141073095Y-120578571D01*
X141120714Y-120483333D01*
X141215952Y-120435714D01*
X141358809Y-120435714D01*
X141454047Y-120483333D01*
X184206380Y-115990666D02*
X183730190Y-116324000D01*
X184206380Y-116562095D02*
X183206380Y-116562095D01*
X183206380Y-116181142D01*
X183254000Y-116085904D01*
X183301619Y-116038285D01*
X183396857Y-115990666D01*
X183539714Y-115990666D01*
X183634952Y-116038285D01*
X183682571Y-116085904D01*
X183730190Y-116181142D01*
X183730190Y-116562095D01*
X184206380Y-115038285D02*
X184206380Y-115609714D01*
X184206380Y-115324000D02*
X183206380Y-115324000D01*
X183349238Y-115419238D01*
X183444476Y-115514476D01*
X183492095Y-115609714D01*
X184206380Y-108370666D02*
X183730190Y-108704000D01*
X184206380Y-108942095D02*
X183206380Y-108942095D01*
X183206380Y-108561142D01*
X183254000Y-108465904D01*
X183301619Y-108418285D01*
X183396857Y-108370666D01*
X183539714Y-108370666D01*
X183634952Y-108418285D01*
X183682571Y-108465904D01*
X183730190Y-108561142D01*
X183730190Y-108942095D01*
X183301619Y-107989714D02*
X183254000Y-107942095D01*
X183206380Y-107846857D01*
X183206380Y-107608761D01*
X183254000Y-107513523D01*
X183301619Y-107465904D01*
X183396857Y-107418285D01*
X183492095Y-107418285D01*
X183634952Y-107465904D01*
X184206380Y-108037333D01*
X184206380Y-107418285D01*
X184206380Y-100750666D02*
X183730190Y-101084000D01*
X184206380Y-101322095D02*
X183206380Y-101322095D01*
X183206380Y-100941142D01*
X183254000Y-100845904D01*
X183301619Y-100798285D01*
X183396857Y-100750666D01*
X183539714Y-100750666D01*
X183634952Y-100798285D01*
X183682571Y-100845904D01*
X183730190Y-100941142D01*
X183730190Y-101322095D01*
X183206380Y-100417333D02*
X183206380Y-99798285D01*
X183587333Y-100131619D01*
X183587333Y-99988761D01*
X183634952Y-99893523D01*
X183682571Y-99845904D01*
X183777809Y-99798285D01*
X184015904Y-99798285D01*
X184111142Y-99845904D01*
X184158761Y-99893523D01*
X184206380Y-99988761D01*
X184206380Y-100274476D01*
X184158761Y-100369714D01*
X184111142Y-100417333D01*
X184206380Y-93130666D02*
X183730190Y-93464000D01*
X184206380Y-93702095D02*
X183206380Y-93702095D01*
X183206380Y-93321142D01*
X183254000Y-93225904D01*
X183301619Y-93178285D01*
X183396857Y-93130666D01*
X183539714Y-93130666D01*
X183634952Y-93178285D01*
X183682571Y-93225904D01*
X183730190Y-93321142D01*
X183730190Y-93702095D01*
X183539714Y-92273523D02*
X184206380Y-92273523D01*
X183158761Y-92511619D02*
X183873047Y-92749714D01*
X183873047Y-92130666D01*
X184206380Y-85510666D02*
X183730190Y-85844000D01*
X184206380Y-86082095D02*
X183206380Y-86082095D01*
X183206380Y-85701142D01*
X183254000Y-85605904D01*
X183301619Y-85558285D01*
X183396857Y-85510666D01*
X183539714Y-85510666D01*
X183634952Y-85558285D01*
X183682571Y-85605904D01*
X183730190Y-85701142D01*
X183730190Y-86082095D01*
X183206380Y-84605904D02*
X183206380Y-85082095D01*
X183682571Y-85129714D01*
X183634952Y-85082095D01*
X183587333Y-84986857D01*
X183587333Y-84748761D01*
X183634952Y-84653523D01*
X183682571Y-84605904D01*
X183777809Y-84558285D01*
X184015904Y-84558285D01*
X184111142Y-84605904D01*
X184158761Y-84653523D01*
X184206380Y-84748761D01*
X184206380Y-84986857D01*
X184158761Y-85082095D01*
X184111142Y-85129714D01*
X184206380Y-77890666D02*
X183730190Y-78224000D01*
X184206380Y-78462095D02*
X183206380Y-78462095D01*
X183206380Y-78081142D01*
X183254000Y-77985904D01*
X183301619Y-77938285D01*
X183396857Y-77890666D01*
X183539714Y-77890666D01*
X183634952Y-77938285D01*
X183682571Y-77985904D01*
X183730190Y-78081142D01*
X183730190Y-78462095D01*
X183206380Y-77033523D02*
X183206380Y-77224000D01*
X183254000Y-77319238D01*
X183301619Y-77366857D01*
X183444476Y-77462095D01*
X183634952Y-77509714D01*
X184015904Y-77509714D01*
X184111142Y-77462095D01*
X184158761Y-77414476D01*
X184206380Y-77319238D01*
X184206380Y-77128761D01*
X184158761Y-77033523D01*
X184111142Y-76985904D01*
X184015904Y-76938285D01*
X183777809Y-76938285D01*
X183682571Y-76985904D01*
X183634952Y-77033523D01*
X183587333Y-77128761D01*
X183587333Y-77319238D01*
X183634952Y-77414476D01*
X183682571Y-77462095D01*
X183777809Y-77509714D01*
X184206380Y-70270666D02*
X183730190Y-70604000D01*
X184206380Y-70842095D02*
X183206380Y-70842095D01*
X183206380Y-70461142D01*
X183254000Y-70365904D01*
X183301619Y-70318285D01*
X183396857Y-70270666D01*
X183539714Y-70270666D01*
X183634952Y-70318285D01*
X183682571Y-70365904D01*
X183730190Y-70461142D01*
X183730190Y-70842095D01*
X183206380Y-69937333D02*
X183206380Y-69270666D01*
X184206380Y-69699238D01*
X184206380Y-62650666D02*
X183730190Y-62984000D01*
X184206380Y-63222095D02*
X183206380Y-63222095D01*
X183206380Y-62841142D01*
X183254000Y-62745904D01*
X183301619Y-62698285D01*
X183396857Y-62650666D01*
X183539714Y-62650666D01*
X183634952Y-62698285D01*
X183682571Y-62745904D01*
X183730190Y-62841142D01*
X183730190Y-63222095D01*
X183634952Y-62079238D02*
X183587333Y-62174476D01*
X183539714Y-62222095D01*
X183444476Y-62269714D01*
X183396857Y-62269714D01*
X183301619Y-62222095D01*
X183254000Y-62174476D01*
X183206380Y-62079238D01*
X183206380Y-61888761D01*
X183254000Y-61793523D01*
X183301619Y-61745904D01*
X183396857Y-61698285D01*
X183444476Y-61698285D01*
X183539714Y-61745904D01*
X183587333Y-61793523D01*
X183634952Y-61888761D01*
X183634952Y-62079238D01*
X183682571Y-62174476D01*
X183730190Y-62222095D01*
X183825428Y-62269714D01*
X184015904Y-62269714D01*
X184111142Y-62222095D01*
X184158761Y-62174476D01*
X184206380Y-62079238D01*
X184206380Y-61888761D01*
X184158761Y-61793523D01*
X184111142Y-61745904D01*
X184015904Y-61698285D01*
X183825428Y-61698285D01*
X183730190Y-61745904D01*
X183682571Y-61793523D01*
X183634952Y-61888761D01*
X178903333Y-121976380D02*
X178570000Y-121500190D01*
X178331904Y-121976380D02*
X178331904Y-120976380D01*
X178712857Y-120976380D01*
X178808095Y-121024000D01*
X178855714Y-121071619D01*
X178903333Y-121166857D01*
X178903333Y-121309714D01*
X178855714Y-121404952D01*
X178808095Y-121452571D01*
X178712857Y-121500190D01*
X178331904Y-121500190D01*
X179379523Y-121976380D02*
X179570000Y-121976380D01*
X179665238Y-121928761D01*
X179712857Y-121881142D01*
X179808095Y-121738285D01*
X179855714Y-121547809D01*
X179855714Y-121166857D01*
X179808095Y-121071619D01*
X179760476Y-121024000D01*
X179665238Y-120976380D01*
X179474761Y-120976380D01*
X179379523Y-121024000D01*
X179331904Y-121071619D01*
X179284285Y-121166857D01*
X179284285Y-121404952D01*
X179331904Y-121500190D01*
X179379523Y-121547809D01*
X179474761Y-121595428D01*
X179665238Y-121595428D01*
X179760476Y-121547809D01*
X179808095Y-121500190D01*
X179855714Y-121404952D01*
X173620666Y-59618761D02*
X173763523Y-59666380D01*
X174001619Y-59666380D01*
X174096857Y-59618761D01*
X174144476Y-59571142D01*
X174192095Y-59475904D01*
X174192095Y-59380666D01*
X174144476Y-59285428D01*
X174096857Y-59237809D01*
X174001619Y-59190190D01*
X173811142Y-59142571D01*
X173715904Y-59094952D01*
X173668285Y-59047333D01*
X173620666Y-58952095D01*
X173620666Y-58856857D01*
X173668285Y-58761619D01*
X173715904Y-58714000D01*
X173811142Y-58666380D01*
X174049238Y-58666380D01*
X174192095Y-58714000D01*
X174525428Y-58666380D02*
X174763523Y-59666380D01*
X174954000Y-58952095D01*
X175144476Y-59666380D01*
X175382571Y-58666380D01*
X176287333Y-59666380D02*
X175715904Y-59666380D01*
X176001619Y-59666380D02*
X176001619Y-58666380D01*
X175906380Y-58809238D01*
X175811142Y-58904476D01*
X175715904Y-58952095D01*
X174180666Y-94248761D02*
X174323523Y-94296380D01*
X174561619Y-94296380D01*
X174656857Y-94248761D01*
X174704476Y-94201142D01*
X174752095Y-94105904D01*
X174752095Y-94010666D01*
X174704476Y-93915428D01*
X174656857Y-93867809D01*
X174561619Y-93820190D01*
X174371142Y-93772571D01*
X174275904Y-93724952D01*
X174228285Y-93677333D01*
X174180666Y-93582095D01*
X174180666Y-93486857D01*
X174228285Y-93391619D01*
X174275904Y-93344000D01*
X174371142Y-93296380D01*
X174609238Y-93296380D01*
X174752095Y-93344000D01*
X175085428Y-93296380D02*
X175323523Y-94296380D01*
X175514000Y-93582095D01*
X175704476Y-94296380D01*
X175942571Y-93296380D01*
X176275904Y-93391619D02*
X176323523Y-93344000D01*
X176418761Y-93296380D01*
X176656857Y-93296380D01*
X176752095Y-93344000D01*
X176799714Y-93391619D01*
X176847333Y-93486857D01*
X176847333Y-93582095D01*
X176799714Y-93724952D01*
X176228285Y-94296380D01*
X176847333Y-94296380D01*
D11*
X147936857Y-51344285D02*
X148323904Y-51344285D01*
X148130380Y-51537809D02*
X148130380Y-51150761D01*
X148807714Y-51029809D02*
X148565809Y-51029809D01*
X148541619Y-51271714D01*
X148565809Y-51247523D01*
X148614190Y-51223333D01*
X148735142Y-51223333D01*
X148783523Y-51247523D01*
X148807714Y-51271714D01*
X148831904Y-51320095D01*
X148831904Y-51441047D01*
X148807714Y-51489428D01*
X148783523Y-51513619D01*
X148735142Y-51537809D01*
X148614190Y-51537809D01*
X148565809Y-51513619D01*
X148541619Y-51489428D01*
X148977047Y-51029809D02*
X149146380Y-51537809D01*
X149315714Y-51029809D01*
X169151904Y-50810160D02*
X169659904Y-50810160D01*
X169563142Y-51537809D02*
X169393809Y-51295904D01*
X169272857Y-51537809D02*
X169272857Y-51029809D01*
X169466380Y-51029809D01*
X169514761Y-51054000D01*
X169538952Y-51078190D01*
X169563142Y-51126571D01*
X169563142Y-51199142D01*
X169538952Y-51247523D01*
X169514761Y-51271714D01*
X169466380Y-51295904D01*
X169272857Y-51295904D01*
X169659904Y-50810160D02*
X170192095Y-50810160D01*
X169877619Y-51029809D02*
X169974380Y-51029809D01*
X170022761Y-51054000D01*
X170071142Y-51102380D01*
X170095333Y-51199142D01*
X170095333Y-51368476D01*
X170071142Y-51465238D01*
X170022761Y-51513619D01*
X169974380Y-51537809D01*
X169877619Y-51537809D01*
X169829238Y-51513619D01*
X169780857Y-51465238D01*
X169756666Y-51368476D01*
X169756666Y-51199142D01*
X169780857Y-51102380D01*
X169829238Y-51054000D01*
X169877619Y-51029809D01*
X151504952Y-51054000D02*
X151456571Y-51029809D01*
X151384000Y-51029809D01*
X151311428Y-51054000D01*
X151263047Y-51102380D01*
X151238857Y-51150761D01*
X151214666Y-51247523D01*
X151214666Y-51320095D01*
X151238857Y-51416857D01*
X151263047Y-51465238D01*
X151311428Y-51513619D01*
X151384000Y-51537809D01*
X151432380Y-51537809D01*
X151504952Y-51513619D01*
X151529142Y-51489428D01*
X151529142Y-51320095D01*
X151432380Y-51320095D01*
X151746857Y-51537809D02*
X151746857Y-51029809D01*
X152037142Y-51537809D01*
X152037142Y-51029809D01*
X152279047Y-51537809D02*
X152279047Y-51029809D01*
X152400000Y-51029809D01*
X152472571Y-51054000D01*
X152520952Y-51102380D01*
X152545142Y-51150761D01*
X152569333Y-51247523D01*
X152569333Y-51320095D01*
X152545142Y-51416857D01*
X152520952Y-51465238D01*
X152472571Y-51513619D01*
X152400000Y-51537809D01*
X152279047Y-51537809D01*
X164797619Y-51392666D02*
X165039523Y-51392666D01*
X164749238Y-51537809D02*
X164918571Y-51029809D01*
X165087904Y-51537809D01*
X165136285Y-51586190D02*
X165523333Y-51586190D01*
X165595904Y-51029809D02*
X165910380Y-51029809D01*
X165741047Y-51223333D01*
X165813619Y-51223333D01*
X165862000Y-51247523D01*
X165886190Y-51271714D01*
X165910380Y-51320095D01*
X165910380Y-51441047D01*
X165886190Y-51489428D01*
X165862000Y-51513619D01*
X165813619Y-51537809D01*
X165668476Y-51537809D01*
X165620095Y-51513619D01*
X165595904Y-51489428D01*
X161749619Y-51392666D02*
X161991523Y-51392666D01*
X161701238Y-51537809D02*
X161870571Y-51029809D01*
X162039904Y-51537809D01*
X162088285Y-51586190D02*
X162475333Y-51586190D01*
X162572095Y-51078190D02*
X162596285Y-51054000D01*
X162644666Y-51029809D01*
X162765619Y-51029809D01*
X162814000Y-51054000D01*
X162838190Y-51078190D01*
X162862380Y-51126571D01*
X162862380Y-51174952D01*
X162838190Y-51247523D01*
X162547904Y-51537809D01*
X162862380Y-51537809D01*
X158701619Y-51392666D02*
X158943523Y-51392666D01*
X158653238Y-51537809D02*
X158822571Y-51029809D01*
X158991904Y-51537809D01*
X159040285Y-51586190D02*
X159427333Y-51586190D01*
X159814380Y-51537809D02*
X159524095Y-51537809D01*
X159669238Y-51537809D02*
X159669238Y-51029809D01*
X159620857Y-51102380D01*
X159572476Y-51150761D01*
X159524095Y-51174952D01*
X178852285Y-51537809D02*
X178682952Y-51295904D01*
X178562000Y-51537809D02*
X178562000Y-51029809D01*
X178755523Y-51029809D01*
X178803904Y-51054000D01*
X178828095Y-51078190D01*
X178852285Y-51126571D01*
X178852285Y-51199142D01*
X178828095Y-51247523D01*
X178803904Y-51271714D01*
X178755523Y-51295904D01*
X178562000Y-51295904D01*
X179070000Y-51537809D02*
X179070000Y-51029809D01*
X155653619Y-51392666D02*
X155895523Y-51392666D01*
X155605238Y-51537809D02*
X155774571Y-51029809D01*
X155943904Y-51537809D01*
X155992285Y-51586190D02*
X156379333Y-51586190D01*
X156597047Y-51029809D02*
X156645428Y-51029809D01*
X156693809Y-51054000D01*
X156718000Y-51078190D01*
X156742190Y-51126571D01*
X156766380Y-51223333D01*
X156766380Y-51344285D01*
X156742190Y-51441047D01*
X156718000Y-51489428D01*
X156693809Y-51513619D01*
X156645428Y-51537809D01*
X156597047Y-51537809D01*
X156548666Y-51513619D01*
X156524476Y-51489428D01*
X156500285Y-51441047D01*
X156476095Y-51344285D01*
X156476095Y-51223333D01*
X156500285Y-51126571D01*
X156524476Y-51078190D01*
X156548666Y-51054000D01*
X156597047Y-51029809D01*
X175465619Y-51489428D02*
X175441428Y-51513619D01*
X175368857Y-51537809D01*
X175320476Y-51537809D01*
X175247904Y-51513619D01*
X175199523Y-51465238D01*
X175175333Y-51416857D01*
X175151142Y-51320095D01*
X175151142Y-51247523D01*
X175175333Y-51150761D01*
X175199523Y-51102380D01*
X175247904Y-51054000D01*
X175320476Y-51029809D01*
X175368857Y-51029809D01*
X175441428Y-51054000D01*
X175465619Y-51078190D01*
X175925238Y-51537809D02*
X175683333Y-51537809D01*
X175683333Y-51029809D01*
X176094571Y-51537809D02*
X176094571Y-51029809D01*
X176384857Y-51537809D02*
X176167142Y-51247523D01*
X176384857Y-51029809D02*
X176094571Y-51320095D01*
X171812857Y-51537809D02*
X171812857Y-51029809D01*
X172006380Y-51029809D01*
X172054761Y-51054000D01*
X172078952Y-51078190D01*
X172103142Y-51126571D01*
X172103142Y-51199142D01*
X172078952Y-51247523D01*
X172054761Y-51271714D01*
X172006380Y-51295904D01*
X171812857Y-51295904D01*
X172611142Y-51537809D02*
X172441809Y-51295904D01*
X172320857Y-51537809D02*
X172320857Y-51029809D01*
X172514380Y-51029809D01*
X172562761Y-51054000D01*
X172586952Y-51078190D01*
X172611142Y-51126571D01*
X172611142Y-51199142D01*
X172586952Y-51247523D01*
X172562761Y-51271714D01*
X172514380Y-51295904D01*
X172320857Y-51295904D01*
X172925619Y-51029809D02*
X173022380Y-51029809D01*
X173070761Y-51054000D01*
X173119142Y-51102380D01*
X173143333Y-51199142D01*
X173143333Y-51368476D01*
X173119142Y-51465238D01*
X173070761Y-51513619D01*
X173022380Y-51537809D01*
X172925619Y-51537809D01*
X172877238Y-51513619D01*
X172828857Y-51465238D01*
X172804666Y-51368476D01*
X172804666Y-51199142D01*
X172828857Y-51102380D01*
X172877238Y-51054000D01*
X172925619Y-51029809D01*
X173627142Y-51054000D02*
X173578761Y-51029809D01*
X173506190Y-51029809D01*
X173433619Y-51054000D01*
X173385238Y-51102380D01*
X173361047Y-51150761D01*
X173336857Y-51247523D01*
X173336857Y-51320095D01*
X173361047Y-51416857D01*
X173385238Y-51465238D01*
X173433619Y-51513619D01*
X173506190Y-51537809D01*
X173554571Y-51537809D01*
X173627142Y-51513619D01*
X173651333Y-51489428D01*
X173651333Y-51320095D01*
X173554571Y-51320095D01*
X122282857Y-51271714D02*
X122355428Y-51295904D01*
X122379619Y-51320095D01*
X122403809Y-51368476D01*
X122403809Y-51441047D01*
X122379619Y-51489428D01*
X122355428Y-51513619D01*
X122307047Y-51537809D01*
X122113523Y-51537809D01*
X122113523Y-51029809D01*
X122282857Y-51029809D01*
X122331238Y-51054000D01*
X122355428Y-51078190D01*
X122379619Y-51126571D01*
X122379619Y-51174952D01*
X122355428Y-51223333D01*
X122331238Y-51247523D01*
X122282857Y-51271714D01*
X122113523Y-51271714D01*
X122621523Y-51029809D02*
X122621523Y-51441047D01*
X122645714Y-51489428D01*
X122669904Y-51513619D01*
X122718285Y-51537809D01*
X122815047Y-51537809D01*
X122863428Y-51513619D01*
X122887619Y-51489428D01*
X122911809Y-51441047D01*
X122911809Y-51029809D01*
X123129523Y-51513619D02*
X123202095Y-51537809D01*
X123323047Y-51537809D01*
X123371428Y-51513619D01*
X123395619Y-51489428D01*
X123419809Y-51441047D01*
X123419809Y-51392666D01*
X123395619Y-51344285D01*
X123371428Y-51320095D01*
X123323047Y-51295904D01*
X123226285Y-51271714D01*
X123177904Y-51247523D01*
X123153714Y-51223333D01*
X123129523Y-51174952D01*
X123129523Y-51126571D01*
X123153714Y-51078190D01*
X123177904Y-51054000D01*
X123226285Y-51029809D01*
X123347238Y-51029809D01*
X123419809Y-51054000D01*
X123516571Y-51586190D02*
X123903619Y-51586190D01*
X123976190Y-51029809D02*
X124314857Y-51029809D01*
X124097142Y-51537809D01*
X125330857Y-51271714D02*
X125403428Y-51295904D01*
X125427619Y-51320095D01*
X125451809Y-51368476D01*
X125451809Y-51441047D01*
X125427619Y-51489428D01*
X125403428Y-51513619D01*
X125355047Y-51537809D01*
X125161523Y-51537809D01*
X125161523Y-51029809D01*
X125330857Y-51029809D01*
X125379238Y-51054000D01*
X125403428Y-51078190D01*
X125427619Y-51126571D01*
X125427619Y-51174952D01*
X125403428Y-51223333D01*
X125379238Y-51247523D01*
X125330857Y-51271714D01*
X125161523Y-51271714D01*
X125669523Y-51029809D02*
X125669523Y-51441047D01*
X125693714Y-51489428D01*
X125717904Y-51513619D01*
X125766285Y-51537809D01*
X125863047Y-51537809D01*
X125911428Y-51513619D01*
X125935619Y-51489428D01*
X125959809Y-51441047D01*
X125959809Y-51029809D01*
X126177523Y-51513619D02*
X126250095Y-51537809D01*
X126371047Y-51537809D01*
X126419428Y-51513619D01*
X126443619Y-51489428D01*
X126467809Y-51441047D01*
X126467809Y-51392666D01*
X126443619Y-51344285D01*
X126419428Y-51320095D01*
X126371047Y-51295904D01*
X126274285Y-51271714D01*
X126225904Y-51247523D01*
X126201714Y-51223333D01*
X126177523Y-51174952D01*
X126177523Y-51126571D01*
X126201714Y-51078190D01*
X126225904Y-51054000D01*
X126274285Y-51029809D01*
X126395238Y-51029809D01*
X126467809Y-51054000D01*
X126564571Y-51586190D02*
X126951619Y-51586190D01*
X127290285Y-51029809D02*
X127193523Y-51029809D01*
X127145142Y-51054000D01*
X127120952Y-51078190D01*
X127072571Y-51150761D01*
X127048380Y-51247523D01*
X127048380Y-51441047D01*
X127072571Y-51489428D01*
X127096761Y-51513619D01*
X127145142Y-51537809D01*
X127241904Y-51537809D01*
X127290285Y-51513619D01*
X127314476Y-51489428D01*
X127338666Y-51441047D01*
X127338666Y-51320095D01*
X127314476Y-51271714D01*
X127290285Y-51247523D01*
X127241904Y-51223333D01*
X127145142Y-51223333D01*
X127096761Y-51247523D01*
X127072571Y-51271714D01*
X127048380Y-51320095D01*
X128378857Y-51271714D02*
X128451428Y-51295904D01*
X128475619Y-51320095D01*
X128499809Y-51368476D01*
X128499809Y-51441047D01*
X128475619Y-51489428D01*
X128451428Y-51513619D01*
X128403047Y-51537809D01*
X128209523Y-51537809D01*
X128209523Y-51029809D01*
X128378857Y-51029809D01*
X128427238Y-51054000D01*
X128451428Y-51078190D01*
X128475619Y-51126571D01*
X128475619Y-51174952D01*
X128451428Y-51223333D01*
X128427238Y-51247523D01*
X128378857Y-51271714D01*
X128209523Y-51271714D01*
X128717523Y-51029809D02*
X128717523Y-51441047D01*
X128741714Y-51489428D01*
X128765904Y-51513619D01*
X128814285Y-51537809D01*
X128911047Y-51537809D01*
X128959428Y-51513619D01*
X128983619Y-51489428D01*
X129007809Y-51441047D01*
X129007809Y-51029809D01*
X129225523Y-51513619D02*
X129298095Y-51537809D01*
X129419047Y-51537809D01*
X129467428Y-51513619D01*
X129491619Y-51489428D01*
X129515809Y-51441047D01*
X129515809Y-51392666D01*
X129491619Y-51344285D01*
X129467428Y-51320095D01*
X129419047Y-51295904D01*
X129322285Y-51271714D01*
X129273904Y-51247523D01*
X129249714Y-51223333D01*
X129225523Y-51174952D01*
X129225523Y-51126571D01*
X129249714Y-51078190D01*
X129273904Y-51054000D01*
X129322285Y-51029809D01*
X129443238Y-51029809D01*
X129515809Y-51054000D01*
X129612571Y-51586190D02*
X129999619Y-51586190D01*
X130362476Y-51029809D02*
X130120571Y-51029809D01*
X130096380Y-51271714D01*
X130120571Y-51247523D01*
X130168952Y-51223333D01*
X130289904Y-51223333D01*
X130338285Y-51247523D01*
X130362476Y-51271714D01*
X130386666Y-51320095D01*
X130386666Y-51441047D01*
X130362476Y-51489428D01*
X130338285Y-51513619D01*
X130289904Y-51537809D01*
X130168952Y-51537809D01*
X130120571Y-51513619D01*
X130096380Y-51489428D01*
X131426857Y-51271714D02*
X131499428Y-51295904D01*
X131523619Y-51320095D01*
X131547809Y-51368476D01*
X131547809Y-51441047D01*
X131523619Y-51489428D01*
X131499428Y-51513619D01*
X131451047Y-51537809D01*
X131257523Y-51537809D01*
X131257523Y-51029809D01*
X131426857Y-51029809D01*
X131475238Y-51054000D01*
X131499428Y-51078190D01*
X131523619Y-51126571D01*
X131523619Y-51174952D01*
X131499428Y-51223333D01*
X131475238Y-51247523D01*
X131426857Y-51271714D01*
X131257523Y-51271714D01*
X131765523Y-51029809D02*
X131765523Y-51441047D01*
X131789714Y-51489428D01*
X131813904Y-51513619D01*
X131862285Y-51537809D01*
X131959047Y-51537809D01*
X132007428Y-51513619D01*
X132031619Y-51489428D01*
X132055809Y-51441047D01*
X132055809Y-51029809D01*
X132273523Y-51513619D02*
X132346095Y-51537809D01*
X132467047Y-51537809D01*
X132515428Y-51513619D01*
X132539619Y-51489428D01*
X132563809Y-51441047D01*
X132563809Y-51392666D01*
X132539619Y-51344285D01*
X132515428Y-51320095D01*
X132467047Y-51295904D01*
X132370285Y-51271714D01*
X132321904Y-51247523D01*
X132297714Y-51223333D01*
X132273523Y-51174952D01*
X132273523Y-51126571D01*
X132297714Y-51078190D01*
X132321904Y-51054000D01*
X132370285Y-51029809D01*
X132491238Y-51029809D01*
X132563809Y-51054000D01*
X132660571Y-51586190D02*
X133047619Y-51586190D01*
X133386285Y-51199142D02*
X133386285Y-51537809D01*
X133265333Y-51005619D02*
X133144380Y-51368476D01*
X133458857Y-51368476D01*
X134474857Y-51271714D02*
X134547428Y-51295904D01*
X134571619Y-51320095D01*
X134595809Y-51368476D01*
X134595809Y-51441047D01*
X134571619Y-51489428D01*
X134547428Y-51513619D01*
X134499047Y-51537809D01*
X134305523Y-51537809D01*
X134305523Y-51029809D01*
X134474857Y-51029809D01*
X134523238Y-51054000D01*
X134547428Y-51078190D01*
X134571619Y-51126571D01*
X134571619Y-51174952D01*
X134547428Y-51223333D01*
X134523238Y-51247523D01*
X134474857Y-51271714D01*
X134305523Y-51271714D01*
X134813523Y-51029809D02*
X134813523Y-51441047D01*
X134837714Y-51489428D01*
X134861904Y-51513619D01*
X134910285Y-51537809D01*
X135007047Y-51537809D01*
X135055428Y-51513619D01*
X135079619Y-51489428D01*
X135103809Y-51441047D01*
X135103809Y-51029809D01*
X135321523Y-51513619D02*
X135394095Y-51537809D01*
X135515047Y-51537809D01*
X135563428Y-51513619D01*
X135587619Y-51489428D01*
X135611809Y-51441047D01*
X135611809Y-51392666D01*
X135587619Y-51344285D01*
X135563428Y-51320095D01*
X135515047Y-51295904D01*
X135418285Y-51271714D01*
X135369904Y-51247523D01*
X135345714Y-51223333D01*
X135321523Y-51174952D01*
X135321523Y-51126571D01*
X135345714Y-51078190D01*
X135369904Y-51054000D01*
X135418285Y-51029809D01*
X135539238Y-51029809D01*
X135611809Y-51054000D01*
X135708571Y-51586190D02*
X136095619Y-51586190D01*
X136168190Y-51029809D02*
X136482666Y-51029809D01*
X136313333Y-51223333D01*
X136385904Y-51223333D01*
X136434285Y-51247523D01*
X136458476Y-51271714D01*
X136482666Y-51320095D01*
X136482666Y-51441047D01*
X136458476Y-51489428D01*
X136434285Y-51513619D01*
X136385904Y-51537809D01*
X136240761Y-51537809D01*
X136192380Y-51513619D01*
X136168190Y-51489428D01*
X137522857Y-51271714D02*
X137595428Y-51295904D01*
X137619619Y-51320095D01*
X137643809Y-51368476D01*
X137643809Y-51441047D01*
X137619619Y-51489428D01*
X137595428Y-51513619D01*
X137547047Y-51537809D01*
X137353523Y-51537809D01*
X137353523Y-51029809D01*
X137522857Y-51029809D01*
X137571238Y-51054000D01*
X137595428Y-51078190D01*
X137619619Y-51126571D01*
X137619619Y-51174952D01*
X137595428Y-51223333D01*
X137571238Y-51247523D01*
X137522857Y-51271714D01*
X137353523Y-51271714D01*
X137861523Y-51029809D02*
X137861523Y-51441047D01*
X137885714Y-51489428D01*
X137909904Y-51513619D01*
X137958285Y-51537809D01*
X138055047Y-51537809D01*
X138103428Y-51513619D01*
X138127619Y-51489428D01*
X138151809Y-51441047D01*
X138151809Y-51029809D01*
X138369523Y-51513619D02*
X138442095Y-51537809D01*
X138563047Y-51537809D01*
X138611428Y-51513619D01*
X138635619Y-51489428D01*
X138659809Y-51441047D01*
X138659809Y-51392666D01*
X138635619Y-51344285D01*
X138611428Y-51320095D01*
X138563047Y-51295904D01*
X138466285Y-51271714D01*
X138417904Y-51247523D01*
X138393714Y-51223333D01*
X138369523Y-51174952D01*
X138369523Y-51126571D01*
X138393714Y-51078190D01*
X138417904Y-51054000D01*
X138466285Y-51029809D01*
X138587238Y-51029809D01*
X138659809Y-51054000D01*
X138756571Y-51586190D02*
X139143619Y-51586190D01*
X139240380Y-51078190D02*
X139264571Y-51054000D01*
X139312952Y-51029809D01*
X139433904Y-51029809D01*
X139482285Y-51054000D01*
X139506476Y-51078190D01*
X139530666Y-51126571D01*
X139530666Y-51174952D01*
X139506476Y-51247523D01*
X139216190Y-51537809D01*
X139530666Y-51537809D01*
X140570857Y-51271714D02*
X140643428Y-51295904D01*
X140667619Y-51320095D01*
X140691809Y-51368476D01*
X140691809Y-51441047D01*
X140667619Y-51489428D01*
X140643428Y-51513619D01*
X140595047Y-51537809D01*
X140401523Y-51537809D01*
X140401523Y-51029809D01*
X140570857Y-51029809D01*
X140619238Y-51054000D01*
X140643428Y-51078190D01*
X140667619Y-51126571D01*
X140667619Y-51174952D01*
X140643428Y-51223333D01*
X140619238Y-51247523D01*
X140570857Y-51271714D01*
X140401523Y-51271714D01*
X140909523Y-51029809D02*
X140909523Y-51441047D01*
X140933714Y-51489428D01*
X140957904Y-51513619D01*
X141006285Y-51537809D01*
X141103047Y-51537809D01*
X141151428Y-51513619D01*
X141175619Y-51489428D01*
X141199809Y-51441047D01*
X141199809Y-51029809D01*
X141417523Y-51513619D02*
X141490095Y-51537809D01*
X141611047Y-51537809D01*
X141659428Y-51513619D01*
X141683619Y-51489428D01*
X141707809Y-51441047D01*
X141707809Y-51392666D01*
X141683619Y-51344285D01*
X141659428Y-51320095D01*
X141611047Y-51295904D01*
X141514285Y-51271714D01*
X141465904Y-51247523D01*
X141441714Y-51223333D01*
X141417523Y-51174952D01*
X141417523Y-51126571D01*
X141441714Y-51078190D01*
X141465904Y-51054000D01*
X141514285Y-51029809D01*
X141635238Y-51029809D01*
X141707809Y-51054000D01*
X141804571Y-51586190D02*
X142191619Y-51586190D01*
X142578666Y-51537809D02*
X142288380Y-51537809D01*
X142433523Y-51537809D02*
X142433523Y-51029809D01*
X142385142Y-51102380D01*
X142336761Y-51150761D01*
X142288380Y-51174952D01*
X143618857Y-51271714D02*
X143691428Y-51295904D01*
X143715619Y-51320095D01*
X143739809Y-51368476D01*
X143739809Y-51441047D01*
X143715619Y-51489428D01*
X143691428Y-51513619D01*
X143643047Y-51537809D01*
X143449523Y-51537809D01*
X143449523Y-51029809D01*
X143618857Y-51029809D01*
X143667238Y-51054000D01*
X143691428Y-51078190D01*
X143715619Y-51126571D01*
X143715619Y-51174952D01*
X143691428Y-51223333D01*
X143667238Y-51247523D01*
X143618857Y-51271714D01*
X143449523Y-51271714D01*
X143957523Y-51029809D02*
X143957523Y-51441047D01*
X143981714Y-51489428D01*
X144005904Y-51513619D01*
X144054285Y-51537809D01*
X144151047Y-51537809D01*
X144199428Y-51513619D01*
X144223619Y-51489428D01*
X144247809Y-51441047D01*
X144247809Y-51029809D01*
X144465523Y-51513619D02*
X144538095Y-51537809D01*
X144659047Y-51537809D01*
X144707428Y-51513619D01*
X144731619Y-51489428D01*
X144755809Y-51441047D01*
X144755809Y-51392666D01*
X144731619Y-51344285D01*
X144707428Y-51320095D01*
X144659047Y-51295904D01*
X144562285Y-51271714D01*
X144513904Y-51247523D01*
X144489714Y-51223333D01*
X144465523Y-51174952D01*
X144465523Y-51126571D01*
X144489714Y-51078190D01*
X144513904Y-51054000D01*
X144562285Y-51029809D01*
X144683238Y-51029809D01*
X144755809Y-51054000D01*
X144852571Y-51586190D02*
X145239619Y-51586190D01*
X145457333Y-51029809D02*
X145505714Y-51029809D01*
X145554095Y-51054000D01*
X145578285Y-51078190D01*
X145602476Y-51126571D01*
X145626666Y-51223333D01*
X145626666Y-51344285D01*
X145602476Y-51441047D01*
X145578285Y-51489428D01*
X145554095Y-51513619D01*
X145505714Y-51537809D01*
X145457333Y-51537809D01*
X145408952Y-51513619D01*
X145384761Y-51489428D01*
X145360571Y-51441047D01*
X145336380Y-51344285D01*
X145336380Y-51223333D01*
X145360571Y-51126571D01*
X145384761Y-51078190D01*
X145408952Y-51054000D01*
X145457333Y-51029809D01*
D14*
X105326380Y-81025904D02*
X106135904Y-81025904D01*
X106231142Y-80978285D01*
X106278761Y-80930666D01*
X106326380Y-80835428D01*
X106326380Y-80644952D01*
X106278761Y-80549714D01*
X106231142Y-80502095D01*
X106135904Y-80454476D01*
X105326380Y-80454476D01*
X106326380Y-79454476D02*
X106326380Y-80025904D01*
X106326380Y-79740190D02*
X105326380Y-79740190D01*
X105469238Y-79835428D01*
X105564476Y-79930666D01*
X105612095Y-80025904D01*
X140886380Y-96265904D02*
X141695904Y-96265904D01*
X141791142Y-96218285D01*
X141838761Y-96170666D01*
X141886380Y-96075428D01*
X141886380Y-95884952D01*
X141838761Y-95789714D01*
X141791142Y-95742095D01*
X141695904Y-95694476D01*
X140886380Y-95694476D01*
X140981619Y-95265904D02*
X140934000Y-95218285D01*
X140886380Y-95123047D01*
X140886380Y-94884952D01*
X140934000Y-94789714D01*
X140981619Y-94742095D01*
X141076857Y-94694476D01*
X141172095Y-94694476D01*
X141314952Y-94742095D01*
X141886380Y-95313523D01*
X141886380Y-94694476D01*
X140886380Y-111505904D02*
X141695904Y-111505904D01*
X141791142Y-111458285D01*
X141838761Y-111410666D01*
X141886380Y-111315428D01*
X141886380Y-111124952D01*
X141838761Y-111029714D01*
X141791142Y-110982095D01*
X141695904Y-110934476D01*
X140886380Y-110934476D01*
X140886380Y-110553523D02*
X140886380Y-109934476D01*
X141267333Y-110267809D01*
X141267333Y-110124952D01*
X141314952Y-110029714D01*
X141362571Y-109982095D01*
X141457809Y-109934476D01*
X141695904Y-109934476D01*
X141791142Y-109982095D01*
X141838761Y-110029714D01*
X141886380Y-110124952D01*
X141886380Y-110410666D01*
X141838761Y-110505904D01*
X141791142Y-110553523D01*
X174752095Y-96436380D02*
X174752095Y-97245904D01*
X174799714Y-97341142D01*
X174847333Y-97388761D01*
X174942571Y-97436380D01*
X175133047Y-97436380D01*
X175228285Y-97388761D01*
X175275904Y-97341142D01*
X175323523Y-97245904D01*
X175323523Y-96436380D01*
X176228285Y-96769714D02*
X176228285Y-97436380D01*
X175990190Y-96388761D02*
X175752095Y-97103047D01*
X176371142Y-97103047D01*
X140886380Y-81025904D02*
X141695904Y-81025904D01*
X141791142Y-80978285D01*
X141838761Y-80930666D01*
X141886380Y-80835428D01*
X141886380Y-80644952D01*
X141838761Y-80549714D01*
X141791142Y-80502095D01*
X141695904Y-80454476D01*
X140886380Y-80454476D01*
X140886380Y-79502095D02*
X140886380Y-79978285D01*
X141362571Y-80025904D01*
X141314952Y-79978285D01*
X141267333Y-79883047D01*
X141267333Y-79644952D01*
X141314952Y-79549714D01*
X141362571Y-79502095D01*
X141457809Y-79454476D01*
X141695904Y-79454476D01*
X141791142Y-79502095D01*
X141838761Y-79549714D01*
X141886380Y-79644952D01*
X141886380Y-79883047D01*
X141838761Y-79978285D01*
X141791142Y-80025904D01*
X105326380Y-111505904D02*
X106135904Y-111505904D01*
X106231142Y-111458285D01*
X106278761Y-111410666D01*
X106326380Y-111315428D01*
X106326380Y-111124952D01*
X106278761Y-111029714D01*
X106231142Y-110982095D01*
X106135904Y-110934476D01*
X105326380Y-110934476D01*
X105326380Y-110553523D02*
X105326380Y-109886857D01*
X106326380Y-110315428D01*
X140886380Y-65785904D02*
X141695904Y-65785904D01*
X141791142Y-65738285D01*
X141838761Y-65690666D01*
X141886380Y-65595428D01*
X141886380Y-65404952D01*
X141838761Y-65309714D01*
X141791142Y-65262095D01*
X141695904Y-65214476D01*
X140886380Y-65214476D01*
X141314952Y-64595428D02*
X141267333Y-64690666D01*
X141219714Y-64738285D01*
X141124476Y-64785904D01*
X141076857Y-64785904D01*
X140981619Y-64738285D01*
X140934000Y-64690666D01*
X140886380Y-64595428D01*
X140886380Y-64404952D01*
X140934000Y-64309714D01*
X140981619Y-64262095D01*
X141076857Y-64214476D01*
X141124476Y-64214476D01*
X141219714Y-64262095D01*
X141267333Y-64309714D01*
X141314952Y-64404952D01*
X141314952Y-64595428D01*
X141362571Y-64690666D01*
X141410190Y-64738285D01*
X141505428Y-64785904D01*
X141695904Y-64785904D01*
X141791142Y-64738285D01*
X141838761Y-64690666D01*
X141886380Y-64595428D01*
X141886380Y-64404952D01*
X141838761Y-64309714D01*
X141791142Y-64262095D01*
X141695904Y-64214476D01*
X141505428Y-64214476D01*
X141410190Y-64262095D01*
X141362571Y-64309714D01*
X141314952Y-64404952D01*
X127766380Y-65785904D02*
X128575904Y-65785904D01*
X128671142Y-65738285D01*
X128718761Y-65690666D01*
X128766380Y-65595428D01*
X128766380Y-65404952D01*
X128718761Y-65309714D01*
X128671142Y-65262095D01*
X128575904Y-65214476D01*
X127766380Y-65214476D01*
X128766380Y-64690666D02*
X128766380Y-64500190D01*
X128718761Y-64404952D01*
X128671142Y-64357333D01*
X128528285Y-64262095D01*
X128337809Y-64214476D01*
X127956857Y-64214476D01*
X127861619Y-64262095D01*
X127814000Y-64309714D01*
X127766380Y-64404952D01*
X127766380Y-64595428D01*
X127814000Y-64690666D01*
X127861619Y-64738285D01*
X127956857Y-64785904D01*
X128194952Y-64785904D01*
X128290190Y-64738285D01*
X128337809Y-64690666D01*
X128385428Y-64595428D01*
X128385428Y-64404952D01*
X128337809Y-64309714D01*
X128290190Y-64262095D01*
X128194952Y-64214476D01*
M02*
