M48
; DRILL file {KiCad (5.1.2-1)-1} date Wednesday, 21 August 2019 at 09:43:24 pm
; FORMAT={-:-/ absolute / inch / decimal}
; #@! TF.CreationDate,2019-08-21T21:43:24+10:00
; #@! TF.GenerationSoftware,Kicad,Pcbnew,(5.1.2-1)-1
; #@! TF.FileFunction,Plated,1,2,PTH
FMAT,2
INCH
T1C0.0157
T2C0.0276
T3C0.0295
T4C0.0315
T5C0.0354
T6C0.1098
%
G90
G05
T1
X1.1737Y-2.678
X1.1915Y-2.7272
X1.22Y-2.76
X1.2537Y-2.8
X1.3685Y-2.983
X1.37Y-3.03
X1.38Y-2.91
X1.39Y-2.95
X1.48Y-1.59
X1.56Y-1.58
X1.64Y-1.58
X1.7098Y-3.2383
X1.71Y-1.58
X1.72Y-3.77
X1.72Y-4.2
X1.7328Y-3.9015
X1.7763Y-3.2673
X1.79Y-1.5758
X1.83Y-3.02
X1.8381Y-3.2881
X1.84Y-3.76
X1.85Y-2.8869
X1.8657Y-3.1648
X1.8698Y-3.5798
X1.87Y-1.5758
X1.9002Y-3.6302
X1.9228Y-3.34
X1.9502Y-3.0402
X2.02Y-3.75
X2.03Y-1.59
X2.03Y-3.69
X2.07Y-3.0
X2.09Y-2.8237
X2.09Y-3.5685
X2.1252Y-4.5848
X2.21Y-2.298
X2.2347Y-4.4853
X2.25Y-3.8
X2.29Y-2.58
X2.29Y-2.8566
X2.2937Y-2.48
X2.2991Y-2.2409
X2.3115Y-2.34
X2.32Y-3.98
X2.33Y-2.2
X2.33Y-2.84
X2.3397Y-4.4803
X2.3701Y-2.1299
X2.3973Y-3.2373
X2.4Y-2.2
X2.4015Y-3.0571
X2.41Y-3.47
X2.4148Y-2.8852
X2.42Y-2.12
X2.43Y-3.01
X2.4347Y-4.4653
X2.45Y-3.95
X2.4536Y-2.5061
X2.47Y-2.81
X2.47Y-2.85
X2.4848Y-2.4748
X2.5Y-3.2585
X2.5157Y-3.01
X2.52Y-2.11
X2.5247Y-4.4453
X2.54Y-2.8692
X2.5551Y-2.1904
X2.56Y-3.18
X2.58Y-3.2585
X2.6147Y-4.4253
X2.62Y-3.2585
X2.65Y-2.1946
X2.65Y-2.44
X2.66Y-3.2585
X2.67Y-2.5346
X2.6895Y-1.4695
X2.7Y-4.3129
X2.7001Y-2.1599
X2.71Y-4.41
X2.75Y-3.3511
X2.77Y-1.47
X2.77Y-3.53
X2.78Y-2.54
X2.79Y-4.32
X2.7923Y-4.1423
X2.8058Y-4.3561
X2.81Y-4.03
X2.81Y-4.08
X2.8285Y-3.53
X2.84Y-3.97
X2.84Y-4.38
X2.8501Y-4.32
X2.8678Y-4.4078
X2.9003Y-4.4302
X2.9272Y-3.47
X2.96Y-3.57
X2.9601Y-2.1199
X2.97Y-4.41
X3.01Y-3.5
X3.02Y-4.38
X3.0528Y-4.3515
X3.0602Y-4.2002
X3.11Y-2.56
X3.16Y-3.51
X3.1657Y-2.2694
X3.1796Y-3.6199
X3.1848Y-2.5752
X3.22Y-3.4715
X3.23Y-3.3511
X3.23Y-3.56
X3.25Y-3.22
X3.33Y-3.07
X3.35Y-2.22
X3.36Y-2.27
X3.37Y-2.65
X3.3752Y-3.0248
X3.38Y-2.87
X3.3852Y-3.7052
X3.39Y-3.3511
X3.3973Y-3.5373
X3.42Y-3.2585
X3.44Y-2.55
X3.45Y-4.69
X3.46Y-2.5929
X3.4673Y-3.4673
X3.49Y-3.74
X3.59Y-3.74
X3.61Y-2.77
X3.63Y-2.29
X3.6346Y-2.625
X3.68Y-2.86
X3.6952Y-2.6048
X3.72Y-4.29
X3.74Y-2.4869
X3.7772Y-2.47
X3.7772Y-2.52
X3.78Y-4.29
X3.8343Y-2.52
X3.8343Y-2.57
X3.84Y-2.46
X4.02Y-2.3
X4.22Y-2.8
X4.3103Y-3.8603
X4.3103Y-3.9703
T2
X3.25Y-2.05
X3.45Y-2.05
X3.55Y-2.05
X3.75Y-2.05
X2.65Y-2.05
X2.85Y-2.05
X2.05Y-2.05
X2.25Y-2.05
X2.35Y-2.05
X2.55Y-2.05
X3.85Y-2.05
X4.05Y-2.05
X1.34Y-2.05
X1.34Y-2.25
X1.34Y-1.75
X1.34Y-1.95
X2.95Y-2.05
X3.15Y-2.05
X1.75Y-2.05
X1.95Y-2.05
T3
X3.9013Y-1.5
X3.98Y-1.5
X1.5Y-4.5
X1.5787Y-4.5
X1.6575Y-4.5
X1.7362Y-4.5
X1.815Y-4.5
X1.8937Y-4.5
X1.9724Y-4.5
X2.0512Y-4.5
X1.4788Y-1.5
X1.5576Y-1.5
X1.6363Y-1.5
X1.715Y-1.5
X1.7938Y-1.5
X1.8725Y-1.5
X1.9513Y-1.5
X2.03Y-1.5
X3.4Y-4.5
X3.4787Y-4.5
X3.5575Y-4.5
X3.6362Y-4.5
X3.715Y-4.5
X3.7937Y-4.5
X3.8724Y-4.5
X1.2Y-3.7
X1.2Y-3.7787
X1.2Y-3.8575
X1.2Y-3.9362
X1.2Y-4.015
X1.2Y-4.0937
X1.2Y-4.1724
X1.2Y-4.2512
T4
X1.55Y-2.4
X1.55Y-2.7
X1.65Y-2.4
X1.65Y-2.7
X1.75Y-2.4
X1.75Y-2.7
X1.85Y-2.4
X1.85Y-2.7
X1.95Y-2.4
X1.95Y-2.7
X2.05Y-2.4
X2.05Y-2.7
X2.15Y-2.4
X2.15Y-2.7
X2.5Y-3.1
X2.5Y-3.4
X2.6Y-3.1
X2.6Y-3.4
X2.7Y-3.1
X2.7Y-3.4
X2.8Y-3.1
X2.8Y-3.4
X2.9Y-3.1
X2.9Y-3.4
X3.0Y-3.1
X3.0Y-3.4
X3.1Y-3.1
X3.1Y-3.4
X3.2Y-3.1
X3.2Y-3.4
X3.55Y-3.1
X3.55Y-3.4
X3.65Y-3.1
X3.65Y-3.4
X3.75Y-3.1
X3.75Y-3.4
X3.85Y-3.1
X3.85Y-3.4
X3.95Y-3.1
X3.95Y-3.4
X4.05Y-3.1
X4.05Y-3.4
X4.15Y-3.1
X4.15Y-3.4
X1.45Y-3.1
X1.45Y-3.4
X1.55Y-3.1
X1.55Y-3.4
X1.65Y-3.1
X1.65Y-3.4
X1.75Y-3.1
X1.75Y-3.4
X1.85Y-3.1
X1.85Y-3.4
X1.95Y-3.1
X1.95Y-3.4
X2.05Y-3.1
X2.05Y-3.4
X2.15Y-3.1
X2.15Y-3.4
X1.8Y-3.85
X1.8Y-4.15
X1.9Y-3.85
X1.9Y-4.15
X2.0Y-3.85
X2.0Y-4.15
X2.1Y-3.85
X2.1Y-4.15
X2.2Y-3.85
X2.2Y-4.15
X2.3Y-3.85
X2.3Y-4.15
X2.4Y-3.85
X2.4Y-4.15
X2.5Y-3.85
X2.5Y-4.15
X2.6Y-3.85
X2.6Y-4.15
X2.7Y-3.85
X2.7Y-4.15
X3.35Y-3.85
X3.35Y-4.15
X3.45Y-3.85
X3.45Y-4.15
X3.55Y-3.85
X3.55Y-4.15
X3.65Y-3.85
X3.65Y-4.15
X3.75Y-3.85
X3.75Y-4.15
X3.85Y-3.85
X3.85Y-4.15
X3.95Y-3.85
X3.95Y-4.15
X2.5Y-2.4
X2.5Y-2.7
X2.6Y-2.4
X2.6Y-2.7
X2.7Y-2.4
X2.7Y-2.7
X2.8Y-2.4
X2.8Y-2.7
X2.9Y-2.4
X2.9Y-2.7
X3.0Y-2.4
X3.0Y-2.7
X3.1Y-2.4
X3.1Y-2.7
X3.2Y-2.4
X3.2Y-2.7
X3.55Y-2.4
X3.55Y-2.7
X3.65Y-2.4
X3.65Y-2.7
X3.75Y-2.4
X3.75Y-2.7
X3.85Y-2.4
X3.85Y-2.7
X3.95Y-2.4
X3.95Y-2.7
X4.05Y-2.4
X4.05Y-2.7
X4.15Y-2.4
X4.15Y-2.7
T5
X2.4Y-1.85
X2.5Y-1.85
X2.7Y-1.85
X2.8Y-1.85
X3.0Y-1.85
X3.1Y-1.85
X3.3Y-1.85
X3.4Y-1.85
X1.8Y-1.85
X1.9Y-1.85
X3.6Y-1.85
X3.7Y-1.85
X1.14Y-2.1
X1.14Y-2.2
X2.1Y-1.85
X2.2Y-1.85
X1.14Y-1.8
X1.14Y-1.9
X3.9Y-1.85
X4.0Y-1.85
T6
X4.3Y-1.45
X1.15Y-1.45
X4.3Y-4.55
X1.15Y-4.55
T0
M30
