G04 #@! TF.GenerationSoftware,KiCad,Pcbnew,(5.1.2-1)-1*
G04 #@! TF.CreationDate,2019-08-26T08:14:41+10:00*
G04 #@! TF.ProjectId,address-register,61646472-6573-4732-9d72-656769737465,rev?*
G04 #@! TF.SameCoordinates,Original*
G04 #@! TF.FileFunction,Soldermask,Bot*
G04 #@! TF.FilePolarity,Negative*
%FSLAX46Y46*%
G04 Gerber Fmt 4.6, Leading zero omitted, Abs format (unit mm)*
G04 Created by KiCad (PCBNEW (5.1.2-1)-1) date 2019-08-26 08:14:41*
%MOMM*%
%LPD*%
G04 APERTURE LIST*
%ADD10C,0.100000*%
G04 APERTURE END LIST*
D10*
G36*
X83117626Y-60358783D02*
G01*
X83300831Y-60434669D01*
X83471777Y-60505477D01*
X83790503Y-60718443D01*
X84061557Y-60989497D01*
X84246961Y-61266974D01*
X84274524Y-61308225D01*
X84421217Y-61662374D01*
X84496000Y-62038334D01*
X84496000Y-62421666D01*
X84421217Y-62797626D01*
X84274524Y-63151775D01*
X84274523Y-63151777D01*
X84061557Y-63470503D01*
X83790503Y-63741557D01*
X83471777Y-63954523D01*
X83471776Y-63954524D01*
X83471775Y-63954524D01*
X83117626Y-64101217D01*
X82741666Y-64176000D01*
X82358334Y-64176000D01*
X81982374Y-64101217D01*
X81628225Y-63954524D01*
X81628224Y-63954524D01*
X81628223Y-63954523D01*
X81309497Y-63741557D01*
X81038443Y-63470503D01*
X80825477Y-63151777D01*
X80825476Y-63151775D01*
X80678783Y-62797626D01*
X80604000Y-62421666D01*
X80604000Y-62038334D01*
X80678783Y-61662374D01*
X80825476Y-61308225D01*
X80853039Y-61266974D01*
X81038443Y-60989497D01*
X81309497Y-60718443D01*
X81628223Y-60505477D01*
X81799169Y-60434669D01*
X81982374Y-60358783D01*
X82358334Y-60284000D01*
X82741666Y-60284000D01*
X83117626Y-60358783D01*
X83117626Y-60358783D01*
G37*
G36*
X20887626Y-60358783D02*
G01*
X21070831Y-60434669D01*
X21241777Y-60505477D01*
X21560503Y-60718443D01*
X21831557Y-60989497D01*
X22016961Y-61266974D01*
X22044524Y-61308225D01*
X22191217Y-61662374D01*
X22266000Y-62038334D01*
X22266000Y-62421666D01*
X22191217Y-62797626D01*
X22044524Y-63151775D01*
X22044523Y-63151777D01*
X21831557Y-63470503D01*
X21560503Y-63741557D01*
X21241777Y-63954523D01*
X21241776Y-63954524D01*
X21241775Y-63954524D01*
X20887626Y-64101217D01*
X20511666Y-64176000D01*
X20128334Y-64176000D01*
X19752374Y-64101217D01*
X19398225Y-63954524D01*
X19398224Y-63954524D01*
X19398223Y-63954523D01*
X19079497Y-63741557D01*
X18808443Y-63470503D01*
X18595477Y-63151777D01*
X18595476Y-63151775D01*
X18448783Y-62797626D01*
X18374000Y-62421666D01*
X18374000Y-62038334D01*
X18448783Y-61662374D01*
X18595476Y-61308225D01*
X18623039Y-61266974D01*
X18808443Y-60989497D01*
X19079497Y-60718443D01*
X19398223Y-60505477D01*
X19569169Y-60434669D01*
X19752374Y-60358783D01*
X20128334Y-60284000D01*
X20511666Y-60284000D01*
X20887626Y-60358783D01*
X20887626Y-60358783D01*
G37*
G36*
X43751617Y-60043420D02*
G01*
X43832399Y-60067925D01*
X43874335Y-60080646D01*
X43987424Y-60141094D01*
X44086554Y-60222447D01*
X44167906Y-60321575D01*
X44228354Y-60434664D01*
X44238040Y-60466596D01*
X44265580Y-60557382D01*
X44275000Y-60653027D01*
X44275000Y-61266973D01*
X44265580Y-61362618D01*
X44238040Y-61453404D01*
X44228354Y-61485336D01*
X44167906Y-61598425D01*
X44086554Y-61697554D01*
X43987425Y-61778906D01*
X43874336Y-61839354D01*
X43842404Y-61849040D01*
X43751618Y-61876580D01*
X43624000Y-61889149D01*
X43496383Y-61876580D01*
X43405597Y-61849040D01*
X43373665Y-61839354D01*
X43260576Y-61778906D01*
X43161447Y-61697554D01*
X43080096Y-61598427D01*
X43080095Y-61598425D01*
X43019647Y-61485336D01*
X43019645Y-61485333D01*
X43007237Y-61444427D01*
X42982420Y-61362618D01*
X42973000Y-61266973D01*
X42973000Y-60653028D01*
X42982420Y-60557383D01*
X43019645Y-60434669D01*
X43019646Y-60434665D01*
X43080094Y-60321576D01*
X43161447Y-60222446D01*
X43260575Y-60141094D01*
X43373664Y-60080646D01*
X43415600Y-60067925D01*
X43496382Y-60043420D01*
X43624000Y-60030851D01*
X43751617Y-60043420D01*
X43751617Y-60043420D01*
G37*
G36*
X45751617Y-60043420D02*
G01*
X45832399Y-60067925D01*
X45874335Y-60080646D01*
X45987424Y-60141094D01*
X46086554Y-60222447D01*
X46167906Y-60321575D01*
X46228354Y-60434664D01*
X46238040Y-60466596D01*
X46265580Y-60557382D01*
X46275000Y-60653027D01*
X46275000Y-61266973D01*
X46265580Y-61362618D01*
X46238040Y-61453404D01*
X46228354Y-61485336D01*
X46167906Y-61598425D01*
X46086554Y-61697554D01*
X45987425Y-61778906D01*
X45874336Y-61839354D01*
X45842404Y-61849040D01*
X45751618Y-61876580D01*
X45624000Y-61889149D01*
X45496383Y-61876580D01*
X45405597Y-61849040D01*
X45373665Y-61839354D01*
X45260576Y-61778906D01*
X45161447Y-61697554D01*
X45080096Y-61598427D01*
X45080095Y-61598425D01*
X45019647Y-61485336D01*
X45019645Y-61485333D01*
X45007237Y-61444427D01*
X44982420Y-61362618D01*
X44973000Y-61266973D01*
X44973000Y-60653028D01*
X44982420Y-60557383D01*
X45019645Y-60434669D01*
X45019646Y-60434665D01*
X45080094Y-60321576D01*
X45161447Y-60222446D01*
X45260575Y-60141094D01*
X45373664Y-60080646D01*
X45415600Y-60067925D01*
X45496382Y-60043420D01*
X45624000Y-60030851D01*
X45751617Y-60043420D01*
X45751617Y-60043420D01*
G37*
G36*
X56483617Y-60043420D02*
G01*
X56564399Y-60067925D01*
X56606335Y-60080646D01*
X56719424Y-60141094D01*
X56818554Y-60222447D01*
X56899906Y-60321575D01*
X56960354Y-60434664D01*
X56970040Y-60466596D01*
X56997580Y-60557382D01*
X57007000Y-60653027D01*
X57007000Y-61266973D01*
X56997580Y-61362618D01*
X56970040Y-61453404D01*
X56960354Y-61485336D01*
X56899906Y-61598425D01*
X56818554Y-61697554D01*
X56719425Y-61778906D01*
X56606336Y-61839354D01*
X56574404Y-61849040D01*
X56483618Y-61876580D01*
X56356000Y-61889149D01*
X56228383Y-61876580D01*
X56137597Y-61849040D01*
X56105665Y-61839354D01*
X55992576Y-61778906D01*
X55893447Y-61697554D01*
X55812096Y-61598427D01*
X55812095Y-61598425D01*
X55751647Y-61485336D01*
X55751645Y-61485333D01*
X55739237Y-61444427D01*
X55714420Y-61362618D01*
X55705000Y-61266973D01*
X55705000Y-60653028D01*
X55714420Y-60557383D01*
X55751645Y-60434669D01*
X55751646Y-60434665D01*
X55812094Y-60321576D01*
X55893447Y-60222446D01*
X55992575Y-60141094D01*
X56105664Y-60080646D01*
X56147600Y-60067925D01*
X56228382Y-60043420D01*
X56356000Y-60030851D01*
X56483617Y-60043420D01*
X56483617Y-60043420D01*
G37*
G36*
X58483617Y-60043420D02*
G01*
X58564399Y-60067925D01*
X58606335Y-60080646D01*
X58719424Y-60141094D01*
X58818554Y-60222447D01*
X58899906Y-60321575D01*
X58960354Y-60434664D01*
X58970040Y-60466596D01*
X58997580Y-60557382D01*
X59007000Y-60653027D01*
X59007000Y-61266973D01*
X58997580Y-61362618D01*
X58970040Y-61453404D01*
X58960354Y-61485336D01*
X58899906Y-61598425D01*
X58818554Y-61697554D01*
X58719425Y-61778906D01*
X58606336Y-61839354D01*
X58574404Y-61849040D01*
X58483618Y-61876580D01*
X58356000Y-61889149D01*
X58228383Y-61876580D01*
X58137597Y-61849040D01*
X58105665Y-61839354D01*
X57992576Y-61778906D01*
X57893447Y-61697554D01*
X57812096Y-61598427D01*
X57812095Y-61598425D01*
X57751647Y-61485336D01*
X57751645Y-61485333D01*
X57739237Y-61444427D01*
X57714420Y-61362618D01*
X57705000Y-61266973D01*
X57705000Y-60653028D01*
X57714420Y-60557383D01*
X57751645Y-60434669D01*
X57751646Y-60434665D01*
X57812094Y-60321576D01*
X57893447Y-60222446D01*
X57992575Y-60141094D01*
X58105664Y-60080646D01*
X58147600Y-60067925D01*
X58228382Y-60043420D01*
X58356000Y-60030851D01*
X58483617Y-60043420D01*
X58483617Y-60043420D01*
G37*
G36*
X60483617Y-60043420D02*
G01*
X60564399Y-60067925D01*
X60606335Y-60080646D01*
X60719424Y-60141094D01*
X60818554Y-60222447D01*
X60899906Y-60321575D01*
X60960354Y-60434664D01*
X60970040Y-60466596D01*
X60997580Y-60557382D01*
X61007000Y-60653027D01*
X61007000Y-61266973D01*
X60997580Y-61362618D01*
X60970040Y-61453404D01*
X60960354Y-61485336D01*
X60899906Y-61598425D01*
X60818554Y-61697554D01*
X60719425Y-61778906D01*
X60606336Y-61839354D01*
X60574404Y-61849040D01*
X60483618Y-61876580D01*
X60356000Y-61889149D01*
X60228383Y-61876580D01*
X60137597Y-61849040D01*
X60105665Y-61839354D01*
X59992576Y-61778906D01*
X59893447Y-61697554D01*
X59812096Y-61598427D01*
X59812095Y-61598425D01*
X59751647Y-61485336D01*
X59751645Y-61485333D01*
X59739237Y-61444427D01*
X59714420Y-61362618D01*
X59705000Y-61266973D01*
X59705000Y-60653028D01*
X59714420Y-60557383D01*
X59751645Y-60434669D01*
X59751646Y-60434665D01*
X59812094Y-60321576D01*
X59893447Y-60222446D01*
X59992575Y-60141094D01*
X60105664Y-60080646D01*
X60147600Y-60067925D01*
X60228382Y-60043420D01*
X60356000Y-60030851D01*
X60483617Y-60043420D01*
X60483617Y-60043420D01*
G37*
G36*
X70707617Y-60043420D02*
G01*
X70788399Y-60067925D01*
X70830335Y-60080646D01*
X70943424Y-60141094D01*
X71042554Y-60222447D01*
X71123906Y-60321575D01*
X71184354Y-60434664D01*
X71194040Y-60466596D01*
X71221580Y-60557382D01*
X71231000Y-60653027D01*
X71231000Y-61266973D01*
X71221580Y-61362618D01*
X71194040Y-61453404D01*
X71184354Y-61485336D01*
X71123906Y-61598425D01*
X71042554Y-61697554D01*
X70943425Y-61778906D01*
X70830336Y-61839354D01*
X70798404Y-61849040D01*
X70707618Y-61876580D01*
X70580000Y-61889149D01*
X70452383Y-61876580D01*
X70361597Y-61849040D01*
X70329665Y-61839354D01*
X70216576Y-61778906D01*
X70117447Y-61697554D01*
X70036096Y-61598427D01*
X70036095Y-61598425D01*
X69975647Y-61485336D01*
X69975645Y-61485333D01*
X69963237Y-61444427D01*
X69938420Y-61362618D01*
X69929000Y-61266973D01*
X69929000Y-60653028D01*
X69938420Y-60557383D01*
X69975645Y-60434669D01*
X69975646Y-60434665D01*
X70036094Y-60321576D01*
X70117447Y-60222446D01*
X70216575Y-60141094D01*
X70329664Y-60080646D01*
X70371600Y-60067925D01*
X70452382Y-60043420D01*
X70580000Y-60030851D01*
X70707617Y-60043420D01*
X70707617Y-60043420D01*
G37*
G36*
X72707617Y-60043420D02*
G01*
X72788399Y-60067925D01*
X72830335Y-60080646D01*
X72943424Y-60141094D01*
X73042554Y-60222447D01*
X73123906Y-60321575D01*
X73184354Y-60434664D01*
X73194040Y-60466596D01*
X73221580Y-60557382D01*
X73231000Y-60653027D01*
X73231000Y-61266973D01*
X73221580Y-61362618D01*
X73194040Y-61453404D01*
X73184354Y-61485336D01*
X73123906Y-61598425D01*
X73042554Y-61697554D01*
X72943425Y-61778906D01*
X72830336Y-61839354D01*
X72798404Y-61849040D01*
X72707618Y-61876580D01*
X72580000Y-61889149D01*
X72452383Y-61876580D01*
X72361597Y-61849040D01*
X72329665Y-61839354D01*
X72216576Y-61778906D01*
X72117447Y-61697554D01*
X72036096Y-61598427D01*
X72036095Y-61598425D01*
X71975647Y-61485336D01*
X71975645Y-61485333D01*
X71963237Y-61444427D01*
X71938420Y-61362618D01*
X71929000Y-61266973D01*
X71929000Y-60653028D01*
X71938420Y-60557383D01*
X71975645Y-60434669D01*
X71975646Y-60434665D01*
X72036094Y-60321576D01*
X72117447Y-60222446D01*
X72216575Y-60141094D01*
X72329664Y-60080646D01*
X72371600Y-60067925D01*
X72452382Y-60043420D01*
X72580000Y-60030851D01*
X72707617Y-60043420D01*
X72707617Y-60043420D01*
G37*
G36*
X74707617Y-60043420D02*
G01*
X74788399Y-60067925D01*
X74830335Y-60080646D01*
X74943424Y-60141094D01*
X75042554Y-60222447D01*
X75123906Y-60321575D01*
X75184354Y-60434664D01*
X75194040Y-60466596D01*
X75221580Y-60557382D01*
X75231000Y-60653027D01*
X75231000Y-61266973D01*
X75221580Y-61362618D01*
X75194040Y-61453404D01*
X75184354Y-61485336D01*
X75123906Y-61598425D01*
X75042554Y-61697554D01*
X74943425Y-61778906D01*
X74830336Y-61839354D01*
X74798404Y-61849040D01*
X74707618Y-61876580D01*
X74580000Y-61889149D01*
X74452383Y-61876580D01*
X74361597Y-61849040D01*
X74329665Y-61839354D01*
X74216576Y-61778906D01*
X74117447Y-61697554D01*
X74036096Y-61598427D01*
X74036095Y-61598425D01*
X73975647Y-61485336D01*
X73975645Y-61485333D01*
X73963237Y-61444427D01*
X73938420Y-61362618D01*
X73929000Y-61266973D01*
X73929000Y-60653028D01*
X73938420Y-60557383D01*
X73975645Y-60434669D01*
X73975646Y-60434665D01*
X74036094Y-60321576D01*
X74117447Y-60222446D01*
X74216575Y-60141094D01*
X74329664Y-60080646D01*
X74371600Y-60067925D01*
X74452382Y-60043420D01*
X74580000Y-60030851D01*
X74707617Y-60043420D01*
X74707617Y-60043420D01*
G37*
G36*
X41751617Y-60043420D02*
G01*
X41832399Y-60067925D01*
X41874335Y-60080646D01*
X41987424Y-60141094D01*
X42086554Y-60222447D01*
X42167906Y-60321575D01*
X42228354Y-60434664D01*
X42238040Y-60466596D01*
X42265580Y-60557382D01*
X42275000Y-60653027D01*
X42275000Y-61266973D01*
X42265580Y-61362618D01*
X42238040Y-61453404D01*
X42228354Y-61485336D01*
X42167906Y-61598425D01*
X42086554Y-61697554D01*
X41987425Y-61778906D01*
X41874336Y-61839354D01*
X41842404Y-61849040D01*
X41751618Y-61876580D01*
X41624000Y-61889149D01*
X41496383Y-61876580D01*
X41405597Y-61849040D01*
X41373665Y-61839354D01*
X41260576Y-61778906D01*
X41161447Y-61697554D01*
X41080096Y-61598427D01*
X41080095Y-61598425D01*
X41019647Y-61485336D01*
X41019645Y-61485333D01*
X41007237Y-61444427D01*
X40982420Y-61362618D01*
X40973000Y-61266973D01*
X40973000Y-60653028D01*
X40982420Y-60557383D01*
X41019645Y-60434669D01*
X41019646Y-60434665D01*
X41080094Y-60321576D01*
X41161447Y-60222446D01*
X41260575Y-60141094D01*
X41373664Y-60080646D01*
X41415600Y-60067925D01*
X41496382Y-60043420D01*
X41624000Y-60030851D01*
X41751617Y-60043420D01*
X41751617Y-60043420D01*
G37*
G36*
X31083617Y-60043420D02*
G01*
X31164399Y-60067925D01*
X31206335Y-60080646D01*
X31319424Y-60141094D01*
X31418554Y-60222447D01*
X31499906Y-60321575D01*
X31560354Y-60434664D01*
X31570040Y-60466596D01*
X31597580Y-60557382D01*
X31607000Y-60653027D01*
X31607000Y-61266973D01*
X31597580Y-61362618D01*
X31570040Y-61453404D01*
X31560354Y-61485336D01*
X31499906Y-61598425D01*
X31418554Y-61697554D01*
X31319425Y-61778906D01*
X31206336Y-61839354D01*
X31174404Y-61849040D01*
X31083618Y-61876580D01*
X30956000Y-61889149D01*
X30828383Y-61876580D01*
X30737597Y-61849040D01*
X30705665Y-61839354D01*
X30592576Y-61778906D01*
X30493447Y-61697554D01*
X30412096Y-61598427D01*
X30412095Y-61598425D01*
X30351647Y-61485336D01*
X30351645Y-61485333D01*
X30339237Y-61444427D01*
X30314420Y-61362618D01*
X30305000Y-61266973D01*
X30305000Y-60653028D01*
X30314420Y-60557383D01*
X30351645Y-60434669D01*
X30351646Y-60434665D01*
X30412094Y-60321576D01*
X30493447Y-60222446D01*
X30592575Y-60141094D01*
X30705664Y-60080646D01*
X30747600Y-60067925D01*
X30828382Y-60043420D01*
X30956000Y-60030851D01*
X31083617Y-60043420D01*
X31083617Y-60043420D01*
G37*
G36*
X69071242Y-60038404D02*
G01*
X69108337Y-60049657D01*
X69142515Y-60067925D01*
X69172481Y-60092519D01*
X69197075Y-60122485D01*
X69215343Y-60156663D01*
X69226596Y-60193758D01*
X69231000Y-60238474D01*
X69231000Y-61681526D01*
X69226596Y-61726242D01*
X69215343Y-61763337D01*
X69197075Y-61797515D01*
X69172481Y-61827481D01*
X69142515Y-61852075D01*
X69108337Y-61870343D01*
X69071242Y-61881596D01*
X69026526Y-61886000D01*
X68133474Y-61886000D01*
X68088758Y-61881596D01*
X68051663Y-61870343D01*
X68017485Y-61852075D01*
X67987519Y-61827481D01*
X67962925Y-61797515D01*
X67944657Y-61763337D01*
X67933404Y-61726242D01*
X67929000Y-61681526D01*
X67929000Y-60238474D01*
X67933404Y-60193758D01*
X67944657Y-60156663D01*
X67962925Y-60122485D01*
X67987519Y-60092519D01*
X68017485Y-60067925D01*
X68051663Y-60049657D01*
X68088758Y-60038404D01*
X68133474Y-60034000D01*
X69026526Y-60034000D01*
X69071242Y-60038404D01*
X69071242Y-60038404D01*
G37*
G36*
X54847242Y-60038404D02*
G01*
X54884337Y-60049657D01*
X54918515Y-60067925D01*
X54948481Y-60092519D01*
X54973075Y-60122485D01*
X54991343Y-60156663D01*
X55002596Y-60193758D01*
X55007000Y-60238474D01*
X55007000Y-61681526D01*
X55002596Y-61726242D01*
X54991343Y-61763337D01*
X54973075Y-61797515D01*
X54948481Y-61827481D01*
X54918515Y-61852075D01*
X54884337Y-61870343D01*
X54847242Y-61881596D01*
X54802526Y-61886000D01*
X53909474Y-61886000D01*
X53864758Y-61881596D01*
X53827663Y-61870343D01*
X53793485Y-61852075D01*
X53763519Y-61827481D01*
X53738925Y-61797515D01*
X53720657Y-61763337D01*
X53709404Y-61726242D01*
X53705000Y-61681526D01*
X53705000Y-60238474D01*
X53709404Y-60193758D01*
X53720657Y-60156663D01*
X53738925Y-60122485D01*
X53763519Y-60092519D01*
X53793485Y-60067925D01*
X53827663Y-60049657D01*
X53864758Y-60038404D01*
X53909474Y-60034000D01*
X54802526Y-60034000D01*
X54847242Y-60038404D01*
X54847242Y-60038404D01*
G37*
G36*
X40115242Y-60038404D02*
G01*
X40152337Y-60049657D01*
X40186515Y-60067925D01*
X40216481Y-60092519D01*
X40241075Y-60122485D01*
X40259343Y-60156663D01*
X40270596Y-60193758D01*
X40275000Y-60238474D01*
X40275000Y-61681526D01*
X40270596Y-61726242D01*
X40259343Y-61763337D01*
X40241075Y-61797515D01*
X40216481Y-61827481D01*
X40186515Y-61852075D01*
X40152337Y-61870343D01*
X40115242Y-61881596D01*
X40070526Y-61886000D01*
X39177474Y-61886000D01*
X39132758Y-61881596D01*
X39095663Y-61870343D01*
X39061485Y-61852075D01*
X39031519Y-61827481D01*
X39006925Y-61797515D01*
X38988657Y-61763337D01*
X38977404Y-61726242D01*
X38973000Y-61681526D01*
X38973000Y-60238474D01*
X38977404Y-60193758D01*
X38988657Y-60156663D01*
X39006925Y-60122485D01*
X39031519Y-60092519D01*
X39061485Y-60067925D01*
X39095663Y-60049657D01*
X39132758Y-60038404D01*
X39177474Y-60034000D01*
X40070526Y-60034000D01*
X40115242Y-60038404D01*
X40115242Y-60038404D01*
G37*
G36*
X29447242Y-60038404D02*
G01*
X29484337Y-60049657D01*
X29518515Y-60067925D01*
X29548481Y-60092519D01*
X29573075Y-60122485D01*
X29591343Y-60156663D01*
X29602596Y-60193758D01*
X29607000Y-60238474D01*
X29607000Y-61681526D01*
X29602596Y-61726242D01*
X29591343Y-61763337D01*
X29573075Y-61797515D01*
X29548481Y-61827481D01*
X29518515Y-61852075D01*
X29484337Y-61870343D01*
X29447242Y-61881596D01*
X29402526Y-61886000D01*
X28509474Y-61886000D01*
X28464758Y-61881596D01*
X28427663Y-61870343D01*
X28393485Y-61852075D01*
X28363519Y-61827481D01*
X28338925Y-61797515D01*
X28320657Y-61763337D01*
X28309404Y-61726242D01*
X28305000Y-61681526D01*
X28305000Y-60238474D01*
X28309404Y-60193758D01*
X28320657Y-60156663D01*
X28338925Y-60122485D01*
X28363519Y-60092519D01*
X28393485Y-60067925D01*
X28427663Y-60049657D01*
X28464758Y-60038404D01*
X28509474Y-60034000D01*
X29402526Y-60034000D01*
X29447242Y-60038404D01*
X29447242Y-60038404D01*
G37*
G36*
X76273665Y-55386622D02*
G01*
X76347222Y-55393867D01*
X76488786Y-55436810D01*
X76619252Y-55506546D01*
X76649040Y-55530992D01*
X76733607Y-55600393D01*
X76803008Y-55684960D01*
X76827454Y-55714748D01*
X76897190Y-55845214D01*
X76940133Y-55986778D01*
X76954633Y-56134000D01*
X76940133Y-56281222D01*
X76897190Y-56422786D01*
X76827454Y-56553252D01*
X76803008Y-56583040D01*
X76733607Y-56667607D01*
X76649040Y-56737008D01*
X76619252Y-56761454D01*
X76488786Y-56831190D01*
X76347222Y-56874133D01*
X76273665Y-56881378D01*
X76236888Y-56885000D01*
X76163112Y-56885000D01*
X76126335Y-56881378D01*
X76052778Y-56874133D01*
X75911214Y-56831190D01*
X75780748Y-56761454D01*
X75750960Y-56737008D01*
X75666393Y-56667607D01*
X75596992Y-56583040D01*
X75572546Y-56553252D01*
X75502810Y-56422786D01*
X75459867Y-56281222D01*
X75445367Y-56134000D01*
X75459867Y-55986778D01*
X75502810Y-55845214D01*
X75572546Y-55714748D01*
X75596992Y-55684960D01*
X75666393Y-55600393D01*
X75750960Y-55530992D01*
X75780748Y-55506546D01*
X75911214Y-55436810D01*
X76052778Y-55393867D01*
X76126335Y-55386622D01*
X76163112Y-55383000D01*
X76236888Y-55383000D01*
X76273665Y-55386622D01*
X76273665Y-55386622D01*
G37*
G36*
X81215000Y-54291000D02*
G01*
X79313000Y-54291000D01*
X79313000Y-52389000D01*
X81215000Y-52389000D01*
X81215000Y-54291000D01*
X81215000Y-54291000D01*
G37*
G36*
X83081395Y-52425546D02*
G01*
X83254466Y-52497234D01*
X83254467Y-52497235D01*
X83410227Y-52601310D01*
X83542690Y-52733773D01*
X83542691Y-52733775D01*
X83646766Y-52889534D01*
X83718454Y-53062605D01*
X83755000Y-53246333D01*
X83755000Y-53433667D01*
X83718454Y-53617395D01*
X83646766Y-53790466D01*
X83646765Y-53790467D01*
X83542690Y-53946227D01*
X83410227Y-54078690D01*
X83331818Y-54131081D01*
X83254466Y-54182766D01*
X83081395Y-54254454D01*
X82897667Y-54291000D01*
X82710333Y-54291000D01*
X82526605Y-54254454D01*
X82353534Y-54182766D01*
X82276182Y-54131081D01*
X82197773Y-54078690D01*
X82065310Y-53946227D01*
X81961235Y-53790467D01*
X81961234Y-53790466D01*
X81889546Y-53617395D01*
X81853000Y-53433667D01*
X81853000Y-53246333D01*
X81889546Y-53062605D01*
X81961234Y-52889534D01*
X82065309Y-52733775D01*
X82065310Y-52733773D01*
X82197773Y-52601310D01*
X82353533Y-52497235D01*
X82353534Y-52497234D01*
X82526605Y-52425546D01*
X82710333Y-52389000D01*
X82897667Y-52389000D01*
X83081395Y-52425546D01*
X83081395Y-52425546D01*
G37*
G36*
X76419059Y-50331860D02*
G01*
X76555732Y-50388472D01*
X76678735Y-50470660D01*
X76783340Y-50575265D01*
X76865528Y-50698268D01*
X76922140Y-50834941D01*
X76951000Y-50980033D01*
X76951000Y-51127967D01*
X76922140Y-51273059D01*
X76865528Y-51409732D01*
X76783340Y-51532735D01*
X76678735Y-51637340D01*
X76555732Y-51719528D01*
X76555731Y-51719529D01*
X76555730Y-51719529D01*
X76419059Y-51776140D01*
X76273968Y-51805000D01*
X76126032Y-51805000D01*
X75980941Y-51776140D01*
X75844270Y-51719529D01*
X75844269Y-51719529D01*
X75844268Y-51719528D01*
X75721265Y-51637340D01*
X75616660Y-51532735D01*
X75534472Y-51409732D01*
X75477860Y-51273059D01*
X75449000Y-51127967D01*
X75449000Y-50980033D01*
X75477860Y-50834941D01*
X75534472Y-50698268D01*
X75616660Y-50575265D01*
X75721265Y-50470660D01*
X75844268Y-50388472D01*
X75980941Y-50331860D01*
X76126032Y-50303000D01*
X76273968Y-50303000D01*
X76419059Y-50331860D01*
X76419059Y-50331860D01*
G37*
G36*
X47841000Y-49111000D02*
G01*
X46139000Y-49111000D01*
X46139000Y-47409000D01*
X47841000Y-47409000D01*
X47841000Y-49111000D01*
X47841000Y-49111000D01*
G37*
G36*
X39536823Y-47421313D02*
G01*
X39697242Y-47469976D01*
X39790581Y-47519867D01*
X39845078Y-47548996D01*
X39974659Y-47655341D01*
X40081004Y-47784922D01*
X40081005Y-47784924D01*
X40160024Y-47932758D01*
X40208687Y-48093177D01*
X40225117Y-48260000D01*
X40208687Y-48426823D01*
X40160024Y-48587242D01*
X40089114Y-48719906D01*
X40081004Y-48735078D01*
X39974659Y-48864659D01*
X39845078Y-48971004D01*
X39845076Y-48971005D01*
X39697242Y-49050024D01*
X39536823Y-49098687D01*
X39411804Y-49111000D01*
X39328196Y-49111000D01*
X39203177Y-49098687D01*
X39042758Y-49050024D01*
X38894924Y-48971005D01*
X38894922Y-48971004D01*
X38765341Y-48864659D01*
X38658996Y-48735078D01*
X38650886Y-48719906D01*
X38579976Y-48587242D01*
X38531313Y-48426823D01*
X38514883Y-48260000D01*
X38531313Y-48093177D01*
X38579976Y-47932758D01*
X38658995Y-47784924D01*
X38658996Y-47784922D01*
X38765341Y-47655341D01*
X38894922Y-47548996D01*
X38949419Y-47519867D01*
X39042758Y-47469976D01*
X39203177Y-47421313D01*
X39328196Y-47409000D01*
X39411804Y-47409000D01*
X39536823Y-47421313D01*
X39536823Y-47421313D01*
G37*
G36*
X31916823Y-47421313D02*
G01*
X32077242Y-47469976D01*
X32170581Y-47519867D01*
X32225078Y-47548996D01*
X32354659Y-47655341D01*
X32461004Y-47784922D01*
X32461005Y-47784924D01*
X32540024Y-47932758D01*
X32588687Y-48093177D01*
X32605117Y-48260000D01*
X32588687Y-48426823D01*
X32540024Y-48587242D01*
X32469114Y-48719906D01*
X32461004Y-48735078D01*
X32354659Y-48864659D01*
X32225078Y-48971004D01*
X32225076Y-48971005D01*
X32077242Y-49050024D01*
X31916823Y-49098687D01*
X31791804Y-49111000D01*
X31708196Y-49111000D01*
X31583177Y-49098687D01*
X31422758Y-49050024D01*
X31274924Y-48971005D01*
X31274922Y-48971004D01*
X31145341Y-48864659D01*
X31038996Y-48735078D01*
X31030886Y-48719906D01*
X30959976Y-48587242D01*
X30911313Y-48426823D01*
X30894883Y-48260000D01*
X30911313Y-48093177D01*
X30959976Y-47932758D01*
X31038995Y-47784924D01*
X31038996Y-47784922D01*
X31145341Y-47655341D01*
X31274922Y-47548996D01*
X31329419Y-47519867D01*
X31422758Y-47469976D01*
X31583177Y-47421313D01*
X31708196Y-47409000D01*
X31791804Y-47409000D01*
X31916823Y-47421313D01*
X31916823Y-47421313D01*
G37*
G36*
X54776823Y-47421313D02*
G01*
X54937242Y-47469976D01*
X55030581Y-47519867D01*
X55085078Y-47548996D01*
X55214659Y-47655341D01*
X55321004Y-47784922D01*
X55321005Y-47784924D01*
X55400024Y-47932758D01*
X55448687Y-48093177D01*
X55465117Y-48260000D01*
X55448687Y-48426823D01*
X55400024Y-48587242D01*
X55329114Y-48719906D01*
X55321004Y-48735078D01*
X55214659Y-48864659D01*
X55085078Y-48971004D01*
X55085076Y-48971005D01*
X54937242Y-49050024D01*
X54776823Y-49098687D01*
X54651804Y-49111000D01*
X54568196Y-49111000D01*
X54443177Y-49098687D01*
X54282758Y-49050024D01*
X54134924Y-48971005D01*
X54134922Y-48971004D01*
X54005341Y-48864659D01*
X53898996Y-48735078D01*
X53890886Y-48719906D01*
X53819976Y-48587242D01*
X53771313Y-48426823D01*
X53754883Y-48260000D01*
X53771313Y-48093177D01*
X53819976Y-47932758D01*
X53898995Y-47784924D01*
X53898996Y-47784922D01*
X54005341Y-47655341D01*
X54134922Y-47548996D01*
X54189419Y-47519867D01*
X54282758Y-47469976D01*
X54443177Y-47421313D01*
X54568196Y-47409000D01*
X54651804Y-47409000D01*
X54776823Y-47421313D01*
X54776823Y-47421313D01*
G37*
G36*
X52236823Y-47421313D02*
G01*
X52397242Y-47469976D01*
X52490581Y-47519867D01*
X52545078Y-47548996D01*
X52674659Y-47655341D01*
X52781004Y-47784922D01*
X52781005Y-47784924D01*
X52860024Y-47932758D01*
X52908687Y-48093177D01*
X52925117Y-48260000D01*
X52908687Y-48426823D01*
X52860024Y-48587242D01*
X52789114Y-48719906D01*
X52781004Y-48735078D01*
X52674659Y-48864659D01*
X52545078Y-48971004D01*
X52545076Y-48971005D01*
X52397242Y-49050024D01*
X52236823Y-49098687D01*
X52111804Y-49111000D01*
X52028196Y-49111000D01*
X51903177Y-49098687D01*
X51742758Y-49050024D01*
X51594924Y-48971005D01*
X51594922Y-48971004D01*
X51465341Y-48864659D01*
X51358996Y-48735078D01*
X51350886Y-48719906D01*
X51279976Y-48587242D01*
X51231313Y-48426823D01*
X51214883Y-48260000D01*
X51231313Y-48093177D01*
X51279976Y-47932758D01*
X51358995Y-47784924D01*
X51358996Y-47784922D01*
X51465341Y-47655341D01*
X51594922Y-47548996D01*
X51649419Y-47519867D01*
X51742758Y-47469976D01*
X51903177Y-47421313D01*
X52028196Y-47409000D01*
X52111804Y-47409000D01*
X52236823Y-47421313D01*
X52236823Y-47421313D01*
G37*
G36*
X49696823Y-47421313D02*
G01*
X49857242Y-47469976D01*
X49950581Y-47519867D01*
X50005078Y-47548996D01*
X50134659Y-47655341D01*
X50241004Y-47784922D01*
X50241005Y-47784924D01*
X50320024Y-47932758D01*
X50368687Y-48093177D01*
X50385117Y-48260000D01*
X50368687Y-48426823D01*
X50320024Y-48587242D01*
X50249114Y-48719906D01*
X50241004Y-48735078D01*
X50134659Y-48864659D01*
X50005078Y-48971004D01*
X50005076Y-48971005D01*
X49857242Y-49050024D01*
X49696823Y-49098687D01*
X49571804Y-49111000D01*
X49488196Y-49111000D01*
X49363177Y-49098687D01*
X49202758Y-49050024D01*
X49054924Y-48971005D01*
X49054922Y-48971004D01*
X48925341Y-48864659D01*
X48818996Y-48735078D01*
X48810886Y-48719906D01*
X48739976Y-48587242D01*
X48691313Y-48426823D01*
X48674883Y-48260000D01*
X48691313Y-48093177D01*
X48739976Y-47932758D01*
X48818995Y-47784924D01*
X48818996Y-47784922D01*
X48925341Y-47655341D01*
X49054922Y-47548996D01*
X49109419Y-47519867D01*
X49202758Y-47469976D01*
X49363177Y-47421313D01*
X49488196Y-47409000D01*
X49571804Y-47409000D01*
X49696823Y-47421313D01*
X49696823Y-47421313D01*
G37*
G36*
X26836823Y-47421313D02*
G01*
X26997242Y-47469976D01*
X27090581Y-47519867D01*
X27145078Y-47548996D01*
X27274659Y-47655341D01*
X27381004Y-47784922D01*
X27381005Y-47784924D01*
X27460024Y-47932758D01*
X27508687Y-48093177D01*
X27525117Y-48260000D01*
X27508687Y-48426823D01*
X27460024Y-48587242D01*
X27389114Y-48719906D01*
X27381004Y-48735078D01*
X27274659Y-48864659D01*
X27145078Y-48971004D01*
X27145076Y-48971005D01*
X26997242Y-49050024D01*
X26836823Y-49098687D01*
X26711804Y-49111000D01*
X26628196Y-49111000D01*
X26503177Y-49098687D01*
X26342758Y-49050024D01*
X26194924Y-48971005D01*
X26194922Y-48971004D01*
X26065341Y-48864659D01*
X25958996Y-48735078D01*
X25950886Y-48719906D01*
X25879976Y-48587242D01*
X25831313Y-48426823D01*
X25814883Y-48260000D01*
X25831313Y-48093177D01*
X25879976Y-47932758D01*
X25958995Y-47784924D01*
X25958996Y-47784922D01*
X26065341Y-47655341D01*
X26194922Y-47548996D01*
X26249419Y-47519867D01*
X26342758Y-47469976D01*
X26503177Y-47421313D01*
X26628196Y-47409000D01*
X26711804Y-47409000D01*
X26836823Y-47421313D01*
X26836823Y-47421313D01*
G37*
G36*
X19216823Y-47421313D02*
G01*
X19377242Y-47469976D01*
X19470581Y-47519867D01*
X19525078Y-47548996D01*
X19654659Y-47655341D01*
X19761004Y-47784922D01*
X19761005Y-47784924D01*
X19840024Y-47932758D01*
X19888687Y-48093177D01*
X19905117Y-48260000D01*
X19888687Y-48426823D01*
X19840024Y-48587242D01*
X19769114Y-48719906D01*
X19761004Y-48735078D01*
X19654659Y-48864659D01*
X19525078Y-48971004D01*
X19525076Y-48971005D01*
X19377242Y-49050024D01*
X19216823Y-49098687D01*
X19091804Y-49111000D01*
X19008196Y-49111000D01*
X18883177Y-49098687D01*
X18722758Y-49050024D01*
X18574924Y-48971005D01*
X18574922Y-48971004D01*
X18445341Y-48864659D01*
X18338996Y-48735078D01*
X18330886Y-48719906D01*
X18259976Y-48587242D01*
X18211313Y-48426823D01*
X18194883Y-48260000D01*
X18211313Y-48093177D01*
X18259976Y-47932758D01*
X18338995Y-47784924D01*
X18338996Y-47784922D01*
X18445341Y-47655341D01*
X18574922Y-47548996D01*
X18629419Y-47519867D01*
X18722758Y-47469976D01*
X18883177Y-47421313D01*
X19008196Y-47409000D01*
X19091804Y-47409000D01*
X19216823Y-47421313D01*
X19216823Y-47421313D01*
G37*
G36*
X76273665Y-47512622D02*
G01*
X76347222Y-47519867D01*
X76488786Y-47562810D01*
X76619252Y-47632546D01*
X76647028Y-47655341D01*
X76733607Y-47726393D01*
X76799237Y-47806365D01*
X76827454Y-47840748D01*
X76897190Y-47971214D01*
X76940133Y-48112778D01*
X76954633Y-48260000D01*
X76940133Y-48407222D01*
X76897190Y-48548786D01*
X76827454Y-48679252D01*
X76803008Y-48709040D01*
X76733607Y-48793607D01*
X76649040Y-48863008D01*
X76619252Y-48887454D01*
X76488786Y-48957190D01*
X76347222Y-49000133D01*
X76273665Y-49007378D01*
X76236888Y-49011000D01*
X76163112Y-49011000D01*
X76126335Y-49007378D01*
X76052778Y-49000133D01*
X75911214Y-48957190D01*
X75780748Y-48887454D01*
X75750960Y-48863008D01*
X75666393Y-48793607D01*
X75596992Y-48709040D01*
X75572546Y-48679252D01*
X75502810Y-48548786D01*
X75459867Y-48407222D01*
X75445367Y-48260000D01*
X75459867Y-48112778D01*
X75502810Y-47971214D01*
X75572546Y-47840748D01*
X75600763Y-47806365D01*
X75666393Y-47726393D01*
X75752972Y-47655341D01*
X75780748Y-47632546D01*
X75911214Y-47562810D01*
X76052778Y-47519867D01*
X76126335Y-47512622D01*
X76163112Y-47509000D01*
X76236888Y-47509000D01*
X76273665Y-47512622D01*
X76273665Y-47512622D01*
G37*
G36*
X64551000Y-48041000D02*
G01*
X62449000Y-48041000D01*
X62449000Y-45939000D01*
X64551000Y-45939000D01*
X64551000Y-48041000D01*
X64551000Y-48041000D01*
G37*
G36*
X68806564Y-45979389D02*
G01*
X68970376Y-46047242D01*
X68997835Y-46058616D01*
X69169973Y-46173635D01*
X69316365Y-46320027D01*
X69409017Y-46458690D01*
X69431385Y-46492167D01*
X69510611Y-46683436D01*
X69551000Y-46886484D01*
X69551000Y-47093516D01*
X69510611Y-47296564D01*
X69431385Y-47487833D01*
X69431384Y-47487835D01*
X69316365Y-47659973D01*
X69169973Y-47806365D01*
X68997835Y-47921384D01*
X68997834Y-47921385D01*
X68997833Y-47921385D01*
X68806564Y-48000611D01*
X68603516Y-48041000D01*
X68396484Y-48041000D01*
X68193436Y-48000611D01*
X68002167Y-47921385D01*
X68002166Y-47921385D01*
X68002165Y-47921384D01*
X67830027Y-47806365D01*
X67683635Y-47659973D01*
X67568616Y-47487835D01*
X67568615Y-47487833D01*
X67489389Y-47296564D01*
X67449000Y-47093516D01*
X67449000Y-46886484D01*
X67489389Y-46683436D01*
X67568615Y-46492167D01*
X67590984Y-46458690D01*
X67683635Y-46320027D01*
X67830027Y-46173635D01*
X68002165Y-46058616D01*
X68029624Y-46047242D01*
X68193436Y-45979389D01*
X68396484Y-45939000D01*
X68603516Y-45939000D01*
X68806564Y-45979389D01*
X68806564Y-45979389D01*
G37*
G36*
X83081395Y-44805546D02*
G01*
X83254466Y-44877234D01*
X83260572Y-44881314D01*
X83410227Y-44981310D01*
X83542690Y-45113773D01*
X83595081Y-45192182D01*
X83646766Y-45269534D01*
X83718454Y-45442605D01*
X83755000Y-45626333D01*
X83755000Y-45813667D01*
X83718454Y-45997395D01*
X83646766Y-46170466D01*
X83630322Y-46195076D01*
X83542690Y-46326227D01*
X83410227Y-46458690D01*
X83360128Y-46492165D01*
X83254466Y-46562766D01*
X83081395Y-46634454D01*
X82897667Y-46671000D01*
X82710333Y-46671000D01*
X82526605Y-46634454D01*
X82353534Y-46562766D01*
X82247872Y-46492165D01*
X82197773Y-46458690D01*
X82065310Y-46326227D01*
X81977678Y-46195076D01*
X81961234Y-46170466D01*
X81889546Y-45997395D01*
X81853000Y-45813667D01*
X81853000Y-45626333D01*
X81889546Y-45442605D01*
X81961234Y-45269534D01*
X82012919Y-45192182D01*
X82065310Y-45113773D01*
X82197773Y-44981310D01*
X82347428Y-44881314D01*
X82353534Y-44877234D01*
X82526605Y-44805546D01*
X82710333Y-44769000D01*
X82897667Y-44769000D01*
X83081395Y-44805546D01*
X83081395Y-44805546D01*
G37*
G36*
X81215000Y-46671000D02*
G01*
X79313000Y-46671000D01*
X79313000Y-44769000D01*
X81215000Y-44769000D01*
X81215000Y-46671000D01*
X81215000Y-46671000D01*
G37*
G36*
X26836823Y-44881313D02*
G01*
X26997242Y-44929976D01*
X27093279Y-44981309D01*
X27145078Y-45008996D01*
X27274659Y-45115341D01*
X27381004Y-45244922D01*
X27381005Y-45244924D01*
X27460024Y-45392758D01*
X27508687Y-45553177D01*
X27525117Y-45720000D01*
X27508687Y-45886823D01*
X27460024Y-46047242D01*
X27453944Y-46058616D01*
X27381004Y-46195078D01*
X27274659Y-46324659D01*
X27145078Y-46431004D01*
X27145076Y-46431005D01*
X26997242Y-46510024D01*
X26836823Y-46558687D01*
X26711804Y-46571000D01*
X26628196Y-46571000D01*
X26503177Y-46558687D01*
X26342758Y-46510024D01*
X26194924Y-46431005D01*
X26194922Y-46431004D01*
X26065341Y-46324659D01*
X25958996Y-46195078D01*
X25886056Y-46058616D01*
X25879976Y-46047242D01*
X25831313Y-45886823D01*
X25814883Y-45720000D01*
X25831313Y-45553177D01*
X25879976Y-45392758D01*
X25958995Y-45244924D01*
X25958996Y-45244922D01*
X26065341Y-45115341D01*
X26194922Y-45008996D01*
X26246721Y-44981309D01*
X26342758Y-44929976D01*
X26503177Y-44881313D01*
X26628196Y-44869000D01*
X26711804Y-44869000D01*
X26836823Y-44881313D01*
X26836823Y-44881313D01*
G37*
G36*
X31916823Y-44881313D02*
G01*
X32077242Y-44929976D01*
X32173279Y-44981309D01*
X32225078Y-45008996D01*
X32354659Y-45115341D01*
X32461004Y-45244922D01*
X32461005Y-45244924D01*
X32540024Y-45392758D01*
X32588687Y-45553177D01*
X32605117Y-45720000D01*
X32588687Y-45886823D01*
X32540024Y-46047242D01*
X32533944Y-46058616D01*
X32461004Y-46195078D01*
X32354659Y-46324659D01*
X32225078Y-46431004D01*
X32225076Y-46431005D01*
X32077242Y-46510024D01*
X31916823Y-46558687D01*
X31791804Y-46571000D01*
X31708196Y-46571000D01*
X31583177Y-46558687D01*
X31422758Y-46510024D01*
X31274924Y-46431005D01*
X31274922Y-46431004D01*
X31145341Y-46324659D01*
X31038996Y-46195078D01*
X30966056Y-46058616D01*
X30959976Y-46047242D01*
X30911313Y-45886823D01*
X30894883Y-45720000D01*
X30911313Y-45553177D01*
X30959976Y-45392758D01*
X31038995Y-45244924D01*
X31038996Y-45244922D01*
X31145341Y-45115341D01*
X31274922Y-45008996D01*
X31326721Y-44981309D01*
X31422758Y-44929976D01*
X31583177Y-44881313D01*
X31708196Y-44869000D01*
X31791804Y-44869000D01*
X31916823Y-44881313D01*
X31916823Y-44881313D01*
G37*
G36*
X19216823Y-44881313D02*
G01*
X19377242Y-44929976D01*
X19473279Y-44981309D01*
X19525078Y-45008996D01*
X19654659Y-45115341D01*
X19761004Y-45244922D01*
X19761005Y-45244924D01*
X19840024Y-45392758D01*
X19888687Y-45553177D01*
X19905117Y-45720000D01*
X19888687Y-45886823D01*
X19840024Y-46047242D01*
X19833944Y-46058616D01*
X19761004Y-46195078D01*
X19654659Y-46324659D01*
X19525078Y-46431004D01*
X19525076Y-46431005D01*
X19377242Y-46510024D01*
X19216823Y-46558687D01*
X19091804Y-46571000D01*
X19008196Y-46571000D01*
X18883177Y-46558687D01*
X18722758Y-46510024D01*
X18574924Y-46431005D01*
X18574922Y-46431004D01*
X18445341Y-46324659D01*
X18338996Y-46195078D01*
X18266056Y-46058616D01*
X18259976Y-46047242D01*
X18211313Y-45886823D01*
X18194883Y-45720000D01*
X18211313Y-45553177D01*
X18259976Y-45392758D01*
X18338995Y-45244924D01*
X18338996Y-45244922D01*
X18445341Y-45115341D01*
X18574922Y-45008996D01*
X18626721Y-44981309D01*
X18722758Y-44929976D01*
X18883177Y-44881313D01*
X19008196Y-44869000D01*
X19091804Y-44869000D01*
X19216823Y-44881313D01*
X19216823Y-44881313D01*
G37*
G36*
X39536823Y-44881313D02*
G01*
X39697242Y-44929976D01*
X39793279Y-44981309D01*
X39845078Y-45008996D01*
X39974659Y-45115341D01*
X40081004Y-45244922D01*
X40081005Y-45244924D01*
X40160024Y-45392758D01*
X40208687Y-45553177D01*
X40225117Y-45720000D01*
X40208687Y-45886823D01*
X40160024Y-46047242D01*
X40153944Y-46058616D01*
X40081004Y-46195078D01*
X39974659Y-46324659D01*
X39845078Y-46431004D01*
X39845076Y-46431005D01*
X39697242Y-46510024D01*
X39536823Y-46558687D01*
X39411804Y-46571000D01*
X39328196Y-46571000D01*
X39203177Y-46558687D01*
X39042758Y-46510024D01*
X38894924Y-46431005D01*
X38894922Y-46431004D01*
X38765341Y-46324659D01*
X38658996Y-46195078D01*
X38586056Y-46058616D01*
X38579976Y-46047242D01*
X38531313Y-45886823D01*
X38514883Y-45720000D01*
X38531313Y-45553177D01*
X38579976Y-45392758D01*
X38658995Y-45244924D01*
X38658996Y-45244922D01*
X38765341Y-45115341D01*
X38894922Y-45008996D01*
X38946721Y-44981309D01*
X39042758Y-44929976D01*
X39203177Y-44881313D01*
X39328196Y-44869000D01*
X39411804Y-44869000D01*
X39536823Y-44881313D01*
X39536823Y-44881313D01*
G37*
G36*
X68806564Y-41979389D02*
G01*
X68997833Y-42058615D01*
X68997835Y-42058616D01*
X69169973Y-42173635D01*
X69316365Y-42320027D01*
X69330589Y-42341314D01*
X69431385Y-42492167D01*
X69510611Y-42683436D01*
X69551000Y-42886484D01*
X69551000Y-43093516D01*
X69510611Y-43296564D01*
X69489793Y-43346823D01*
X69431384Y-43487835D01*
X69316365Y-43659973D01*
X69169973Y-43806365D01*
X68997835Y-43921384D01*
X68997834Y-43921385D01*
X68997833Y-43921385D01*
X68806564Y-44000611D01*
X68603516Y-44041000D01*
X68396484Y-44041000D01*
X68193436Y-44000611D01*
X68002167Y-43921385D01*
X68002166Y-43921385D01*
X68002165Y-43921384D01*
X67830027Y-43806365D01*
X67683635Y-43659973D01*
X67568616Y-43487835D01*
X67510207Y-43346823D01*
X67489389Y-43296564D01*
X67449000Y-43093516D01*
X67449000Y-42886484D01*
X67489389Y-42683436D01*
X67568615Y-42492167D01*
X67669412Y-42341314D01*
X67683635Y-42320027D01*
X67830027Y-42173635D01*
X68002165Y-42058616D01*
X68002167Y-42058615D01*
X68193436Y-41979389D01*
X68396484Y-41939000D01*
X68603516Y-41939000D01*
X68806564Y-41979389D01*
X68806564Y-41979389D01*
G37*
G36*
X63806564Y-41979389D02*
G01*
X63997833Y-42058615D01*
X63997835Y-42058616D01*
X64169973Y-42173635D01*
X64316365Y-42320027D01*
X64330589Y-42341314D01*
X64431385Y-42492167D01*
X64510611Y-42683436D01*
X64551000Y-42886484D01*
X64551000Y-43093516D01*
X64510611Y-43296564D01*
X64489793Y-43346823D01*
X64431384Y-43487835D01*
X64316365Y-43659973D01*
X64169973Y-43806365D01*
X63997835Y-43921384D01*
X63997834Y-43921385D01*
X63997833Y-43921385D01*
X63806564Y-44000611D01*
X63603516Y-44041000D01*
X63396484Y-44041000D01*
X63193436Y-44000611D01*
X63002167Y-43921385D01*
X63002166Y-43921385D01*
X63002165Y-43921384D01*
X62830027Y-43806365D01*
X62683635Y-43659973D01*
X62568616Y-43487835D01*
X62510207Y-43346823D01*
X62489389Y-43296564D01*
X62449000Y-43093516D01*
X62449000Y-42886484D01*
X62489389Y-42683436D01*
X62568615Y-42492167D01*
X62669412Y-42341314D01*
X62683635Y-42320027D01*
X62830027Y-42173635D01*
X63002165Y-42058616D01*
X63002167Y-42058615D01*
X63193436Y-41979389D01*
X63396484Y-41939000D01*
X63603516Y-41939000D01*
X63806564Y-41979389D01*
X63806564Y-41979389D01*
G37*
G36*
X19216823Y-42341313D02*
G01*
X19377242Y-42389976D01*
X19504244Y-42457860D01*
X19525078Y-42468996D01*
X19654659Y-42575341D01*
X19761004Y-42704922D01*
X19761005Y-42704924D01*
X19840024Y-42852758D01*
X19888687Y-43013177D01*
X19905117Y-43180000D01*
X19888687Y-43346823D01*
X19840024Y-43507242D01*
X19769114Y-43639906D01*
X19761004Y-43655078D01*
X19654659Y-43784659D01*
X19525078Y-43891004D01*
X19525076Y-43891005D01*
X19377242Y-43970024D01*
X19216823Y-44018687D01*
X19091804Y-44031000D01*
X19008196Y-44031000D01*
X18883177Y-44018687D01*
X18722758Y-43970024D01*
X18574924Y-43891005D01*
X18574922Y-43891004D01*
X18445341Y-43784659D01*
X18338996Y-43655078D01*
X18330886Y-43639906D01*
X18259976Y-43507242D01*
X18211313Y-43346823D01*
X18194883Y-43180000D01*
X18211313Y-43013177D01*
X18259976Y-42852758D01*
X18338995Y-42704924D01*
X18338996Y-42704922D01*
X18445341Y-42575341D01*
X18574922Y-42468996D01*
X18595756Y-42457860D01*
X18722758Y-42389976D01*
X18883177Y-42341313D01*
X19008196Y-42329000D01*
X19091804Y-42329000D01*
X19216823Y-42341313D01*
X19216823Y-42341313D01*
G37*
G36*
X39536823Y-42341313D02*
G01*
X39697242Y-42389976D01*
X39824244Y-42457860D01*
X39845078Y-42468996D01*
X39974659Y-42575341D01*
X40081004Y-42704922D01*
X40081005Y-42704924D01*
X40160024Y-42852758D01*
X40208687Y-43013177D01*
X40225117Y-43180000D01*
X40208687Y-43346823D01*
X40160024Y-43507242D01*
X40089114Y-43639906D01*
X40081004Y-43655078D01*
X39974659Y-43784659D01*
X39845078Y-43891004D01*
X39845076Y-43891005D01*
X39697242Y-43970024D01*
X39536823Y-44018687D01*
X39411804Y-44031000D01*
X39328196Y-44031000D01*
X39203177Y-44018687D01*
X39042758Y-43970024D01*
X38894924Y-43891005D01*
X38894922Y-43891004D01*
X38765341Y-43784659D01*
X38658996Y-43655078D01*
X38650886Y-43639906D01*
X38579976Y-43507242D01*
X38531313Y-43346823D01*
X38514883Y-43180000D01*
X38531313Y-43013177D01*
X38579976Y-42852758D01*
X38658995Y-42704924D01*
X38658996Y-42704922D01*
X38765341Y-42575341D01*
X38894922Y-42468996D01*
X38915756Y-42457860D01*
X39042758Y-42389976D01*
X39203177Y-42341313D01*
X39328196Y-42329000D01*
X39411804Y-42329000D01*
X39536823Y-42341313D01*
X39536823Y-42341313D01*
G37*
G36*
X26836823Y-42341313D02*
G01*
X26997242Y-42389976D01*
X27124244Y-42457860D01*
X27145078Y-42468996D01*
X27274659Y-42575341D01*
X27381004Y-42704922D01*
X27381005Y-42704924D01*
X27460024Y-42852758D01*
X27508687Y-43013177D01*
X27525117Y-43180000D01*
X27508687Y-43346823D01*
X27460024Y-43507242D01*
X27389114Y-43639906D01*
X27381004Y-43655078D01*
X27274659Y-43784659D01*
X27145078Y-43891004D01*
X27145076Y-43891005D01*
X26997242Y-43970024D01*
X26836823Y-44018687D01*
X26711804Y-44031000D01*
X26628196Y-44031000D01*
X26503177Y-44018687D01*
X26342758Y-43970024D01*
X26194924Y-43891005D01*
X26194922Y-43891004D01*
X26065341Y-43784659D01*
X25958996Y-43655078D01*
X25950886Y-43639906D01*
X25879976Y-43507242D01*
X25831313Y-43346823D01*
X25814883Y-43180000D01*
X25831313Y-43013177D01*
X25879976Y-42852758D01*
X25958995Y-42704924D01*
X25958996Y-42704922D01*
X26065341Y-42575341D01*
X26194922Y-42468996D01*
X26215756Y-42457860D01*
X26342758Y-42389976D01*
X26503177Y-42341313D01*
X26628196Y-42329000D01*
X26711804Y-42329000D01*
X26836823Y-42341313D01*
X26836823Y-42341313D01*
G37*
G36*
X31916823Y-42341313D02*
G01*
X32077242Y-42389976D01*
X32204244Y-42457860D01*
X32225078Y-42468996D01*
X32354659Y-42575341D01*
X32461004Y-42704922D01*
X32461005Y-42704924D01*
X32540024Y-42852758D01*
X32588687Y-43013177D01*
X32605117Y-43180000D01*
X32588687Y-43346823D01*
X32540024Y-43507242D01*
X32469114Y-43639906D01*
X32461004Y-43655078D01*
X32354659Y-43784659D01*
X32225078Y-43891004D01*
X32225076Y-43891005D01*
X32077242Y-43970024D01*
X31916823Y-44018687D01*
X31791804Y-44031000D01*
X31708196Y-44031000D01*
X31583177Y-44018687D01*
X31422758Y-43970024D01*
X31274924Y-43891005D01*
X31274922Y-43891004D01*
X31145341Y-43784659D01*
X31038996Y-43655078D01*
X31030886Y-43639906D01*
X30959976Y-43507242D01*
X30911313Y-43346823D01*
X30894883Y-43180000D01*
X30911313Y-43013177D01*
X30959976Y-42852758D01*
X31038995Y-42704924D01*
X31038996Y-42704922D01*
X31145341Y-42575341D01*
X31274922Y-42468996D01*
X31295756Y-42457860D01*
X31422758Y-42389976D01*
X31583177Y-42341313D01*
X31708196Y-42329000D01*
X31791804Y-42329000D01*
X31916823Y-42341313D01*
X31916823Y-42341313D01*
G37*
G36*
X76419059Y-42457860D02*
G01*
X76501879Y-42492165D01*
X76555732Y-42514472D01*
X76678735Y-42596660D01*
X76783340Y-42701265D01*
X76785785Y-42704924D01*
X76865529Y-42824270D01*
X76922140Y-42960941D01*
X76951000Y-43106032D01*
X76951000Y-43253968D01*
X76922140Y-43399059D01*
X76885369Y-43487833D01*
X76865528Y-43535732D01*
X76783340Y-43658735D01*
X76678735Y-43763340D01*
X76555732Y-43845528D01*
X76555731Y-43845529D01*
X76555730Y-43845529D01*
X76419059Y-43902140D01*
X76273968Y-43931000D01*
X76126032Y-43931000D01*
X75980941Y-43902140D01*
X75844270Y-43845529D01*
X75844269Y-43845529D01*
X75844268Y-43845528D01*
X75721265Y-43763340D01*
X75616660Y-43658735D01*
X75534472Y-43535732D01*
X75514632Y-43487833D01*
X75477860Y-43399059D01*
X75449000Y-43253968D01*
X75449000Y-43106032D01*
X75477860Y-42960941D01*
X75534471Y-42824270D01*
X75614215Y-42704924D01*
X75616660Y-42701265D01*
X75721265Y-42596660D01*
X75844268Y-42514472D01*
X75898122Y-42492165D01*
X75980941Y-42457860D01*
X76126032Y-42429000D01*
X76273968Y-42429000D01*
X76419059Y-42457860D01*
X76419059Y-42457860D01*
G37*
G36*
X39536823Y-39801313D02*
G01*
X39697242Y-39849976D01*
X39790581Y-39899867D01*
X39845078Y-39928996D01*
X39974659Y-40035341D01*
X40081004Y-40164922D01*
X40081005Y-40164924D01*
X40160024Y-40312758D01*
X40208687Y-40473177D01*
X40225117Y-40640000D01*
X40208687Y-40806823D01*
X40160024Y-40967242D01*
X40089114Y-41099906D01*
X40081004Y-41115078D01*
X39974659Y-41244659D01*
X39845078Y-41351004D01*
X39845076Y-41351005D01*
X39697242Y-41430024D01*
X39536823Y-41478687D01*
X39411804Y-41491000D01*
X39328196Y-41491000D01*
X39203177Y-41478687D01*
X39042758Y-41430024D01*
X38894924Y-41351005D01*
X38894922Y-41351004D01*
X38765341Y-41244659D01*
X38658996Y-41115078D01*
X38650886Y-41099906D01*
X38579976Y-40967242D01*
X38531313Y-40806823D01*
X38514883Y-40640000D01*
X38531313Y-40473177D01*
X38579976Y-40312758D01*
X38658995Y-40164924D01*
X38658996Y-40164922D01*
X38765341Y-40035341D01*
X38894922Y-39928996D01*
X38949419Y-39899867D01*
X39042758Y-39849976D01*
X39203177Y-39801313D01*
X39328196Y-39789000D01*
X39411804Y-39789000D01*
X39536823Y-39801313D01*
X39536823Y-39801313D01*
G37*
G36*
X31916823Y-39801313D02*
G01*
X32077242Y-39849976D01*
X32170581Y-39899867D01*
X32225078Y-39928996D01*
X32354659Y-40035341D01*
X32461004Y-40164922D01*
X32461005Y-40164924D01*
X32540024Y-40312758D01*
X32588687Y-40473177D01*
X32605117Y-40640000D01*
X32588687Y-40806823D01*
X32540024Y-40967242D01*
X32469114Y-41099906D01*
X32461004Y-41115078D01*
X32354659Y-41244659D01*
X32225078Y-41351004D01*
X32225076Y-41351005D01*
X32077242Y-41430024D01*
X31916823Y-41478687D01*
X31791804Y-41491000D01*
X31708196Y-41491000D01*
X31583177Y-41478687D01*
X31422758Y-41430024D01*
X31274924Y-41351005D01*
X31274922Y-41351004D01*
X31145341Y-41244659D01*
X31038996Y-41115078D01*
X31030886Y-41099906D01*
X30959976Y-40967242D01*
X30911313Y-40806823D01*
X30894883Y-40640000D01*
X30911313Y-40473177D01*
X30959976Y-40312758D01*
X31038995Y-40164924D01*
X31038996Y-40164922D01*
X31145341Y-40035341D01*
X31274922Y-39928996D01*
X31329419Y-39899867D01*
X31422758Y-39849976D01*
X31583177Y-39801313D01*
X31708196Y-39789000D01*
X31791804Y-39789000D01*
X31916823Y-39801313D01*
X31916823Y-39801313D01*
G37*
G36*
X52236823Y-39801313D02*
G01*
X52397242Y-39849976D01*
X52490581Y-39899867D01*
X52545078Y-39928996D01*
X52674659Y-40035341D01*
X52781004Y-40164922D01*
X52781005Y-40164924D01*
X52860024Y-40312758D01*
X52908687Y-40473177D01*
X52925117Y-40640000D01*
X52908687Y-40806823D01*
X52860024Y-40967242D01*
X52789114Y-41099906D01*
X52781004Y-41115078D01*
X52674659Y-41244659D01*
X52545078Y-41351004D01*
X52545076Y-41351005D01*
X52397242Y-41430024D01*
X52236823Y-41478687D01*
X52111804Y-41491000D01*
X52028196Y-41491000D01*
X51903177Y-41478687D01*
X51742758Y-41430024D01*
X51594924Y-41351005D01*
X51594922Y-41351004D01*
X51465341Y-41244659D01*
X51358996Y-41115078D01*
X51350886Y-41099906D01*
X51279976Y-40967242D01*
X51231313Y-40806823D01*
X51214883Y-40640000D01*
X51231313Y-40473177D01*
X51279976Y-40312758D01*
X51358995Y-40164924D01*
X51358996Y-40164922D01*
X51465341Y-40035341D01*
X51594922Y-39928996D01*
X51649419Y-39899867D01*
X51742758Y-39849976D01*
X51903177Y-39801313D01*
X52028196Y-39789000D01*
X52111804Y-39789000D01*
X52236823Y-39801313D01*
X52236823Y-39801313D01*
G37*
G36*
X49696823Y-39801313D02*
G01*
X49857242Y-39849976D01*
X49950581Y-39899867D01*
X50005078Y-39928996D01*
X50134659Y-40035341D01*
X50241004Y-40164922D01*
X50241005Y-40164924D01*
X50320024Y-40312758D01*
X50368687Y-40473177D01*
X50385117Y-40640000D01*
X50368687Y-40806823D01*
X50320024Y-40967242D01*
X50249114Y-41099906D01*
X50241004Y-41115078D01*
X50134659Y-41244659D01*
X50005078Y-41351004D01*
X50005076Y-41351005D01*
X49857242Y-41430024D01*
X49696823Y-41478687D01*
X49571804Y-41491000D01*
X49488196Y-41491000D01*
X49363177Y-41478687D01*
X49202758Y-41430024D01*
X49054924Y-41351005D01*
X49054922Y-41351004D01*
X48925341Y-41244659D01*
X48818996Y-41115078D01*
X48810886Y-41099906D01*
X48739976Y-40967242D01*
X48691313Y-40806823D01*
X48674883Y-40640000D01*
X48691313Y-40473177D01*
X48739976Y-40312758D01*
X48818995Y-40164924D01*
X48818996Y-40164922D01*
X48925341Y-40035341D01*
X49054922Y-39928996D01*
X49109419Y-39899867D01*
X49202758Y-39849976D01*
X49363177Y-39801313D01*
X49488196Y-39789000D01*
X49571804Y-39789000D01*
X49696823Y-39801313D01*
X49696823Y-39801313D01*
G37*
G36*
X47156823Y-39801313D02*
G01*
X47317242Y-39849976D01*
X47410581Y-39899867D01*
X47465078Y-39928996D01*
X47594659Y-40035341D01*
X47701004Y-40164922D01*
X47701005Y-40164924D01*
X47780024Y-40312758D01*
X47828687Y-40473177D01*
X47845117Y-40640000D01*
X47828687Y-40806823D01*
X47780024Y-40967242D01*
X47709114Y-41099906D01*
X47701004Y-41115078D01*
X47594659Y-41244659D01*
X47465078Y-41351004D01*
X47465076Y-41351005D01*
X47317242Y-41430024D01*
X47156823Y-41478687D01*
X47031804Y-41491000D01*
X46948196Y-41491000D01*
X46823177Y-41478687D01*
X46662758Y-41430024D01*
X46514924Y-41351005D01*
X46514922Y-41351004D01*
X46385341Y-41244659D01*
X46278996Y-41115078D01*
X46270886Y-41099906D01*
X46199976Y-40967242D01*
X46151313Y-40806823D01*
X46134883Y-40640000D01*
X46151313Y-40473177D01*
X46199976Y-40312758D01*
X46278995Y-40164924D01*
X46278996Y-40164922D01*
X46385341Y-40035341D01*
X46514922Y-39928996D01*
X46569419Y-39899867D01*
X46662758Y-39849976D01*
X46823177Y-39801313D01*
X46948196Y-39789000D01*
X47031804Y-39789000D01*
X47156823Y-39801313D01*
X47156823Y-39801313D01*
G37*
G36*
X54776823Y-39801313D02*
G01*
X54937242Y-39849976D01*
X55030581Y-39899867D01*
X55085078Y-39928996D01*
X55214659Y-40035341D01*
X55321004Y-40164922D01*
X55321005Y-40164924D01*
X55400024Y-40312758D01*
X55448687Y-40473177D01*
X55465117Y-40640000D01*
X55448687Y-40806823D01*
X55400024Y-40967242D01*
X55329114Y-41099906D01*
X55321004Y-41115078D01*
X55214659Y-41244659D01*
X55085078Y-41351004D01*
X55085076Y-41351005D01*
X54937242Y-41430024D01*
X54776823Y-41478687D01*
X54651804Y-41491000D01*
X54568196Y-41491000D01*
X54443177Y-41478687D01*
X54282758Y-41430024D01*
X54134924Y-41351005D01*
X54134922Y-41351004D01*
X54005341Y-41244659D01*
X53898996Y-41115078D01*
X53890886Y-41099906D01*
X53819976Y-40967242D01*
X53771313Y-40806823D01*
X53754883Y-40640000D01*
X53771313Y-40473177D01*
X53819976Y-40312758D01*
X53898995Y-40164924D01*
X53898996Y-40164922D01*
X54005341Y-40035341D01*
X54134922Y-39928996D01*
X54189419Y-39899867D01*
X54282758Y-39849976D01*
X54443177Y-39801313D01*
X54568196Y-39789000D01*
X54651804Y-39789000D01*
X54776823Y-39801313D01*
X54776823Y-39801313D01*
G37*
G36*
X26836823Y-39801313D02*
G01*
X26997242Y-39849976D01*
X27090581Y-39899867D01*
X27145078Y-39928996D01*
X27274659Y-40035341D01*
X27381004Y-40164922D01*
X27381005Y-40164924D01*
X27460024Y-40312758D01*
X27508687Y-40473177D01*
X27525117Y-40640000D01*
X27508687Y-40806823D01*
X27460024Y-40967242D01*
X27389114Y-41099906D01*
X27381004Y-41115078D01*
X27274659Y-41244659D01*
X27145078Y-41351004D01*
X27145076Y-41351005D01*
X26997242Y-41430024D01*
X26836823Y-41478687D01*
X26711804Y-41491000D01*
X26628196Y-41491000D01*
X26503177Y-41478687D01*
X26342758Y-41430024D01*
X26194924Y-41351005D01*
X26194922Y-41351004D01*
X26065341Y-41244659D01*
X25958996Y-41115078D01*
X25950886Y-41099906D01*
X25879976Y-40967242D01*
X25831313Y-40806823D01*
X25814883Y-40640000D01*
X25831313Y-40473177D01*
X25879976Y-40312758D01*
X25958995Y-40164924D01*
X25958996Y-40164922D01*
X26065341Y-40035341D01*
X26194922Y-39928996D01*
X26249419Y-39899867D01*
X26342758Y-39849976D01*
X26503177Y-39801313D01*
X26628196Y-39789000D01*
X26711804Y-39789000D01*
X26836823Y-39801313D01*
X26836823Y-39801313D01*
G37*
G36*
X19216823Y-39801313D02*
G01*
X19377242Y-39849976D01*
X19470581Y-39899867D01*
X19525078Y-39928996D01*
X19654659Y-40035341D01*
X19761004Y-40164922D01*
X19761005Y-40164924D01*
X19840024Y-40312758D01*
X19888687Y-40473177D01*
X19905117Y-40640000D01*
X19888687Y-40806823D01*
X19840024Y-40967242D01*
X19769114Y-41099906D01*
X19761004Y-41115078D01*
X19654659Y-41244659D01*
X19525078Y-41351004D01*
X19525076Y-41351005D01*
X19377242Y-41430024D01*
X19216823Y-41478687D01*
X19091804Y-41491000D01*
X19008196Y-41491000D01*
X18883177Y-41478687D01*
X18722758Y-41430024D01*
X18574924Y-41351005D01*
X18574922Y-41351004D01*
X18445341Y-41244659D01*
X18338996Y-41115078D01*
X18330886Y-41099906D01*
X18259976Y-40967242D01*
X18211313Y-40806823D01*
X18194883Y-40640000D01*
X18211313Y-40473177D01*
X18259976Y-40312758D01*
X18338995Y-40164924D01*
X18338996Y-40164922D01*
X18445341Y-40035341D01*
X18574922Y-39928996D01*
X18629419Y-39899867D01*
X18722758Y-39849976D01*
X18883177Y-39801313D01*
X19008196Y-39789000D01*
X19091804Y-39789000D01*
X19216823Y-39801313D01*
X19216823Y-39801313D01*
G37*
G36*
X76273665Y-39892622D02*
G01*
X76347222Y-39899867D01*
X76488786Y-39942810D01*
X76619252Y-40012546D01*
X76647028Y-40035341D01*
X76733607Y-40106393D01*
X76803008Y-40190960D01*
X76827454Y-40220748D01*
X76897190Y-40351214D01*
X76940133Y-40492778D01*
X76954633Y-40640000D01*
X76940133Y-40787222D01*
X76897190Y-40928786D01*
X76827454Y-41059252D01*
X76803008Y-41089040D01*
X76733607Y-41173607D01*
X76649040Y-41243008D01*
X76619252Y-41267454D01*
X76488786Y-41337190D01*
X76347222Y-41380133D01*
X76273665Y-41387378D01*
X76236888Y-41391000D01*
X76163112Y-41391000D01*
X76126335Y-41387378D01*
X76052778Y-41380133D01*
X75911214Y-41337190D01*
X75780748Y-41267454D01*
X75750960Y-41243008D01*
X75666393Y-41173607D01*
X75596992Y-41089040D01*
X75572546Y-41059252D01*
X75502810Y-40928786D01*
X75459867Y-40787222D01*
X75445367Y-40640000D01*
X75459867Y-40492778D01*
X75502810Y-40351214D01*
X75572546Y-40220748D01*
X75596992Y-40190960D01*
X75666393Y-40106393D01*
X75752972Y-40035341D01*
X75780748Y-40012546D01*
X75911214Y-39942810D01*
X76052778Y-39899867D01*
X76126335Y-39892622D01*
X76163112Y-39889000D01*
X76236888Y-39889000D01*
X76273665Y-39892622D01*
X76273665Y-39892622D01*
G37*
G36*
X63806564Y-37979389D02*
G01*
X63997833Y-38058615D01*
X63997835Y-38058616D01*
X64059770Y-38100000D01*
X64169973Y-38173635D01*
X64316365Y-38320027D01*
X64431385Y-38492167D01*
X64510611Y-38683436D01*
X64551000Y-38886484D01*
X64551000Y-39093516D01*
X64510611Y-39296564D01*
X64431385Y-39487833D01*
X64431384Y-39487835D01*
X64316365Y-39659973D01*
X64169973Y-39806365D01*
X63997835Y-39921384D01*
X63997834Y-39921385D01*
X63997833Y-39921385D01*
X63806564Y-40000611D01*
X63603516Y-40041000D01*
X63396484Y-40041000D01*
X63193436Y-40000611D01*
X63002167Y-39921385D01*
X63002166Y-39921385D01*
X63002165Y-39921384D01*
X62830027Y-39806365D01*
X62683635Y-39659973D01*
X62568616Y-39487835D01*
X62568615Y-39487833D01*
X62489389Y-39296564D01*
X62449000Y-39093516D01*
X62449000Y-38886484D01*
X62489389Y-38683436D01*
X62568615Y-38492167D01*
X62683635Y-38320027D01*
X62830027Y-38173635D01*
X62940230Y-38100000D01*
X63002165Y-38058616D01*
X63002167Y-38058615D01*
X63193436Y-37979389D01*
X63396484Y-37939000D01*
X63603516Y-37939000D01*
X63806564Y-37979389D01*
X63806564Y-37979389D01*
G37*
G36*
X68806564Y-37979389D02*
G01*
X68997833Y-38058615D01*
X68997835Y-38058616D01*
X69059770Y-38100000D01*
X69169973Y-38173635D01*
X69316365Y-38320027D01*
X69431385Y-38492167D01*
X69510611Y-38683436D01*
X69551000Y-38886484D01*
X69551000Y-39093516D01*
X69510611Y-39296564D01*
X69431385Y-39487833D01*
X69431384Y-39487835D01*
X69316365Y-39659973D01*
X69169973Y-39806365D01*
X68997835Y-39921384D01*
X68997834Y-39921385D01*
X68997833Y-39921385D01*
X68806564Y-40000611D01*
X68603516Y-40041000D01*
X68396484Y-40041000D01*
X68193436Y-40000611D01*
X68002167Y-39921385D01*
X68002166Y-39921385D01*
X68002165Y-39921384D01*
X67830027Y-39806365D01*
X67683635Y-39659973D01*
X67568616Y-39487835D01*
X67568615Y-39487833D01*
X67489389Y-39296564D01*
X67449000Y-39093516D01*
X67449000Y-38886484D01*
X67489389Y-38683436D01*
X67568615Y-38492167D01*
X67683635Y-38320027D01*
X67830027Y-38173635D01*
X67940230Y-38100000D01*
X68002165Y-38058616D01*
X68002167Y-38058615D01*
X68193436Y-37979389D01*
X68396484Y-37939000D01*
X68603516Y-37939000D01*
X68806564Y-37979389D01*
X68806564Y-37979389D01*
G37*
G36*
X81215000Y-39051000D02*
G01*
X79313000Y-39051000D01*
X79313000Y-37149000D01*
X81215000Y-37149000D01*
X81215000Y-39051000D01*
X81215000Y-39051000D01*
G37*
G36*
X83081395Y-37185546D02*
G01*
X83254466Y-37257234D01*
X83260572Y-37261314D01*
X83410227Y-37361310D01*
X83542690Y-37493773D01*
X83595081Y-37572182D01*
X83646766Y-37649534D01*
X83718454Y-37822605D01*
X83755000Y-38006333D01*
X83755000Y-38193667D01*
X83718454Y-38377395D01*
X83646766Y-38550466D01*
X83646765Y-38550467D01*
X83542690Y-38706227D01*
X83410227Y-38838690D01*
X83338698Y-38886484D01*
X83254466Y-38942766D01*
X83081395Y-39014454D01*
X82897667Y-39051000D01*
X82710333Y-39051000D01*
X82526605Y-39014454D01*
X82353534Y-38942766D01*
X82269302Y-38886484D01*
X82197773Y-38838690D01*
X82065310Y-38706227D01*
X81961235Y-38550467D01*
X81961234Y-38550466D01*
X81889546Y-38377395D01*
X81853000Y-38193667D01*
X81853000Y-38006333D01*
X81889546Y-37822605D01*
X81961234Y-37649534D01*
X82012919Y-37572182D01*
X82065310Y-37493773D01*
X82197773Y-37361310D01*
X82347428Y-37261314D01*
X82353534Y-37257234D01*
X82526605Y-37185546D01*
X82710333Y-37149000D01*
X82897667Y-37149000D01*
X83081395Y-37185546D01*
X83081395Y-37185546D01*
G37*
G36*
X19216823Y-37261313D02*
G01*
X19377242Y-37309976D01*
X19473279Y-37361309D01*
X19525078Y-37388996D01*
X19654659Y-37495341D01*
X19761004Y-37624922D01*
X19761005Y-37624924D01*
X19840024Y-37772758D01*
X19888687Y-37933177D01*
X19905117Y-38100000D01*
X19888687Y-38266823D01*
X19840024Y-38427242D01*
X19805322Y-38492165D01*
X19761004Y-38575078D01*
X19654659Y-38704659D01*
X19525078Y-38811004D01*
X19525076Y-38811005D01*
X19377242Y-38890024D01*
X19216823Y-38938687D01*
X19091804Y-38951000D01*
X19008196Y-38951000D01*
X18883177Y-38938687D01*
X18722758Y-38890024D01*
X18574924Y-38811005D01*
X18574922Y-38811004D01*
X18445341Y-38704659D01*
X18338996Y-38575078D01*
X18294678Y-38492165D01*
X18259976Y-38427242D01*
X18211313Y-38266823D01*
X18194883Y-38100000D01*
X18211313Y-37933177D01*
X18259976Y-37772758D01*
X18338995Y-37624924D01*
X18338996Y-37624922D01*
X18445341Y-37495341D01*
X18574922Y-37388996D01*
X18626721Y-37361309D01*
X18722758Y-37309976D01*
X18883177Y-37261313D01*
X19008196Y-37249000D01*
X19091804Y-37249000D01*
X19216823Y-37261313D01*
X19216823Y-37261313D01*
G37*
G36*
X26836823Y-37261313D02*
G01*
X26997242Y-37309976D01*
X27093279Y-37361309D01*
X27145078Y-37388996D01*
X27274659Y-37495341D01*
X27381004Y-37624922D01*
X27381005Y-37624924D01*
X27460024Y-37772758D01*
X27508687Y-37933177D01*
X27525117Y-38100000D01*
X27508687Y-38266823D01*
X27460024Y-38427242D01*
X27425322Y-38492165D01*
X27381004Y-38575078D01*
X27274659Y-38704659D01*
X27145078Y-38811004D01*
X27145076Y-38811005D01*
X26997242Y-38890024D01*
X26836823Y-38938687D01*
X26711804Y-38951000D01*
X26628196Y-38951000D01*
X26503177Y-38938687D01*
X26342758Y-38890024D01*
X26194924Y-38811005D01*
X26194922Y-38811004D01*
X26065341Y-38704659D01*
X25958996Y-38575078D01*
X25914678Y-38492165D01*
X25879976Y-38427242D01*
X25831313Y-38266823D01*
X25814883Y-38100000D01*
X25831313Y-37933177D01*
X25879976Y-37772758D01*
X25958995Y-37624924D01*
X25958996Y-37624922D01*
X26065341Y-37495341D01*
X26194922Y-37388996D01*
X26246721Y-37361309D01*
X26342758Y-37309976D01*
X26503177Y-37261313D01*
X26628196Y-37249000D01*
X26711804Y-37249000D01*
X26836823Y-37261313D01*
X26836823Y-37261313D01*
G37*
G36*
X31916823Y-37261313D02*
G01*
X32077242Y-37309976D01*
X32173279Y-37361309D01*
X32225078Y-37388996D01*
X32354659Y-37495341D01*
X32461004Y-37624922D01*
X32461005Y-37624924D01*
X32540024Y-37772758D01*
X32588687Y-37933177D01*
X32605117Y-38100000D01*
X32588687Y-38266823D01*
X32540024Y-38427242D01*
X32505322Y-38492165D01*
X32461004Y-38575078D01*
X32354659Y-38704659D01*
X32225078Y-38811004D01*
X32225076Y-38811005D01*
X32077242Y-38890024D01*
X31916823Y-38938687D01*
X31791804Y-38951000D01*
X31708196Y-38951000D01*
X31583177Y-38938687D01*
X31422758Y-38890024D01*
X31274924Y-38811005D01*
X31274922Y-38811004D01*
X31145341Y-38704659D01*
X31038996Y-38575078D01*
X30994678Y-38492165D01*
X30959976Y-38427242D01*
X30911313Y-38266823D01*
X30894883Y-38100000D01*
X30911313Y-37933177D01*
X30959976Y-37772758D01*
X31038995Y-37624924D01*
X31038996Y-37624922D01*
X31145341Y-37495341D01*
X31274922Y-37388996D01*
X31326721Y-37361309D01*
X31422758Y-37309976D01*
X31583177Y-37261313D01*
X31708196Y-37249000D01*
X31791804Y-37249000D01*
X31916823Y-37261313D01*
X31916823Y-37261313D01*
G37*
G36*
X39536823Y-37261313D02*
G01*
X39697242Y-37309976D01*
X39793279Y-37361309D01*
X39845078Y-37388996D01*
X39974659Y-37495341D01*
X40081004Y-37624922D01*
X40081005Y-37624924D01*
X40160024Y-37772758D01*
X40208687Y-37933177D01*
X40225117Y-38100000D01*
X40208687Y-38266823D01*
X40160024Y-38427242D01*
X40125322Y-38492165D01*
X40081004Y-38575078D01*
X39974659Y-38704659D01*
X39845078Y-38811004D01*
X39845076Y-38811005D01*
X39697242Y-38890024D01*
X39536823Y-38938687D01*
X39411804Y-38951000D01*
X39328196Y-38951000D01*
X39203177Y-38938687D01*
X39042758Y-38890024D01*
X38894924Y-38811005D01*
X38894922Y-38811004D01*
X38765341Y-38704659D01*
X38658996Y-38575078D01*
X38614678Y-38492165D01*
X38579976Y-38427242D01*
X38531313Y-38266823D01*
X38514883Y-38100000D01*
X38531313Y-37933177D01*
X38579976Y-37772758D01*
X38658995Y-37624924D01*
X38658996Y-37624922D01*
X38765341Y-37495341D01*
X38894922Y-37388996D01*
X38946721Y-37361309D01*
X39042758Y-37309976D01*
X39203177Y-37261313D01*
X39328196Y-37249000D01*
X39411804Y-37249000D01*
X39536823Y-37261313D01*
X39536823Y-37261313D01*
G37*
G36*
X26836823Y-34721313D02*
G01*
X26967380Y-34760917D01*
X26993145Y-34768733D01*
X26997242Y-34769976D01*
X27097578Y-34823607D01*
X27145078Y-34848996D01*
X27274659Y-34955341D01*
X27381004Y-35084922D01*
X27381005Y-35084924D01*
X27460024Y-35232758D01*
X27508687Y-35393177D01*
X27525117Y-35560000D01*
X27508687Y-35726823D01*
X27460024Y-35887242D01*
X27389114Y-36019906D01*
X27381004Y-36035078D01*
X27274659Y-36164659D01*
X27145078Y-36271004D01*
X27145076Y-36271005D01*
X26997242Y-36350024D01*
X26836823Y-36398687D01*
X26711804Y-36411000D01*
X26628196Y-36411000D01*
X26503177Y-36398687D01*
X26342758Y-36350024D01*
X26194924Y-36271005D01*
X26194922Y-36271004D01*
X26065341Y-36164659D01*
X25958996Y-36035078D01*
X25950886Y-36019906D01*
X25879976Y-35887242D01*
X25831313Y-35726823D01*
X25814883Y-35560000D01*
X25831313Y-35393177D01*
X25879976Y-35232758D01*
X25958995Y-35084924D01*
X25958996Y-35084922D01*
X26065341Y-34955341D01*
X26194922Y-34848996D01*
X26242422Y-34823607D01*
X26342758Y-34769976D01*
X26346856Y-34768733D01*
X26372620Y-34760917D01*
X26503177Y-34721313D01*
X26628196Y-34709000D01*
X26711804Y-34709000D01*
X26836823Y-34721313D01*
X26836823Y-34721313D01*
G37*
G36*
X19216823Y-34721313D02*
G01*
X19347380Y-34760917D01*
X19373145Y-34768733D01*
X19377242Y-34769976D01*
X19477578Y-34823607D01*
X19525078Y-34848996D01*
X19654659Y-34955341D01*
X19761004Y-35084922D01*
X19761005Y-35084924D01*
X19840024Y-35232758D01*
X19888687Y-35393177D01*
X19905117Y-35560000D01*
X19888687Y-35726823D01*
X19840024Y-35887242D01*
X19769114Y-36019906D01*
X19761004Y-36035078D01*
X19654659Y-36164659D01*
X19525078Y-36271004D01*
X19525076Y-36271005D01*
X19377242Y-36350024D01*
X19216823Y-36398687D01*
X19091804Y-36411000D01*
X19008196Y-36411000D01*
X18883177Y-36398687D01*
X18722758Y-36350024D01*
X18574924Y-36271005D01*
X18574922Y-36271004D01*
X18445341Y-36164659D01*
X18338996Y-36035078D01*
X18330886Y-36019906D01*
X18259976Y-35887242D01*
X18211313Y-35726823D01*
X18194883Y-35560000D01*
X18211313Y-35393177D01*
X18259976Y-35232758D01*
X18338995Y-35084924D01*
X18338996Y-35084922D01*
X18445341Y-34955341D01*
X18574922Y-34848996D01*
X18622422Y-34823607D01*
X18722758Y-34769976D01*
X18726856Y-34768733D01*
X18752620Y-34760917D01*
X18883177Y-34721313D01*
X19008196Y-34709000D01*
X19091804Y-34709000D01*
X19216823Y-34721313D01*
X19216823Y-34721313D01*
G37*
G36*
X39536823Y-34721313D02*
G01*
X39667380Y-34760917D01*
X39693145Y-34768733D01*
X39697242Y-34769976D01*
X39797578Y-34823607D01*
X39845078Y-34848996D01*
X39974659Y-34955341D01*
X40081004Y-35084922D01*
X40081005Y-35084924D01*
X40160024Y-35232758D01*
X40208687Y-35393177D01*
X40225117Y-35560000D01*
X40208687Y-35726823D01*
X40160024Y-35887242D01*
X40089114Y-36019906D01*
X40081004Y-36035078D01*
X39974659Y-36164659D01*
X39845078Y-36271004D01*
X39845076Y-36271005D01*
X39697242Y-36350024D01*
X39536823Y-36398687D01*
X39411804Y-36411000D01*
X39328196Y-36411000D01*
X39203177Y-36398687D01*
X39042758Y-36350024D01*
X38894924Y-36271005D01*
X38894922Y-36271004D01*
X38765341Y-36164659D01*
X38658996Y-36035078D01*
X38650886Y-36019906D01*
X38579976Y-35887242D01*
X38531313Y-35726823D01*
X38514883Y-35560000D01*
X38531313Y-35393177D01*
X38579976Y-35232758D01*
X38658995Y-35084924D01*
X38658996Y-35084922D01*
X38765341Y-34955341D01*
X38894922Y-34848996D01*
X38942422Y-34823607D01*
X39042758Y-34769976D01*
X39046856Y-34768733D01*
X39072620Y-34760917D01*
X39203177Y-34721313D01*
X39328196Y-34709000D01*
X39411804Y-34709000D01*
X39536823Y-34721313D01*
X39536823Y-34721313D01*
G37*
G36*
X31916823Y-34721313D02*
G01*
X32047380Y-34760917D01*
X32073145Y-34768733D01*
X32077242Y-34769976D01*
X32177578Y-34823607D01*
X32225078Y-34848996D01*
X32354659Y-34955341D01*
X32461004Y-35084922D01*
X32461005Y-35084924D01*
X32540024Y-35232758D01*
X32588687Y-35393177D01*
X32605117Y-35560000D01*
X32588687Y-35726823D01*
X32540024Y-35887242D01*
X32469114Y-36019906D01*
X32461004Y-36035078D01*
X32354659Y-36164659D01*
X32225078Y-36271004D01*
X32225076Y-36271005D01*
X32077242Y-36350024D01*
X31916823Y-36398687D01*
X31791804Y-36411000D01*
X31708196Y-36411000D01*
X31583177Y-36398687D01*
X31422758Y-36350024D01*
X31274924Y-36271005D01*
X31274922Y-36271004D01*
X31145341Y-36164659D01*
X31038996Y-36035078D01*
X31030886Y-36019906D01*
X30959976Y-35887242D01*
X30911313Y-35726823D01*
X30894883Y-35560000D01*
X30911313Y-35393177D01*
X30959976Y-35232758D01*
X31038995Y-35084924D01*
X31038996Y-35084922D01*
X31145341Y-34955341D01*
X31274922Y-34848996D01*
X31322422Y-34823607D01*
X31422758Y-34769976D01*
X31426856Y-34768733D01*
X31452620Y-34760917D01*
X31583177Y-34721313D01*
X31708196Y-34709000D01*
X31791804Y-34709000D01*
X31916823Y-34721313D01*
X31916823Y-34721313D01*
G37*
G36*
X76419059Y-34837860D02*
G01*
X76504718Y-34873341D01*
X76555732Y-34894472D01*
X76678735Y-34976660D01*
X76783340Y-35081265D01*
X76865528Y-35204268D01*
X76922140Y-35340941D01*
X76951000Y-35486033D01*
X76951000Y-35633967D01*
X76922140Y-35779059D01*
X76865528Y-35915732D01*
X76783340Y-36038735D01*
X76678735Y-36143340D01*
X76555732Y-36225528D01*
X76555731Y-36225529D01*
X76555730Y-36225529D01*
X76419059Y-36282140D01*
X76273968Y-36311000D01*
X76126032Y-36311000D01*
X75980941Y-36282140D01*
X75844270Y-36225529D01*
X75844269Y-36225529D01*
X75844268Y-36225528D01*
X75721265Y-36143340D01*
X75616660Y-36038735D01*
X75534472Y-35915732D01*
X75477860Y-35779059D01*
X75449000Y-35633967D01*
X75449000Y-35486033D01*
X75477860Y-35340941D01*
X75534472Y-35204268D01*
X75616660Y-35081265D01*
X75721265Y-34976660D01*
X75844268Y-34894472D01*
X75895283Y-34873341D01*
X75980941Y-34837860D01*
X76126032Y-34809000D01*
X76273968Y-34809000D01*
X76419059Y-34837860D01*
X76419059Y-34837860D01*
G37*
G36*
X57223665Y-33542622D02*
G01*
X57297222Y-33549867D01*
X57438786Y-33592810D01*
X57569252Y-33662546D01*
X57599040Y-33686992D01*
X57683607Y-33756393D01*
X57753008Y-33840960D01*
X57777454Y-33870748D01*
X57847190Y-34001214D01*
X57890133Y-34142778D01*
X57904633Y-34290000D01*
X57890133Y-34437222D01*
X57847190Y-34578786D01*
X57777454Y-34709252D01*
X57767555Y-34721314D01*
X57683607Y-34823607D01*
X57623004Y-34873341D01*
X57569252Y-34917454D01*
X57438786Y-34987190D01*
X57297222Y-35030133D01*
X57223665Y-35037378D01*
X57186888Y-35041000D01*
X57113112Y-35041000D01*
X57076335Y-35037378D01*
X57002778Y-35030133D01*
X56861214Y-34987190D01*
X56730748Y-34917454D01*
X56676996Y-34873341D01*
X56616393Y-34823607D01*
X56532445Y-34721314D01*
X56522546Y-34709252D01*
X56452810Y-34578786D01*
X56409867Y-34437222D01*
X56395367Y-34290000D01*
X56409867Y-34142778D01*
X56452810Y-34001214D01*
X56522546Y-33870748D01*
X56546992Y-33840960D01*
X56616393Y-33756393D01*
X56700960Y-33686992D01*
X56730748Y-33662546D01*
X56861214Y-33592810D01*
X57002778Y-33549867D01*
X57076335Y-33542622D01*
X57113112Y-33539000D01*
X57186888Y-33539000D01*
X57223665Y-33542622D01*
X57223665Y-33542622D01*
G37*
G36*
X52289059Y-33567860D02*
G01*
X52349294Y-33592810D01*
X52425732Y-33624472D01*
X52548735Y-33706660D01*
X52653340Y-33811265D01*
X52735528Y-33934268D01*
X52792140Y-34070941D01*
X52821000Y-34216033D01*
X52821000Y-34363967D01*
X52792140Y-34509059D01*
X52735528Y-34645732D01*
X52653340Y-34768735D01*
X52548735Y-34873340D01*
X52425732Y-34955528D01*
X52425731Y-34955529D01*
X52425730Y-34955529D01*
X52289059Y-35012140D01*
X52143968Y-35041000D01*
X51996032Y-35041000D01*
X51850941Y-35012140D01*
X51714270Y-34955529D01*
X51714269Y-34955529D01*
X51714268Y-34955528D01*
X51591265Y-34873340D01*
X51486660Y-34768735D01*
X51404472Y-34645732D01*
X51347860Y-34509059D01*
X51319000Y-34363967D01*
X51319000Y-34216033D01*
X51347860Y-34070941D01*
X51404472Y-33934268D01*
X51486660Y-33811265D01*
X51591265Y-33706660D01*
X51714268Y-33624472D01*
X51790707Y-33592810D01*
X51850941Y-33567860D01*
X51996032Y-33539000D01*
X52143968Y-33539000D01*
X52289059Y-33567860D01*
X52289059Y-33567860D01*
G37*
G36*
X48333665Y-33542622D02*
G01*
X48407222Y-33549867D01*
X48548786Y-33592810D01*
X48679252Y-33662546D01*
X48709040Y-33686992D01*
X48793607Y-33756393D01*
X48863008Y-33840960D01*
X48887454Y-33870748D01*
X48957190Y-34001214D01*
X49000133Y-34142778D01*
X49014633Y-34290000D01*
X49000133Y-34437222D01*
X48957190Y-34578786D01*
X48887454Y-34709252D01*
X48877555Y-34721314D01*
X48793607Y-34823607D01*
X48733004Y-34873341D01*
X48679252Y-34917454D01*
X48548786Y-34987190D01*
X48407222Y-35030133D01*
X48333665Y-35037378D01*
X48296888Y-35041000D01*
X48223112Y-35041000D01*
X48186335Y-35037378D01*
X48112778Y-35030133D01*
X47971214Y-34987190D01*
X47840748Y-34917454D01*
X47786996Y-34873341D01*
X47726393Y-34823607D01*
X47642445Y-34721314D01*
X47632546Y-34709252D01*
X47562810Y-34578786D01*
X47519867Y-34437222D01*
X47505367Y-34290000D01*
X47519867Y-34142778D01*
X47562810Y-34001214D01*
X47632546Y-33870748D01*
X47656992Y-33840960D01*
X47726393Y-33756393D01*
X47810960Y-33686992D01*
X47840748Y-33662546D01*
X47971214Y-33592810D01*
X48112778Y-33549867D01*
X48186335Y-33542622D01*
X48223112Y-33539000D01*
X48296888Y-33539000D01*
X48333665Y-33542622D01*
X48333665Y-33542622D01*
G37*
G36*
X43399059Y-33567860D02*
G01*
X43459294Y-33592810D01*
X43535732Y-33624472D01*
X43658735Y-33706660D01*
X43763340Y-33811265D01*
X43845528Y-33934268D01*
X43902140Y-34070941D01*
X43931000Y-34216033D01*
X43931000Y-34363967D01*
X43902140Y-34509059D01*
X43845528Y-34645732D01*
X43763340Y-34768735D01*
X43658735Y-34873340D01*
X43535732Y-34955528D01*
X43535731Y-34955529D01*
X43535730Y-34955529D01*
X43399059Y-35012140D01*
X43253968Y-35041000D01*
X43106032Y-35041000D01*
X42960941Y-35012140D01*
X42824270Y-34955529D01*
X42824269Y-34955529D01*
X42824268Y-34955528D01*
X42701265Y-34873340D01*
X42596660Y-34768735D01*
X42514472Y-34645732D01*
X42457860Y-34509059D01*
X42429000Y-34363967D01*
X42429000Y-34216033D01*
X42457860Y-34070941D01*
X42514472Y-33934268D01*
X42596660Y-33811265D01*
X42701265Y-33706660D01*
X42824268Y-33624472D01*
X42900707Y-33592810D01*
X42960941Y-33567860D01*
X43106032Y-33539000D01*
X43253968Y-33539000D01*
X43399059Y-33567860D01*
X43399059Y-33567860D01*
G37*
G36*
X26836823Y-32181313D02*
G01*
X26997242Y-32229976D01*
X27090581Y-32279867D01*
X27145078Y-32308996D01*
X27274659Y-32415341D01*
X27381004Y-32544922D01*
X27381005Y-32544924D01*
X27460024Y-32692758D01*
X27508687Y-32853177D01*
X27525117Y-33020000D01*
X27508687Y-33186823D01*
X27460024Y-33347242D01*
X27389114Y-33479906D01*
X27381004Y-33495078D01*
X27274659Y-33624659D01*
X27145078Y-33731004D01*
X27145076Y-33731005D01*
X26997242Y-33810024D01*
X26997239Y-33810025D01*
X26967380Y-33819083D01*
X26836823Y-33858687D01*
X26711804Y-33871000D01*
X26628196Y-33871000D01*
X26503177Y-33858687D01*
X26372620Y-33819083D01*
X26342761Y-33810025D01*
X26342758Y-33810024D01*
X26194924Y-33731005D01*
X26194922Y-33731004D01*
X26065341Y-33624659D01*
X25958996Y-33495078D01*
X25950886Y-33479906D01*
X25879976Y-33347242D01*
X25831313Y-33186823D01*
X25814883Y-33020000D01*
X25831313Y-32853177D01*
X25879976Y-32692758D01*
X25958995Y-32544924D01*
X25958996Y-32544922D01*
X26065341Y-32415341D01*
X26194922Y-32308996D01*
X26249419Y-32279867D01*
X26342758Y-32229976D01*
X26503177Y-32181313D01*
X26628196Y-32169000D01*
X26711804Y-32169000D01*
X26836823Y-32181313D01*
X26836823Y-32181313D01*
G37*
G36*
X31916823Y-32181313D02*
G01*
X32077242Y-32229976D01*
X32170581Y-32279867D01*
X32225078Y-32308996D01*
X32354659Y-32415341D01*
X32461004Y-32544922D01*
X32461005Y-32544924D01*
X32540024Y-32692758D01*
X32588687Y-32853177D01*
X32605117Y-33020000D01*
X32588687Y-33186823D01*
X32540024Y-33347242D01*
X32469114Y-33479906D01*
X32461004Y-33495078D01*
X32354659Y-33624659D01*
X32225078Y-33731004D01*
X32225076Y-33731005D01*
X32077242Y-33810024D01*
X32077239Y-33810025D01*
X32047380Y-33819083D01*
X31916823Y-33858687D01*
X31791804Y-33871000D01*
X31708196Y-33871000D01*
X31583177Y-33858687D01*
X31452620Y-33819083D01*
X31422761Y-33810025D01*
X31422758Y-33810024D01*
X31274924Y-33731005D01*
X31274922Y-33731004D01*
X31145341Y-33624659D01*
X31038996Y-33495078D01*
X31030886Y-33479906D01*
X30959976Y-33347242D01*
X30911313Y-33186823D01*
X30894883Y-33020000D01*
X30911313Y-32853177D01*
X30959976Y-32692758D01*
X31038995Y-32544924D01*
X31038996Y-32544922D01*
X31145341Y-32415341D01*
X31274922Y-32308996D01*
X31329419Y-32279867D01*
X31422758Y-32229976D01*
X31583177Y-32181313D01*
X31708196Y-32169000D01*
X31791804Y-32169000D01*
X31916823Y-32181313D01*
X31916823Y-32181313D01*
G37*
G36*
X39536823Y-32181313D02*
G01*
X39697242Y-32229976D01*
X39790581Y-32279867D01*
X39845078Y-32308996D01*
X39974659Y-32415341D01*
X40081004Y-32544922D01*
X40081005Y-32544924D01*
X40160024Y-32692758D01*
X40208687Y-32853177D01*
X40225117Y-33020000D01*
X40208687Y-33186823D01*
X40160024Y-33347242D01*
X40089114Y-33479906D01*
X40081004Y-33495078D01*
X39974659Y-33624659D01*
X39845078Y-33731004D01*
X39845076Y-33731005D01*
X39697242Y-33810024D01*
X39697239Y-33810025D01*
X39667380Y-33819083D01*
X39536823Y-33858687D01*
X39411804Y-33871000D01*
X39328196Y-33871000D01*
X39203177Y-33858687D01*
X39072620Y-33819083D01*
X39042761Y-33810025D01*
X39042758Y-33810024D01*
X38894924Y-33731005D01*
X38894922Y-33731004D01*
X38765341Y-33624659D01*
X38658996Y-33495078D01*
X38650886Y-33479906D01*
X38579976Y-33347242D01*
X38531313Y-33186823D01*
X38514883Y-33020000D01*
X38531313Y-32853177D01*
X38579976Y-32692758D01*
X38658995Y-32544924D01*
X38658996Y-32544922D01*
X38765341Y-32415341D01*
X38894922Y-32308996D01*
X38949419Y-32279867D01*
X39042758Y-32229976D01*
X39203177Y-32181313D01*
X39328196Y-32169000D01*
X39411804Y-32169000D01*
X39536823Y-32181313D01*
X39536823Y-32181313D01*
G37*
G36*
X19216823Y-32181313D02*
G01*
X19377242Y-32229976D01*
X19470581Y-32279867D01*
X19525078Y-32308996D01*
X19654659Y-32415341D01*
X19761004Y-32544922D01*
X19761005Y-32544924D01*
X19840024Y-32692758D01*
X19888687Y-32853177D01*
X19905117Y-33020000D01*
X19888687Y-33186823D01*
X19840024Y-33347242D01*
X19769114Y-33479906D01*
X19761004Y-33495078D01*
X19654659Y-33624659D01*
X19525078Y-33731004D01*
X19525076Y-33731005D01*
X19377242Y-33810024D01*
X19377239Y-33810025D01*
X19347380Y-33819083D01*
X19216823Y-33858687D01*
X19091804Y-33871000D01*
X19008196Y-33871000D01*
X18883177Y-33858687D01*
X18752620Y-33819083D01*
X18722761Y-33810025D01*
X18722758Y-33810024D01*
X18574924Y-33731005D01*
X18574922Y-33731004D01*
X18445341Y-33624659D01*
X18338996Y-33495078D01*
X18330886Y-33479906D01*
X18259976Y-33347242D01*
X18211313Y-33186823D01*
X18194883Y-33020000D01*
X18211313Y-32853177D01*
X18259976Y-32692758D01*
X18338995Y-32544924D01*
X18338996Y-32544922D01*
X18445341Y-32415341D01*
X18574922Y-32308996D01*
X18629419Y-32279867D01*
X18722758Y-32229976D01*
X18883177Y-32181313D01*
X19008196Y-32169000D01*
X19091804Y-32169000D01*
X19216823Y-32181313D01*
X19216823Y-32181313D01*
G37*
G36*
X76273665Y-32272622D02*
G01*
X76347222Y-32279867D01*
X76488786Y-32322810D01*
X76619252Y-32392546D01*
X76647028Y-32415341D01*
X76733607Y-32486393D01*
X76803008Y-32570960D01*
X76827454Y-32600748D01*
X76897190Y-32731214D01*
X76940133Y-32872778D01*
X76954633Y-33020000D01*
X76940133Y-33167222D01*
X76897190Y-33308786D01*
X76827454Y-33439252D01*
X76803008Y-33469040D01*
X76733607Y-33553607D01*
X76649040Y-33623008D01*
X76619252Y-33647454D01*
X76488786Y-33717190D01*
X76347222Y-33760133D01*
X76273665Y-33767378D01*
X76236888Y-33771000D01*
X76163112Y-33771000D01*
X76126335Y-33767378D01*
X76052778Y-33760133D01*
X75911214Y-33717190D01*
X75780748Y-33647454D01*
X75750960Y-33623008D01*
X75666393Y-33553607D01*
X75596992Y-33469040D01*
X75572546Y-33439252D01*
X75502810Y-33308786D01*
X75459867Y-33167222D01*
X75445367Y-33020000D01*
X75459867Y-32872778D01*
X75502810Y-32731214D01*
X75572546Y-32600748D01*
X75596992Y-32570960D01*
X75666393Y-32486393D01*
X75752972Y-32415341D01*
X75780748Y-32392546D01*
X75911214Y-32322810D01*
X76052778Y-32279867D01*
X76126335Y-32272622D01*
X76163112Y-32269000D01*
X76236888Y-32269000D01*
X76273665Y-32272622D01*
X76273665Y-32272622D01*
G37*
G36*
X81215000Y-31431000D02*
G01*
X79313000Y-31431000D01*
X79313000Y-29529000D01*
X81215000Y-29529000D01*
X81215000Y-31431000D01*
X81215000Y-31431000D01*
G37*
G36*
X83081395Y-29565546D02*
G01*
X83254466Y-29637234D01*
X83260572Y-29641314D01*
X83410227Y-29741310D01*
X83542690Y-29873773D01*
X83595081Y-29952182D01*
X83646766Y-30029534D01*
X83718454Y-30202605D01*
X83755000Y-30386333D01*
X83755000Y-30573667D01*
X83718454Y-30757395D01*
X83646766Y-30930466D01*
X83646765Y-30930467D01*
X83542690Y-31086227D01*
X83410227Y-31218690D01*
X83333400Y-31270024D01*
X83254466Y-31322766D01*
X83081395Y-31394454D01*
X82897667Y-31431000D01*
X82710333Y-31431000D01*
X82526605Y-31394454D01*
X82353534Y-31322766D01*
X82274600Y-31270024D01*
X82197773Y-31218690D01*
X82065310Y-31086227D01*
X81961235Y-30930467D01*
X81961234Y-30930466D01*
X81889546Y-30757395D01*
X81853000Y-30573667D01*
X81853000Y-30386333D01*
X81889546Y-30202605D01*
X81961234Y-30029534D01*
X82012919Y-29952182D01*
X82065310Y-29873773D01*
X82197773Y-29741310D01*
X82347428Y-29641314D01*
X82353534Y-29637234D01*
X82526605Y-29565546D01*
X82710333Y-29529000D01*
X82897667Y-29529000D01*
X83081395Y-29565546D01*
X83081395Y-29565546D01*
G37*
G36*
X32601000Y-31331000D02*
G01*
X30899000Y-31331000D01*
X30899000Y-29629000D01*
X32601000Y-29629000D01*
X32601000Y-31331000D01*
X32601000Y-31331000D01*
G37*
G36*
X39536823Y-29641313D02*
G01*
X39697242Y-29689976D01*
X39738874Y-29712229D01*
X39845078Y-29768996D01*
X39974659Y-29875341D01*
X40081004Y-30004922D01*
X40081005Y-30004924D01*
X40160024Y-30152758D01*
X40208687Y-30313177D01*
X40225117Y-30480000D01*
X40208687Y-30646823D01*
X40160024Y-30807242D01*
X40094159Y-30930466D01*
X40081004Y-30955078D01*
X39974659Y-31084659D01*
X39845078Y-31191004D01*
X39845076Y-31191005D01*
X39697242Y-31270024D01*
X39536823Y-31318687D01*
X39411804Y-31331000D01*
X39328196Y-31331000D01*
X39203177Y-31318687D01*
X39042758Y-31270024D01*
X38894924Y-31191005D01*
X38894922Y-31191004D01*
X38765341Y-31084659D01*
X38658996Y-30955078D01*
X38645841Y-30930466D01*
X38579976Y-30807242D01*
X38531313Y-30646823D01*
X38514883Y-30480000D01*
X38531313Y-30313177D01*
X38579976Y-30152758D01*
X38658995Y-30004924D01*
X38658996Y-30004922D01*
X38765341Y-29875341D01*
X38894922Y-29768996D01*
X39001126Y-29712229D01*
X39042758Y-29689976D01*
X39203177Y-29641313D01*
X39328196Y-29629000D01*
X39411804Y-29629000D01*
X39536823Y-29641313D01*
X39536823Y-29641313D01*
G37*
G36*
X19901000Y-31331000D02*
G01*
X18199000Y-31331000D01*
X18199000Y-29629000D01*
X19901000Y-29629000D01*
X19901000Y-31331000D01*
X19901000Y-31331000D01*
G37*
G36*
X26836823Y-29641313D02*
G01*
X26997242Y-29689976D01*
X27038874Y-29712229D01*
X27145078Y-29768996D01*
X27274659Y-29875341D01*
X27381004Y-30004922D01*
X27381005Y-30004924D01*
X27460024Y-30152758D01*
X27508687Y-30313177D01*
X27525117Y-30480000D01*
X27508687Y-30646823D01*
X27460024Y-30807242D01*
X27394159Y-30930466D01*
X27381004Y-30955078D01*
X27274659Y-31084659D01*
X27145078Y-31191004D01*
X27145076Y-31191005D01*
X26997242Y-31270024D01*
X26836823Y-31318687D01*
X26711804Y-31331000D01*
X26628196Y-31331000D01*
X26503177Y-31318687D01*
X26342758Y-31270024D01*
X26194924Y-31191005D01*
X26194922Y-31191004D01*
X26065341Y-31084659D01*
X25958996Y-30955078D01*
X25945841Y-30930466D01*
X25879976Y-30807242D01*
X25831313Y-30646823D01*
X25814883Y-30480000D01*
X25831313Y-30313177D01*
X25879976Y-30152758D01*
X25958995Y-30004924D01*
X25958996Y-30004922D01*
X26065341Y-29875341D01*
X26194922Y-29768996D01*
X26301126Y-29712229D01*
X26342758Y-29689976D01*
X26503177Y-29641313D01*
X26628196Y-29629000D01*
X26711804Y-29629000D01*
X26836823Y-29641313D01*
X26836823Y-29641313D01*
G37*
G36*
X64256228Y-28645703D02*
G01*
X64411100Y-28709853D01*
X64550481Y-28802985D01*
X64669015Y-28921519D01*
X64762147Y-29060900D01*
X64826297Y-29215772D01*
X64859000Y-29380184D01*
X64859000Y-29547816D01*
X64826297Y-29712228D01*
X64762147Y-29867100D01*
X64669015Y-30006481D01*
X64550481Y-30125015D01*
X64411100Y-30218147D01*
X64256228Y-30282297D01*
X64091816Y-30315000D01*
X63924184Y-30315000D01*
X63759772Y-30282297D01*
X63604900Y-30218147D01*
X63465519Y-30125015D01*
X63346985Y-30006481D01*
X63253853Y-29867100D01*
X63189703Y-29712228D01*
X63157000Y-29547816D01*
X63157000Y-29380184D01*
X63189703Y-29215772D01*
X63253853Y-29060900D01*
X63346985Y-28921519D01*
X63465519Y-28802985D01*
X63604900Y-28709853D01*
X63759772Y-28645703D01*
X63924184Y-28613000D01*
X64091816Y-28613000D01*
X64256228Y-28645703D01*
X64256228Y-28645703D01*
G37*
G36*
X66756228Y-28645703D02*
G01*
X66911100Y-28709853D01*
X67050481Y-28802985D01*
X67169015Y-28921519D01*
X67262147Y-29060900D01*
X67326297Y-29215772D01*
X67359000Y-29380184D01*
X67359000Y-29547816D01*
X67326297Y-29712228D01*
X67262147Y-29867100D01*
X67169015Y-30006481D01*
X67050481Y-30125015D01*
X66911100Y-30218147D01*
X66756228Y-30282297D01*
X66591816Y-30315000D01*
X66424184Y-30315000D01*
X66259772Y-30282297D01*
X66104900Y-30218147D01*
X65965519Y-30125015D01*
X65846985Y-30006481D01*
X65753853Y-29867100D01*
X65689703Y-29712228D01*
X65657000Y-29547816D01*
X65657000Y-29380184D01*
X65689703Y-29215772D01*
X65753853Y-29060900D01*
X65846985Y-28921519D01*
X65965519Y-28802985D01*
X66104900Y-28709853D01*
X66259772Y-28645703D01*
X66424184Y-28613000D01*
X66591816Y-28613000D01*
X66756228Y-28645703D01*
X66756228Y-28645703D01*
G37*
G36*
X46671000Y-30161000D02*
G01*
X44769000Y-30161000D01*
X44769000Y-28259000D01*
X46671000Y-28259000D01*
X46671000Y-30161000D01*
X46671000Y-30161000D01*
G37*
G36*
X55561000Y-30161000D02*
G01*
X53659000Y-30161000D01*
X53659000Y-28259000D01*
X55561000Y-28259000D01*
X55561000Y-30161000D01*
X55561000Y-30161000D01*
G37*
G36*
X76419059Y-27217860D02*
G01*
X76555732Y-27274472D01*
X76678735Y-27356660D01*
X76783340Y-27461265D01*
X76865528Y-27584268D01*
X76922140Y-27720941D01*
X76951000Y-27866033D01*
X76951000Y-28013967D01*
X76922140Y-28159059D01*
X76865528Y-28295732D01*
X76783340Y-28418735D01*
X76678735Y-28523340D01*
X76555732Y-28605528D01*
X76555731Y-28605529D01*
X76555730Y-28605529D01*
X76419059Y-28662140D01*
X76273968Y-28691000D01*
X76126032Y-28691000D01*
X75980941Y-28662140D01*
X75844270Y-28605529D01*
X75844269Y-28605529D01*
X75844268Y-28605528D01*
X75721265Y-28523340D01*
X75616660Y-28418735D01*
X75534472Y-28295732D01*
X75477860Y-28159059D01*
X75449000Y-28013967D01*
X75449000Y-27866033D01*
X75477860Y-27720941D01*
X75534472Y-27584268D01*
X75616660Y-27461265D01*
X75721265Y-27356660D01*
X75844268Y-27274472D01*
X75980941Y-27217860D01*
X76126032Y-27189000D01*
X76273968Y-27189000D01*
X76419059Y-27217860D01*
X76419059Y-27217860D01*
G37*
G36*
X45997395Y-25755546D02*
G01*
X46170466Y-25827234D01*
X46170467Y-25827235D01*
X46326227Y-25931310D01*
X46458690Y-26063773D01*
X46458691Y-26063775D01*
X46562766Y-26219534D01*
X46634454Y-26392605D01*
X46671000Y-26576333D01*
X46671000Y-26763667D01*
X46634454Y-26947395D01*
X46562766Y-27120466D01*
X46562765Y-27120467D01*
X46458690Y-27276227D01*
X46326227Y-27408690D01*
X46247818Y-27461081D01*
X46170466Y-27512766D01*
X45997395Y-27584454D01*
X45813667Y-27621000D01*
X45626333Y-27621000D01*
X45442605Y-27584454D01*
X45269534Y-27512766D01*
X45192182Y-27461081D01*
X45113773Y-27408690D01*
X44981310Y-27276227D01*
X44877235Y-27120467D01*
X44877234Y-27120466D01*
X44805546Y-26947395D01*
X44769000Y-26763667D01*
X44769000Y-26576333D01*
X44805546Y-26392605D01*
X44877234Y-26219534D01*
X44981309Y-26063775D01*
X44981310Y-26063773D01*
X45113773Y-25931310D01*
X45269533Y-25827235D01*
X45269534Y-25827234D01*
X45442605Y-25755546D01*
X45626333Y-25719000D01*
X45813667Y-25719000D01*
X45997395Y-25755546D01*
X45997395Y-25755546D01*
G37*
G36*
X54887395Y-25755546D02*
G01*
X55060466Y-25827234D01*
X55060467Y-25827235D01*
X55216227Y-25931310D01*
X55348690Y-26063773D01*
X55348691Y-26063775D01*
X55452766Y-26219534D01*
X55524454Y-26392605D01*
X55561000Y-26576333D01*
X55561000Y-26763667D01*
X55524454Y-26947395D01*
X55452766Y-27120466D01*
X55452765Y-27120467D01*
X55348690Y-27276227D01*
X55216227Y-27408690D01*
X55137818Y-27461081D01*
X55060466Y-27512766D01*
X54887395Y-27584454D01*
X54703667Y-27621000D01*
X54516333Y-27621000D01*
X54332605Y-27584454D01*
X54159534Y-27512766D01*
X54082182Y-27461081D01*
X54003773Y-27408690D01*
X53871310Y-27276227D01*
X53767235Y-27120467D01*
X53767234Y-27120466D01*
X53695546Y-26947395D01*
X53659000Y-26763667D01*
X53659000Y-26576333D01*
X53695546Y-26392605D01*
X53767234Y-26219534D01*
X53871309Y-26063775D01*
X53871310Y-26063773D01*
X54003773Y-25931310D01*
X54159533Y-25827235D01*
X54159534Y-25827234D01*
X54332605Y-25755546D01*
X54516333Y-25719000D01*
X54703667Y-25719000D01*
X54887395Y-25755546D01*
X54887395Y-25755546D01*
G37*
G36*
X20887626Y-19718783D02*
G01*
X21241775Y-19865476D01*
X21241777Y-19865477D01*
X21560503Y-20078443D01*
X21831557Y-20349497D01*
X22044523Y-20668223D01*
X22044524Y-20668225D01*
X22191217Y-21022374D01*
X22266000Y-21398334D01*
X22266000Y-21781666D01*
X22191217Y-22157626D01*
X22044524Y-22511775D01*
X22044523Y-22511777D01*
X21831557Y-22830503D01*
X21560503Y-23101557D01*
X21241777Y-23314523D01*
X21241776Y-23314524D01*
X21241775Y-23314524D01*
X20887626Y-23461217D01*
X20511666Y-23536000D01*
X20128334Y-23536000D01*
X19752374Y-23461217D01*
X19398225Y-23314524D01*
X19398224Y-23314524D01*
X19398223Y-23314523D01*
X19079497Y-23101557D01*
X18808443Y-22830503D01*
X18595477Y-22511777D01*
X18595476Y-22511775D01*
X18448783Y-22157626D01*
X18374000Y-21781666D01*
X18374000Y-21398334D01*
X18448783Y-21022374D01*
X18595476Y-20668225D01*
X18595477Y-20668223D01*
X18808443Y-20349497D01*
X19079497Y-20078443D01*
X19398223Y-19865477D01*
X19398225Y-19865476D01*
X19752374Y-19718783D01*
X20128334Y-19644000D01*
X20511666Y-19644000D01*
X20887626Y-19718783D01*
X20887626Y-19718783D01*
G37*
G36*
X83117626Y-19718783D02*
G01*
X83471775Y-19865476D01*
X83471777Y-19865477D01*
X83790503Y-20078443D01*
X84061557Y-20349497D01*
X84274523Y-20668223D01*
X84274524Y-20668225D01*
X84421217Y-21022374D01*
X84496000Y-21398334D01*
X84496000Y-21781666D01*
X84421217Y-22157626D01*
X84274524Y-22511775D01*
X84274523Y-22511777D01*
X84061557Y-22830503D01*
X83790503Y-23101557D01*
X83471777Y-23314523D01*
X83471776Y-23314524D01*
X83471775Y-23314524D01*
X83117626Y-23461217D01*
X82741666Y-23536000D01*
X82358334Y-23536000D01*
X81982374Y-23461217D01*
X81628225Y-23314524D01*
X81628224Y-23314524D01*
X81628223Y-23314523D01*
X81309497Y-23101557D01*
X81038443Y-22830503D01*
X80825477Y-22511777D01*
X80825476Y-22511775D01*
X80678783Y-22157626D01*
X80604000Y-21781666D01*
X80604000Y-21398334D01*
X80678783Y-21022374D01*
X80825476Y-20668225D01*
X80825477Y-20668223D01*
X81038443Y-20349497D01*
X81309497Y-20078443D01*
X81628223Y-19865477D01*
X81628225Y-19865476D01*
X81982374Y-19718783D01*
X82358334Y-19644000D01*
X82741666Y-19644000D01*
X83117626Y-19718783D01*
X83117626Y-19718783D01*
G37*
M02*
