M48
; DRILL file {KiCad (5.1.2-1)-1} date Wednesday, 21 August 2019 at 09:50:46 pm
; FORMAT={-:-/ absolute / inch / decimal}
; #@! TF.CreationDate,2019-08-21T21:50:46+10:00
; #@! TF.GenerationSoftware,Kicad,Pcbnew,(5.1.2-1)-1
; #@! TF.FileFunction,Plated,1,2,PTH
FMAT,2
INCH
T1C0.0157
T2C0.0276
T3C0.0295
T4C0.0315
T5C0.0354
T6C0.0472
T7C0.1098
%
G90
G05
T1
X0.98Y-2.09
X1.31Y-1.12
X1.44Y-1.7272
X1.44Y-1.8
X1.46Y-1.12
X1.47Y-0.9
X1.61Y-1.81
X1.62Y-1.27
X1.6228Y-1.39
X1.65Y-1.73
X1.6698Y-0.9802
X1.68Y-1.03
X1.69Y-1.6
X1.86Y-1.21
X1.86Y-1.6729
X2.0155Y-0.8545
X2.06Y-0.89
X2.0943Y-1.3957
X2.11Y-1.65
X2.17Y-0.9555
X2.2228Y-1.84
X2.29Y-1.04
X2.38Y-2.31
X2.3827Y-1.3957
X2.48Y-0.87
X2.5698Y-2.3102
X2.66Y-2.18
X2.72Y-0.78
X2.9Y-1.72
X2.9Y-2.03
X2.92Y-0.87
T2
X2.05Y-1.35
X2.25Y-1.35
X3.0Y-1.4
X3.0Y-1.6
X1.7Y-1.35
X1.9Y-1.35
X3.0Y-1.7
X3.0Y-1.9
X3.0Y-2.01
X3.0Y-2.21
X3.0Y-1.1
X3.0Y-1.3
T3
X1.56Y-2.4
X1.6387Y-2.4
X1.7175Y-2.4
X1.7962Y-2.4
X2.7Y-2.4
X2.7787Y-2.4
X2.8575Y-2.4
X2.9362Y-2.4
X1.14Y-2.4
X1.2187Y-2.4
X2.14Y-2.4
X2.2187Y-2.4
X2.2975Y-2.4
X2.3762Y-2.4
T4
X0.75Y-1.2
X0.75Y-1.3
X0.75Y-1.4
X0.75Y-1.5
X0.75Y-1.6
X0.75Y-1.7
X0.75Y-1.8
X0.75Y-1.9
X1.05Y-1.2
X1.05Y-1.3
X1.05Y-1.4
X1.05Y-1.5
X1.05Y-1.6
X1.05Y-1.7
X1.05Y-1.8
X1.05Y-1.9
X1.85Y-1.6
X1.85Y-1.9
X1.95Y-1.6
X1.95Y-1.9
X2.05Y-1.6
X2.05Y-1.9
X2.15Y-1.6
X2.15Y-1.9
X2.52Y-1.16
X2.6184Y-1.16
X1.25Y-1.2
X1.25Y-1.3
X1.25Y-1.4
X1.25Y-1.5
X1.25Y-1.6
X1.25Y-1.7
X1.25Y-1.8
X1.25Y-1.9
X1.55Y-1.2
X1.55Y-1.3
X1.55Y-1.4
X1.55Y-1.5
X1.55Y-1.6
X1.55Y-1.7
X1.55Y-1.8
X1.55Y-1.9
T5
X2.15Y-1.05
X2.15Y-1.15
X1.8Y-1.05
X1.8Y-1.15
X3.16Y-2.1
X3.26Y-2.1
X3.16Y-1.2
X3.26Y-1.2
X3.16Y-1.8
X3.26Y-1.8
X3.16Y-1.5
X3.26Y-1.5
T6
X2.5Y-1.535
X2.5Y-1.6925
X2.5Y-1.85
X2.6969Y-1.535
X2.6969Y-1.6925
X2.6969Y-1.85
T7
X0.8Y-0.85
X0.8Y-2.45
X3.25Y-2.45
X3.25Y-0.85
T0
M30
