G04 #@! TF.GenerationSoftware,KiCad,Pcbnew,(5.1.2-1)-1*
G04 #@! TF.CreationDate,2019-08-21T21:50:59+10:00*
G04 #@! TF.ProjectId,address-register,61646472-6573-4732-9d72-656769737465,rev?*
G04 #@! TF.SameCoordinates,Original*
G04 #@! TF.FileFunction,Legend,Top*
G04 #@! TF.FilePolarity,Positive*
%FSLAX46Y46*%
G04 Gerber Fmt 4.6, Leading zero omitted, Abs format (unit mm)*
G04 Created by KiCad (PCBNEW (5.1.2-1)-1) date 2019-08-21 21:50:59*
%MOMM*%
%LPD*%
G04 APERTURE LIST*
%ADD10C,0.127000*%
%ADD11C,0.120000*%
%ADD12C,0.100000*%
%ADD13C,0.150000*%
%ADD14C,0.101600*%
G04 APERTURE END LIST*
D10*
X47679428Y-55716714D02*
X47860857Y-56224714D01*
X48042285Y-55716714D01*
X48731714Y-56224714D02*
X48296285Y-56224714D01*
X48514000Y-56224714D02*
X48514000Y-55462714D01*
X48441428Y-55571571D01*
X48368857Y-55644142D01*
X48296285Y-55680428D01*
X49058285Y-56152142D02*
X49094571Y-56188428D01*
X49058285Y-56224714D01*
X49022000Y-56188428D01*
X49058285Y-56152142D01*
X49058285Y-56224714D01*
X49566285Y-55462714D02*
X49638857Y-55462714D01*
X49711428Y-55499000D01*
X49747714Y-55535285D01*
X49784000Y-55607857D01*
X49820285Y-55753000D01*
X49820285Y-55934428D01*
X49784000Y-56079571D01*
X49747714Y-56152142D01*
X49711428Y-56188428D01*
X49638857Y-56224714D01*
X49566285Y-56224714D01*
X49493714Y-56188428D01*
X49457428Y-56152142D01*
X49421142Y-56079571D01*
X49384857Y-55934428D01*
X49384857Y-55753000D01*
X49421142Y-55607857D01*
X49457428Y-55535285D01*
X49493714Y-55499000D01*
X49566285Y-55462714D01*
X41075428Y-54700714D02*
X41075428Y-53938714D01*
X41256857Y-53938714D01*
X41365714Y-53975000D01*
X41438285Y-54047571D01*
X41474571Y-54120142D01*
X41510857Y-54265285D01*
X41510857Y-54374142D01*
X41474571Y-54519285D01*
X41438285Y-54591857D01*
X41365714Y-54664428D01*
X41256857Y-54700714D01*
X41075428Y-54700714D01*
X42127714Y-54664428D02*
X42055142Y-54700714D01*
X41910000Y-54700714D01*
X41837428Y-54664428D01*
X41801142Y-54591857D01*
X41801142Y-54301571D01*
X41837428Y-54229000D01*
X41910000Y-54192714D01*
X42055142Y-54192714D01*
X42127714Y-54229000D01*
X42164000Y-54301571D01*
X42164000Y-54374142D01*
X41801142Y-54446714D01*
X42454285Y-54664428D02*
X42526857Y-54700714D01*
X42672000Y-54700714D01*
X42744571Y-54664428D01*
X42780857Y-54591857D01*
X42780857Y-54555571D01*
X42744571Y-54483000D01*
X42672000Y-54446714D01*
X42563142Y-54446714D01*
X42490571Y-54410428D01*
X42454285Y-54337857D01*
X42454285Y-54301571D01*
X42490571Y-54229000D01*
X42563142Y-54192714D01*
X42672000Y-54192714D01*
X42744571Y-54229000D01*
X43107428Y-54700714D02*
X43107428Y-54192714D01*
X43107428Y-53938714D02*
X43071142Y-53975000D01*
X43107428Y-54011285D01*
X43143714Y-53975000D01*
X43107428Y-53938714D01*
X43107428Y-54011285D01*
X43796857Y-54192714D02*
X43796857Y-54809571D01*
X43760571Y-54882142D01*
X43724285Y-54918428D01*
X43651714Y-54954714D01*
X43542857Y-54954714D01*
X43470285Y-54918428D01*
X43796857Y-54664428D02*
X43724285Y-54700714D01*
X43579142Y-54700714D01*
X43506571Y-54664428D01*
X43470285Y-54628142D01*
X43434000Y-54555571D01*
X43434000Y-54337857D01*
X43470285Y-54265285D01*
X43506571Y-54229000D01*
X43579142Y-54192714D01*
X43724285Y-54192714D01*
X43796857Y-54229000D01*
X44159714Y-54192714D02*
X44159714Y-54700714D01*
X44159714Y-54265285D02*
X44196000Y-54229000D01*
X44268571Y-54192714D01*
X44377428Y-54192714D01*
X44450000Y-54229000D01*
X44486285Y-54301571D01*
X44486285Y-54700714D01*
X45139428Y-54664428D02*
X45066857Y-54700714D01*
X44921714Y-54700714D01*
X44849142Y-54664428D01*
X44812857Y-54591857D01*
X44812857Y-54301571D01*
X44849142Y-54229000D01*
X44921714Y-54192714D01*
X45066857Y-54192714D01*
X45139428Y-54229000D01*
X45175714Y-54301571D01*
X45175714Y-54374142D01*
X44812857Y-54446714D01*
X45828857Y-54700714D02*
X45828857Y-53938714D01*
X45828857Y-54664428D02*
X45756285Y-54700714D01*
X45611142Y-54700714D01*
X45538571Y-54664428D01*
X45502285Y-54628142D01*
X45466000Y-54555571D01*
X45466000Y-54337857D01*
X45502285Y-54265285D01*
X45538571Y-54229000D01*
X45611142Y-54192714D01*
X45756285Y-54192714D01*
X45828857Y-54229000D01*
X46772285Y-54700714D02*
X46772285Y-53938714D01*
X46772285Y-54229000D02*
X46844857Y-54192714D01*
X46990000Y-54192714D01*
X47062571Y-54229000D01*
X47098857Y-54265285D01*
X47135142Y-54337857D01*
X47135142Y-54555571D01*
X47098857Y-54628142D01*
X47062571Y-54664428D01*
X46990000Y-54700714D01*
X46844857Y-54700714D01*
X46772285Y-54664428D01*
X47389142Y-54192714D02*
X47570571Y-54700714D01*
X47752000Y-54192714D02*
X47570571Y-54700714D01*
X47498000Y-54882142D01*
X47461714Y-54918428D01*
X47389142Y-54954714D01*
X48586571Y-54664428D02*
X48695428Y-54700714D01*
X48876857Y-54700714D01*
X48949428Y-54664428D01*
X48985714Y-54628142D01*
X49022000Y-54555571D01*
X49022000Y-54483000D01*
X48985714Y-54410428D01*
X48949428Y-54374142D01*
X48876857Y-54337857D01*
X48731714Y-54301571D01*
X48659142Y-54265285D01*
X48622857Y-54229000D01*
X48586571Y-54156428D01*
X48586571Y-54083857D01*
X48622857Y-54011285D01*
X48659142Y-53975000D01*
X48731714Y-53938714D01*
X48913142Y-53938714D01*
X49022000Y-53975000D01*
X49348571Y-54700714D02*
X49348571Y-53938714D01*
X49675142Y-54700714D02*
X49675142Y-54301571D01*
X49638857Y-54229000D01*
X49566285Y-54192714D01*
X49457428Y-54192714D01*
X49384857Y-54229000D01*
X49348571Y-54265285D01*
X50364571Y-54700714D02*
X50364571Y-54301571D01*
X50328285Y-54229000D01*
X50255714Y-54192714D01*
X50110571Y-54192714D01*
X50038000Y-54229000D01*
X50364571Y-54664428D02*
X50292000Y-54700714D01*
X50110571Y-54700714D01*
X50038000Y-54664428D01*
X50001714Y-54591857D01*
X50001714Y-54519285D01*
X50038000Y-54446714D01*
X50110571Y-54410428D01*
X50292000Y-54410428D01*
X50364571Y-54374142D01*
X50727428Y-54192714D02*
X50727428Y-54700714D01*
X50727428Y-54265285D02*
X50763714Y-54229000D01*
X50836285Y-54192714D01*
X50945142Y-54192714D01*
X51017714Y-54229000D01*
X51054000Y-54301571D01*
X51054000Y-54700714D01*
X51707142Y-54664428D02*
X51634571Y-54700714D01*
X51489428Y-54700714D01*
X51416857Y-54664428D01*
X51380571Y-54591857D01*
X51380571Y-54301571D01*
X51416857Y-54229000D01*
X51489428Y-54192714D01*
X51634571Y-54192714D01*
X51707142Y-54229000D01*
X51743428Y-54301571D01*
X51743428Y-54374142D01*
X51380571Y-54446714D01*
X52650571Y-54700714D02*
X52650571Y-53938714D01*
X52940857Y-53938714D01*
X53013428Y-53975000D01*
X53049714Y-54011285D01*
X53086000Y-54083857D01*
X53086000Y-54192714D01*
X53049714Y-54265285D01*
X53013428Y-54301571D01*
X52940857Y-54337857D01*
X52650571Y-54337857D01*
X53521428Y-54700714D02*
X53448857Y-54664428D01*
X53412571Y-54628142D01*
X53376285Y-54555571D01*
X53376285Y-54337857D01*
X53412571Y-54265285D01*
X53448857Y-54229000D01*
X53521428Y-54192714D01*
X53630285Y-54192714D01*
X53702857Y-54229000D01*
X53739142Y-54265285D01*
X53775428Y-54337857D01*
X53775428Y-54555571D01*
X53739142Y-54628142D01*
X53702857Y-54664428D01*
X53630285Y-54700714D01*
X53521428Y-54700714D01*
X54102000Y-54192714D02*
X54102000Y-54954714D01*
X54102000Y-54229000D02*
X54174571Y-54192714D01*
X54319714Y-54192714D01*
X54392285Y-54229000D01*
X54428571Y-54265285D01*
X54464857Y-54337857D01*
X54464857Y-54555571D01*
X54428571Y-54628142D01*
X54392285Y-54664428D01*
X54319714Y-54700714D01*
X54174571Y-54700714D01*
X54102000Y-54664428D01*
X54791428Y-54192714D02*
X54791428Y-54954714D01*
X54791428Y-54229000D02*
X54864000Y-54192714D01*
X55009142Y-54192714D01*
X55081714Y-54229000D01*
X55118000Y-54265285D01*
X55154285Y-54337857D01*
X55154285Y-54555571D01*
X55118000Y-54628142D01*
X55081714Y-54664428D01*
X55009142Y-54700714D01*
X54864000Y-54700714D01*
X54791428Y-54664428D01*
X55589714Y-54700714D02*
X55517142Y-54664428D01*
X55480857Y-54591857D01*
X55480857Y-53938714D01*
X56170285Y-54664428D02*
X56097714Y-54700714D01*
X55952571Y-54700714D01*
X55879999Y-54664428D01*
X55843714Y-54591857D01*
X55843714Y-54301571D01*
X55879999Y-54229000D01*
X55952571Y-54192714D01*
X56097714Y-54192714D01*
X56170285Y-54229000D01*
X56206571Y-54301571D01*
X56206571Y-54374142D01*
X55843714Y-54446714D01*
X56424285Y-54192714D02*
X56714571Y-54192714D01*
X56533142Y-53938714D02*
X56533142Y-54591857D01*
X56569428Y-54664428D01*
X56641999Y-54700714D01*
X56714571Y-54700714D01*
X57077428Y-54700714D02*
X57004857Y-54664428D01*
X56968571Y-54628142D01*
X56932285Y-54555571D01*
X56932285Y-54337857D01*
X56968571Y-54265285D01*
X57004857Y-54229000D01*
X57077428Y-54192714D01*
X57186285Y-54192714D01*
X57258857Y-54229000D01*
X57295142Y-54265285D01*
X57331428Y-54337857D01*
X57331428Y-54555571D01*
X57295142Y-54628142D01*
X57258857Y-54664428D01*
X57186285Y-54700714D01*
X57077428Y-54700714D01*
X57657999Y-54192714D02*
X57657999Y-54700714D01*
X57657999Y-54265285D02*
X57694285Y-54229000D01*
X57766857Y-54192714D01*
X57875714Y-54192714D01*
X57948285Y-54229000D01*
X57984571Y-54301571D01*
X57984571Y-54700714D01*
X27413857Y-53095071D02*
X27413857Y-51952071D01*
X27685999Y-51952071D01*
X27849285Y-52006500D01*
X27958142Y-52115357D01*
X28012571Y-52224214D01*
X28066999Y-52441928D01*
X28066999Y-52605214D01*
X28012571Y-52822928D01*
X27958142Y-52931785D01*
X27849285Y-53040642D01*
X27685999Y-53095071D01*
X27413857Y-53095071D01*
X28556857Y-53095071D02*
X28556857Y-51952071D01*
X29318857Y-52550785D02*
X29318857Y-53095071D01*
X28937857Y-51952071D02*
X29318857Y-52550785D01*
X29699857Y-51952071D01*
X31114999Y-52441928D02*
X31006142Y-52387500D01*
X30951714Y-52333071D01*
X30897285Y-52224214D01*
X30897285Y-52169785D01*
X30951714Y-52060928D01*
X31006142Y-52006500D01*
X31114999Y-51952071D01*
X31332714Y-51952071D01*
X31441571Y-52006500D01*
X31496000Y-52060928D01*
X31550428Y-52169785D01*
X31550428Y-52224214D01*
X31496000Y-52333071D01*
X31441571Y-52387500D01*
X31332714Y-52441928D01*
X31114999Y-52441928D01*
X31006142Y-52496357D01*
X30951714Y-52550785D01*
X30897285Y-52659642D01*
X30897285Y-52877357D01*
X30951714Y-52986214D01*
X31006142Y-53040642D01*
X31114999Y-53095071D01*
X31332714Y-53095071D01*
X31441571Y-53040642D01*
X31496000Y-52986214D01*
X31550428Y-52877357D01*
X31550428Y-52659642D01*
X31496000Y-52550785D01*
X31441571Y-52496357D01*
X31332714Y-52441928D01*
X32040285Y-52659642D02*
X32911142Y-52659642D01*
X33836428Y-52496357D02*
X33999714Y-52550785D01*
X34054142Y-52605214D01*
X34108571Y-52714071D01*
X34108571Y-52877357D01*
X34054142Y-52986214D01*
X33999714Y-53040642D01*
X33890857Y-53095071D01*
X33455428Y-53095071D01*
X33455428Y-51952071D01*
X33836428Y-51952071D01*
X33945285Y-52006500D01*
X33999714Y-52060928D01*
X34054142Y-52169785D01*
X34054142Y-52278642D01*
X33999714Y-52387500D01*
X33945285Y-52441928D01*
X33836428Y-52496357D01*
X33455428Y-52496357D01*
X34598428Y-53095071D02*
X34598428Y-52333071D01*
X34598428Y-51952071D02*
X34544000Y-52006500D01*
X34598428Y-52060928D01*
X34652857Y-52006500D01*
X34598428Y-51952071D01*
X34598428Y-52060928D01*
X34979428Y-52333071D02*
X35414857Y-52333071D01*
X35142714Y-51952071D02*
X35142714Y-52931785D01*
X35197142Y-53040642D01*
X35306000Y-53095071D01*
X35414857Y-53095071D01*
X37319857Y-52986214D02*
X37265428Y-53040642D01*
X37102142Y-53095071D01*
X36993285Y-53095071D01*
X36830000Y-53040642D01*
X36721142Y-52931785D01*
X36666714Y-52822928D01*
X36612285Y-52605214D01*
X36612285Y-52441928D01*
X36666714Y-52224214D01*
X36721142Y-52115357D01*
X36830000Y-52006500D01*
X36993285Y-51952071D01*
X37102142Y-51952071D01*
X37265428Y-52006500D01*
X37319857Y-52060928D01*
X37973000Y-53095071D02*
X37864142Y-53040642D01*
X37809714Y-52986214D01*
X37755285Y-52877357D01*
X37755285Y-52550785D01*
X37809714Y-52441928D01*
X37864142Y-52387500D01*
X37973000Y-52333071D01*
X38136285Y-52333071D01*
X38245142Y-52387500D01*
X38299571Y-52441928D01*
X38354000Y-52550785D01*
X38354000Y-52877357D01*
X38299571Y-52986214D01*
X38245142Y-53040642D01*
X38136285Y-53095071D01*
X37973000Y-53095071D01*
X38843857Y-53095071D02*
X38843857Y-52333071D01*
X38843857Y-52441928D02*
X38898285Y-52387500D01*
X39007142Y-52333071D01*
X39170428Y-52333071D01*
X39279285Y-52387500D01*
X39333714Y-52496357D01*
X39333714Y-53095071D01*
X39333714Y-52496357D02*
X39388142Y-52387500D01*
X39497000Y-52333071D01*
X39660285Y-52333071D01*
X39769142Y-52387500D01*
X39823571Y-52496357D01*
X39823571Y-53095071D01*
X40367857Y-52333071D02*
X40367857Y-53476071D01*
X40367857Y-52387500D02*
X40476714Y-52333071D01*
X40694428Y-52333071D01*
X40803285Y-52387500D01*
X40857714Y-52441928D01*
X40912142Y-52550785D01*
X40912142Y-52877357D01*
X40857714Y-52986214D01*
X40803285Y-53040642D01*
X40694428Y-53095071D01*
X40476714Y-53095071D01*
X40367857Y-53040642D01*
X41891857Y-52333071D02*
X41891857Y-53095071D01*
X41402000Y-52333071D02*
X41402000Y-52931785D01*
X41456428Y-53040642D01*
X41565285Y-53095071D01*
X41728571Y-53095071D01*
X41837428Y-53040642D01*
X41891857Y-52986214D01*
X42272857Y-52333071D02*
X42708285Y-52333071D01*
X42436142Y-51952071D02*
X42436142Y-52931785D01*
X42490571Y-53040642D01*
X42599428Y-53095071D01*
X42708285Y-53095071D01*
X43524714Y-53040642D02*
X43415857Y-53095071D01*
X43198142Y-53095071D01*
X43089285Y-53040642D01*
X43034857Y-52931785D01*
X43034857Y-52496357D01*
X43089285Y-52387500D01*
X43198142Y-52333071D01*
X43415857Y-52333071D01*
X43524714Y-52387500D01*
X43579142Y-52496357D01*
X43579142Y-52605214D01*
X43034857Y-52714071D01*
X44069000Y-53095071D02*
X44069000Y-52333071D01*
X44069000Y-52550785D02*
X44123428Y-52441928D01*
X44177857Y-52387500D01*
X44286714Y-52333071D01*
X44395571Y-52333071D01*
X45647428Y-52659642D02*
X46518285Y-52659642D01*
X47933428Y-53095071D02*
X47933428Y-51952071D01*
X48314428Y-52768500D01*
X48695428Y-51952071D01*
X48695428Y-53095071D01*
X49675142Y-53040642D02*
X49566285Y-53095071D01*
X49348571Y-53095071D01*
X49239714Y-53040642D01*
X49185285Y-52931785D01*
X49185285Y-52496357D01*
X49239714Y-52387500D01*
X49348571Y-52333071D01*
X49566285Y-52333071D01*
X49675142Y-52387500D01*
X49729571Y-52496357D01*
X49729571Y-52605214D01*
X49185285Y-52714071D01*
X50219428Y-53095071D02*
X50219428Y-52333071D01*
X50219428Y-52441928D02*
X50273857Y-52387500D01*
X50382714Y-52333071D01*
X50546000Y-52333071D01*
X50654857Y-52387500D01*
X50709285Y-52496357D01*
X50709285Y-53095071D01*
X50709285Y-52496357D02*
X50763714Y-52387500D01*
X50872571Y-52333071D01*
X51035857Y-52333071D01*
X51144714Y-52387500D01*
X51199142Y-52496357D01*
X51199142Y-53095071D01*
X51906714Y-53095071D02*
X51797857Y-53040642D01*
X51743428Y-52986214D01*
X51689000Y-52877357D01*
X51689000Y-52550785D01*
X51743428Y-52441928D01*
X51797857Y-52387500D01*
X51906714Y-52333071D01*
X52070000Y-52333071D01*
X52178857Y-52387500D01*
X52233285Y-52441928D01*
X52287714Y-52550785D01*
X52287714Y-52877357D01*
X52233285Y-52986214D01*
X52178857Y-53040642D01*
X52070000Y-53095071D01*
X51906714Y-53095071D01*
X52777571Y-53095071D02*
X52777571Y-52333071D01*
X52777571Y-52550785D02*
X52832000Y-52441928D01*
X52886428Y-52387500D01*
X52995285Y-52333071D01*
X53104142Y-52333071D01*
X53376285Y-52333071D02*
X53648428Y-53095071D01*
X53920571Y-52333071D02*
X53648428Y-53095071D01*
X53539571Y-53367214D01*
X53485142Y-53421642D01*
X53376285Y-53476071D01*
X55172428Y-52768500D02*
X55716714Y-52768500D01*
X55063571Y-53095071D02*
X55444571Y-51952071D01*
X55825571Y-53095071D01*
X56696428Y-53095071D02*
X56696428Y-51952071D01*
X56696428Y-53040642D02*
X56587571Y-53095071D01*
X56369857Y-53095071D01*
X56261000Y-53040642D01*
X56206571Y-52986214D01*
X56152142Y-52877357D01*
X56152142Y-52550785D01*
X56206571Y-52441928D01*
X56261000Y-52387500D01*
X56369857Y-52333071D01*
X56587571Y-52333071D01*
X56696428Y-52387500D01*
X57730571Y-53095071D02*
X57730571Y-51952071D01*
X57730571Y-53040642D02*
X57621714Y-53095071D01*
X57404000Y-53095071D01*
X57295142Y-53040642D01*
X57240714Y-52986214D01*
X57186285Y-52877357D01*
X57186285Y-52550785D01*
X57240714Y-52441928D01*
X57295142Y-52387500D01*
X57404000Y-52333071D01*
X57621714Y-52333071D01*
X57730571Y-52387500D01*
X58274857Y-53095071D02*
X58274857Y-52333071D01*
X58274857Y-52550785D02*
X58329285Y-52441928D01*
X58383714Y-52387500D01*
X58492571Y-52333071D01*
X58601428Y-52333071D01*
X59417857Y-53040642D02*
X59309000Y-53095071D01*
X59091285Y-53095071D01*
X58982428Y-53040642D01*
X58928000Y-52931785D01*
X58928000Y-52496357D01*
X58982428Y-52387500D01*
X59091285Y-52333071D01*
X59309000Y-52333071D01*
X59417857Y-52387500D01*
X59472285Y-52496357D01*
X59472285Y-52605214D01*
X58928000Y-52714071D01*
X59907714Y-53040642D02*
X60016571Y-53095071D01*
X60234285Y-53095071D01*
X60343142Y-53040642D01*
X60397571Y-52931785D01*
X60397571Y-52877357D01*
X60343142Y-52768500D01*
X60234285Y-52714071D01*
X60071000Y-52714071D01*
X59962142Y-52659642D01*
X59907714Y-52550785D01*
X59907714Y-52496357D01*
X59962142Y-52387500D01*
X60071000Y-52333071D01*
X60234285Y-52333071D01*
X60343142Y-52387500D01*
X60833000Y-53040642D02*
X60941857Y-53095071D01*
X61159571Y-53095071D01*
X61268428Y-53040642D01*
X61322857Y-52931785D01*
X61322857Y-52877357D01*
X61268428Y-52768500D01*
X61159571Y-52714071D01*
X60996285Y-52714071D01*
X60887428Y-52659642D01*
X60833000Y-52550785D01*
X60833000Y-52496357D01*
X60887428Y-52387500D01*
X60996285Y-52333071D01*
X61159571Y-52333071D01*
X61268428Y-52387500D01*
X63336714Y-53095071D02*
X62955714Y-52550785D01*
X62683571Y-53095071D02*
X62683571Y-51952071D01*
X63118999Y-51952071D01*
X63227857Y-52006500D01*
X63282285Y-52060928D01*
X63336714Y-52169785D01*
X63336714Y-52333071D01*
X63282285Y-52441928D01*
X63227857Y-52496357D01*
X63118999Y-52550785D01*
X62683571Y-52550785D01*
X64261999Y-53040642D02*
X64153142Y-53095071D01*
X63935428Y-53095071D01*
X63826571Y-53040642D01*
X63772142Y-52931785D01*
X63772142Y-52496357D01*
X63826571Y-52387500D01*
X63935428Y-52333071D01*
X64153142Y-52333071D01*
X64261999Y-52387500D01*
X64316428Y-52496357D01*
X64316428Y-52605214D01*
X63772142Y-52714071D01*
X65296142Y-52333071D02*
X65296142Y-53258357D01*
X65241714Y-53367214D01*
X65187285Y-53421642D01*
X65078428Y-53476071D01*
X64915142Y-53476071D01*
X64806285Y-53421642D01*
X65296142Y-53040642D02*
X65187285Y-53095071D01*
X64969571Y-53095071D01*
X64860714Y-53040642D01*
X64806285Y-52986214D01*
X64751857Y-52877357D01*
X64751857Y-52550785D01*
X64806285Y-52441928D01*
X64860714Y-52387500D01*
X64969571Y-52333071D01*
X65187285Y-52333071D01*
X65296142Y-52387500D01*
X65840428Y-53095071D02*
X65840428Y-52333071D01*
X65840428Y-51952071D02*
X65785999Y-52006500D01*
X65840428Y-52060928D01*
X65894857Y-52006500D01*
X65840428Y-51952071D01*
X65840428Y-52060928D01*
X66330285Y-53040642D02*
X66439142Y-53095071D01*
X66656857Y-53095071D01*
X66765714Y-53040642D01*
X66820142Y-52931785D01*
X66820142Y-52877357D01*
X66765714Y-52768500D01*
X66656857Y-52714071D01*
X66493571Y-52714071D01*
X66384714Y-52659642D01*
X66330285Y-52550785D01*
X66330285Y-52496357D01*
X66384714Y-52387500D01*
X66493571Y-52333071D01*
X66656857Y-52333071D01*
X66765714Y-52387500D01*
X67146714Y-52333071D02*
X67582142Y-52333071D01*
X67310000Y-51952071D02*
X67310000Y-52931785D01*
X67364428Y-53040642D01*
X67473285Y-53095071D01*
X67582142Y-53095071D01*
X68398571Y-53040642D02*
X68289714Y-53095071D01*
X68072000Y-53095071D01*
X67963142Y-53040642D01*
X67908714Y-52931785D01*
X67908714Y-52496357D01*
X67963142Y-52387500D01*
X68072000Y-52333071D01*
X68289714Y-52333071D01*
X68398571Y-52387500D01*
X68453000Y-52496357D01*
X68453000Y-52605214D01*
X67908714Y-52714071D01*
X68942857Y-53095071D02*
X68942857Y-52333071D01*
X68942857Y-52550785D02*
X68997285Y-52441928D01*
X69051714Y-52387500D01*
X69160571Y-52333071D01*
X69269428Y-52333071D01*
D11*
X28000000Y-29090000D02*
X17720000Y-29090000D01*
X28000000Y-49650000D02*
X28000000Y-29090000D01*
X17720000Y-49650000D02*
X28000000Y-49650000D01*
X17720000Y-29090000D02*
X17720000Y-49650000D01*
X25510000Y-29150000D02*
X23860000Y-29150000D01*
X25510000Y-49590000D02*
X25510000Y-29150000D01*
X20210000Y-49590000D02*
X25510000Y-49590000D01*
X20210000Y-29150000D02*
X20210000Y-49590000D01*
X21860000Y-29150000D02*
X20210000Y-29150000D01*
X23860000Y-29150000D02*
G75*
G02X21860000Y-29150000I-1000000J0D01*
G01*
X38764000Y-61100000D02*
X38764000Y-59885000D01*
X38824000Y-65060000D02*
X38824000Y-67320000D01*
X39324000Y-65060000D02*
X39324000Y-67320000D01*
X45924000Y-63460000D02*
X46924000Y-63460000D01*
X45924000Y-65060000D02*
X45924000Y-63460000D01*
X46924000Y-65060000D02*
X45924000Y-65060000D01*
X46924000Y-63460000D02*
X46924000Y-65060000D01*
X39324000Y-63460000D02*
X38324000Y-63460000D01*
X39324000Y-65060000D02*
X39324000Y-63460000D01*
X38324000Y-65060000D02*
X39324000Y-65060000D01*
X38324000Y-63460000D02*
X38324000Y-65060000D01*
X47684000Y-61100000D02*
X46764000Y-61100000D01*
X37564000Y-61100000D02*
X38484000Y-61100000D01*
X45124000Y-62960000D02*
X45124000Y-67320000D01*
X40124000Y-62960000D02*
X45124000Y-62960000D01*
X40124000Y-67320000D02*
X40124000Y-62960000D01*
X46764000Y-61100000D02*
X46484000Y-61100000D01*
X46764000Y-59500000D02*
X46764000Y-61100000D01*
X47684000Y-59500000D02*
X46764000Y-59500000D01*
X47684000Y-67320000D02*
X47684000Y-59500000D01*
X37564000Y-67320000D02*
X47684000Y-67320000D01*
X37564000Y-59500000D02*
X37564000Y-67320000D01*
X38484000Y-59500000D02*
X37564000Y-59500000D01*
X38484000Y-61100000D02*
X38484000Y-59500000D01*
X38764000Y-61100000D02*
X38484000Y-61100000D01*
X53496000Y-61100000D02*
X53496000Y-59885000D01*
X53556000Y-65060000D02*
X53556000Y-67320000D01*
X54056000Y-65060000D02*
X54056000Y-67320000D01*
X60656000Y-63460000D02*
X61656000Y-63460000D01*
X60656000Y-65060000D02*
X60656000Y-63460000D01*
X61656000Y-65060000D02*
X60656000Y-65060000D01*
X61656000Y-63460000D02*
X61656000Y-65060000D01*
X54056000Y-63460000D02*
X53056000Y-63460000D01*
X54056000Y-65060000D02*
X54056000Y-63460000D01*
X53056000Y-65060000D02*
X54056000Y-65060000D01*
X53056000Y-63460000D02*
X53056000Y-65060000D01*
X62416000Y-61100000D02*
X61496000Y-61100000D01*
X52296000Y-61100000D02*
X53216000Y-61100000D01*
X59856000Y-62960000D02*
X59856000Y-67320000D01*
X54856000Y-62960000D02*
X59856000Y-62960000D01*
X54856000Y-67320000D02*
X54856000Y-62960000D01*
X61496000Y-61100000D02*
X61216000Y-61100000D01*
X61496000Y-59500000D02*
X61496000Y-61100000D01*
X62416000Y-59500000D02*
X61496000Y-59500000D01*
X62416000Y-67320000D02*
X62416000Y-59500000D01*
X52296000Y-67320000D02*
X62416000Y-67320000D01*
X52296000Y-59500000D02*
X52296000Y-67320000D01*
X53216000Y-59500000D02*
X52296000Y-59500000D01*
X53216000Y-61100000D02*
X53216000Y-59500000D01*
X53496000Y-61100000D02*
X53216000Y-61100000D01*
X67720000Y-61100000D02*
X67720000Y-59885000D01*
X67780000Y-65060000D02*
X67780000Y-67320000D01*
X68280000Y-65060000D02*
X68280000Y-67320000D01*
X74880000Y-63460000D02*
X75880000Y-63460000D01*
X74880000Y-65060000D02*
X74880000Y-63460000D01*
X75880000Y-65060000D02*
X74880000Y-65060000D01*
X75880000Y-63460000D02*
X75880000Y-65060000D01*
X68280000Y-63460000D02*
X67280000Y-63460000D01*
X68280000Y-65060000D02*
X68280000Y-63460000D01*
X67280000Y-65060000D02*
X68280000Y-65060000D01*
X67280000Y-63460000D02*
X67280000Y-65060000D01*
X76640000Y-61100000D02*
X75720000Y-61100000D01*
X66520000Y-61100000D02*
X67440000Y-61100000D01*
X74080000Y-62960000D02*
X74080000Y-67320000D01*
X69080000Y-62960000D02*
X74080000Y-62960000D01*
X69080000Y-67320000D02*
X69080000Y-62960000D01*
X75720000Y-61100000D02*
X75440000Y-61100000D01*
X75720000Y-59500000D02*
X75720000Y-61100000D01*
X76640000Y-59500000D02*
X75720000Y-59500000D01*
X76640000Y-67320000D02*
X76640000Y-59500000D01*
X66520000Y-67320000D02*
X76640000Y-67320000D01*
X66520000Y-59500000D02*
X66520000Y-67320000D01*
X67440000Y-59500000D02*
X66520000Y-59500000D01*
X67440000Y-61100000D02*
X67440000Y-59500000D01*
X67720000Y-61100000D02*
X67440000Y-61100000D01*
X28096000Y-61100000D02*
X28096000Y-59885000D01*
X28156000Y-65060000D02*
X28156000Y-67320000D01*
X28656000Y-65060000D02*
X28656000Y-67320000D01*
X31256000Y-63460000D02*
X32256000Y-63460000D01*
X31256000Y-65060000D02*
X31256000Y-63460000D01*
X32256000Y-65060000D02*
X31256000Y-65060000D01*
X32256000Y-63460000D02*
X32256000Y-65060000D01*
X28656000Y-63460000D02*
X27656000Y-63460000D01*
X28656000Y-65060000D02*
X28656000Y-63460000D01*
X27656000Y-65060000D02*
X28656000Y-65060000D01*
X27656000Y-63460000D02*
X27656000Y-65060000D01*
X33016000Y-61100000D02*
X32096000Y-61100000D01*
X26896000Y-61100000D02*
X27816000Y-61100000D01*
X30456000Y-62960000D02*
X30456000Y-67320000D01*
X29456000Y-62960000D02*
X30456000Y-62960000D01*
X29456000Y-67320000D02*
X29456000Y-62960000D01*
X32096000Y-61100000D02*
X31816000Y-61100000D01*
X32096000Y-59500000D02*
X32096000Y-61100000D01*
X33016000Y-59500000D02*
X32096000Y-59500000D01*
X33016000Y-67320000D02*
X33016000Y-59500000D01*
X26896000Y-67320000D02*
X33016000Y-67320000D01*
X26896000Y-59500000D02*
X26896000Y-67320000D01*
X27816000Y-59500000D02*
X26896000Y-59500000D01*
X27816000Y-61100000D02*
X27816000Y-59500000D01*
X28096000Y-61100000D02*
X27816000Y-61100000D01*
D12*
X85440017Y-21590000D02*
G75*
G03X85440017Y-21590000I-2890017J0D01*
G01*
X85440017Y-62230000D02*
G75*
G03X85440017Y-62230000I-2890017J0D01*
G01*
X23210017Y-62230000D02*
G75*
G03X23210017Y-62230000I-2890017J0D01*
G01*
X23210017Y-21590000D02*
G75*
G03X23210017Y-21590000I-2890017J0D01*
G01*
D11*
X40700000Y-29090000D02*
X30420000Y-29090000D01*
X40700000Y-49650000D02*
X40700000Y-29090000D01*
X30420000Y-49650000D02*
X40700000Y-49650000D01*
X30420000Y-29090000D02*
X30420000Y-49650000D01*
X38210000Y-29150000D02*
X36560000Y-29150000D01*
X38210000Y-49590000D02*
X38210000Y-29150000D01*
X32910000Y-49590000D02*
X38210000Y-49590000D01*
X32910000Y-29150000D02*
X32910000Y-49590000D01*
X34560000Y-29150000D02*
X32910000Y-29150000D01*
X36560000Y-29150000D02*
G75*
G02X34560000Y-29150000I-1000000J0D01*
G01*
X48326000Y-20762000D02*
X48326000Y-18862000D01*
X50226000Y-20762000D02*
X48326000Y-20762000D01*
X50226000Y-18862000D02*
X50226000Y-20762000D01*
X48326000Y-18862000D02*
X50226000Y-18862000D01*
X45278000Y-20762000D02*
X45278000Y-18862000D01*
X47178000Y-20762000D02*
X45278000Y-20762000D01*
X47178000Y-18862000D02*
X47178000Y-20762000D01*
X45278000Y-18862000D02*
X47178000Y-18862000D01*
X42230000Y-20762000D02*
X42230000Y-18862000D01*
X44130000Y-20762000D02*
X42230000Y-20762000D01*
X44130000Y-18862000D02*
X44130000Y-20762000D01*
X42230000Y-18862000D02*
X44130000Y-18862000D01*
X39182000Y-20762000D02*
X39182000Y-18862000D01*
X41082000Y-20762000D02*
X39182000Y-20762000D01*
X41082000Y-18862000D02*
X41082000Y-20762000D01*
X39182000Y-18862000D02*
X41082000Y-18862000D01*
X73218000Y-20762000D02*
X73218000Y-18862000D01*
X75118000Y-20762000D02*
X73218000Y-20762000D01*
X75118000Y-18862000D02*
X75118000Y-20762000D01*
X73218000Y-18862000D02*
X75118000Y-18862000D01*
X62550000Y-20762000D02*
X62550000Y-18862000D01*
X64450000Y-20762000D02*
X62550000Y-20762000D01*
X64450000Y-18862000D02*
X64450000Y-20762000D01*
X62550000Y-18862000D02*
X64450000Y-18862000D01*
X35118000Y-20762000D02*
X35118000Y-18862000D01*
X37018000Y-20762000D02*
X35118000Y-20762000D01*
X37018000Y-18862000D02*
X37018000Y-20762000D01*
X35118000Y-18862000D02*
X37018000Y-18862000D01*
X59502000Y-20762000D02*
X59502000Y-18862000D01*
X61402000Y-20762000D02*
X59502000Y-20762000D01*
X61402000Y-18862000D02*
X61402000Y-20762000D01*
X59502000Y-18862000D02*
X61402000Y-18862000D01*
X32070000Y-20762000D02*
X32070000Y-18862000D01*
X33970000Y-20762000D02*
X32070000Y-20762000D01*
X33970000Y-18862000D02*
X33970000Y-20762000D01*
X32070000Y-18862000D02*
X33970000Y-18862000D01*
X56454000Y-20762000D02*
X56454000Y-18862000D01*
X58354000Y-20762000D02*
X56454000Y-20762000D01*
X58354000Y-18862000D02*
X58354000Y-20762000D01*
X56454000Y-18862000D02*
X58354000Y-18862000D01*
X53406000Y-20762000D02*
X53406000Y-18862000D01*
X55306000Y-20762000D02*
X53406000Y-20762000D01*
X55306000Y-18862000D02*
X55306000Y-20762000D01*
X53406000Y-18862000D02*
X55306000Y-18862000D01*
X29022000Y-20762000D02*
X29022000Y-18862000D01*
X30922000Y-20762000D02*
X29022000Y-20762000D01*
X30922000Y-18862000D02*
X30922000Y-20762000D01*
X29022000Y-18862000D02*
X30922000Y-18862000D01*
X25974000Y-20762000D02*
X25974000Y-18862000D01*
X27874000Y-20762000D02*
X25974000Y-20762000D01*
X27874000Y-18862000D02*
X27874000Y-20762000D01*
X25974000Y-18862000D02*
X27874000Y-18862000D01*
X59900000Y-49790000D02*
X72100000Y-49790000D01*
X72100000Y-36190000D02*
X72100000Y-49790000D01*
X72100000Y-36190000D02*
X59900000Y-36190000D01*
X59900000Y-49790000D02*
X59900000Y-36190000D01*
X53975000Y-45126667D02*
X55245000Y-45126667D01*
X55175000Y-46480000D02*
X55175000Y-45126667D01*
X55055000Y-46480000D02*
X55055000Y-45126667D01*
X54935000Y-46480000D02*
X54935000Y-45126667D01*
X54815000Y-46480000D02*
X54815000Y-45126667D01*
X54695000Y-46480000D02*
X54695000Y-45126667D01*
X54575000Y-46480000D02*
X54575000Y-45126667D01*
X54455000Y-46480000D02*
X54455000Y-45126667D01*
X54335000Y-46480000D02*
X54335000Y-45126667D01*
X54215000Y-46480000D02*
X54215000Y-45126667D01*
X54095000Y-46480000D02*
X54095000Y-45126667D01*
X53975000Y-42420000D02*
X53975000Y-46480000D01*
X55245000Y-42420000D02*
X53975000Y-42420000D01*
X55245000Y-46480000D02*
X55245000Y-42420000D01*
X53975000Y-46480000D02*
X55245000Y-46480000D01*
X51435000Y-45126667D02*
X52705000Y-45126667D01*
X52635000Y-46480000D02*
X52635000Y-45126667D01*
X52515000Y-46480000D02*
X52515000Y-45126667D01*
X52395000Y-46480000D02*
X52395000Y-45126667D01*
X52275000Y-46480000D02*
X52275000Y-45126667D01*
X52155000Y-46480000D02*
X52155000Y-45126667D01*
X52035000Y-46480000D02*
X52035000Y-45126667D01*
X51915000Y-46480000D02*
X51915000Y-45126667D01*
X51795000Y-46480000D02*
X51795000Y-45126667D01*
X51675000Y-46480000D02*
X51675000Y-45126667D01*
X51555000Y-46480000D02*
X51555000Y-45126667D01*
X51435000Y-42420000D02*
X51435000Y-46480000D01*
X52705000Y-42420000D02*
X51435000Y-42420000D01*
X52705000Y-46480000D02*
X52705000Y-42420000D01*
X51435000Y-46480000D02*
X52705000Y-46480000D01*
X48895000Y-45126667D02*
X50165000Y-45126667D01*
X50095000Y-46480000D02*
X50095000Y-45126667D01*
X49975000Y-46480000D02*
X49975000Y-45126667D01*
X49855000Y-46480000D02*
X49855000Y-45126667D01*
X49735000Y-46480000D02*
X49735000Y-45126667D01*
X49615000Y-46480000D02*
X49615000Y-45126667D01*
X49495000Y-46480000D02*
X49495000Y-45126667D01*
X49375000Y-46480000D02*
X49375000Y-45126667D01*
X49255000Y-46480000D02*
X49255000Y-45126667D01*
X49135000Y-46480000D02*
X49135000Y-45126667D01*
X49015000Y-46480000D02*
X49015000Y-45126667D01*
X48895000Y-42420000D02*
X48895000Y-46480000D01*
X50165000Y-42420000D02*
X48895000Y-42420000D01*
X50165000Y-46480000D02*
X50165000Y-42420000D01*
X48895000Y-46480000D02*
X50165000Y-46480000D01*
X46355000Y-45126667D02*
X47625000Y-45126667D01*
X47555000Y-46480000D02*
X47555000Y-45126667D01*
X47435000Y-46480000D02*
X47435000Y-45126667D01*
X47315000Y-46480000D02*
X47315000Y-45126667D01*
X47195000Y-46480000D02*
X47195000Y-45126667D01*
X47075000Y-46480000D02*
X47075000Y-45126667D01*
X46955000Y-46480000D02*
X46955000Y-45126667D01*
X46835000Y-46480000D02*
X46835000Y-45126667D01*
X46715000Y-46480000D02*
X46715000Y-45126667D01*
X46595000Y-46480000D02*
X46595000Y-45126667D01*
X46475000Y-46480000D02*
X46475000Y-45126667D01*
X46355000Y-42420000D02*
X46355000Y-46480000D01*
X47625000Y-42420000D02*
X46355000Y-42420000D01*
X47625000Y-46480000D02*
X47625000Y-42420000D01*
X46355000Y-46480000D02*
X47625000Y-46480000D01*
X44330000Y-49640000D02*
X45713000Y-49640000D01*
X44330000Y-49640000D02*
X44330000Y-48256000D01*
X44570000Y-39500000D02*
X57030000Y-39500000D01*
X44570000Y-49400000D02*
X57030000Y-49400000D01*
X57030000Y-49400000D02*
X57030000Y-39500000D01*
X44570000Y-49400000D02*
X44570000Y-39500000D01*
X75280000Y-28560000D02*
X75280000Y-32400000D01*
X77120000Y-28560000D02*
X77120000Y-32400000D01*
X75280000Y-36180000D02*
X75280000Y-40020000D01*
X77120000Y-36180000D02*
X77120000Y-40020000D01*
X75280000Y-43800000D02*
X75280000Y-47640000D01*
X77120000Y-43800000D02*
X77120000Y-47640000D01*
X75280000Y-51674000D02*
X75280000Y-55514000D01*
X77120000Y-51674000D02*
X77120000Y-55514000D01*
X52690000Y-35210000D02*
X56530000Y-35210000D01*
X52690000Y-33370000D02*
X56530000Y-33370000D01*
X43800000Y-35210000D02*
X47640000Y-35210000D01*
X43800000Y-33370000D02*
X47640000Y-33370000D01*
X78974000Y-28935000D02*
X78974000Y-32025000D01*
X84034000Y-30480000D02*
G75*
G03X84034000Y-30480000I-2500000J0D01*
G01*
X84524000Y-30479538D02*
G75*
G02X78974000Y-32024830I-2990000J-462D01*
G01*
X84524000Y-30480462D02*
G75*
G03X78974000Y-28935170I-2990000J462D01*
G01*
X78974000Y-36555000D02*
X78974000Y-39645000D01*
X84034000Y-38100000D02*
G75*
G03X84034000Y-38100000I-2500000J0D01*
G01*
X84524000Y-38099538D02*
G75*
G02X78974000Y-39644830I-2990000J-462D01*
G01*
X84524000Y-38100462D02*
G75*
G03X78974000Y-36555170I-2990000J462D01*
G01*
X78974000Y-44175000D02*
X78974000Y-47265000D01*
X84034000Y-45720000D02*
G75*
G03X84034000Y-45720000I-2500000J0D01*
G01*
X84524000Y-45719538D02*
G75*
G02X78974000Y-47264830I-2990000J-462D01*
G01*
X84524000Y-45720462D02*
G75*
G03X78974000Y-44175170I-2990000J462D01*
G01*
X78974000Y-51795000D02*
X78974000Y-54885000D01*
X84034000Y-53340000D02*
G75*
G03X84034000Y-53340000I-2500000J0D01*
G01*
X84524000Y-53339538D02*
G75*
G02X78974000Y-54884830I-2990000J-462D01*
G01*
X84524000Y-53340462D02*
G75*
G03X78974000Y-51795170I-2990000J462D01*
G01*
X53065000Y-30500000D02*
X56155000Y-30500000D01*
X57110000Y-27940000D02*
G75*
G03X57110000Y-27940000I-2500000J0D01*
G01*
X54609538Y-24950000D02*
G75*
G02X56154830Y-30500000I462J-2990000D01*
G01*
X54610462Y-24950000D02*
G75*
G03X53065170Y-30500000I-462J-2990000D01*
G01*
X44175000Y-30500000D02*
X47265000Y-30500000D01*
X48220000Y-27940000D02*
G75*
G03X48220000Y-27940000I-2500000J0D01*
G01*
X45719538Y-24950000D02*
G75*
G02X47264830Y-30500000I462J-2990000D01*
G01*
X45720462Y-24950000D02*
G75*
G03X44175170Y-30500000I-462J-2990000D01*
G01*
X64629000Y-30384000D02*
X65887000Y-30384000D01*
X64629000Y-28544000D02*
X65887000Y-28544000D01*
X70424000Y-20762000D02*
X70424000Y-18862000D01*
X72324000Y-20762000D02*
X70424000Y-20762000D01*
X72324000Y-18862000D02*
X72324000Y-20762000D01*
X70424000Y-18862000D02*
X72324000Y-18862000D01*
D13*
X22098095Y-27602380D02*
X22098095Y-28411904D01*
X22145714Y-28507142D01*
X22193333Y-28554761D01*
X22288571Y-28602380D01*
X22479047Y-28602380D01*
X22574285Y-28554761D01*
X22621904Y-28507142D01*
X22669523Y-28411904D01*
X22669523Y-27602380D01*
X23098095Y-27697619D02*
X23145714Y-27650000D01*
X23240952Y-27602380D01*
X23479047Y-27602380D01*
X23574285Y-27650000D01*
X23621904Y-27697619D01*
X23669523Y-27792857D01*
X23669523Y-27888095D01*
X23621904Y-28030952D01*
X23050476Y-28602380D01*
X23669523Y-28602380D01*
X39854523Y-58586666D02*
X40330714Y-58586666D01*
X39759285Y-58872380D02*
X40092619Y-57872380D01*
X40425952Y-58872380D01*
X41187857Y-58872380D02*
X41187857Y-57872380D01*
X41187857Y-58824761D02*
X41092619Y-58872380D01*
X40902142Y-58872380D01*
X40806904Y-58824761D01*
X40759285Y-58777142D01*
X40711666Y-58681904D01*
X40711666Y-58396190D01*
X40759285Y-58300952D01*
X40806904Y-58253333D01*
X40902142Y-58205714D01*
X41092619Y-58205714D01*
X41187857Y-58253333D01*
X42092619Y-58872380D02*
X42092619Y-57872380D01*
X42092619Y-58824761D02*
X41997380Y-58872380D01*
X41806904Y-58872380D01*
X41711666Y-58824761D01*
X41664047Y-58777142D01*
X41616428Y-58681904D01*
X41616428Y-58396190D01*
X41664047Y-58300952D01*
X41711666Y-58253333D01*
X41806904Y-58205714D01*
X41997380Y-58205714D01*
X42092619Y-58253333D01*
X42568809Y-58872380D02*
X42568809Y-58205714D01*
X42568809Y-58396190D02*
X42616428Y-58300952D01*
X42664047Y-58253333D01*
X42759285Y-58205714D01*
X42854523Y-58205714D01*
X43568809Y-58824761D02*
X43473571Y-58872380D01*
X43283095Y-58872380D01*
X43187857Y-58824761D01*
X43140238Y-58729523D01*
X43140238Y-58348571D01*
X43187857Y-58253333D01*
X43283095Y-58205714D01*
X43473571Y-58205714D01*
X43568809Y-58253333D01*
X43616428Y-58348571D01*
X43616428Y-58443809D01*
X43140238Y-58539047D01*
X43997380Y-58824761D02*
X44092619Y-58872380D01*
X44283095Y-58872380D01*
X44378333Y-58824761D01*
X44425952Y-58729523D01*
X44425952Y-58681904D01*
X44378333Y-58586666D01*
X44283095Y-58539047D01*
X44140238Y-58539047D01*
X44045000Y-58491428D01*
X43997380Y-58396190D01*
X43997380Y-58348571D01*
X44045000Y-58253333D01*
X44140238Y-58205714D01*
X44283095Y-58205714D01*
X44378333Y-58253333D01*
X44806904Y-58824761D02*
X44902142Y-58872380D01*
X45092619Y-58872380D01*
X45187857Y-58824761D01*
X45235476Y-58729523D01*
X45235476Y-58681904D01*
X45187857Y-58586666D01*
X45092619Y-58539047D01*
X44949761Y-58539047D01*
X44854523Y-58491428D01*
X44806904Y-58396190D01*
X44806904Y-58348571D01*
X44854523Y-58253333D01*
X44949761Y-58205714D01*
X45092619Y-58205714D01*
X45187857Y-58253333D01*
X55745238Y-58872380D02*
X55745238Y-57872380D01*
X56078571Y-58586666D01*
X56411904Y-57872380D01*
X56411904Y-58872380D01*
X56888095Y-58872380D02*
X56888095Y-58205714D01*
X56888095Y-57872380D02*
X56840476Y-57920000D01*
X56888095Y-57967619D01*
X56935714Y-57920000D01*
X56888095Y-57872380D01*
X56888095Y-57967619D01*
X57316666Y-58824761D02*
X57411904Y-58872380D01*
X57602380Y-58872380D01*
X57697619Y-58824761D01*
X57745238Y-58729523D01*
X57745238Y-58681904D01*
X57697619Y-58586666D01*
X57602380Y-58539047D01*
X57459523Y-58539047D01*
X57364285Y-58491428D01*
X57316666Y-58396190D01*
X57316666Y-58348571D01*
X57364285Y-58253333D01*
X57459523Y-58205714D01*
X57602380Y-58205714D01*
X57697619Y-58253333D01*
X58602380Y-58824761D02*
X58507142Y-58872380D01*
X58316666Y-58872380D01*
X58221428Y-58824761D01*
X58173809Y-58777142D01*
X58126190Y-58681904D01*
X58126190Y-58396190D01*
X58173809Y-58300952D01*
X58221428Y-58253333D01*
X58316666Y-58205714D01*
X58507142Y-58205714D01*
X58602380Y-58253333D01*
X70794285Y-58348571D02*
X70937142Y-58396190D01*
X70984761Y-58443809D01*
X71032380Y-58539047D01*
X71032380Y-58681904D01*
X70984761Y-58777142D01*
X70937142Y-58824761D01*
X70841904Y-58872380D01*
X70460952Y-58872380D01*
X70460952Y-57872380D01*
X70794285Y-57872380D01*
X70889523Y-57920000D01*
X70937142Y-57967619D01*
X70984761Y-58062857D01*
X70984761Y-58158095D01*
X70937142Y-58253333D01*
X70889523Y-58300952D01*
X70794285Y-58348571D01*
X70460952Y-58348571D01*
X71889523Y-58205714D02*
X71889523Y-58872380D01*
X71460952Y-58205714D02*
X71460952Y-58729523D01*
X71508571Y-58824761D01*
X71603809Y-58872380D01*
X71746666Y-58872380D01*
X71841904Y-58824761D01*
X71889523Y-58777142D01*
X72318095Y-58824761D02*
X72413333Y-58872380D01*
X72603809Y-58872380D01*
X72699047Y-58824761D01*
X72746666Y-58729523D01*
X72746666Y-58681904D01*
X72699047Y-58586666D01*
X72603809Y-58539047D01*
X72460952Y-58539047D01*
X72365714Y-58491428D01*
X72318095Y-58396190D01*
X72318095Y-58348571D01*
X72365714Y-58253333D01*
X72460952Y-58205714D01*
X72603809Y-58205714D01*
X72699047Y-58253333D01*
X27868809Y-58872380D02*
X27868809Y-57872380D01*
X28249761Y-57872380D01*
X28344999Y-57920000D01*
X28392619Y-57967619D01*
X28440238Y-58062857D01*
X28440238Y-58205714D01*
X28392619Y-58300952D01*
X28344999Y-58348571D01*
X28249761Y-58396190D01*
X27868809Y-58396190D01*
X29011666Y-58872380D02*
X28916428Y-58824761D01*
X28868809Y-58777142D01*
X28821190Y-58681904D01*
X28821190Y-58396190D01*
X28868809Y-58300952D01*
X28916428Y-58253333D01*
X29011666Y-58205714D01*
X29154523Y-58205714D01*
X29249761Y-58253333D01*
X29297380Y-58300952D01*
X29344999Y-58396190D01*
X29344999Y-58681904D01*
X29297380Y-58777142D01*
X29249761Y-58824761D01*
X29154523Y-58872380D01*
X29011666Y-58872380D01*
X29678333Y-58205714D02*
X29868809Y-58872380D01*
X30059285Y-58396190D01*
X30249761Y-58872380D01*
X30440238Y-58205714D01*
X31202142Y-58824761D02*
X31106904Y-58872380D01*
X30916428Y-58872380D01*
X30821190Y-58824761D01*
X30773571Y-58729523D01*
X30773571Y-58348571D01*
X30821190Y-58253333D01*
X30916428Y-58205714D01*
X31106904Y-58205714D01*
X31202142Y-58253333D01*
X31249761Y-58348571D01*
X31249761Y-58443809D01*
X30773571Y-58539047D01*
X31678333Y-58872380D02*
X31678333Y-58205714D01*
X31678333Y-58396190D02*
X31725952Y-58300952D01*
X31773571Y-58253333D01*
X31868809Y-58205714D01*
X31964047Y-58205714D01*
X34798095Y-27602380D02*
X34798095Y-28411904D01*
X34845714Y-28507142D01*
X34893333Y-28554761D01*
X34988571Y-28602380D01*
X35179047Y-28602380D01*
X35274285Y-28554761D01*
X35321904Y-28507142D01*
X35369523Y-28411904D01*
X35369523Y-27602380D01*
X36369523Y-28602380D02*
X35798095Y-28602380D01*
X36083809Y-28602380D02*
X36083809Y-27602380D01*
X35988571Y-27745238D01*
X35893333Y-27840476D01*
X35798095Y-27888095D01*
D14*
X48719619Y-21646666D02*
X48961523Y-21646666D01*
X48671238Y-21791809D02*
X48840571Y-21283809D01*
X49009904Y-21791809D01*
X49058285Y-21840190D02*
X49445333Y-21840190D01*
X49517904Y-21283809D02*
X49832380Y-21283809D01*
X49663047Y-21477333D01*
X49735619Y-21477333D01*
X49784000Y-21501523D01*
X49808190Y-21525714D01*
X49832380Y-21574095D01*
X49832380Y-21695047D01*
X49808190Y-21743428D01*
X49784000Y-21767619D01*
X49735619Y-21791809D01*
X49590476Y-21791809D01*
X49542095Y-21767619D01*
X49517904Y-21743428D01*
X45671619Y-21646666D02*
X45913523Y-21646666D01*
X45623238Y-21791809D02*
X45792571Y-21283809D01*
X45961904Y-21791809D01*
X46010285Y-21840190D02*
X46397333Y-21840190D01*
X46494095Y-21332190D02*
X46518285Y-21308000D01*
X46566666Y-21283809D01*
X46687619Y-21283809D01*
X46736000Y-21308000D01*
X46760190Y-21332190D01*
X46784380Y-21380571D01*
X46784380Y-21428952D01*
X46760190Y-21501523D01*
X46469904Y-21791809D01*
X46784380Y-21791809D01*
X42623619Y-21646666D02*
X42865523Y-21646666D01*
X42575238Y-21791809D02*
X42744571Y-21283809D01*
X42913904Y-21791809D01*
X42962285Y-21840190D02*
X43349333Y-21840190D01*
X43736380Y-21791809D02*
X43446095Y-21791809D01*
X43591238Y-21791809D02*
X43591238Y-21283809D01*
X43542857Y-21356380D01*
X43494476Y-21404761D01*
X43446095Y-21428952D01*
X39575619Y-21646666D02*
X39817523Y-21646666D01*
X39527238Y-21791809D02*
X39696571Y-21283809D01*
X39865904Y-21791809D01*
X39914285Y-21840190D02*
X40301333Y-21840190D01*
X40519047Y-21283809D02*
X40567428Y-21283809D01*
X40615809Y-21308000D01*
X40640000Y-21332190D01*
X40664190Y-21380571D01*
X40688380Y-21477333D01*
X40688380Y-21598285D01*
X40664190Y-21695047D01*
X40640000Y-21743428D01*
X40615809Y-21767619D01*
X40567428Y-21791809D01*
X40519047Y-21791809D01*
X40470666Y-21767619D01*
X40446476Y-21743428D01*
X40422285Y-21695047D01*
X40398095Y-21598285D01*
X40398095Y-21477333D01*
X40422285Y-21380571D01*
X40446476Y-21332190D01*
X40470666Y-21308000D01*
X40519047Y-21283809D01*
X73780952Y-21308000D02*
X73732571Y-21283809D01*
X73660000Y-21283809D01*
X73587428Y-21308000D01*
X73539047Y-21356380D01*
X73514857Y-21404761D01*
X73490666Y-21501523D01*
X73490666Y-21574095D01*
X73514857Y-21670857D01*
X73539047Y-21719238D01*
X73587428Y-21767619D01*
X73660000Y-21791809D01*
X73708380Y-21791809D01*
X73780952Y-21767619D01*
X73805142Y-21743428D01*
X73805142Y-21574095D01*
X73708380Y-21574095D01*
X74022857Y-21791809D02*
X74022857Y-21283809D01*
X74313142Y-21791809D01*
X74313142Y-21283809D01*
X74555047Y-21791809D02*
X74555047Y-21283809D01*
X74676000Y-21283809D01*
X74748571Y-21308000D01*
X74796952Y-21356380D01*
X74821142Y-21404761D01*
X74845333Y-21501523D01*
X74845333Y-21574095D01*
X74821142Y-21670857D01*
X74796952Y-21719238D01*
X74748571Y-21767619D01*
X74676000Y-21791809D01*
X74555047Y-21791809D01*
X62592857Y-21791809D02*
X62592857Y-21283809D01*
X62786380Y-21283809D01*
X62834761Y-21308000D01*
X62858952Y-21332190D01*
X62883142Y-21380571D01*
X62883142Y-21453142D01*
X62858952Y-21501523D01*
X62834761Y-21525714D01*
X62786380Y-21549904D01*
X62592857Y-21549904D01*
X63391142Y-21791809D02*
X63221809Y-21549904D01*
X63100857Y-21791809D02*
X63100857Y-21283809D01*
X63294380Y-21283809D01*
X63342761Y-21308000D01*
X63366952Y-21332190D01*
X63391142Y-21380571D01*
X63391142Y-21453142D01*
X63366952Y-21501523D01*
X63342761Y-21525714D01*
X63294380Y-21549904D01*
X63100857Y-21549904D01*
X63705619Y-21283809D02*
X63802380Y-21283809D01*
X63850761Y-21308000D01*
X63899142Y-21356380D01*
X63923333Y-21453142D01*
X63923333Y-21622476D01*
X63899142Y-21719238D01*
X63850761Y-21767619D01*
X63802380Y-21791809D01*
X63705619Y-21791809D01*
X63657238Y-21767619D01*
X63608857Y-21719238D01*
X63584666Y-21622476D01*
X63584666Y-21453142D01*
X63608857Y-21356380D01*
X63657238Y-21308000D01*
X63705619Y-21283809D01*
X64407142Y-21308000D02*
X64358761Y-21283809D01*
X64286190Y-21283809D01*
X64213619Y-21308000D01*
X64165238Y-21356380D01*
X64141047Y-21404761D01*
X64116857Y-21501523D01*
X64116857Y-21574095D01*
X64141047Y-21670857D01*
X64165238Y-21719238D01*
X64213619Y-21767619D01*
X64286190Y-21791809D01*
X64334571Y-21791809D01*
X64407142Y-21767619D01*
X64431333Y-21743428D01*
X64431333Y-21574095D01*
X64334571Y-21574095D01*
X35160857Y-21525714D02*
X35233428Y-21549904D01*
X35257619Y-21574095D01*
X35281809Y-21622476D01*
X35281809Y-21695047D01*
X35257619Y-21743428D01*
X35233428Y-21767619D01*
X35185047Y-21791809D01*
X34991523Y-21791809D01*
X34991523Y-21283809D01*
X35160857Y-21283809D01*
X35209238Y-21308000D01*
X35233428Y-21332190D01*
X35257619Y-21380571D01*
X35257619Y-21428952D01*
X35233428Y-21477333D01*
X35209238Y-21501523D01*
X35160857Y-21525714D01*
X34991523Y-21525714D01*
X35499523Y-21283809D02*
X35499523Y-21695047D01*
X35523714Y-21743428D01*
X35547904Y-21767619D01*
X35596285Y-21791809D01*
X35693047Y-21791809D01*
X35741428Y-21767619D01*
X35765619Y-21743428D01*
X35789809Y-21695047D01*
X35789809Y-21283809D01*
X36007523Y-21767619D02*
X36080095Y-21791809D01*
X36201047Y-21791809D01*
X36249428Y-21767619D01*
X36273619Y-21743428D01*
X36297809Y-21695047D01*
X36297809Y-21646666D01*
X36273619Y-21598285D01*
X36249428Y-21574095D01*
X36201047Y-21549904D01*
X36104285Y-21525714D01*
X36055904Y-21501523D01*
X36031714Y-21477333D01*
X36007523Y-21428952D01*
X36007523Y-21380571D01*
X36031714Y-21332190D01*
X36055904Y-21308000D01*
X36104285Y-21283809D01*
X36225238Y-21283809D01*
X36297809Y-21308000D01*
X36394571Y-21840190D02*
X36781619Y-21840190D01*
X36854190Y-21283809D02*
X37168666Y-21283809D01*
X36999333Y-21477333D01*
X37071904Y-21477333D01*
X37120285Y-21501523D01*
X37144476Y-21525714D01*
X37168666Y-21574095D01*
X37168666Y-21695047D01*
X37144476Y-21743428D01*
X37120285Y-21767619D01*
X37071904Y-21791809D01*
X36926761Y-21791809D01*
X36878380Y-21767619D01*
X36854190Y-21743428D01*
X60149619Y-21743428D02*
X60125428Y-21767619D01*
X60052857Y-21791809D01*
X60004476Y-21791809D01*
X59931904Y-21767619D01*
X59883523Y-21719238D01*
X59859333Y-21670857D01*
X59835142Y-21574095D01*
X59835142Y-21501523D01*
X59859333Y-21404761D01*
X59883523Y-21356380D01*
X59931904Y-21308000D01*
X60004476Y-21283809D01*
X60052857Y-21283809D01*
X60125428Y-21308000D01*
X60149619Y-21332190D01*
X60609238Y-21791809D02*
X60367333Y-21791809D01*
X60367333Y-21283809D01*
X61068857Y-21791809D02*
X60899523Y-21549904D01*
X60778571Y-21791809D02*
X60778571Y-21283809D01*
X60972095Y-21283809D01*
X61020476Y-21308000D01*
X61044666Y-21332190D01*
X61068857Y-21380571D01*
X61068857Y-21453142D01*
X61044666Y-21501523D01*
X61020476Y-21525714D01*
X60972095Y-21549904D01*
X60778571Y-21549904D01*
X32112857Y-21525714D02*
X32185428Y-21549904D01*
X32209619Y-21574095D01*
X32233809Y-21622476D01*
X32233809Y-21695047D01*
X32209619Y-21743428D01*
X32185428Y-21767619D01*
X32137047Y-21791809D01*
X31943523Y-21791809D01*
X31943523Y-21283809D01*
X32112857Y-21283809D01*
X32161238Y-21308000D01*
X32185428Y-21332190D01*
X32209619Y-21380571D01*
X32209619Y-21428952D01*
X32185428Y-21477333D01*
X32161238Y-21501523D01*
X32112857Y-21525714D01*
X31943523Y-21525714D01*
X32451523Y-21283809D02*
X32451523Y-21695047D01*
X32475714Y-21743428D01*
X32499904Y-21767619D01*
X32548285Y-21791809D01*
X32645047Y-21791809D01*
X32693428Y-21767619D01*
X32717619Y-21743428D01*
X32741809Y-21695047D01*
X32741809Y-21283809D01*
X32959523Y-21767619D02*
X33032095Y-21791809D01*
X33153047Y-21791809D01*
X33201428Y-21767619D01*
X33225619Y-21743428D01*
X33249809Y-21695047D01*
X33249809Y-21646666D01*
X33225619Y-21598285D01*
X33201428Y-21574095D01*
X33153047Y-21549904D01*
X33056285Y-21525714D01*
X33007904Y-21501523D01*
X32983714Y-21477333D01*
X32959523Y-21428952D01*
X32959523Y-21380571D01*
X32983714Y-21332190D01*
X33007904Y-21308000D01*
X33056285Y-21283809D01*
X33177238Y-21283809D01*
X33249809Y-21308000D01*
X33346571Y-21840190D02*
X33733619Y-21840190D01*
X33830380Y-21332190D02*
X33854571Y-21308000D01*
X33902952Y-21283809D01*
X34023904Y-21283809D01*
X34072285Y-21308000D01*
X34096476Y-21332190D01*
X34120666Y-21380571D01*
X34120666Y-21428952D01*
X34096476Y-21501523D01*
X33806190Y-21791809D01*
X34120666Y-21791809D01*
X57101619Y-21743428D02*
X57077428Y-21767619D01*
X57004857Y-21791809D01*
X56956476Y-21791809D01*
X56883904Y-21767619D01*
X56835523Y-21719238D01*
X56811333Y-21670857D01*
X56787142Y-21574095D01*
X56787142Y-21501523D01*
X56811333Y-21404761D01*
X56835523Y-21356380D01*
X56883904Y-21308000D01*
X56956476Y-21283809D01*
X57004857Y-21283809D01*
X57077428Y-21308000D01*
X57101619Y-21332190D01*
X57561238Y-21791809D02*
X57319333Y-21791809D01*
X57319333Y-21283809D01*
X57730571Y-21791809D02*
X57730571Y-21283809D01*
X58020857Y-21791809D02*
X57803142Y-21501523D01*
X58020857Y-21283809D02*
X57730571Y-21574095D01*
X53944761Y-21064160D02*
X54525333Y-21064160D01*
X54065714Y-21791809D02*
X54065714Y-21283809D01*
X54235047Y-21646666D01*
X54404380Y-21283809D01*
X54404380Y-21791809D01*
X54525333Y-21064160D02*
X54767238Y-21064160D01*
X54646285Y-21791809D02*
X54646285Y-21283809D01*
X29064857Y-21525714D02*
X29137428Y-21549904D01*
X29161619Y-21574095D01*
X29185809Y-21622476D01*
X29185809Y-21695047D01*
X29161619Y-21743428D01*
X29137428Y-21767619D01*
X29089047Y-21791809D01*
X28895523Y-21791809D01*
X28895523Y-21283809D01*
X29064857Y-21283809D01*
X29113238Y-21308000D01*
X29137428Y-21332190D01*
X29161619Y-21380571D01*
X29161619Y-21428952D01*
X29137428Y-21477333D01*
X29113238Y-21501523D01*
X29064857Y-21525714D01*
X28895523Y-21525714D01*
X29403523Y-21283809D02*
X29403523Y-21695047D01*
X29427714Y-21743428D01*
X29451904Y-21767619D01*
X29500285Y-21791809D01*
X29597047Y-21791809D01*
X29645428Y-21767619D01*
X29669619Y-21743428D01*
X29693809Y-21695047D01*
X29693809Y-21283809D01*
X29911523Y-21767619D02*
X29984095Y-21791809D01*
X30105047Y-21791809D01*
X30153428Y-21767619D01*
X30177619Y-21743428D01*
X30201809Y-21695047D01*
X30201809Y-21646666D01*
X30177619Y-21598285D01*
X30153428Y-21574095D01*
X30105047Y-21549904D01*
X30008285Y-21525714D01*
X29959904Y-21501523D01*
X29935714Y-21477333D01*
X29911523Y-21428952D01*
X29911523Y-21380571D01*
X29935714Y-21332190D01*
X29959904Y-21308000D01*
X30008285Y-21283809D01*
X30129238Y-21283809D01*
X30201809Y-21308000D01*
X30298571Y-21840190D02*
X30685619Y-21840190D01*
X31072666Y-21791809D02*
X30782380Y-21791809D01*
X30927523Y-21791809D02*
X30927523Y-21283809D01*
X30879142Y-21356380D01*
X30830761Y-21404761D01*
X30782380Y-21428952D01*
X26016857Y-21525714D02*
X26089428Y-21549904D01*
X26113619Y-21574095D01*
X26137809Y-21622476D01*
X26137809Y-21695047D01*
X26113619Y-21743428D01*
X26089428Y-21767619D01*
X26041047Y-21791809D01*
X25847523Y-21791809D01*
X25847523Y-21283809D01*
X26016857Y-21283809D01*
X26065238Y-21308000D01*
X26089428Y-21332190D01*
X26113619Y-21380571D01*
X26113619Y-21428952D01*
X26089428Y-21477333D01*
X26065238Y-21501523D01*
X26016857Y-21525714D01*
X25847523Y-21525714D01*
X26355523Y-21283809D02*
X26355523Y-21695047D01*
X26379714Y-21743428D01*
X26403904Y-21767619D01*
X26452285Y-21791809D01*
X26549047Y-21791809D01*
X26597428Y-21767619D01*
X26621619Y-21743428D01*
X26645809Y-21695047D01*
X26645809Y-21283809D01*
X26863523Y-21767619D02*
X26936095Y-21791809D01*
X27057047Y-21791809D01*
X27105428Y-21767619D01*
X27129619Y-21743428D01*
X27153809Y-21695047D01*
X27153809Y-21646666D01*
X27129619Y-21598285D01*
X27105428Y-21574095D01*
X27057047Y-21549904D01*
X26960285Y-21525714D01*
X26911904Y-21501523D01*
X26887714Y-21477333D01*
X26863523Y-21428952D01*
X26863523Y-21380571D01*
X26887714Y-21332190D01*
X26911904Y-21308000D01*
X26960285Y-21283809D01*
X27081238Y-21283809D01*
X27153809Y-21308000D01*
X27250571Y-21840190D02*
X27637619Y-21840190D01*
X27855333Y-21283809D02*
X27903714Y-21283809D01*
X27952095Y-21308000D01*
X27976285Y-21332190D01*
X28000476Y-21380571D01*
X28024666Y-21477333D01*
X28024666Y-21598285D01*
X28000476Y-21695047D01*
X27976285Y-21743428D01*
X27952095Y-21767619D01*
X27903714Y-21791809D01*
X27855333Y-21791809D01*
X27806952Y-21767619D01*
X27782761Y-21743428D01*
X27758571Y-21695047D01*
X27734380Y-21598285D01*
X27734380Y-21477333D01*
X27758571Y-21380571D01*
X27782761Y-21332190D01*
X27806952Y-21308000D01*
X27855333Y-21283809D01*
D13*
X64706666Y-34694761D02*
X64849523Y-34742380D01*
X65087619Y-34742380D01*
X65182857Y-34694761D01*
X65230476Y-34647142D01*
X65278095Y-34551904D01*
X65278095Y-34456666D01*
X65230476Y-34361428D01*
X65182857Y-34313809D01*
X65087619Y-34266190D01*
X64897142Y-34218571D01*
X64801904Y-34170952D01*
X64754285Y-34123333D01*
X64706666Y-34028095D01*
X64706666Y-33932857D01*
X64754285Y-33837619D01*
X64801904Y-33790000D01*
X64897142Y-33742380D01*
X65135238Y-33742380D01*
X65278095Y-33790000D01*
X65611428Y-33742380D02*
X65849523Y-34742380D01*
X66040000Y-34028095D01*
X66230476Y-34742380D01*
X66468571Y-33742380D01*
X66801904Y-33837619D02*
X66849523Y-33790000D01*
X66944761Y-33742380D01*
X67182857Y-33742380D01*
X67278095Y-33790000D01*
X67325714Y-33837619D01*
X67373333Y-33932857D01*
X67373333Y-34028095D01*
X67325714Y-34170952D01*
X66754285Y-34742380D01*
X67373333Y-34742380D01*
X49466666Y-38504761D02*
X49609523Y-38552380D01*
X49847619Y-38552380D01*
X49942857Y-38504761D01*
X49990476Y-38457142D01*
X50038095Y-38361904D01*
X50038095Y-38266666D01*
X49990476Y-38171428D01*
X49942857Y-38123809D01*
X49847619Y-38076190D01*
X49657142Y-38028571D01*
X49561904Y-37980952D01*
X49514285Y-37933333D01*
X49466666Y-37838095D01*
X49466666Y-37742857D01*
X49514285Y-37647619D01*
X49561904Y-37600000D01*
X49657142Y-37552380D01*
X49895238Y-37552380D01*
X50038095Y-37600000D01*
X50371428Y-37552380D02*
X50609523Y-38552380D01*
X50800000Y-37838095D01*
X50990476Y-38552380D01*
X51228571Y-37552380D01*
X52133333Y-38552380D02*
X51561904Y-38552380D01*
X51847619Y-38552380D02*
X51847619Y-37552380D01*
X51752380Y-37695238D01*
X51657142Y-37790476D01*
X51561904Y-37838095D01*
X74112380Y-30646666D02*
X73636190Y-30980000D01*
X74112380Y-31218095D02*
X73112380Y-31218095D01*
X73112380Y-30837142D01*
X73160000Y-30741904D01*
X73207619Y-30694285D01*
X73302857Y-30646666D01*
X73445714Y-30646666D01*
X73540952Y-30694285D01*
X73588571Y-30741904D01*
X73636190Y-30837142D01*
X73636190Y-31218095D01*
X73112380Y-29789523D02*
X73112380Y-29980000D01*
X73160000Y-30075238D01*
X73207619Y-30122857D01*
X73350476Y-30218095D01*
X73540952Y-30265714D01*
X73921904Y-30265714D01*
X74017142Y-30218095D01*
X74064761Y-30170476D01*
X74112380Y-30075238D01*
X74112380Y-29884761D01*
X74064761Y-29789523D01*
X74017142Y-29741904D01*
X73921904Y-29694285D01*
X73683809Y-29694285D01*
X73588571Y-29741904D01*
X73540952Y-29789523D01*
X73493333Y-29884761D01*
X73493333Y-30075238D01*
X73540952Y-30170476D01*
X73588571Y-30218095D01*
X73683809Y-30265714D01*
X74112380Y-38266666D02*
X73636190Y-38600000D01*
X74112380Y-38838095D02*
X73112380Y-38838095D01*
X73112380Y-38457142D01*
X73160000Y-38361904D01*
X73207619Y-38314285D01*
X73302857Y-38266666D01*
X73445714Y-38266666D01*
X73540952Y-38314285D01*
X73588571Y-38361904D01*
X73636190Y-38457142D01*
X73636190Y-38838095D01*
X73112380Y-37361904D02*
X73112380Y-37838095D01*
X73588571Y-37885714D01*
X73540952Y-37838095D01*
X73493333Y-37742857D01*
X73493333Y-37504761D01*
X73540952Y-37409523D01*
X73588571Y-37361904D01*
X73683809Y-37314285D01*
X73921904Y-37314285D01*
X74017142Y-37361904D01*
X74064761Y-37409523D01*
X74112380Y-37504761D01*
X74112380Y-37742857D01*
X74064761Y-37838095D01*
X74017142Y-37885714D01*
X74112380Y-45886666D02*
X73636190Y-46220000D01*
X74112380Y-46458095D02*
X73112380Y-46458095D01*
X73112380Y-46077142D01*
X73160000Y-45981904D01*
X73207619Y-45934285D01*
X73302857Y-45886666D01*
X73445714Y-45886666D01*
X73540952Y-45934285D01*
X73588571Y-45981904D01*
X73636190Y-46077142D01*
X73636190Y-46458095D01*
X73445714Y-45029523D02*
X74112380Y-45029523D01*
X73064761Y-45267619D02*
X73779047Y-45505714D01*
X73779047Y-44886666D01*
X74112380Y-53760666D02*
X73636190Y-54094000D01*
X74112380Y-54332095D02*
X73112380Y-54332095D01*
X73112380Y-53951142D01*
X73160000Y-53855904D01*
X73207619Y-53808285D01*
X73302857Y-53760666D01*
X73445714Y-53760666D01*
X73540952Y-53808285D01*
X73588571Y-53855904D01*
X73636190Y-53951142D01*
X73636190Y-54332095D01*
X73112380Y-53427333D02*
X73112380Y-52808285D01*
X73493333Y-53141619D01*
X73493333Y-52998761D01*
X73540952Y-52903523D01*
X73588571Y-52855904D01*
X73683809Y-52808285D01*
X73921904Y-52808285D01*
X74017142Y-52855904D01*
X74064761Y-52903523D01*
X74112380Y-52998761D01*
X74112380Y-53284476D01*
X74064761Y-53379714D01*
X74017142Y-53427333D01*
X54443333Y-32822380D02*
X54110000Y-32346190D01*
X53871904Y-32822380D02*
X53871904Y-31822380D01*
X54252857Y-31822380D01*
X54348095Y-31870000D01*
X54395714Y-31917619D01*
X54443333Y-32012857D01*
X54443333Y-32155714D01*
X54395714Y-32250952D01*
X54348095Y-32298571D01*
X54252857Y-32346190D01*
X53871904Y-32346190D01*
X54824285Y-31917619D02*
X54871904Y-31870000D01*
X54967142Y-31822380D01*
X55205238Y-31822380D01*
X55300476Y-31870000D01*
X55348095Y-31917619D01*
X55395714Y-32012857D01*
X55395714Y-32108095D01*
X55348095Y-32250952D01*
X54776666Y-32822380D01*
X55395714Y-32822380D01*
X45553333Y-32822380D02*
X45220000Y-32346190D01*
X44981904Y-32822380D02*
X44981904Y-31822380D01*
X45362857Y-31822380D01*
X45458095Y-31870000D01*
X45505714Y-31917619D01*
X45553333Y-32012857D01*
X45553333Y-32155714D01*
X45505714Y-32250952D01*
X45458095Y-32298571D01*
X45362857Y-32346190D01*
X44981904Y-32346190D01*
X46505714Y-32822380D02*
X45934285Y-32822380D01*
X46220000Y-32822380D02*
X46220000Y-31822380D01*
X46124761Y-31965238D01*
X46029523Y-32060476D01*
X45934285Y-32108095D01*
X86018666Y-31194285D02*
X86018666Y-30718095D01*
X86304380Y-31289523D02*
X85304380Y-30956190D01*
X86304380Y-30622857D01*
X85304380Y-30384761D02*
X85304380Y-29765714D01*
X85685333Y-30099047D01*
X85685333Y-29956190D01*
X85732952Y-29860952D01*
X85780571Y-29813333D01*
X85875809Y-29765714D01*
X86113904Y-29765714D01*
X86209142Y-29813333D01*
X86256761Y-29860952D01*
X86304380Y-29956190D01*
X86304380Y-30241904D01*
X86256761Y-30337142D01*
X86209142Y-30384761D01*
X86018666Y-38814285D02*
X86018666Y-38338095D01*
X86304380Y-38909523D02*
X85304380Y-38576190D01*
X86304380Y-38242857D01*
X85399619Y-37957142D02*
X85352000Y-37909523D01*
X85304380Y-37814285D01*
X85304380Y-37576190D01*
X85352000Y-37480952D01*
X85399619Y-37433333D01*
X85494857Y-37385714D01*
X85590095Y-37385714D01*
X85732952Y-37433333D01*
X86304380Y-38004761D01*
X86304380Y-37385714D01*
X86018666Y-46434285D02*
X86018666Y-45958095D01*
X86304380Y-46529523D02*
X85304380Y-46196190D01*
X86304380Y-45862857D01*
X86304380Y-45005714D02*
X86304380Y-45577142D01*
X86304380Y-45291428D02*
X85304380Y-45291428D01*
X85447238Y-45386666D01*
X85542476Y-45481904D01*
X85590095Y-45577142D01*
X86018666Y-54054285D02*
X86018666Y-53578095D01*
X86304380Y-54149523D02*
X85304380Y-53816190D01*
X86304380Y-53482857D01*
X85304380Y-52959047D02*
X85304380Y-52863809D01*
X85352000Y-52768571D01*
X85399619Y-52720952D01*
X85494857Y-52673333D01*
X85685333Y-52625714D01*
X85923428Y-52625714D01*
X86113904Y-52673333D01*
X86209142Y-52720952D01*
X86256761Y-52768571D01*
X86304380Y-52863809D01*
X86304380Y-52959047D01*
X86256761Y-53054285D01*
X86209142Y-53101904D01*
X86113904Y-53149523D01*
X85923428Y-53197142D01*
X85685333Y-53197142D01*
X85494857Y-53149523D01*
X85399619Y-53101904D01*
X85352000Y-53054285D01*
X85304380Y-52959047D01*
X53078285Y-24328380D02*
X53078285Y-23328380D01*
X53459238Y-23328380D01*
X53554476Y-23376000D01*
X53602095Y-23423619D01*
X53649714Y-23518857D01*
X53649714Y-23661714D01*
X53602095Y-23756952D01*
X53554476Y-23804571D01*
X53459238Y-23852190D01*
X53078285Y-23852190D01*
X54649714Y-24328380D02*
X54316380Y-23852190D01*
X54078285Y-24328380D02*
X54078285Y-23328380D01*
X54459238Y-23328380D01*
X54554476Y-23376000D01*
X54602095Y-23423619D01*
X54649714Y-23518857D01*
X54649714Y-23661714D01*
X54602095Y-23756952D01*
X54554476Y-23804571D01*
X54459238Y-23852190D01*
X54078285Y-23852190D01*
X55268761Y-23328380D02*
X55459238Y-23328380D01*
X55554476Y-23376000D01*
X55649714Y-23471238D01*
X55697333Y-23661714D01*
X55697333Y-23995047D01*
X55649714Y-24185523D01*
X55554476Y-24280761D01*
X55459238Y-24328380D01*
X55268761Y-24328380D01*
X55173523Y-24280761D01*
X55078285Y-24185523D01*
X55030666Y-23995047D01*
X55030666Y-23661714D01*
X55078285Y-23471238D01*
X55173523Y-23376000D01*
X55268761Y-23328380D01*
X56649714Y-23376000D02*
X56554476Y-23328380D01*
X56411619Y-23328380D01*
X56268761Y-23376000D01*
X56173523Y-23471238D01*
X56125904Y-23566476D01*
X56078285Y-23756952D01*
X56078285Y-23899809D01*
X56125904Y-24090285D01*
X56173523Y-24185523D01*
X56268761Y-24280761D01*
X56411619Y-24328380D01*
X56506857Y-24328380D01*
X56649714Y-24280761D01*
X56697333Y-24233142D01*
X56697333Y-23899809D01*
X56506857Y-23899809D01*
X44053333Y-24042666D02*
X44529523Y-24042666D01*
X43958095Y-24328380D02*
X44291428Y-23328380D01*
X44624761Y-24328380D01*
X44958095Y-23328380D02*
X44958095Y-24137904D01*
X45005714Y-24233142D01*
X45053333Y-24280761D01*
X45148571Y-24328380D01*
X45339047Y-24328380D01*
X45434285Y-24280761D01*
X45481904Y-24233142D01*
X45529523Y-24137904D01*
X45529523Y-23328380D01*
X45862857Y-23328380D02*
X46434285Y-23328380D01*
X46148571Y-24328380D02*
X46148571Y-23328380D01*
X46958095Y-23328380D02*
X47148571Y-23328380D01*
X47243809Y-23376000D01*
X47339047Y-23471238D01*
X47386666Y-23661714D01*
X47386666Y-23995047D01*
X47339047Y-24185523D01*
X47243809Y-24280761D01*
X47148571Y-24328380D01*
X46958095Y-24328380D01*
X46862857Y-24280761D01*
X46767619Y-24185523D01*
X46720000Y-23995047D01*
X46720000Y-23661714D01*
X46767619Y-23471238D01*
X46862857Y-23376000D01*
X46958095Y-23328380D01*
X65091333Y-27771142D02*
X65043714Y-27818761D01*
X64900857Y-27866380D01*
X64805619Y-27866380D01*
X64662761Y-27818761D01*
X64567523Y-27723523D01*
X64519904Y-27628285D01*
X64472285Y-27437809D01*
X64472285Y-27294952D01*
X64519904Y-27104476D01*
X64567523Y-27009238D01*
X64662761Y-26914000D01*
X64805619Y-26866380D01*
X64900857Y-26866380D01*
X65043714Y-26914000D01*
X65091333Y-26961619D01*
X66043714Y-27866380D02*
X65472285Y-27866380D01*
X65758000Y-27866380D02*
X65758000Y-26866380D01*
X65662761Y-27009238D01*
X65567523Y-27104476D01*
X65472285Y-27152095D01*
D14*
X70720857Y-21598285D02*
X71107904Y-21598285D01*
X70914380Y-21791809D02*
X70914380Y-21404761D01*
X71591714Y-21283809D02*
X71349809Y-21283809D01*
X71325619Y-21525714D01*
X71349809Y-21501523D01*
X71398190Y-21477333D01*
X71519142Y-21477333D01*
X71567523Y-21501523D01*
X71591714Y-21525714D01*
X71615904Y-21574095D01*
X71615904Y-21695047D01*
X71591714Y-21743428D01*
X71567523Y-21767619D01*
X71519142Y-21791809D01*
X71398190Y-21791809D01*
X71349809Y-21767619D01*
X71325619Y-21743428D01*
X71761047Y-21283809D02*
X71930380Y-21791809D01*
X72099714Y-21283809D01*
M02*
