G04 #@! TF.GenerationSoftware,KiCad,Pcbnew,(5.1.2-1)-1*
G04 #@! TF.CreationDate,2019-08-26T08:23:46+10:00*
G04 #@! TF.ProjectId,register-a,72656769-7374-4657-922d-612e6b696361,rev?*
G04 #@! TF.SameCoordinates,Original*
G04 #@! TF.FileFunction,Legend,Top*
G04 #@! TF.FilePolarity,Positive*
%FSLAX46Y46*%
G04 Gerber Fmt 4.6, Leading zero omitted, Abs format (unit mm)*
G04 Created by KiCad (PCBNEW (5.1.2-1)-1) date 2019-08-26 08:23:46*
%MOMM*%
%LPD*%
G04 APERTURE LIST*
%ADD10C,0.127000*%
%ADD11C,0.101600*%
%ADD12C,0.120000*%
%ADD13C,0.100000*%
%ADD14C,0.150000*%
G04 APERTURE END LIST*
D10*
X69269428Y-50890714D02*
X69450857Y-51398714D01*
X69632285Y-50890714D01*
X70321714Y-51398714D02*
X69886285Y-51398714D01*
X70104000Y-51398714D02*
X70104000Y-50636714D01*
X70031428Y-50745571D01*
X69958857Y-50818142D01*
X69886285Y-50854428D01*
X70648285Y-51326142D02*
X70684571Y-51362428D01*
X70648285Y-51398714D01*
X70612000Y-51362428D01*
X70648285Y-51326142D01*
X70648285Y-51398714D01*
X71156285Y-50636714D02*
X71228857Y-50636714D01*
X71301428Y-50673000D01*
X71337714Y-50709285D01*
X71374000Y-50781857D01*
X71410285Y-50927000D01*
X71410285Y-51108428D01*
X71374000Y-51253571D01*
X71337714Y-51326142D01*
X71301428Y-51362428D01*
X71228857Y-51398714D01*
X71156285Y-51398714D01*
X71083714Y-51362428D01*
X71047428Y-51326142D01*
X71011142Y-51253571D01*
X70974857Y-51108428D01*
X70974857Y-50927000D01*
X71011142Y-50781857D01*
X71047428Y-50709285D01*
X71083714Y-50673000D01*
X71156285Y-50636714D01*
D11*
X63312523Y-48782211D02*
X63312523Y-48147211D01*
X63463714Y-48147211D01*
X63554428Y-48177450D01*
X63614904Y-48237926D01*
X63645142Y-48298402D01*
X63675380Y-48419354D01*
X63675380Y-48510069D01*
X63645142Y-48631021D01*
X63614904Y-48691497D01*
X63554428Y-48751973D01*
X63463714Y-48782211D01*
X63312523Y-48782211D01*
X64189428Y-48751973D02*
X64128952Y-48782211D01*
X64007999Y-48782211D01*
X63947523Y-48751973D01*
X63917285Y-48691497D01*
X63917285Y-48449592D01*
X63947523Y-48389116D01*
X64007999Y-48358878D01*
X64128952Y-48358878D01*
X64189428Y-48389116D01*
X64219666Y-48449592D01*
X64219666Y-48510069D01*
X63917285Y-48570545D01*
X64461571Y-48751973D02*
X64522047Y-48782211D01*
X64642999Y-48782211D01*
X64703476Y-48751973D01*
X64733714Y-48691497D01*
X64733714Y-48661259D01*
X64703476Y-48600783D01*
X64642999Y-48570545D01*
X64552285Y-48570545D01*
X64491809Y-48540307D01*
X64461571Y-48479830D01*
X64461571Y-48449592D01*
X64491809Y-48389116D01*
X64552285Y-48358878D01*
X64642999Y-48358878D01*
X64703476Y-48389116D01*
X65005857Y-48782211D02*
X65005857Y-48358878D01*
X65005857Y-48147211D02*
X64975619Y-48177450D01*
X65005857Y-48207688D01*
X65036095Y-48177450D01*
X65005857Y-48147211D01*
X65005857Y-48207688D01*
X65580380Y-48358878D02*
X65580380Y-48872926D01*
X65550142Y-48933402D01*
X65519904Y-48963640D01*
X65459428Y-48993878D01*
X65368714Y-48993878D01*
X65308238Y-48963640D01*
X65580380Y-48751973D02*
X65519904Y-48782211D01*
X65398952Y-48782211D01*
X65338476Y-48751973D01*
X65308238Y-48721735D01*
X65277999Y-48661259D01*
X65277999Y-48479830D01*
X65308238Y-48419354D01*
X65338476Y-48389116D01*
X65398952Y-48358878D01*
X65519904Y-48358878D01*
X65580380Y-48389116D01*
X65882761Y-48358878D02*
X65882761Y-48782211D01*
X65882761Y-48419354D02*
X65912999Y-48389116D01*
X65973476Y-48358878D01*
X66064190Y-48358878D01*
X66124666Y-48389116D01*
X66154904Y-48449592D01*
X66154904Y-48782211D01*
X66699190Y-48751973D02*
X66638714Y-48782211D01*
X66517761Y-48782211D01*
X66457285Y-48751973D01*
X66427047Y-48691497D01*
X66427047Y-48449592D01*
X66457285Y-48389116D01*
X66517761Y-48358878D01*
X66638714Y-48358878D01*
X66699190Y-48389116D01*
X66729428Y-48449592D01*
X66729428Y-48510069D01*
X66427047Y-48570545D01*
X67273714Y-48782211D02*
X67273714Y-48147211D01*
X67273714Y-48751973D02*
X67213238Y-48782211D01*
X67092285Y-48782211D01*
X67031809Y-48751973D01*
X67001571Y-48721735D01*
X66971333Y-48661259D01*
X66971333Y-48479830D01*
X67001571Y-48419354D01*
X67031809Y-48389116D01*
X67092285Y-48358878D01*
X67213238Y-48358878D01*
X67273714Y-48389116D01*
X68059904Y-48782211D02*
X68059904Y-48147211D01*
X68059904Y-48389116D02*
X68120380Y-48358878D01*
X68241333Y-48358878D01*
X68301809Y-48389116D01*
X68332047Y-48419354D01*
X68362285Y-48479830D01*
X68362285Y-48661259D01*
X68332047Y-48721735D01*
X68301809Y-48751973D01*
X68241333Y-48782211D01*
X68120380Y-48782211D01*
X68059904Y-48751973D01*
X68573952Y-48358878D02*
X68725142Y-48782211D01*
X68876333Y-48358878D02*
X68725142Y-48782211D01*
X68664666Y-48933402D01*
X68634428Y-48963640D01*
X68573952Y-48993878D01*
X69571809Y-48751973D02*
X69662523Y-48782211D01*
X69813714Y-48782211D01*
X69874190Y-48751973D01*
X69904428Y-48721735D01*
X69934666Y-48661259D01*
X69934666Y-48600783D01*
X69904428Y-48540307D01*
X69874190Y-48510069D01*
X69813714Y-48479830D01*
X69692761Y-48449592D01*
X69632285Y-48419354D01*
X69602047Y-48389116D01*
X69571809Y-48328640D01*
X69571809Y-48268164D01*
X69602047Y-48207688D01*
X69632285Y-48177450D01*
X69692761Y-48147211D01*
X69843952Y-48147211D01*
X69934666Y-48177450D01*
X70206809Y-48782211D02*
X70206809Y-48147211D01*
X70478952Y-48782211D02*
X70478952Y-48449592D01*
X70448714Y-48389116D01*
X70388238Y-48358878D01*
X70297523Y-48358878D01*
X70237047Y-48389116D01*
X70206809Y-48419354D01*
X71053476Y-48782211D02*
X71053476Y-48449592D01*
X71023238Y-48389116D01*
X70962761Y-48358878D01*
X70841809Y-48358878D01*
X70781333Y-48389116D01*
X71053476Y-48751973D02*
X70993000Y-48782211D01*
X70841809Y-48782211D01*
X70781333Y-48751973D01*
X70751095Y-48691497D01*
X70751095Y-48631021D01*
X70781333Y-48570545D01*
X70841809Y-48540307D01*
X70993000Y-48540307D01*
X71053476Y-48510069D01*
X71355857Y-48358878D02*
X71355857Y-48782211D01*
X71355857Y-48419354D02*
X71386095Y-48389116D01*
X71446571Y-48358878D01*
X71537285Y-48358878D01*
X71597761Y-48389116D01*
X71628000Y-48449592D01*
X71628000Y-48782211D01*
X72172285Y-48751973D02*
X72111809Y-48782211D01*
X71990857Y-48782211D01*
X71930380Y-48751973D01*
X71900142Y-48691497D01*
X71900142Y-48449592D01*
X71930380Y-48389116D01*
X71990857Y-48358878D01*
X72111809Y-48358878D01*
X72172285Y-48389116D01*
X72202523Y-48449592D01*
X72202523Y-48510069D01*
X71900142Y-48570545D01*
X72958476Y-48782211D02*
X72958476Y-48147211D01*
X73200380Y-48147211D01*
X73260857Y-48177450D01*
X73291095Y-48207688D01*
X73321333Y-48268164D01*
X73321333Y-48358878D01*
X73291095Y-48419354D01*
X73260857Y-48449592D01*
X73200380Y-48479830D01*
X72958476Y-48479830D01*
X73684190Y-48782211D02*
X73623714Y-48751973D01*
X73593476Y-48721735D01*
X73563238Y-48661259D01*
X73563238Y-48479830D01*
X73593476Y-48419354D01*
X73623714Y-48389116D01*
X73684190Y-48358878D01*
X73774904Y-48358878D01*
X73835380Y-48389116D01*
X73865619Y-48419354D01*
X73895857Y-48479830D01*
X73895857Y-48661259D01*
X73865619Y-48721735D01*
X73835380Y-48751973D01*
X73774904Y-48782211D01*
X73684190Y-48782211D01*
X74168000Y-48358878D02*
X74168000Y-48993878D01*
X74168000Y-48389116D02*
X74228476Y-48358878D01*
X74349428Y-48358878D01*
X74409904Y-48389116D01*
X74440142Y-48419354D01*
X74470380Y-48479830D01*
X74470380Y-48661259D01*
X74440142Y-48721735D01*
X74409904Y-48751973D01*
X74349428Y-48782211D01*
X74228476Y-48782211D01*
X74168000Y-48751973D01*
X74742523Y-48358878D02*
X74742523Y-48993878D01*
X74742523Y-48389116D02*
X74803000Y-48358878D01*
X74923952Y-48358878D01*
X74984428Y-48389116D01*
X75014666Y-48419354D01*
X75044904Y-48479830D01*
X75044904Y-48661259D01*
X75014666Y-48721735D01*
X74984428Y-48751973D01*
X74923952Y-48782211D01*
X74803000Y-48782211D01*
X74742523Y-48751973D01*
X75407761Y-48782211D02*
X75347285Y-48751973D01*
X75317047Y-48691497D01*
X75317047Y-48147211D01*
X75891571Y-48751973D02*
X75831095Y-48782211D01*
X75710142Y-48782211D01*
X75649666Y-48751973D01*
X75619428Y-48691497D01*
X75619428Y-48449592D01*
X75649666Y-48389116D01*
X75710142Y-48358878D01*
X75831095Y-48358878D01*
X75891571Y-48389116D01*
X75921809Y-48449592D01*
X75921809Y-48510069D01*
X75619428Y-48570545D01*
X76103238Y-48358878D02*
X76345142Y-48358878D01*
X76193952Y-48147211D02*
X76193952Y-48691497D01*
X76224190Y-48751973D01*
X76284666Y-48782211D01*
X76345142Y-48782211D01*
X76647523Y-48782211D02*
X76587047Y-48751973D01*
X76556809Y-48721735D01*
X76526571Y-48661259D01*
X76526571Y-48479830D01*
X76556809Y-48419354D01*
X76587047Y-48389116D01*
X76647523Y-48358878D01*
X76738238Y-48358878D01*
X76798714Y-48389116D01*
X76828952Y-48419354D01*
X76859190Y-48479830D01*
X76859190Y-48661259D01*
X76828952Y-48721735D01*
X76798714Y-48751973D01*
X76738238Y-48782211D01*
X76647523Y-48782211D01*
X77131333Y-48358878D02*
X77131333Y-48782211D01*
X77131333Y-48419354D02*
X77161571Y-48389116D01*
X77222047Y-48358878D01*
X77312761Y-48358878D01*
X77373238Y-48389116D01*
X77403476Y-48449592D01*
X77403476Y-48782211D01*
X53545619Y-49836311D02*
X53545619Y-49201311D01*
X53545619Y-49443216D02*
X53606095Y-49412978D01*
X53727047Y-49412978D01*
X53787523Y-49443216D01*
X53817761Y-49473454D01*
X53848000Y-49533930D01*
X53848000Y-49715359D01*
X53817761Y-49775835D01*
X53787523Y-49806073D01*
X53727047Y-49836311D01*
X53606095Y-49836311D01*
X53545619Y-49806073D01*
X54392285Y-49836311D02*
X54392285Y-49503692D01*
X54362047Y-49443216D01*
X54301571Y-49412978D01*
X54180619Y-49412978D01*
X54120142Y-49443216D01*
X54392285Y-49806073D02*
X54331809Y-49836311D01*
X54180619Y-49836311D01*
X54120142Y-49806073D01*
X54089904Y-49745597D01*
X54089904Y-49685121D01*
X54120142Y-49624645D01*
X54180619Y-49594407D01*
X54331809Y-49594407D01*
X54392285Y-49564169D01*
X54664428Y-49806073D02*
X54724904Y-49836311D01*
X54845857Y-49836311D01*
X54906333Y-49806073D01*
X54936571Y-49745597D01*
X54936571Y-49715359D01*
X54906333Y-49654883D01*
X54845857Y-49624645D01*
X54755142Y-49624645D01*
X54694666Y-49594407D01*
X54664428Y-49533930D01*
X54664428Y-49503692D01*
X54694666Y-49443216D01*
X54755142Y-49412978D01*
X54845857Y-49412978D01*
X54906333Y-49443216D01*
X55450619Y-49806073D02*
X55390142Y-49836311D01*
X55269190Y-49836311D01*
X55208714Y-49806073D01*
X55178476Y-49745597D01*
X55178476Y-49503692D01*
X55208714Y-49443216D01*
X55269190Y-49412978D01*
X55390142Y-49412978D01*
X55450619Y-49443216D01*
X55480857Y-49503692D01*
X55480857Y-49564169D01*
X55178476Y-49624645D01*
X56025142Y-49836311D02*
X56025142Y-49201311D01*
X56025142Y-49806073D02*
X55964666Y-49836311D01*
X55843714Y-49836311D01*
X55783238Y-49806073D01*
X55753000Y-49775835D01*
X55722761Y-49715359D01*
X55722761Y-49533930D01*
X55753000Y-49473454D01*
X55783238Y-49443216D01*
X55843714Y-49412978D01*
X55964666Y-49412978D01*
X56025142Y-49443216D01*
X56902047Y-49836311D02*
X56841571Y-49806073D01*
X56811333Y-49775835D01*
X56781095Y-49715359D01*
X56781095Y-49533930D01*
X56811333Y-49473454D01*
X56841571Y-49443216D01*
X56902047Y-49412978D01*
X56992761Y-49412978D01*
X57053238Y-49443216D01*
X57083476Y-49473454D01*
X57113714Y-49533930D01*
X57113714Y-49715359D01*
X57083476Y-49775835D01*
X57053238Y-49806073D01*
X56992761Y-49836311D01*
X56902047Y-49836311D01*
X57385857Y-49412978D02*
X57385857Y-49836311D01*
X57385857Y-49473454D02*
X57416095Y-49443216D01*
X57476571Y-49412978D01*
X57567285Y-49412978D01*
X57627761Y-49443216D01*
X57658000Y-49503692D01*
X57658000Y-49836311D01*
X58444190Y-49836311D02*
X58444190Y-49201311D01*
X58444190Y-49443216D02*
X58504666Y-49412978D01*
X58625619Y-49412978D01*
X58686095Y-49443216D01*
X58716333Y-49473454D01*
X58746571Y-49533930D01*
X58746571Y-49715359D01*
X58716333Y-49775835D01*
X58686095Y-49806073D01*
X58625619Y-49836311D01*
X58504666Y-49836311D01*
X58444190Y-49806073D01*
X59018714Y-49836311D02*
X59018714Y-49412978D01*
X59018714Y-49533930D02*
X59048952Y-49473454D01*
X59079190Y-49443216D01*
X59139666Y-49412978D01*
X59200142Y-49412978D01*
X59653714Y-49806073D02*
X59593238Y-49836311D01*
X59472285Y-49836311D01*
X59411809Y-49806073D01*
X59381571Y-49745597D01*
X59381571Y-49503692D01*
X59411809Y-49443216D01*
X59472285Y-49412978D01*
X59593238Y-49412978D01*
X59653714Y-49443216D01*
X59683952Y-49503692D01*
X59683952Y-49564169D01*
X59381571Y-49624645D01*
X60228238Y-49836311D02*
X60228238Y-49503692D01*
X60198000Y-49443216D01*
X60137523Y-49412978D01*
X60016571Y-49412978D01*
X59956095Y-49443216D01*
X60228238Y-49806073D02*
X60167761Y-49836311D01*
X60016571Y-49836311D01*
X59956095Y-49806073D01*
X59925857Y-49745597D01*
X59925857Y-49685121D01*
X59956095Y-49624645D01*
X60016571Y-49594407D01*
X60167761Y-49594407D01*
X60228238Y-49564169D01*
X60802761Y-49836311D02*
X60802761Y-49201311D01*
X60802761Y-49806073D02*
X60742285Y-49836311D01*
X60621333Y-49836311D01*
X60560857Y-49806073D01*
X60530619Y-49775835D01*
X60500380Y-49715359D01*
X60500380Y-49533930D01*
X60530619Y-49473454D01*
X60560857Y-49443216D01*
X60621333Y-49412978D01*
X60742285Y-49412978D01*
X60802761Y-49443216D01*
X61105142Y-49836311D02*
X61105142Y-49201311D01*
X61105142Y-49443216D02*
X61165619Y-49412978D01*
X61286571Y-49412978D01*
X61347047Y-49443216D01*
X61377285Y-49473454D01*
X61407523Y-49533930D01*
X61407523Y-49715359D01*
X61377285Y-49775835D01*
X61347047Y-49806073D01*
X61286571Y-49836311D01*
X61165619Y-49836311D01*
X61105142Y-49806073D01*
X61770380Y-49836311D02*
X61709904Y-49806073D01*
X61679666Y-49775835D01*
X61649428Y-49715359D01*
X61649428Y-49533930D01*
X61679666Y-49473454D01*
X61709904Y-49443216D01*
X61770380Y-49412978D01*
X61861095Y-49412978D01*
X61921571Y-49443216D01*
X61951809Y-49473454D01*
X61982047Y-49533930D01*
X61982047Y-49715359D01*
X61951809Y-49775835D01*
X61921571Y-49806073D01*
X61861095Y-49836311D01*
X61770380Y-49836311D01*
X62526333Y-49836311D02*
X62526333Y-49503692D01*
X62496095Y-49443216D01*
X62435619Y-49412978D01*
X62314666Y-49412978D01*
X62254190Y-49443216D01*
X62526333Y-49806073D02*
X62465857Y-49836311D01*
X62314666Y-49836311D01*
X62254190Y-49806073D01*
X62223952Y-49745597D01*
X62223952Y-49685121D01*
X62254190Y-49624645D01*
X62314666Y-49594407D01*
X62465857Y-49594407D01*
X62526333Y-49564169D01*
X62828714Y-49836311D02*
X62828714Y-49412978D01*
X62828714Y-49533930D02*
X62858952Y-49473454D01*
X62889190Y-49443216D01*
X62949666Y-49412978D01*
X63010142Y-49412978D01*
X63493952Y-49836311D02*
X63493952Y-49201311D01*
X63493952Y-49806073D02*
X63433476Y-49836311D01*
X63312523Y-49836311D01*
X63252047Y-49806073D01*
X63221809Y-49775835D01*
X63191571Y-49715359D01*
X63191571Y-49533930D01*
X63221809Y-49473454D01*
X63252047Y-49443216D01*
X63312523Y-49412978D01*
X63433476Y-49412978D01*
X63493952Y-49443216D01*
X64552285Y-49806073D02*
X64491809Y-49836311D01*
X64370857Y-49836311D01*
X64310380Y-49806073D01*
X64280142Y-49775835D01*
X64249904Y-49715359D01*
X64249904Y-49533930D01*
X64280142Y-49473454D01*
X64310380Y-49443216D01*
X64370857Y-49412978D01*
X64491809Y-49412978D01*
X64552285Y-49443216D01*
X64915142Y-49836311D02*
X64854666Y-49806073D01*
X64824428Y-49775835D01*
X64794190Y-49715359D01*
X64794190Y-49533930D01*
X64824428Y-49473454D01*
X64854666Y-49443216D01*
X64915142Y-49412978D01*
X65005857Y-49412978D01*
X65066333Y-49443216D01*
X65096571Y-49473454D01*
X65126809Y-49533930D01*
X65126809Y-49715359D01*
X65096571Y-49775835D01*
X65066333Y-49806073D01*
X65005857Y-49836311D01*
X64915142Y-49836311D01*
X65398952Y-49836311D02*
X65398952Y-49412978D01*
X65398952Y-49473454D02*
X65429190Y-49443216D01*
X65489666Y-49412978D01*
X65580380Y-49412978D01*
X65640857Y-49443216D01*
X65671095Y-49503692D01*
X65671095Y-49836311D01*
X65671095Y-49503692D02*
X65701333Y-49443216D01*
X65761809Y-49412978D01*
X65852523Y-49412978D01*
X65913000Y-49443216D01*
X65943238Y-49503692D01*
X65943238Y-49836311D01*
X66245619Y-49412978D02*
X66245619Y-50047978D01*
X66245619Y-49443216D02*
X66306095Y-49412978D01*
X66427047Y-49412978D01*
X66487523Y-49443216D01*
X66517761Y-49473454D01*
X66548000Y-49533930D01*
X66548000Y-49715359D01*
X66517761Y-49775835D01*
X66487523Y-49806073D01*
X66427047Y-49836311D01*
X66306095Y-49836311D01*
X66245619Y-49806073D01*
X67092285Y-49412978D02*
X67092285Y-49836311D01*
X66820142Y-49412978D02*
X66820142Y-49745597D01*
X66850380Y-49806073D01*
X66910857Y-49836311D01*
X67001571Y-49836311D01*
X67062047Y-49806073D01*
X67092285Y-49775835D01*
X67303952Y-49412978D02*
X67545857Y-49412978D01*
X67394666Y-49201311D02*
X67394666Y-49745597D01*
X67424904Y-49806073D01*
X67485380Y-49836311D01*
X67545857Y-49836311D01*
X67999428Y-49806073D02*
X67938952Y-49836311D01*
X67818000Y-49836311D01*
X67757523Y-49806073D01*
X67727285Y-49745597D01*
X67727285Y-49503692D01*
X67757523Y-49443216D01*
X67818000Y-49412978D01*
X67938952Y-49412978D01*
X67999428Y-49443216D01*
X68029666Y-49503692D01*
X68029666Y-49564169D01*
X67727285Y-49624645D01*
X68301809Y-49836311D02*
X68301809Y-49412978D01*
X68301809Y-49533930D02*
X68332047Y-49473454D01*
X68362285Y-49443216D01*
X68422761Y-49412978D01*
X68483238Y-49412978D01*
X69178714Y-49836311D02*
X69178714Y-49201311D01*
X69178714Y-49443216D02*
X69239190Y-49412978D01*
X69360142Y-49412978D01*
X69420619Y-49443216D01*
X69450857Y-49473454D01*
X69481095Y-49533930D01*
X69481095Y-49715359D01*
X69450857Y-49775835D01*
X69420619Y-49806073D01*
X69360142Y-49836311D01*
X69239190Y-49836311D01*
X69178714Y-49806073D01*
X69692761Y-49412978D02*
X69843952Y-49836311D01*
X69995142Y-49412978D02*
X69843952Y-49836311D01*
X69783476Y-49987502D01*
X69753238Y-50017740D01*
X69692761Y-50047978D01*
X70932523Y-49503692D02*
X71023238Y-49533930D01*
X71053476Y-49564169D01*
X71083714Y-49624645D01*
X71083714Y-49715359D01*
X71053476Y-49775835D01*
X71023238Y-49806073D01*
X70962761Y-49836311D01*
X70720857Y-49836311D01*
X70720857Y-49201311D01*
X70932523Y-49201311D01*
X70993000Y-49231550D01*
X71023238Y-49261788D01*
X71053476Y-49322264D01*
X71053476Y-49382740D01*
X71023238Y-49443216D01*
X70993000Y-49473454D01*
X70932523Y-49503692D01*
X70720857Y-49503692D01*
X71597761Y-49806073D02*
X71537285Y-49836311D01*
X71416333Y-49836311D01*
X71355857Y-49806073D01*
X71325619Y-49745597D01*
X71325619Y-49503692D01*
X71355857Y-49443216D01*
X71416333Y-49412978D01*
X71537285Y-49412978D01*
X71597761Y-49443216D01*
X71628000Y-49503692D01*
X71628000Y-49564169D01*
X71325619Y-49624645D01*
X71900142Y-49412978D02*
X71900142Y-49836311D01*
X71900142Y-49473454D02*
X71930380Y-49443216D01*
X71990857Y-49412978D01*
X72081571Y-49412978D01*
X72142047Y-49443216D01*
X72172285Y-49503692D01*
X72172285Y-49836311D01*
X72958476Y-49503692D02*
X73170142Y-49503692D01*
X73260857Y-49836311D02*
X72958476Y-49836311D01*
X72958476Y-49201311D01*
X73260857Y-49201311D01*
X73805142Y-49836311D02*
X73805142Y-49503692D01*
X73774904Y-49443216D01*
X73714428Y-49412978D01*
X73593476Y-49412978D01*
X73533000Y-49443216D01*
X73805142Y-49806073D02*
X73744666Y-49836311D01*
X73593476Y-49836311D01*
X73533000Y-49806073D01*
X73502761Y-49745597D01*
X73502761Y-49685121D01*
X73533000Y-49624645D01*
X73593476Y-49594407D01*
X73744666Y-49594407D01*
X73805142Y-49564169D01*
X74016809Y-49412978D02*
X74258714Y-49412978D01*
X74107523Y-49201311D02*
X74107523Y-49745597D01*
X74137761Y-49806073D01*
X74198238Y-49836311D01*
X74258714Y-49836311D01*
X74712285Y-49806073D02*
X74651809Y-49836311D01*
X74530857Y-49836311D01*
X74470380Y-49806073D01*
X74440142Y-49745597D01*
X74440142Y-49503692D01*
X74470380Y-49443216D01*
X74530857Y-49412978D01*
X74651809Y-49412978D01*
X74712285Y-49443216D01*
X74742523Y-49503692D01*
X74742523Y-49564169D01*
X74440142Y-49624645D01*
X75014666Y-49836311D02*
X75014666Y-49412978D01*
X75014666Y-49533930D02*
X75044904Y-49473454D01*
X75075142Y-49443216D01*
X75135619Y-49412978D01*
X75196095Y-49412978D01*
X76073000Y-50078216D02*
X76042761Y-50047978D01*
X75982285Y-49957264D01*
X75952047Y-49896788D01*
X75921809Y-49806073D01*
X75891571Y-49654883D01*
X75891571Y-49533930D01*
X75921809Y-49382740D01*
X75952047Y-49292026D01*
X75982285Y-49231550D01*
X76042761Y-49140835D01*
X76073000Y-49110597D01*
X76314904Y-49836311D02*
X76314904Y-49201311D01*
X76587047Y-49836311D02*
X76587047Y-49503692D01*
X76556809Y-49443216D01*
X76496333Y-49412978D01*
X76405619Y-49412978D01*
X76345142Y-49443216D01*
X76314904Y-49473454D01*
X76798714Y-49412978D02*
X77040619Y-49412978D01*
X76889428Y-49201311D02*
X76889428Y-49745597D01*
X76919666Y-49806073D01*
X76980142Y-49836311D01*
X77040619Y-49836311D01*
X77161571Y-49412978D02*
X77403476Y-49412978D01*
X77252285Y-49201311D02*
X77252285Y-49745597D01*
X77282523Y-49806073D01*
X77343000Y-49836311D01*
X77403476Y-49836311D01*
X77615142Y-49412978D02*
X77615142Y-50047978D01*
X77615142Y-49443216D02*
X77675619Y-49412978D01*
X77796571Y-49412978D01*
X77857047Y-49443216D01*
X77887285Y-49473454D01*
X77917523Y-49533930D01*
X77917523Y-49715359D01*
X77887285Y-49775835D01*
X77857047Y-49806073D01*
X77796571Y-49836311D01*
X77675619Y-49836311D01*
X77615142Y-49806073D01*
X78159428Y-49806073D02*
X78219904Y-49836311D01*
X78340857Y-49836311D01*
X78401333Y-49806073D01*
X78431571Y-49745597D01*
X78431571Y-49715359D01*
X78401333Y-49654883D01*
X78340857Y-49624645D01*
X78250142Y-49624645D01*
X78189666Y-49594407D01*
X78159428Y-49533930D01*
X78159428Y-49503692D01*
X78189666Y-49443216D01*
X78250142Y-49412978D01*
X78340857Y-49412978D01*
X78401333Y-49443216D01*
X78703714Y-49775835D02*
X78733952Y-49806073D01*
X78703714Y-49836311D01*
X78673476Y-49806073D01*
X78703714Y-49775835D01*
X78703714Y-49836311D01*
X78703714Y-49443216D02*
X78733952Y-49473454D01*
X78703714Y-49503692D01*
X78673476Y-49473454D01*
X78703714Y-49443216D01*
X78703714Y-49503692D01*
X79459666Y-49171073D02*
X78915380Y-49987502D01*
X80124904Y-49171073D02*
X79580619Y-49987502D01*
X80578476Y-49806073D02*
X80518000Y-49836311D01*
X80397047Y-49836311D01*
X80336571Y-49806073D01*
X80306333Y-49745597D01*
X80306333Y-49503692D01*
X80336571Y-49443216D01*
X80397047Y-49412978D01*
X80518000Y-49412978D01*
X80578476Y-49443216D01*
X80608714Y-49503692D01*
X80608714Y-49564169D01*
X80306333Y-49624645D01*
X81153000Y-49836311D02*
X81153000Y-49503692D01*
X81122761Y-49443216D01*
X81062285Y-49412978D01*
X80941333Y-49412978D01*
X80880857Y-49443216D01*
X81153000Y-49806073D02*
X81092523Y-49836311D01*
X80941333Y-49836311D01*
X80880857Y-49806073D01*
X80850619Y-49745597D01*
X80850619Y-49685121D01*
X80880857Y-49624645D01*
X80941333Y-49594407D01*
X81092523Y-49594407D01*
X81153000Y-49564169D01*
X81364666Y-49412978D02*
X81606571Y-49412978D01*
X81455380Y-49201311D02*
X81455380Y-49745597D01*
X81485619Y-49806073D01*
X81546095Y-49836311D01*
X81606571Y-49836311D01*
X82060142Y-49806073D02*
X81999666Y-49836311D01*
X81878714Y-49836311D01*
X81818238Y-49806073D01*
X81788000Y-49745597D01*
X81788000Y-49503692D01*
X81818238Y-49443216D01*
X81878714Y-49412978D01*
X81999666Y-49412978D01*
X82060142Y-49443216D01*
X82090380Y-49503692D01*
X82090380Y-49564169D01*
X81788000Y-49624645D01*
X82362523Y-49836311D02*
X82362523Y-49412978D01*
X82362523Y-49533930D02*
X82392761Y-49473454D01*
X82423000Y-49443216D01*
X82483476Y-49412978D01*
X82543952Y-49412978D01*
X82755619Y-49775835D02*
X82785857Y-49806073D01*
X82755619Y-49836311D01*
X82725380Y-49806073D01*
X82755619Y-49775835D01*
X82755619Y-49836311D01*
X83058000Y-49412978D02*
X83058000Y-49836311D01*
X83058000Y-49473454D02*
X83088238Y-49443216D01*
X83148714Y-49412978D01*
X83239428Y-49412978D01*
X83299904Y-49443216D01*
X83330142Y-49503692D01*
X83330142Y-49836311D01*
X83874428Y-49806073D02*
X83813952Y-49836311D01*
X83693000Y-49836311D01*
X83632523Y-49806073D01*
X83602285Y-49745597D01*
X83602285Y-49503692D01*
X83632523Y-49443216D01*
X83693000Y-49412978D01*
X83813952Y-49412978D01*
X83874428Y-49443216D01*
X83904666Y-49503692D01*
X83904666Y-49564169D01*
X83602285Y-49624645D01*
X84086095Y-49412978D02*
X84328000Y-49412978D01*
X84176809Y-49201311D02*
X84176809Y-49745597D01*
X84207047Y-49806073D01*
X84267523Y-49836311D01*
X84328000Y-49836311D01*
X84993238Y-49171073D02*
X84448952Y-49987502D01*
X85295619Y-49473454D02*
X85235142Y-49443216D01*
X85204904Y-49412978D01*
X85174666Y-49352502D01*
X85174666Y-49322264D01*
X85204904Y-49261788D01*
X85235142Y-49231550D01*
X85295619Y-49201311D01*
X85416571Y-49201311D01*
X85477047Y-49231550D01*
X85507285Y-49261788D01*
X85537523Y-49322264D01*
X85537523Y-49352502D01*
X85507285Y-49412978D01*
X85477047Y-49443216D01*
X85416571Y-49473454D01*
X85295619Y-49473454D01*
X85235142Y-49503692D01*
X85204904Y-49533930D01*
X85174666Y-49594407D01*
X85174666Y-49715359D01*
X85204904Y-49775835D01*
X85235142Y-49806073D01*
X85295619Y-49836311D01*
X85416571Y-49836311D01*
X85477047Y-49806073D01*
X85507285Y-49775835D01*
X85537523Y-49715359D01*
X85537523Y-49594407D01*
X85507285Y-49533930D01*
X85477047Y-49503692D01*
X85416571Y-49473454D01*
X85809666Y-49836311D02*
X85809666Y-49201311D01*
X85809666Y-49443216D02*
X85870142Y-49412978D01*
X85991095Y-49412978D01*
X86051571Y-49443216D01*
X86081809Y-49473454D01*
X86112047Y-49533930D01*
X86112047Y-49715359D01*
X86081809Y-49775835D01*
X86051571Y-49806073D01*
X85991095Y-49836311D01*
X85870142Y-49836311D01*
X85809666Y-49806073D01*
X86384190Y-49836311D02*
X86384190Y-49412978D01*
X86384190Y-49201311D02*
X86353952Y-49231550D01*
X86384190Y-49261788D01*
X86414428Y-49231550D01*
X86384190Y-49201311D01*
X86384190Y-49261788D01*
X86595857Y-49412978D02*
X86837761Y-49412978D01*
X86686571Y-49201311D02*
X86686571Y-49745597D01*
X86716809Y-49806073D01*
X86777285Y-49836311D01*
X86837761Y-49836311D01*
X86988952Y-50078216D02*
X87019190Y-50047978D01*
X87079666Y-49957264D01*
X87109904Y-49896788D01*
X87140142Y-49806073D01*
X87170380Y-49654883D01*
X87170380Y-49533930D01*
X87140142Y-49382740D01*
X87109904Y-49292026D01*
X87079666Y-49231550D01*
X87019190Y-49140835D01*
X86988952Y-49110597D01*
D10*
X54945642Y-47507071D02*
X54945642Y-46364071D01*
X55217785Y-46364071D01*
X55381071Y-46418500D01*
X55489928Y-46527357D01*
X55544357Y-46636214D01*
X55598785Y-46853928D01*
X55598785Y-47017214D01*
X55544357Y-47234928D01*
X55489928Y-47343785D01*
X55381071Y-47452642D01*
X55217785Y-47507071D01*
X54945642Y-47507071D01*
X56088642Y-47507071D02*
X56088642Y-46364071D01*
X56850642Y-46962785D02*
X56850642Y-47507071D01*
X56469642Y-46364071D02*
X56850642Y-46962785D01*
X57231642Y-46364071D01*
X58646785Y-46853928D02*
X58537928Y-46799500D01*
X58483500Y-46745071D01*
X58429071Y-46636214D01*
X58429071Y-46581785D01*
X58483500Y-46472928D01*
X58537928Y-46418500D01*
X58646785Y-46364071D01*
X58864500Y-46364071D01*
X58973357Y-46418500D01*
X59027785Y-46472928D01*
X59082214Y-46581785D01*
X59082214Y-46636214D01*
X59027785Y-46745071D01*
X58973357Y-46799500D01*
X58864500Y-46853928D01*
X58646785Y-46853928D01*
X58537928Y-46908357D01*
X58483500Y-46962785D01*
X58429071Y-47071642D01*
X58429071Y-47289357D01*
X58483500Y-47398214D01*
X58537928Y-47452642D01*
X58646785Y-47507071D01*
X58864500Y-47507071D01*
X58973357Y-47452642D01*
X59027785Y-47398214D01*
X59082214Y-47289357D01*
X59082214Y-47071642D01*
X59027785Y-46962785D01*
X58973357Y-46908357D01*
X58864500Y-46853928D01*
X59572071Y-47071642D02*
X60442928Y-47071642D01*
X61368214Y-46908357D02*
X61531500Y-46962785D01*
X61585928Y-47017214D01*
X61640357Y-47126071D01*
X61640357Y-47289357D01*
X61585928Y-47398214D01*
X61531500Y-47452642D01*
X61422642Y-47507071D01*
X60987214Y-47507071D01*
X60987214Y-46364071D01*
X61368214Y-46364071D01*
X61477071Y-46418500D01*
X61531500Y-46472928D01*
X61585928Y-46581785D01*
X61585928Y-46690642D01*
X61531500Y-46799500D01*
X61477071Y-46853928D01*
X61368214Y-46908357D01*
X60987214Y-46908357D01*
X62130214Y-47507071D02*
X62130214Y-46745071D01*
X62130214Y-46364071D02*
X62075785Y-46418500D01*
X62130214Y-46472928D01*
X62184642Y-46418500D01*
X62130214Y-46364071D01*
X62130214Y-46472928D01*
X62511214Y-46745071D02*
X62946642Y-46745071D01*
X62674500Y-46364071D02*
X62674500Y-47343785D01*
X62728928Y-47452642D01*
X62837785Y-47507071D01*
X62946642Y-47507071D01*
X64851642Y-47398214D02*
X64797214Y-47452642D01*
X64633928Y-47507071D01*
X64525071Y-47507071D01*
X64361785Y-47452642D01*
X64252928Y-47343785D01*
X64198500Y-47234928D01*
X64144071Y-47017214D01*
X64144071Y-46853928D01*
X64198500Y-46636214D01*
X64252928Y-46527357D01*
X64361785Y-46418500D01*
X64525071Y-46364071D01*
X64633928Y-46364071D01*
X64797214Y-46418500D01*
X64851642Y-46472928D01*
X65504785Y-47507071D02*
X65395928Y-47452642D01*
X65341500Y-47398214D01*
X65287071Y-47289357D01*
X65287071Y-46962785D01*
X65341500Y-46853928D01*
X65395928Y-46799500D01*
X65504785Y-46745071D01*
X65668071Y-46745071D01*
X65776928Y-46799500D01*
X65831357Y-46853928D01*
X65885785Y-46962785D01*
X65885785Y-47289357D01*
X65831357Y-47398214D01*
X65776928Y-47452642D01*
X65668071Y-47507071D01*
X65504785Y-47507071D01*
X66375642Y-47507071D02*
X66375642Y-46745071D01*
X66375642Y-46853928D02*
X66430071Y-46799500D01*
X66538928Y-46745071D01*
X66702214Y-46745071D01*
X66811071Y-46799500D01*
X66865500Y-46908357D01*
X66865500Y-47507071D01*
X66865500Y-46908357D02*
X66919928Y-46799500D01*
X67028785Y-46745071D01*
X67192071Y-46745071D01*
X67300928Y-46799500D01*
X67355357Y-46908357D01*
X67355357Y-47507071D01*
X67899642Y-46745071D02*
X67899642Y-47888071D01*
X67899642Y-46799500D02*
X68008500Y-46745071D01*
X68226214Y-46745071D01*
X68335071Y-46799500D01*
X68389500Y-46853928D01*
X68443928Y-46962785D01*
X68443928Y-47289357D01*
X68389500Y-47398214D01*
X68335071Y-47452642D01*
X68226214Y-47507071D01*
X68008500Y-47507071D01*
X67899642Y-47452642D01*
X69423642Y-46745071D02*
X69423642Y-47507071D01*
X68933785Y-46745071D02*
X68933785Y-47343785D01*
X68988214Y-47452642D01*
X69097071Y-47507071D01*
X69260357Y-47507071D01*
X69369214Y-47452642D01*
X69423642Y-47398214D01*
X69804642Y-46745071D02*
X70240071Y-46745071D01*
X69967928Y-46364071D02*
X69967928Y-47343785D01*
X70022357Y-47452642D01*
X70131214Y-47507071D01*
X70240071Y-47507071D01*
X71056500Y-47452642D02*
X70947642Y-47507071D01*
X70729928Y-47507071D01*
X70621071Y-47452642D01*
X70566642Y-47343785D01*
X70566642Y-46908357D01*
X70621071Y-46799500D01*
X70729928Y-46745071D01*
X70947642Y-46745071D01*
X71056500Y-46799500D01*
X71110928Y-46908357D01*
X71110928Y-47017214D01*
X70566642Y-47126071D01*
X71600785Y-47507071D02*
X71600785Y-46745071D01*
X71600785Y-46962785D02*
X71655214Y-46853928D01*
X71709642Y-46799500D01*
X71818500Y-46745071D01*
X71927357Y-46745071D01*
X73179214Y-47071642D02*
X74050071Y-47071642D01*
X76118357Y-47507071D02*
X75737357Y-46962785D01*
X75465214Y-47507071D02*
X75465214Y-46364071D01*
X75900642Y-46364071D01*
X76009500Y-46418500D01*
X76063928Y-46472928D01*
X76118357Y-46581785D01*
X76118357Y-46745071D01*
X76063928Y-46853928D01*
X76009500Y-46908357D01*
X75900642Y-46962785D01*
X75465214Y-46962785D01*
X77043642Y-47452642D02*
X76934785Y-47507071D01*
X76717071Y-47507071D01*
X76608214Y-47452642D01*
X76553785Y-47343785D01*
X76553785Y-46908357D01*
X76608214Y-46799500D01*
X76717071Y-46745071D01*
X76934785Y-46745071D01*
X77043642Y-46799500D01*
X77098071Y-46908357D01*
X77098071Y-47017214D01*
X76553785Y-47126071D01*
X78077785Y-46745071D02*
X78077785Y-47670357D01*
X78023357Y-47779214D01*
X77968928Y-47833642D01*
X77860071Y-47888071D01*
X77696785Y-47888071D01*
X77587928Y-47833642D01*
X78077785Y-47452642D02*
X77968928Y-47507071D01*
X77751214Y-47507071D01*
X77642357Y-47452642D01*
X77587928Y-47398214D01*
X77533500Y-47289357D01*
X77533500Y-46962785D01*
X77587928Y-46853928D01*
X77642357Y-46799500D01*
X77751214Y-46745071D01*
X77968928Y-46745071D01*
X78077785Y-46799500D01*
X78622071Y-47507071D02*
X78622071Y-46745071D01*
X78622071Y-46364071D02*
X78567642Y-46418500D01*
X78622071Y-46472928D01*
X78676500Y-46418500D01*
X78622071Y-46364071D01*
X78622071Y-46472928D01*
X79111928Y-47452642D02*
X79220785Y-47507071D01*
X79438500Y-47507071D01*
X79547357Y-47452642D01*
X79601785Y-47343785D01*
X79601785Y-47289357D01*
X79547357Y-47180500D01*
X79438500Y-47126071D01*
X79275214Y-47126071D01*
X79166357Y-47071642D01*
X79111928Y-46962785D01*
X79111928Y-46908357D01*
X79166357Y-46799500D01*
X79275214Y-46745071D01*
X79438500Y-46745071D01*
X79547357Y-46799500D01*
X79928357Y-46745071D02*
X80363785Y-46745071D01*
X80091642Y-46364071D02*
X80091642Y-47343785D01*
X80146071Y-47452642D01*
X80254928Y-47507071D01*
X80363785Y-47507071D01*
X81180214Y-47452642D02*
X81071357Y-47507071D01*
X80853642Y-47507071D01*
X80744785Y-47452642D01*
X80690357Y-47343785D01*
X80690357Y-46908357D01*
X80744785Y-46799500D01*
X80853642Y-46745071D01*
X81071357Y-46745071D01*
X81180214Y-46799500D01*
X81234642Y-46908357D01*
X81234642Y-47017214D01*
X80690357Y-47126071D01*
X81724500Y-47507071D02*
X81724500Y-46745071D01*
X81724500Y-46962785D02*
X81778928Y-46853928D01*
X81833357Y-46799500D01*
X81942214Y-46745071D01*
X82051071Y-46745071D01*
X83248500Y-47180500D02*
X83792785Y-47180500D01*
X83139642Y-47507071D02*
X83520642Y-46364071D01*
X83901642Y-47507071D01*
D12*
X24010000Y-45660000D02*
X24010000Y-55940000D01*
X44570000Y-45660000D02*
X24010000Y-45660000D01*
X44570000Y-55940000D02*
X44570000Y-45660000D01*
X24010000Y-55940000D02*
X44570000Y-55940000D01*
X24070000Y-48150000D02*
X24070000Y-49800000D01*
X44510000Y-48150000D02*
X24070000Y-48150000D01*
X44510000Y-53450000D02*
X44510000Y-48150000D01*
X24070000Y-53450000D02*
X44510000Y-53450000D01*
X24070000Y-51800000D02*
X24070000Y-53450000D01*
X24070000Y-49800000D02*
G75*
G02X24070000Y-51800000I0J-1000000D01*
G01*
D13*
X91790017Y-81280000D02*
G75*
G03X91790017Y-81280000I-2890017J0D01*
G01*
X23210017Y-81280000D02*
G75*
G03X23210017Y-81280000I-2890017J0D01*
G01*
X91790017Y-33020000D02*
G75*
G03X91790017Y-33020000I-2890017J0D01*
G01*
X23210017Y-33020000D02*
G75*
G03X23210017Y-33020000I-2890017J0D01*
G01*
D12*
X46130000Y-80150000D02*
X46130000Y-78935000D01*
X46190000Y-84110000D02*
X46190000Y-86370000D01*
X46690000Y-84110000D02*
X46690000Y-86370000D01*
X61290000Y-82510000D02*
X62290000Y-82510000D01*
X61290000Y-84110000D02*
X61290000Y-82510000D01*
X62290000Y-84110000D02*
X61290000Y-84110000D01*
X62290000Y-82510000D02*
X62290000Y-84110000D01*
X46690000Y-82510000D02*
X45690000Y-82510000D01*
X46690000Y-84110000D02*
X46690000Y-82510000D01*
X45690000Y-84110000D02*
X46690000Y-84110000D01*
X45690000Y-82510000D02*
X45690000Y-84110000D01*
X63050000Y-80150000D02*
X62130000Y-80150000D01*
X44930000Y-80150000D02*
X45850000Y-80150000D01*
X60490000Y-82010000D02*
X60490000Y-86370000D01*
X47490000Y-82010000D02*
X60490000Y-82010000D01*
X47490000Y-86370000D02*
X47490000Y-82010000D01*
X62130000Y-80150000D02*
X61850000Y-80150000D01*
X62130000Y-78550000D02*
X62130000Y-80150000D01*
X63050000Y-78550000D02*
X62130000Y-78550000D01*
X63050000Y-86370000D02*
X63050000Y-78550000D01*
X44930000Y-86370000D02*
X63050000Y-86370000D01*
X44930000Y-78550000D02*
X44930000Y-86370000D01*
X45850000Y-78550000D02*
X44930000Y-78550000D01*
X45850000Y-80150000D02*
X45850000Y-78550000D01*
X46130000Y-80150000D02*
X45850000Y-80150000D01*
X50151000Y-49880000D02*
X51409000Y-49880000D01*
X50151000Y-51720000D02*
X51409000Y-51720000D01*
X25380000Y-31475000D02*
X25380000Y-34565000D01*
X30440000Y-33020000D02*
G75*
G03X30440000Y-33020000I-2500000J0D01*
G01*
X30930000Y-33019538D02*
G75*
G02X25380000Y-34564830I-2990000J-462D01*
G01*
X30930000Y-33020462D02*
G75*
G03X25380000Y-31475170I-2990000J462D01*
G01*
X38550000Y-33020462D02*
G75*
G03X33000000Y-31475170I-2990000J462D01*
G01*
X38550000Y-33019538D02*
G75*
G02X33000000Y-34564830I-2990000J-462D01*
G01*
X38060000Y-33020000D02*
G75*
G03X38060000Y-33020000I-2500000J0D01*
G01*
X33000000Y-31475000D02*
X33000000Y-34565000D01*
X40620000Y-31475000D02*
X40620000Y-34565000D01*
X45680000Y-33020000D02*
G75*
G03X45680000Y-33020000I-2500000J0D01*
G01*
X46170000Y-33019538D02*
G75*
G02X40620000Y-34564830I-2990000J-462D01*
G01*
X46170000Y-33020462D02*
G75*
G03X40620000Y-31475170I-2990000J462D01*
G01*
X53790000Y-33020462D02*
G75*
G03X48240000Y-31475170I-2990000J462D01*
G01*
X53790000Y-33019538D02*
G75*
G02X48240000Y-34564830I-2990000J-462D01*
G01*
X53300000Y-33020000D02*
G75*
G03X53300000Y-33020000I-2500000J0D01*
G01*
X48240000Y-31475000D02*
X48240000Y-34565000D01*
X55860000Y-31475000D02*
X55860000Y-34565000D01*
X60920000Y-33020000D02*
G75*
G03X60920000Y-33020000I-2500000J0D01*
G01*
X61410000Y-33019538D02*
G75*
G02X55860000Y-34564830I-2990000J-462D01*
G01*
X61410000Y-33020462D02*
G75*
G03X55860000Y-31475170I-2990000J462D01*
G01*
X69030000Y-33020462D02*
G75*
G03X63480000Y-31475170I-2990000J462D01*
G01*
X69030000Y-33019538D02*
G75*
G02X63480000Y-34564830I-2990000J-462D01*
G01*
X68540000Y-33020000D02*
G75*
G03X68540000Y-33020000I-2500000J0D01*
G01*
X63480000Y-31475000D02*
X63480000Y-34565000D01*
X71100000Y-31475000D02*
X71100000Y-34565000D01*
X76160000Y-33020000D02*
G75*
G03X76160000Y-33020000I-2500000J0D01*
G01*
X76650000Y-33019538D02*
G75*
G02X71100000Y-34564830I-2990000J-462D01*
G01*
X76650000Y-33020462D02*
G75*
G03X71100000Y-31475170I-2990000J462D01*
G01*
X84270000Y-33020462D02*
G75*
G03X78720000Y-31475170I-2990000J462D01*
G01*
X84270000Y-33019538D02*
G75*
G02X78720000Y-34564830I-2990000J-462D01*
G01*
X83780000Y-33020000D02*
G75*
G03X83780000Y-33020000I-2500000J0D01*
G01*
X78720000Y-31475000D02*
X78720000Y-34565000D01*
X25810000Y-80150000D02*
X25530000Y-80150000D01*
X25530000Y-80150000D02*
X25530000Y-78550000D01*
X25530000Y-78550000D02*
X24610000Y-78550000D01*
X24610000Y-78550000D02*
X24610000Y-86370000D01*
X24610000Y-86370000D02*
X42730000Y-86370000D01*
X42730000Y-86370000D02*
X42730000Y-78550000D01*
X42730000Y-78550000D02*
X41810000Y-78550000D01*
X41810000Y-78550000D02*
X41810000Y-80150000D01*
X41810000Y-80150000D02*
X41530000Y-80150000D01*
X27170000Y-86370000D02*
X27170000Y-82010000D01*
X27170000Y-82010000D02*
X40170000Y-82010000D01*
X40170000Y-82010000D02*
X40170000Y-86370000D01*
X24610000Y-80150000D02*
X25530000Y-80150000D01*
X42730000Y-80150000D02*
X41810000Y-80150000D01*
X25370000Y-82510000D02*
X25370000Y-84110000D01*
X25370000Y-84110000D02*
X26370000Y-84110000D01*
X26370000Y-84110000D02*
X26370000Y-82510000D01*
X26370000Y-82510000D02*
X25370000Y-82510000D01*
X41970000Y-82510000D02*
X41970000Y-84110000D01*
X41970000Y-84110000D02*
X40970000Y-84110000D01*
X40970000Y-84110000D02*
X40970000Y-82510000D01*
X40970000Y-82510000D02*
X41970000Y-82510000D01*
X26370000Y-84110000D02*
X26370000Y-86370000D01*
X25870000Y-84110000D02*
X25870000Y-86370000D01*
X25810000Y-80150000D02*
X25810000Y-78935000D01*
X75340000Y-80150000D02*
X75060000Y-80150000D01*
X75060000Y-80150000D02*
X75060000Y-78550000D01*
X75060000Y-78550000D02*
X74140000Y-78550000D01*
X74140000Y-78550000D02*
X74140000Y-86370000D01*
X74140000Y-86370000D02*
X84260000Y-86370000D01*
X84260000Y-86370000D02*
X84260000Y-78550000D01*
X84260000Y-78550000D02*
X83340000Y-78550000D01*
X83340000Y-78550000D02*
X83340000Y-80150000D01*
X83340000Y-80150000D02*
X83060000Y-80150000D01*
X76700000Y-86370000D02*
X76700000Y-82010000D01*
X76700000Y-82010000D02*
X81700000Y-82010000D01*
X81700000Y-82010000D02*
X81700000Y-86370000D01*
X74140000Y-80150000D02*
X75060000Y-80150000D01*
X84260000Y-80150000D02*
X83340000Y-80150000D01*
X74900000Y-82510000D02*
X74900000Y-84110000D01*
X74900000Y-84110000D02*
X75900000Y-84110000D01*
X75900000Y-84110000D02*
X75900000Y-82510000D01*
X75900000Y-82510000D02*
X74900000Y-82510000D01*
X83500000Y-82510000D02*
X83500000Y-84110000D01*
X83500000Y-84110000D02*
X82500000Y-84110000D01*
X82500000Y-84110000D02*
X82500000Y-82510000D01*
X82500000Y-82510000D02*
X83500000Y-82510000D01*
X75900000Y-84110000D02*
X75900000Y-86370000D01*
X75400000Y-84110000D02*
X75400000Y-86370000D01*
X75340000Y-80150000D02*
X75340000Y-78935000D01*
X66450000Y-80150000D02*
X66170000Y-80150000D01*
X66170000Y-80150000D02*
X66170000Y-78550000D01*
X66170000Y-78550000D02*
X65250000Y-78550000D01*
X65250000Y-78550000D02*
X65250000Y-86370000D01*
X65250000Y-86370000D02*
X71370000Y-86370000D01*
X71370000Y-86370000D02*
X71370000Y-78550000D01*
X71370000Y-78550000D02*
X70450000Y-78550000D01*
X70450000Y-78550000D02*
X70450000Y-80150000D01*
X70450000Y-80150000D02*
X70170000Y-80150000D01*
X67810000Y-86370000D02*
X67810000Y-82010000D01*
X67810000Y-82010000D02*
X68810000Y-82010000D01*
X68810000Y-82010000D02*
X68810000Y-86370000D01*
X65250000Y-80150000D02*
X66170000Y-80150000D01*
X71370000Y-80150000D02*
X70450000Y-80150000D01*
X66010000Y-82510000D02*
X66010000Y-84110000D01*
X66010000Y-84110000D02*
X67010000Y-84110000D01*
X67010000Y-84110000D02*
X67010000Y-82510000D01*
X67010000Y-82510000D02*
X66010000Y-82510000D01*
X70610000Y-82510000D02*
X70610000Y-84110000D01*
X70610000Y-84110000D02*
X69610000Y-84110000D01*
X69610000Y-84110000D02*
X69610000Y-82510000D01*
X69610000Y-82510000D02*
X70610000Y-82510000D01*
X67010000Y-84110000D02*
X67010000Y-86370000D01*
X66510000Y-84110000D02*
X66510000Y-86370000D01*
X66450000Y-80150000D02*
X66450000Y-78935000D01*
X26020000Y-39020000D02*
X29860000Y-39020000D01*
X26020000Y-37180000D02*
X29860000Y-37180000D01*
X33640000Y-37180000D02*
X37480000Y-37180000D01*
X33640000Y-39020000D02*
X37480000Y-39020000D01*
X41260000Y-39020000D02*
X45100000Y-39020000D01*
X41260000Y-37180000D02*
X45100000Y-37180000D01*
X48880000Y-37180000D02*
X52720000Y-37180000D01*
X48880000Y-39020000D02*
X52720000Y-39020000D01*
X56500000Y-39020000D02*
X60340000Y-39020000D01*
X56500000Y-37180000D02*
X60340000Y-37180000D01*
X64120000Y-37180000D02*
X67960000Y-37180000D01*
X64120000Y-39020000D02*
X67960000Y-39020000D01*
X71740000Y-39020000D02*
X75580000Y-39020000D01*
X71740000Y-37180000D02*
X75580000Y-37180000D01*
X79360000Y-37180000D02*
X83200000Y-37180000D01*
X79360000Y-39020000D02*
X83200000Y-39020000D01*
X20000000Y-60518000D02*
X20000000Y-62418000D01*
X20000000Y-62418000D02*
X18100000Y-62418000D01*
X18100000Y-62418000D02*
X18100000Y-60518000D01*
X18100000Y-60518000D02*
X20000000Y-60518000D01*
X18100000Y-57470000D02*
X20000000Y-57470000D01*
X18100000Y-59370000D02*
X18100000Y-57470000D01*
X20000000Y-59370000D02*
X18100000Y-59370000D01*
X20000000Y-57470000D02*
X20000000Y-59370000D01*
X18100000Y-54422000D02*
X20000000Y-54422000D01*
X18100000Y-56322000D02*
X18100000Y-54422000D01*
X20000000Y-56322000D02*
X18100000Y-56322000D01*
X20000000Y-54422000D02*
X20000000Y-56322000D01*
X20000000Y-51374000D02*
X20000000Y-53274000D01*
X20000000Y-53274000D02*
X18100000Y-53274000D01*
X18100000Y-53274000D02*
X18100000Y-51374000D01*
X18100000Y-51374000D02*
X20000000Y-51374000D01*
X18100000Y-48326000D02*
X20000000Y-48326000D01*
X18100000Y-50226000D02*
X18100000Y-48326000D01*
X20000000Y-50226000D02*
X18100000Y-50226000D01*
X20000000Y-48326000D02*
X20000000Y-50226000D01*
X20000000Y-45278000D02*
X20000000Y-47178000D01*
X20000000Y-47178000D02*
X18100000Y-47178000D01*
X18100000Y-47178000D02*
X18100000Y-45278000D01*
X18100000Y-45278000D02*
X20000000Y-45278000D01*
X18100000Y-42230000D02*
X20000000Y-42230000D01*
X18100000Y-44130000D02*
X18100000Y-42230000D01*
X20000000Y-44130000D02*
X18100000Y-44130000D01*
X20000000Y-42230000D02*
X20000000Y-44130000D01*
X20000000Y-39182000D02*
X20000000Y-41082000D01*
X20000000Y-41082000D02*
X18100000Y-41082000D01*
X18100000Y-41082000D02*
X18100000Y-39182000D01*
X18100000Y-39182000D02*
X20000000Y-39182000D01*
X89220000Y-54544000D02*
X89220000Y-52644000D01*
X89220000Y-52644000D02*
X91120000Y-52644000D01*
X91120000Y-52644000D02*
X91120000Y-54544000D01*
X91120000Y-54544000D02*
X89220000Y-54544000D01*
X91120000Y-57592000D02*
X89220000Y-57592000D01*
X91120000Y-55692000D02*
X91120000Y-57592000D01*
X89220000Y-55692000D02*
X91120000Y-55692000D01*
X89220000Y-57592000D02*
X89220000Y-55692000D01*
X89220000Y-60640000D02*
X89220000Y-58740000D01*
X89220000Y-58740000D02*
X91120000Y-58740000D01*
X91120000Y-58740000D02*
X91120000Y-60640000D01*
X91120000Y-60640000D02*
X89220000Y-60640000D01*
X91120000Y-63688000D02*
X89220000Y-63688000D01*
X91120000Y-61788000D02*
X91120000Y-63688000D01*
X89220000Y-61788000D02*
X91120000Y-61788000D01*
X89220000Y-63688000D02*
X89220000Y-61788000D01*
X89220000Y-66736000D02*
X89220000Y-64836000D01*
X89220000Y-64836000D02*
X91120000Y-64836000D01*
X91120000Y-64836000D02*
X91120000Y-66736000D01*
X91120000Y-66736000D02*
X89220000Y-66736000D01*
X91120000Y-69784000D02*
X89220000Y-69784000D01*
X91120000Y-67884000D02*
X91120000Y-69784000D01*
X89220000Y-67884000D02*
X91120000Y-67884000D01*
X89220000Y-69784000D02*
X89220000Y-67884000D01*
X89220000Y-72832000D02*
X89220000Y-70932000D01*
X89220000Y-70932000D02*
X91120000Y-70932000D01*
X91120000Y-70932000D02*
X91120000Y-72832000D01*
X91120000Y-72832000D02*
X89220000Y-72832000D01*
X91120000Y-75880000D02*
X89220000Y-75880000D01*
X91120000Y-73980000D02*
X91120000Y-75880000D01*
X89220000Y-73980000D02*
X91120000Y-73980000D01*
X89220000Y-75880000D02*
X89220000Y-73980000D01*
X89220000Y-48702000D02*
X89220000Y-46802000D01*
X89220000Y-46802000D02*
X91120000Y-46802000D01*
X91120000Y-46802000D02*
X91120000Y-48702000D01*
X91120000Y-48702000D02*
X89220000Y-48702000D01*
X91120000Y-45654000D02*
X89220000Y-45654000D01*
X91120000Y-43754000D02*
X91120000Y-45654000D01*
X89220000Y-43754000D02*
X91120000Y-43754000D01*
X89220000Y-45654000D02*
X89220000Y-43754000D01*
X89220000Y-42606000D02*
X89220000Y-40706000D01*
X89220000Y-40706000D02*
X91120000Y-40706000D01*
X91120000Y-40706000D02*
X91120000Y-42606000D01*
X91120000Y-42606000D02*
X89220000Y-42606000D01*
X91120000Y-39558000D02*
X89220000Y-39558000D01*
X91120000Y-37658000D02*
X91120000Y-39558000D01*
X89220000Y-37658000D02*
X91120000Y-37658000D01*
X89220000Y-39558000D02*
X89220000Y-37658000D01*
X18100000Y-66868000D02*
X20000000Y-66868000D01*
X18100000Y-68768000D02*
X18100000Y-66868000D01*
X20000000Y-68768000D02*
X18100000Y-68768000D01*
X20000000Y-66868000D02*
X20000000Y-68768000D01*
X20000000Y-69916000D02*
X20000000Y-71816000D01*
X20000000Y-71816000D02*
X18100000Y-71816000D01*
X18100000Y-71816000D02*
X18100000Y-69916000D01*
X18100000Y-69916000D02*
X20000000Y-69916000D01*
X24070000Y-63770000D02*
G75*
G02X24070000Y-65770000I0J-1000000D01*
G01*
X24070000Y-65770000D02*
X24070000Y-67420000D01*
X24070000Y-67420000D02*
X49590000Y-67420000D01*
X49590000Y-67420000D02*
X49590000Y-62120000D01*
X49590000Y-62120000D02*
X24070000Y-62120000D01*
X24070000Y-62120000D02*
X24070000Y-63770000D01*
X24010000Y-69910000D02*
X49650000Y-69910000D01*
X49650000Y-69910000D02*
X49650000Y-59630000D01*
X49650000Y-59630000D02*
X24010000Y-59630000D01*
X24010000Y-59630000D02*
X24010000Y-69910000D01*
X54550000Y-63770000D02*
G75*
G02X54550000Y-65770000I0J-1000000D01*
G01*
X54550000Y-65770000D02*
X54550000Y-67420000D01*
X54550000Y-67420000D02*
X74990000Y-67420000D01*
X74990000Y-67420000D02*
X74990000Y-62120000D01*
X74990000Y-62120000D02*
X54550000Y-62120000D01*
X54550000Y-62120000D02*
X54550000Y-63770000D01*
X54490000Y-69910000D02*
X75050000Y-69910000D01*
X75050000Y-69910000D02*
X75050000Y-59630000D01*
X75050000Y-59630000D02*
X54490000Y-59630000D01*
X54490000Y-59630000D02*
X54490000Y-69910000D01*
D14*
X22522380Y-51561904D02*
X23331904Y-51561904D01*
X23427142Y-51514285D01*
X23474761Y-51466666D01*
X23522380Y-51371428D01*
X23522380Y-51180952D01*
X23474761Y-51085714D01*
X23427142Y-51038095D01*
X23331904Y-50990476D01*
X22522380Y-50990476D01*
X22522380Y-50609523D02*
X22522380Y-49990476D01*
X22903333Y-50323809D01*
X22903333Y-50180952D01*
X22950952Y-50085714D01*
X22998571Y-50038095D01*
X23093809Y-49990476D01*
X23331904Y-49990476D01*
X23427142Y-50038095D01*
X23474761Y-50085714D01*
X23522380Y-50180952D01*
X23522380Y-50466666D01*
X23474761Y-50561904D01*
X23427142Y-50609523D01*
X51411523Y-77636666D02*
X51887714Y-77636666D01*
X51316285Y-77922380D02*
X51649619Y-76922380D01*
X51982952Y-77922380D01*
X52744857Y-77922380D02*
X52744857Y-76922380D01*
X52744857Y-77874761D02*
X52649619Y-77922380D01*
X52459142Y-77922380D01*
X52363904Y-77874761D01*
X52316285Y-77827142D01*
X52268666Y-77731904D01*
X52268666Y-77446190D01*
X52316285Y-77350952D01*
X52363904Y-77303333D01*
X52459142Y-77255714D01*
X52649619Y-77255714D01*
X52744857Y-77303333D01*
X53649619Y-77922380D02*
X53649619Y-76922380D01*
X53649619Y-77874761D02*
X53554380Y-77922380D01*
X53363904Y-77922380D01*
X53268666Y-77874761D01*
X53221047Y-77827142D01*
X53173428Y-77731904D01*
X53173428Y-77446190D01*
X53221047Y-77350952D01*
X53268666Y-77303333D01*
X53363904Y-77255714D01*
X53554380Y-77255714D01*
X53649619Y-77303333D01*
X54125809Y-77922380D02*
X54125809Y-77255714D01*
X54125809Y-77446190D02*
X54173428Y-77350952D01*
X54221047Y-77303333D01*
X54316285Y-77255714D01*
X54411523Y-77255714D01*
X55125809Y-77874761D02*
X55030571Y-77922380D01*
X54840095Y-77922380D01*
X54744857Y-77874761D01*
X54697238Y-77779523D01*
X54697238Y-77398571D01*
X54744857Y-77303333D01*
X54840095Y-77255714D01*
X55030571Y-77255714D01*
X55125809Y-77303333D01*
X55173428Y-77398571D01*
X55173428Y-77493809D01*
X54697238Y-77589047D01*
X55554380Y-77874761D02*
X55649619Y-77922380D01*
X55840095Y-77922380D01*
X55935333Y-77874761D01*
X55982952Y-77779523D01*
X55982952Y-77731904D01*
X55935333Y-77636666D01*
X55840095Y-77589047D01*
X55697238Y-77589047D01*
X55602000Y-77541428D01*
X55554380Y-77446190D01*
X55554380Y-77398571D01*
X55602000Y-77303333D01*
X55697238Y-77255714D01*
X55840095Y-77255714D01*
X55935333Y-77303333D01*
X56363904Y-77874761D02*
X56459142Y-77922380D01*
X56649619Y-77922380D01*
X56744857Y-77874761D01*
X56792476Y-77779523D01*
X56792476Y-77731904D01*
X56744857Y-77636666D01*
X56649619Y-77589047D01*
X56506761Y-77589047D01*
X56411523Y-77541428D01*
X56363904Y-77446190D01*
X56363904Y-77398571D01*
X56411523Y-77303333D01*
X56506761Y-77255714D01*
X56649619Y-77255714D01*
X56744857Y-77303333D01*
X50613333Y-49107142D02*
X50565714Y-49154761D01*
X50422857Y-49202380D01*
X50327619Y-49202380D01*
X50184761Y-49154761D01*
X50089523Y-49059523D01*
X50041904Y-48964285D01*
X49994285Y-48773809D01*
X49994285Y-48630952D01*
X50041904Y-48440476D01*
X50089523Y-48345238D01*
X50184761Y-48250000D01*
X50327619Y-48202380D01*
X50422857Y-48202380D01*
X50565714Y-48250000D01*
X50613333Y-48297619D01*
X51565714Y-49202380D02*
X50994285Y-49202380D01*
X51280000Y-49202380D02*
X51280000Y-48202380D01*
X51184761Y-48345238D01*
X51089523Y-48440476D01*
X50994285Y-48488095D01*
X27201904Y-29512380D02*
X27201904Y-28512380D01*
X27440000Y-28512380D01*
X27582857Y-28560000D01*
X27678095Y-28655238D01*
X27725714Y-28750476D01*
X27773333Y-28940952D01*
X27773333Y-29083809D01*
X27725714Y-29274285D01*
X27678095Y-29369523D01*
X27582857Y-29464761D01*
X27440000Y-29512380D01*
X27201904Y-29512380D01*
X28725714Y-29512380D02*
X28154285Y-29512380D01*
X28440000Y-29512380D02*
X28440000Y-28512380D01*
X28344761Y-28655238D01*
X28249523Y-28750476D01*
X28154285Y-28798095D01*
X34821904Y-29512380D02*
X34821904Y-28512380D01*
X35060000Y-28512380D01*
X35202857Y-28560000D01*
X35298095Y-28655238D01*
X35345714Y-28750476D01*
X35393333Y-28940952D01*
X35393333Y-29083809D01*
X35345714Y-29274285D01*
X35298095Y-29369523D01*
X35202857Y-29464761D01*
X35060000Y-29512380D01*
X34821904Y-29512380D01*
X35774285Y-28607619D02*
X35821904Y-28560000D01*
X35917142Y-28512380D01*
X36155238Y-28512380D01*
X36250476Y-28560000D01*
X36298095Y-28607619D01*
X36345714Y-28702857D01*
X36345714Y-28798095D01*
X36298095Y-28940952D01*
X35726666Y-29512380D01*
X36345714Y-29512380D01*
X42441904Y-29512380D02*
X42441904Y-28512380D01*
X42680000Y-28512380D01*
X42822857Y-28560000D01*
X42918095Y-28655238D01*
X42965714Y-28750476D01*
X43013333Y-28940952D01*
X43013333Y-29083809D01*
X42965714Y-29274285D01*
X42918095Y-29369523D01*
X42822857Y-29464761D01*
X42680000Y-29512380D01*
X42441904Y-29512380D01*
X43346666Y-28512380D02*
X43965714Y-28512380D01*
X43632380Y-28893333D01*
X43775238Y-28893333D01*
X43870476Y-28940952D01*
X43918095Y-28988571D01*
X43965714Y-29083809D01*
X43965714Y-29321904D01*
X43918095Y-29417142D01*
X43870476Y-29464761D01*
X43775238Y-29512380D01*
X43489523Y-29512380D01*
X43394285Y-29464761D01*
X43346666Y-29417142D01*
X50061904Y-29512380D02*
X50061904Y-28512380D01*
X50300000Y-28512380D01*
X50442857Y-28560000D01*
X50538095Y-28655238D01*
X50585714Y-28750476D01*
X50633333Y-28940952D01*
X50633333Y-29083809D01*
X50585714Y-29274285D01*
X50538095Y-29369523D01*
X50442857Y-29464761D01*
X50300000Y-29512380D01*
X50061904Y-29512380D01*
X51490476Y-28845714D02*
X51490476Y-29512380D01*
X51252380Y-28464761D02*
X51014285Y-29179047D01*
X51633333Y-29179047D01*
X57681904Y-29512380D02*
X57681904Y-28512380D01*
X57920000Y-28512380D01*
X58062857Y-28560000D01*
X58158095Y-28655238D01*
X58205714Y-28750476D01*
X58253333Y-28940952D01*
X58253333Y-29083809D01*
X58205714Y-29274285D01*
X58158095Y-29369523D01*
X58062857Y-29464761D01*
X57920000Y-29512380D01*
X57681904Y-29512380D01*
X59158095Y-28512380D02*
X58681904Y-28512380D01*
X58634285Y-28988571D01*
X58681904Y-28940952D01*
X58777142Y-28893333D01*
X59015238Y-28893333D01*
X59110476Y-28940952D01*
X59158095Y-28988571D01*
X59205714Y-29083809D01*
X59205714Y-29321904D01*
X59158095Y-29417142D01*
X59110476Y-29464761D01*
X59015238Y-29512380D01*
X58777142Y-29512380D01*
X58681904Y-29464761D01*
X58634285Y-29417142D01*
X65301904Y-29512380D02*
X65301904Y-28512380D01*
X65540000Y-28512380D01*
X65682857Y-28560000D01*
X65778095Y-28655238D01*
X65825714Y-28750476D01*
X65873333Y-28940952D01*
X65873333Y-29083809D01*
X65825714Y-29274285D01*
X65778095Y-29369523D01*
X65682857Y-29464761D01*
X65540000Y-29512380D01*
X65301904Y-29512380D01*
X66730476Y-28512380D02*
X66540000Y-28512380D01*
X66444761Y-28560000D01*
X66397142Y-28607619D01*
X66301904Y-28750476D01*
X66254285Y-28940952D01*
X66254285Y-29321904D01*
X66301904Y-29417142D01*
X66349523Y-29464761D01*
X66444761Y-29512380D01*
X66635238Y-29512380D01*
X66730476Y-29464761D01*
X66778095Y-29417142D01*
X66825714Y-29321904D01*
X66825714Y-29083809D01*
X66778095Y-28988571D01*
X66730476Y-28940952D01*
X66635238Y-28893333D01*
X66444761Y-28893333D01*
X66349523Y-28940952D01*
X66301904Y-28988571D01*
X66254285Y-29083809D01*
X72921904Y-29512380D02*
X72921904Y-28512380D01*
X73160000Y-28512380D01*
X73302857Y-28560000D01*
X73398095Y-28655238D01*
X73445714Y-28750476D01*
X73493333Y-28940952D01*
X73493333Y-29083809D01*
X73445714Y-29274285D01*
X73398095Y-29369523D01*
X73302857Y-29464761D01*
X73160000Y-29512380D01*
X72921904Y-29512380D01*
X73826666Y-28512380D02*
X74493333Y-28512380D01*
X74064761Y-29512380D01*
X80541904Y-29512380D02*
X80541904Y-28512380D01*
X80780000Y-28512380D01*
X80922857Y-28560000D01*
X81018095Y-28655238D01*
X81065714Y-28750476D01*
X81113333Y-28940952D01*
X81113333Y-29083809D01*
X81065714Y-29274285D01*
X81018095Y-29369523D01*
X80922857Y-29464761D01*
X80780000Y-29512380D01*
X80541904Y-29512380D01*
X81684761Y-28940952D02*
X81589523Y-28893333D01*
X81541904Y-28845714D01*
X81494285Y-28750476D01*
X81494285Y-28702857D01*
X81541904Y-28607619D01*
X81589523Y-28560000D01*
X81684761Y-28512380D01*
X81875238Y-28512380D01*
X81970476Y-28560000D01*
X82018095Y-28607619D01*
X82065714Y-28702857D01*
X82065714Y-28750476D01*
X82018095Y-28845714D01*
X81970476Y-28893333D01*
X81875238Y-28940952D01*
X81684761Y-28940952D01*
X81589523Y-28988571D01*
X81541904Y-29036190D01*
X81494285Y-29131428D01*
X81494285Y-29321904D01*
X81541904Y-29417142D01*
X81589523Y-29464761D01*
X81684761Y-29512380D01*
X81875238Y-29512380D01*
X81970476Y-29464761D01*
X82018095Y-29417142D01*
X82065714Y-29321904D01*
X82065714Y-29131428D01*
X82018095Y-29036190D01*
X81970476Y-28988571D01*
X81875238Y-28940952D01*
X32996285Y-77398571D02*
X33139142Y-77446190D01*
X33186761Y-77493809D01*
X33234380Y-77589047D01*
X33234380Y-77731904D01*
X33186761Y-77827142D01*
X33139142Y-77874761D01*
X33043904Y-77922380D01*
X32662952Y-77922380D01*
X32662952Y-76922380D01*
X32996285Y-76922380D01*
X33091523Y-76970000D01*
X33139142Y-77017619D01*
X33186761Y-77112857D01*
X33186761Y-77208095D01*
X33139142Y-77303333D01*
X33091523Y-77350952D01*
X32996285Y-77398571D01*
X32662952Y-77398571D01*
X34091523Y-77255714D02*
X34091523Y-77922380D01*
X33662952Y-77255714D02*
X33662952Y-77779523D01*
X33710571Y-77874761D01*
X33805809Y-77922380D01*
X33948666Y-77922380D01*
X34043904Y-77874761D01*
X34091523Y-77827142D01*
X34520095Y-77874761D02*
X34615333Y-77922380D01*
X34805809Y-77922380D01*
X34901047Y-77874761D01*
X34948666Y-77779523D01*
X34948666Y-77731904D01*
X34901047Y-77636666D01*
X34805809Y-77589047D01*
X34662952Y-77589047D01*
X34567714Y-77541428D01*
X34520095Y-77446190D01*
X34520095Y-77398571D01*
X34567714Y-77303333D01*
X34662952Y-77255714D01*
X34805809Y-77255714D01*
X34901047Y-77303333D01*
X77795238Y-77922380D02*
X77795238Y-76922380D01*
X78128571Y-77636666D01*
X78461904Y-76922380D01*
X78461904Y-77922380D01*
X78938095Y-77922380D02*
X78938095Y-77255714D01*
X78938095Y-76922380D02*
X78890476Y-76970000D01*
X78938095Y-77017619D01*
X78985714Y-76970000D01*
X78938095Y-76922380D01*
X78938095Y-77017619D01*
X79366666Y-77874761D02*
X79461904Y-77922380D01*
X79652380Y-77922380D01*
X79747619Y-77874761D01*
X79795238Y-77779523D01*
X79795238Y-77731904D01*
X79747619Y-77636666D01*
X79652380Y-77589047D01*
X79509523Y-77589047D01*
X79414285Y-77541428D01*
X79366666Y-77446190D01*
X79366666Y-77398571D01*
X79414285Y-77303333D01*
X79509523Y-77255714D01*
X79652380Y-77255714D01*
X79747619Y-77303333D01*
X80652380Y-77874761D02*
X80557142Y-77922380D01*
X80366666Y-77922380D01*
X80271428Y-77874761D01*
X80223809Y-77827142D01*
X80176190Y-77731904D01*
X80176190Y-77446190D01*
X80223809Y-77350952D01*
X80271428Y-77303333D01*
X80366666Y-77255714D01*
X80557142Y-77255714D01*
X80652380Y-77303333D01*
X66333809Y-77922380D02*
X66333809Y-76922380D01*
X66714761Y-76922380D01*
X66810000Y-76970000D01*
X66857619Y-77017619D01*
X66905238Y-77112857D01*
X66905238Y-77255714D01*
X66857619Y-77350952D01*
X66810000Y-77398571D01*
X66714761Y-77446190D01*
X66333809Y-77446190D01*
X67476666Y-77922380D02*
X67381428Y-77874761D01*
X67333809Y-77827142D01*
X67286190Y-77731904D01*
X67286190Y-77446190D01*
X67333809Y-77350952D01*
X67381428Y-77303333D01*
X67476666Y-77255714D01*
X67619523Y-77255714D01*
X67714761Y-77303333D01*
X67762380Y-77350952D01*
X67810000Y-77446190D01*
X67810000Y-77731904D01*
X67762380Y-77827142D01*
X67714761Y-77874761D01*
X67619523Y-77922380D01*
X67476666Y-77922380D01*
X68143333Y-77255714D02*
X68333809Y-77922380D01*
X68524285Y-77446190D01*
X68714761Y-77922380D01*
X68905238Y-77255714D01*
X69667142Y-77874761D02*
X69571904Y-77922380D01*
X69381428Y-77922380D01*
X69286190Y-77874761D01*
X69238571Y-77779523D01*
X69238571Y-77398571D01*
X69286190Y-77303333D01*
X69381428Y-77255714D01*
X69571904Y-77255714D01*
X69667142Y-77303333D01*
X69714761Y-77398571D01*
X69714761Y-77493809D01*
X69238571Y-77589047D01*
X70143333Y-77922380D02*
X70143333Y-77255714D01*
X70143333Y-77446190D02*
X70190952Y-77350952D01*
X70238571Y-77303333D01*
X70333809Y-77255714D01*
X70429047Y-77255714D01*
X27773333Y-40457380D02*
X27440000Y-39981190D01*
X27201904Y-40457380D02*
X27201904Y-39457380D01*
X27582857Y-39457380D01*
X27678095Y-39505000D01*
X27725714Y-39552619D01*
X27773333Y-39647857D01*
X27773333Y-39790714D01*
X27725714Y-39885952D01*
X27678095Y-39933571D01*
X27582857Y-39981190D01*
X27201904Y-39981190D01*
X28725714Y-40457380D02*
X28154285Y-40457380D01*
X28440000Y-40457380D02*
X28440000Y-39457380D01*
X28344761Y-39600238D01*
X28249523Y-39695476D01*
X28154285Y-39743095D01*
X35393333Y-40457380D02*
X35060000Y-39981190D01*
X34821904Y-40457380D02*
X34821904Y-39457380D01*
X35202857Y-39457380D01*
X35298095Y-39505000D01*
X35345714Y-39552619D01*
X35393333Y-39647857D01*
X35393333Y-39790714D01*
X35345714Y-39885952D01*
X35298095Y-39933571D01*
X35202857Y-39981190D01*
X34821904Y-39981190D01*
X35774285Y-39552619D02*
X35821904Y-39505000D01*
X35917142Y-39457380D01*
X36155238Y-39457380D01*
X36250476Y-39505000D01*
X36298095Y-39552619D01*
X36345714Y-39647857D01*
X36345714Y-39743095D01*
X36298095Y-39885952D01*
X35726666Y-40457380D01*
X36345714Y-40457380D01*
X43013333Y-40457380D02*
X42680000Y-39981190D01*
X42441904Y-40457380D02*
X42441904Y-39457380D01*
X42822857Y-39457380D01*
X42918095Y-39505000D01*
X42965714Y-39552619D01*
X43013333Y-39647857D01*
X43013333Y-39790714D01*
X42965714Y-39885952D01*
X42918095Y-39933571D01*
X42822857Y-39981190D01*
X42441904Y-39981190D01*
X43346666Y-39457380D02*
X43965714Y-39457380D01*
X43632380Y-39838333D01*
X43775238Y-39838333D01*
X43870476Y-39885952D01*
X43918095Y-39933571D01*
X43965714Y-40028809D01*
X43965714Y-40266904D01*
X43918095Y-40362142D01*
X43870476Y-40409761D01*
X43775238Y-40457380D01*
X43489523Y-40457380D01*
X43394285Y-40409761D01*
X43346666Y-40362142D01*
X50633333Y-40457380D02*
X50300000Y-39981190D01*
X50061904Y-40457380D02*
X50061904Y-39457380D01*
X50442857Y-39457380D01*
X50538095Y-39505000D01*
X50585714Y-39552619D01*
X50633333Y-39647857D01*
X50633333Y-39790714D01*
X50585714Y-39885952D01*
X50538095Y-39933571D01*
X50442857Y-39981190D01*
X50061904Y-39981190D01*
X51490476Y-39790714D02*
X51490476Y-40457380D01*
X51252380Y-39409761D02*
X51014285Y-40124047D01*
X51633333Y-40124047D01*
X58253333Y-40457380D02*
X57920000Y-39981190D01*
X57681904Y-40457380D02*
X57681904Y-39457380D01*
X58062857Y-39457380D01*
X58158095Y-39505000D01*
X58205714Y-39552619D01*
X58253333Y-39647857D01*
X58253333Y-39790714D01*
X58205714Y-39885952D01*
X58158095Y-39933571D01*
X58062857Y-39981190D01*
X57681904Y-39981190D01*
X59158095Y-39457380D02*
X58681904Y-39457380D01*
X58634285Y-39933571D01*
X58681904Y-39885952D01*
X58777142Y-39838333D01*
X59015238Y-39838333D01*
X59110476Y-39885952D01*
X59158095Y-39933571D01*
X59205714Y-40028809D01*
X59205714Y-40266904D01*
X59158095Y-40362142D01*
X59110476Y-40409761D01*
X59015238Y-40457380D01*
X58777142Y-40457380D01*
X58681904Y-40409761D01*
X58634285Y-40362142D01*
X65873333Y-40457380D02*
X65540000Y-39981190D01*
X65301904Y-40457380D02*
X65301904Y-39457380D01*
X65682857Y-39457380D01*
X65778095Y-39505000D01*
X65825714Y-39552619D01*
X65873333Y-39647857D01*
X65873333Y-39790714D01*
X65825714Y-39885952D01*
X65778095Y-39933571D01*
X65682857Y-39981190D01*
X65301904Y-39981190D01*
X66730476Y-39457380D02*
X66540000Y-39457380D01*
X66444761Y-39505000D01*
X66397142Y-39552619D01*
X66301904Y-39695476D01*
X66254285Y-39885952D01*
X66254285Y-40266904D01*
X66301904Y-40362142D01*
X66349523Y-40409761D01*
X66444761Y-40457380D01*
X66635238Y-40457380D01*
X66730476Y-40409761D01*
X66778095Y-40362142D01*
X66825714Y-40266904D01*
X66825714Y-40028809D01*
X66778095Y-39933571D01*
X66730476Y-39885952D01*
X66635238Y-39838333D01*
X66444761Y-39838333D01*
X66349523Y-39885952D01*
X66301904Y-39933571D01*
X66254285Y-40028809D01*
X73493333Y-40457380D02*
X73160000Y-39981190D01*
X72921904Y-40457380D02*
X72921904Y-39457380D01*
X73302857Y-39457380D01*
X73398095Y-39505000D01*
X73445714Y-39552619D01*
X73493333Y-39647857D01*
X73493333Y-39790714D01*
X73445714Y-39885952D01*
X73398095Y-39933571D01*
X73302857Y-39981190D01*
X72921904Y-39981190D01*
X73826666Y-39457380D02*
X74493333Y-39457380D01*
X74064761Y-40457380D01*
X81113333Y-40457380D02*
X80780000Y-39981190D01*
X80541904Y-40457380D02*
X80541904Y-39457380D01*
X80922857Y-39457380D01*
X81018095Y-39505000D01*
X81065714Y-39552619D01*
X81113333Y-39647857D01*
X81113333Y-39790714D01*
X81065714Y-39885952D01*
X81018095Y-39933571D01*
X80922857Y-39981190D01*
X80541904Y-39981190D01*
X81684761Y-39885952D02*
X81589523Y-39838333D01*
X81541904Y-39790714D01*
X81494285Y-39695476D01*
X81494285Y-39647857D01*
X81541904Y-39552619D01*
X81589523Y-39505000D01*
X81684761Y-39457380D01*
X81875238Y-39457380D01*
X81970476Y-39505000D01*
X82018095Y-39552619D01*
X82065714Y-39647857D01*
X82065714Y-39695476D01*
X82018095Y-39790714D01*
X81970476Y-39838333D01*
X81875238Y-39885952D01*
X81684761Y-39885952D01*
X81589523Y-39933571D01*
X81541904Y-39981190D01*
X81494285Y-40076428D01*
X81494285Y-40266904D01*
X81541904Y-40362142D01*
X81589523Y-40409761D01*
X81684761Y-40457380D01*
X81875238Y-40457380D01*
X81970476Y-40409761D01*
X82018095Y-40362142D01*
X82065714Y-40266904D01*
X82065714Y-40076428D01*
X82018095Y-39981190D01*
X81970476Y-39933571D01*
X81875238Y-39885952D01*
D11*
X17254642Y-62601928D02*
X17284880Y-62511214D01*
X17315119Y-62480976D01*
X17375595Y-62450738D01*
X17466309Y-62450738D01*
X17526785Y-62480976D01*
X17557023Y-62511214D01*
X17587261Y-62571690D01*
X17587261Y-62813595D01*
X16952261Y-62813595D01*
X16952261Y-62601928D01*
X16982500Y-62541452D01*
X17012738Y-62511214D01*
X17073214Y-62480976D01*
X17133690Y-62480976D01*
X17194166Y-62511214D01*
X17224404Y-62541452D01*
X17254642Y-62601928D01*
X17254642Y-62813595D01*
X16952261Y-62178595D02*
X17466309Y-62178595D01*
X17526785Y-62148357D01*
X17557023Y-62118119D01*
X17587261Y-62057642D01*
X17587261Y-61936690D01*
X17557023Y-61876214D01*
X17526785Y-61845976D01*
X17466309Y-61815738D01*
X16952261Y-61815738D01*
X17557023Y-61543595D02*
X17587261Y-61452880D01*
X17587261Y-61301690D01*
X17557023Y-61241214D01*
X17526785Y-61210976D01*
X17466309Y-61180738D01*
X17405833Y-61180738D01*
X17345357Y-61210976D01*
X17315119Y-61241214D01*
X17284880Y-61301690D01*
X17254642Y-61422642D01*
X17224404Y-61483119D01*
X17194166Y-61513357D01*
X17133690Y-61543595D01*
X17073214Y-61543595D01*
X17012738Y-61513357D01*
X16982500Y-61483119D01*
X16952261Y-61422642D01*
X16952261Y-61271452D01*
X16982500Y-61180738D01*
X17647738Y-61059785D02*
X17647738Y-60575976D01*
X16952261Y-60485261D02*
X16952261Y-60061928D01*
X17587261Y-60334071D01*
X17254642Y-59553928D02*
X17284880Y-59463214D01*
X17315119Y-59432976D01*
X17375595Y-59402738D01*
X17466309Y-59402738D01*
X17526785Y-59432976D01*
X17557023Y-59463214D01*
X17587261Y-59523690D01*
X17587261Y-59765595D01*
X16952261Y-59765595D01*
X16952261Y-59553928D01*
X16982500Y-59493452D01*
X17012738Y-59463214D01*
X17073214Y-59432976D01*
X17133690Y-59432976D01*
X17194166Y-59463214D01*
X17224404Y-59493452D01*
X17254642Y-59553928D01*
X17254642Y-59765595D01*
X16952261Y-59130595D02*
X17466309Y-59130595D01*
X17526785Y-59100357D01*
X17557023Y-59070119D01*
X17587261Y-59009642D01*
X17587261Y-58888690D01*
X17557023Y-58828214D01*
X17526785Y-58797976D01*
X17466309Y-58767738D01*
X16952261Y-58767738D01*
X17557023Y-58495595D02*
X17587261Y-58404880D01*
X17587261Y-58253690D01*
X17557023Y-58193214D01*
X17526785Y-58162976D01*
X17466309Y-58132738D01*
X17405833Y-58132738D01*
X17345357Y-58162976D01*
X17315119Y-58193214D01*
X17284880Y-58253690D01*
X17254642Y-58374642D01*
X17224404Y-58435119D01*
X17194166Y-58465357D01*
X17133690Y-58495595D01*
X17073214Y-58495595D01*
X17012738Y-58465357D01*
X16982500Y-58435119D01*
X16952261Y-58374642D01*
X16952261Y-58223452D01*
X16982500Y-58132738D01*
X17647738Y-58011785D02*
X17647738Y-57527976D01*
X16952261Y-57104642D02*
X16952261Y-57225595D01*
X16982500Y-57286071D01*
X17012738Y-57316309D01*
X17103452Y-57376785D01*
X17224404Y-57407023D01*
X17466309Y-57407023D01*
X17526785Y-57376785D01*
X17557023Y-57346547D01*
X17587261Y-57286071D01*
X17587261Y-57165119D01*
X17557023Y-57104642D01*
X17526785Y-57074404D01*
X17466309Y-57044166D01*
X17315119Y-57044166D01*
X17254642Y-57074404D01*
X17224404Y-57104642D01*
X17194166Y-57165119D01*
X17194166Y-57286071D01*
X17224404Y-57346547D01*
X17254642Y-57376785D01*
X17315119Y-57407023D01*
X17254642Y-56505928D02*
X17284880Y-56415214D01*
X17315119Y-56384976D01*
X17375595Y-56354738D01*
X17466309Y-56354738D01*
X17526785Y-56384976D01*
X17557023Y-56415214D01*
X17587261Y-56475690D01*
X17587261Y-56717595D01*
X16952261Y-56717595D01*
X16952261Y-56505928D01*
X16982500Y-56445452D01*
X17012738Y-56415214D01*
X17073214Y-56384976D01*
X17133690Y-56384976D01*
X17194166Y-56415214D01*
X17224404Y-56445452D01*
X17254642Y-56505928D01*
X17254642Y-56717595D01*
X16952261Y-56082595D02*
X17466309Y-56082595D01*
X17526785Y-56052357D01*
X17557023Y-56022119D01*
X17587261Y-55961642D01*
X17587261Y-55840690D01*
X17557023Y-55780214D01*
X17526785Y-55749976D01*
X17466309Y-55719738D01*
X16952261Y-55719738D01*
X17557023Y-55447595D02*
X17587261Y-55356880D01*
X17587261Y-55205690D01*
X17557023Y-55145214D01*
X17526785Y-55114976D01*
X17466309Y-55084738D01*
X17405833Y-55084738D01*
X17345357Y-55114976D01*
X17315119Y-55145214D01*
X17284880Y-55205690D01*
X17254642Y-55326642D01*
X17224404Y-55387119D01*
X17194166Y-55417357D01*
X17133690Y-55447595D01*
X17073214Y-55447595D01*
X17012738Y-55417357D01*
X16982500Y-55387119D01*
X16952261Y-55326642D01*
X16952261Y-55175452D01*
X16982500Y-55084738D01*
X17647738Y-54963785D02*
X17647738Y-54479976D01*
X16952261Y-54026404D02*
X16952261Y-54328785D01*
X17254642Y-54359023D01*
X17224404Y-54328785D01*
X17194166Y-54268309D01*
X17194166Y-54117119D01*
X17224404Y-54056642D01*
X17254642Y-54026404D01*
X17315119Y-53996166D01*
X17466309Y-53996166D01*
X17526785Y-54026404D01*
X17557023Y-54056642D01*
X17587261Y-54117119D01*
X17587261Y-54268309D01*
X17557023Y-54328785D01*
X17526785Y-54359023D01*
X17254642Y-53457928D02*
X17284880Y-53367214D01*
X17315119Y-53336976D01*
X17375595Y-53306738D01*
X17466309Y-53306738D01*
X17526785Y-53336976D01*
X17557023Y-53367214D01*
X17587261Y-53427690D01*
X17587261Y-53669595D01*
X16952261Y-53669595D01*
X16952261Y-53457928D01*
X16982500Y-53397452D01*
X17012738Y-53367214D01*
X17073214Y-53336976D01*
X17133690Y-53336976D01*
X17194166Y-53367214D01*
X17224404Y-53397452D01*
X17254642Y-53457928D01*
X17254642Y-53669595D01*
X16952261Y-53034595D02*
X17466309Y-53034595D01*
X17526785Y-53004357D01*
X17557023Y-52974119D01*
X17587261Y-52913642D01*
X17587261Y-52792690D01*
X17557023Y-52732214D01*
X17526785Y-52701976D01*
X17466309Y-52671738D01*
X16952261Y-52671738D01*
X17557023Y-52399595D02*
X17587261Y-52308880D01*
X17587261Y-52157690D01*
X17557023Y-52097214D01*
X17526785Y-52066976D01*
X17466309Y-52036738D01*
X17405833Y-52036738D01*
X17345357Y-52066976D01*
X17315119Y-52097214D01*
X17284880Y-52157690D01*
X17254642Y-52278642D01*
X17224404Y-52339119D01*
X17194166Y-52369357D01*
X17133690Y-52399595D01*
X17073214Y-52399595D01*
X17012738Y-52369357D01*
X16982500Y-52339119D01*
X16952261Y-52278642D01*
X16952261Y-52127452D01*
X16982500Y-52036738D01*
X17647738Y-51915785D02*
X17647738Y-51431976D01*
X17163928Y-51008642D02*
X17587261Y-51008642D01*
X16922023Y-51159833D02*
X17375595Y-51311023D01*
X17375595Y-50917928D01*
X17254642Y-50409928D02*
X17284880Y-50319214D01*
X17315119Y-50288976D01*
X17375595Y-50258738D01*
X17466309Y-50258738D01*
X17526785Y-50288976D01*
X17557023Y-50319214D01*
X17587261Y-50379690D01*
X17587261Y-50621595D01*
X16952261Y-50621595D01*
X16952261Y-50409928D01*
X16982500Y-50349452D01*
X17012738Y-50319214D01*
X17073214Y-50288976D01*
X17133690Y-50288976D01*
X17194166Y-50319214D01*
X17224404Y-50349452D01*
X17254642Y-50409928D01*
X17254642Y-50621595D01*
X16952261Y-49986595D02*
X17466309Y-49986595D01*
X17526785Y-49956357D01*
X17557023Y-49926119D01*
X17587261Y-49865642D01*
X17587261Y-49744690D01*
X17557023Y-49684214D01*
X17526785Y-49653976D01*
X17466309Y-49623738D01*
X16952261Y-49623738D01*
X17557023Y-49351595D02*
X17587261Y-49260880D01*
X17587261Y-49109690D01*
X17557023Y-49049214D01*
X17526785Y-49018976D01*
X17466309Y-48988738D01*
X17405833Y-48988738D01*
X17345357Y-49018976D01*
X17315119Y-49049214D01*
X17284880Y-49109690D01*
X17254642Y-49230642D01*
X17224404Y-49291119D01*
X17194166Y-49321357D01*
X17133690Y-49351595D01*
X17073214Y-49351595D01*
X17012738Y-49321357D01*
X16982500Y-49291119D01*
X16952261Y-49230642D01*
X16952261Y-49079452D01*
X16982500Y-48988738D01*
X17647738Y-48867785D02*
X17647738Y-48383976D01*
X16952261Y-48293261D02*
X16952261Y-47900166D01*
X17194166Y-48111833D01*
X17194166Y-48021119D01*
X17224404Y-47960642D01*
X17254642Y-47930404D01*
X17315119Y-47900166D01*
X17466309Y-47900166D01*
X17526785Y-47930404D01*
X17557023Y-47960642D01*
X17587261Y-48021119D01*
X17587261Y-48202547D01*
X17557023Y-48263023D01*
X17526785Y-48293261D01*
X17254642Y-47361928D02*
X17284880Y-47271214D01*
X17315119Y-47240976D01*
X17375595Y-47210738D01*
X17466309Y-47210738D01*
X17526785Y-47240976D01*
X17557023Y-47271214D01*
X17587261Y-47331690D01*
X17587261Y-47573595D01*
X16952261Y-47573595D01*
X16952261Y-47361928D01*
X16982500Y-47301452D01*
X17012738Y-47271214D01*
X17073214Y-47240976D01*
X17133690Y-47240976D01*
X17194166Y-47271214D01*
X17224404Y-47301452D01*
X17254642Y-47361928D01*
X17254642Y-47573595D01*
X16952261Y-46938595D02*
X17466309Y-46938595D01*
X17526785Y-46908357D01*
X17557023Y-46878119D01*
X17587261Y-46817642D01*
X17587261Y-46696690D01*
X17557023Y-46636214D01*
X17526785Y-46605976D01*
X17466309Y-46575738D01*
X16952261Y-46575738D01*
X17557023Y-46303595D02*
X17587261Y-46212880D01*
X17587261Y-46061690D01*
X17557023Y-46001214D01*
X17526785Y-45970976D01*
X17466309Y-45940738D01*
X17405833Y-45940738D01*
X17345357Y-45970976D01*
X17315119Y-46001214D01*
X17284880Y-46061690D01*
X17254642Y-46182642D01*
X17224404Y-46243119D01*
X17194166Y-46273357D01*
X17133690Y-46303595D01*
X17073214Y-46303595D01*
X17012738Y-46273357D01*
X16982500Y-46243119D01*
X16952261Y-46182642D01*
X16952261Y-46031452D01*
X16982500Y-45940738D01*
X17647738Y-45819785D02*
X17647738Y-45335976D01*
X17012738Y-45215023D02*
X16982500Y-45184785D01*
X16952261Y-45124309D01*
X16952261Y-44973119D01*
X16982500Y-44912642D01*
X17012738Y-44882404D01*
X17073214Y-44852166D01*
X17133690Y-44852166D01*
X17224404Y-44882404D01*
X17587261Y-45245261D01*
X17587261Y-44852166D01*
X17254642Y-44313928D02*
X17284880Y-44223214D01*
X17315119Y-44192976D01*
X17375595Y-44162738D01*
X17466309Y-44162738D01*
X17526785Y-44192976D01*
X17557023Y-44223214D01*
X17587261Y-44283690D01*
X17587261Y-44525595D01*
X16952261Y-44525595D01*
X16952261Y-44313928D01*
X16982500Y-44253452D01*
X17012738Y-44223214D01*
X17073214Y-44192976D01*
X17133690Y-44192976D01*
X17194166Y-44223214D01*
X17224404Y-44253452D01*
X17254642Y-44313928D01*
X17254642Y-44525595D01*
X16952261Y-43890595D02*
X17466309Y-43890595D01*
X17526785Y-43860357D01*
X17557023Y-43830119D01*
X17587261Y-43769642D01*
X17587261Y-43648690D01*
X17557023Y-43588214D01*
X17526785Y-43557976D01*
X17466309Y-43527738D01*
X16952261Y-43527738D01*
X17557023Y-43255595D02*
X17587261Y-43164880D01*
X17587261Y-43013690D01*
X17557023Y-42953214D01*
X17526785Y-42922976D01*
X17466309Y-42892738D01*
X17405833Y-42892738D01*
X17345357Y-42922976D01*
X17315119Y-42953214D01*
X17284880Y-43013690D01*
X17254642Y-43134642D01*
X17224404Y-43195119D01*
X17194166Y-43225357D01*
X17133690Y-43255595D01*
X17073214Y-43255595D01*
X17012738Y-43225357D01*
X16982500Y-43195119D01*
X16952261Y-43134642D01*
X16952261Y-42983452D01*
X16982500Y-42892738D01*
X17647738Y-42771785D02*
X17647738Y-42287976D01*
X17587261Y-41804166D02*
X17587261Y-42167023D01*
X17587261Y-41985595D02*
X16952261Y-41985595D01*
X17042976Y-42046071D01*
X17103452Y-42106547D01*
X17133690Y-42167023D01*
X17254642Y-41265928D02*
X17284880Y-41175214D01*
X17315119Y-41144976D01*
X17375595Y-41114738D01*
X17466309Y-41114738D01*
X17526785Y-41144976D01*
X17557023Y-41175214D01*
X17587261Y-41235690D01*
X17587261Y-41477595D01*
X16952261Y-41477595D01*
X16952261Y-41265928D01*
X16982500Y-41205452D01*
X17012738Y-41175214D01*
X17073214Y-41144976D01*
X17133690Y-41144976D01*
X17194166Y-41175214D01*
X17224404Y-41205452D01*
X17254642Y-41265928D01*
X17254642Y-41477595D01*
X16952261Y-40842595D02*
X17466309Y-40842595D01*
X17526785Y-40812357D01*
X17557023Y-40782119D01*
X17587261Y-40721642D01*
X17587261Y-40600690D01*
X17557023Y-40540214D01*
X17526785Y-40509976D01*
X17466309Y-40479738D01*
X16952261Y-40479738D01*
X17557023Y-40207595D02*
X17587261Y-40116880D01*
X17587261Y-39965690D01*
X17557023Y-39905214D01*
X17526785Y-39874976D01*
X17466309Y-39844738D01*
X17405833Y-39844738D01*
X17345357Y-39874976D01*
X17315119Y-39905214D01*
X17284880Y-39965690D01*
X17254642Y-40086642D01*
X17224404Y-40147119D01*
X17194166Y-40177357D01*
X17133690Y-40207595D01*
X17073214Y-40207595D01*
X17012738Y-40177357D01*
X16982500Y-40147119D01*
X16952261Y-40086642D01*
X16952261Y-39935452D01*
X16982500Y-39844738D01*
X17647738Y-39723785D02*
X17647738Y-39239976D01*
X16952261Y-38967833D02*
X16952261Y-38907357D01*
X16982500Y-38846880D01*
X17012738Y-38816642D01*
X17073214Y-38786404D01*
X17194166Y-38756166D01*
X17345357Y-38756166D01*
X17466309Y-38786404D01*
X17526785Y-38816642D01*
X17557023Y-38846880D01*
X17587261Y-38907357D01*
X17587261Y-38967833D01*
X17557023Y-39028309D01*
X17526785Y-39058547D01*
X17466309Y-39088785D01*
X17345357Y-39119023D01*
X17194166Y-39119023D01*
X17073214Y-39088785D01*
X17012738Y-39058547D01*
X16982500Y-39028309D01*
X16952261Y-38967833D01*
X92025833Y-54289476D02*
X92025833Y-53987095D01*
X92207261Y-54349952D02*
X91572261Y-54138285D01*
X92207261Y-53926619D01*
X92267738Y-53866142D02*
X92267738Y-53382333D01*
X91572261Y-53291619D02*
X91572261Y-52868285D01*
X92207261Y-53140428D01*
X92025833Y-57337476D02*
X92025833Y-57035095D01*
X92207261Y-57397952D02*
X91572261Y-57186285D01*
X92207261Y-56974619D01*
X92267738Y-56914142D02*
X92267738Y-56430333D01*
X91572261Y-56007000D02*
X91572261Y-56127952D01*
X91602500Y-56188428D01*
X91632738Y-56218666D01*
X91723452Y-56279142D01*
X91844404Y-56309380D01*
X92086309Y-56309380D01*
X92146785Y-56279142D01*
X92177023Y-56248904D01*
X92207261Y-56188428D01*
X92207261Y-56067476D01*
X92177023Y-56007000D01*
X92146785Y-55976761D01*
X92086309Y-55946523D01*
X91935119Y-55946523D01*
X91874642Y-55976761D01*
X91844404Y-56007000D01*
X91814166Y-56067476D01*
X91814166Y-56188428D01*
X91844404Y-56248904D01*
X91874642Y-56279142D01*
X91935119Y-56309380D01*
X92025833Y-60385476D02*
X92025833Y-60083095D01*
X92207261Y-60445952D02*
X91572261Y-60234285D01*
X92207261Y-60022619D01*
X92267738Y-59962142D02*
X92267738Y-59478333D01*
X91572261Y-59024761D02*
X91572261Y-59327142D01*
X91874642Y-59357380D01*
X91844404Y-59327142D01*
X91814166Y-59266666D01*
X91814166Y-59115476D01*
X91844404Y-59055000D01*
X91874642Y-59024761D01*
X91935119Y-58994523D01*
X92086309Y-58994523D01*
X92146785Y-59024761D01*
X92177023Y-59055000D01*
X92207261Y-59115476D01*
X92207261Y-59266666D01*
X92177023Y-59327142D01*
X92146785Y-59357380D01*
X92025833Y-63433476D02*
X92025833Y-63131095D01*
X92207261Y-63493952D02*
X91572261Y-63282285D01*
X92207261Y-63070619D01*
X92267738Y-63010142D02*
X92267738Y-62526333D01*
X91783928Y-62103000D02*
X92207261Y-62103000D01*
X91542023Y-62254190D02*
X91995595Y-62405380D01*
X91995595Y-62012285D01*
X92025833Y-66481476D02*
X92025833Y-66179095D01*
X92207261Y-66541952D02*
X91572261Y-66330285D01*
X92207261Y-66118619D01*
X92267738Y-66058142D02*
X92267738Y-65574333D01*
X91572261Y-65483619D02*
X91572261Y-65090523D01*
X91814166Y-65302190D01*
X91814166Y-65211476D01*
X91844404Y-65151000D01*
X91874642Y-65120761D01*
X91935119Y-65090523D01*
X92086309Y-65090523D01*
X92146785Y-65120761D01*
X92177023Y-65151000D01*
X92207261Y-65211476D01*
X92207261Y-65392904D01*
X92177023Y-65453380D01*
X92146785Y-65483619D01*
X92025833Y-69529476D02*
X92025833Y-69227095D01*
X92207261Y-69589952D02*
X91572261Y-69378285D01*
X92207261Y-69166619D01*
X92267738Y-69106142D02*
X92267738Y-68622333D01*
X91632738Y-68501380D02*
X91602500Y-68471142D01*
X91572261Y-68410666D01*
X91572261Y-68259476D01*
X91602500Y-68199000D01*
X91632738Y-68168761D01*
X91693214Y-68138523D01*
X91753690Y-68138523D01*
X91844404Y-68168761D01*
X92207261Y-68531619D01*
X92207261Y-68138523D01*
X92025833Y-72577476D02*
X92025833Y-72275095D01*
X92207261Y-72637952D02*
X91572261Y-72426285D01*
X92207261Y-72214619D01*
X92267738Y-72154142D02*
X92267738Y-71670333D01*
X92207261Y-71186523D02*
X92207261Y-71549380D01*
X92207261Y-71367952D02*
X91572261Y-71367952D01*
X91662976Y-71428428D01*
X91723452Y-71488904D01*
X91753690Y-71549380D01*
X92025833Y-75625476D02*
X92025833Y-75323095D01*
X92207261Y-75685952D02*
X91572261Y-75474285D01*
X92207261Y-75262619D01*
X92267738Y-75202142D02*
X92267738Y-74718333D01*
X91572261Y-74446190D02*
X91572261Y-74385714D01*
X91602500Y-74325238D01*
X91632738Y-74295000D01*
X91693214Y-74264761D01*
X91814166Y-74234523D01*
X91965357Y-74234523D01*
X92086309Y-74264761D01*
X92146785Y-74295000D01*
X92177023Y-74325238D01*
X92207261Y-74385714D01*
X92207261Y-74446190D01*
X92177023Y-74506666D01*
X92146785Y-74536904D01*
X92086309Y-74567142D01*
X91965357Y-74597380D01*
X91814166Y-74597380D01*
X91693214Y-74567142D01*
X91632738Y-74536904D01*
X91602500Y-74506666D01*
X91572261Y-74446190D01*
X91612720Y-48175333D02*
X91612720Y-47631047D01*
X92307833Y-48054380D02*
X92307833Y-47752000D01*
X92489261Y-48114857D02*
X91854261Y-47903190D01*
X92489261Y-47691523D01*
X91612720Y-47631047D02*
X91612720Y-47328666D01*
X92489261Y-47479857D02*
X91854261Y-47479857D01*
X92428785Y-45081976D02*
X92459023Y-45112214D01*
X92489261Y-45202928D01*
X92489261Y-45263404D01*
X92459023Y-45354119D01*
X92398547Y-45414595D01*
X92338071Y-45444833D01*
X92217119Y-45475071D01*
X92126404Y-45475071D01*
X92005452Y-45444833D01*
X91944976Y-45414595D01*
X91884500Y-45354119D01*
X91854261Y-45263404D01*
X91854261Y-45202928D01*
X91884500Y-45112214D01*
X91914738Y-45081976D01*
X92489261Y-44507452D02*
X92489261Y-44809833D01*
X91854261Y-44809833D01*
X92489261Y-44295785D02*
X91854261Y-44295785D01*
X92489261Y-43932928D02*
X92126404Y-44205071D01*
X91854261Y-43932928D02*
X92217119Y-44295785D01*
X92428785Y-42033976D02*
X92459023Y-42064214D01*
X92489261Y-42154928D01*
X92489261Y-42215404D01*
X92459023Y-42306119D01*
X92398547Y-42366595D01*
X92338071Y-42396833D01*
X92217119Y-42427071D01*
X92126404Y-42427071D01*
X92005452Y-42396833D01*
X91944976Y-42366595D01*
X91884500Y-42306119D01*
X91854261Y-42215404D01*
X91854261Y-42154928D01*
X91884500Y-42064214D01*
X91914738Y-42033976D01*
X92489261Y-41459452D02*
X92489261Y-41761833D01*
X91854261Y-41761833D01*
X92489261Y-40884928D02*
X92186880Y-41096595D01*
X92489261Y-41247785D02*
X91854261Y-41247785D01*
X91854261Y-41005880D01*
X91884500Y-40945404D01*
X91914738Y-40915166D01*
X91975214Y-40884928D01*
X92065928Y-40884928D01*
X92126404Y-40915166D01*
X92156642Y-40945404D01*
X92186880Y-41005880D01*
X92186880Y-41247785D01*
X91612720Y-39212761D02*
X91612720Y-38668476D01*
X92307833Y-39091809D02*
X92307833Y-38789428D01*
X92489261Y-39152285D02*
X91854261Y-38940619D01*
X92489261Y-38728952D01*
X91612720Y-38668476D02*
X91612720Y-38003238D01*
X91854261Y-38396333D02*
X91854261Y-38275380D01*
X91884500Y-38214904D01*
X91944976Y-38154428D01*
X92065928Y-38124190D01*
X92277595Y-38124190D01*
X92398547Y-38154428D01*
X92459023Y-38214904D01*
X92489261Y-38275380D01*
X92489261Y-38396333D01*
X92459023Y-38456809D01*
X92398547Y-38517285D01*
X92277595Y-38547523D01*
X92065928Y-38547523D01*
X91944976Y-38517285D01*
X91884500Y-38456809D01*
X91854261Y-38396333D01*
X17345357Y-68634428D02*
X17345357Y-68150619D01*
X17587261Y-68392523D02*
X17103452Y-68392523D01*
X16952261Y-67545857D02*
X16952261Y-67848238D01*
X17254642Y-67878476D01*
X17224404Y-67848238D01*
X17194166Y-67787761D01*
X17194166Y-67636571D01*
X17224404Y-67576095D01*
X17254642Y-67545857D01*
X17315119Y-67515619D01*
X17466309Y-67515619D01*
X17526785Y-67545857D01*
X17557023Y-67576095D01*
X17587261Y-67636571D01*
X17587261Y-67787761D01*
X17557023Y-67848238D01*
X17526785Y-67878476D01*
X16952261Y-67334190D02*
X17587261Y-67122523D01*
X16952261Y-66910857D01*
X16982500Y-71349809D02*
X16952261Y-71410285D01*
X16952261Y-71501000D01*
X16982500Y-71591714D01*
X17042976Y-71652190D01*
X17103452Y-71682428D01*
X17224404Y-71712666D01*
X17315119Y-71712666D01*
X17436071Y-71682428D01*
X17496547Y-71652190D01*
X17557023Y-71591714D01*
X17587261Y-71501000D01*
X17587261Y-71440523D01*
X17557023Y-71349809D01*
X17526785Y-71319571D01*
X17315119Y-71319571D01*
X17315119Y-71440523D01*
X17587261Y-71047428D02*
X16952261Y-71047428D01*
X17587261Y-70684571D01*
X16952261Y-70684571D01*
X17587261Y-70382190D02*
X16952261Y-70382190D01*
X16952261Y-70231000D01*
X16982500Y-70140285D01*
X17042976Y-70079809D01*
X17103452Y-70049571D01*
X17224404Y-70019333D01*
X17315119Y-70019333D01*
X17436071Y-70049571D01*
X17496547Y-70079809D01*
X17557023Y-70140285D01*
X17587261Y-70231000D01*
X17587261Y-70382190D01*
D14*
X22522380Y-65531904D02*
X23331904Y-65531904D01*
X23427142Y-65484285D01*
X23474761Y-65436666D01*
X23522380Y-65341428D01*
X23522380Y-65150952D01*
X23474761Y-65055714D01*
X23427142Y-65008095D01*
X23331904Y-64960476D01*
X22522380Y-64960476D01*
X23522380Y-63960476D02*
X23522380Y-64531904D01*
X23522380Y-64246190D02*
X22522380Y-64246190D01*
X22665238Y-64341428D01*
X22760476Y-64436666D01*
X22808095Y-64531904D01*
X53002380Y-65531904D02*
X53811904Y-65531904D01*
X53907142Y-65484285D01*
X53954761Y-65436666D01*
X54002380Y-65341428D01*
X54002380Y-65150952D01*
X53954761Y-65055714D01*
X53907142Y-65008095D01*
X53811904Y-64960476D01*
X53002380Y-64960476D01*
X53097619Y-64531904D02*
X53050000Y-64484285D01*
X53002380Y-64389047D01*
X53002380Y-64150952D01*
X53050000Y-64055714D01*
X53097619Y-64008095D01*
X53192857Y-63960476D01*
X53288095Y-63960476D01*
X53430952Y-64008095D01*
X54002380Y-64579523D01*
X54002380Y-63960476D01*
M02*
