M48
; DRILL file {KiCad (5.1.2-1)-1} date Sunday, 25 August 2019 at 08:30:55 pm
; FORMAT={-:-/ absolute / inch / decimal}
; #@! TF.CreationDate,2019-08-25T20:30:55+10:00
; #@! TF.GenerationSoftware,Kicad,Pcbnew,(5.1.2-1)-1
; #@! TF.FileFunction,Plated,1,2,PTH
FMAT,2
INCH
T1C0.0157
T2C0.0276
T3C0.0295
T4C0.0315
T5C0.0354
T6C0.1098
%
G90
G05
T1
X0.67Y-1.82
X0.67Y-1.94
X0.78Y-2.6
X0.8497Y-2.3597
X0.96Y-1.76
X1.06Y-1.79
X1.0948Y-1.7252
X1.36Y-2.94
X1.44Y-2.94
X1.46Y-3.01
X1.49Y-2.98
X1.5272Y-1.9843
X1.5843Y-1.9094
X1.6315Y-2.2985
X1.6624Y-1.9876
X1.7Y-2.31
X1.7523Y-2.2077
X1.7523Y-2.3077
X1.78Y-1.9843
X1.8194Y-1.9843
X1.8587Y-1.9843
X1.8898Y-2.1002
X1.89Y-1.77
X1.89Y-1.82
X1.92Y-2.15
X1.97Y-2.14
X2.01Y-2.71
X2.04Y-2.24
X2.0428Y-2.6882
X2.0735Y-2.7128
X2.08Y-2.2077
X2.0848Y-2.2648
X2.11Y-2.45
X2.3715Y-2.31
X2.43Y-2.32
X2.51Y-1.6
X2.55Y-1.65
X2.7Y-2.8
X2.798Y-2.6423
X2.95Y-2.526
X2.9948Y-3.0552
X3.22Y-2.02
X3.2648Y-3.09
X3.2785Y-1.58
X3.3071Y-1.89
X3.3348Y-3.0748
X3.36Y-3.25
X3.45Y-1.68
X3.4526Y-2.4974
X3.46Y-2.83
X3.475Y-2.975
T2
X1.0Y-1.5
X1.2Y-1.5
X2.5Y-1.5
X2.7Y-1.5
X1.3Y-1.5
X1.5Y-1.5
X2.8Y-1.5
X3.0Y-1.5
X1.6Y-1.5
X1.8Y-1.5
X3.1Y-1.5
X3.3Y-1.5
X1.9Y-1.5
X2.1Y-1.5
X2.2Y-1.5
X2.4Y-1.5
T3
X1.85Y-3.15
X1.9287Y-3.15
X2.0075Y-3.15
X2.0862Y-3.15
X2.165Y-3.15
X2.2437Y-3.15
X2.3224Y-3.15
X2.4012Y-3.15
X2.65Y-3.15
X2.7287Y-3.15
X1.05Y-3.15
X1.1287Y-3.15
X1.2075Y-3.15
X1.2862Y-3.15
X1.365Y-3.15
X1.4437Y-3.15
X1.5224Y-3.15
X1.6012Y-3.15
X3.0Y-3.15
X3.0787Y-3.15
X3.1575Y-3.15
X3.2362Y-3.15
T4
X1.0Y-1.85
X1.0Y-2.15
X1.1Y-1.85
X1.1Y-2.15
X1.2Y-1.85
X1.2Y-2.15
X1.3Y-1.85
X1.3Y-2.15
X1.4Y-1.85
X1.4Y-2.15
X1.5Y-1.85
X1.5Y-2.15
X1.6Y-1.85
X1.6Y-2.15
X1.7Y-1.85
X1.7Y-2.15
X1.0Y-2.4
X1.0Y-2.7
X1.1Y-2.4
X1.1Y-2.7
X1.2Y-2.4
X1.2Y-2.7
X1.3Y-2.4
X1.3Y-2.7
X1.4Y-2.4
X1.4Y-2.7
X1.5Y-2.4
X1.5Y-2.7
X1.6Y-2.4
X1.6Y-2.7
X1.7Y-2.4
X1.7Y-2.7
X1.8Y-2.4
X1.8Y-2.7
X1.9Y-2.4
X1.9Y-2.7
X1.95Y-2.0
X2.0484Y-2.0
X2.2Y-2.4
X2.2Y-2.7
X2.3Y-2.4
X2.3Y-2.7
X2.4Y-2.4
X2.4Y-2.7
X2.5Y-2.4
X2.5Y-2.7
X2.6Y-2.4
X2.6Y-2.7
X2.7Y-2.4
X2.7Y-2.7
X2.8Y-2.4
X2.8Y-2.7
X2.9Y-2.4
X2.9Y-2.7
T5
X1.95Y-1.3
X2.05Y-1.3
X1.65Y-1.3
X1.75Y-1.3
X1.05Y-1.3
X1.15Y-1.3
X2.85Y-1.3
X2.95Y-1.3
X2.55Y-1.3
X2.65Y-1.3
X1.35Y-1.3
X1.45Y-1.3
X3.15Y-1.3
X3.25Y-1.3
X2.25Y-1.3
X2.35Y-1.3
T6
X3.5Y-1.3
X0.8Y-1.3
X3.5Y-3.2
X0.8Y-3.2
T0
M30
