G04 #@! TF.GenerationSoftware,KiCad,Pcbnew,(5.1.2-1)-1*
G04 #@! TF.CreationDate,2019-08-25T20:30:57+10:00*
G04 #@! TF.ProjectId,register-b,72656769-7374-4657-922d-622e6b696361,rev?*
G04 #@! TF.SameCoordinates,Original*
G04 #@! TF.FileFunction,Soldermask,Top*
G04 #@! TF.FilePolarity,Negative*
%FSLAX46Y46*%
G04 Gerber Fmt 4.6, Leading zero omitted, Abs format (unit mm)*
G04 Created by KiCad (PCBNEW (5.1.2-1)-1) date 2019-08-25 20:30:57*
%MOMM*%
%LPD*%
G04 APERTURE LIST*
%ADD10O,1.600000X1.600000*%
%ADD11R,1.600000X1.600000*%
%ADD12C,3.790000*%
%ADD13O,1.200000X1.750000*%
%ADD14C,0.100000*%
%ADD15C,1.200000*%
%ADD16C,1.600000*%
%ADD17C,1.800000*%
%ADD18R,1.800000X1.800000*%
%ADD19O,1.400000X1.400000*%
%ADD20C,1.400000*%
%ADD21R,1.500000X1.500000*%
G04 APERTURE END LIST*
D10*
X25400000Y-46990000D03*
X43180000Y-54610000D03*
X27940000Y-46990000D03*
X40640000Y-54610000D03*
X30480000Y-46990000D03*
X38100000Y-54610000D03*
X33020000Y-46990000D03*
X35560000Y-54610000D03*
X35560000Y-46990000D03*
X33020000Y-54610000D03*
X38100000Y-46990000D03*
X30480000Y-54610000D03*
X40640000Y-46990000D03*
X27940000Y-54610000D03*
X43180000Y-46990000D03*
D11*
X25400000Y-54610000D03*
D12*
X88900000Y-81280000D03*
X20320000Y-81280000D03*
X88900000Y-33020000D03*
X20320000Y-33020000D03*
D13*
X60990000Y-80010000D03*
X58990000Y-80010000D03*
X56990000Y-80010000D03*
X54990000Y-80010000D03*
X52990000Y-80010000D03*
X50990000Y-80010000D03*
X48990000Y-80010000D03*
D14*
G36*
X47364505Y-79136204D02*
G01*
X47388773Y-79139804D01*
X47412572Y-79145765D01*
X47435671Y-79154030D01*
X47457850Y-79164520D01*
X47478893Y-79177132D01*
X47498599Y-79191747D01*
X47516777Y-79208223D01*
X47533253Y-79226401D01*
X47547868Y-79246107D01*
X47560480Y-79267150D01*
X47570970Y-79289329D01*
X47579235Y-79312428D01*
X47585196Y-79336227D01*
X47588796Y-79360495D01*
X47590000Y-79384999D01*
X47590000Y-80635001D01*
X47588796Y-80659505D01*
X47585196Y-80683773D01*
X47579235Y-80707572D01*
X47570970Y-80730671D01*
X47560480Y-80752850D01*
X47547868Y-80773893D01*
X47533253Y-80793599D01*
X47516777Y-80811777D01*
X47498599Y-80828253D01*
X47478893Y-80842868D01*
X47457850Y-80855480D01*
X47435671Y-80865970D01*
X47412572Y-80874235D01*
X47388773Y-80880196D01*
X47364505Y-80883796D01*
X47340001Y-80885000D01*
X46639999Y-80885000D01*
X46615495Y-80883796D01*
X46591227Y-80880196D01*
X46567428Y-80874235D01*
X46544329Y-80865970D01*
X46522150Y-80855480D01*
X46501107Y-80842868D01*
X46481401Y-80828253D01*
X46463223Y-80811777D01*
X46446747Y-80793599D01*
X46432132Y-80773893D01*
X46419520Y-80752850D01*
X46409030Y-80730671D01*
X46400765Y-80707572D01*
X46394804Y-80683773D01*
X46391204Y-80659505D01*
X46390000Y-80635001D01*
X46390000Y-79384999D01*
X46391204Y-79360495D01*
X46394804Y-79336227D01*
X46400765Y-79312428D01*
X46409030Y-79289329D01*
X46419520Y-79267150D01*
X46432132Y-79246107D01*
X46446747Y-79226401D01*
X46463223Y-79208223D01*
X46481401Y-79191747D01*
X46501107Y-79177132D01*
X46522150Y-79164520D01*
X46544329Y-79154030D01*
X46567428Y-79145765D01*
X46591227Y-79139804D01*
X46615495Y-79136204D01*
X46639999Y-79135000D01*
X47340001Y-79135000D01*
X47364505Y-79136204D01*
X47364505Y-79136204D01*
G37*
D15*
X46990000Y-80010000D03*
D16*
X49530000Y-50800000D03*
X52030000Y-50800000D03*
D17*
X29210000Y-33020000D03*
D18*
X26670000Y-33020000D03*
X34290000Y-33020000D03*
D17*
X36830000Y-33020000D03*
X44450000Y-33020000D03*
D18*
X41910000Y-33020000D03*
X49530000Y-33020000D03*
D17*
X52070000Y-33020000D03*
X59690000Y-33020000D03*
D18*
X57150000Y-33020000D03*
X64770000Y-33020000D03*
D17*
X67310000Y-33020000D03*
X74930000Y-33020000D03*
D18*
X72390000Y-33020000D03*
X80010000Y-33020000D03*
D17*
X82550000Y-33020000D03*
D14*
G36*
X27044505Y-79136204D02*
G01*
X27068773Y-79139804D01*
X27092572Y-79145765D01*
X27115671Y-79154030D01*
X27137850Y-79164520D01*
X27158893Y-79177132D01*
X27178599Y-79191747D01*
X27196777Y-79208223D01*
X27213253Y-79226401D01*
X27227868Y-79246107D01*
X27240480Y-79267150D01*
X27250970Y-79289329D01*
X27259235Y-79312428D01*
X27265196Y-79336227D01*
X27268796Y-79360495D01*
X27270000Y-79384999D01*
X27270000Y-80635001D01*
X27268796Y-80659505D01*
X27265196Y-80683773D01*
X27259235Y-80707572D01*
X27250970Y-80730671D01*
X27240480Y-80752850D01*
X27227868Y-80773893D01*
X27213253Y-80793599D01*
X27196777Y-80811777D01*
X27178599Y-80828253D01*
X27158893Y-80842868D01*
X27137850Y-80855480D01*
X27115671Y-80865970D01*
X27092572Y-80874235D01*
X27068773Y-80880196D01*
X27044505Y-80883796D01*
X27020001Y-80885000D01*
X26319999Y-80885000D01*
X26295495Y-80883796D01*
X26271227Y-80880196D01*
X26247428Y-80874235D01*
X26224329Y-80865970D01*
X26202150Y-80855480D01*
X26181107Y-80842868D01*
X26161401Y-80828253D01*
X26143223Y-80811777D01*
X26126747Y-80793599D01*
X26112132Y-80773893D01*
X26099520Y-80752850D01*
X26089030Y-80730671D01*
X26080765Y-80707572D01*
X26074804Y-80683773D01*
X26071204Y-80659505D01*
X26070000Y-80635001D01*
X26070000Y-79384999D01*
X26071204Y-79360495D01*
X26074804Y-79336227D01*
X26080765Y-79312428D01*
X26089030Y-79289329D01*
X26099520Y-79267150D01*
X26112132Y-79246107D01*
X26126747Y-79226401D01*
X26143223Y-79208223D01*
X26161401Y-79191747D01*
X26181107Y-79177132D01*
X26202150Y-79164520D01*
X26224329Y-79154030D01*
X26247428Y-79145765D01*
X26271227Y-79139804D01*
X26295495Y-79136204D01*
X26319999Y-79135000D01*
X27020001Y-79135000D01*
X27044505Y-79136204D01*
X27044505Y-79136204D01*
G37*
D15*
X26670000Y-80010000D03*
D13*
X28670000Y-80010000D03*
X30670000Y-80010000D03*
X32670000Y-80010000D03*
X34670000Y-80010000D03*
X36670000Y-80010000D03*
X38670000Y-80010000D03*
X40670000Y-80010000D03*
D14*
G36*
X76574505Y-79136204D02*
G01*
X76598773Y-79139804D01*
X76622572Y-79145765D01*
X76645671Y-79154030D01*
X76667850Y-79164520D01*
X76688893Y-79177132D01*
X76708599Y-79191747D01*
X76726777Y-79208223D01*
X76743253Y-79226401D01*
X76757868Y-79246107D01*
X76770480Y-79267150D01*
X76780970Y-79289329D01*
X76789235Y-79312428D01*
X76795196Y-79336227D01*
X76798796Y-79360495D01*
X76800000Y-79384999D01*
X76800000Y-80635001D01*
X76798796Y-80659505D01*
X76795196Y-80683773D01*
X76789235Y-80707572D01*
X76780970Y-80730671D01*
X76770480Y-80752850D01*
X76757868Y-80773893D01*
X76743253Y-80793599D01*
X76726777Y-80811777D01*
X76708599Y-80828253D01*
X76688893Y-80842868D01*
X76667850Y-80855480D01*
X76645671Y-80865970D01*
X76622572Y-80874235D01*
X76598773Y-80880196D01*
X76574505Y-80883796D01*
X76550001Y-80885000D01*
X75849999Y-80885000D01*
X75825495Y-80883796D01*
X75801227Y-80880196D01*
X75777428Y-80874235D01*
X75754329Y-80865970D01*
X75732150Y-80855480D01*
X75711107Y-80842868D01*
X75691401Y-80828253D01*
X75673223Y-80811777D01*
X75656747Y-80793599D01*
X75642132Y-80773893D01*
X75629520Y-80752850D01*
X75619030Y-80730671D01*
X75610765Y-80707572D01*
X75604804Y-80683773D01*
X75601204Y-80659505D01*
X75600000Y-80635001D01*
X75600000Y-79384999D01*
X75601204Y-79360495D01*
X75604804Y-79336227D01*
X75610765Y-79312428D01*
X75619030Y-79289329D01*
X75629520Y-79267150D01*
X75642132Y-79246107D01*
X75656747Y-79226401D01*
X75673223Y-79208223D01*
X75691401Y-79191747D01*
X75711107Y-79177132D01*
X75732150Y-79164520D01*
X75754329Y-79154030D01*
X75777428Y-79145765D01*
X75801227Y-79139804D01*
X75825495Y-79136204D01*
X75849999Y-79135000D01*
X76550001Y-79135000D01*
X76574505Y-79136204D01*
X76574505Y-79136204D01*
G37*
D15*
X76200000Y-80010000D03*
D13*
X78200000Y-80010000D03*
X80200000Y-80010000D03*
X82200000Y-80010000D03*
D14*
G36*
X67684505Y-79136204D02*
G01*
X67708773Y-79139804D01*
X67732572Y-79145765D01*
X67755671Y-79154030D01*
X67777850Y-79164520D01*
X67798893Y-79177132D01*
X67818599Y-79191747D01*
X67836777Y-79208223D01*
X67853253Y-79226401D01*
X67867868Y-79246107D01*
X67880480Y-79267150D01*
X67890970Y-79289329D01*
X67899235Y-79312428D01*
X67905196Y-79336227D01*
X67908796Y-79360495D01*
X67910000Y-79384999D01*
X67910000Y-80635001D01*
X67908796Y-80659505D01*
X67905196Y-80683773D01*
X67899235Y-80707572D01*
X67890970Y-80730671D01*
X67880480Y-80752850D01*
X67867868Y-80773893D01*
X67853253Y-80793599D01*
X67836777Y-80811777D01*
X67818599Y-80828253D01*
X67798893Y-80842868D01*
X67777850Y-80855480D01*
X67755671Y-80865970D01*
X67732572Y-80874235D01*
X67708773Y-80880196D01*
X67684505Y-80883796D01*
X67660001Y-80885000D01*
X66959999Y-80885000D01*
X66935495Y-80883796D01*
X66911227Y-80880196D01*
X66887428Y-80874235D01*
X66864329Y-80865970D01*
X66842150Y-80855480D01*
X66821107Y-80842868D01*
X66801401Y-80828253D01*
X66783223Y-80811777D01*
X66766747Y-80793599D01*
X66752132Y-80773893D01*
X66739520Y-80752850D01*
X66729030Y-80730671D01*
X66720765Y-80707572D01*
X66714804Y-80683773D01*
X66711204Y-80659505D01*
X66710000Y-80635001D01*
X66710000Y-79384999D01*
X66711204Y-79360495D01*
X66714804Y-79336227D01*
X66720765Y-79312428D01*
X66729030Y-79289329D01*
X66739520Y-79267150D01*
X66752132Y-79246107D01*
X66766747Y-79226401D01*
X66783223Y-79208223D01*
X66801401Y-79191747D01*
X66821107Y-79177132D01*
X66842150Y-79164520D01*
X66864329Y-79154030D01*
X66887428Y-79145765D01*
X66911227Y-79139804D01*
X66935495Y-79136204D01*
X66959999Y-79135000D01*
X67660001Y-79135000D01*
X67684505Y-79136204D01*
X67684505Y-79136204D01*
G37*
D15*
X67310000Y-80010000D03*
D13*
X69310000Y-80010000D03*
D19*
X30480000Y-38100000D03*
D20*
X25400000Y-38100000D03*
X33020000Y-38100000D03*
D19*
X38100000Y-38100000D03*
X45720000Y-38100000D03*
D20*
X40640000Y-38100000D03*
X48260000Y-38100000D03*
D19*
X53340000Y-38100000D03*
X60960000Y-38100000D03*
D20*
X55880000Y-38100000D03*
X63500000Y-38100000D03*
D19*
X68580000Y-38100000D03*
X76200000Y-38100000D03*
D20*
X71120000Y-38100000D03*
X78740000Y-38100000D03*
D19*
X83820000Y-38100000D03*
D21*
X19050000Y-61468000D03*
X19050000Y-58420000D03*
X19050000Y-55372000D03*
X19050000Y-52324000D03*
X19050000Y-49276000D03*
X19050000Y-46228000D03*
X19050000Y-43180000D03*
X19050000Y-40132000D03*
X90170000Y-53594000D03*
X90170000Y-56642000D03*
X90170000Y-59690000D03*
X90170000Y-62738000D03*
X90170000Y-65786000D03*
X90170000Y-68834000D03*
X90170000Y-71882000D03*
X90170000Y-74930000D03*
X90170000Y-47752000D03*
X90170000Y-44704000D03*
X90170000Y-41656000D03*
X90170000Y-38608000D03*
X19050000Y-67818000D03*
X19050000Y-70866000D03*
D11*
X25400000Y-68580000D03*
D10*
X48260000Y-60960000D03*
X27940000Y-68580000D03*
X45720000Y-60960000D03*
X30480000Y-68580000D03*
X43180000Y-60960000D03*
X33020000Y-68580000D03*
X40640000Y-60960000D03*
X35560000Y-68580000D03*
X38100000Y-60960000D03*
X38100000Y-68580000D03*
X35560000Y-60960000D03*
X40640000Y-68580000D03*
X33020000Y-60960000D03*
X43180000Y-68580000D03*
X30480000Y-60960000D03*
X45720000Y-68580000D03*
X27940000Y-60960000D03*
X48260000Y-68580000D03*
X25400000Y-60960000D03*
D11*
X55880000Y-68580000D03*
D10*
X73660000Y-60960000D03*
X58420000Y-68580000D03*
X71120000Y-60960000D03*
X60960000Y-68580000D03*
X68580000Y-60960000D03*
X63500000Y-68580000D03*
X66040000Y-60960000D03*
X66040000Y-68580000D03*
X63500000Y-60960000D03*
X68580000Y-68580000D03*
X60960000Y-60960000D03*
X71120000Y-68580000D03*
X58420000Y-60960000D03*
X73660000Y-68580000D03*
X55880000Y-60960000D03*
M02*
