G04 #@! TF.GenerationSoftware,KiCad,Pcbnew,(5.1.2-1)-1*
G04 #@! TF.CreationDate,2019-08-26T08:25:21+10:00*
G04 #@! TF.ProjectId,register-b,72656769-7374-4657-922d-622e6b696361,rev?*
G04 #@! TF.SameCoordinates,Original*
G04 #@! TF.FileFunction,Copper,L2,Bot*
G04 #@! TF.FilePolarity,Positive*
%FSLAX46Y46*%
G04 Gerber Fmt 4.6, Leading zero omitted, Abs format (unit mm)*
G04 Created by KiCad (PCBNEW (5.1.2-1)-1) date 2019-08-26 08:25:21*
%MOMM*%
%LPD*%
G04 APERTURE LIST*
%ADD10O,1.600000X1.600000*%
%ADD11R,1.600000X1.600000*%
%ADD12C,3.790000*%
%ADD13O,1.200000X1.750000*%
%ADD14C,0.100000*%
%ADD15C,1.200000*%
%ADD16C,1.600000*%
%ADD17C,1.800000*%
%ADD18R,1.800000X1.800000*%
%ADD19O,1.400000X1.400000*%
%ADD20C,1.400000*%
%ADD21C,0.800000*%
%ADD22C,0.250000*%
%ADD23C,0.254000*%
G04 APERTURE END LIST*
D10*
X25400000Y-46990000D03*
X43180000Y-54610000D03*
X27940000Y-46990000D03*
X40640000Y-54610000D03*
X30480000Y-46990000D03*
X38100000Y-54610000D03*
X33020000Y-46990000D03*
X35560000Y-54610000D03*
X35560000Y-46990000D03*
X33020000Y-54610000D03*
X38100000Y-46990000D03*
X30480000Y-54610000D03*
X40640000Y-46990000D03*
X27940000Y-54610000D03*
X43180000Y-46990000D03*
D11*
X25400000Y-54610000D03*
D12*
X88900000Y-81280000D03*
X20320000Y-81280000D03*
X88900000Y-33020000D03*
X20320000Y-33020000D03*
D13*
X60990000Y-80010000D03*
X58990000Y-80010000D03*
X56990000Y-80010000D03*
X54990000Y-80010000D03*
X52990000Y-80010000D03*
X50990000Y-80010000D03*
X48990000Y-80010000D03*
D14*
G36*
X47364505Y-79136204D02*
G01*
X47388773Y-79139804D01*
X47412572Y-79145765D01*
X47435671Y-79154030D01*
X47457850Y-79164520D01*
X47478893Y-79177132D01*
X47498599Y-79191747D01*
X47516777Y-79208223D01*
X47533253Y-79226401D01*
X47547868Y-79246107D01*
X47560480Y-79267150D01*
X47570970Y-79289329D01*
X47579235Y-79312428D01*
X47585196Y-79336227D01*
X47588796Y-79360495D01*
X47590000Y-79384999D01*
X47590000Y-80635001D01*
X47588796Y-80659505D01*
X47585196Y-80683773D01*
X47579235Y-80707572D01*
X47570970Y-80730671D01*
X47560480Y-80752850D01*
X47547868Y-80773893D01*
X47533253Y-80793599D01*
X47516777Y-80811777D01*
X47498599Y-80828253D01*
X47478893Y-80842868D01*
X47457850Y-80855480D01*
X47435671Y-80865970D01*
X47412572Y-80874235D01*
X47388773Y-80880196D01*
X47364505Y-80883796D01*
X47340001Y-80885000D01*
X46639999Y-80885000D01*
X46615495Y-80883796D01*
X46591227Y-80880196D01*
X46567428Y-80874235D01*
X46544329Y-80865970D01*
X46522150Y-80855480D01*
X46501107Y-80842868D01*
X46481401Y-80828253D01*
X46463223Y-80811777D01*
X46446747Y-80793599D01*
X46432132Y-80773893D01*
X46419520Y-80752850D01*
X46409030Y-80730671D01*
X46400765Y-80707572D01*
X46394804Y-80683773D01*
X46391204Y-80659505D01*
X46390000Y-80635001D01*
X46390000Y-79384999D01*
X46391204Y-79360495D01*
X46394804Y-79336227D01*
X46400765Y-79312428D01*
X46409030Y-79289329D01*
X46419520Y-79267150D01*
X46432132Y-79246107D01*
X46446747Y-79226401D01*
X46463223Y-79208223D01*
X46481401Y-79191747D01*
X46501107Y-79177132D01*
X46522150Y-79164520D01*
X46544329Y-79154030D01*
X46567428Y-79145765D01*
X46591227Y-79139804D01*
X46615495Y-79136204D01*
X46639999Y-79135000D01*
X47340001Y-79135000D01*
X47364505Y-79136204D01*
X47364505Y-79136204D01*
G37*
D15*
X46990000Y-80010000D03*
D16*
X49530000Y-50800000D03*
X52030000Y-50800000D03*
D17*
X29210000Y-33020000D03*
D18*
X26670000Y-33020000D03*
X34290000Y-33020000D03*
D17*
X36830000Y-33020000D03*
X44450000Y-33020000D03*
D18*
X41910000Y-33020000D03*
X49530000Y-33020000D03*
D17*
X52070000Y-33020000D03*
X59690000Y-33020000D03*
D18*
X57150000Y-33020000D03*
X64770000Y-33020000D03*
D17*
X67310000Y-33020000D03*
X74930000Y-33020000D03*
D18*
X72390000Y-33020000D03*
X80010000Y-33020000D03*
D17*
X82550000Y-33020000D03*
D14*
G36*
X27044505Y-79136204D02*
G01*
X27068773Y-79139804D01*
X27092572Y-79145765D01*
X27115671Y-79154030D01*
X27137850Y-79164520D01*
X27158893Y-79177132D01*
X27178599Y-79191747D01*
X27196777Y-79208223D01*
X27213253Y-79226401D01*
X27227868Y-79246107D01*
X27240480Y-79267150D01*
X27250970Y-79289329D01*
X27259235Y-79312428D01*
X27265196Y-79336227D01*
X27268796Y-79360495D01*
X27270000Y-79384999D01*
X27270000Y-80635001D01*
X27268796Y-80659505D01*
X27265196Y-80683773D01*
X27259235Y-80707572D01*
X27250970Y-80730671D01*
X27240480Y-80752850D01*
X27227868Y-80773893D01*
X27213253Y-80793599D01*
X27196777Y-80811777D01*
X27178599Y-80828253D01*
X27158893Y-80842868D01*
X27137850Y-80855480D01*
X27115671Y-80865970D01*
X27092572Y-80874235D01*
X27068773Y-80880196D01*
X27044505Y-80883796D01*
X27020001Y-80885000D01*
X26319999Y-80885000D01*
X26295495Y-80883796D01*
X26271227Y-80880196D01*
X26247428Y-80874235D01*
X26224329Y-80865970D01*
X26202150Y-80855480D01*
X26181107Y-80842868D01*
X26161401Y-80828253D01*
X26143223Y-80811777D01*
X26126747Y-80793599D01*
X26112132Y-80773893D01*
X26099520Y-80752850D01*
X26089030Y-80730671D01*
X26080765Y-80707572D01*
X26074804Y-80683773D01*
X26071204Y-80659505D01*
X26070000Y-80635001D01*
X26070000Y-79384999D01*
X26071204Y-79360495D01*
X26074804Y-79336227D01*
X26080765Y-79312428D01*
X26089030Y-79289329D01*
X26099520Y-79267150D01*
X26112132Y-79246107D01*
X26126747Y-79226401D01*
X26143223Y-79208223D01*
X26161401Y-79191747D01*
X26181107Y-79177132D01*
X26202150Y-79164520D01*
X26224329Y-79154030D01*
X26247428Y-79145765D01*
X26271227Y-79139804D01*
X26295495Y-79136204D01*
X26319999Y-79135000D01*
X27020001Y-79135000D01*
X27044505Y-79136204D01*
X27044505Y-79136204D01*
G37*
D15*
X26670000Y-80010000D03*
D13*
X28670000Y-80010000D03*
X30670000Y-80010000D03*
X32670000Y-80010000D03*
X34670000Y-80010000D03*
X36670000Y-80010000D03*
X38670000Y-80010000D03*
X40670000Y-80010000D03*
D14*
G36*
X76574505Y-79136204D02*
G01*
X76598773Y-79139804D01*
X76622572Y-79145765D01*
X76645671Y-79154030D01*
X76667850Y-79164520D01*
X76688893Y-79177132D01*
X76708599Y-79191747D01*
X76726777Y-79208223D01*
X76743253Y-79226401D01*
X76757868Y-79246107D01*
X76770480Y-79267150D01*
X76780970Y-79289329D01*
X76789235Y-79312428D01*
X76795196Y-79336227D01*
X76798796Y-79360495D01*
X76800000Y-79384999D01*
X76800000Y-80635001D01*
X76798796Y-80659505D01*
X76795196Y-80683773D01*
X76789235Y-80707572D01*
X76780970Y-80730671D01*
X76770480Y-80752850D01*
X76757868Y-80773893D01*
X76743253Y-80793599D01*
X76726777Y-80811777D01*
X76708599Y-80828253D01*
X76688893Y-80842868D01*
X76667850Y-80855480D01*
X76645671Y-80865970D01*
X76622572Y-80874235D01*
X76598773Y-80880196D01*
X76574505Y-80883796D01*
X76550001Y-80885000D01*
X75849999Y-80885000D01*
X75825495Y-80883796D01*
X75801227Y-80880196D01*
X75777428Y-80874235D01*
X75754329Y-80865970D01*
X75732150Y-80855480D01*
X75711107Y-80842868D01*
X75691401Y-80828253D01*
X75673223Y-80811777D01*
X75656747Y-80793599D01*
X75642132Y-80773893D01*
X75629520Y-80752850D01*
X75619030Y-80730671D01*
X75610765Y-80707572D01*
X75604804Y-80683773D01*
X75601204Y-80659505D01*
X75600000Y-80635001D01*
X75600000Y-79384999D01*
X75601204Y-79360495D01*
X75604804Y-79336227D01*
X75610765Y-79312428D01*
X75619030Y-79289329D01*
X75629520Y-79267150D01*
X75642132Y-79246107D01*
X75656747Y-79226401D01*
X75673223Y-79208223D01*
X75691401Y-79191747D01*
X75711107Y-79177132D01*
X75732150Y-79164520D01*
X75754329Y-79154030D01*
X75777428Y-79145765D01*
X75801227Y-79139804D01*
X75825495Y-79136204D01*
X75849999Y-79135000D01*
X76550001Y-79135000D01*
X76574505Y-79136204D01*
X76574505Y-79136204D01*
G37*
D15*
X76200000Y-80010000D03*
D13*
X78200000Y-80010000D03*
X80200000Y-80010000D03*
X82200000Y-80010000D03*
D14*
G36*
X67684505Y-79136204D02*
G01*
X67708773Y-79139804D01*
X67732572Y-79145765D01*
X67755671Y-79154030D01*
X67777850Y-79164520D01*
X67798893Y-79177132D01*
X67818599Y-79191747D01*
X67836777Y-79208223D01*
X67853253Y-79226401D01*
X67867868Y-79246107D01*
X67880480Y-79267150D01*
X67890970Y-79289329D01*
X67899235Y-79312428D01*
X67905196Y-79336227D01*
X67908796Y-79360495D01*
X67910000Y-79384999D01*
X67910000Y-80635001D01*
X67908796Y-80659505D01*
X67905196Y-80683773D01*
X67899235Y-80707572D01*
X67890970Y-80730671D01*
X67880480Y-80752850D01*
X67867868Y-80773893D01*
X67853253Y-80793599D01*
X67836777Y-80811777D01*
X67818599Y-80828253D01*
X67798893Y-80842868D01*
X67777850Y-80855480D01*
X67755671Y-80865970D01*
X67732572Y-80874235D01*
X67708773Y-80880196D01*
X67684505Y-80883796D01*
X67660001Y-80885000D01*
X66959999Y-80885000D01*
X66935495Y-80883796D01*
X66911227Y-80880196D01*
X66887428Y-80874235D01*
X66864329Y-80865970D01*
X66842150Y-80855480D01*
X66821107Y-80842868D01*
X66801401Y-80828253D01*
X66783223Y-80811777D01*
X66766747Y-80793599D01*
X66752132Y-80773893D01*
X66739520Y-80752850D01*
X66729030Y-80730671D01*
X66720765Y-80707572D01*
X66714804Y-80683773D01*
X66711204Y-80659505D01*
X66710000Y-80635001D01*
X66710000Y-79384999D01*
X66711204Y-79360495D01*
X66714804Y-79336227D01*
X66720765Y-79312428D01*
X66729030Y-79289329D01*
X66739520Y-79267150D01*
X66752132Y-79246107D01*
X66766747Y-79226401D01*
X66783223Y-79208223D01*
X66801401Y-79191747D01*
X66821107Y-79177132D01*
X66842150Y-79164520D01*
X66864329Y-79154030D01*
X66887428Y-79145765D01*
X66911227Y-79139804D01*
X66935495Y-79136204D01*
X66959999Y-79135000D01*
X67660001Y-79135000D01*
X67684505Y-79136204D01*
X67684505Y-79136204D01*
G37*
D15*
X67310000Y-80010000D03*
D13*
X69310000Y-80010000D03*
D19*
X30480000Y-38100000D03*
D20*
X25400000Y-38100000D03*
X33020000Y-38100000D03*
D19*
X38100000Y-38100000D03*
X45720000Y-38100000D03*
D20*
X40640000Y-38100000D03*
X48260000Y-38100000D03*
D19*
X53340000Y-38100000D03*
X60960000Y-38100000D03*
D20*
X55880000Y-38100000D03*
X63500000Y-38100000D03*
D19*
X68580000Y-38100000D03*
X76200000Y-38100000D03*
D20*
X71120000Y-38100000D03*
X78740000Y-38100000D03*
D19*
X83820000Y-38100000D03*
D11*
X25400000Y-68580000D03*
D10*
X48260000Y-60960000D03*
X27940000Y-68580000D03*
X45720000Y-60960000D03*
X30480000Y-68580000D03*
X43180000Y-60960000D03*
X33020000Y-68580000D03*
X40640000Y-60960000D03*
X35560000Y-68580000D03*
X38100000Y-60960000D03*
X38100000Y-68580000D03*
X35560000Y-60960000D03*
X40640000Y-68580000D03*
X33020000Y-60960000D03*
X43180000Y-68580000D03*
X30480000Y-60960000D03*
X45720000Y-68580000D03*
X27940000Y-60960000D03*
X48260000Y-68580000D03*
X25400000Y-60960000D03*
D11*
X55880000Y-68580000D03*
D10*
X73660000Y-60960000D03*
X58420000Y-68580000D03*
X71120000Y-60960000D03*
X60960000Y-68580000D03*
X68580000Y-60960000D03*
X63500000Y-68580000D03*
X66040000Y-60960000D03*
X66040000Y-68580000D03*
X63500000Y-60960000D03*
X68580000Y-68580000D03*
X60960000Y-60960000D03*
X71120000Y-68580000D03*
X58420000Y-60960000D03*
X73660000Y-68580000D03*
X55880000Y-60960000D03*
D21*
X19812000Y-66040000D03*
X51816000Y-56896000D03*
X48001347Y-53344653D03*
X53594000Y-62230000D03*
X82925000Y-78486000D03*
X68580000Y-71120000D03*
X52954347Y-57526347D03*
X48768000Y-54610000D03*
X26924000Y-45466000D03*
X27808347Y-43819653D03*
X64770000Y-41910000D03*
X21582000Y-59936000D03*
X48006000Y-44958000D03*
X24384000Y-44704000D03*
X52666293Y-68904780D03*
X37084000Y-76454000D03*
X34544000Y-74676000D03*
X51886051Y-68279299D03*
X37846000Y-75692000D03*
X36576000Y-74676000D03*
X51054000Y-68834000D03*
X41439999Y-58382001D03*
X17018000Y-49276000D03*
X43180000Y-58674000D03*
X17018000Y-46228000D03*
X44507685Y-58616315D03*
X40239999Y-48499989D03*
X42225005Y-50484995D03*
X44507685Y-56076315D03*
X38789999Y-50399999D03*
X71070094Y-67115212D03*
X87630000Y-42672000D03*
X76067500Y-77602500D03*
X52832000Y-56076314D03*
X50038000Y-54356000D03*
X81788000Y-51308000D03*
X45212000Y-50399999D03*
X46212003Y-50399999D03*
X47212006Y-50399999D03*
X87694969Y-63435031D03*
X84000000Y-48006000D03*
X63754000Y-40640000D03*
X85344000Y-82550000D03*
X84704347Y-78100347D03*
X87884000Y-71882000D03*
X83275000Y-40132000D03*
X88265000Y-75565000D03*
X74930000Y-64160031D03*
X48006000Y-46228000D03*
X60235000Y-58674000D03*
X61722000Y-58928000D03*
D22*
X22352000Y-68580000D02*
X19812000Y-66040000D01*
X25400000Y-68580000D02*
X22352000Y-68580000D01*
X24600001Y-60160001D02*
X25400000Y-60960000D01*
X23114000Y-49276000D02*
X23114000Y-58674000D01*
X23114000Y-58674000D02*
X24600001Y-60160001D01*
X25400000Y-46990000D02*
X23114000Y-49276000D01*
X31754653Y-53344653D02*
X48001347Y-53344653D01*
X25400000Y-46990000D02*
X31754653Y-53344653D01*
X51816000Y-60452000D02*
X53594000Y-62230000D01*
X51816000Y-56896000D02*
X51816000Y-60452000D01*
X77724000Y-78486000D02*
X82925000Y-78486000D01*
X76200000Y-80010000D02*
X77724000Y-78486000D01*
X76200000Y-80010000D02*
X74930000Y-81280000D01*
X74930000Y-81280000D02*
X25146000Y-81280000D01*
X25146000Y-81280000D02*
X23876000Y-80010000D01*
X23876000Y-80010000D02*
X23876000Y-76200000D01*
X23876000Y-76200000D02*
X26814999Y-73261001D01*
X26814999Y-62085001D02*
X27940000Y-60960000D01*
X26814999Y-73261001D02*
X26814999Y-62085001D01*
X71120000Y-71120000D02*
X73660000Y-68580000D01*
X68580000Y-71120000D02*
X71120000Y-71120000D01*
X55880000Y-68580000D02*
X55880000Y-67530000D01*
X43180000Y-54610000D02*
X48768000Y-54610000D01*
X26924000Y-44704000D02*
X27808347Y-43819653D01*
X26924000Y-45466000D02*
X26924000Y-44704000D01*
X55880000Y-67530000D02*
X54356000Y-66006000D01*
X54356000Y-58928000D02*
X52954347Y-57526347D01*
X54356000Y-66006000D02*
X54356000Y-58928000D01*
X50834000Y-66006000D02*
X48260000Y-68580000D01*
X54356000Y-66006000D02*
X50834000Y-66006000D01*
X64770000Y-40582998D02*
X64770000Y-41910000D01*
X64102001Y-39914999D02*
X64770000Y-40582998D01*
X62774999Y-39914999D02*
X64102001Y-39914999D01*
X60960000Y-38100000D02*
X62774999Y-39914999D01*
X21582000Y-59936000D02*
X21582000Y-47252000D01*
X24130000Y-44704000D02*
X24384000Y-44704000D01*
X21582000Y-47252000D02*
X24130000Y-44704000D01*
X48006000Y-44958000D02*
X52070000Y-44958000D01*
X60960000Y-53848000D02*
X60960000Y-60960000D01*
X52070000Y-44958000D02*
X60960000Y-53848000D01*
X45682758Y-76454000D02*
X37084000Y-76454000D01*
X52666293Y-69470465D02*
X45682758Y-76454000D01*
X52666293Y-68904780D02*
X52666293Y-69470465D01*
X28670000Y-79735000D02*
X28670000Y-80010000D01*
X33729000Y-74676000D02*
X28670000Y-79735000D01*
X34544000Y-74676000D02*
X33729000Y-74676000D01*
X45269002Y-75692000D02*
X37846000Y-75692000D01*
X51886051Y-69074951D02*
X45269002Y-75692000D01*
X51886051Y-68279299D02*
X51886051Y-69074951D01*
X30670000Y-79735000D02*
X30670000Y-80010000D01*
X35729000Y-74676000D02*
X30670000Y-79735000D01*
X36576000Y-74676000D02*
X35729000Y-74676000D01*
X51054000Y-68834000D02*
X46736000Y-73152000D01*
X32670000Y-79735000D02*
X32670000Y-80010000D01*
X39253000Y-73152000D02*
X32670000Y-79735000D01*
X46736000Y-73152000D02*
X39253000Y-73152000D01*
X29680001Y-46190001D02*
X29680001Y-44666001D01*
X30480000Y-46990000D02*
X29680001Y-46190001D01*
X29680001Y-44666001D02*
X26670000Y-41656000D01*
X24638000Y-41656000D02*
X17018000Y-49276000D01*
X26670000Y-41656000D02*
X24638000Y-41656000D01*
X31894999Y-45864999D02*
X31640999Y-45864999D01*
X33020000Y-46990000D02*
X31894999Y-45864999D01*
X31640999Y-45864999D02*
X26924000Y-41148000D01*
X22098000Y-41148000D02*
X17018000Y-46228000D01*
X26924000Y-41148000D02*
X22098000Y-41148000D01*
X44507685Y-58616315D02*
X44507685Y-56076315D01*
X42225005Y-50484995D02*
X40239999Y-48499989D01*
X38789999Y-47679999D02*
X38100000Y-46990000D01*
X38789999Y-50399999D02*
X38789999Y-47679999D01*
X64575212Y-67115212D02*
X58420000Y-60960000D01*
X71070094Y-67115212D02*
X64575212Y-67115212D01*
X77379999Y-76290001D02*
X76067500Y-77602500D01*
X88613001Y-76290001D02*
X77379999Y-76290001D01*
X87630000Y-42672000D02*
X88990001Y-44032001D01*
X88990001Y-75913001D02*
X88613001Y-76290001D01*
X88990001Y-44032001D02*
X88990001Y-75913001D01*
X53536314Y-56076314D02*
X52832000Y-56076314D01*
X58420000Y-60960000D02*
X53536314Y-56076314D01*
X32075000Y-51125000D02*
X28739999Y-47789999D01*
X41792008Y-51125000D02*
X32075000Y-51125000D01*
X28739999Y-47789999D02*
X27940000Y-46990000D01*
X50038000Y-54356000D02*
X47244000Y-51562000D01*
X41877004Y-51209996D02*
X41792008Y-51125000D01*
X45367996Y-51209996D02*
X41877004Y-51209996D01*
X45720000Y-51562000D02*
X45367996Y-51209996D01*
X47244000Y-51562000D02*
X45720000Y-51562000D01*
X81646998Y-51308000D02*
X81788000Y-51308000D01*
X72534999Y-60419999D02*
X81646998Y-51308000D01*
X72534999Y-67165001D02*
X72534999Y-60419999D01*
X71120000Y-68580000D02*
X72534999Y-67165001D01*
X71919999Y-67780001D02*
X71120000Y-68580000D01*
X71919999Y-66892115D02*
X71919999Y-67780001D01*
X71418095Y-66390211D02*
X71919999Y-66892115D01*
X44103688Y-55351314D02*
X54476316Y-55351314D01*
X59834999Y-61500001D02*
X64725209Y-66390211D01*
X59834999Y-60709997D02*
X59834999Y-61500001D01*
X43720001Y-55735001D02*
X44103688Y-55351314D01*
X64725209Y-66390211D02*
X71418095Y-66390211D01*
X41765001Y-55735001D02*
X43720001Y-55735001D01*
X54476316Y-55351314D02*
X59834999Y-60709997D01*
X40640000Y-54610000D02*
X41765001Y-55735001D01*
X59834999Y-69705001D02*
X60160001Y-69379999D01*
X57294999Y-69705001D02*
X59834999Y-69705001D01*
X60160001Y-69379999D02*
X60960000Y-68580000D01*
X46990000Y-80010000D02*
X57294999Y-69705001D01*
X45212000Y-47356998D02*
X43067002Y-45212000D01*
X45212000Y-50399999D02*
X45212000Y-47356998D01*
X43067002Y-45212000D02*
X31750000Y-45212000D01*
X29210000Y-42672000D02*
X29210000Y-33020000D01*
X31750000Y-45212000D02*
X29210000Y-42672000D01*
X62700001Y-69379999D02*
X63500000Y-68580000D01*
X61924989Y-70155011D02*
X62700001Y-69379999D01*
X58569989Y-70155011D02*
X61924989Y-70155011D01*
X48990000Y-79735000D02*
X58569989Y-70155011D01*
X48990000Y-80010000D02*
X48990000Y-79735000D01*
X36830000Y-34292792D02*
X36830000Y-33020000D01*
X46212003Y-47720591D02*
X43253402Y-44761990D01*
X46212003Y-50399999D02*
X46212003Y-47720591D01*
X42898576Y-44761990D02*
X42332586Y-44196000D01*
X43253402Y-44761990D02*
X42898576Y-44761990D01*
X42332586Y-44196000D02*
X38862000Y-44196000D01*
X37074999Y-42408999D02*
X37074999Y-35550999D01*
X37074999Y-35550999D02*
X36830000Y-35306000D01*
X38862000Y-44196000D02*
X37074999Y-42408999D01*
X36830000Y-35306000D02*
X36830000Y-34292792D01*
X65240001Y-69379999D02*
X66040000Y-68580000D01*
X64014979Y-70605021D02*
X65240001Y-69379999D01*
X60119979Y-70605021D02*
X64014979Y-70605021D01*
X50990000Y-79735000D02*
X60119979Y-70605021D01*
X50990000Y-80010000D02*
X50990000Y-79735000D01*
X44450000Y-34292792D02*
X44450000Y-33020000D01*
X44450000Y-38347002D02*
X44450000Y-34292792D01*
X47212006Y-41109008D02*
X44450000Y-38347002D01*
X47212006Y-50399999D02*
X47212006Y-41109008D01*
X66104969Y-71055031D02*
X67780001Y-69379999D01*
X61669969Y-71055031D02*
X66104969Y-71055031D01*
X52990000Y-79735000D02*
X61669969Y-71055031D01*
X67780001Y-69379999D02*
X68580000Y-68580000D01*
X52990000Y-80010000D02*
X52990000Y-79735000D01*
X87694969Y-51700969D02*
X84000000Y-48006000D01*
X87694969Y-63435031D02*
X87694969Y-51700969D01*
X52070000Y-34292792D02*
X52070000Y-33020000D01*
X52070000Y-38347002D02*
X52070000Y-34292792D01*
X54362998Y-40640000D02*
X52070000Y-38347002D01*
X63754000Y-40640000D02*
X54362998Y-40640000D01*
X84704347Y-81910347D02*
X84704347Y-78100347D01*
X85344000Y-82550000D02*
X84704347Y-81910347D01*
X31279999Y-55409999D02*
X30480000Y-54610000D01*
X34145001Y-64625001D02*
X34145001Y-58275001D01*
X34145001Y-58275001D02*
X31279999Y-55409999D01*
X38100000Y-68580000D02*
X34145001Y-64625001D01*
X33819999Y-55409999D02*
X33020000Y-54610000D01*
X36685001Y-58275001D02*
X33819999Y-55409999D01*
X36685001Y-64625001D02*
X36685001Y-58275001D01*
X40640000Y-68580000D02*
X36685001Y-64625001D01*
X87884000Y-71882000D02*
X86360000Y-71882000D01*
X83275000Y-68797000D02*
X83275000Y-40132000D01*
X86360000Y-71882000D02*
X83275000Y-68797000D01*
X36359999Y-55409999D02*
X35560000Y-54610000D01*
X39225001Y-58275001D02*
X36359999Y-55409999D01*
X39225001Y-64625001D02*
X39225001Y-58275001D01*
X43180000Y-68580000D02*
X39225001Y-64625001D01*
X82550000Y-68834000D02*
X82550000Y-33020000D01*
X88265000Y-75565000D02*
X82550000Y-69850000D01*
X82550000Y-69850000D02*
X82550000Y-68834000D01*
X41765001Y-59780005D02*
X38100000Y-56115004D01*
X41765001Y-64625001D02*
X41765001Y-59780005D01*
X38100000Y-55741370D02*
X38100000Y-54610000D01*
X38100000Y-56115004D02*
X38100000Y-55741370D01*
X45720000Y-68580000D02*
X41765001Y-64625001D01*
X73660000Y-62890031D02*
X74930000Y-64160031D01*
X73660000Y-60960000D02*
X73660000Y-62890031D01*
X60235000Y-57339998D02*
X60235000Y-58674000D01*
X49123002Y-46228000D02*
X60235000Y-57339998D01*
X48006000Y-46228000D02*
X49123002Y-46228000D01*
X69088000Y-58928000D02*
X71120000Y-60960000D01*
X61722000Y-58928000D02*
X69088000Y-58928000D01*
D23*
G36*
X90776344Y-28687738D02*
G01*
X91359595Y-28863832D01*
X91897529Y-29149856D01*
X92369667Y-29534922D01*
X92758019Y-30004359D01*
X93047794Y-30540286D01*
X93227955Y-31122291D01*
X93295000Y-31760189D01*
X93295001Y-82516485D01*
X93232262Y-83156343D01*
X93056168Y-83739595D01*
X92770143Y-84277531D01*
X92385078Y-84749667D01*
X91915641Y-85138019D01*
X91379714Y-85427794D01*
X90797705Y-85607956D01*
X90159811Y-85675000D01*
X19083505Y-85675000D01*
X18443657Y-85612262D01*
X17860405Y-85436168D01*
X17322469Y-85150143D01*
X16850333Y-84765078D01*
X16461981Y-84295641D01*
X16172206Y-83759714D01*
X15992044Y-83177705D01*
X15925000Y-82539811D01*
X15925000Y-81030817D01*
X17790000Y-81030817D01*
X17790000Y-81529183D01*
X17887226Y-82017974D01*
X18077943Y-82478405D01*
X18354820Y-82892781D01*
X18707219Y-83245180D01*
X19121595Y-83522057D01*
X19582026Y-83712774D01*
X20070817Y-83810000D01*
X20569183Y-83810000D01*
X21057974Y-83712774D01*
X21518405Y-83522057D01*
X21932781Y-83245180D01*
X22285180Y-82892781D01*
X22562057Y-82478405D01*
X22752774Y-82017974D01*
X22850000Y-81529183D01*
X22850000Y-81030817D01*
X22752774Y-80542026D01*
X22562057Y-80081595D01*
X22285180Y-79667219D01*
X21932781Y-79314820D01*
X21518405Y-79037943D01*
X21057974Y-78847226D01*
X20569183Y-78750000D01*
X20070817Y-78750000D01*
X19582026Y-78847226D01*
X19121595Y-79037943D01*
X18707219Y-79314820D01*
X18354820Y-79667219D01*
X18077943Y-80081595D01*
X17887226Y-80542026D01*
X17790000Y-81030817D01*
X15925000Y-81030817D01*
X15925000Y-69380000D01*
X23961928Y-69380000D01*
X23974188Y-69504482D01*
X24010498Y-69624180D01*
X24069463Y-69734494D01*
X24148815Y-69831185D01*
X24245506Y-69910537D01*
X24355820Y-69969502D01*
X24475518Y-70005812D01*
X24600000Y-70018072D01*
X25114250Y-70015000D01*
X25273000Y-69856250D01*
X25273000Y-68707000D01*
X24123750Y-68707000D01*
X23965000Y-68865750D01*
X23961928Y-69380000D01*
X15925000Y-69380000D01*
X15925000Y-67780000D01*
X23961928Y-67780000D01*
X23965000Y-68294250D01*
X24123750Y-68453000D01*
X25273000Y-68453000D01*
X25273000Y-67303750D01*
X25114250Y-67145000D01*
X24600000Y-67141928D01*
X24475518Y-67154188D01*
X24355820Y-67190498D01*
X24245506Y-67249463D01*
X24148815Y-67328815D01*
X24069463Y-67425506D01*
X24010498Y-67535820D01*
X23974188Y-67655518D01*
X23961928Y-67780000D01*
X15925000Y-67780000D01*
X15925000Y-61309040D01*
X24008091Y-61309040D01*
X24102930Y-61573881D01*
X24247615Y-61815131D01*
X24436586Y-62023519D01*
X24662580Y-62191037D01*
X24916913Y-62311246D01*
X25050961Y-62351904D01*
X25273000Y-62229915D01*
X25273000Y-61087000D01*
X25527000Y-61087000D01*
X25527000Y-62229915D01*
X25749039Y-62351904D01*
X25883087Y-62311246D01*
X26137420Y-62191037D01*
X26363414Y-62023519D01*
X26552385Y-61815131D01*
X26670000Y-61619018D01*
X26787615Y-61815131D01*
X26976586Y-62023519D01*
X27202580Y-62191037D01*
X27456913Y-62311246D01*
X27590961Y-62351904D01*
X27813000Y-62229915D01*
X27813000Y-61087000D01*
X25527000Y-61087000D01*
X25273000Y-61087000D01*
X24129376Y-61087000D01*
X24008091Y-61309040D01*
X15925000Y-61309040D01*
X15925000Y-59834061D01*
X20547000Y-59834061D01*
X20547000Y-60037939D01*
X20586774Y-60237898D01*
X20664795Y-60426256D01*
X20778063Y-60595774D01*
X20922226Y-60739937D01*
X21091744Y-60853205D01*
X21280102Y-60931226D01*
X21480061Y-60971000D01*
X21683939Y-60971000D01*
X21883898Y-60931226D01*
X22072256Y-60853205D01*
X22241774Y-60739937D01*
X22370751Y-60610960D01*
X24008091Y-60610960D01*
X24129376Y-60833000D01*
X25273000Y-60833000D01*
X25273000Y-59690085D01*
X25527000Y-59690085D01*
X25527000Y-60833000D01*
X27813000Y-60833000D01*
X27813000Y-59690085D01*
X27590961Y-59568096D01*
X27456913Y-59608754D01*
X27202580Y-59728963D01*
X26976586Y-59896481D01*
X26787615Y-60104869D01*
X26670000Y-60300982D01*
X26552385Y-60104869D01*
X26363414Y-59896481D01*
X26137420Y-59728963D01*
X25883087Y-59608754D01*
X25749039Y-59568096D01*
X25527000Y-59690085D01*
X25273000Y-59690085D01*
X25050961Y-59568096D01*
X24916913Y-59608754D01*
X24662580Y-59728963D01*
X24436586Y-59896481D01*
X24247615Y-60104869D01*
X24102930Y-60346119D01*
X24008091Y-60610960D01*
X22370751Y-60610960D01*
X22385937Y-60595774D01*
X22499205Y-60426256D01*
X22577226Y-60237898D01*
X22617000Y-60037939D01*
X22617000Y-59834061D01*
X22577226Y-59634102D01*
X22499205Y-59445744D01*
X22385937Y-59276226D01*
X22342000Y-59232289D01*
X22342000Y-47566801D01*
X22569761Y-47339040D01*
X24008091Y-47339040D01*
X24102930Y-47603881D01*
X24247615Y-47845131D01*
X24436586Y-48053519D01*
X24662580Y-48221037D01*
X24916913Y-48341246D01*
X25050961Y-48381904D01*
X25273000Y-48259915D01*
X25273000Y-47117000D01*
X24129376Y-47117000D01*
X24008091Y-47339040D01*
X22569761Y-47339040D01*
X23267841Y-46640960D01*
X24008091Y-46640960D01*
X24129376Y-46863000D01*
X25273000Y-46863000D01*
X25273000Y-45720085D01*
X25050961Y-45598096D01*
X24916913Y-45638754D01*
X24662580Y-45758963D01*
X24436586Y-45926481D01*
X24247615Y-46134869D01*
X24102930Y-46376119D01*
X24008091Y-46640960D01*
X23267841Y-46640960D01*
X24188427Y-45720375D01*
X24282061Y-45739000D01*
X24485939Y-45739000D01*
X24685898Y-45699226D01*
X24874256Y-45621205D01*
X25043774Y-45507937D01*
X25187937Y-45363774D01*
X25301205Y-45194256D01*
X25379226Y-45005898D01*
X25419000Y-44805939D01*
X25419000Y-44602061D01*
X25379226Y-44402102D01*
X25301205Y-44213744D01*
X25187937Y-44044226D01*
X25043774Y-43900063D01*
X24874256Y-43786795D01*
X24685898Y-43708774D01*
X24485939Y-43669000D01*
X24282061Y-43669000D01*
X24082102Y-43708774D01*
X23893744Y-43786795D01*
X23724226Y-43900063D01*
X23580063Y-44044226D01*
X23466795Y-44213744D01*
X23411174Y-44348024D01*
X21070998Y-46688201D01*
X21042000Y-46711999D01*
X21018202Y-46740997D01*
X21018201Y-46740998D01*
X20947026Y-46827724D01*
X20876454Y-46959754D01*
X20851810Y-47040997D01*
X20832998Y-47103014D01*
X20822501Y-47209588D01*
X20818324Y-47252000D01*
X20822001Y-47289332D01*
X20822000Y-59232289D01*
X20778063Y-59276226D01*
X20664795Y-59445744D01*
X20586774Y-59634102D01*
X20547000Y-59834061D01*
X15925000Y-59834061D01*
X15925000Y-46126061D01*
X15983000Y-46126061D01*
X15983000Y-46329939D01*
X16022774Y-46529898D01*
X16100795Y-46718256D01*
X16214063Y-46887774D01*
X16358226Y-47031937D01*
X16527744Y-47145205D01*
X16716102Y-47223226D01*
X16916061Y-47263000D01*
X17119939Y-47263000D01*
X17319898Y-47223226D01*
X17508256Y-47145205D01*
X17677774Y-47031937D01*
X17821937Y-46887774D01*
X17935205Y-46718256D01*
X18013226Y-46529898D01*
X18053000Y-46329939D01*
X18053000Y-46267801D01*
X22412802Y-41908000D01*
X23311198Y-41908000D01*
X16978199Y-48241000D01*
X16916061Y-48241000D01*
X16716102Y-48280774D01*
X16527744Y-48358795D01*
X16358226Y-48472063D01*
X16214063Y-48616226D01*
X16100795Y-48785744D01*
X16022774Y-48974102D01*
X15983000Y-49174061D01*
X15983000Y-49377939D01*
X16022774Y-49577898D01*
X16100795Y-49766256D01*
X16214063Y-49935774D01*
X16358226Y-50079937D01*
X16527744Y-50193205D01*
X16716102Y-50271226D01*
X16916061Y-50311000D01*
X17119939Y-50311000D01*
X17319898Y-50271226D01*
X17508256Y-50193205D01*
X17677774Y-50079937D01*
X17821937Y-49935774D01*
X17935205Y-49766256D01*
X18013226Y-49577898D01*
X18053000Y-49377939D01*
X18053000Y-49315801D01*
X24952802Y-42416000D01*
X26355199Y-42416000D01*
X27051744Y-43112545D01*
X27004410Y-43159879D01*
X26891142Y-43329397D01*
X26813121Y-43517755D01*
X26773347Y-43717714D01*
X26773347Y-43779852D01*
X26412998Y-44140201D01*
X26384000Y-44163999D01*
X26360202Y-44192997D01*
X26360201Y-44192998D01*
X26289026Y-44279724D01*
X26218454Y-44411754D01*
X26216560Y-44417999D01*
X26174997Y-44555014D01*
X26164000Y-44666667D01*
X26164000Y-44666678D01*
X26160324Y-44704000D01*
X26164000Y-44741322D01*
X26164000Y-44762289D01*
X26120063Y-44806226D01*
X26006795Y-44975744D01*
X25928774Y-45164102D01*
X25889000Y-45364061D01*
X25889000Y-45567939D01*
X25905161Y-45649187D01*
X25883087Y-45638754D01*
X25749039Y-45598096D01*
X25527000Y-45720085D01*
X25527000Y-46863000D01*
X25547000Y-46863000D01*
X25547000Y-47117000D01*
X25527000Y-47117000D01*
X25527000Y-48259915D01*
X25749039Y-48381904D01*
X25883087Y-48341246D01*
X26137420Y-48221037D01*
X26363414Y-48053519D01*
X26552385Y-47845131D01*
X26667421Y-47653318D01*
X26741068Y-47791101D01*
X26920392Y-48009608D01*
X27138899Y-48188932D01*
X27388192Y-48322182D01*
X27658691Y-48404236D01*
X27869508Y-48425000D01*
X28010492Y-48425000D01*
X28221309Y-48404236D01*
X28265907Y-48390708D01*
X31511200Y-51636002D01*
X31534999Y-51665001D01*
X31650724Y-51759974D01*
X31782753Y-51830546D01*
X31926014Y-51874003D01*
X32037667Y-51885000D01*
X32037675Y-51885000D01*
X32075000Y-51888676D01*
X32112325Y-51885000D01*
X41527618Y-51885000D01*
X41584757Y-51915542D01*
X41728018Y-51958999D01*
X41839671Y-51969996D01*
X41839681Y-51969996D01*
X41877003Y-51973672D01*
X41914326Y-51969996D01*
X45053195Y-51969996D01*
X45156196Y-52072997D01*
X45179999Y-52102001D01*
X45295724Y-52196974D01*
X45427753Y-52267546D01*
X45571014Y-52311003D01*
X45682667Y-52322000D01*
X45682677Y-52322000D01*
X45720000Y-52325676D01*
X45757323Y-52322000D01*
X46929199Y-52322000D01*
X48293477Y-53686278D01*
X48277744Y-53692795D01*
X48108226Y-53806063D01*
X48064289Y-53850000D01*
X44400901Y-53850000D01*
X44378932Y-53808899D01*
X44199608Y-53590392D01*
X43981101Y-53411068D01*
X43731808Y-53277818D01*
X43461309Y-53195764D01*
X43250492Y-53175000D01*
X43109508Y-53175000D01*
X42898691Y-53195764D01*
X42628192Y-53277818D01*
X42378899Y-53411068D01*
X42160392Y-53590392D01*
X41981068Y-53808899D01*
X41910000Y-53941858D01*
X41838932Y-53808899D01*
X41659608Y-53590392D01*
X41441101Y-53411068D01*
X41191808Y-53277818D01*
X40921309Y-53195764D01*
X40710492Y-53175000D01*
X40569508Y-53175000D01*
X40358691Y-53195764D01*
X40088192Y-53277818D01*
X39838899Y-53411068D01*
X39620392Y-53590392D01*
X39441068Y-53808899D01*
X39370000Y-53941858D01*
X39298932Y-53808899D01*
X39119608Y-53590392D01*
X38901101Y-53411068D01*
X38651808Y-53277818D01*
X38381309Y-53195764D01*
X38170492Y-53175000D01*
X38029508Y-53175000D01*
X37818691Y-53195764D01*
X37548192Y-53277818D01*
X37298899Y-53411068D01*
X37080392Y-53590392D01*
X36901068Y-53808899D01*
X36830000Y-53941858D01*
X36758932Y-53808899D01*
X36579608Y-53590392D01*
X36361101Y-53411068D01*
X36111808Y-53277818D01*
X35841309Y-53195764D01*
X35630492Y-53175000D01*
X35489508Y-53175000D01*
X35278691Y-53195764D01*
X35008192Y-53277818D01*
X34758899Y-53411068D01*
X34540392Y-53590392D01*
X34361068Y-53808899D01*
X34290000Y-53941858D01*
X34218932Y-53808899D01*
X34039608Y-53590392D01*
X33821101Y-53411068D01*
X33571808Y-53277818D01*
X33301309Y-53195764D01*
X33090492Y-53175000D01*
X32949508Y-53175000D01*
X32738691Y-53195764D01*
X32468192Y-53277818D01*
X32218899Y-53411068D01*
X32000392Y-53590392D01*
X31821068Y-53808899D01*
X31750000Y-53941858D01*
X31678932Y-53808899D01*
X31499608Y-53590392D01*
X31281101Y-53411068D01*
X31031808Y-53277818D01*
X30761309Y-53195764D01*
X30550492Y-53175000D01*
X30409508Y-53175000D01*
X30198691Y-53195764D01*
X29928192Y-53277818D01*
X29678899Y-53411068D01*
X29460392Y-53590392D01*
X29281068Y-53808899D01*
X29210000Y-53941858D01*
X29138932Y-53808899D01*
X28959608Y-53590392D01*
X28741101Y-53411068D01*
X28491808Y-53277818D01*
X28221309Y-53195764D01*
X28010492Y-53175000D01*
X27869508Y-53175000D01*
X27658691Y-53195764D01*
X27388192Y-53277818D01*
X27138899Y-53411068D01*
X26920392Y-53590392D01*
X26827581Y-53703482D01*
X26825812Y-53685518D01*
X26789502Y-53565820D01*
X26730537Y-53455506D01*
X26651185Y-53358815D01*
X26554494Y-53279463D01*
X26444180Y-53220498D01*
X26324482Y-53184188D01*
X26200000Y-53171928D01*
X24600000Y-53171928D01*
X24475518Y-53184188D01*
X24355820Y-53220498D01*
X24245506Y-53279463D01*
X24148815Y-53358815D01*
X24069463Y-53455506D01*
X24010498Y-53565820D01*
X23974188Y-53685518D01*
X23961928Y-53810000D01*
X23961928Y-55410000D01*
X23974188Y-55534482D01*
X24010498Y-55654180D01*
X24069463Y-55764494D01*
X24148815Y-55861185D01*
X24245506Y-55940537D01*
X24355820Y-55999502D01*
X24475518Y-56035812D01*
X24600000Y-56048072D01*
X26200000Y-56048072D01*
X26324482Y-56035812D01*
X26444180Y-55999502D01*
X26554494Y-55940537D01*
X26651185Y-55861185D01*
X26730537Y-55764494D01*
X26789502Y-55654180D01*
X26825812Y-55534482D01*
X26827581Y-55516518D01*
X26920392Y-55629608D01*
X27138899Y-55808932D01*
X27388192Y-55942182D01*
X27658691Y-56024236D01*
X27869508Y-56045000D01*
X28010492Y-56045000D01*
X28221309Y-56024236D01*
X28491808Y-55942182D01*
X28741101Y-55808932D01*
X28959608Y-55629608D01*
X29138932Y-55411101D01*
X29210000Y-55278142D01*
X29281068Y-55411101D01*
X29460392Y-55629608D01*
X29678899Y-55808932D01*
X29928192Y-55942182D01*
X30198691Y-56024236D01*
X30409508Y-56045000D01*
X30550492Y-56045000D01*
X30761309Y-56024236D01*
X30805907Y-56010708D01*
X33385002Y-58589804D01*
X33385002Y-59571152D01*
X33301309Y-59545764D01*
X33090492Y-59525000D01*
X32949508Y-59525000D01*
X32738691Y-59545764D01*
X32468192Y-59627818D01*
X32218899Y-59761068D01*
X32000392Y-59940392D01*
X31821068Y-60158899D01*
X31750000Y-60291858D01*
X31678932Y-60158899D01*
X31499608Y-59940392D01*
X31281101Y-59761068D01*
X31031808Y-59627818D01*
X30761309Y-59545764D01*
X30550492Y-59525000D01*
X30409508Y-59525000D01*
X30198691Y-59545764D01*
X29928192Y-59627818D01*
X29678899Y-59761068D01*
X29460392Y-59940392D01*
X29281068Y-60158899D01*
X29207421Y-60296682D01*
X29092385Y-60104869D01*
X28903414Y-59896481D01*
X28677420Y-59728963D01*
X28423087Y-59608754D01*
X28289039Y-59568096D01*
X28067000Y-59690085D01*
X28067000Y-60833000D01*
X28087000Y-60833000D01*
X28087000Y-61087000D01*
X28067000Y-61087000D01*
X28067000Y-62229915D01*
X28289039Y-62351904D01*
X28423087Y-62311246D01*
X28677420Y-62191037D01*
X28903414Y-62023519D01*
X29092385Y-61815131D01*
X29207421Y-61623318D01*
X29281068Y-61761101D01*
X29460392Y-61979608D01*
X29678899Y-62158932D01*
X29928192Y-62292182D01*
X30198691Y-62374236D01*
X30409508Y-62395000D01*
X30550492Y-62395000D01*
X30761309Y-62374236D01*
X31031808Y-62292182D01*
X31281101Y-62158932D01*
X31499608Y-61979608D01*
X31678932Y-61761101D01*
X31750000Y-61628142D01*
X31821068Y-61761101D01*
X32000392Y-61979608D01*
X32218899Y-62158932D01*
X32468192Y-62292182D01*
X32738691Y-62374236D01*
X32949508Y-62395000D01*
X33090492Y-62395000D01*
X33301309Y-62374236D01*
X33385001Y-62348849D01*
X33385001Y-64587678D01*
X33381325Y-64625001D01*
X33385001Y-64662323D01*
X33385001Y-64662333D01*
X33395998Y-64773986D01*
X33436963Y-64909033D01*
X33439455Y-64917247D01*
X33510027Y-65049277D01*
X33532973Y-65077236D01*
X33605000Y-65165002D01*
X33634004Y-65188805D01*
X35590198Y-67145000D01*
X35489508Y-67145000D01*
X35278691Y-67165764D01*
X35008192Y-67247818D01*
X34758899Y-67381068D01*
X34540392Y-67560392D01*
X34361068Y-67778899D01*
X34290000Y-67911858D01*
X34218932Y-67778899D01*
X34039608Y-67560392D01*
X33821101Y-67381068D01*
X33571808Y-67247818D01*
X33301309Y-67165764D01*
X33090492Y-67145000D01*
X32949508Y-67145000D01*
X32738691Y-67165764D01*
X32468192Y-67247818D01*
X32218899Y-67381068D01*
X32000392Y-67560392D01*
X31821068Y-67778899D01*
X31750000Y-67911858D01*
X31678932Y-67778899D01*
X31499608Y-67560392D01*
X31281101Y-67381068D01*
X31031808Y-67247818D01*
X30761309Y-67165764D01*
X30550492Y-67145000D01*
X30409508Y-67145000D01*
X30198691Y-67165764D01*
X29928192Y-67247818D01*
X29678899Y-67381068D01*
X29460392Y-67560392D01*
X29281068Y-67778899D01*
X29210000Y-67911858D01*
X29138932Y-67778899D01*
X28959608Y-67560392D01*
X28741101Y-67381068D01*
X28491808Y-67247818D01*
X28221309Y-67165764D01*
X28010492Y-67145000D01*
X27869508Y-67145000D01*
X27658691Y-67165764D01*
X27388192Y-67247818D01*
X27138899Y-67381068D01*
X26920392Y-67560392D01*
X26827581Y-67673482D01*
X26825812Y-67655518D01*
X26789502Y-67535820D01*
X26730537Y-67425506D01*
X26651185Y-67328815D01*
X26554494Y-67249463D01*
X26444180Y-67190498D01*
X26324482Y-67154188D01*
X26200000Y-67141928D01*
X25685750Y-67145000D01*
X25527000Y-67303750D01*
X25527000Y-68453000D01*
X25547000Y-68453000D01*
X25547000Y-68707000D01*
X25527000Y-68707000D01*
X25527000Y-69856250D01*
X25685750Y-70015000D01*
X26200000Y-70018072D01*
X26324482Y-70005812D01*
X26444180Y-69969502D01*
X26554494Y-69910537D01*
X26651185Y-69831185D01*
X26730537Y-69734494D01*
X26789502Y-69624180D01*
X26825812Y-69504482D01*
X26827581Y-69486518D01*
X26920392Y-69599608D01*
X27138899Y-69778932D01*
X27388192Y-69912182D01*
X27658691Y-69994236D01*
X27869508Y-70015000D01*
X28010492Y-70015000D01*
X28221309Y-69994236D01*
X28491808Y-69912182D01*
X28741101Y-69778932D01*
X28959608Y-69599608D01*
X29138932Y-69381101D01*
X29210000Y-69248142D01*
X29281068Y-69381101D01*
X29460392Y-69599608D01*
X29678899Y-69778932D01*
X29928192Y-69912182D01*
X30198691Y-69994236D01*
X30409508Y-70015000D01*
X30550492Y-70015000D01*
X30761309Y-69994236D01*
X31031808Y-69912182D01*
X31281101Y-69778932D01*
X31499608Y-69599608D01*
X31678932Y-69381101D01*
X31750000Y-69248142D01*
X31821068Y-69381101D01*
X32000392Y-69599608D01*
X32218899Y-69778932D01*
X32468192Y-69912182D01*
X32738691Y-69994236D01*
X32949508Y-70015000D01*
X33090492Y-70015000D01*
X33301309Y-69994236D01*
X33571808Y-69912182D01*
X33821101Y-69778932D01*
X34039608Y-69599608D01*
X34218932Y-69381101D01*
X34290000Y-69248142D01*
X34361068Y-69381101D01*
X34540392Y-69599608D01*
X34758899Y-69778932D01*
X35008192Y-69912182D01*
X35278691Y-69994236D01*
X35489508Y-70015000D01*
X35630492Y-70015000D01*
X35841309Y-69994236D01*
X36111808Y-69912182D01*
X36361101Y-69778932D01*
X36579608Y-69599608D01*
X36758932Y-69381101D01*
X36830000Y-69248142D01*
X36901068Y-69381101D01*
X37080392Y-69599608D01*
X37298899Y-69778932D01*
X37548192Y-69912182D01*
X37818691Y-69994236D01*
X38029508Y-70015000D01*
X38170492Y-70015000D01*
X38381309Y-69994236D01*
X38651808Y-69912182D01*
X38901101Y-69778932D01*
X39119608Y-69599608D01*
X39298932Y-69381101D01*
X39370000Y-69248142D01*
X39441068Y-69381101D01*
X39620392Y-69599608D01*
X39838899Y-69778932D01*
X40088192Y-69912182D01*
X40358691Y-69994236D01*
X40569508Y-70015000D01*
X40710492Y-70015000D01*
X40921309Y-69994236D01*
X41191808Y-69912182D01*
X41441101Y-69778932D01*
X41659608Y-69599608D01*
X41838932Y-69381101D01*
X41910000Y-69248142D01*
X41981068Y-69381101D01*
X42160392Y-69599608D01*
X42378899Y-69778932D01*
X42628192Y-69912182D01*
X42898691Y-69994236D01*
X43109508Y-70015000D01*
X43250492Y-70015000D01*
X43461309Y-69994236D01*
X43731808Y-69912182D01*
X43981101Y-69778932D01*
X44199608Y-69599608D01*
X44378932Y-69381101D01*
X44450000Y-69248142D01*
X44521068Y-69381101D01*
X44700392Y-69599608D01*
X44918899Y-69778932D01*
X45168192Y-69912182D01*
X45438691Y-69994236D01*
X45649508Y-70015000D01*
X45790492Y-70015000D01*
X46001309Y-69994236D01*
X46271808Y-69912182D01*
X46521101Y-69778932D01*
X46739608Y-69599608D01*
X46918932Y-69381101D01*
X46990000Y-69248142D01*
X47061068Y-69381101D01*
X47240392Y-69599608D01*
X47458899Y-69778932D01*
X47708192Y-69912182D01*
X47978691Y-69994236D01*
X48189508Y-70015000D01*
X48330492Y-70015000D01*
X48541309Y-69994236D01*
X48811808Y-69912182D01*
X49003453Y-69809746D01*
X46421199Y-72392000D01*
X39290323Y-72392000D01*
X39253000Y-72388324D01*
X39215677Y-72392000D01*
X39215667Y-72392000D01*
X39104014Y-72402997D01*
X38962912Y-72445799D01*
X38960753Y-72446454D01*
X38828723Y-72517026D01*
X38798568Y-72541774D01*
X38712999Y-72611999D01*
X38689201Y-72640997D01*
X37346955Y-73983244D01*
X37235774Y-73872063D01*
X37066256Y-73758795D01*
X36877898Y-73680774D01*
X36677939Y-73641000D01*
X36474061Y-73641000D01*
X36274102Y-73680774D01*
X36085744Y-73758795D01*
X35916226Y-73872063D01*
X35872289Y-73916000D01*
X35766322Y-73916000D01*
X35728999Y-73912324D01*
X35691676Y-73916000D01*
X35691667Y-73916000D01*
X35580014Y-73926997D01*
X35436753Y-73970454D01*
X35348775Y-74017480D01*
X35347937Y-74016226D01*
X35203774Y-73872063D01*
X35034256Y-73758795D01*
X34845898Y-73680774D01*
X34645939Y-73641000D01*
X34442061Y-73641000D01*
X34242102Y-73680774D01*
X34053744Y-73758795D01*
X33884226Y-73872063D01*
X33840289Y-73916000D01*
X33766322Y-73916000D01*
X33728999Y-73912324D01*
X33691676Y-73916000D01*
X33691667Y-73916000D01*
X33580014Y-73926997D01*
X33436753Y-73970454D01*
X33304724Y-74041026D01*
X33304722Y-74041027D01*
X33304723Y-74041027D01*
X33217996Y-74112201D01*
X33217992Y-74112205D01*
X33188999Y-74135999D01*
X33165205Y-74164992D01*
X28821274Y-78508924D01*
X28670000Y-78494025D01*
X28427898Y-78517870D01*
X28195099Y-78588489D01*
X27980551Y-78703167D01*
X27792498Y-78857498D01*
X27760809Y-78896111D01*
X27758405Y-78891613D01*
X27647962Y-78757038D01*
X27513387Y-78646595D01*
X27359851Y-78564528D01*
X27193255Y-78513992D01*
X27020001Y-78496928D01*
X26319999Y-78496928D01*
X26146745Y-78513992D01*
X25980149Y-78564528D01*
X25826613Y-78646595D01*
X25692038Y-78757038D01*
X25581595Y-78891613D01*
X25499528Y-79045149D01*
X25448992Y-79211745D01*
X25431928Y-79384999D01*
X25431928Y-80635001D01*
X25448992Y-80808255D01*
X25499528Y-80974851D01*
X25581595Y-81128387D01*
X25692038Y-81262962D01*
X25826613Y-81373405D01*
X25980149Y-81455472D01*
X26146745Y-81506008D01*
X26319999Y-81523072D01*
X27020001Y-81523072D01*
X27193255Y-81506008D01*
X27359851Y-81455472D01*
X27513387Y-81373405D01*
X27647962Y-81262962D01*
X27758405Y-81128387D01*
X27760810Y-81123888D01*
X27792499Y-81162502D01*
X27980552Y-81316833D01*
X28195100Y-81431511D01*
X28427899Y-81502130D01*
X28670000Y-81525975D01*
X28912102Y-81502130D01*
X29144901Y-81431511D01*
X29359449Y-81316833D01*
X29547502Y-81162502D01*
X29670001Y-81013237D01*
X29792499Y-81162502D01*
X29980552Y-81316833D01*
X30195100Y-81431511D01*
X30427899Y-81502130D01*
X30670000Y-81525975D01*
X30912102Y-81502130D01*
X31144901Y-81431511D01*
X31359449Y-81316833D01*
X31547502Y-81162502D01*
X31670001Y-81013237D01*
X31792499Y-81162502D01*
X31980552Y-81316833D01*
X32195100Y-81431511D01*
X32427899Y-81502130D01*
X32670000Y-81525975D01*
X32912102Y-81502130D01*
X33144901Y-81431511D01*
X33359449Y-81316833D01*
X33547502Y-81162502D01*
X33670001Y-81013237D01*
X33792499Y-81162502D01*
X33980552Y-81316833D01*
X34195100Y-81431511D01*
X34427899Y-81502130D01*
X34670000Y-81525975D01*
X34912102Y-81502130D01*
X35144901Y-81431511D01*
X35359449Y-81316833D01*
X35547502Y-81162502D01*
X35670001Y-81013237D01*
X35792499Y-81162502D01*
X35980552Y-81316833D01*
X36195100Y-81431511D01*
X36427899Y-81502130D01*
X36670000Y-81525975D01*
X36912102Y-81502130D01*
X37144901Y-81431511D01*
X37359449Y-81316833D01*
X37547502Y-81162502D01*
X37670001Y-81013237D01*
X37792499Y-81162502D01*
X37980552Y-81316833D01*
X38195100Y-81431511D01*
X38427899Y-81502130D01*
X38670000Y-81525975D01*
X38912102Y-81502130D01*
X39144901Y-81431511D01*
X39359449Y-81316833D01*
X39547502Y-81162502D01*
X39670001Y-81013237D01*
X39792499Y-81162502D01*
X39980552Y-81316833D01*
X40195100Y-81431511D01*
X40427899Y-81502130D01*
X40670000Y-81525975D01*
X40912102Y-81502130D01*
X41144901Y-81431511D01*
X41359449Y-81316833D01*
X41547502Y-81162502D01*
X41701833Y-80974449D01*
X41816511Y-80759900D01*
X41887130Y-80527101D01*
X41905000Y-80345664D01*
X41905000Y-79674335D01*
X41887130Y-79492898D01*
X41816511Y-79260099D01*
X41701833Y-79045551D01*
X41547502Y-78857498D01*
X41359448Y-78703167D01*
X41144900Y-78588489D01*
X40912101Y-78517870D01*
X40670000Y-78494025D01*
X40427898Y-78517870D01*
X40195099Y-78588489D01*
X39980551Y-78703167D01*
X39792498Y-78857498D01*
X39670000Y-79006763D01*
X39547502Y-78857498D01*
X39359448Y-78703167D01*
X39144900Y-78588489D01*
X38912101Y-78517870D01*
X38670000Y-78494025D01*
X38427898Y-78517870D01*
X38195099Y-78588489D01*
X37980551Y-78703167D01*
X37792498Y-78857498D01*
X37670000Y-79006763D01*
X37547502Y-78857498D01*
X37359448Y-78703167D01*
X37144900Y-78588489D01*
X36912101Y-78517870D01*
X36670000Y-78494025D01*
X36427898Y-78517870D01*
X36195099Y-78588489D01*
X35980551Y-78703167D01*
X35792498Y-78857498D01*
X35670000Y-79006763D01*
X35547502Y-78857498D01*
X35359448Y-78703167D01*
X35144900Y-78588489D01*
X34950334Y-78529468D01*
X36323045Y-77156756D01*
X36424226Y-77257937D01*
X36593744Y-77371205D01*
X36782102Y-77449226D01*
X36982061Y-77489000D01*
X37185939Y-77489000D01*
X37385898Y-77449226D01*
X37574256Y-77371205D01*
X37743774Y-77257937D01*
X37787711Y-77214000D01*
X45645436Y-77214000D01*
X45682758Y-77217676D01*
X45720080Y-77214000D01*
X45720091Y-77214000D01*
X45831744Y-77203003D01*
X45975005Y-77159546D01*
X46107034Y-77088974D01*
X46222759Y-76994001D01*
X46246562Y-76964997D01*
X53177296Y-70034264D01*
X53206294Y-70010466D01*
X53261007Y-69943798D01*
X53301267Y-69894742D01*
X53371839Y-69762712D01*
X53415280Y-69619504D01*
X53470230Y-69564554D01*
X53583498Y-69395036D01*
X53661519Y-69206678D01*
X53701293Y-69006719D01*
X53701293Y-68802841D01*
X53661519Y-68602882D01*
X53583498Y-68414524D01*
X53470230Y-68245006D01*
X53326067Y-68100843D01*
X53156549Y-67987575D01*
X52968191Y-67909554D01*
X52842846Y-67884622D01*
X52803256Y-67789043D01*
X52689988Y-67619525D01*
X52545825Y-67475362D01*
X52376307Y-67362094D01*
X52187949Y-67284073D01*
X51987990Y-67244299D01*
X51784112Y-67244299D01*
X51584153Y-67284073D01*
X51395795Y-67362094D01*
X51226277Y-67475362D01*
X51082114Y-67619525D01*
X50968846Y-67789043D01*
X50964722Y-67799000D01*
X50952061Y-67799000D01*
X50752102Y-67838774D01*
X50563744Y-67916795D01*
X50394226Y-68030063D01*
X50250063Y-68174226D01*
X50136795Y-68343744D01*
X50058774Y-68532102D01*
X50019000Y-68732061D01*
X50019000Y-68794198D01*
X49489746Y-69323452D01*
X49592182Y-69131808D01*
X49674236Y-68861309D01*
X49701943Y-68580000D01*
X49674236Y-68298691D01*
X49660708Y-68254094D01*
X51148802Y-66766000D01*
X54041199Y-66766000D01*
X54617635Y-67342437D01*
X54549463Y-67425506D01*
X54490498Y-67535820D01*
X54454188Y-67655518D01*
X54441928Y-67780000D01*
X54441928Y-69380000D01*
X54454188Y-69504482D01*
X54490498Y-69624180D01*
X54549463Y-69734494D01*
X54628815Y-69831185D01*
X54725506Y-69910537D01*
X54835820Y-69969502D01*
X54955518Y-70005812D01*
X55080000Y-70018072D01*
X55907126Y-70018072D01*
X47420357Y-78504842D01*
X47340001Y-78496928D01*
X46639999Y-78496928D01*
X46466745Y-78513992D01*
X46300149Y-78564528D01*
X46146613Y-78646595D01*
X46012038Y-78757038D01*
X45901595Y-78891613D01*
X45819528Y-79045149D01*
X45768992Y-79211745D01*
X45751928Y-79384999D01*
X45751928Y-80635001D01*
X45768992Y-80808255D01*
X45819528Y-80974851D01*
X45901595Y-81128387D01*
X46012038Y-81262962D01*
X46146613Y-81373405D01*
X46300149Y-81455472D01*
X46466745Y-81506008D01*
X46639999Y-81523072D01*
X47340001Y-81523072D01*
X47513255Y-81506008D01*
X47679851Y-81455472D01*
X47833387Y-81373405D01*
X47967962Y-81262962D01*
X48078405Y-81128387D01*
X48080810Y-81123888D01*
X48112499Y-81162502D01*
X48300552Y-81316833D01*
X48515100Y-81431511D01*
X48747899Y-81502130D01*
X48990000Y-81525975D01*
X49232102Y-81502130D01*
X49464901Y-81431511D01*
X49679449Y-81316833D01*
X49867502Y-81162502D01*
X49990001Y-81013237D01*
X50112499Y-81162502D01*
X50300552Y-81316833D01*
X50515100Y-81431511D01*
X50747899Y-81502130D01*
X50990000Y-81525975D01*
X51232102Y-81502130D01*
X51464901Y-81431511D01*
X51679449Y-81316833D01*
X51867502Y-81162502D01*
X51990001Y-81013237D01*
X52112499Y-81162502D01*
X52300552Y-81316833D01*
X52515100Y-81431511D01*
X52747899Y-81502130D01*
X52990000Y-81525975D01*
X53232102Y-81502130D01*
X53464901Y-81431511D01*
X53679449Y-81316833D01*
X53867502Y-81162502D01*
X53990001Y-81013237D01*
X54112499Y-81162502D01*
X54300552Y-81316833D01*
X54515100Y-81431511D01*
X54747899Y-81502130D01*
X54990000Y-81525975D01*
X55232102Y-81502130D01*
X55464901Y-81431511D01*
X55679449Y-81316833D01*
X55867502Y-81162502D01*
X55990001Y-81013237D01*
X56112499Y-81162502D01*
X56300552Y-81316833D01*
X56515100Y-81431511D01*
X56747899Y-81502130D01*
X56990000Y-81525975D01*
X57232102Y-81502130D01*
X57464901Y-81431511D01*
X57679449Y-81316833D01*
X57867502Y-81162502D01*
X57990001Y-81013237D01*
X58112499Y-81162502D01*
X58300552Y-81316833D01*
X58515100Y-81431511D01*
X58747899Y-81502130D01*
X58990000Y-81525975D01*
X59232102Y-81502130D01*
X59464901Y-81431511D01*
X59679449Y-81316833D01*
X59867502Y-81162502D01*
X59990001Y-81013237D01*
X60112499Y-81162502D01*
X60300552Y-81316833D01*
X60515100Y-81431511D01*
X60747899Y-81502130D01*
X60990000Y-81525975D01*
X61232102Y-81502130D01*
X61464901Y-81431511D01*
X61679449Y-81316833D01*
X61867502Y-81162502D01*
X62021833Y-80974449D01*
X62136511Y-80759900D01*
X62207130Y-80527101D01*
X62225000Y-80345664D01*
X62225000Y-79674335D01*
X62207130Y-79492898D01*
X62174400Y-79384999D01*
X66071928Y-79384999D01*
X66071928Y-80635001D01*
X66088992Y-80808255D01*
X66139528Y-80974851D01*
X66221595Y-81128387D01*
X66332038Y-81262962D01*
X66466613Y-81373405D01*
X66620149Y-81455472D01*
X66786745Y-81506008D01*
X66959999Y-81523072D01*
X67660001Y-81523072D01*
X67833255Y-81506008D01*
X67999851Y-81455472D01*
X68153387Y-81373405D01*
X68287962Y-81262962D01*
X68398405Y-81128387D01*
X68400967Y-81123594D01*
X68526526Y-81248078D01*
X68729467Y-81382421D01*
X68954718Y-81474591D01*
X68992391Y-81478462D01*
X69183000Y-81353731D01*
X69183000Y-80137000D01*
X69437000Y-80137000D01*
X69437000Y-81353731D01*
X69627609Y-81478462D01*
X69665282Y-81474591D01*
X69890533Y-81382421D01*
X70093474Y-81248078D01*
X70266307Y-81076725D01*
X70395609Y-80885000D01*
X74961928Y-80885000D01*
X74974188Y-81009482D01*
X75010498Y-81129180D01*
X75069463Y-81239494D01*
X75148815Y-81336185D01*
X75245506Y-81415537D01*
X75355820Y-81474502D01*
X75475518Y-81510812D01*
X75600000Y-81523072D01*
X75914250Y-81520000D01*
X76073000Y-81361250D01*
X76073000Y-80137000D01*
X75123750Y-80137000D01*
X74965000Y-80295750D01*
X74961928Y-80885000D01*
X70395609Y-80885000D01*
X70402390Y-80874946D01*
X70496493Y-80650496D01*
X70545000Y-80412000D01*
X70545000Y-80137000D01*
X69437000Y-80137000D01*
X69183000Y-80137000D01*
X69163000Y-80137000D01*
X69163000Y-79883000D01*
X69183000Y-79883000D01*
X69183000Y-78666269D01*
X69437000Y-78666269D01*
X69437000Y-79883000D01*
X70545000Y-79883000D01*
X70545000Y-79608000D01*
X70496493Y-79369504D01*
X70402390Y-79145054D01*
X70266307Y-78943275D01*
X70093474Y-78771922D01*
X69890533Y-78637579D01*
X69665282Y-78545409D01*
X69627609Y-78541538D01*
X69437000Y-78666269D01*
X69183000Y-78666269D01*
X68992391Y-78541538D01*
X68954718Y-78545409D01*
X68729467Y-78637579D01*
X68526526Y-78771922D01*
X68400967Y-78896406D01*
X68398405Y-78891613D01*
X68287962Y-78757038D01*
X68153387Y-78646595D01*
X67999851Y-78564528D01*
X67833255Y-78513992D01*
X67660001Y-78496928D01*
X66959999Y-78496928D01*
X66786745Y-78513992D01*
X66620149Y-78564528D01*
X66466613Y-78646595D01*
X66332038Y-78757038D01*
X66221595Y-78891613D01*
X66139528Y-79045149D01*
X66088992Y-79211745D01*
X66071928Y-79384999D01*
X62174400Y-79384999D01*
X62136511Y-79260099D01*
X62021833Y-79045551D01*
X61867502Y-78857498D01*
X61679448Y-78703167D01*
X61464900Y-78588489D01*
X61232101Y-78517870D01*
X60990000Y-78494025D01*
X60747898Y-78517870D01*
X60515099Y-78588489D01*
X60300551Y-78703167D01*
X60112498Y-78857498D01*
X59990000Y-79006763D01*
X59867502Y-78857498D01*
X59679448Y-78703167D01*
X59464900Y-78588489D01*
X59232101Y-78517870D01*
X58990000Y-78494025D01*
X58747898Y-78517870D01*
X58515099Y-78588489D01*
X58300551Y-78703167D01*
X58112498Y-78857498D01*
X57990000Y-79006763D01*
X57867502Y-78857498D01*
X57679448Y-78703167D01*
X57464900Y-78588489D01*
X57232101Y-78517870D01*
X56990000Y-78494025D01*
X56747898Y-78517870D01*
X56515099Y-78588489D01*
X56300551Y-78703167D01*
X56112498Y-78857498D01*
X55990000Y-79006763D01*
X55867502Y-78857498D01*
X55679448Y-78703167D01*
X55464900Y-78588489D01*
X55270333Y-78529468D01*
X61984771Y-71815031D01*
X66067647Y-71815031D01*
X66104969Y-71818707D01*
X66142291Y-71815031D01*
X66142302Y-71815031D01*
X66253955Y-71804034D01*
X66397216Y-71760577D01*
X66529245Y-71690005D01*
X66644970Y-71595032D01*
X66668773Y-71566028D01*
X68254094Y-69980708D01*
X68298691Y-69994236D01*
X68509508Y-70015000D01*
X68650492Y-70015000D01*
X68861309Y-69994236D01*
X69131808Y-69912182D01*
X69381101Y-69778932D01*
X69599608Y-69599608D01*
X69778932Y-69381101D01*
X69850000Y-69248142D01*
X69921068Y-69381101D01*
X70100392Y-69599608D01*
X70318899Y-69778932D01*
X70568192Y-69912182D01*
X70838691Y-69994236D01*
X71049508Y-70015000D01*
X71150199Y-70015000D01*
X70805199Y-70360000D01*
X69283711Y-70360000D01*
X69239774Y-70316063D01*
X69070256Y-70202795D01*
X68881898Y-70124774D01*
X68681939Y-70085000D01*
X68478061Y-70085000D01*
X68278102Y-70124774D01*
X68089744Y-70202795D01*
X67920226Y-70316063D01*
X67776063Y-70460226D01*
X67662795Y-70629744D01*
X67584774Y-70818102D01*
X67545000Y-71018061D01*
X67545000Y-71221939D01*
X67584774Y-71421898D01*
X67662795Y-71610256D01*
X67776063Y-71779774D01*
X67920226Y-71923937D01*
X68089744Y-72037205D01*
X68278102Y-72115226D01*
X68478061Y-72155000D01*
X68681939Y-72155000D01*
X68881898Y-72115226D01*
X69070256Y-72037205D01*
X69239774Y-71923937D01*
X69283711Y-71880000D01*
X71082678Y-71880000D01*
X71120000Y-71883676D01*
X71157322Y-71880000D01*
X71157333Y-71880000D01*
X71268986Y-71869003D01*
X71412247Y-71825546D01*
X71544276Y-71754974D01*
X71660001Y-71660001D01*
X71683804Y-71630997D01*
X73334094Y-69980708D01*
X73378691Y-69994236D01*
X73589508Y-70015000D01*
X73730492Y-70015000D01*
X73941309Y-69994236D01*
X74211808Y-69912182D01*
X74461101Y-69778932D01*
X74679608Y-69599608D01*
X74858932Y-69381101D01*
X74992182Y-69131808D01*
X75074236Y-68861309D01*
X75101943Y-68580000D01*
X75074236Y-68298691D01*
X74992182Y-68028192D01*
X74858932Y-67778899D01*
X74679608Y-67560392D01*
X74461101Y-67381068D01*
X74211808Y-67247818D01*
X73941309Y-67165764D01*
X73730492Y-67145000D01*
X73589508Y-67145000D01*
X73378691Y-67165764D01*
X73296133Y-67190807D01*
X73298675Y-67165001D01*
X73294999Y-67127676D01*
X73294999Y-63599831D01*
X73895000Y-64199833D01*
X73895000Y-64261970D01*
X73934774Y-64461929D01*
X74012795Y-64650287D01*
X74126063Y-64819805D01*
X74270226Y-64963968D01*
X74439744Y-65077236D01*
X74628102Y-65155257D01*
X74828061Y-65195031D01*
X75031939Y-65195031D01*
X75231898Y-65155257D01*
X75420256Y-65077236D01*
X75589774Y-64963968D01*
X75733937Y-64819805D01*
X75847205Y-64650287D01*
X75925226Y-64461929D01*
X75965000Y-64261970D01*
X75965000Y-64058092D01*
X75925226Y-63858133D01*
X75847205Y-63669775D01*
X75733937Y-63500257D01*
X75589774Y-63356094D01*
X75420256Y-63242826D01*
X75231898Y-63164805D01*
X75031939Y-63125031D01*
X74969802Y-63125031D01*
X74420000Y-62575230D01*
X74420000Y-62180901D01*
X74461101Y-62158932D01*
X74679608Y-61979608D01*
X74858932Y-61761101D01*
X74992182Y-61511808D01*
X75074236Y-61241309D01*
X75101943Y-60960000D01*
X75074236Y-60678691D01*
X74992182Y-60408192D01*
X74858932Y-60158899D01*
X74679608Y-59940392D01*
X74461101Y-59761068D01*
X74335739Y-59694060D01*
X81686800Y-52343000D01*
X81790000Y-52343000D01*
X81790000Y-68871332D01*
X81790001Y-68871341D01*
X81790000Y-69812677D01*
X81786324Y-69850000D01*
X81790000Y-69887322D01*
X81790000Y-69887332D01*
X81800997Y-69998985D01*
X81829825Y-70094019D01*
X81844454Y-70142246D01*
X81915026Y-70274276D01*
X81946621Y-70312774D01*
X82009999Y-70390001D01*
X82039003Y-70413804D01*
X87155199Y-75530001D01*
X77417322Y-75530001D01*
X77379999Y-75526325D01*
X77342676Y-75530001D01*
X77342666Y-75530001D01*
X77231013Y-75540998D01*
X77087752Y-75584455D01*
X76955722Y-75655027D01*
X76883881Y-75713986D01*
X76839998Y-75750000D01*
X76816200Y-75778998D01*
X76027699Y-76567500D01*
X75965561Y-76567500D01*
X75765602Y-76607274D01*
X75577244Y-76685295D01*
X75407726Y-76798563D01*
X75263563Y-76942726D01*
X75150295Y-77112244D01*
X75072274Y-77300602D01*
X75032500Y-77500561D01*
X75032500Y-77704439D01*
X75072274Y-77904398D01*
X75150295Y-78092756D01*
X75263563Y-78262274D01*
X75407726Y-78406437D01*
X75550458Y-78501807D01*
X75475518Y-78509188D01*
X75355820Y-78545498D01*
X75245506Y-78604463D01*
X75148815Y-78683815D01*
X75069463Y-78780506D01*
X75010498Y-78890820D01*
X74974188Y-79010518D01*
X74961928Y-79135000D01*
X74965000Y-79724250D01*
X75123750Y-79883000D01*
X76073000Y-79883000D01*
X76073000Y-79863000D01*
X76327000Y-79863000D01*
X76327000Y-79883000D01*
X76347000Y-79883000D01*
X76347000Y-80137000D01*
X76327000Y-80137000D01*
X76327000Y-81361250D01*
X76485750Y-81520000D01*
X76800000Y-81523072D01*
X76924482Y-81510812D01*
X77044180Y-81474502D01*
X77154494Y-81415537D01*
X77251185Y-81336185D01*
X77330537Y-81239494D01*
X77356692Y-81190563D01*
X77510552Y-81316833D01*
X77725100Y-81431511D01*
X77957899Y-81502130D01*
X78200000Y-81525975D01*
X78442102Y-81502130D01*
X78674901Y-81431511D01*
X78889449Y-81316833D01*
X79077502Y-81162502D01*
X79200001Y-81013237D01*
X79322499Y-81162502D01*
X79510552Y-81316833D01*
X79725100Y-81431511D01*
X79957899Y-81502130D01*
X80200000Y-81525975D01*
X80442102Y-81502130D01*
X80674901Y-81431511D01*
X80889449Y-81316833D01*
X81077502Y-81162502D01*
X81200001Y-81013237D01*
X81322499Y-81162502D01*
X81510552Y-81316833D01*
X81725100Y-81431511D01*
X81957899Y-81502130D01*
X82200000Y-81525975D01*
X82442102Y-81502130D01*
X82674901Y-81431511D01*
X82889449Y-81316833D01*
X83077502Y-81162502D01*
X83231833Y-80974449D01*
X83346511Y-80759900D01*
X83417130Y-80527101D01*
X83435000Y-80345664D01*
X83435000Y-79674335D01*
X83417130Y-79492898D01*
X83346511Y-79260099D01*
X83231833Y-79045551D01*
X83077502Y-78857498D01*
X82889448Y-78703167D01*
X82674900Y-78588489D01*
X82442101Y-78517870D01*
X82200000Y-78494025D01*
X81957898Y-78517870D01*
X81725099Y-78588489D01*
X81510551Y-78703167D01*
X81322498Y-78857498D01*
X81200000Y-79006763D01*
X81077502Y-78857498D01*
X80889448Y-78703167D01*
X80674900Y-78588489D01*
X80442101Y-78517870D01*
X80200000Y-78494025D01*
X79957898Y-78517870D01*
X79725099Y-78588489D01*
X79510551Y-78703167D01*
X79322498Y-78857498D01*
X79200000Y-79006763D01*
X79077502Y-78857498D01*
X78889448Y-78703167D01*
X78674900Y-78588489D01*
X78442101Y-78517870D01*
X78200000Y-78494025D01*
X77957898Y-78517870D01*
X77725099Y-78588489D01*
X77510551Y-78703167D01*
X77356691Y-78829436D01*
X77330537Y-78780506D01*
X77251185Y-78683815D01*
X77154494Y-78604463D01*
X77044180Y-78545498D01*
X76924482Y-78509188D01*
X76800000Y-78496928D01*
X76588754Y-78498993D01*
X76727274Y-78406437D01*
X76871437Y-78262274D01*
X76984705Y-78092756D01*
X77023785Y-77998408D01*
X83669347Y-77998408D01*
X83669347Y-78202286D01*
X83709121Y-78402245D01*
X83787142Y-78590603D01*
X83900410Y-78760121D01*
X83944348Y-78804059D01*
X83944347Y-81873024D01*
X83940671Y-81910347D01*
X83944347Y-81947669D01*
X83944347Y-81947679D01*
X83955344Y-82059332D01*
X83979803Y-82139963D01*
X83998801Y-82202593D01*
X84069373Y-82334623D01*
X84083645Y-82352013D01*
X84164346Y-82450348D01*
X84193349Y-82474150D01*
X84309000Y-82589801D01*
X84309000Y-82651939D01*
X84348774Y-82851898D01*
X84426795Y-83040256D01*
X84540063Y-83209774D01*
X84684226Y-83353937D01*
X84853744Y-83467205D01*
X85042102Y-83545226D01*
X85242061Y-83585000D01*
X85445939Y-83585000D01*
X85645898Y-83545226D01*
X85834256Y-83467205D01*
X86003774Y-83353937D01*
X86147937Y-83209774D01*
X86261205Y-83040256D01*
X86339226Y-82851898D01*
X86379000Y-82651939D01*
X86379000Y-82448061D01*
X86339226Y-82248102D01*
X86261205Y-82059744D01*
X86147937Y-81890226D01*
X86003774Y-81746063D01*
X85834256Y-81632795D01*
X85645898Y-81554774D01*
X85464347Y-81518662D01*
X85464347Y-81030817D01*
X86370000Y-81030817D01*
X86370000Y-81529183D01*
X86467226Y-82017974D01*
X86657943Y-82478405D01*
X86934820Y-82892781D01*
X87287219Y-83245180D01*
X87701595Y-83522057D01*
X88162026Y-83712774D01*
X88650817Y-83810000D01*
X89149183Y-83810000D01*
X89637974Y-83712774D01*
X90098405Y-83522057D01*
X90512781Y-83245180D01*
X90865180Y-82892781D01*
X91142057Y-82478405D01*
X91332774Y-82017974D01*
X91430000Y-81529183D01*
X91430000Y-81030817D01*
X91332774Y-80542026D01*
X91142057Y-80081595D01*
X90865180Y-79667219D01*
X90512781Y-79314820D01*
X90098405Y-79037943D01*
X89637974Y-78847226D01*
X89149183Y-78750000D01*
X88650817Y-78750000D01*
X88162026Y-78847226D01*
X87701595Y-79037943D01*
X87287219Y-79314820D01*
X86934820Y-79667219D01*
X86657943Y-80081595D01*
X86467226Y-80542026D01*
X86370000Y-81030817D01*
X85464347Y-81030817D01*
X85464347Y-78804058D01*
X85508284Y-78760121D01*
X85621552Y-78590603D01*
X85699573Y-78402245D01*
X85739347Y-78202286D01*
X85739347Y-77998408D01*
X85699573Y-77798449D01*
X85621552Y-77610091D01*
X85508284Y-77440573D01*
X85364121Y-77296410D01*
X85194603Y-77183142D01*
X85006245Y-77105121D01*
X84806286Y-77065347D01*
X84602408Y-77065347D01*
X84402449Y-77105121D01*
X84214091Y-77183142D01*
X84044573Y-77296410D01*
X83900410Y-77440573D01*
X83787142Y-77610091D01*
X83709121Y-77798449D01*
X83669347Y-77998408D01*
X77023785Y-77998408D01*
X77062726Y-77904398D01*
X77102500Y-77704439D01*
X77102500Y-77642301D01*
X77694801Y-77050001D01*
X88575679Y-77050001D01*
X88613001Y-77053677D01*
X88650323Y-77050001D01*
X88650334Y-77050001D01*
X88761987Y-77039004D01*
X88905248Y-76995547D01*
X89037277Y-76924975D01*
X89153002Y-76830002D01*
X89176805Y-76800998D01*
X89500998Y-76476805D01*
X89530002Y-76453002D01*
X89624975Y-76337277D01*
X89695547Y-76205248D01*
X89739004Y-76061987D01*
X89750001Y-75950334D01*
X89753678Y-75913001D01*
X89750001Y-75875668D01*
X89750001Y-44069324D01*
X89753677Y-44032001D01*
X89750001Y-43994678D01*
X89750001Y-43994668D01*
X89739004Y-43883015D01*
X89695547Y-43739754D01*
X89624975Y-43607725D01*
X89530002Y-43492000D01*
X89501005Y-43468203D01*
X88665000Y-42632199D01*
X88665000Y-42570061D01*
X88625226Y-42370102D01*
X88547205Y-42181744D01*
X88433937Y-42012226D01*
X88289774Y-41868063D01*
X88120256Y-41754795D01*
X87931898Y-41676774D01*
X87731939Y-41637000D01*
X87528061Y-41637000D01*
X87328102Y-41676774D01*
X87139744Y-41754795D01*
X86970226Y-41868063D01*
X86826063Y-42012226D01*
X86712795Y-42181744D01*
X86634774Y-42370102D01*
X86595000Y-42570061D01*
X86595000Y-42773939D01*
X86634774Y-42973898D01*
X86712795Y-43162256D01*
X86826063Y-43331774D01*
X86970226Y-43475937D01*
X87139744Y-43589205D01*
X87328102Y-43667226D01*
X87528061Y-43707000D01*
X87590199Y-43707000D01*
X88230001Y-44346803D01*
X88230001Y-51156890D01*
X88205972Y-51137170D01*
X85035000Y-47966199D01*
X85035000Y-47904061D01*
X84995226Y-47704102D01*
X84917205Y-47515744D01*
X84803937Y-47346226D01*
X84659774Y-47202063D01*
X84490256Y-47088795D01*
X84301898Y-47010774D01*
X84101939Y-46971000D01*
X84035000Y-46971000D01*
X84035000Y-40835711D01*
X84078937Y-40791774D01*
X84192205Y-40622256D01*
X84270226Y-40433898D01*
X84310000Y-40233939D01*
X84310000Y-40030061D01*
X84270226Y-39830102D01*
X84192205Y-39641744D01*
X84078937Y-39472226D01*
X84027712Y-39421001D01*
X84081706Y-39415683D01*
X84333354Y-39339347D01*
X84565275Y-39215382D01*
X84768555Y-39048555D01*
X84935382Y-38845275D01*
X85059347Y-38613354D01*
X85135683Y-38361706D01*
X85161459Y-38100000D01*
X85135683Y-37838294D01*
X85059347Y-37586646D01*
X84935382Y-37354725D01*
X84768555Y-37151445D01*
X84565275Y-36984618D01*
X84333354Y-36860653D01*
X84081706Y-36784317D01*
X83885579Y-36765000D01*
X83754421Y-36765000D01*
X83558294Y-36784317D01*
X83310000Y-36859636D01*
X83310000Y-34358313D01*
X83528505Y-34212312D01*
X83742312Y-33998505D01*
X83910299Y-33747095D01*
X84026011Y-33467743D01*
X84085000Y-33171184D01*
X84085000Y-32868816D01*
X84065507Y-32770817D01*
X86370000Y-32770817D01*
X86370000Y-33269183D01*
X86467226Y-33757974D01*
X86657943Y-34218405D01*
X86934820Y-34632781D01*
X87287219Y-34985180D01*
X87701595Y-35262057D01*
X88162026Y-35452774D01*
X88650817Y-35550000D01*
X89149183Y-35550000D01*
X89637974Y-35452774D01*
X90098405Y-35262057D01*
X90512781Y-34985180D01*
X90865180Y-34632781D01*
X91142057Y-34218405D01*
X91332774Y-33757974D01*
X91430000Y-33269183D01*
X91430000Y-32770817D01*
X91332774Y-32282026D01*
X91142057Y-31821595D01*
X90865180Y-31407219D01*
X90512781Y-31054820D01*
X90098405Y-30777943D01*
X89637974Y-30587226D01*
X89149183Y-30490000D01*
X88650817Y-30490000D01*
X88162026Y-30587226D01*
X87701595Y-30777943D01*
X87287219Y-31054820D01*
X86934820Y-31407219D01*
X86657943Y-31821595D01*
X86467226Y-32282026D01*
X86370000Y-32770817D01*
X84065507Y-32770817D01*
X84026011Y-32572257D01*
X83910299Y-32292905D01*
X83742312Y-32041495D01*
X83528505Y-31827688D01*
X83277095Y-31659701D01*
X82997743Y-31543989D01*
X82701184Y-31485000D01*
X82398816Y-31485000D01*
X82102257Y-31543989D01*
X81822905Y-31659701D01*
X81571495Y-31827688D01*
X81505056Y-31894127D01*
X81499502Y-31875820D01*
X81440537Y-31765506D01*
X81361185Y-31668815D01*
X81264494Y-31589463D01*
X81154180Y-31530498D01*
X81034482Y-31494188D01*
X80910000Y-31481928D01*
X79110000Y-31481928D01*
X78985518Y-31494188D01*
X78865820Y-31530498D01*
X78755506Y-31589463D01*
X78658815Y-31668815D01*
X78579463Y-31765506D01*
X78520498Y-31875820D01*
X78484188Y-31995518D01*
X78471928Y-32120000D01*
X78471928Y-33920000D01*
X78484188Y-34044482D01*
X78520498Y-34164180D01*
X78579463Y-34274494D01*
X78658815Y-34371185D01*
X78755506Y-34450537D01*
X78865820Y-34509502D01*
X78985518Y-34545812D01*
X79110000Y-34558072D01*
X80910000Y-34558072D01*
X81034482Y-34545812D01*
X81154180Y-34509502D01*
X81264494Y-34450537D01*
X81361185Y-34371185D01*
X81440537Y-34274494D01*
X81499502Y-34164180D01*
X81505056Y-34145873D01*
X81571495Y-34212312D01*
X81790001Y-34358313D01*
X81790001Y-50273000D01*
X81686061Y-50273000D01*
X81486102Y-50312774D01*
X81297744Y-50390795D01*
X81128226Y-50504063D01*
X80984063Y-50648226D01*
X80870795Y-50817744D01*
X80792774Y-51006102D01*
X80772582Y-51107614D01*
X72029867Y-59850330D01*
X71921101Y-59761068D01*
X71671808Y-59627818D01*
X71401309Y-59545764D01*
X71190492Y-59525000D01*
X71049508Y-59525000D01*
X70838691Y-59545764D01*
X70794094Y-59559292D01*
X69651804Y-58417003D01*
X69628001Y-58387999D01*
X69512276Y-58293026D01*
X69380247Y-58222454D01*
X69236986Y-58178997D01*
X69125333Y-58168000D01*
X69125322Y-58168000D01*
X69088000Y-58164324D01*
X69050678Y-58168000D01*
X62425711Y-58168000D01*
X62381774Y-58124063D01*
X62212256Y-58010795D01*
X62023898Y-57932774D01*
X61823939Y-57893000D01*
X61720000Y-57893000D01*
X61720000Y-53885333D01*
X61723677Y-53848000D01*
X61709003Y-53699014D01*
X61665546Y-53555753D01*
X61594974Y-53423724D01*
X61523799Y-53336997D01*
X61500001Y-53307999D01*
X61471004Y-53284202D01*
X52633804Y-44447003D01*
X52610001Y-44417999D01*
X52494276Y-44323026D01*
X52362247Y-44252454D01*
X52218986Y-44208997D01*
X52107333Y-44198000D01*
X52107322Y-44198000D01*
X52070000Y-44194324D01*
X52032678Y-44198000D01*
X48709711Y-44198000D01*
X48665774Y-44154063D01*
X48496256Y-44040795D01*
X48307898Y-43962774D01*
X48107939Y-43923000D01*
X47972006Y-43923000D01*
X47972006Y-41146330D01*
X47975682Y-41109007D01*
X47972006Y-41071684D01*
X47972006Y-41071675D01*
X47961009Y-40960022D01*
X47917552Y-40816761D01*
X47846980Y-40684732D01*
X47752007Y-40569007D01*
X47723009Y-40545209D01*
X46418294Y-39240494D01*
X46465275Y-39215382D01*
X46668555Y-39048555D01*
X46835382Y-38845275D01*
X46959347Y-38613354D01*
X46988220Y-38518172D01*
X47076939Y-38732359D01*
X47223038Y-38951013D01*
X47408987Y-39136962D01*
X47627641Y-39283061D01*
X47870595Y-39383696D01*
X48128514Y-39435000D01*
X48391486Y-39435000D01*
X48649405Y-39383696D01*
X48892359Y-39283061D01*
X49111013Y-39136962D01*
X49296962Y-38951013D01*
X49443061Y-38732359D01*
X49543696Y-38489405D01*
X49595000Y-38231486D01*
X49595000Y-37968514D01*
X49543696Y-37710595D01*
X49443061Y-37467641D01*
X49296962Y-37248987D01*
X49111013Y-37063038D01*
X48892359Y-36916939D01*
X48649405Y-36816304D01*
X48391486Y-36765000D01*
X48128514Y-36765000D01*
X47870595Y-36816304D01*
X47627641Y-36916939D01*
X47408987Y-37063038D01*
X47223038Y-37248987D01*
X47076939Y-37467641D01*
X46988220Y-37681828D01*
X46959347Y-37586646D01*
X46835382Y-37354725D01*
X46668555Y-37151445D01*
X46465275Y-36984618D01*
X46233354Y-36860653D01*
X45981706Y-36784317D01*
X45785579Y-36765000D01*
X45654421Y-36765000D01*
X45458294Y-36784317D01*
X45210000Y-36859636D01*
X45210000Y-34358313D01*
X45428505Y-34212312D01*
X45642312Y-33998505D01*
X45810299Y-33747095D01*
X45926011Y-33467743D01*
X45985000Y-33171184D01*
X45985000Y-32868816D01*
X45926011Y-32572257D01*
X45810299Y-32292905D01*
X45694768Y-32120000D01*
X47991928Y-32120000D01*
X47991928Y-33920000D01*
X48004188Y-34044482D01*
X48040498Y-34164180D01*
X48099463Y-34274494D01*
X48178815Y-34371185D01*
X48275506Y-34450537D01*
X48385820Y-34509502D01*
X48505518Y-34545812D01*
X48630000Y-34558072D01*
X50430000Y-34558072D01*
X50554482Y-34545812D01*
X50674180Y-34509502D01*
X50784494Y-34450537D01*
X50881185Y-34371185D01*
X50960537Y-34274494D01*
X51019502Y-34164180D01*
X51025056Y-34145873D01*
X51091495Y-34212312D01*
X51310001Y-34358313D01*
X51310000Y-38309679D01*
X51306324Y-38347002D01*
X51310000Y-38384324D01*
X51310000Y-38384334D01*
X51320997Y-38495987D01*
X51355886Y-38611002D01*
X51364454Y-38639248D01*
X51435026Y-38771278D01*
X51474871Y-38819828D01*
X51529999Y-38887003D01*
X51559003Y-38910806D01*
X53799199Y-41151003D01*
X53822997Y-41180001D01*
X53938722Y-41274974D01*
X54070751Y-41345546D01*
X54214012Y-41389003D01*
X54325665Y-41400000D01*
X54325675Y-41400000D01*
X54362998Y-41403676D01*
X54400321Y-41400000D01*
X63050289Y-41400000D01*
X63094226Y-41443937D01*
X63263744Y-41557205D01*
X63452102Y-41635226D01*
X63652061Y-41675000D01*
X63761467Y-41675000D01*
X63735000Y-41808061D01*
X63735000Y-42011939D01*
X63774774Y-42211898D01*
X63852795Y-42400256D01*
X63966063Y-42569774D01*
X64110226Y-42713937D01*
X64279744Y-42827205D01*
X64468102Y-42905226D01*
X64668061Y-42945000D01*
X64871939Y-42945000D01*
X65071898Y-42905226D01*
X65260256Y-42827205D01*
X65429774Y-42713937D01*
X65573937Y-42569774D01*
X65687205Y-42400256D01*
X65765226Y-42211898D01*
X65805000Y-42011939D01*
X65805000Y-41808061D01*
X65765226Y-41608102D01*
X65687205Y-41419744D01*
X65573937Y-41250226D01*
X65530000Y-41206289D01*
X65530000Y-40620320D01*
X65533676Y-40582997D01*
X65530000Y-40545674D01*
X65530000Y-40545665D01*
X65519003Y-40434012D01*
X65475546Y-40290751D01*
X65404974Y-40158722D01*
X65310001Y-40042997D01*
X65281004Y-40019200D01*
X64665804Y-39404001D01*
X64642002Y-39374998D01*
X64526277Y-39280025D01*
X64394248Y-39209453D01*
X64289896Y-39177799D01*
X64351013Y-39136962D01*
X64536962Y-38951013D01*
X64683061Y-38732359D01*
X64783696Y-38489405D01*
X64835000Y-38231486D01*
X64835000Y-38100000D01*
X67238541Y-38100000D01*
X67264317Y-38361706D01*
X67340653Y-38613354D01*
X67464618Y-38845275D01*
X67631445Y-39048555D01*
X67834725Y-39215382D01*
X68066646Y-39339347D01*
X68318294Y-39415683D01*
X68514421Y-39435000D01*
X68645579Y-39435000D01*
X68841706Y-39415683D01*
X69093354Y-39339347D01*
X69325275Y-39215382D01*
X69528555Y-39048555D01*
X69695382Y-38845275D01*
X69819347Y-38613354D01*
X69848220Y-38518172D01*
X69936939Y-38732359D01*
X70083038Y-38951013D01*
X70268987Y-39136962D01*
X70487641Y-39283061D01*
X70730595Y-39383696D01*
X70988514Y-39435000D01*
X71251486Y-39435000D01*
X71509405Y-39383696D01*
X71752359Y-39283061D01*
X71971013Y-39136962D01*
X72156962Y-38951013D01*
X72303061Y-38732359D01*
X72403696Y-38489405D01*
X72455000Y-38231486D01*
X72455000Y-38100000D01*
X74858541Y-38100000D01*
X74884317Y-38361706D01*
X74960653Y-38613354D01*
X75084618Y-38845275D01*
X75251445Y-39048555D01*
X75454725Y-39215382D01*
X75686646Y-39339347D01*
X75938294Y-39415683D01*
X76134421Y-39435000D01*
X76265579Y-39435000D01*
X76461706Y-39415683D01*
X76713354Y-39339347D01*
X76945275Y-39215382D01*
X77148555Y-39048555D01*
X77315382Y-38845275D01*
X77439347Y-38613354D01*
X77468220Y-38518172D01*
X77556939Y-38732359D01*
X77703038Y-38951013D01*
X77888987Y-39136962D01*
X78107641Y-39283061D01*
X78350595Y-39383696D01*
X78608514Y-39435000D01*
X78871486Y-39435000D01*
X79129405Y-39383696D01*
X79372359Y-39283061D01*
X79591013Y-39136962D01*
X79776962Y-38951013D01*
X79923061Y-38732359D01*
X80023696Y-38489405D01*
X80075000Y-38231486D01*
X80075000Y-37968514D01*
X80023696Y-37710595D01*
X79923061Y-37467641D01*
X79776962Y-37248987D01*
X79591013Y-37063038D01*
X79372359Y-36916939D01*
X79129405Y-36816304D01*
X78871486Y-36765000D01*
X78608514Y-36765000D01*
X78350595Y-36816304D01*
X78107641Y-36916939D01*
X77888987Y-37063038D01*
X77703038Y-37248987D01*
X77556939Y-37467641D01*
X77468220Y-37681828D01*
X77439347Y-37586646D01*
X77315382Y-37354725D01*
X77148555Y-37151445D01*
X76945275Y-36984618D01*
X76713354Y-36860653D01*
X76461706Y-36784317D01*
X76265579Y-36765000D01*
X76134421Y-36765000D01*
X75938294Y-36784317D01*
X75686646Y-36860653D01*
X75454725Y-36984618D01*
X75251445Y-37151445D01*
X75084618Y-37354725D01*
X74960653Y-37586646D01*
X74884317Y-37838294D01*
X74858541Y-38100000D01*
X72455000Y-38100000D01*
X72455000Y-37968514D01*
X72403696Y-37710595D01*
X72303061Y-37467641D01*
X72156962Y-37248987D01*
X71971013Y-37063038D01*
X71752359Y-36916939D01*
X71509405Y-36816304D01*
X71251486Y-36765000D01*
X70988514Y-36765000D01*
X70730595Y-36816304D01*
X70487641Y-36916939D01*
X70268987Y-37063038D01*
X70083038Y-37248987D01*
X69936939Y-37467641D01*
X69848220Y-37681828D01*
X69819347Y-37586646D01*
X69695382Y-37354725D01*
X69528555Y-37151445D01*
X69325275Y-36984618D01*
X69093354Y-36860653D01*
X68841706Y-36784317D01*
X68645579Y-36765000D01*
X68514421Y-36765000D01*
X68318294Y-36784317D01*
X68066646Y-36860653D01*
X67834725Y-36984618D01*
X67631445Y-37151445D01*
X67464618Y-37354725D01*
X67340653Y-37586646D01*
X67264317Y-37838294D01*
X67238541Y-38100000D01*
X64835000Y-38100000D01*
X64835000Y-37968514D01*
X64783696Y-37710595D01*
X64683061Y-37467641D01*
X64536962Y-37248987D01*
X64351013Y-37063038D01*
X64132359Y-36916939D01*
X63889405Y-36816304D01*
X63631486Y-36765000D01*
X63368514Y-36765000D01*
X63110595Y-36816304D01*
X62867641Y-36916939D01*
X62648987Y-37063038D01*
X62463038Y-37248987D01*
X62316939Y-37467641D01*
X62228220Y-37681828D01*
X62199347Y-37586646D01*
X62075382Y-37354725D01*
X61908555Y-37151445D01*
X61705275Y-36984618D01*
X61473354Y-36860653D01*
X61221706Y-36784317D01*
X61025579Y-36765000D01*
X60894421Y-36765000D01*
X60698294Y-36784317D01*
X60446646Y-36860653D01*
X60214725Y-36984618D01*
X60011445Y-37151445D01*
X59844618Y-37354725D01*
X59720653Y-37586646D01*
X59644317Y-37838294D01*
X59618541Y-38100000D01*
X59644317Y-38361706D01*
X59720653Y-38613354D01*
X59844618Y-38845275D01*
X60011445Y-39048555D01*
X60214725Y-39215382D01*
X60446646Y-39339347D01*
X60698294Y-39415683D01*
X60894421Y-39435000D01*
X61025579Y-39435000D01*
X61202749Y-39417550D01*
X61665198Y-39880000D01*
X54677800Y-39880000D01*
X54038294Y-39240494D01*
X54085275Y-39215382D01*
X54288555Y-39048555D01*
X54455382Y-38845275D01*
X54579347Y-38613354D01*
X54608220Y-38518172D01*
X54696939Y-38732359D01*
X54843038Y-38951013D01*
X55028987Y-39136962D01*
X55247641Y-39283061D01*
X55490595Y-39383696D01*
X55748514Y-39435000D01*
X56011486Y-39435000D01*
X56269405Y-39383696D01*
X56512359Y-39283061D01*
X56731013Y-39136962D01*
X56916962Y-38951013D01*
X57063061Y-38732359D01*
X57163696Y-38489405D01*
X57215000Y-38231486D01*
X57215000Y-37968514D01*
X57163696Y-37710595D01*
X57063061Y-37467641D01*
X56916962Y-37248987D01*
X56731013Y-37063038D01*
X56512359Y-36916939D01*
X56269405Y-36816304D01*
X56011486Y-36765000D01*
X55748514Y-36765000D01*
X55490595Y-36816304D01*
X55247641Y-36916939D01*
X55028987Y-37063038D01*
X54843038Y-37248987D01*
X54696939Y-37467641D01*
X54608220Y-37681828D01*
X54579347Y-37586646D01*
X54455382Y-37354725D01*
X54288555Y-37151445D01*
X54085275Y-36984618D01*
X53853354Y-36860653D01*
X53601706Y-36784317D01*
X53405579Y-36765000D01*
X53274421Y-36765000D01*
X53078294Y-36784317D01*
X52830000Y-36859636D01*
X52830000Y-34358313D01*
X53048505Y-34212312D01*
X53262312Y-33998505D01*
X53430299Y-33747095D01*
X53546011Y-33467743D01*
X53605000Y-33171184D01*
X53605000Y-32868816D01*
X53546011Y-32572257D01*
X53430299Y-32292905D01*
X53314768Y-32120000D01*
X55611928Y-32120000D01*
X55611928Y-33920000D01*
X55624188Y-34044482D01*
X55660498Y-34164180D01*
X55719463Y-34274494D01*
X55798815Y-34371185D01*
X55895506Y-34450537D01*
X56005820Y-34509502D01*
X56125518Y-34545812D01*
X56250000Y-34558072D01*
X58050000Y-34558072D01*
X58174482Y-34545812D01*
X58294180Y-34509502D01*
X58404494Y-34450537D01*
X58501185Y-34371185D01*
X58580537Y-34274494D01*
X58639502Y-34164180D01*
X58645056Y-34145873D01*
X58711495Y-34212312D01*
X58962905Y-34380299D01*
X59242257Y-34496011D01*
X59538816Y-34555000D01*
X59841184Y-34555000D01*
X60137743Y-34496011D01*
X60417095Y-34380299D01*
X60668505Y-34212312D01*
X60882312Y-33998505D01*
X61050299Y-33747095D01*
X61166011Y-33467743D01*
X61225000Y-33171184D01*
X61225000Y-32868816D01*
X61166011Y-32572257D01*
X61050299Y-32292905D01*
X60934768Y-32120000D01*
X63231928Y-32120000D01*
X63231928Y-33920000D01*
X63244188Y-34044482D01*
X63280498Y-34164180D01*
X63339463Y-34274494D01*
X63418815Y-34371185D01*
X63515506Y-34450537D01*
X63625820Y-34509502D01*
X63745518Y-34545812D01*
X63870000Y-34558072D01*
X65670000Y-34558072D01*
X65794482Y-34545812D01*
X65914180Y-34509502D01*
X66024494Y-34450537D01*
X66121185Y-34371185D01*
X66200537Y-34274494D01*
X66259502Y-34164180D01*
X66265056Y-34145873D01*
X66331495Y-34212312D01*
X66582905Y-34380299D01*
X66862257Y-34496011D01*
X67158816Y-34555000D01*
X67461184Y-34555000D01*
X67757743Y-34496011D01*
X68037095Y-34380299D01*
X68288505Y-34212312D01*
X68502312Y-33998505D01*
X68670299Y-33747095D01*
X68786011Y-33467743D01*
X68845000Y-33171184D01*
X68845000Y-32868816D01*
X68786011Y-32572257D01*
X68670299Y-32292905D01*
X68554768Y-32120000D01*
X70851928Y-32120000D01*
X70851928Y-33920000D01*
X70864188Y-34044482D01*
X70900498Y-34164180D01*
X70959463Y-34274494D01*
X71038815Y-34371185D01*
X71135506Y-34450537D01*
X71245820Y-34509502D01*
X71365518Y-34545812D01*
X71490000Y-34558072D01*
X73290000Y-34558072D01*
X73414482Y-34545812D01*
X73534180Y-34509502D01*
X73644494Y-34450537D01*
X73741185Y-34371185D01*
X73820537Y-34274494D01*
X73879502Y-34164180D01*
X73885056Y-34145873D01*
X73951495Y-34212312D01*
X74202905Y-34380299D01*
X74482257Y-34496011D01*
X74778816Y-34555000D01*
X75081184Y-34555000D01*
X75377743Y-34496011D01*
X75657095Y-34380299D01*
X75908505Y-34212312D01*
X76122312Y-33998505D01*
X76290299Y-33747095D01*
X76406011Y-33467743D01*
X76465000Y-33171184D01*
X76465000Y-32868816D01*
X76406011Y-32572257D01*
X76290299Y-32292905D01*
X76122312Y-32041495D01*
X75908505Y-31827688D01*
X75657095Y-31659701D01*
X75377743Y-31543989D01*
X75081184Y-31485000D01*
X74778816Y-31485000D01*
X74482257Y-31543989D01*
X74202905Y-31659701D01*
X73951495Y-31827688D01*
X73885056Y-31894127D01*
X73879502Y-31875820D01*
X73820537Y-31765506D01*
X73741185Y-31668815D01*
X73644494Y-31589463D01*
X73534180Y-31530498D01*
X73414482Y-31494188D01*
X73290000Y-31481928D01*
X71490000Y-31481928D01*
X71365518Y-31494188D01*
X71245820Y-31530498D01*
X71135506Y-31589463D01*
X71038815Y-31668815D01*
X70959463Y-31765506D01*
X70900498Y-31875820D01*
X70864188Y-31995518D01*
X70851928Y-32120000D01*
X68554768Y-32120000D01*
X68502312Y-32041495D01*
X68288505Y-31827688D01*
X68037095Y-31659701D01*
X67757743Y-31543989D01*
X67461184Y-31485000D01*
X67158816Y-31485000D01*
X66862257Y-31543989D01*
X66582905Y-31659701D01*
X66331495Y-31827688D01*
X66265056Y-31894127D01*
X66259502Y-31875820D01*
X66200537Y-31765506D01*
X66121185Y-31668815D01*
X66024494Y-31589463D01*
X65914180Y-31530498D01*
X65794482Y-31494188D01*
X65670000Y-31481928D01*
X63870000Y-31481928D01*
X63745518Y-31494188D01*
X63625820Y-31530498D01*
X63515506Y-31589463D01*
X63418815Y-31668815D01*
X63339463Y-31765506D01*
X63280498Y-31875820D01*
X63244188Y-31995518D01*
X63231928Y-32120000D01*
X60934768Y-32120000D01*
X60882312Y-32041495D01*
X60668505Y-31827688D01*
X60417095Y-31659701D01*
X60137743Y-31543989D01*
X59841184Y-31485000D01*
X59538816Y-31485000D01*
X59242257Y-31543989D01*
X58962905Y-31659701D01*
X58711495Y-31827688D01*
X58645056Y-31894127D01*
X58639502Y-31875820D01*
X58580537Y-31765506D01*
X58501185Y-31668815D01*
X58404494Y-31589463D01*
X58294180Y-31530498D01*
X58174482Y-31494188D01*
X58050000Y-31481928D01*
X56250000Y-31481928D01*
X56125518Y-31494188D01*
X56005820Y-31530498D01*
X55895506Y-31589463D01*
X55798815Y-31668815D01*
X55719463Y-31765506D01*
X55660498Y-31875820D01*
X55624188Y-31995518D01*
X55611928Y-32120000D01*
X53314768Y-32120000D01*
X53262312Y-32041495D01*
X53048505Y-31827688D01*
X52797095Y-31659701D01*
X52517743Y-31543989D01*
X52221184Y-31485000D01*
X51918816Y-31485000D01*
X51622257Y-31543989D01*
X51342905Y-31659701D01*
X51091495Y-31827688D01*
X51025056Y-31894127D01*
X51019502Y-31875820D01*
X50960537Y-31765506D01*
X50881185Y-31668815D01*
X50784494Y-31589463D01*
X50674180Y-31530498D01*
X50554482Y-31494188D01*
X50430000Y-31481928D01*
X48630000Y-31481928D01*
X48505518Y-31494188D01*
X48385820Y-31530498D01*
X48275506Y-31589463D01*
X48178815Y-31668815D01*
X48099463Y-31765506D01*
X48040498Y-31875820D01*
X48004188Y-31995518D01*
X47991928Y-32120000D01*
X45694768Y-32120000D01*
X45642312Y-32041495D01*
X45428505Y-31827688D01*
X45177095Y-31659701D01*
X44897743Y-31543989D01*
X44601184Y-31485000D01*
X44298816Y-31485000D01*
X44002257Y-31543989D01*
X43722905Y-31659701D01*
X43471495Y-31827688D01*
X43405056Y-31894127D01*
X43399502Y-31875820D01*
X43340537Y-31765506D01*
X43261185Y-31668815D01*
X43164494Y-31589463D01*
X43054180Y-31530498D01*
X42934482Y-31494188D01*
X42810000Y-31481928D01*
X41010000Y-31481928D01*
X40885518Y-31494188D01*
X40765820Y-31530498D01*
X40655506Y-31589463D01*
X40558815Y-31668815D01*
X40479463Y-31765506D01*
X40420498Y-31875820D01*
X40384188Y-31995518D01*
X40371928Y-32120000D01*
X40371928Y-33920000D01*
X40384188Y-34044482D01*
X40420498Y-34164180D01*
X40479463Y-34274494D01*
X40558815Y-34371185D01*
X40655506Y-34450537D01*
X40765820Y-34509502D01*
X40885518Y-34545812D01*
X41010000Y-34558072D01*
X42810000Y-34558072D01*
X42934482Y-34545812D01*
X43054180Y-34509502D01*
X43164494Y-34450537D01*
X43261185Y-34371185D01*
X43340537Y-34274494D01*
X43399502Y-34164180D01*
X43405056Y-34145873D01*
X43471495Y-34212312D01*
X43690001Y-34358313D01*
X43690000Y-38309679D01*
X43686324Y-38347002D01*
X43690000Y-38384324D01*
X43690000Y-38384334D01*
X43700997Y-38495987D01*
X43735886Y-38611002D01*
X43744454Y-38639248D01*
X43815026Y-38771278D01*
X43854871Y-38819828D01*
X43909999Y-38887003D01*
X43939003Y-38910806D01*
X46452007Y-41423811D01*
X46452006Y-46885792D01*
X43817206Y-44250993D01*
X43793403Y-44221989D01*
X43677678Y-44127016D01*
X43545649Y-44056444D01*
X43402388Y-44012987D01*
X43290735Y-44001990D01*
X43290724Y-44001990D01*
X43253402Y-43998314D01*
X43216080Y-44001990D01*
X43213378Y-44001990D01*
X42896389Y-43685002D01*
X42872587Y-43655999D01*
X42756862Y-43561026D01*
X42624833Y-43490454D01*
X42481572Y-43446997D01*
X42369919Y-43436000D01*
X42369908Y-43436000D01*
X42332586Y-43432324D01*
X42295264Y-43436000D01*
X39176802Y-43436000D01*
X37834999Y-42094198D01*
X37834999Y-39414683D01*
X37838294Y-39415683D01*
X38034421Y-39435000D01*
X38165579Y-39435000D01*
X38361706Y-39415683D01*
X38613354Y-39339347D01*
X38845275Y-39215382D01*
X39048555Y-39048555D01*
X39215382Y-38845275D01*
X39339347Y-38613354D01*
X39368220Y-38518172D01*
X39456939Y-38732359D01*
X39603038Y-38951013D01*
X39788987Y-39136962D01*
X40007641Y-39283061D01*
X40250595Y-39383696D01*
X40508514Y-39435000D01*
X40771486Y-39435000D01*
X41029405Y-39383696D01*
X41272359Y-39283061D01*
X41491013Y-39136962D01*
X41676962Y-38951013D01*
X41823061Y-38732359D01*
X41923696Y-38489405D01*
X41975000Y-38231486D01*
X41975000Y-37968514D01*
X41923696Y-37710595D01*
X41823061Y-37467641D01*
X41676962Y-37248987D01*
X41491013Y-37063038D01*
X41272359Y-36916939D01*
X41029405Y-36816304D01*
X40771486Y-36765000D01*
X40508514Y-36765000D01*
X40250595Y-36816304D01*
X40007641Y-36916939D01*
X39788987Y-37063038D01*
X39603038Y-37248987D01*
X39456939Y-37467641D01*
X39368220Y-37681828D01*
X39339347Y-37586646D01*
X39215382Y-37354725D01*
X39048555Y-37151445D01*
X38845275Y-36984618D01*
X38613354Y-36860653D01*
X38361706Y-36784317D01*
X38165579Y-36765000D01*
X38034421Y-36765000D01*
X37838294Y-36784317D01*
X37834999Y-36785317D01*
X37834999Y-35588322D01*
X37838675Y-35550999D01*
X37834999Y-35513676D01*
X37834999Y-35513666D01*
X37824002Y-35402013D01*
X37780545Y-35258752D01*
X37709973Y-35126723D01*
X37615000Y-35010998D01*
X37590000Y-34990481D01*
X37590000Y-34358313D01*
X37808505Y-34212312D01*
X38022312Y-33998505D01*
X38190299Y-33747095D01*
X38306011Y-33467743D01*
X38365000Y-33171184D01*
X38365000Y-32868816D01*
X38306011Y-32572257D01*
X38190299Y-32292905D01*
X38022312Y-32041495D01*
X37808505Y-31827688D01*
X37557095Y-31659701D01*
X37277743Y-31543989D01*
X36981184Y-31485000D01*
X36678816Y-31485000D01*
X36382257Y-31543989D01*
X36102905Y-31659701D01*
X35851495Y-31827688D01*
X35785056Y-31894127D01*
X35779502Y-31875820D01*
X35720537Y-31765506D01*
X35641185Y-31668815D01*
X35544494Y-31589463D01*
X35434180Y-31530498D01*
X35314482Y-31494188D01*
X35190000Y-31481928D01*
X33390000Y-31481928D01*
X33265518Y-31494188D01*
X33145820Y-31530498D01*
X33035506Y-31589463D01*
X32938815Y-31668815D01*
X32859463Y-31765506D01*
X32800498Y-31875820D01*
X32764188Y-31995518D01*
X32751928Y-32120000D01*
X32751928Y-33920000D01*
X32764188Y-34044482D01*
X32800498Y-34164180D01*
X32859463Y-34274494D01*
X32938815Y-34371185D01*
X33035506Y-34450537D01*
X33145820Y-34509502D01*
X33265518Y-34545812D01*
X33390000Y-34558072D01*
X35190000Y-34558072D01*
X35314482Y-34545812D01*
X35434180Y-34509502D01*
X35544494Y-34450537D01*
X35641185Y-34371185D01*
X35720537Y-34274494D01*
X35779502Y-34164180D01*
X35785056Y-34145873D01*
X35851495Y-34212312D01*
X36070001Y-34358313D01*
X36070000Y-35268677D01*
X36066324Y-35306000D01*
X36070000Y-35343322D01*
X36070000Y-35343332D01*
X36080997Y-35454985D01*
X36109819Y-35550000D01*
X36124454Y-35598246D01*
X36195026Y-35730276D01*
X36234871Y-35778826D01*
X36289999Y-35846001D01*
X36315000Y-35866519D01*
X36314999Y-42371676D01*
X36311323Y-42408999D01*
X36314999Y-42446321D01*
X36314999Y-42446331D01*
X36325996Y-42557984D01*
X36369453Y-42701245D01*
X36440025Y-42833275D01*
X36479870Y-42881825D01*
X36534998Y-42949000D01*
X36564002Y-42972803D01*
X38043198Y-44452000D01*
X32064803Y-44452000D01*
X29970000Y-42357199D01*
X29970000Y-39340364D01*
X30218294Y-39415683D01*
X30414421Y-39435000D01*
X30545579Y-39435000D01*
X30741706Y-39415683D01*
X30993354Y-39339347D01*
X31225275Y-39215382D01*
X31428555Y-39048555D01*
X31595382Y-38845275D01*
X31719347Y-38613354D01*
X31748220Y-38518172D01*
X31836939Y-38732359D01*
X31983038Y-38951013D01*
X32168987Y-39136962D01*
X32387641Y-39283061D01*
X32630595Y-39383696D01*
X32888514Y-39435000D01*
X33151486Y-39435000D01*
X33409405Y-39383696D01*
X33652359Y-39283061D01*
X33871013Y-39136962D01*
X34056962Y-38951013D01*
X34203061Y-38732359D01*
X34303696Y-38489405D01*
X34355000Y-38231486D01*
X34355000Y-37968514D01*
X34303696Y-37710595D01*
X34203061Y-37467641D01*
X34056962Y-37248987D01*
X33871013Y-37063038D01*
X33652359Y-36916939D01*
X33409405Y-36816304D01*
X33151486Y-36765000D01*
X32888514Y-36765000D01*
X32630595Y-36816304D01*
X32387641Y-36916939D01*
X32168987Y-37063038D01*
X31983038Y-37248987D01*
X31836939Y-37467641D01*
X31748220Y-37681828D01*
X31719347Y-37586646D01*
X31595382Y-37354725D01*
X31428555Y-37151445D01*
X31225275Y-36984618D01*
X30993354Y-36860653D01*
X30741706Y-36784317D01*
X30545579Y-36765000D01*
X30414421Y-36765000D01*
X30218294Y-36784317D01*
X29970000Y-36859636D01*
X29970000Y-34358313D01*
X30188505Y-34212312D01*
X30402312Y-33998505D01*
X30570299Y-33747095D01*
X30686011Y-33467743D01*
X30745000Y-33171184D01*
X30745000Y-32868816D01*
X30686011Y-32572257D01*
X30570299Y-32292905D01*
X30402312Y-32041495D01*
X30188505Y-31827688D01*
X29937095Y-31659701D01*
X29657743Y-31543989D01*
X29361184Y-31485000D01*
X29058816Y-31485000D01*
X28762257Y-31543989D01*
X28482905Y-31659701D01*
X28231495Y-31827688D01*
X28165056Y-31894127D01*
X28159502Y-31875820D01*
X28100537Y-31765506D01*
X28021185Y-31668815D01*
X27924494Y-31589463D01*
X27814180Y-31530498D01*
X27694482Y-31494188D01*
X27570000Y-31481928D01*
X25770000Y-31481928D01*
X25645518Y-31494188D01*
X25525820Y-31530498D01*
X25415506Y-31589463D01*
X25318815Y-31668815D01*
X25239463Y-31765506D01*
X25180498Y-31875820D01*
X25144188Y-31995518D01*
X25131928Y-32120000D01*
X25131928Y-33920000D01*
X25144188Y-34044482D01*
X25180498Y-34164180D01*
X25239463Y-34274494D01*
X25318815Y-34371185D01*
X25415506Y-34450537D01*
X25525820Y-34509502D01*
X25645518Y-34545812D01*
X25770000Y-34558072D01*
X27570000Y-34558072D01*
X27694482Y-34545812D01*
X27814180Y-34509502D01*
X27924494Y-34450537D01*
X28021185Y-34371185D01*
X28100537Y-34274494D01*
X28159502Y-34164180D01*
X28165056Y-34145873D01*
X28231495Y-34212312D01*
X28450001Y-34358313D01*
X28450000Y-41599199D01*
X27487804Y-40637003D01*
X27464001Y-40607999D01*
X27348276Y-40513026D01*
X27216247Y-40442454D01*
X27072986Y-40398997D01*
X26961333Y-40388000D01*
X26961322Y-40388000D01*
X26924000Y-40384324D01*
X26886678Y-40388000D01*
X22135323Y-40388000D01*
X22098000Y-40384324D01*
X22060677Y-40388000D01*
X22060667Y-40388000D01*
X21949014Y-40398997D01*
X21833580Y-40434013D01*
X21805753Y-40442454D01*
X21673723Y-40513026D01*
X21605511Y-40569007D01*
X21557999Y-40607999D01*
X21534201Y-40636997D01*
X16978199Y-45193000D01*
X16916061Y-45193000D01*
X16716102Y-45232774D01*
X16527744Y-45310795D01*
X16358226Y-45424063D01*
X16214063Y-45568226D01*
X16100795Y-45737744D01*
X16022774Y-45926102D01*
X15983000Y-46126061D01*
X15925000Y-46126061D01*
X15925000Y-37968514D01*
X24065000Y-37968514D01*
X24065000Y-38231486D01*
X24116304Y-38489405D01*
X24216939Y-38732359D01*
X24363038Y-38951013D01*
X24548987Y-39136962D01*
X24767641Y-39283061D01*
X25010595Y-39383696D01*
X25268514Y-39435000D01*
X25531486Y-39435000D01*
X25789405Y-39383696D01*
X26032359Y-39283061D01*
X26251013Y-39136962D01*
X26436962Y-38951013D01*
X26583061Y-38732359D01*
X26683696Y-38489405D01*
X26735000Y-38231486D01*
X26735000Y-37968514D01*
X26683696Y-37710595D01*
X26583061Y-37467641D01*
X26436962Y-37248987D01*
X26251013Y-37063038D01*
X26032359Y-36916939D01*
X25789405Y-36816304D01*
X25531486Y-36765000D01*
X25268514Y-36765000D01*
X25010595Y-36816304D01*
X24767641Y-36916939D01*
X24548987Y-37063038D01*
X24363038Y-37248987D01*
X24216939Y-37467641D01*
X24116304Y-37710595D01*
X24065000Y-37968514D01*
X15925000Y-37968514D01*
X15925000Y-32770817D01*
X17790000Y-32770817D01*
X17790000Y-33269183D01*
X17887226Y-33757974D01*
X18077943Y-34218405D01*
X18354820Y-34632781D01*
X18707219Y-34985180D01*
X19121595Y-35262057D01*
X19582026Y-35452774D01*
X20070817Y-35550000D01*
X20569183Y-35550000D01*
X21057974Y-35452774D01*
X21518405Y-35262057D01*
X21932781Y-34985180D01*
X22285180Y-34632781D01*
X22562057Y-34218405D01*
X22752774Y-33757974D01*
X22850000Y-33269183D01*
X22850000Y-32770817D01*
X22752774Y-32282026D01*
X22562057Y-31821595D01*
X22285180Y-31407219D01*
X21932781Y-31054820D01*
X21518405Y-30777943D01*
X21057974Y-30587226D01*
X20569183Y-30490000D01*
X20070817Y-30490000D01*
X19582026Y-30587226D01*
X19121595Y-30777943D01*
X18707219Y-31054820D01*
X18354820Y-31407219D01*
X18077943Y-31821595D01*
X17887226Y-32282026D01*
X17790000Y-32770817D01*
X15925000Y-32770817D01*
X15925000Y-31783504D01*
X15987738Y-31143656D01*
X16163832Y-30560405D01*
X16449856Y-30022471D01*
X16834922Y-29550333D01*
X17304359Y-29161981D01*
X17840286Y-28872206D01*
X18422291Y-28692045D01*
X19060189Y-28625000D01*
X90136496Y-28625000D01*
X90776344Y-28687738D01*
X90776344Y-28687738D01*
G37*
X90776344Y-28687738D02*
X91359595Y-28863832D01*
X91897529Y-29149856D01*
X92369667Y-29534922D01*
X92758019Y-30004359D01*
X93047794Y-30540286D01*
X93227955Y-31122291D01*
X93295000Y-31760189D01*
X93295001Y-82516485D01*
X93232262Y-83156343D01*
X93056168Y-83739595D01*
X92770143Y-84277531D01*
X92385078Y-84749667D01*
X91915641Y-85138019D01*
X91379714Y-85427794D01*
X90797705Y-85607956D01*
X90159811Y-85675000D01*
X19083505Y-85675000D01*
X18443657Y-85612262D01*
X17860405Y-85436168D01*
X17322469Y-85150143D01*
X16850333Y-84765078D01*
X16461981Y-84295641D01*
X16172206Y-83759714D01*
X15992044Y-83177705D01*
X15925000Y-82539811D01*
X15925000Y-81030817D01*
X17790000Y-81030817D01*
X17790000Y-81529183D01*
X17887226Y-82017974D01*
X18077943Y-82478405D01*
X18354820Y-82892781D01*
X18707219Y-83245180D01*
X19121595Y-83522057D01*
X19582026Y-83712774D01*
X20070817Y-83810000D01*
X20569183Y-83810000D01*
X21057974Y-83712774D01*
X21518405Y-83522057D01*
X21932781Y-83245180D01*
X22285180Y-82892781D01*
X22562057Y-82478405D01*
X22752774Y-82017974D01*
X22850000Y-81529183D01*
X22850000Y-81030817D01*
X22752774Y-80542026D01*
X22562057Y-80081595D01*
X22285180Y-79667219D01*
X21932781Y-79314820D01*
X21518405Y-79037943D01*
X21057974Y-78847226D01*
X20569183Y-78750000D01*
X20070817Y-78750000D01*
X19582026Y-78847226D01*
X19121595Y-79037943D01*
X18707219Y-79314820D01*
X18354820Y-79667219D01*
X18077943Y-80081595D01*
X17887226Y-80542026D01*
X17790000Y-81030817D01*
X15925000Y-81030817D01*
X15925000Y-69380000D01*
X23961928Y-69380000D01*
X23974188Y-69504482D01*
X24010498Y-69624180D01*
X24069463Y-69734494D01*
X24148815Y-69831185D01*
X24245506Y-69910537D01*
X24355820Y-69969502D01*
X24475518Y-70005812D01*
X24600000Y-70018072D01*
X25114250Y-70015000D01*
X25273000Y-69856250D01*
X25273000Y-68707000D01*
X24123750Y-68707000D01*
X23965000Y-68865750D01*
X23961928Y-69380000D01*
X15925000Y-69380000D01*
X15925000Y-67780000D01*
X23961928Y-67780000D01*
X23965000Y-68294250D01*
X24123750Y-68453000D01*
X25273000Y-68453000D01*
X25273000Y-67303750D01*
X25114250Y-67145000D01*
X24600000Y-67141928D01*
X24475518Y-67154188D01*
X24355820Y-67190498D01*
X24245506Y-67249463D01*
X24148815Y-67328815D01*
X24069463Y-67425506D01*
X24010498Y-67535820D01*
X23974188Y-67655518D01*
X23961928Y-67780000D01*
X15925000Y-67780000D01*
X15925000Y-61309040D01*
X24008091Y-61309040D01*
X24102930Y-61573881D01*
X24247615Y-61815131D01*
X24436586Y-62023519D01*
X24662580Y-62191037D01*
X24916913Y-62311246D01*
X25050961Y-62351904D01*
X25273000Y-62229915D01*
X25273000Y-61087000D01*
X25527000Y-61087000D01*
X25527000Y-62229915D01*
X25749039Y-62351904D01*
X25883087Y-62311246D01*
X26137420Y-62191037D01*
X26363414Y-62023519D01*
X26552385Y-61815131D01*
X26670000Y-61619018D01*
X26787615Y-61815131D01*
X26976586Y-62023519D01*
X27202580Y-62191037D01*
X27456913Y-62311246D01*
X27590961Y-62351904D01*
X27813000Y-62229915D01*
X27813000Y-61087000D01*
X25527000Y-61087000D01*
X25273000Y-61087000D01*
X24129376Y-61087000D01*
X24008091Y-61309040D01*
X15925000Y-61309040D01*
X15925000Y-59834061D01*
X20547000Y-59834061D01*
X20547000Y-60037939D01*
X20586774Y-60237898D01*
X20664795Y-60426256D01*
X20778063Y-60595774D01*
X20922226Y-60739937D01*
X21091744Y-60853205D01*
X21280102Y-60931226D01*
X21480061Y-60971000D01*
X21683939Y-60971000D01*
X21883898Y-60931226D01*
X22072256Y-60853205D01*
X22241774Y-60739937D01*
X22370751Y-60610960D01*
X24008091Y-60610960D01*
X24129376Y-60833000D01*
X25273000Y-60833000D01*
X25273000Y-59690085D01*
X25527000Y-59690085D01*
X25527000Y-60833000D01*
X27813000Y-60833000D01*
X27813000Y-59690085D01*
X27590961Y-59568096D01*
X27456913Y-59608754D01*
X27202580Y-59728963D01*
X26976586Y-59896481D01*
X26787615Y-60104869D01*
X26670000Y-60300982D01*
X26552385Y-60104869D01*
X26363414Y-59896481D01*
X26137420Y-59728963D01*
X25883087Y-59608754D01*
X25749039Y-59568096D01*
X25527000Y-59690085D01*
X25273000Y-59690085D01*
X25050961Y-59568096D01*
X24916913Y-59608754D01*
X24662580Y-59728963D01*
X24436586Y-59896481D01*
X24247615Y-60104869D01*
X24102930Y-60346119D01*
X24008091Y-60610960D01*
X22370751Y-60610960D01*
X22385937Y-60595774D01*
X22499205Y-60426256D01*
X22577226Y-60237898D01*
X22617000Y-60037939D01*
X22617000Y-59834061D01*
X22577226Y-59634102D01*
X22499205Y-59445744D01*
X22385937Y-59276226D01*
X22342000Y-59232289D01*
X22342000Y-47566801D01*
X22569761Y-47339040D01*
X24008091Y-47339040D01*
X24102930Y-47603881D01*
X24247615Y-47845131D01*
X24436586Y-48053519D01*
X24662580Y-48221037D01*
X24916913Y-48341246D01*
X25050961Y-48381904D01*
X25273000Y-48259915D01*
X25273000Y-47117000D01*
X24129376Y-47117000D01*
X24008091Y-47339040D01*
X22569761Y-47339040D01*
X23267841Y-46640960D01*
X24008091Y-46640960D01*
X24129376Y-46863000D01*
X25273000Y-46863000D01*
X25273000Y-45720085D01*
X25050961Y-45598096D01*
X24916913Y-45638754D01*
X24662580Y-45758963D01*
X24436586Y-45926481D01*
X24247615Y-46134869D01*
X24102930Y-46376119D01*
X24008091Y-46640960D01*
X23267841Y-46640960D01*
X24188427Y-45720375D01*
X24282061Y-45739000D01*
X24485939Y-45739000D01*
X24685898Y-45699226D01*
X24874256Y-45621205D01*
X25043774Y-45507937D01*
X25187937Y-45363774D01*
X25301205Y-45194256D01*
X25379226Y-45005898D01*
X25419000Y-44805939D01*
X25419000Y-44602061D01*
X25379226Y-44402102D01*
X25301205Y-44213744D01*
X25187937Y-44044226D01*
X25043774Y-43900063D01*
X24874256Y-43786795D01*
X24685898Y-43708774D01*
X24485939Y-43669000D01*
X24282061Y-43669000D01*
X24082102Y-43708774D01*
X23893744Y-43786795D01*
X23724226Y-43900063D01*
X23580063Y-44044226D01*
X23466795Y-44213744D01*
X23411174Y-44348024D01*
X21070998Y-46688201D01*
X21042000Y-46711999D01*
X21018202Y-46740997D01*
X21018201Y-46740998D01*
X20947026Y-46827724D01*
X20876454Y-46959754D01*
X20851810Y-47040997D01*
X20832998Y-47103014D01*
X20822501Y-47209588D01*
X20818324Y-47252000D01*
X20822001Y-47289332D01*
X20822000Y-59232289D01*
X20778063Y-59276226D01*
X20664795Y-59445744D01*
X20586774Y-59634102D01*
X20547000Y-59834061D01*
X15925000Y-59834061D01*
X15925000Y-46126061D01*
X15983000Y-46126061D01*
X15983000Y-46329939D01*
X16022774Y-46529898D01*
X16100795Y-46718256D01*
X16214063Y-46887774D01*
X16358226Y-47031937D01*
X16527744Y-47145205D01*
X16716102Y-47223226D01*
X16916061Y-47263000D01*
X17119939Y-47263000D01*
X17319898Y-47223226D01*
X17508256Y-47145205D01*
X17677774Y-47031937D01*
X17821937Y-46887774D01*
X17935205Y-46718256D01*
X18013226Y-46529898D01*
X18053000Y-46329939D01*
X18053000Y-46267801D01*
X22412802Y-41908000D01*
X23311198Y-41908000D01*
X16978199Y-48241000D01*
X16916061Y-48241000D01*
X16716102Y-48280774D01*
X16527744Y-48358795D01*
X16358226Y-48472063D01*
X16214063Y-48616226D01*
X16100795Y-48785744D01*
X16022774Y-48974102D01*
X15983000Y-49174061D01*
X15983000Y-49377939D01*
X16022774Y-49577898D01*
X16100795Y-49766256D01*
X16214063Y-49935774D01*
X16358226Y-50079937D01*
X16527744Y-50193205D01*
X16716102Y-50271226D01*
X16916061Y-50311000D01*
X17119939Y-50311000D01*
X17319898Y-50271226D01*
X17508256Y-50193205D01*
X17677774Y-50079937D01*
X17821937Y-49935774D01*
X17935205Y-49766256D01*
X18013226Y-49577898D01*
X18053000Y-49377939D01*
X18053000Y-49315801D01*
X24952802Y-42416000D01*
X26355199Y-42416000D01*
X27051744Y-43112545D01*
X27004410Y-43159879D01*
X26891142Y-43329397D01*
X26813121Y-43517755D01*
X26773347Y-43717714D01*
X26773347Y-43779852D01*
X26412998Y-44140201D01*
X26384000Y-44163999D01*
X26360202Y-44192997D01*
X26360201Y-44192998D01*
X26289026Y-44279724D01*
X26218454Y-44411754D01*
X26216560Y-44417999D01*
X26174997Y-44555014D01*
X26164000Y-44666667D01*
X26164000Y-44666678D01*
X26160324Y-44704000D01*
X26164000Y-44741322D01*
X26164000Y-44762289D01*
X26120063Y-44806226D01*
X26006795Y-44975744D01*
X25928774Y-45164102D01*
X25889000Y-45364061D01*
X25889000Y-45567939D01*
X25905161Y-45649187D01*
X25883087Y-45638754D01*
X25749039Y-45598096D01*
X25527000Y-45720085D01*
X25527000Y-46863000D01*
X25547000Y-46863000D01*
X25547000Y-47117000D01*
X25527000Y-47117000D01*
X25527000Y-48259915D01*
X25749039Y-48381904D01*
X25883087Y-48341246D01*
X26137420Y-48221037D01*
X26363414Y-48053519D01*
X26552385Y-47845131D01*
X26667421Y-47653318D01*
X26741068Y-47791101D01*
X26920392Y-48009608D01*
X27138899Y-48188932D01*
X27388192Y-48322182D01*
X27658691Y-48404236D01*
X27869508Y-48425000D01*
X28010492Y-48425000D01*
X28221309Y-48404236D01*
X28265907Y-48390708D01*
X31511200Y-51636002D01*
X31534999Y-51665001D01*
X31650724Y-51759974D01*
X31782753Y-51830546D01*
X31926014Y-51874003D01*
X32037667Y-51885000D01*
X32037675Y-51885000D01*
X32075000Y-51888676D01*
X32112325Y-51885000D01*
X41527618Y-51885000D01*
X41584757Y-51915542D01*
X41728018Y-51958999D01*
X41839671Y-51969996D01*
X41839681Y-51969996D01*
X41877003Y-51973672D01*
X41914326Y-51969996D01*
X45053195Y-51969996D01*
X45156196Y-52072997D01*
X45179999Y-52102001D01*
X45295724Y-52196974D01*
X45427753Y-52267546D01*
X45571014Y-52311003D01*
X45682667Y-52322000D01*
X45682677Y-52322000D01*
X45720000Y-52325676D01*
X45757323Y-52322000D01*
X46929199Y-52322000D01*
X48293477Y-53686278D01*
X48277744Y-53692795D01*
X48108226Y-53806063D01*
X48064289Y-53850000D01*
X44400901Y-53850000D01*
X44378932Y-53808899D01*
X44199608Y-53590392D01*
X43981101Y-53411068D01*
X43731808Y-53277818D01*
X43461309Y-53195764D01*
X43250492Y-53175000D01*
X43109508Y-53175000D01*
X42898691Y-53195764D01*
X42628192Y-53277818D01*
X42378899Y-53411068D01*
X42160392Y-53590392D01*
X41981068Y-53808899D01*
X41910000Y-53941858D01*
X41838932Y-53808899D01*
X41659608Y-53590392D01*
X41441101Y-53411068D01*
X41191808Y-53277818D01*
X40921309Y-53195764D01*
X40710492Y-53175000D01*
X40569508Y-53175000D01*
X40358691Y-53195764D01*
X40088192Y-53277818D01*
X39838899Y-53411068D01*
X39620392Y-53590392D01*
X39441068Y-53808899D01*
X39370000Y-53941858D01*
X39298932Y-53808899D01*
X39119608Y-53590392D01*
X38901101Y-53411068D01*
X38651808Y-53277818D01*
X38381309Y-53195764D01*
X38170492Y-53175000D01*
X38029508Y-53175000D01*
X37818691Y-53195764D01*
X37548192Y-53277818D01*
X37298899Y-53411068D01*
X37080392Y-53590392D01*
X36901068Y-53808899D01*
X36830000Y-53941858D01*
X36758932Y-53808899D01*
X36579608Y-53590392D01*
X36361101Y-53411068D01*
X36111808Y-53277818D01*
X35841309Y-53195764D01*
X35630492Y-53175000D01*
X35489508Y-53175000D01*
X35278691Y-53195764D01*
X35008192Y-53277818D01*
X34758899Y-53411068D01*
X34540392Y-53590392D01*
X34361068Y-53808899D01*
X34290000Y-53941858D01*
X34218932Y-53808899D01*
X34039608Y-53590392D01*
X33821101Y-53411068D01*
X33571808Y-53277818D01*
X33301309Y-53195764D01*
X33090492Y-53175000D01*
X32949508Y-53175000D01*
X32738691Y-53195764D01*
X32468192Y-53277818D01*
X32218899Y-53411068D01*
X32000392Y-53590392D01*
X31821068Y-53808899D01*
X31750000Y-53941858D01*
X31678932Y-53808899D01*
X31499608Y-53590392D01*
X31281101Y-53411068D01*
X31031808Y-53277818D01*
X30761309Y-53195764D01*
X30550492Y-53175000D01*
X30409508Y-53175000D01*
X30198691Y-53195764D01*
X29928192Y-53277818D01*
X29678899Y-53411068D01*
X29460392Y-53590392D01*
X29281068Y-53808899D01*
X29210000Y-53941858D01*
X29138932Y-53808899D01*
X28959608Y-53590392D01*
X28741101Y-53411068D01*
X28491808Y-53277818D01*
X28221309Y-53195764D01*
X28010492Y-53175000D01*
X27869508Y-53175000D01*
X27658691Y-53195764D01*
X27388192Y-53277818D01*
X27138899Y-53411068D01*
X26920392Y-53590392D01*
X26827581Y-53703482D01*
X26825812Y-53685518D01*
X26789502Y-53565820D01*
X26730537Y-53455506D01*
X26651185Y-53358815D01*
X26554494Y-53279463D01*
X26444180Y-53220498D01*
X26324482Y-53184188D01*
X26200000Y-53171928D01*
X24600000Y-53171928D01*
X24475518Y-53184188D01*
X24355820Y-53220498D01*
X24245506Y-53279463D01*
X24148815Y-53358815D01*
X24069463Y-53455506D01*
X24010498Y-53565820D01*
X23974188Y-53685518D01*
X23961928Y-53810000D01*
X23961928Y-55410000D01*
X23974188Y-55534482D01*
X24010498Y-55654180D01*
X24069463Y-55764494D01*
X24148815Y-55861185D01*
X24245506Y-55940537D01*
X24355820Y-55999502D01*
X24475518Y-56035812D01*
X24600000Y-56048072D01*
X26200000Y-56048072D01*
X26324482Y-56035812D01*
X26444180Y-55999502D01*
X26554494Y-55940537D01*
X26651185Y-55861185D01*
X26730537Y-55764494D01*
X26789502Y-55654180D01*
X26825812Y-55534482D01*
X26827581Y-55516518D01*
X26920392Y-55629608D01*
X27138899Y-55808932D01*
X27388192Y-55942182D01*
X27658691Y-56024236D01*
X27869508Y-56045000D01*
X28010492Y-56045000D01*
X28221309Y-56024236D01*
X28491808Y-55942182D01*
X28741101Y-55808932D01*
X28959608Y-55629608D01*
X29138932Y-55411101D01*
X29210000Y-55278142D01*
X29281068Y-55411101D01*
X29460392Y-55629608D01*
X29678899Y-55808932D01*
X29928192Y-55942182D01*
X30198691Y-56024236D01*
X30409508Y-56045000D01*
X30550492Y-56045000D01*
X30761309Y-56024236D01*
X30805907Y-56010708D01*
X33385002Y-58589804D01*
X33385002Y-59571152D01*
X33301309Y-59545764D01*
X33090492Y-59525000D01*
X32949508Y-59525000D01*
X32738691Y-59545764D01*
X32468192Y-59627818D01*
X32218899Y-59761068D01*
X32000392Y-59940392D01*
X31821068Y-60158899D01*
X31750000Y-60291858D01*
X31678932Y-60158899D01*
X31499608Y-59940392D01*
X31281101Y-59761068D01*
X31031808Y-59627818D01*
X30761309Y-59545764D01*
X30550492Y-59525000D01*
X30409508Y-59525000D01*
X30198691Y-59545764D01*
X29928192Y-59627818D01*
X29678899Y-59761068D01*
X29460392Y-59940392D01*
X29281068Y-60158899D01*
X29207421Y-60296682D01*
X29092385Y-60104869D01*
X28903414Y-59896481D01*
X28677420Y-59728963D01*
X28423087Y-59608754D01*
X28289039Y-59568096D01*
X28067000Y-59690085D01*
X28067000Y-60833000D01*
X28087000Y-60833000D01*
X28087000Y-61087000D01*
X28067000Y-61087000D01*
X28067000Y-62229915D01*
X28289039Y-62351904D01*
X28423087Y-62311246D01*
X28677420Y-62191037D01*
X28903414Y-62023519D01*
X29092385Y-61815131D01*
X29207421Y-61623318D01*
X29281068Y-61761101D01*
X29460392Y-61979608D01*
X29678899Y-62158932D01*
X29928192Y-62292182D01*
X30198691Y-62374236D01*
X30409508Y-62395000D01*
X30550492Y-62395000D01*
X30761309Y-62374236D01*
X31031808Y-62292182D01*
X31281101Y-62158932D01*
X31499608Y-61979608D01*
X31678932Y-61761101D01*
X31750000Y-61628142D01*
X31821068Y-61761101D01*
X32000392Y-61979608D01*
X32218899Y-62158932D01*
X32468192Y-62292182D01*
X32738691Y-62374236D01*
X32949508Y-62395000D01*
X33090492Y-62395000D01*
X33301309Y-62374236D01*
X33385001Y-62348849D01*
X33385001Y-64587678D01*
X33381325Y-64625001D01*
X33385001Y-64662323D01*
X33385001Y-64662333D01*
X33395998Y-64773986D01*
X33436963Y-64909033D01*
X33439455Y-64917247D01*
X33510027Y-65049277D01*
X33532973Y-65077236D01*
X33605000Y-65165002D01*
X33634004Y-65188805D01*
X35590198Y-67145000D01*
X35489508Y-67145000D01*
X35278691Y-67165764D01*
X35008192Y-67247818D01*
X34758899Y-67381068D01*
X34540392Y-67560392D01*
X34361068Y-67778899D01*
X34290000Y-67911858D01*
X34218932Y-67778899D01*
X34039608Y-67560392D01*
X33821101Y-67381068D01*
X33571808Y-67247818D01*
X33301309Y-67165764D01*
X33090492Y-67145000D01*
X32949508Y-67145000D01*
X32738691Y-67165764D01*
X32468192Y-67247818D01*
X32218899Y-67381068D01*
X32000392Y-67560392D01*
X31821068Y-67778899D01*
X31750000Y-67911858D01*
X31678932Y-67778899D01*
X31499608Y-67560392D01*
X31281101Y-67381068D01*
X31031808Y-67247818D01*
X30761309Y-67165764D01*
X30550492Y-67145000D01*
X30409508Y-67145000D01*
X30198691Y-67165764D01*
X29928192Y-67247818D01*
X29678899Y-67381068D01*
X29460392Y-67560392D01*
X29281068Y-67778899D01*
X29210000Y-67911858D01*
X29138932Y-67778899D01*
X28959608Y-67560392D01*
X28741101Y-67381068D01*
X28491808Y-67247818D01*
X28221309Y-67165764D01*
X28010492Y-67145000D01*
X27869508Y-67145000D01*
X27658691Y-67165764D01*
X27388192Y-67247818D01*
X27138899Y-67381068D01*
X26920392Y-67560392D01*
X26827581Y-67673482D01*
X26825812Y-67655518D01*
X26789502Y-67535820D01*
X26730537Y-67425506D01*
X26651185Y-67328815D01*
X26554494Y-67249463D01*
X26444180Y-67190498D01*
X26324482Y-67154188D01*
X26200000Y-67141928D01*
X25685750Y-67145000D01*
X25527000Y-67303750D01*
X25527000Y-68453000D01*
X25547000Y-68453000D01*
X25547000Y-68707000D01*
X25527000Y-68707000D01*
X25527000Y-69856250D01*
X25685750Y-70015000D01*
X26200000Y-70018072D01*
X26324482Y-70005812D01*
X26444180Y-69969502D01*
X26554494Y-69910537D01*
X26651185Y-69831185D01*
X26730537Y-69734494D01*
X26789502Y-69624180D01*
X26825812Y-69504482D01*
X26827581Y-69486518D01*
X26920392Y-69599608D01*
X27138899Y-69778932D01*
X27388192Y-69912182D01*
X27658691Y-69994236D01*
X27869508Y-70015000D01*
X28010492Y-70015000D01*
X28221309Y-69994236D01*
X28491808Y-69912182D01*
X28741101Y-69778932D01*
X28959608Y-69599608D01*
X29138932Y-69381101D01*
X29210000Y-69248142D01*
X29281068Y-69381101D01*
X29460392Y-69599608D01*
X29678899Y-69778932D01*
X29928192Y-69912182D01*
X30198691Y-69994236D01*
X30409508Y-70015000D01*
X30550492Y-70015000D01*
X30761309Y-69994236D01*
X31031808Y-69912182D01*
X31281101Y-69778932D01*
X31499608Y-69599608D01*
X31678932Y-69381101D01*
X31750000Y-69248142D01*
X31821068Y-69381101D01*
X32000392Y-69599608D01*
X32218899Y-69778932D01*
X32468192Y-69912182D01*
X32738691Y-69994236D01*
X32949508Y-70015000D01*
X33090492Y-70015000D01*
X33301309Y-69994236D01*
X33571808Y-69912182D01*
X33821101Y-69778932D01*
X34039608Y-69599608D01*
X34218932Y-69381101D01*
X34290000Y-69248142D01*
X34361068Y-69381101D01*
X34540392Y-69599608D01*
X34758899Y-69778932D01*
X35008192Y-69912182D01*
X35278691Y-69994236D01*
X35489508Y-70015000D01*
X35630492Y-70015000D01*
X35841309Y-69994236D01*
X36111808Y-69912182D01*
X36361101Y-69778932D01*
X36579608Y-69599608D01*
X36758932Y-69381101D01*
X36830000Y-69248142D01*
X36901068Y-69381101D01*
X37080392Y-69599608D01*
X37298899Y-69778932D01*
X37548192Y-69912182D01*
X37818691Y-69994236D01*
X38029508Y-70015000D01*
X38170492Y-70015000D01*
X38381309Y-69994236D01*
X38651808Y-69912182D01*
X38901101Y-69778932D01*
X39119608Y-69599608D01*
X39298932Y-69381101D01*
X39370000Y-69248142D01*
X39441068Y-69381101D01*
X39620392Y-69599608D01*
X39838899Y-69778932D01*
X40088192Y-69912182D01*
X40358691Y-69994236D01*
X40569508Y-70015000D01*
X40710492Y-70015000D01*
X40921309Y-69994236D01*
X41191808Y-69912182D01*
X41441101Y-69778932D01*
X41659608Y-69599608D01*
X41838932Y-69381101D01*
X41910000Y-69248142D01*
X41981068Y-69381101D01*
X42160392Y-69599608D01*
X42378899Y-69778932D01*
X42628192Y-69912182D01*
X42898691Y-69994236D01*
X43109508Y-70015000D01*
X43250492Y-70015000D01*
X43461309Y-69994236D01*
X43731808Y-69912182D01*
X43981101Y-69778932D01*
X44199608Y-69599608D01*
X44378932Y-69381101D01*
X44450000Y-69248142D01*
X44521068Y-69381101D01*
X44700392Y-69599608D01*
X44918899Y-69778932D01*
X45168192Y-69912182D01*
X45438691Y-69994236D01*
X45649508Y-70015000D01*
X45790492Y-70015000D01*
X46001309Y-69994236D01*
X46271808Y-69912182D01*
X46521101Y-69778932D01*
X46739608Y-69599608D01*
X46918932Y-69381101D01*
X46990000Y-69248142D01*
X47061068Y-69381101D01*
X47240392Y-69599608D01*
X47458899Y-69778932D01*
X47708192Y-69912182D01*
X47978691Y-69994236D01*
X48189508Y-70015000D01*
X48330492Y-70015000D01*
X48541309Y-69994236D01*
X48811808Y-69912182D01*
X49003453Y-69809746D01*
X46421199Y-72392000D01*
X39290323Y-72392000D01*
X39253000Y-72388324D01*
X39215677Y-72392000D01*
X39215667Y-72392000D01*
X39104014Y-72402997D01*
X38962912Y-72445799D01*
X38960753Y-72446454D01*
X38828723Y-72517026D01*
X38798568Y-72541774D01*
X38712999Y-72611999D01*
X38689201Y-72640997D01*
X37346955Y-73983244D01*
X37235774Y-73872063D01*
X37066256Y-73758795D01*
X36877898Y-73680774D01*
X36677939Y-73641000D01*
X36474061Y-73641000D01*
X36274102Y-73680774D01*
X36085744Y-73758795D01*
X35916226Y-73872063D01*
X35872289Y-73916000D01*
X35766322Y-73916000D01*
X35728999Y-73912324D01*
X35691676Y-73916000D01*
X35691667Y-73916000D01*
X35580014Y-73926997D01*
X35436753Y-73970454D01*
X35348775Y-74017480D01*
X35347937Y-74016226D01*
X35203774Y-73872063D01*
X35034256Y-73758795D01*
X34845898Y-73680774D01*
X34645939Y-73641000D01*
X34442061Y-73641000D01*
X34242102Y-73680774D01*
X34053744Y-73758795D01*
X33884226Y-73872063D01*
X33840289Y-73916000D01*
X33766322Y-73916000D01*
X33728999Y-73912324D01*
X33691676Y-73916000D01*
X33691667Y-73916000D01*
X33580014Y-73926997D01*
X33436753Y-73970454D01*
X33304724Y-74041026D01*
X33304722Y-74041027D01*
X33304723Y-74041027D01*
X33217996Y-74112201D01*
X33217992Y-74112205D01*
X33188999Y-74135999D01*
X33165205Y-74164992D01*
X28821274Y-78508924D01*
X28670000Y-78494025D01*
X28427898Y-78517870D01*
X28195099Y-78588489D01*
X27980551Y-78703167D01*
X27792498Y-78857498D01*
X27760809Y-78896111D01*
X27758405Y-78891613D01*
X27647962Y-78757038D01*
X27513387Y-78646595D01*
X27359851Y-78564528D01*
X27193255Y-78513992D01*
X27020001Y-78496928D01*
X26319999Y-78496928D01*
X26146745Y-78513992D01*
X25980149Y-78564528D01*
X25826613Y-78646595D01*
X25692038Y-78757038D01*
X25581595Y-78891613D01*
X25499528Y-79045149D01*
X25448992Y-79211745D01*
X25431928Y-79384999D01*
X25431928Y-80635001D01*
X25448992Y-80808255D01*
X25499528Y-80974851D01*
X25581595Y-81128387D01*
X25692038Y-81262962D01*
X25826613Y-81373405D01*
X25980149Y-81455472D01*
X26146745Y-81506008D01*
X26319999Y-81523072D01*
X27020001Y-81523072D01*
X27193255Y-81506008D01*
X27359851Y-81455472D01*
X27513387Y-81373405D01*
X27647962Y-81262962D01*
X27758405Y-81128387D01*
X27760810Y-81123888D01*
X27792499Y-81162502D01*
X27980552Y-81316833D01*
X28195100Y-81431511D01*
X28427899Y-81502130D01*
X28670000Y-81525975D01*
X28912102Y-81502130D01*
X29144901Y-81431511D01*
X29359449Y-81316833D01*
X29547502Y-81162502D01*
X29670001Y-81013237D01*
X29792499Y-81162502D01*
X29980552Y-81316833D01*
X30195100Y-81431511D01*
X30427899Y-81502130D01*
X30670000Y-81525975D01*
X30912102Y-81502130D01*
X31144901Y-81431511D01*
X31359449Y-81316833D01*
X31547502Y-81162502D01*
X31670001Y-81013237D01*
X31792499Y-81162502D01*
X31980552Y-81316833D01*
X32195100Y-81431511D01*
X32427899Y-81502130D01*
X32670000Y-81525975D01*
X32912102Y-81502130D01*
X33144901Y-81431511D01*
X33359449Y-81316833D01*
X33547502Y-81162502D01*
X33670001Y-81013237D01*
X33792499Y-81162502D01*
X33980552Y-81316833D01*
X34195100Y-81431511D01*
X34427899Y-81502130D01*
X34670000Y-81525975D01*
X34912102Y-81502130D01*
X35144901Y-81431511D01*
X35359449Y-81316833D01*
X35547502Y-81162502D01*
X35670001Y-81013237D01*
X35792499Y-81162502D01*
X35980552Y-81316833D01*
X36195100Y-81431511D01*
X36427899Y-81502130D01*
X36670000Y-81525975D01*
X36912102Y-81502130D01*
X37144901Y-81431511D01*
X37359449Y-81316833D01*
X37547502Y-81162502D01*
X37670001Y-81013237D01*
X37792499Y-81162502D01*
X37980552Y-81316833D01*
X38195100Y-81431511D01*
X38427899Y-81502130D01*
X38670000Y-81525975D01*
X38912102Y-81502130D01*
X39144901Y-81431511D01*
X39359449Y-81316833D01*
X39547502Y-81162502D01*
X39670001Y-81013237D01*
X39792499Y-81162502D01*
X39980552Y-81316833D01*
X40195100Y-81431511D01*
X40427899Y-81502130D01*
X40670000Y-81525975D01*
X40912102Y-81502130D01*
X41144901Y-81431511D01*
X41359449Y-81316833D01*
X41547502Y-81162502D01*
X41701833Y-80974449D01*
X41816511Y-80759900D01*
X41887130Y-80527101D01*
X41905000Y-80345664D01*
X41905000Y-79674335D01*
X41887130Y-79492898D01*
X41816511Y-79260099D01*
X41701833Y-79045551D01*
X41547502Y-78857498D01*
X41359448Y-78703167D01*
X41144900Y-78588489D01*
X40912101Y-78517870D01*
X40670000Y-78494025D01*
X40427898Y-78517870D01*
X40195099Y-78588489D01*
X39980551Y-78703167D01*
X39792498Y-78857498D01*
X39670000Y-79006763D01*
X39547502Y-78857498D01*
X39359448Y-78703167D01*
X39144900Y-78588489D01*
X38912101Y-78517870D01*
X38670000Y-78494025D01*
X38427898Y-78517870D01*
X38195099Y-78588489D01*
X37980551Y-78703167D01*
X37792498Y-78857498D01*
X37670000Y-79006763D01*
X37547502Y-78857498D01*
X37359448Y-78703167D01*
X37144900Y-78588489D01*
X36912101Y-78517870D01*
X36670000Y-78494025D01*
X36427898Y-78517870D01*
X36195099Y-78588489D01*
X35980551Y-78703167D01*
X35792498Y-78857498D01*
X35670000Y-79006763D01*
X35547502Y-78857498D01*
X35359448Y-78703167D01*
X35144900Y-78588489D01*
X34950334Y-78529468D01*
X36323045Y-77156756D01*
X36424226Y-77257937D01*
X36593744Y-77371205D01*
X36782102Y-77449226D01*
X36982061Y-77489000D01*
X37185939Y-77489000D01*
X37385898Y-77449226D01*
X37574256Y-77371205D01*
X37743774Y-77257937D01*
X37787711Y-77214000D01*
X45645436Y-77214000D01*
X45682758Y-77217676D01*
X45720080Y-77214000D01*
X45720091Y-77214000D01*
X45831744Y-77203003D01*
X45975005Y-77159546D01*
X46107034Y-77088974D01*
X46222759Y-76994001D01*
X46246562Y-76964997D01*
X53177296Y-70034264D01*
X53206294Y-70010466D01*
X53261007Y-69943798D01*
X53301267Y-69894742D01*
X53371839Y-69762712D01*
X53415280Y-69619504D01*
X53470230Y-69564554D01*
X53583498Y-69395036D01*
X53661519Y-69206678D01*
X53701293Y-69006719D01*
X53701293Y-68802841D01*
X53661519Y-68602882D01*
X53583498Y-68414524D01*
X53470230Y-68245006D01*
X53326067Y-68100843D01*
X53156549Y-67987575D01*
X52968191Y-67909554D01*
X52842846Y-67884622D01*
X52803256Y-67789043D01*
X52689988Y-67619525D01*
X52545825Y-67475362D01*
X52376307Y-67362094D01*
X52187949Y-67284073D01*
X51987990Y-67244299D01*
X51784112Y-67244299D01*
X51584153Y-67284073D01*
X51395795Y-67362094D01*
X51226277Y-67475362D01*
X51082114Y-67619525D01*
X50968846Y-67789043D01*
X50964722Y-67799000D01*
X50952061Y-67799000D01*
X50752102Y-67838774D01*
X50563744Y-67916795D01*
X50394226Y-68030063D01*
X50250063Y-68174226D01*
X50136795Y-68343744D01*
X50058774Y-68532102D01*
X50019000Y-68732061D01*
X50019000Y-68794198D01*
X49489746Y-69323452D01*
X49592182Y-69131808D01*
X49674236Y-68861309D01*
X49701943Y-68580000D01*
X49674236Y-68298691D01*
X49660708Y-68254094D01*
X51148802Y-66766000D01*
X54041199Y-66766000D01*
X54617635Y-67342437D01*
X54549463Y-67425506D01*
X54490498Y-67535820D01*
X54454188Y-67655518D01*
X54441928Y-67780000D01*
X54441928Y-69380000D01*
X54454188Y-69504482D01*
X54490498Y-69624180D01*
X54549463Y-69734494D01*
X54628815Y-69831185D01*
X54725506Y-69910537D01*
X54835820Y-69969502D01*
X54955518Y-70005812D01*
X55080000Y-70018072D01*
X55907126Y-70018072D01*
X47420357Y-78504842D01*
X47340001Y-78496928D01*
X46639999Y-78496928D01*
X46466745Y-78513992D01*
X46300149Y-78564528D01*
X46146613Y-78646595D01*
X46012038Y-78757038D01*
X45901595Y-78891613D01*
X45819528Y-79045149D01*
X45768992Y-79211745D01*
X45751928Y-79384999D01*
X45751928Y-80635001D01*
X45768992Y-80808255D01*
X45819528Y-80974851D01*
X45901595Y-81128387D01*
X46012038Y-81262962D01*
X46146613Y-81373405D01*
X46300149Y-81455472D01*
X46466745Y-81506008D01*
X46639999Y-81523072D01*
X47340001Y-81523072D01*
X47513255Y-81506008D01*
X47679851Y-81455472D01*
X47833387Y-81373405D01*
X47967962Y-81262962D01*
X48078405Y-81128387D01*
X48080810Y-81123888D01*
X48112499Y-81162502D01*
X48300552Y-81316833D01*
X48515100Y-81431511D01*
X48747899Y-81502130D01*
X48990000Y-81525975D01*
X49232102Y-81502130D01*
X49464901Y-81431511D01*
X49679449Y-81316833D01*
X49867502Y-81162502D01*
X49990001Y-81013237D01*
X50112499Y-81162502D01*
X50300552Y-81316833D01*
X50515100Y-81431511D01*
X50747899Y-81502130D01*
X50990000Y-81525975D01*
X51232102Y-81502130D01*
X51464901Y-81431511D01*
X51679449Y-81316833D01*
X51867502Y-81162502D01*
X51990001Y-81013237D01*
X52112499Y-81162502D01*
X52300552Y-81316833D01*
X52515100Y-81431511D01*
X52747899Y-81502130D01*
X52990000Y-81525975D01*
X53232102Y-81502130D01*
X53464901Y-81431511D01*
X53679449Y-81316833D01*
X53867502Y-81162502D01*
X53990001Y-81013237D01*
X54112499Y-81162502D01*
X54300552Y-81316833D01*
X54515100Y-81431511D01*
X54747899Y-81502130D01*
X54990000Y-81525975D01*
X55232102Y-81502130D01*
X55464901Y-81431511D01*
X55679449Y-81316833D01*
X55867502Y-81162502D01*
X55990001Y-81013237D01*
X56112499Y-81162502D01*
X56300552Y-81316833D01*
X56515100Y-81431511D01*
X56747899Y-81502130D01*
X56990000Y-81525975D01*
X57232102Y-81502130D01*
X57464901Y-81431511D01*
X57679449Y-81316833D01*
X57867502Y-81162502D01*
X57990001Y-81013237D01*
X58112499Y-81162502D01*
X58300552Y-81316833D01*
X58515100Y-81431511D01*
X58747899Y-81502130D01*
X58990000Y-81525975D01*
X59232102Y-81502130D01*
X59464901Y-81431511D01*
X59679449Y-81316833D01*
X59867502Y-81162502D01*
X59990001Y-81013237D01*
X60112499Y-81162502D01*
X60300552Y-81316833D01*
X60515100Y-81431511D01*
X60747899Y-81502130D01*
X60990000Y-81525975D01*
X61232102Y-81502130D01*
X61464901Y-81431511D01*
X61679449Y-81316833D01*
X61867502Y-81162502D01*
X62021833Y-80974449D01*
X62136511Y-80759900D01*
X62207130Y-80527101D01*
X62225000Y-80345664D01*
X62225000Y-79674335D01*
X62207130Y-79492898D01*
X62174400Y-79384999D01*
X66071928Y-79384999D01*
X66071928Y-80635001D01*
X66088992Y-80808255D01*
X66139528Y-80974851D01*
X66221595Y-81128387D01*
X66332038Y-81262962D01*
X66466613Y-81373405D01*
X66620149Y-81455472D01*
X66786745Y-81506008D01*
X66959999Y-81523072D01*
X67660001Y-81523072D01*
X67833255Y-81506008D01*
X67999851Y-81455472D01*
X68153387Y-81373405D01*
X68287962Y-81262962D01*
X68398405Y-81128387D01*
X68400967Y-81123594D01*
X68526526Y-81248078D01*
X68729467Y-81382421D01*
X68954718Y-81474591D01*
X68992391Y-81478462D01*
X69183000Y-81353731D01*
X69183000Y-80137000D01*
X69437000Y-80137000D01*
X69437000Y-81353731D01*
X69627609Y-81478462D01*
X69665282Y-81474591D01*
X69890533Y-81382421D01*
X70093474Y-81248078D01*
X70266307Y-81076725D01*
X70395609Y-80885000D01*
X74961928Y-80885000D01*
X74974188Y-81009482D01*
X75010498Y-81129180D01*
X75069463Y-81239494D01*
X75148815Y-81336185D01*
X75245506Y-81415537D01*
X75355820Y-81474502D01*
X75475518Y-81510812D01*
X75600000Y-81523072D01*
X75914250Y-81520000D01*
X76073000Y-81361250D01*
X76073000Y-80137000D01*
X75123750Y-80137000D01*
X74965000Y-80295750D01*
X74961928Y-80885000D01*
X70395609Y-80885000D01*
X70402390Y-80874946D01*
X70496493Y-80650496D01*
X70545000Y-80412000D01*
X70545000Y-80137000D01*
X69437000Y-80137000D01*
X69183000Y-80137000D01*
X69163000Y-80137000D01*
X69163000Y-79883000D01*
X69183000Y-79883000D01*
X69183000Y-78666269D01*
X69437000Y-78666269D01*
X69437000Y-79883000D01*
X70545000Y-79883000D01*
X70545000Y-79608000D01*
X70496493Y-79369504D01*
X70402390Y-79145054D01*
X70266307Y-78943275D01*
X70093474Y-78771922D01*
X69890533Y-78637579D01*
X69665282Y-78545409D01*
X69627609Y-78541538D01*
X69437000Y-78666269D01*
X69183000Y-78666269D01*
X68992391Y-78541538D01*
X68954718Y-78545409D01*
X68729467Y-78637579D01*
X68526526Y-78771922D01*
X68400967Y-78896406D01*
X68398405Y-78891613D01*
X68287962Y-78757038D01*
X68153387Y-78646595D01*
X67999851Y-78564528D01*
X67833255Y-78513992D01*
X67660001Y-78496928D01*
X66959999Y-78496928D01*
X66786745Y-78513992D01*
X66620149Y-78564528D01*
X66466613Y-78646595D01*
X66332038Y-78757038D01*
X66221595Y-78891613D01*
X66139528Y-79045149D01*
X66088992Y-79211745D01*
X66071928Y-79384999D01*
X62174400Y-79384999D01*
X62136511Y-79260099D01*
X62021833Y-79045551D01*
X61867502Y-78857498D01*
X61679448Y-78703167D01*
X61464900Y-78588489D01*
X61232101Y-78517870D01*
X60990000Y-78494025D01*
X60747898Y-78517870D01*
X60515099Y-78588489D01*
X60300551Y-78703167D01*
X60112498Y-78857498D01*
X59990000Y-79006763D01*
X59867502Y-78857498D01*
X59679448Y-78703167D01*
X59464900Y-78588489D01*
X59232101Y-78517870D01*
X58990000Y-78494025D01*
X58747898Y-78517870D01*
X58515099Y-78588489D01*
X58300551Y-78703167D01*
X58112498Y-78857498D01*
X57990000Y-79006763D01*
X57867502Y-78857498D01*
X57679448Y-78703167D01*
X57464900Y-78588489D01*
X57232101Y-78517870D01*
X56990000Y-78494025D01*
X56747898Y-78517870D01*
X56515099Y-78588489D01*
X56300551Y-78703167D01*
X56112498Y-78857498D01*
X55990000Y-79006763D01*
X55867502Y-78857498D01*
X55679448Y-78703167D01*
X55464900Y-78588489D01*
X55270333Y-78529468D01*
X61984771Y-71815031D01*
X66067647Y-71815031D01*
X66104969Y-71818707D01*
X66142291Y-71815031D01*
X66142302Y-71815031D01*
X66253955Y-71804034D01*
X66397216Y-71760577D01*
X66529245Y-71690005D01*
X66644970Y-71595032D01*
X66668773Y-71566028D01*
X68254094Y-69980708D01*
X68298691Y-69994236D01*
X68509508Y-70015000D01*
X68650492Y-70015000D01*
X68861309Y-69994236D01*
X69131808Y-69912182D01*
X69381101Y-69778932D01*
X69599608Y-69599608D01*
X69778932Y-69381101D01*
X69850000Y-69248142D01*
X69921068Y-69381101D01*
X70100392Y-69599608D01*
X70318899Y-69778932D01*
X70568192Y-69912182D01*
X70838691Y-69994236D01*
X71049508Y-70015000D01*
X71150199Y-70015000D01*
X70805199Y-70360000D01*
X69283711Y-70360000D01*
X69239774Y-70316063D01*
X69070256Y-70202795D01*
X68881898Y-70124774D01*
X68681939Y-70085000D01*
X68478061Y-70085000D01*
X68278102Y-70124774D01*
X68089744Y-70202795D01*
X67920226Y-70316063D01*
X67776063Y-70460226D01*
X67662795Y-70629744D01*
X67584774Y-70818102D01*
X67545000Y-71018061D01*
X67545000Y-71221939D01*
X67584774Y-71421898D01*
X67662795Y-71610256D01*
X67776063Y-71779774D01*
X67920226Y-71923937D01*
X68089744Y-72037205D01*
X68278102Y-72115226D01*
X68478061Y-72155000D01*
X68681939Y-72155000D01*
X68881898Y-72115226D01*
X69070256Y-72037205D01*
X69239774Y-71923937D01*
X69283711Y-71880000D01*
X71082678Y-71880000D01*
X71120000Y-71883676D01*
X71157322Y-71880000D01*
X71157333Y-71880000D01*
X71268986Y-71869003D01*
X71412247Y-71825546D01*
X71544276Y-71754974D01*
X71660001Y-71660001D01*
X71683804Y-71630997D01*
X73334094Y-69980708D01*
X73378691Y-69994236D01*
X73589508Y-70015000D01*
X73730492Y-70015000D01*
X73941309Y-69994236D01*
X74211808Y-69912182D01*
X74461101Y-69778932D01*
X74679608Y-69599608D01*
X74858932Y-69381101D01*
X74992182Y-69131808D01*
X75074236Y-68861309D01*
X75101943Y-68580000D01*
X75074236Y-68298691D01*
X74992182Y-68028192D01*
X74858932Y-67778899D01*
X74679608Y-67560392D01*
X74461101Y-67381068D01*
X74211808Y-67247818D01*
X73941309Y-67165764D01*
X73730492Y-67145000D01*
X73589508Y-67145000D01*
X73378691Y-67165764D01*
X73296133Y-67190807D01*
X73298675Y-67165001D01*
X73294999Y-67127676D01*
X73294999Y-63599831D01*
X73895000Y-64199833D01*
X73895000Y-64261970D01*
X73934774Y-64461929D01*
X74012795Y-64650287D01*
X74126063Y-64819805D01*
X74270226Y-64963968D01*
X74439744Y-65077236D01*
X74628102Y-65155257D01*
X74828061Y-65195031D01*
X75031939Y-65195031D01*
X75231898Y-65155257D01*
X75420256Y-65077236D01*
X75589774Y-64963968D01*
X75733937Y-64819805D01*
X75847205Y-64650287D01*
X75925226Y-64461929D01*
X75965000Y-64261970D01*
X75965000Y-64058092D01*
X75925226Y-63858133D01*
X75847205Y-63669775D01*
X75733937Y-63500257D01*
X75589774Y-63356094D01*
X75420256Y-63242826D01*
X75231898Y-63164805D01*
X75031939Y-63125031D01*
X74969802Y-63125031D01*
X74420000Y-62575230D01*
X74420000Y-62180901D01*
X74461101Y-62158932D01*
X74679608Y-61979608D01*
X74858932Y-61761101D01*
X74992182Y-61511808D01*
X75074236Y-61241309D01*
X75101943Y-60960000D01*
X75074236Y-60678691D01*
X74992182Y-60408192D01*
X74858932Y-60158899D01*
X74679608Y-59940392D01*
X74461101Y-59761068D01*
X74335739Y-59694060D01*
X81686800Y-52343000D01*
X81790000Y-52343000D01*
X81790000Y-68871332D01*
X81790001Y-68871341D01*
X81790000Y-69812677D01*
X81786324Y-69850000D01*
X81790000Y-69887322D01*
X81790000Y-69887332D01*
X81800997Y-69998985D01*
X81829825Y-70094019D01*
X81844454Y-70142246D01*
X81915026Y-70274276D01*
X81946621Y-70312774D01*
X82009999Y-70390001D01*
X82039003Y-70413804D01*
X87155199Y-75530001D01*
X77417322Y-75530001D01*
X77379999Y-75526325D01*
X77342676Y-75530001D01*
X77342666Y-75530001D01*
X77231013Y-75540998D01*
X77087752Y-75584455D01*
X76955722Y-75655027D01*
X76883881Y-75713986D01*
X76839998Y-75750000D01*
X76816200Y-75778998D01*
X76027699Y-76567500D01*
X75965561Y-76567500D01*
X75765602Y-76607274D01*
X75577244Y-76685295D01*
X75407726Y-76798563D01*
X75263563Y-76942726D01*
X75150295Y-77112244D01*
X75072274Y-77300602D01*
X75032500Y-77500561D01*
X75032500Y-77704439D01*
X75072274Y-77904398D01*
X75150295Y-78092756D01*
X75263563Y-78262274D01*
X75407726Y-78406437D01*
X75550458Y-78501807D01*
X75475518Y-78509188D01*
X75355820Y-78545498D01*
X75245506Y-78604463D01*
X75148815Y-78683815D01*
X75069463Y-78780506D01*
X75010498Y-78890820D01*
X74974188Y-79010518D01*
X74961928Y-79135000D01*
X74965000Y-79724250D01*
X75123750Y-79883000D01*
X76073000Y-79883000D01*
X76073000Y-79863000D01*
X76327000Y-79863000D01*
X76327000Y-79883000D01*
X76347000Y-79883000D01*
X76347000Y-80137000D01*
X76327000Y-80137000D01*
X76327000Y-81361250D01*
X76485750Y-81520000D01*
X76800000Y-81523072D01*
X76924482Y-81510812D01*
X77044180Y-81474502D01*
X77154494Y-81415537D01*
X77251185Y-81336185D01*
X77330537Y-81239494D01*
X77356692Y-81190563D01*
X77510552Y-81316833D01*
X77725100Y-81431511D01*
X77957899Y-81502130D01*
X78200000Y-81525975D01*
X78442102Y-81502130D01*
X78674901Y-81431511D01*
X78889449Y-81316833D01*
X79077502Y-81162502D01*
X79200001Y-81013237D01*
X79322499Y-81162502D01*
X79510552Y-81316833D01*
X79725100Y-81431511D01*
X79957899Y-81502130D01*
X80200000Y-81525975D01*
X80442102Y-81502130D01*
X80674901Y-81431511D01*
X80889449Y-81316833D01*
X81077502Y-81162502D01*
X81200001Y-81013237D01*
X81322499Y-81162502D01*
X81510552Y-81316833D01*
X81725100Y-81431511D01*
X81957899Y-81502130D01*
X82200000Y-81525975D01*
X82442102Y-81502130D01*
X82674901Y-81431511D01*
X82889449Y-81316833D01*
X83077502Y-81162502D01*
X83231833Y-80974449D01*
X83346511Y-80759900D01*
X83417130Y-80527101D01*
X83435000Y-80345664D01*
X83435000Y-79674335D01*
X83417130Y-79492898D01*
X83346511Y-79260099D01*
X83231833Y-79045551D01*
X83077502Y-78857498D01*
X82889448Y-78703167D01*
X82674900Y-78588489D01*
X82442101Y-78517870D01*
X82200000Y-78494025D01*
X81957898Y-78517870D01*
X81725099Y-78588489D01*
X81510551Y-78703167D01*
X81322498Y-78857498D01*
X81200000Y-79006763D01*
X81077502Y-78857498D01*
X80889448Y-78703167D01*
X80674900Y-78588489D01*
X80442101Y-78517870D01*
X80200000Y-78494025D01*
X79957898Y-78517870D01*
X79725099Y-78588489D01*
X79510551Y-78703167D01*
X79322498Y-78857498D01*
X79200000Y-79006763D01*
X79077502Y-78857498D01*
X78889448Y-78703167D01*
X78674900Y-78588489D01*
X78442101Y-78517870D01*
X78200000Y-78494025D01*
X77957898Y-78517870D01*
X77725099Y-78588489D01*
X77510551Y-78703167D01*
X77356691Y-78829436D01*
X77330537Y-78780506D01*
X77251185Y-78683815D01*
X77154494Y-78604463D01*
X77044180Y-78545498D01*
X76924482Y-78509188D01*
X76800000Y-78496928D01*
X76588754Y-78498993D01*
X76727274Y-78406437D01*
X76871437Y-78262274D01*
X76984705Y-78092756D01*
X77023785Y-77998408D01*
X83669347Y-77998408D01*
X83669347Y-78202286D01*
X83709121Y-78402245D01*
X83787142Y-78590603D01*
X83900410Y-78760121D01*
X83944348Y-78804059D01*
X83944347Y-81873024D01*
X83940671Y-81910347D01*
X83944347Y-81947669D01*
X83944347Y-81947679D01*
X83955344Y-82059332D01*
X83979803Y-82139963D01*
X83998801Y-82202593D01*
X84069373Y-82334623D01*
X84083645Y-82352013D01*
X84164346Y-82450348D01*
X84193349Y-82474150D01*
X84309000Y-82589801D01*
X84309000Y-82651939D01*
X84348774Y-82851898D01*
X84426795Y-83040256D01*
X84540063Y-83209774D01*
X84684226Y-83353937D01*
X84853744Y-83467205D01*
X85042102Y-83545226D01*
X85242061Y-83585000D01*
X85445939Y-83585000D01*
X85645898Y-83545226D01*
X85834256Y-83467205D01*
X86003774Y-83353937D01*
X86147937Y-83209774D01*
X86261205Y-83040256D01*
X86339226Y-82851898D01*
X86379000Y-82651939D01*
X86379000Y-82448061D01*
X86339226Y-82248102D01*
X86261205Y-82059744D01*
X86147937Y-81890226D01*
X86003774Y-81746063D01*
X85834256Y-81632795D01*
X85645898Y-81554774D01*
X85464347Y-81518662D01*
X85464347Y-81030817D01*
X86370000Y-81030817D01*
X86370000Y-81529183D01*
X86467226Y-82017974D01*
X86657943Y-82478405D01*
X86934820Y-82892781D01*
X87287219Y-83245180D01*
X87701595Y-83522057D01*
X88162026Y-83712774D01*
X88650817Y-83810000D01*
X89149183Y-83810000D01*
X89637974Y-83712774D01*
X90098405Y-83522057D01*
X90512781Y-83245180D01*
X90865180Y-82892781D01*
X91142057Y-82478405D01*
X91332774Y-82017974D01*
X91430000Y-81529183D01*
X91430000Y-81030817D01*
X91332774Y-80542026D01*
X91142057Y-80081595D01*
X90865180Y-79667219D01*
X90512781Y-79314820D01*
X90098405Y-79037943D01*
X89637974Y-78847226D01*
X89149183Y-78750000D01*
X88650817Y-78750000D01*
X88162026Y-78847226D01*
X87701595Y-79037943D01*
X87287219Y-79314820D01*
X86934820Y-79667219D01*
X86657943Y-80081595D01*
X86467226Y-80542026D01*
X86370000Y-81030817D01*
X85464347Y-81030817D01*
X85464347Y-78804058D01*
X85508284Y-78760121D01*
X85621552Y-78590603D01*
X85699573Y-78402245D01*
X85739347Y-78202286D01*
X85739347Y-77998408D01*
X85699573Y-77798449D01*
X85621552Y-77610091D01*
X85508284Y-77440573D01*
X85364121Y-77296410D01*
X85194603Y-77183142D01*
X85006245Y-77105121D01*
X84806286Y-77065347D01*
X84602408Y-77065347D01*
X84402449Y-77105121D01*
X84214091Y-77183142D01*
X84044573Y-77296410D01*
X83900410Y-77440573D01*
X83787142Y-77610091D01*
X83709121Y-77798449D01*
X83669347Y-77998408D01*
X77023785Y-77998408D01*
X77062726Y-77904398D01*
X77102500Y-77704439D01*
X77102500Y-77642301D01*
X77694801Y-77050001D01*
X88575679Y-77050001D01*
X88613001Y-77053677D01*
X88650323Y-77050001D01*
X88650334Y-77050001D01*
X88761987Y-77039004D01*
X88905248Y-76995547D01*
X89037277Y-76924975D01*
X89153002Y-76830002D01*
X89176805Y-76800998D01*
X89500998Y-76476805D01*
X89530002Y-76453002D01*
X89624975Y-76337277D01*
X89695547Y-76205248D01*
X89739004Y-76061987D01*
X89750001Y-75950334D01*
X89753678Y-75913001D01*
X89750001Y-75875668D01*
X89750001Y-44069324D01*
X89753677Y-44032001D01*
X89750001Y-43994678D01*
X89750001Y-43994668D01*
X89739004Y-43883015D01*
X89695547Y-43739754D01*
X89624975Y-43607725D01*
X89530002Y-43492000D01*
X89501005Y-43468203D01*
X88665000Y-42632199D01*
X88665000Y-42570061D01*
X88625226Y-42370102D01*
X88547205Y-42181744D01*
X88433937Y-42012226D01*
X88289774Y-41868063D01*
X88120256Y-41754795D01*
X87931898Y-41676774D01*
X87731939Y-41637000D01*
X87528061Y-41637000D01*
X87328102Y-41676774D01*
X87139744Y-41754795D01*
X86970226Y-41868063D01*
X86826063Y-42012226D01*
X86712795Y-42181744D01*
X86634774Y-42370102D01*
X86595000Y-42570061D01*
X86595000Y-42773939D01*
X86634774Y-42973898D01*
X86712795Y-43162256D01*
X86826063Y-43331774D01*
X86970226Y-43475937D01*
X87139744Y-43589205D01*
X87328102Y-43667226D01*
X87528061Y-43707000D01*
X87590199Y-43707000D01*
X88230001Y-44346803D01*
X88230001Y-51156890D01*
X88205972Y-51137170D01*
X85035000Y-47966199D01*
X85035000Y-47904061D01*
X84995226Y-47704102D01*
X84917205Y-47515744D01*
X84803937Y-47346226D01*
X84659774Y-47202063D01*
X84490256Y-47088795D01*
X84301898Y-47010774D01*
X84101939Y-46971000D01*
X84035000Y-46971000D01*
X84035000Y-40835711D01*
X84078937Y-40791774D01*
X84192205Y-40622256D01*
X84270226Y-40433898D01*
X84310000Y-40233939D01*
X84310000Y-40030061D01*
X84270226Y-39830102D01*
X84192205Y-39641744D01*
X84078937Y-39472226D01*
X84027712Y-39421001D01*
X84081706Y-39415683D01*
X84333354Y-39339347D01*
X84565275Y-39215382D01*
X84768555Y-39048555D01*
X84935382Y-38845275D01*
X85059347Y-38613354D01*
X85135683Y-38361706D01*
X85161459Y-38100000D01*
X85135683Y-37838294D01*
X85059347Y-37586646D01*
X84935382Y-37354725D01*
X84768555Y-37151445D01*
X84565275Y-36984618D01*
X84333354Y-36860653D01*
X84081706Y-36784317D01*
X83885579Y-36765000D01*
X83754421Y-36765000D01*
X83558294Y-36784317D01*
X83310000Y-36859636D01*
X83310000Y-34358313D01*
X83528505Y-34212312D01*
X83742312Y-33998505D01*
X83910299Y-33747095D01*
X84026011Y-33467743D01*
X84085000Y-33171184D01*
X84085000Y-32868816D01*
X84065507Y-32770817D01*
X86370000Y-32770817D01*
X86370000Y-33269183D01*
X86467226Y-33757974D01*
X86657943Y-34218405D01*
X86934820Y-34632781D01*
X87287219Y-34985180D01*
X87701595Y-35262057D01*
X88162026Y-35452774D01*
X88650817Y-35550000D01*
X89149183Y-35550000D01*
X89637974Y-35452774D01*
X90098405Y-35262057D01*
X90512781Y-34985180D01*
X90865180Y-34632781D01*
X91142057Y-34218405D01*
X91332774Y-33757974D01*
X91430000Y-33269183D01*
X91430000Y-32770817D01*
X91332774Y-32282026D01*
X91142057Y-31821595D01*
X90865180Y-31407219D01*
X90512781Y-31054820D01*
X90098405Y-30777943D01*
X89637974Y-30587226D01*
X89149183Y-30490000D01*
X88650817Y-30490000D01*
X88162026Y-30587226D01*
X87701595Y-30777943D01*
X87287219Y-31054820D01*
X86934820Y-31407219D01*
X86657943Y-31821595D01*
X86467226Y-32282026D01*
X86370000Y-32770817D01*
X84065507Y-32770817D01*
X84026011Y-32572257D01*
X83910299Y-32292905D01*
X83742312Y-32041495D01*
X83528505Y-31827688D01*
X83277095Y-31659701D01*
X82997743Y-31543989D01*
X82701184Y-31485000D01*
X82398816Y-31485000D01*
X82102257Y-31543989D01*
X81822905Y-31659701D01*
X81571495Y-31827688D01*
X81505056Y-31894127D01*
X81499502Y-31875820D01*
X81440537Y-31765506D01*
X81361185Y-31668815D01*
X81264494Y-31589463D01*
X81154180Y-31530498D01*
X81034482Y-31494188D01*
X80910000Y-31481928D01*
X79110000Y-31481928D01*
X78985518Y-31494188D01*
X78865820Y-31530498D01*
X78755506Y-31589463D01*
X78658815Y-31668815D01*
X78579463Y-31765506D01*
X78520498Y-31875820D01*
X78484188Y-31995518D01*
X78471928Y-32120000D01*
X78471928Y-33920000D01*
X78484188Y-34044482D01*
X78520498Y-34164180D01*
X78579463Y-34274494D01*
X78658815Y-34371185D01*
X78755506Y-34450537D01*
X78865820Y-34509502D01*
X78985518Y-34545812D01*
X79110000Y-34558072D01*
X80910000Y-34558072D01*
X81034482Y-34545812D01*
X81154180Y-34509502D01*
X81264494Y-34450537D01*
X81361185Y-34371185D01*
X81440537Y-34274494D01*
X81499502Y-34164180D01*
X81505056Y-34145873D01*
X81571495Y-34212312D01*
X81790001Y-34358313D01*
X81790001Y-50273000D01*
X81686061Y-50273000D01*
X81486102Y-50312774D01*
X81297744Y-50390795D01*
X81128226Y-50504063D01*
X80984063Y-50648226D01*
X80870795Y-50817744D01*
X80792774Y-51006102D01*
X80772582Y-51107614D01*
X72029867Y-59850330D01*
X71921101Y-59761068D01*
X71671808Y-59627818D01*
X71401309Y-59545764D01*
X71190492Y-59525000D01*
X71049508Y-59525000D01*
X70838691Y-59545764D01*
X70794094Y-59559292D01*
X69651804Y-58417003D01*
X69628001Y-58387999D01*
X69512276Y-58293026D01*
X69380247Y-58222454D01*
X69236986Y-58178997D01*
X69125333Y-58168000D01*
X69125322Y-58168000D01*
X69088000Y-58164324D01*
X69050678Y-58168000D01*
X62425711Y-58168000D01*
X62381774Y-58124063D01*
X62212256Y-58010795D01*
X62023898Y-57932774D01*
X61823939Y-57893000D01*
X61720000Y-57893000D01*
X61720000Y-53885333D01*
X61723677Y-53848000D01*
X61709003Y-53699014D01*
X61665546Y-53555753D01*
X61594974Y-53423724D01*
X61523799Y-53336997D01*
X61500001Y-53307999D01*
X61471004Y-53284202D01*
X52633804Y-44447003D01*
X52610001Y-44417999D01*
X52494276Y-44323026D01*
X52362247Y-44252454D01*
X52218986Y-44208997D01*
X52107333Y-44198000D01*
X52107322Y-44198000D01*
X52070000Y-44194324D01*
X52032678Y-44198000D01*
X48709711Y-44198000D01*
X48665774Y-44154063D01*
X48496256Y-44040795D01*
X48307898Y-43962774D01*
X48107939Y-43923000D01*
X47972006Y-43923000D01*
X47972006Y-41146330D01*
X47975682Y-41109007D01*
X47972006Y-41071684D01*
X47972006Y-41071675D01*
X47961009Y-40960022D01*
X47917552Y-40816761D01*
X47846980Y-40684732D01*
X47752007Y-40569007D01*
X47723009Y-40545209D01*
X46418294Y-39240494D01*
X46465275Y-39215382D01*
X46668555Y-39048555D01*
X46835382Y-38845275D01*
X46959347Y-38613354D01*
X46988220Y-38518172D01*
X47076939Y-38732359D01*
X47223038Y-38951013D01*
X47408987Y-39136962D01*
X47627641Y-39283061D01*
X47870595Y-39383696D01*
X48128514Y-39435000D01*
X48391486Y-39435000D01*
X48649405Y-39383696D01*
X48892359Y-39283061D01*
X49111013Y-39136962D01*
X49296962Y-38951013D01*
X49443061Y-38732359D01*
X49543696Y-38489405D01*
X49595000Y-38231486D01*
X49595000Y-37968514D01*
X49543696Y-37710595D01*
X49443061Y-37467641D01*
X49296962Y-37248987D01*
X49111013Y-37063038D01*
X48892359Y-36916939D01*
X48649405Y-36816304D01*
X48391486Y-36765000D01*
X48128514Y-36765000D01*
X47870595Y-36816304D01*
X47627641Y-36916939D01*
X47408987Y-37063038D01*
X47223038Y-37248987D01*
X47076939Y-37467641D01*
X46988220Y-37681828D01*
X46959347Y-37586646D01*
X46835382Y-37354725D01*
X46668555Y-37151445D01*
X46465275Y-36984618D01*
X46233354Y-36860653D01*
X45981706Y-36784317D01*
X45785579Y-36765000D01*
X45654421Y-36765000D01*
X45458294Y-36784317D01*
X45210000Y-36859636D01*
X45210000Y-34358313D01*
X45428505Y-34212312D01*
X45642312Y-33998505D01*
X45810299Y-33747095D01*
X45926011Y-33467743D01*
X45985000Y-33171184D01*
X45985000Y-32868816D01*
X45926011Y-32572257D01*
X45810299Y-32292905D01*
X45694768Y-32120000D01*
X47991928Y-32120000D01*
X47991928Y-33920000D01*
X48004188Y-34044482D01*
X48040498Y-34164180D01*
X48099463Y-34274494D01*
X48178815Y-34371185D01*
X48275506Y-34450537D01*
X48385820Y-34509502D01*
X48505518Y-34545812D01*
X48630000Y-34558072D01*
X50430000Y-34558072D01*
X50554482Y-34545812D01*
X50674180Y-34509502D01*
X50784494Y-34450537D01*
X50881185Y-34371185D01*
X50960537Y-34274494D01*
X51019502Y-34164180D01*
X51025056Y-34145873D01*
X51091495Y-34212312D01*
X51310001Y-34358313D01*
X51310000Y-38309679D01*
X51306324Y-38347002D01*
X51310000Y-38384324D01*
X51310000Y-38384334D01*
X51320997Y-38495987D01*
X51355886Y-38611002D01*
X51364454Y-38639248D01*
X51435026Y-38771278D01*
X51474871Y-38819828D01*
X51529999Y-38887003D01*
X51559003Y-38910806D01*
X53799199Y-41151003D01*
X53822997Y-41180001D01*
X53938722Y-41274974D01*
X54070751Y-41345546D01*
X54214012Y-41389003D01*
X54325665Y-41400000D01*
X54325675Y-41400000D01*
X54362998Y-41403676D01*
X54400321Y-41400000D01*
X63050289Y-41400000D01*
X63094226Y-41443937D01*
X63263744Y-41557205D01*
X63452102Y-41635226D01*
X63652061Y-41675000D01*
X63761467Y-41675000D01*
X63735000Y-41808061D01*
X63735000Y-42011939D01*
X63774774Y-42211898D01*
X63852795Y-42400256D01*
X63966063Y-42569774D01*
X64110226Y-42713937D01*
X64279744Y-42827205D01*
X64468102Y-42905226D01*
X64668061Y-42945000D01*
X64871939Y-42945000D01*
X65071898Y-42905226D01*
X65260256Y-42827205D01*
X65429774Y-42713937D01*
X65573937Y-42569774D01*
X65687205Y-42400256D01*
X65765226Y-42211898D01*
X65805000Y-42011939D01*
X65805000Y-41808061D01*
X65765226Y-41608102D01*
X65687205Y-41419744D01*
X65573937Y-41250226D01*
X65530000Y-41206289D01*
X65530000Y-40620320D01*
X65533676Y-40582997D01*
X65530000Y-40545674D01*
X65530000Y-40545665D01*
X65519003Y-40434012D01*
X65475546Y-40290751D01*
X65404974Y-40158722D01*
X65310001Y-40042997D01*
X65281004Y-40019200D01*
X64665804Y-39404001D01*
X64642002Y-39374998D01*
X64526277Y-39280025D01*
X64394248Y-39209453D01*
X64289896Y-39177799D01*
X64351013Y-39136962D01*
X64536962Y-38951013D01*
X64683061Y-38732359D01*
X64783696Y-38489405D01*
X64835000Y-38231486D01*
X64835000Y-38100000D01*
X67238541Y-38100000D01*
X67264317Y-38361706D01*
X67340653Y-38613354D01*
X67464618Y-38845275D01*
X67631445Y-39048555D01*
X67834725Y-39215382D01*
X68066646Y-39339347D01*
X68318294Y-39415683D01*
X68514421Y-39435000D01*
X68645579Y-39435000D01*
X68841706Y-39415683D01*
X69093354Y-39339347D01*
X69325275Y-39215382D01*
X69528555Y-39048555D01*
X69695382Y-38845275D01*
X69819347Y-38613354D01*
X69848220Y-38518172D01*
X69936939Y-38732359D01*
X70083038Y-38951013D01*
X70268987Y-39136962D01*
X70487641Y-39283061D01*
X70730595Y-39383696D01*
X70988514Y-39435000D01*
X71251486Y-39435000D01*
X71509405Y-39383696D01*
X71752359Y-39283061D01*
X71971013Y-39136962D01*
X72156962Y-38951013D01*
X72303061Y-38732359D01*
X72403696Y-38489405D01*
X72455000Y-38231486D01*
X72455000Y-38100000D01*
X74858541Y-38100000D01*
X74884317Y-38361706D01*
X74960653Y-38613354D01*
X75084618Y-38845275D01*
X75251445Y-39048555D01*
X75454725Y-39215382D01*
X75686646Y-39339347D01*
X75938294Y-39415683D01*
X76134421Y-39435000D01*
X76265579Y-39435000D01*
X76461706Y-39415683D01*
X76713354Y-39339347D01*
X76945275Y-39215382D01*
X77148555Y-39048555D01*
X77315382Y-38845275D01*
X77439347Y-38613354D01*
X77468220Y-38518172D01*
X77556939Y-38732359D01*
X77703038Y-38951013D01*
X77888987Y-39136962D01*
X78107641Y-39283061D01*
X78350595Y-39383696D01*
X78608514Y-39435000D01*
X78871486Y-39435000D01*
X79129405Y-39383696D01*
X79372359Y-39283061D01*
X79591013Y-39136962D01*
X79776962Y-38951013D01*
X79923061Y-38732359D01*
X80023696Y-38489405D01*
X80075000Y-38231486D01*
X80075000Y-37968514D01*
X80023696Y-37710595D01*
X79923061Y-37467641D01*
X79776962Y-37248987D01*
X79591013Y-37063038D01*
X79372359Y-36916939D01*
X79129405Y-36816304D01*
X78871486Y-36765000D01*
X78608514Y-36765000D01*
X78350595Y-36816304D01*
X78107641Y-36916939D01*
X77888987Y-37063038D01*
X77703038Y-37248987D01*
X77556939Y-37467641D01*
X77468220Y-37681828D01*
X77439347Y-37586646D01*
X77315382Y-37354725D01*
X77148555Y-37151445D01*
X76945275Y-36984618D01*
X76713354Y-36860653D01*
X76461706Y-36784317D01*
X76265579Y-36765000D01*
X76134421Y-36765000D01*
X75938294Y-36784317D01*
X75686646Y-36860653D01*
X75454725Y-36984618D01*
X75251445Y-37151445D01*
X75084618Y-37354725D01*
X74960653Y-37586646D01*
X74884317Y-37838294D01*
X74858541Y-38100000D01*
X72455000Y-38100000D01*
X72455000Y-37968514D01*
X72403696Y-37710595D01*
X72303061Y-37467641D01*
X72156962Y-37248987D01*
X71971013Y-37063038D01*
X71752359Y-36916939D01*
X71509405Y-36816304D01*
X71251486Y-36765000D01*
X70988514Y-36765000D01*
X70730595Y-36816304D01*
X70487641Y-36916939D01*
X70268987Y-37063038D01*
X70083038Y-37248987D01*
X69936939Y-37467641D01*
X69848220Y-37681828D01*
X69819347Y-37586646D01*
X69695382Y-37354725D01*
X69528555Y-37151445D01*
X69325275Y-36984618D01*
X69093354Y-36860653D01*
X68841706Y-36784317D01*
X68645579Y-36765000D01*
X68514421Y-36765000D01*
X68318294Y-36784317D01*
X68066646Y-36860653D01*
X67834725Y-36984618D01*
X67631445Y-37151445D01*
X67464618Y-37354725D01*
X67340653Y-37586646D01*
X67264317Y-37838294D01*
X67238541Y-38100000D01*
X64835000Y-38100000D01*
X64835000Y-37968514D01*
X64783696Y-37710595D01*
X64683061Y-37467641D01*
X64536962Y-37248987D01*
X64351013Y-37063038D01*
X64132359Y-36916939D01*
X63889405Y-36816304D01*
X63631486Y-36765000D01*
X63368514Y-36765000D01*
X63110595Y-36816304D01*
X62867641Y-36916939D01*
X62648987Y-37063038D01*
X62463038Y-37248987D01*
X62316939Y-37467641D01*
X62228220Y-37681828D01*
X62199347Y-37586646D01*
X62075382Y-37354725D01*
X61908555Y-37151445D01*
X61705275Y-36984618D01*
X61473354Y-36860653D01*
X61221706Y-36784317D01*
X61025579Y-36765000D01*
X60894421Y-36765000D01*
X60698294Y-36784317D01*
X60446646Y-36860653D01*
X60214725Y-36984618D01*
X60011445Y-37151445D01*
X59844618Y-37354725D01*
X59720653Y-37586646D01*
X59644317Y-37838294D01*
X59618541Y-38100000D01*
X59644317Y-38361706D01*
X59720653Y-38613354D01*
X59844618Y-38845275D01*
X60011445Y-39048555D01*
X60214725Y-39215382D01*
X60446646Y-39339347D01*
X60698294Y-39415683D01*
X60894421Y-39435000D01*
X61025579Y-39435000D01*
X61202749Y-39417550D01*
X61665198Y-39880000D01*
X54677800Y-39880000D01*
X54038294Y-39240494D01*
X54085275Y-39215382D01*
X54288555Y-39048555D01*
X54455382Y-38845275D01*
X54579347Y-38613354D01*
X54608220Y-38518172D01*
X54696939Y-38732359D01*
X54843038Y-38951013D01*
X55028987Y-39136962D01*
X55247641Y-39283061D01*
X55490595Y-39383696D01*
X55748514Y-39435000D01*
X56011486Y-39435000D01*
X56269405Y-39383696D01*
X56512359Y-39283061D01*
X56731013Y-39136962D01*
X56916962Y-38951013D01*
X57063061Y-38732359D01*
X57163696Y-38489405D01*
X57215000Y-38231486D01*
X57215000Y-37968514D01*
X57163696Y-37710595D01*
X57063061Y-37467641D01*
X56916962Y-37248987D01*
X56731013Y-37063038D01*
X56512359Y-36916939D01*
X56269405Y-36816304D01*
X56011486Y-36765000D01*
X55748514Y-36765000D01*
X55490595Y-36816304D01*
X55247641Y-36916939D01*
X55028987Y-37063038D01*
X54843038Y-37248987D01*
X54696939Y-37467641D01*
X54608220Y-37681828D01*
X54579347Y-37586646D01*
X54455382Y-37354725D01*
X54288555Y-37151445D01*
X54085275Y-36984618D01*
X53853354Y-36860653D01*
X53601706Y-36784317D01*
X53405579Y-36765000D01*
X53274421Y-36765000D01*
X53078294Y-36784317D01*
X52830000Y-36859636D01*
X52830000Y-34358313D01*
X53048505Y-34212312D01*
X53262312Y-33998505D01*
X53430299Y-33747095D01*
X53546011Y-33467743D01*
X53605000Y-33171184D01*
X53605000Y-32868816D01*
X53546011Y-32572257D01*
X53430299Y-32292905D01*
X53314768Y-32120000D01*
X55611928Y-32120000D01*
X55611928Y-33920000D01*
X55624188Y-34044482D01*
X55660498Y-34164180D01*
X55719463Y-34274494D01*
X55798815Y-34371185D01*
X55895506Y-34450537D01*
X56005820Y-34509502D01*
X56125518Y-34545812D01*
X56250000Y-34558072D01*
X58050000Y-34558072D01*
X58174482Y-34545812D01*
X58294180Y-34509502D01*
X58404494Y-34450537D01*
X58501185Y-34371185D01*
X58580537Y-34274494D01*
X58639502Y-34164180D01*
X58645056Y-34145873D01*
X58711495Y-34212312D01*
X58962905Y-34380299D01*
X59242257Y-34496011D01*
X59538816Y-34555000D01*
X59841184Y-34555000D01*
X60137743Y-34496011D01*
X60417095Y-34380299D01*
X60668505Y-34212312D01*
X60882312Y-33998505D01*
X61050299Y-33747095D01*
X61166011Y-33467743D01*
X61225000Y-33171184D01*
X61225000Y-32868816D01*
X61166011Y-32572257D01*
X61050299Y-32292905D01*
X60934768Y-32120000D01*
X63231928Y-32120000D01*
X63231928Y-33920000D01*
X63244188Y-34044482D01*
X63280498Y-34164180D01*
X63339463Y-34274494D01*
X63418815Y-34371185D01*
X63515506Y-34450537D01*
X63625820Y-34509502D01*
X63745518Y-34545812D01*
X63870000Y-34558072D01*
X65670000Y-34558072D01*
X65794482Y-34545812D01*
X65914180Y-34509502D01*
X66024494Y-34450537D01*
X66121185Y-34371185D01*
X66200537Y-34274494D01*
X66259502Y-34164180D01*
X66265056Y-34145873D01*
X66331495Y-34212312D01*
X66582905Y-34380299D01*
X66862257Y-34496011D01*
X67158816Y-34555000D01*
X67461184Y-34555000D01*
X67757743Y-34496011D01*
X68037095Y-34380299D01*
X68288505Y-34212312D01*
X68502312Y-33998505D01*
X68670299Y-33747095D01*
X68786011Y-33467743D01*
X68845000Y-33171184D01*
X68845000Y-32868816D01*
X68786011Y-32572257D01*
X68670299Y-32292905D01*
X68554768Y-32120000D01*
X70851928Y-32120000D01*
X70851928Y-33920000D01*
X70864188Y-34044482D01*
X70900498Y-34164180D01*
X70959463Y-34274494D01*
X71038815Y-34371185D01*
X71135506Y-34450537D01*
X71245820Y-34509502D01*
X71365518Y-34545812D01*
X71490000Y-34558072D01*
X73290000Y-34558072D01*
X73414482Y-34545812D01*
X73534180Y-34509502D01*
X73644494Y-34450537D01*
X73741185Y-34371185D01*
X73820537Y-34274494D01*
X73879502Y-34164180D01*
X73885056Y-34145873D01*
X73951495Y-34212312D01*
X74202905Y-34380299D01*
X74482257Y-34496011D01*
X74778816Y-34555000D01*
X75081184Y-34555000D01*
X75377743Y-34496011D01*
X75657095Y-34380299D01*
X75908505Y-34212312D01*
X76122312Y-33998505D01*
X76290299Y-33747095D01*
X76406011Y-33467743D01*
X76465000Y-33171184D01*
X76465000Y-32868816D01*
X76406011Y-32572257D01*
X76290299Y-32292905D01*
X76122312Y-32041495D01*
X75908505Y-31827688D01*
X75657095Y-31659701D01*
X75377743Y-31543989D01*
X75081184Y-31485000D01*
X74778816Y-31485000D01*
X74482257Y-31543989D01*
X74202905Y-31659701D01*
X73951495Y-31827688D01*
X73885056Y-31894127D01*
X73879502Y-31875820D01*
X73820537Y-31765506D01*
X73741185Y-31668815D01*
X73644494Y-31589463D01*
X73534180Y-31530498D01*
X73414482Y-31494188D01*
X73290000Y-31481928D01*
X71490000Y-31481928D01*
X71365518Y-31494188D01*
X71245820Y-31530498D01*
X71135506Y-31589463D01*
X71038815Y-31668815D01*
X70959463Y-31765506D01*
X70900498Y-31875820D01*
X70864188Y-31995518D01*
X70851928Y-32120000D01*
X68554768Y-32120000D01*
X68502312Y-32041495D01*
X68288505Y-31827688D01*
X68037095Y-31659701D01*
X67757743Y-31543989D01*
X67461184Y-31485000D01*
X67158816Y-31485000D01*
X66862257Y-31543989D01*
X66582905Y-31659701D01*
X66331495Y-31827688D01*
X66265056Y-31894127D01*
X66259502Y-31875820D01*
X66200537Y-31765506D01*
X66121185Y-31668815D01*
X66024494Y-31589463D01*
X65914180Y-31530498D01*
X65794482Y-31494188D01*
X65670000Y-31481928D01*
X63870000Y-31481928D01*
X63745518Y-31494188D01*
X63625820Y-31530498D01*
X63515506Y-31589463D01*
X63418815Y-31668815D01*
X63339463Y-31765506D01*
X63280498Y-31875820D01*
X63244188Y-31995518D01*
X63231928Y-32120000D01*
X60934768Y-32120000D01*
X60882312Y-32041495D01*
X60668505Y-31827688D01*
X60417095Y-31659701D01*
X60137743Y-31543989D01*
X59841184Y-31485000D01*
X59538816Y-31485000D01*
X59242257Y-31543989D01*
X58962905Y-31659701D01*
X58711495Y-31827688D01*
X58645056Y-31894127D01*
X58639502Y-31875820D01*
X58580537Y-31765506D01*
X58501185Y-31668815D01*
X58404494Y-31589463D01*
X58294180Y-31530498D01*
X58174482Y-31494188D01*
X58050000Y-31481928D01*
X56250000Y-31481928D01*
X56125518Y-31494188D01*
X56005820Y-31530498D01*
X55895506Y-31589463D01*
X55798815Y-31668815D01*
X55719463Y-31765506D01*
X55660498Y-31875820D01*
X55624188Y-31995518D01*
X55611928Y-32120000D01*
X53314768Y-32120000D01*
X53262312Y-32041495D01*
X53048505Y-31827688D01*
X52797095Y-31659701D01*
X52517743Y-31543989D01*
X52221184Y-31485000D01*
X51918816Y-31485000D01*
X51622257Y-31543989D01*
X51342905Y-31659701D01*
X51091495Y-31827688D01*
X51025056Y-31894127D01*
X51019502Y-31875820D01*
X50960537Y-31765506D01*
X50881185Y-31668815D01*
X50784494Y-31589463D01*
X50674180Y-31530498D01*
X50554482Y-31494188D01*
X50430000Y-31481928D01*
X48630000Y-31481928D01*
X48505518Y-31494188D01*
X48385820Y-31530498D01*
X48275506Y-31589463D01*
X48178815Y-31668815D01*
X48099463Y-31765506D01*
X48040498Y-31875820D01*
X48004188Y-31995518D01*
X47991928Y-32120000D01*
X45694768Y-32120000D01*
X45642312Y-32041495D01*
X45428505Y-31827688D01*
X45177095Y-31659701D01*
X44897743Y-31543989D01*
X44601184Y-31485000D01*
X44298816Y-31485000D01*
X44002257Y-31543989D01*
X43722905Y-31659701D01*
X43471495Y-31827688D01*
X43405056Y-31894127D01*
X43399502Y-31875820D01*
X43340537Y-31765506D01*
X43261185Y-31668815D01*
X43164494Y-31589463D01*
X43054180Y-31530498D01*
X42934482Y-31494188D01*
X42810000Y-31481928D01*
X41010000Y-31481928D01*
X40885518Y-31494188D01*
X40765820Y-31530498D01*
X40655506Y-31589463D01*
X40558815Y-31668815D01*
X40479463Y-31765506D01*
X40420498Y-31875820D01*
X40384188Y-31995518D01*
X40371928Y-32120000D01*
X40371928Y-33920000D01*
X40384188Y-34044482D01*
X40420498Y-34164180D01*
X40479463Y-34274494D01*
X40558815Y-34371185D01*
X40655506Y-34450537D01*
X40765820Y-34509502D01*
X40885518Y-34545812D01*
X41010000Y-34558072D01*
X42810000Y-34558072D01*
X42934482Y-34545812D01*
X43054180Y-34509502D01*
X43164494Y-34450537D01*
X43261185Y-34371185D01*
X43340537Y-34274494D01*
X43399502Y-34164180D01*
X43405056Y-34145873D01*
X43471495Y-34212312D01*
X43690001Y-34358313D01*
X43690000Y-38309679D01*
X43686324Y-38347002D01*
X43690000Y-38384324D01*
X43690000Y-38384334D01*
X43700997Y-38495987D01*
X43735886Y-38611002D01*
X43744454Y-38639248D01*
X43815026Y-38771278D01*
X43854871Y-38819828D01*
X43909999Y-38887003D01*
X43939003Y-38910806D01*
X46452007Y-41423811D01*
X46452006Y-46885792D01*
X43817206Y-44250993D01*
X43793403Y-44221989D01*
X43677678Y-44127016D01*
X43545649Y-44056444D01*
X43402388Y-44012987D01*
X43290735Y-44001990D01*
X43290724Y-44001990D01*
X43253402Y-43998314D01*
X43216080Y-44001990D01*
X43213378Y-44001990D01*
X42896389Y-43685002D01*
X42872587Y-43655999D01*
X42756862Y-43561026D01*
X42624833Y-43490454D01*
X42481572Y-43446997D01*
X42369919Y-43436000D01*
X42369908Y-43436000D01*
X42332586Y-43432324D01*
X42295264Y-43436000D01*
X39176802Y-43436000D01*
X37834999Y-42094198D01*
X37834999Y-39414683D01*
X37838294Y-39415683D01*
X38034421Y-39435000D01*
X38165579Y-39435000D01*
X38361706Y-39415683D01*
X38613354Y-39339347D01*
X38845275Y-39215382D01*
X39048555Y-39048555D01*
X39215382Y-38845275D01*
X39339347Y-38613354D01*
X39368220Y-38518172D01*
X39456939Y-38732359D01*
X39603038Y-38951013D01*
X39788987Y-39136962D01*
X40007641Y-39283061D01*
X40250595Y-39383696D01*
X40508514Y-39435000D01*
X40771486Y-39435000D01*
X41029405Y-39383696D01*
X41272359Y-39283061D01*
X41491013Y-39136962D01*
X41676962Y-38951013D01*
X41823061Y-38732359D01*
X41923696Y-38489405D01*
X41975000Y-38231486D01*
X41975000Y-37968514D01*
X41923696Y-37710595D01*
X41823061Y-37467641D01*
X41676962Y-37248987D01*
X41491013Y-37063038D01*
X41272359Y-36916939D01*
X41029405Y-36816304D01*
X40771486Y-36765000D01*
X40508514Y-36765000D01*
X40250595Y-36816304D01*
X40007641Y-36916939D01*
X39788987Y-37063038D01*
X39603038Y-37248987D01*
X39456939Y-37467641D01*
X39368220Y-37681828D01*
X39339347Y-37586646D01*
X39215382Y-37354725D01*
X39048555Y-37151445D01*
X38845275Y-36984618D01*
X38613354Y-36860653D01*
X38361706Y-36784317D01*
X38165579Y-36765000D01*
X38034421Y-36765000D01*
X37838294Y-36784317D01*
X37834999Y-36785317D01*
X37834999Y-35588322D01*
X37838675Y-35550999D01*
X37834999Y-35513676D01*
X37834999Y-35513666D01*
X37824002Y-35402013D01*
X37780545Y-35258752D01*
X37709973Y-35126723D01*
X37615000Y-35010998D01*
X37590000Y-34990481D01*
X37590000Y-34358313D01*
X37808505Y-34212312D01*
X38022312Y-33998505D01*
X38190299Y-33747095D01*
X38306011Y-33467743D01*
X38365000Y-33171184D01*
X38365000Y-32868816D01*
X38306011Y-32572257D01*
X38190299Y-32292905D01*
X38022312Y-32041495D01*
X37808505Y-31827688D01*
X37557095Y-31659701D01*
X37277743Y-31543989D01*
X36981184Y-31485000D01*
X36678816Y-31485000D01*
X36382257Y-31543989D01*
X36102905Y-31659701D01*
X35851495Y-31827688D01*
X35785056Y-31894127D01*
X35779502Y-31875820D01*
X35720537Y-31765506D01*
X35641185Y-31668815D01*
X35544494Y-31589463D01*
X35434180Y-31530498D01*
X35314482Y-31494188D01*
X35190000Y-31481928D01*
X33390000Y-31481928D01*
X33265518Y-31494188D01*
X33145820Y-31530498D01*
X33035506Y-31589463D01*
X32938815Y-31668815D01*
X32859463Y-31765506D01*
X32800498Y-31875820D01*
X32764188Y-31995518D01*
X32751928Y-32120000D01*
X32751928Y-33920000D01*
X32764188Y-34044482D01*
X32800498Y-34164180D01*
X32859463Y-34274494D01*
X32938815Y-34371185D01*
X33035506Y-34450537D01*
X33145820Y-34509502D01*
X33265518Y-34545812D01*
X33390000Y-34558072D01*
X35190000Y-34558072D01*
X35314482Y-34545812D01*
X35434180Y-34509502D01*
X35544494Y-34450537D01*
X35641185Y-34371185D01*
X35720537Y-34274494D01*
X35779502Y-34164180D01*
X35785056Y-34145873D01*
X35851495Y-34212312D01*
X36070001Y-34358313D01*
X36070000Y-35268677D01*
X36066324Y-35306000D01*
X36070000Y-35343322D01*
X36070000Y-35343332D01*
X36080997Y-35454985D01*
X36109819Y-35550000D01*
X36124454Y-35598246D01*
X36195026Y-35730276D01*
X36234871Y-35778826D01*
X36289999Y-35846001D01*
X36315000Y-35866519D01*
X36314999Y-42371676D01*
X36311323Y-42408999D01*
X36314999Y-42446321D01*
X36314999Y-42446331D01*
X36325996Y-42557984D01*
X36369453Y-42701245D01*
X36440025Y-42833275D01*
X36479870Y-42881825D01*
X36534998Y-42949000D01*
X36564002Y-42972803D01*
X38043198Y-44452000D01*
X32064803Y-44452000D01*
X29970000Y-42357199D01*
X29970000Y-39340364D01*
X30218294Y-39415683D01*
X30414421Y-39435000D01*
X30545579Y-39435000D01*
X30741706Y-39415683D01*
X30993354Y-39339347D01*
X31225275Y-39215382D01*
X31428555Y-39048555D01*
X31595382Y-38845275D01*
X31719347Y-38613354D01*
X31748220Y-38518172D01*
X31836939Y-38732359D01*
X31983038Y-38951013D01*
X32168987Y-39136962D01*
X32387641Y-39283061D01*
X32630595Y-39383696D01*
X32888514Y-39435000D01*
X33151486Y-39435000D01*
X33409405Y-39383696D01*
X33652359Y-39283061D01*
X33871013Y-39136962D01*
X34056962Y-38951013D01*
X34203061Y-38732359D01*
X34303696Y-38489405D01*
X34355000Y-38231486D01*
X34355000Y-37968514D01*
X34303696Y-37710595D01*
X34203061Y-37467641D01*
X34056962Y-37248987D01*
X33871013Y-37063038D01*
X33652359Y-36916939D01*
X33409405Y-36816304D01*
X33151486Y-36765000D01*
X32888514Y-36765000D01*
X32630595Y-36816304D01*
X32387641Y-36916939D01*
X32168987Y-37063038D01*
X31983038Y-37248987D01*
X31836939Y-37467641D01*
X31748220Y-37681828D01*
X31719347Y-37586646D01*
X31595382Y-37354725D01*
X31428555Y-37151445D01*
X31225275Y-36984618D01*
X30993354Y-36860653D01*
X30741706Y-36784317D01*
X30545579Y-36765000D01*
X30414421Y-36765000D01*
X30218294Y-36784317D01*
X29970000Y-36859636D01*
X29970000Y-34358313D01*
X30188505Y-34212312D01*
X30402312Y-33998505D01*
X30570299Y-33747095D01*
X30686011Y-33467743D01*
X30745000Y-33171184D01*
X30745000Y-32868816D01*
X30686011Y-32572257D01*
X30570299Y-32292905D01*
X30402312Y-32041495D01*
X30188505Y-31827688D01*
X29937095Y-31659701D01*
X29657743Y-31543989D01*
X29361184Y-31485000D01*
X29058816Y-31485000D01*
X28762257Y-31543989D01*
X28482905Y-31659701D01*
X28231495Y-31827688D01*
X28165056Y-31894127D01*
X28159502Y-31875820D01*
X28100537Y-31765506D01*
X28021185Y-31668815D01*
X27924494Y-31589463D01*
X27814180Y-31530498D01*
X27694482Y-31494188D01*
X27570000Y-31481928D01*
X25770000Y-31481928D01*
X25645518Y-31494188D01*
X25525820Y-31530498D01*
X25415506Y-31589463D01*
X25318815Y-31668815D01*
X25239463Y-31765506D01*
X25180498Y-31875820D01*
X25144188Y-31995518D01*
X25131928Y-32120000D01*
X25131928Y-33920000D01*
X25144188Y-34044482D01*
X25180498Y-34164180D01*
X25239463Y-34274494D01*
X25318815Y-34371185D01*
X25415506Y-34450537D01*
X25525820Y-34509502D01*
X25645518Y-34545812D01*
X25770000Y-34558072D01*
X27570000Y-34558072D01*
X27694482Y-34545812D01*
X27814180Y-34509502D01*
X27924494Y-34450537D01*
X28021185Y-34371185D01*
X28100537Y-34274494D01*
X28159502Y-34164180D01*
X28165056Y-34145873D01*
X28231495Y-34212312D01*
X28450001Y-34358313D01*
X28450000Y-41599199D01*
X27487804Y-40637003D01*
X27464001Y-40607999D01*
X27348276Y-40513026D01*
X27216247Y-40442454D01*
X27072986Y-40398997D01*
X26961333Y-40388000D01*
X26961322Y-40388000D01*
X26924000Y-40384324D01*
X26886678Y-40388000D01*
X22135323Y-40388000D01*
X22098000Y-40384324D01*
X22060677Y-40388000D01*
X22060667Y-40388000D01*
X21949014Y-40398997D01*
X21833580Y-40434013D01*
X21805753Y-40442454D01*
X21673723Y-40513026D01*
X21605511Y-40569007D01*
X21557999Y-40607999D01*
X21534201Y-40636997D01*
X16978199Y-45193000D01*
X16916061Y-45193000D01*
X16716102Y-45232774D01*
X16527744Y-45310795D01*
X16358226Y-45424063D01*
X16214063Y-45568226D01*
X16100795Y-45737744D01*
X16022774Y-45926102D01*
X15983000Y-46126061D01*
X15925000Y-46126061D01*
X15925000Y-37968514D01*
X24065000Y-37968514D01*
X24065000Y-38231486D01*
X24116304Y-38489405D01*
X24216939Y-38732359D01*
X24363038Y-38951013D01*
X24548987Y-39136962D01*
X24767641Y-39283061D01*
X25010595Y-39383696D01*
X25268514Y-39435000D01*
X25531486Y-39435000D01*
X25789405Y-39383696D01*
X26032359Y-39283061D01*
X26251013Y-39136962D01*
X26436962Y-38951013D01*
X26583061Y-38732359D01*
X26683696Y-38489405D01*
X26735000Y-38231486D01*
X26735000Y-37968514D01*
X26683696Y-37710595D01*
X26583061Y-37467641D01*
X26436962Y-37248987D01*
X26251013Y-37063038D01*
X26032359Y-36916939D01*
X25789405Y-36816304D01*
X25531486Y-36765000D01*
X25268514Y-36765000D01*
X25010595Y-36816304D01*
X24767641Y-36916939D01*
X24548987Y-37063038D01*
X24363038Y-37248987D01*
X24216939Y-37467641D01*
X24116304Y-37710595D01*
X24065000Y-37968514D01*
X15925000Y-37968514D01*
X15925000Y-32770817D01*
X17790000Y-32770817D01*
X17790000Y-33269183D01*
X17887226Y-33757974D01*
X18077943Y-34218405D01*
X18354820Y-34632781D01*
X18707219Y-34985180D01*
X19121595Y-35262057D01*
X19582026Y-35452774D01*
X20070817Y-35550000D01*
X20569183Y-35550000D01*
X21057974Y-35452774D01*
X21518405Y-35262057D01*
X21932781Y-34985180D01*
X22285180Y-34632781D01*
X22562057Y-34218405D01*
X22752774Y-33757974D01*
X22850000Y-33269183D01*
X22850000Y-32770817D01*
X22752774Y-32282026D01*
X22562057Y-31821595D01*
X22285180Y-31407219D01*
X21932781Y-31054820D01*
X21518405Y-30777943D01*
X21057974Y-30587226D01*
X20569183Y-30490000D01*
X20070817Y-30490000D01*
X19582026Y-30587226D01*
X19121595Y-30777943D01*
X18707219Y-31054820D01*
X18354820Y-31407219D01*
X18077943Y-31821595D01*
X17887226Y-32282026D01*
X17790000Y-32770817D01*
X15925000Y-32770817D01*
X15925000Y-31783504D01*
X15987738Y-31143656D01*
X16163832Y-30560405D01*
X16449856Y-30022471D01*
X16834922Y-29550333D01*
X17304359Y-29161981D01*
X17840286Y-28872206D01*
X18422291Y-28692045D01*
X19060189Y-28625000D01*
X90136496Y-28625000D01*
X90776344Y-28687738D01*
G36*
X56051071Y-59665872D02*
G01*
X56007000Y-59690085D01*
X56007000Y-60833000D01*
X56027000Y-60833000D01*
X56027000Y-61087000D01*
X56007000Y-61087000D01*
X56007000Y-62229915D01*
X56229039Y-62351904D01*
X56363087Y-62311246D01*
X56617420Y-62191037D01*
X56843414Y-62023519D01*
X57032385Y-61815131D01*
X57147421Y-61623318D01*
X57221068Y-61761101D01*
X57400392Y-61979608D01*
X57618899Y-62158932D01*
X57868192Y-62292182D01*
X58138691Y-62374236D01*
X58349508Y-62395000D01*
X58490492Y-62395000D01*
X58701309Y-62374236D01*
X58745907Y-62360708D01*
X63530198Y-67145000D01*
X63429508Y-67145000D01*
X63218691Y-67165764D01*
X62948192Y-67247818D01*
X62698899Y-67381068D01*
X62480392Y-67560392D01*
X62301068Y-67778899D01*
X62230000Y-67911858D01*
X62158932Y-67778899D01*
X61979608Y-67560392D01*
X61761101Y-67381068D01*
X61511808Y-67247818D01*
X61241309Y-67165764D01*
X61030492Y-67145000D01*
X60889508Y-67145000D01*
X60678691Y-67165764D01*
X60408192Y-67247818D01*
X60158899Y-67381068D01*
X59940392Y-67560392D01*
X59761068Y-67778899D01*
X59690000Y-67911858D01*
X59618932Y-67778899D01*
X59439608Y-67560392D01*
X59221101Y-67381068D01*
X58971808Y-67247818D01*
X58701309Y-67165764D01*
X58490492Y-67145000D01*
X58349508Y-67145000D01*
X58138691Y-67165764D01*
X57868192Y-67247818D01*
X57618899Y-67381068D01*
X57400392Y-67560392D01*
X57307581Y-67673482D01*
X57305812Y-67655518D01*
X57269502Y-67535820D01*
X57210537Y-67425506D01*
X57131185Y-67328815D01*
X57034494Y-67249463D01*
X56924180Y-67190498D01*
X56804482Y-67154188D01*
X56680000Y-67141928D01*
X56534326Y-67141928D01*
X56514974Y-67105724D01*
X56489313Y-67074456D01*
X56443799Y-67018996D01*
X56443795Y-67018992D01*
X56420001Y-66989999D01*
X56391008Y-66966205D01*
X55116000Y-65691199D01*
X55116000Y-62171335D01*
X55142580Y-62191037D01*
X55396913Y-62311246D01*
X55530961Y-62351904D01*
X55753000Y-62229915D01*
X55753000Y-61087000D01*
X55733000Y-61087000D01*
X55733000Y-60833000D01*
X55753000Y-60833000D01*
X55753000Y-59690085D01*
X55530961Y-59568096D01*
X55396913Y-59608754D01*
X55142580Y-59728963D01*
X55116000Y-59748665D01*
X55116000Y-58965325D01*
X55119676Y-58928000D01*
X55116000Y-58890675D01*
X55116000Y-58890667D01*
X55105003Y-58779014D01*
X55079222Y-58694023D01*
X56051071Y-59665872D01*
X56051071Y-59665872D01*
G37*
X56051071Y-59665872D02*
X56007000Y-59690085D01*
X56007000Y-60833000D01*
X56027000Y-60833000D01*
X56027000Y-61087000D01*
X56007000Y-61087000D01*
X56007000Y-62229915D01*
X56229039Y-62351904D01*
X56363087Y-62311246D01*
X56617420Y-62191037D01*
X56843414Y-62023519D01*
X57032385Y-61815131D01*
X57147421Y-61623318D01*
X57221068Y-61761101D01*
X57400392Y-61979608D01*
X57618899Y-62158932D01*
X57868192Y-62292182D01*
X58138691Y-62374236D01*
X58349508Y-62395000D01*
X58490492Y-62395000D01*
X58701309Y-62374236D01*
X58745907Y-62360708D01*
X63530198Y-67145000D01*
X63429508Y-67145000D01*
X63218691Y-67165764D01*
X62948192Y-67247818D01*
X62698899Y-67381068D01*
X62480392Y-67560392D01*
X62301068Y-67778899D01*
X62230000Y-67911858D01*
X62158932Y-67778899D01*
X61979608Y-67560392D01*
X61761101Y-67381068D01*
X61511808Y-67247818D01*
X61241309Y-67165764D01*
X61030492Y-67145000D01*
X60889508Y-67145000D01*
X60678691Y-67165764D01*
X60408192Y-67247818D01*
X60158899Y-67381068D01*
X59940392Y-67560392D01*
X59761068Y-67778899D01*
X59690000Y-67911858D01*
X59618932Y-67778899D01*
X59439608Y-67560392D01*
X59221101Y-67381068D01*
X58971808Y-67247818D01*
X58701309Y-67165764D01*
X58490492Y-67145000D01*
X58349508Y-67145000D01*
X58138691Y-67165764D01*
X57868192Y-67247818D01*
X57618899Y-67381068D01*
X57400392Y-67560392D01*
X57307581Y-67673482D01*
X57305812Y-67655518D01*
X57269502Y-67535820D01*
X57210537Y-67425506D01*
X57131185Y-67328815D01*
X57034494Y-67249463D01*
X56924180Y-67190498D01*
X56804482Y-67154188D01*
X56680000Y-67141928D01*
X56534326Y-67141928D01*
X56514974Y-67105724D01*
X56489313Y-67074456D01*
X56443799Y-67018996D01*
X56443795Y-67018992D01*
X56420001Y-66989999D01*
X56391008Y-66966205D01*
X55116000Y-65691199D01*
X55116000Y-62171335D01*
X55142580Y-62191037D01*
X55396913Y-62311246D01*
X55530961Y-62351904D01*
X55753000Y-62229915D01*
X55753000Y-61087000D01*
X55733000Y-61087000D01*
X55733000Y-60833000D01*
X55753000Y-60833000D01*
X55753000Y-59690085D01*
X55530961Y-59568096D01*
X55396913Y-59608754D01*
X55142580Y-59728963D01*
X55116000Y-59748665D01*
X55116000Y-58965325D01*
X55119676Y-58928000D01*
X55116000Y-58890675D01*
X55116000Y-58890667D01*
X55105003Y-58779014D01*
X55079222Y-58694023D01*
X56051071Y-59665872D01*
G36*
X51797000Y-56178253D02*
G01*
X51836774Y-56378212D01*
X51914795Y-56566570D01*
X52028063Y-56736088D01*
X52154479Y-56862504D01*
X52150410Y-56866573D01*
X52037142Y-57036091D01*
X51959121Y-57224449D01*
X51919347Y-57424408D01*
X51919347Y-57628286D01*
X51959121Y-57828245D01*
X52037142Y-58016603D01*
X52150410Y-58186121D01*
X52294573Y-58330284D01*
X52464091Y-58443552D01*
X52652449Y-58521573D01*
X52852408Y-58561347D01*
X52914546Y-58561347D01*
X53596001Y-59242803D01*
X53596000Y-65246000D01*
X50871325Y-65246000D01*
X50834000Y-65242324D01*
X50796675Y-65246000D01*
X50796667Y-65246000D01*
X50685014Y-65256997D01*
X50541753Y-65300454D01*
X50409724Y-65371026D01*
X50293999Y-65465999D01*
X50270201Y-65494997D01*
X48585906Y-67179292D01*
X48541309Y-67165764D01*
X48330492Y-67145000D01*
X48189508Y-67145000D01*
X47978691Y-67165764D01*
X47708192Y-67247818D01*
X47458899Y-67381068D01*
X47240392Y-67560392D01*
X47061068Y-67778899D01*
X46990000Y-67911858D01*
X46918932Y-67778899D01*
X46739608Y-67560392D01*
X46521101Y-67381068D01*
X46271808Y-67247818D01*
X46001309Y-67165764D01*
X45790492Y-67145000D01*
X45649508Y-67145000D01*
X45438691Y-67165764D01*
X45394094Y-67179292D01*
X42525001Y-64310200D01*
X42525001Y-62237025D01*
X42628192Y-62292182D01*
X42898691Y-62374236D01*
X43109508Y-62395000D01*
X43250492Y-62395000D01*
X43461309Y-62374236D01*
X43731808Y-62292182D01*
X43981101Y-62158932D01*
X44199608Y-61979608D01*
X44378932Y-61761101D01*
X44450000Y-61628142D01*
X44521068Y-61761101D01*
X44700392Y-61979608D01*
X44918899Y-62158932D01*
X45168192Y-62292182D01*
X45438691Y-62374236D01*
X45649508Y-62395000D01*
X45790492Y-62395000D01*
X46001309Y-62374236D01*
X46271808Y-62292182D01*
X46521101Y-62158932D01*
X46739608Y-61979608D01*
X46918932Y-61761101D01*
X46990000Y-61628142D01*
X47061068Y-61761101D01*
X47240392Y-61979608D01*
X47458899Y-62158932D01*
X47708192Y-62292182D01*
X47978691Y-62374236D01*
X48189508Y-62395000D01*
X48330492Y-62395000D01*
X48541309Y-62374236D01*
X48811808Y-62292182D01*
X49061101Y-62158932D01*
X49279608Y-61979608D01*
X49458932Y-61761101D01*
X49592182Y-61511808D01*
X49674236Y-61241309D01*
X49701943Y-60960000D01*
X49674236Y-60678691D01*
X49592182Y-60408192D01*
X49458932Y-60158899D01*
X49279608Y-59940392D01*
X49061101Y-59761068D01*
X48811808Y-59627818D01*
X48541309Y-59545764D01*
X48330492Y-59525000D01*
X48189508Y-59525000D01*
X47978691Y-59545764D01*
X47708192Y-59627818D01*
X47458899Y-59761068D01*
X47240392Y-59940392D01*
X47061068Y-60158899D01*
X46990000Y-60291858D01*
X46918932Y-60158899D01*
X46739608Y-59940392D01*
X46521101Y-59761068D01*
X46271808Y-59627818D01*
X46001309Y-59545764D01*
X45790492Y-59525000D01*
X45649508Y-59525000D01*
X45438691Y-59545764D01*
X45168192Y-59627818D01*
X44918899Y-59761068D01*
X44700392Y-59940392D01*
X44521068Y-60158899D01*
X44450000Y-60291858D01*
X44378932Y-60158899D01*
X44199608Y-59940392D01*
X43981101Y-59761068D01*
X43731808Y-59627818D01*
X43645252Y-59601562D01*
X43670256Y-59591205D01*
X43839774Y-59477937D01*
X43877613Y-59440098D01*
X44017429Y-59533520D01*
X44205787Y-59611541D01*
X44405746Y-59651315D01*
X44609624Y-59651315D01*
X44809583Y-59611541D01*
X44997941Y-59533520D01*
X45167459Y-59420252D01*
X45311622Y-59276089D01*
X45424890Y-59106571D01*
X45502911Y-58918213D01*
X45542685Y-58718254D01*
X45542685Y-58514376D01*
X45502911Y-58314417D01*
X45424890Y-58126059D01*
X45311622Y-57956541D01*
X45267685Y-57912604D01*
X45267685Y-56780026D01*
X45311622Y-56736089D01*
X45424890Y-56566571D01*
X45502911Y-56378213D01*
X45542685Y-56178254D01*
X45542685Y-56111314D01*
X51797000Y-56111314D01*
X51797000Y-56178253D01*
X51797000Y-56178253D01*
G37*
X51797000Y-56178253D02*
X51836774Y-56378212D01*
X51914795Y-56566570D01*
X52028063Y-56736088D01*
X52154479Y-56862504D01*
X52150410Y-56866573D01*
X52037142Y-57036091D01*
X51959121Y-57224449D01*
X51919347Y-57424408D01*
X51919347Y-57628286D01*
X51959121Y-57828245D01*
X52037142Y-58016603D01*
X52150410Y-58186121D01*
X52294573Y-58330284D01*
X52464091Y-58443552D01*
X52652449Y-58521573D01*
X52852408Y-58561347D01*
X52914546Y-58561347D01*
X53596001Y-59242803D01*
X53596000Y-65246000D01*
X50871325Y-65246000D01*
X50834000Y-65242324D01*
X50796675Y-65246000D01*
X50796667Y-65246000D01*
X50685014Y-65256997D01*
X50541753Y-65300454D01*
X50409724Y-65371026D01*
X50293999Y-65465999D01*
X50270201Y-65494997D01*
X48585906Y-67179292D01*
X48541309Y-67165764D01*
X48330492Y-67145000D01*
X48189508Y-67145000D01*
X47978691Y-67165764D01*
X47708192Y-67247818D01*
X47458899Y-67381068D01*
X47240392Y-67560392D01*
X47061068Y-67778899D01*
X46990000Y-67911858D01*
X46918932Y-67778899D01*
X46739608Y-67560392D01*
X46521101Y-67381068D01*
X46271808Y-67247818D01*
X46001309Y-67165764D01*
X45790492Y-67145000D01*
X45649508Y-67145000D01*
X45438691Y-67165764D01*
X45394094Y-67179292D01*
X42525001Y-64310200D01*
X42525001Y-62237025D01*
X42628192Y-62292182D01*
X42898691Y-62374236D01*
X43109508Y-62395000D01*
X43250492Y-62395000D01*
X43461309Y-62374236D01*
X43731808Y-62292182D01*
X43981101Y-62158932D01*
X44199608Y-61979608D01*
X44378932Y-61761101D01*
X44450000Y-61628142D01*
X44521068Y-61761101D01*
X44700392Y-61979608D01*
X44918899Y-62158932D01*
X45168192Y-62292182D01*
X45438691Y-62374236D01*
X45649508Y-62395000D01*
X45790492Y-62395000D01*
X46001309Y-62374236D01*
X46271808Y-62292182D01*
X46521101Y-62158932D01*
X46739608Y-61979608D01*
X46918932Y-61761101D01*
X46990000Y-61628142D01*
X47061068Y-61761101D01*
X47240392Y-61979608D01*
X47458899Y-62158932D01*
X47708192Y-62292182D01*
X47978691Y-62374236D01*
X48189508Y-62395000D01*
X48330492Y-62395000D01*
X48541309Y-62374236D01*
X48811808Y-62292182D01*
X49061101Y-62158932D01*
X49279608Y-61979608D01*
X49458932Y-61761101D01*
X49592182Y-61511808D01*
X49674236Y-61241309D01*
X49701943Y-60960000D01*
X49674236Y-60678691D01*
X49592182Y-60408192D01*
X49458932Y-60158899D01*
X49279608Y-59940392D01*
X49061101Y-59761068D01*
X48811808Y-59627818D01*
X48541309Y-59545764D01*
X48330492Y-59525000D01*
X48189508Y-59525000D01*
X47978691Y-59545764D01*
X47708192Y-59627818D01*
X47458899Y-59761068D01*
X47240392Y-59940392D01*
X47061068Y-60158899D01*
X46990000Y-60291858D01*
X46918932Y-60158899D01*
X46739608Y-59940392D01*
X46521101Y-59761068D01*
X46271808Y-59627818D01*
X46001309Y-59545764D01*
X45790492Y-59525000D01*
X45649508Y-59525000D01*
X45438691Y-59545764D01*
X45168192Y-59627818D01*
X44918899Y-59761068D01*
X44700392Y-59940392D01*
X44521068Y-60158899D01*
X44450000Y-60291858D01*
X44378932Y-60158899D01*
X44199608Y-59940392D01*
X43981101Y-59761068D01*
X43731808Y-59627818D01*
X43645252Y-59601562D01*
X43670256Y-59591205D01*
X43839774Y-59477937D01*
X43877613Y-59440098D01*
X44017429Y-59533520D01*
X44205787Y-59611541D01*
X44405746Y-59651315D01*
X44609624Y-59651315D01*
X44809583Y-59611541D01*
X44997941Y-59533520D01*
X45167459Y-59420252D01*
X45311622Y-59276089D01*
X45424890Y-59106571D01*
X45502911Y-58918213D01*
X45542685Y-58718254D01*
X45542685Y-58514376D01*
X45502911Y-58314417D01*
X45424890Y-58126059D01*
X45311622Y-57956541D01*
X45267685Y-57912604D01*
X45267685Y-56780026D01*
X45311622Y-56736089D01*
X45424890Y-56566571D01*
X45502911Y-56378213D01*
X45542685Y-56178254D01*
X45542685Y-56111314D01*
X51797000Y-56111314D01*
X51797000Y-56178253D01*
G36*
X51349223Y-49529022D02*
G01*
X51115241Y-49685363D01*
X50915363Y-49885241D01*
X50781308Y-50085869D01*
X50766671Y-50058486D01*
X50522702Y-49986903D01*
X49709605Y-50800000D01*
X50522702Y-51613097D01*
X50766671Y-51541514D01*
X50780324Y-51512659D01*
X50915363Y-51714759D01*
X51115241Y-51914637D01*
X51350273Y-52071680D01*
X51611426Y-52179853D01*
X51888665Y-52235000D01*
X52171335Y-52235000D01*
X52448574Y-52179853D01*
X52709727Y-52071680D01*
X52944759Y-51914637D01*
X53144637Y-51714759D01*
X53300978Y-51480778D01*
X59475000Y-57654800D01*
X59475000Y-57970289D01*
X59431063Y-58014226D01*
X59317795Y-58183744D01*
X59239774Y-58372102D01*
X59200000Y-58572061D01*
X59200000Y-58775939D01*
X59239774Y-58975898D01*
X59285080Y-59085277D01*
X55040120Y-54840317D01*
X55016317Y-54811313D01*
X54900592Y-54716340D01*
X54768563Y-54645768D01*
X54625302Y-54602311D01*
X54513649Y-54591314D01*
X54513638Y-54591314D01*
X54476316Y-54587638D01*
X54438994Y-54591314D01*
X51046470Y-54591314D01*
X51073000Y-54457939D01*
X51073000Y-54254061D01*
X51033226Y-54054102D01*
X50955205Y-53865744D01*
X50841937Y-53696226D01*
X50697774Y-53552063D01*
X50528256Y-53438795D01*
X50339898Y-53360774D01*
X50139939Y-53321000D01*
X50077802Y-53321000D01*
X48797951Y-52041150D01*
X49043996Y-52157571D01*
X49318184Y-52226300D01*
X49600512Y-52240217D01*
X49880130Y-52198787D01*
X50146292Y-52103603D01*
X50271514Y-52036671D01*
X50343097Y-51792702D01*
X49530000Y-50979605D01*
X49515858Y-50993748D01*
X49336253Y-50814143D01*
X49350395Y-50800000D01*
X48537298Y-49986903D01*
X48293329Y-50058486D01*
X48227166Y-50198315D01*
X48207232Y-50098101D01*
X48129211Y-49909743D01*
X48060760Y-49807298D01*
X48716903Y-49807298D01*
X49530000Y-50620395D01*
X50343097Y-49807298D01*
X50271514Y-49563329D01*
X50016004Y-49442429D01*
X49741816Y-49373700D01*
X49459488Y-49359783D01*
X49179870Y-49401213D01*
X48913708Y-49496397D01*
X48788486Y-49563329D01*
X48716903Y-49807298D01*
X48060760Y-49807298D01*
X48015943Y-49740225D01*
X47972006Y-49696288D01*
X47972006Y-47263000D01*
X48107939Y-47263000D01*
X48307898Y-47223226D01*
X48496256Y-47145205D01*
X48665774Y-47031937D01*
X48709711Y-46988000D01*
X48808201Y-46988000D01*
X51349223Y-49529022D01*
X51349223Y-49529022D01*
G37*
X51349223Y-49529022D02*
X51115241Y-49685363D01*
X50915363Y-49885241D01*
X50781308Y-50085869D01*
X50766671Y-50058486D01*
X50522702Y-49986903D01*
X49709605Y-50800000D01*
X50522702Y-51613097D01*
X50766671Y-51541514D01*
X50780324Y-51512659D01*
X50915363Y-51714759D01*
X51115241Y-51914637D01*
X51350273Y-52071680D01*
X51611426Y-52179853D01*
X51888665Y-52235000D01*
X52171335Y-52235000D01*
X52448574Y-52179853D01*
X52709727Y-52071680D01*
X52944759Y-51914637D01*
X53144637Y-51714759D01*
X53300978Y-51480778D01*
X59475000Y-57654800D01*
X59475000Y-57970289D01*
X59431063Y-58014226D01*
X59317795Y-58183744D01*
X59239774Y-58372102D01*
X59200000Y-58572061D01*
X59200000Y-58775939D01*
X59239774Y-58975898D01*
X59285080Y-59085277D01*
X55040120Y-54840317D01*
X55016317Y-54811313D01*
X54900592Y-54716340D01*
X54768563Y-54645768D01*
X54625302Y-54602311D01*
X54513649Y-54591314D01*
X54513638Y-54591314D01*
X54476316Y-54587638D01*
X54438994Y-54591314D01*
X51046470Y-54591314D01*
X51073000Y-54457939D01*
X51073000Y-54254061D01*
X51033226Y-54054102D01*
X50955205Y-53865744D01*
X50841937Y-53696226D01*
X50697774Y-53552063D01*
X50528256Y-53438795D01*
X50339898Y-53360774D01*
X50139939Y-53321000D01*
X50077802Y-53321000D01*
X48797951Y-52041150D01*
X49043996Y-52157571D01*
X49318184Y-52226300D01*
X49600512Y-52240217D01*
X49880130Y-52198787D01*
X50146292Y-52103603D01*
X50271514Y-52036671D01*
X50343097Y-51792702D01*
X49530000Y-50979605D01*
X49515858Y-50993748D01*
X49336253Y-50814143D01*
X49350395Y-50800000D01*
X48537298Y-49986903D01*
X48293329Y-50058486D01*
X48227166Y-50198315D01*
X48207232Y-50098101D01*
X48129211Y-49909743D01*
X48060760Y-49807298D01*
X48716903Y-49807298D01*
X49530000Y-50620395D01*
X50343097Y-49807298D01*
X50271514Y-49563329D01*
X50016004Y-49442429D01*
X49741816Y-49373700D01*
X49459488Y-49359783D01*
X49179870Y-49401213D01*
X48913708Y-49496397D01*
X48788486Y-49563329D01*
X48716903Y-49807298D01*
X48060760Y-49807298D01*
X48015943Y-49740225D01*
X47972006Y-49696288D01*
X47972006Y-47263000D01*
X48107939Y-47263000D01*
X48307898Y-47223226D01*
X48496256Y-47145205D01*
X48665774Y-47031937D01*
X48709711Y-46988000D01*
X48808201Y-46988000D01*
X51349223Y-49529022D01*
M02*
