M48
; DRILL file {KiCad (5.1.2-1)-1} date Thursday, 22 August 2019 at 07:59:38 am
; FORMAT={-:-/ absolute / inch / decimal}
; #@! TF.CreationDate,2019-08-22T07:59:38+10:00
; #@! TF.GenerationSoftware,Kicad,Pcbnew,(5.1.2-1)-1
; #@! TF.FileFunction,Plated,1,2,PTH
FMAT,2
INCH
T1C0.0157
T2C0.0276
T3C0.0295
T4C0.0315
T5C0.0354
T6C0.1098
%
G90
G05
T1
X3.62Y-4.6396
X3.7302Y-4.6102
X4.75Y-4.35
X4.82Y-4.24
X4.88Y-4.13
T2
X3.85Y-3.1
X3.85Y-3.3
X4.3Y-3.1
X4.3Y-3.3
X4.75Y-3.1
X4.75Y-3.3
X3.4Y-3.1
X3.4Y-3.3
T3
X3.75Y-4.55
X3.8287Y-4.55
X3.9075Y-4.55
X3.9862Y-4.55
X4.065Y-4.55
X3.21Y-4.55
X3.2887Y-4.55
X3.3675Y-4.55
X3.4462Y-4.55
X4.35Y-4.55
X4.4287Y-4.55
T4
X3.13Y-3.48
X3.13Y-3.78
X3.23Y-3.48
X3.23Y-3.78
X3.33Y-3.48
X3.33Y-3.78
X3.43Y-3.48
X3.43Y-3.78
X3.53Y-3.48
X3.53Y-3.78
X3.63Y-3.48
X3.63Y-3.78
X3.73Y-3.48
X3.73Y-3.78
X3.83Y-3.48
X3.83Y-3.78
X3.93Y-3.48
X3.93Y-3.78
X4.03Y-3.48
X4.03Y-3.78
X3.13Y-3.98
X3.13Y-4.28
X3.23Y-3.98
X3.23Y-4.28
X3.33Y-3.98
X3.33Y-4.28
X3.43Y-3.98
X3.43Y-4.28
X3.53Y-3.98
X3.53Y-4.28
X3.63Y-3.98
X3.63Y-4.28
X3.73Y-3.98
X3.73Y-4.28
X3.83Y-3.98
X3.83Y-4.28
X4.69Y-4.51
X4.7884Y-4.51
T5
X4.05Y-3.2
X4.15Y-3.2
X3.15Y-3.2
X3.25Y-3.2
X4.5Y-3.2
X4.6Y-3.2
X3.6Y-3.2
X3.7Y-3.2
T6
X2.9Y-4.6
X5.0Y-3.19
X5.05Y-4.65
X2.9Y-3.2
T0
M30
