G04 #@! TF.GenerationSoftware,KiCad,Pcbnew,(5.1.2-1)-1*
G04 #@! TF.CreationDate,2019-08-26T08:22:05+10:00*
G04 #@! TF.ProjectId,program-counter,70726f67-7261-46d2-9d63-6f756e746572,rev?*
G04 #@! TF.SameCoordinates,Original*
G04 #@! TF.FileFunction,Legend,Top*
G04 #@! TF.FilePolarity,Positive*
%FSLAX46Y46*%
G04 Gerber Fmt 4.6, Leading zero omitted, Abs format (unit mm)*
G04 Created by KiCad (PCBNEW (5.1.2-1)-1) date 2019-08-26 08:22:05*
%MOMM*%
%LPD*%
G04 APERTURE LIST*
%ADD10C,0.127000*%
%ADD11C,0.101600*%
%ADD12C,0.100000*%
%ADD13C,0.120000*%
%ADD14C,0.150000*%
G04 APERTURE END LIST*
D10*
X108521500Y-92592071D02*
X108521500Y-91449071D01*
X108956928Y-91449071D01*
X109065785Y-91503500D01*
X109120214Y-91557928D01*
X109174642Y-91666785D01*
X109174642Y-91830071D01*
X109120214Y-91938928D01*
X109065785Y-91993357D01*
X108956928Y-92047785D01*
X108521500Y-92047785D01*
X109664500Y-92592071D02*
X109664500Y-91830071D01*
X109664500Y-92047785D02*
X109718928Y-91938928D01*
X109773357Y-91884500D01*
X109882214Y-91830071D01*
X109991071Y-91830071D01*
X110535357Y-92592071D02*
X110426500Y-92537642D01*
X110372071Y-92483214D01*
X110317642Y-92374357D01*
X110317642Y-92047785D01*
X110372071Y-91938928D01*
X110426500Y-91884500D01*
X110535357Y-91830071D01*
X110698642Y-91830071D01*
X110807500Y-91884500D01*
X110861928Y-91938928D01*
X110916357Y-92047785D01*
X110916357Y-92374357D01*
X110861928Y-92483214D01*
X110807500Y-92537642D01*
X110698642Y-92592071D01*
X110535357Y-92592071D01*
X111896071Y-91830071D02*
X111896071Y-92755357D01*
X111841642Y-92864214D01*
X111787214Y-92918642D01*
X111678357Y-92973071D01*
X111515071Y-92973071D01*
X111406214Y-92918642D01*
X111896071Y-92537642D02*
X111787214Y-92592071D01*
X111569500Y-92592071D01*
X111460642Y-92537642D01*
X111406214Y-92483214D01*
X111351785Y-92374357D01*
X111351785Y-92047785D01*
X111406214Y-91938928D01*
X111460642Y-91884500D01*
X111569500Y-91830071D01*
X111787214Y-91830071D01*
X111896071Y-91884500D01*
X112440357Y-92592071D02*
X112440357Y-91830071D01*
X112440357Y-92047785D02*
X112494785Y-91938928D01*
X112549214Y-91884500D01*
X112658071Y-91830071D01*
X112766928Y-91830071D01*
X113637785Y-92592071D02*
X113637785Y-91993357D01*
X113583357Y-91884500D01*
X113474500Y-91830071D01*
X113256785Y-91830071D01*
X113147928Y-91884500D01*
X113637785Y-92537642D02*
X113528928Y-92592071D01*
X113256785Y-92592071D01*
X113147928Y-92537642D01*
X113093500Y-92428785D01*
X113093500Y-92319928D01*
X113147928Y-92211071D01*
X113256785Y-92156642D01*
X113528928Y-92156642D01*
X113637785Y-92102214D01*
X114182071Y-92592071D02*
X114182071Y-91830071D01*
X114182071Y-91938928D02*
X114236500Y-91884500D01*
X114345357Y-91830071D01*
X114508642Y-91830071D01*
X114617500Y-91884500D01*
X114671928Y-91993357D01*
X114671928Y-92592071D01*
X114671928Y-91993357D02*
X114726357Y-91884500D01*
X114835214Y-91830071D01*
X114998500Y-91830071D01*
X115107357Y-91884500D01*
X115161785Y-91993357D01*
X115161785Y-92592071D01*
X117230071Y-92483214D02*
X117175642Y-92537642D01*
X117012357Y-92592071D01*
X116903500Y-92592071D01*
X116740214Y-92537642D01*
X116631357Y-92428785D01*
X116576928Y-92319928D01*
X116522500Y-92102214D01*
X116522500Y-91938928D01*
X116576928Y-91721214D01*
X116631357Y-91612357D01*
X116740214Y-91503500D01*
X116903500Y-91449071D01*
X117012357Y-91449071D01*
X117175642Y-91503500D01*
X117230071Y-91557928D01*
X117883214Y-92592071D02*
X117774357Y-92537642D01*
X117719928Y-92483214D01*
X117665500Y-92374357D01*
X117665500Y-92047785D01*
X117719928Y-91938928D01*
X117774357Y-91884500D01*
X117883214Y-91830071D01*
X118046500Y-91830071D01*
X118155357Y-91884500D01*
X118209785Y-91938928D01*
X118264214Y-92047785D01*
X118264214Y-92374357D01*
X118209785Y-92483214D01*
X118155357Y-92537642D01*
X118046500Y-92592071D01*
X117883214Y-92592071D01*
X119243928Y-91830071D02*
X119243928Y-92592071D01*
X118754071Y-91830071D02*
X118754071Y-92428785D01*
X118808500Y-92537642D01*
X118917357Y-92592071D01*
X119080642Y-92592071D01*
X119189500Y-92537642D01*
X119243928Y-92483214D01*
X119788214Y-91830071D02*
X119788214Y-92592071D01*
X119788214Y-91938928D02*
X119842642Y-91884500D01*
X119951500Y-91830071D01*
X120114785Y-91830071D01*
X120223642Y-91884500D01*
X120278071Y-91993357D01*
X120278071Y-92592071D01*
X120659071Y-91830071D02*
X121094500Y-91830071D01*
X120822357Y-91449071D02*
X120822357Y-92428785D01*
X120876785Y-92537642D01*
X120985642Y-92592071D01*
X121094500Y-92592071D01*
X121910928Y-92537642D02*
X121802071Y-92592071D01*
X121584357Y-92592071D01*
X121475500Y-92537642D01*
X121421071Y-92428785D01*
X121421071Y-91993357D01*
X121475500Y-91884500D01*
X121584357Y-91830071D01*
X121802071Y-91830071D01*
X121910928Y-91884500D01*
X121965357Y-91993357D01*
X121965357Y-92102214D01*
X121421071Y-92211071D01*
X122455214Y-92592071D02*
X122455214Y-91830071D01*
X122455214Y-92047785D02*
X122509642Y-91938928D01*
X122564071Y-91884500D01*
X122672928Y-91830071D01*
X122781785Y-91830071D01*
X114862428Y-97118714D02*
X115043857Y-97626714D01*
X115225285Y-97118714D01*
X115914714Y-97626714D02*
X115479285Y-97626714D01*
X115697000Y-97626714D02*
X115697000Y-96864714D01*
X115624428Y-96973571D01*
X115551857Y-97046142D01*
X115479285Y-97082428D01*
X116241285Y-97554142D02*
X116277571Y-97590428D01*
X116241285Y-97626714D01*
X116205000Y-97590428D01*
X116241285Y-97554142D01*
X116241285Y-97626714D01*
X116749285Y-96864714D02*
X116821857Y-96864714D01*
X116894428Y-96901000D01*
X116930714Y-96937285D01*
X116967000Y-97009857D01*
X117003285Y-97155000D01*
X117003285Y-97336428D01*
X116967000Y-97481571D01*
X116930714Y-97554142D01*
X116894428Y-97590428D01*
X116821857Y-97626714D01*
X116749285Y-97626714D01*
X116676714Y-97590428D01*
X116640428Y-97554142D01*
X116604142Y-97481571D01*
X116567857Y-97336428D01*
X116567857Y-97155000D01*
X116604142Y-97009857D01*
X116640428Y-96937285D01*
X116676714Y-96901000D01*
X116749285Y-96864714D01*
D11*
X108524523Y-94229161D02*
X108524523Y-93594161D01*
X108675714Y-93594161D01*
X108766428Y-93624400D01*
X108826904Y-93684876D01*
X108857142Y-93745352D01*
X108887380Y-93866304D01*
X108887380Y-93957019D01*
X108857142Y-94077971D01*
X108826904Y-94138447D01*
X108766428Y-94198923D01*
X108675714Y-94229161D01*
X108524523Y-94229161D01*
X109401428Y-94198923D02*
X109340952Y-94229161D01*
X109220000Y-94229161D01*
X109159523Y-94198923D01*
X109129285Y-94138447D01*
X109129285Y-93896542D01*
X109159523Y-93836066D01*
X109220000Y-93805828D01*
X109340952Y-93805828D01*
X109401428Y-93836066D01*
X109431666Y-93896542D01*
X109431666Y-93957019D01*
X109129285Y-94017495D01*
X109673571Y-94198923D02*
X109734047Y-94229161D01*
X109855000Y-94229161D01*
X109915476Y-94198923D01*
X109945714Y-94138447D01*
X109945714Y-94108209D01*
X109915476Y-94047733D01*
X109855000Y-94017495D01*
X109764285Y-94017495D01*
X109703809Y-93987257D01*
X109673571Y-93926780D01*
X109673571Y-93896542D01*
X109703809Y-93836066D01*
X109764285Y-93805828D01*
X109855000Y-93805828D01*
X109915476Y-93836066D01*
X110217857Y-94229161D02*
X110217857Y-93805828D01*
X110217857Y-93594161D02*
X110187619Y-93624400D01*
X110217857Y-93654638D01*
X110248095Y-93624400D01*
X110217857Y-93594161D01*
X110217857Y-93654638D01*
X110792380Y-93805828D02*
X110792380Y-94319876D01*
X110762142Y-94380352D01*
X110731904Y-94410590D01*
X110671428Y-94440828D01*
X110580714Y-94440828D01*
X110520238Y-94410590D01*
X110792380Y-94198923D02*
X110731904Y-94229161D01*
X110610952Y-94229161D01*
X110550476Y-94198923D01*
X110520238Y-94168685D01*
X110490000Y-94108209D01*
X110490000Y-93926780D01*
X110520238Y-93866304D01*
X110550476Y-93836066D01*
X110610952Y-93805828D01*
X110731904Y-93805828D01*
X110792380Y-93836066D01*
X111094761Y-93805828D02*
X111094761Y-94229161D01*
X111094761Y-93866304D02*
X111125000Y-93836066D01*
X111185476Y-93805828D01*
X111276190Y-93805828D01*
X111336666Y-93836066D01*
X111366904Y-93896542D01*
X111366904Y-94229161D01*
X111911190Y-94198923D02*
X111850714Y-94229161D01*
X111729761Y-94229161D01*
X111669285Y-94198923D01*
X111639047Y-94138447D01*
X111639047Y-93896542D01*
X111669285Y-93836066D01*
X111729761Y-93805828D01*
X111850714Y-93805828D01*
X111911190Y-93836066D01*
X111941428Y-93896542D01*
X111941428Y-93957019D01*
X111639047Y-94017495D01*
X112485714Y-94229161D02*
X112485714Y-93594161D01*
X112485714Y-94198923D02*
X112425238Y-94229161D01*
X112304285Y-94229161D01*
X112243809Y-94198923D01*
X112213571Y-94168685D01*
X112183333Y-94108209D01*
X112183333Y-93926780D01*
X112213571Y-93866304D01*
X112243809Y-93836066D01*
X112304285Y-93805828D01*
X112425238Y-93805828D01*
X112485714Y-93836066D01*
X113271904Y-94229161D02*
X113271904Y-93594161D01*
X113271904Y-93836066D02*
X113332380Y-93805828D01*
X113453333Y-93805828D01*
X113513809Y-93836066D01*
X113544047Y-93866304D01*
X113574285Y-93926780D01*
X113574285Y-94108209D01*
X113544047Y-94168685D01*
X113513809Y-94198923D01*
X113453333Y-94229161D01*
X113332380Y-94229161D01*
X113271904Y-94198923D01*
X113785952Y-93805828D02*
X113937142Y-94229161D01*
X114088333Y-93805828D02*
X113937142Y-94229161D01*
X113876666Y-94380352D01*
X113846428Y-94410590D01*
X113785952Y-94440828D01*
X114783809Y-94198923D02*
X114874523Y-94229161D01*
X115025714Y-94229161D01*
X115086190Y-94198923D01*
X115116428Y-94168685D01*
X115146666Y-94108209D01*
X115146666Y-94047733D01*
X115116428Y-93987257D01*
X115086190Y-93957019D01*
X115025714Y-93926780D01*
X114904761Y-93896542D01*
X114844285Y-93866304D01*
X114814047Y-93836066D01*
X114783809Y-93775590D01*
X114783809Y-93715114D01*
X114814047Y-93654638D01*
X114844285Y-93624400D01*
X114904761Y-93594161D01*
X115055952Y-93594161D01*
X115146666Y-93624400D01*
X115418809Y-94229161D02*
X115418809Y-93594161D01*
X115690952Y-94229161D02*
X115690952Y-93896542D01*
X115660714Y-93836066D01*
X115600238Y-93805828D01*
X115509523Y-93805828D01*
X115449047Y-93836066D01*
X115418809Y-93866304D01*
X116265476Y-94229161D02*
X116265476Y-93896542D01*
X116235238Y-93836066D01*
X116174761Y-93805828D01*
X116053809Y-93805828D01*
X115993333Y-93836066D01*
X116265476Y-94198923D02*
X116205000Y-94229161D01*
X116053809Y-94229161D01*
X115993333Y-94198923D01*
X115963095Y-94138447D01*
X115963095Y-94077971D01*
X115993333Y-94017495D01*
X116053809Y-93987257D01*
X116205000Y-93987257D01*
X116265476Y-93957019D01*
X116567857Y-93805828D02*
X116567857Y-94229161D01*
X116567857Y-93866304D02*
X116598095Y-93836066D01*
X116658571Y-93805828D01*
X116749285Y-93805828D01*
X116809761Y-93836066D01*
X116840000Y-93896542D01*
X116840000Y-94229161D01*
X117384285Y-94198923D02*
X117323809Y-94229161D01*
X117202857Y-94229161D01*
X117142380Y-94198923D01*
X117112142Y-94138447D01*
X117112142Y-93896542D01*
X117142380Y-93836066D01*
X117202857Y-93805828D01*
X117323809Y-93805828D01*
X117384285Y-93836066D01*
X117414523Y-93896542D01*
X117414523Y-93957019D01*
X117112142Y-94017495D01*
X118170476Y-94229161D02*
X118170476Y-93594161D01*
X118412380Y-93594161D01*
X118472857Y-93624400D01*
X118503095Y-93654638D01*
X118533333Y-93715114D01*
X118533333Y-93805828D01*
X118503095Y-93866304D01*
X118472857Y-93896542D01*
X118412380Y-93926780D01*
X118170476Y-93926780D01*
X118896190Y-94229161D02*
X118835714Y-94198923D01*
X118805476Y-94168685D01*
X118775238Y-94108209D01*
X118775238Y-93926780D01*
X118805476Y-93866304D01*
X118835714Y-93836066D01*
X118896190Y-93805828D01*
X118986904Y-93805828D01*
X119047380Y-93836066D01*
X119077619Y-93866304D01*
X119107857Y-93926780D01*
X119107857Y-94108209D01*
X119077619Y-94168685D01*
X119047380Y-94198923D01*
X118986904Y-94229161D01*
X118896190Y-94229161D01*
X119380000Y-93805828D02*
X119380000Y-94440828D01*
X119380000Y-93836066D02*
X119440476Y-93805828D01*
X119561428Y-93805828D01*
X119621904Y-93836066D01*
X119652142Y-93866304D01*
X119682380Y-93926780D01*
X119682380Y-94108209D01*
X119652142Y-94168685D01*
X119621904Y-94198923D01*
X119561428Y-94229161D01*
X119440476Y-94229161D01*
X119380000Y-94198923D01*
X119954523Y-93805828D02*
X119954523Y-94440828D01*
X119954523Y-93836066D02*
X120015000Y-93805828D01*
X120135952Y-93805828D01*
X120196428Y-93836066D01*
X120226666Y-93866304D01*
X120256904Y-93926780D01*
X120256904Y-94108209D01*
X120226666Y-94168685D01*
X120196428Y-94198923D01*
X120135952Y-94229161D01*
X120015000Y-94229161D01*
X119954523Y-94198923D01*
X120619761Y-94229161D02*
X120559285Y-94198923D01*
X120529047Y-94138447D01*
X120529047Y-93594161D01*
X121103571Y-94198923D02*
X121043095Y-94229161D01*
X120922142Y-94229161D01*
X120861666Y-94198923D01*
X120831428Y-94138447D01*
X120831428Y-93896542D01*
X120861666Y-93836066D01*
X120922142Y-93805828D01*
X121043095Y-93805828D01*
X121103571Y-93836066D01*
X121133809Y-93896542D01*
X121133809Y-93957019D01*
X120831428Y-94017495D01*
X121315238Y-93805828D02*
X121557142Y-93805828D01*
X121405952Y-93594161D02*
X121405952Y-94138447D01*
X121436190Y-94198923D01*
X121496666Y-94229161D01*
X121557142Y-94229161D01*
X121859523Y-94229161D02*
X121799047Y-94198923D01*
X121768809Y-94168685D01*
X121738571Y-94108209D01*
X121738571Y-93926780D01*
X121768809Y-93866304D01*
X121799047Y-93836066D01*
X121859523Y-93805828D01*
X121950238Y-93805828D01*
X122010714Y-93836066D01*
X122040952Y-93866304D01*
X122071190Y-93926780D01*
X122071190Y-94108209D01*
X122040952Y-94168685D01*
X122010714Y-94198923D01*
X121950238Y-94229161D01*
X121859523Y-94229161D01*
X122343333Y-93805828D02*
X122343333Y-94229161D01*
X122343333Y-93866304D02*
X122373571Y-93836066D01*
X122434047Y-93805828D01*
X122524761Y-93805828D01*
X122585238Y-93836066D01*
X122615476Y-93896542D01*
X122615476Y-94229161D01*
X108146547Y-95283261D02*
X108146547Y-94648261D01*
X108146547Y-94890166D02*
X108207023Y-94859928D01*
X108327976Y-94859928D01*
X108388452Y-94890166D01*
X108418690Y-94920404D01*
X108448928Y-94980880D01*
X108448928Y-95162309D01*
X108418690Y-95222785D01*
X108388452Y-95253023D01*
X108327976Y-95283261D01*
X108207023Y-95283261D01*
X108146547Y-95253023D01*
X108993214Y-95283261D02*
X108993214Y-94950642D01*
X108962976Y-94890166D01*
X108902499Y-94859928D01*
X108781547Y-94859928D01*
X108721071Y-94890166D01*
X108993214Y-95253023D02*
X108932738Y-95283261D01*
X108781547Y-95283261D01*
X108721071Y-95253023D01*
X108690833Y-95192547D01*
X108690833Y-95132071D01*
X108721071Y-95071595D01*
X108781547Y-95041357D01*
X108932738Y-95041357D01*
X108993214Y-95011119D01*
X109265357Y-95253023D02*
X109325833Y-95283261D01*
X109446785Y-95283261D01*
X109507261Y-95253023D01*
X109537499Y-95192547D01*
X109537499Y-95162309D01*
X109507261Y-95101833D01*
X109446785Y-95071595D01*
X109356071Y-95071595D01*
X109295595Y-95041357D01*
X109265357Y-94980880D01*
X109265357Y-94950642D01*
X109295595Y-94890166D01*
X109356071Y-94859928D01*
X109446785Y-94859928D01*
X109507261Y-94890166D01*
X110051547Y-95253023D02*
X109991071Y-95283261D01*
X109870119Y-95283261D01*
X109809642Y-95253023D01*
X109779404Y-95192547D01*
X109779404Y-94950642D01*
X109809642Y-94890166D01*
X109870119Y-94859928D01*
X109991071Y-94859928D01*
X110051547Y-94890166D01*
X110081785Y-94950642D01*
X110081785Y-95011119D01*
X109779404Y-95071595D01*
X110626071Y-95283261D02*
X110626071Y-94648261D01*
X110626071Y-95253023D02*
X110565595Y-95283261D01*
X110444642Y-95283261D01*
X110384166Y-95253023D01*
X110353928Y-95222785D01*
X110323690Y-95162309D01*
X110323690Y-94980880D01*
X110353928Y-94920404D01*
X110384166Y-94890166D01*
X110444642Y-94859928D01*
X110565595Y-94859928D01*
X110626071Y-94890166D01*
X111502976Y-95283261D02*
X111442499Y-95253023D01*
X111412261Y-95222785D01*
X111382023Y-95162309D01*
X111382023Y-94980880D01*
X111412261Y-94920404D01*
X111442499Y-94890166D01*
X111502976Y-94859928D01*
X111593690Y-94859928D01*
X111654166Y-94890166D01*
X111684404Y-94920404D01*
X111714642Y-94980880D01*
X111714642Y-95162309D01*
X111684404Y-95222785D01*
X111654166Y-95253023D01*
X111593690Y-95283261D01*
X111502976Y-95283261D01*
X111986785Y-94859928D02*
X111986785Y-95283261D01*
X111986785Y-94920404D02*
X112017023Y-94890166D01*
X112077499Y-94859928D01*
X112168214Y-94859928D01*
X112228690Y-94890166D01*
X112258928Y-94950642D01*
X112258928Y-95283261D01*
X113045119Y-95283261D02*
X113045119Y-94648261D01*
X113045119Y-94890166D02*
X113105595Y-94859928D01*
X113226547Y-94859928D01*
X113287023Y-94890166D01*
X113317261Y-94920404D01*
X113347499Y-94980880D01*
X113347499Y-95162309D01*
X113317261Y-95222785D01*
X113287023Y-95253023D01*
X113226547Y-95283261D01*
X113105595Y-95283261D01*
X113045119Y-95253023D01*
X113619642Y-95283261D02*
X113619642Y-94859928D01*
X113619642Y-94980880D02*
X113649880Y-94920404D01*
X113680119Y-94890166D01*
X113740595Y-94859928D01*
X113801071Y-94859928D01*
X114254642Y-95253023D02*
X114194166Y-95283261D01*
X114073214Y-95283261D01*
X114012738Y-95253023D01*
X113982499Y-95192547D01*
X113982499Y-94950642D01*
X114012738Y-94890166D01*
X114073214Y-94859928D01*
X114194166Y-94859928D01*
X114254642Y-94890166D01*
X114284880Y-94950642D01*
X114284880Y-95011119D01*
X113982499Y-95071595D01*
X114829166Y-95283261D02*
X114829166Y-94950642D01*
X114798928Y-94890166D01*
X114738452Y-94859928D01*
X114617499Y-94859928D01*
X114557023Y-94890166D01*
X114829166Y-95253023D02*
X114768690Y-95283261D01*
X114617499Y-95283261D01*
X114557023Y-95253023D01*
X114526785Y-95192547D01*
X114526785Y-95132071D01*
X114557023Y-95071595D01*
X114617499Y-95041357D01*
X114768690Y-95041357D01*
X114829166Y-95011119D01*
X115403690Y-95283261D02*
X115403690Y-94648261D01*
X115403690Y-95253023D02*
X115343214Y-95283261D01*
X115222261Y-95283261D01*
X115161785Y-95253023D01*
X115131547Y-95222785D01*
X115101309Y-95162309D01*
X115101309Y-94980880D01*
X115131547Y-94920404D01*
X115161785Y-94890166D01*
X115222261Y-94859928D01*
X115343214Y-94859928D01*
X115403690Y-94890166D01*
X115706071Y-95283261D02*
X115706071Y-94648261D01*
X115706071Y-94890166D02*
X115766547Y-94859928D01*
X115887499Y-94859928D01*
X115947976Y-94890166D01*
X115978214Y-94920404D01*
X116008452Y-94980880D01*
X116008452Y-95162309D01*
X115978214Y-95222785D01*
X115947976Y-95253023D01*
X115887499Y-95283261D01*
X115766547Y-95283261D01*
X115706071Y-95253023D01*
X116371309Y-95283261D02*
X116310833Y-95253023D01*
X116280595Y-95222785D01*
X116250357Y-95162309D01*
X116250357Y-94980880D01*
X116280595Y-94920404D01*
X116310833Y-94890166D01*
X116371309Y-94859928D01*
X116462023Y-94859928D01*
X116522499Y-94890166D01*
X116552738Y-94920404D01*
X116582976Y-94980880D01*
X116582976Y-95162309D01*
X116552738Y-95222785D01*
X116522499Y-95253023D01*
X116462023Y-95283261D01*
X116371309Y-95283261D01*
X117127261Y-95283261D02*
X117127261Y-94950642D01*
X117097023Y-94890166D01*
X117036547Y-94859928D01*
X116915595Y-94859928D01*
X116855119Y-94890166D01*
X117127261Y-95253023D02*
X117066785Y-95283261D01*
X116915595Y-95283261D01*
X116855119Y-95253023D01*
X116824880Y-95192547D01*
X116824880Y-95132071D01*
X116855119Y-95071595D01*
X116915595Y-95041357D01*
X117066785Y-95041357D01*
X117127261Y-95011119D01*
X117429642Y-95283261D02*
X117429642Y-94859928D01*
X117429642Y-94980880D02*
X117459880Y-94920404D01*
X117490119Y-94890166D01*
X117550595Y-94859928D01*
X117611071Y-94859928D01*
X118094880Y-95283261D02*
X118094880Y-94648261D01*
X118094880Y-95253023D02*
X118034404Y-95283261D01*
X117913452Y-95283261D01*
X117852976Y-95253023D01*
X117822738Y-95222785D01*
X117792499Y-95162309D01*
X117792499Y-94980880D01*
X117822738Y-94920404D01*
X117852976Y-94890166D01*
X117913452Y-94859928D01*
X118034404Y-94859928D01*
X118094880Y-94890166D01*
X119153214Y-95253023D02*
X119092738Y-95283261D01*
X118971785Y-95283261D01*
X118911309Y-95253023D01*
X118881071Y-95222785D01*
X118850833Y-95162309D01*
X118850833Y-94980880D01*
X118881071Y-94920404D01*
X118911309Y-94890166D01*
X118971785Y-94859928D01*
X119092738Y-94859928D01*
X119153214Y-94890166D01*
X119516071Y-95283261D02*
X119455595Y-95253023D01*
X119425357Y-95222785D01*
X119395119Y-95162309D01*
X119395119Y-94980880D01*
X119425357Y-94920404D01*
X119455595Y-94890166D01*
X119516071Y-94859928D01*
X119606785Y-94859928D01*
X119667261Y-94890166D01*
X119697500Y-94920404D01*
X119727738Y-94980880D01*
X119727738Y-95162309D01*
X119697500Y-95222785D01*
X119667261Y-95253023D01*
X119606785Y-95283261D01*
X119516071Y-95283261D01*
X119999880Y-95283261D02*
X119999880Y-94859928D01*
X119999880Y-94920404D02*
X120030119Y-94890166D01*
X120090595Y-94859928D01*
X120181309Y-94859928D01*
X120241785Y-94890166D01*
X120272023Y-94950642D01*
X120272023Y-95283261D01*
X120272023Y-94950642D02*
X120302261Y-94890166D01*
X120362738Y-94859928D01*
X120453452Y-94859928D01*
X120513928Y-94890166D01*
X120544166Y-94950642D01*
X120544166Y-95283261D01*
X120846547Y-94859928D02*
X120846547Y-95494928D01*
X120846547Y-94890166D02*
X120907023Y-94859928D01*
X121027976Y-94859928D01*
X121088452Y-94890166D01*
X121118690Y-94920404D01*
X121148928Y-94980880D01*
X121148928Y-95162309D01*
X121118690Y-95222785D01*
X121088452Y-95253023D01*
X121027976Y-95283261D01*
X120907023Y-95283261D01*
X120846547Y-95253023D01*
X121693214Y-94859928D02*
X121693214Y-95283261D01*
X121421071Y-94859928D02*
X121421071Y-95192547D01*
X121451309Y-95253023D01*
X121511785Y-95283261D01*
X121602500Y-95283261D01*
X121662976Y-95253023D01*
X121693214Y-95222785D01*
X121904880Y-94859928D02*
X122146785Y-94859928D01*
X121995595Y-94648261D02*
X121995595Y-95192547D01*
X122025833Y-95253023D01*
X122086309Y-95283261D01*
X122146785Y-95283261D01*
X122600357Y-95253023D02*
X122539880Y-95283261D01*
X122418928Y-95283261D01*
X122358452Y-95253023D01*
X122328214Y-95192547D01*
X122328214Y-94950642D01*
X122358452Y-94890166D01*
X122418928Y-94859928D01*
X122539880Y-94859928D01*
X122600357Y-94890166D01*
X122630595Y-94950642D01*
X122630595Y-95011119D01*
X122328214Y-95071595D01*
X122902738Y-95283261D02*
X122902738Y-94859928D01*
X122902738Y-94980880D02*
X122932976Y-94920404D01*
X122963214Y-94890166D01*
X123023690Y-94859928D01*
X123084166Y-94859928D01*
X106574166Y-96337361D02*
X106574166Y-95702361D01*
X106574166Y-95944266D02*
X106634642Y-95914028D01*
X106755595Y-95914028D01*
X106816071Y-95944266D01*
X106846309Y-95974504D01*
X106876547Y-96034980D01*
X106876547Y-96216409D01*
X106846309Y-96276885D01*
X106816071Y-96307123D01*
X106755595Y-96337361D01*
X106634642Y-96337361D01*
X106574166Y-96307123D01*
X107088214Y-95914028D02*
X107239404Y-96337361D01*
X107390595Y-95914028D02*
X107239404Y-96337361D01*
X107178928Y-96488552D01*
X107148690Y-96518790D01*
X107088214Y-96549028D01*
X108327976Y-96004742D02*
X108418690Y-96034980D01*
X108448928Y-96065219D01*
X108479166Y-96125695D01*
X108479166Y-96216409D01*
X108448928Y-96276885D01*
X108418690Y-96307123D01*
X108358214Y-96337361D01*
X108116309Y-96337361D01*
X108116309Y-95702361D01*
X108327976Y-95702361D01*
X108388452Y-95732600D01*
X108418690Y-95762838D01*
X108448928Y-95823314D01*
X108448928Y-95883790D01*
X108418690Y-95944266D01*
X108388452Y-95974504D01*
X108327976Y-96004742D01*
X108116309Y-96004742D01*
X108993214Y-96307123D02*
X108932738Y-96337361D01*
X108811785Y-96337361D01*
X108751309Y-96307123D01*
X108721071Y-96246647D01*
X108721071Y-96004742D01*
X108751309Y-95944266D01*
X108811785Y-95914028D01*
X108932738Y-95914028D01*
X108993214Y-95944266D01*
X109023452Y-96004742D01*
X109023452Y-96065219D01*
X108721071Y-96125695D01*
X109295595Y-95914028D02*
X109295595Y-96337361D01*
X109295595Y-95974504D02*
X109325833Y-95944266D01*
X109386309Y-95914028D01*
X109477023Y-95914028D01*
X109537500Y-95944266D01*
X109567738Y-96004742D01*
X109567738Y-96337361D01*
X110353928Y-96004742D02*
X110565595Y-96004742D01*
X110656309Y-96337361D02*
X110353928Y-96337361D01*
X110353928Y-95702361D01*
X110656309Y-95702361D01*
X111200595Y-96337361D02*
X111200595Y-96004742D01*
X111170357Y-95944266D01*
X111109880Y-95914028D01*
X110988928Y-95914028D01*
X110928452Y-95944266D01*
X111200595Y-96307123D02*
X111140119Y-96337361D01*
X110988928Y-96337361D01*
X110928452Y-96307123D01*
X110898214Y-96246647D01*
X110898214Y-96186171D01*
X110928452Y-96125695D01*
X110988928Y-96095457D01*
X111140119Y-96095457D01*
X111200595Y-96065219D01*
X111412261Y-95914028D02*
X111654166Y-95914028D01*
X111502976Y-95702361D02*
X111502976Y-96246647D01*
X111533214Y-96307123D01*
X111593690Y-96337361D01*
X111654166Y-96337361D01*
X112107738Y-96307123D02*
X112047261Y-96337361D01*
X111926309Y-96337361D01*
X111865833Y-96307123D01*
X111835595Y-96246647D01*
X111835595Y-96004742D01*
X111865833Y-95944266D01*
X111926309Y-95914028D01*
X112047261Y-95914028D01*
X112107738Y-95944266D01*
X112137976Y-96004742D01*
X112137976Y-96065219D01*
X111835595Y-96125695D01*
X112410119Y-96337361D02*
X112410119Y-95914028D01*
X112410119Y-96034980D02*
X112440357Y-95974504D01*
X112470595Y-95944266D01*
X112531071Y-95914028D01*
X112591547Y-95914028D01*
X113468452Y-96579266D02*
X113438214Y-96549028D01*
X113377738Y-96458314D01*
X113347500Y-96397838D01*
X113317261Y-96307123D01*
X113287023Y-96155933D01*
X113287023Y-96034980D01*
X113317261Y-95883790D01*
X113347500Y-95793076D01*
X113377738Y-95732600D01*
X113438214Y-95641885D01*
X113468452Y-95611647D01*
X113710357Y-96337361D02*
X113710357Y-95702361D01*
X113982500Y-96337361D02*
X113982500Y-96004742D01*
X113952261Y-95944266D01*
X113891785Y-95914028D01*
X113801071Y-95914028D01*
X113740595Y-95944266D01*
X113710357Y-95974504D01*
X114194166Y-95914028D02*
X114436071Y-95914028D01*
X114284880Y-95702361D02*
X114284880Y-96246647D01*
X114315119Y-96307123D01*
X114375595Y-96337361D01*
X114436071Y-96337361D01*
X114557023Y-95914028D02*
X114798928Y-95914028D01*
X114647738Y-95702361D02*
X114647738Y-96246647D01*
X114677976Y-96307123D01*
X114738452Y-96337361D01*
X114798928Y-96337361D01*
X115010595Y-95914028D02*
X115010595Y-96549028D01*
X115010595Y-95944266D02*
X115071071Y-95914028D01*
X115192023Y-95914028D01*
X115252500Y-95944266D01*
X115282738Y-95974504D01*
X115312976Y-96034980D01*
X115312976Y-96216409D01*
X115282738Y-96276885D01*
X115252500Y-96307123D01*
X115192023Y-96337361D01*
X115071071Y-96337361D01*
X115010595Y-96307123D01*
X115554880Y-96307123D02*
X115615357Y-96337361D01*
X115736309Y-96337361D01*
X115796785Y-96307123D01*
X115827023Y-96246647D01*
X115827023Y-96216409D01*
X115796785Y-96155933D01*
X115736309Y-96125695D01*
X115645595Y-96125695D01*
X115585119Y-96095457D01*
X115554880Y-96034980D01*
X115554880Y-96004742D01*
X115585119Y-95944266D01*
X115645595Y-95914028D01*
X115736309Y-95914028D01*
X115796785Y-95944266D01*
X116099166Y-96276885D02*
X116129404Y-96307123D01*
X116099166Y-96337361D01*
X116068928Y-96307123D01*
X116099166Y-96276885D01*
X116099166Y-96337361D01*
X116099166Y-95944266D02*
X116129404Y-95974504D01*
X116099166Y-96004742D01*
X116068928Y-95974504D01*
X116099166Y-95944266D01*
X116099166Y-96004742D01*
X116855119Y-95672123D02*
X116310833Y-96488552D01*
X117520357Y-95672123D02*
X116976071Y-96488552D01*
X117973928Y-96307123D02*
X117913452Y-96337361D01*
X117792500Y-96337361D01*
X117732023Y-96307123D01*
X117701785Y-96246647D01*
X117701785Y-96004742D01*
X117732023Y-95944266D01*
X117792500Y-95914028D01*
X117913452Y-95914028D01*
X117973928Y-95944266D01*
X118004166Y-96004742D01*
X118004166Y-96065219D01*
X117701785Y-96125695D01*
X118548452Y-96337361D02*
X118548452Y-96004742D01*
X118518214Y-95944266D01*
X118457738Y-95914028D01*
X118336785Y-95914028D01*
X118276309Y-95944266D01*
X118548452Y-96307123D02*
X118487976Y-96337361D01*
X118336785Y-96337361D01*
X118276309Y-96307123D01*
X118246071Y-96246647D01*
X118246071Y-96186171D01*
X118276309Y-96125695D01*
X118336785Y-96095457D01*
X118487976Y-96095457D01*
X118548452Y-96065219D01*
X118760119Y-95914028D02*
X119002023Y-95914028D01*
X118850833Y-95702361D02*
X118850833Y-96246647D01*
X118881071Y-96307123D01*
X118941547Y-96337361D01*
X119002023Y-96337361D01*
X119455595Y-96307123D02*
X119395119Y-96337361D01*
X119274166Y-96337361D01*
X119213690Y-96307123D01*
X119183452Y-96246647D01*
X119183452Y-96004742D01*
X119213690Y-95944266D01*
X119274166Y-95914028D01*
X119395119Y-95914028D01*
X119455595Y-95944266D01*
X119485833Y-96004742D01*
X119485833Y-96065219D01*
X119183452Y-96125695D01*
X119757976Y-96337361D02*
X119757976Y-95914028D01*
X119757976Y-96034980D02*
X119788214Y-95974504D01*
X119818452Y-95944266D01*
X119878928Y-95914028D01*
X119939404Y-95914028D01*
X120151071Y-96276885D02*
X120181309Y-96307123D01*
X120151071Y-96337361D01*
X120120833Y-96307123D01*
X120151071Y-96276885D01*
X120151071Y-96337361D01*
X120453452Y-95914028D02*
X120453452Y-96337361D01*
X120453452Y-95974504D02*
X120483690Y-95944266D01*
X120544166Y-95914028D01*
X120634880Y-95914028D01*
X120695357Y-95944266D01*
X120725595Y-96004742D01*
X120725595Y-96337361D01*
X121269880Y-96307123D02*
X121209404Y-96337361D01*
X121088452Y-96337361D01*
X121027976Y-96307123D01*
X120997738Y-96246647D01*
X120997738Y-96004742D01*
X121027976Y-95944266D01*
X121088452Y-95914028D01*
X121209404Y-95914028D01*
X121269880Y-95944266D01*
X121300119Y-96004742D01*
X121300119Y-96065219D01*
X120997738Y-96125695D01*
X121481547Y-95914028D02*
X121723452Y-95914028D01*
X121572261Y-95702361D02*
X121572261Y-96246647D01*
X121602500Y-96307123D01*
X121662976Y-96337361D01*
X121723452Y-96337361D01*
X122388690Y-95672123D02*
X121844404Y-96488552D01*
X122691071Y-95974504D02*
X122630595Y-95944266D01*
X122600357Y-95914028D01*
X122570119Y-95853552D01*
X122570119Y-95823314D01*
X122600357Y-95762838D01*
X122630595Y-95732600D01*
X122691071Y-95702361D01*
X122812023Y-95702361D01*
X122872500Y-95732600D01*
X122902738Y-95762838D01*
X122932976Y-95823314D01*
X122932976Y-95853552D01*
X122902738Y-95914028D01*
X122872500Y-95944266D01*
X122812023Y-95974504D01*
X122691071Y-95974504D01*
X122630595Y-96004742D01*
X122600357Y-96034980D01*
X122570119Y-96095457D01*
X122570119Y-96216409D01*
X122600357Y-96276885D01*
X122630595Y-96307123D01*
X122691071Y-96337361D01*
X122812023Y-96337361D01*
X122872500Y-96307123D01*
X122902738Y-96276885D01*
X122932976Y-96216409D01*
X122932976Y-96095457D01*
X122902738Y-96034980D01*
X122872500Y-96004742D01*
X122812023Y-95974504D01*
X123205119Y-96337361D02*
X123205119Y-95702361D01*
X123205119Y-95944266D02*
X123265595Y-95914028D01*
X123386547Y-95914028D01*
X123447023Y-95944266D01*
X123477261Y-95974504D01*
X123507500Y-96034980D01*
X123507500Y-96216409D01*
X123477261Y-96276885D01*
X123447023Y-96307123D01*
X123386547Y-96337361D01*
X123265595Y-96337361D01*
X123205119Y-96307123D01*
X123779642Y-96337361D02*
X123779642Y-95914028D01*
X123779642Y-95702361D02*
X123749404Y-95732600D01*
X123779642Y-95762838D01*
X123809880Y-95732600D01*
X123779642Y-95702361D01*
X123779642Y-95762838D01*
X123991309Y-95914028D02*
X124233214Y-95914028D01*
X124082023Y-95702361D02*
X124082023Y-96246647D01*
X124112261Y-96307123D01*
X124172738Y-96337361D01*
X124233214Y-96337361D01*
X124384404Y-96579266D02*
X124414642Y-96549028D01*
X124475119Y-96458314D01*
X124505357Y-96397838D01*
X124535595Y-96307123D01*
X124565833Y-96155933D01*
X124565833Y-96034980D01*
X124535595Y-95883790D01*
X124505357Y-95793076D01*
X124475119Y-95732600D01*
X124414642Y-95641885D01*
X124384404Y-95611647D01*
D10*
X107287785Y-90052071D02*
X107287785Y-88909071D01*
X107559928Y-88909071D01*
X107723214Y-88963500D01*
X107832071Y-89072357D01*
X107886500Y-89181214D01*
X107940928Y-89398928D01*
X107940928Y-89562214D01*
X107886500Y-89779928D01*
X107832071Y-89888785D01*
X107723214Y-89997642D01*
X107559928Y-90052071D01*
X107287785Y-90052071D01*
X108430785Y-90052071D02*
X108430785Y-88909071D01*
X109192785Y-89507785D02*
X109192785Y-90052071D01*
X108811785Y-88909071D02*
X109192785Y-89507785D01*
X109573785Y-88909071D01*
X110988928Y-89398928D02*
X110880071Y-89344500D01*
X110825642Y-89290071D01*
X110771214Y-89181214D01*
X110771214Y-89126785D01*
X110825642Y-89017928D01*
X110880071Y-88963500D01*
X110988928Y-88909071D01*
X111206642Y-88909071D01*
X111315500Y-88963500D01*
X111369928Y-89017928D01*
X111424357Y-89126785D01*
X111424357Y-89181214D01*
X111369928Y-89290071D01*
X111315500Y-89344500D01*
X111206642Y-89398928D01*
X110988928Y-89398928D01*
X110880071Y-89453357D01*
X110825642Y-89507785D01*
X110771214Y-89616642D01*
X110771214Y-89834357D01*
X110825642Y-89943214D01*
X110880071Y-89997642D01*
X110988928Y-90052071D01*
X111206642Y-90052071D01*
X111315500Y-89997642D01*
X111369928Y-89943214D01*
X111424357Y-89834357D01*
X111424357Y-89616642D01*
X111369928Y-89507785D01*
X111315500Y-89453357D01*
X111206642Y-89398928D01*
X111914214Y-89616642D02*
X112785071Y-89616642D01*
X113710357Y-89453357D02*
X113873642Y-89507785D01*
X113928071Y-89562214D01*
X113982500Y-89671071D01*
X113982500Y-89834357D01*
X113928071Y-89943214D01*
X113873642Y-89997642D01*
X113764785Y-90052071D01*
X113329357Y-90052071D01*
X113329357Y-88909071D01*
X113710357Y-88909071D01*
X113819214Y-88963500D01*
X113873642Y-89017928D01*
X113928071Y-89126785D01*
X113928071Y-89235642D01*
X113873642Y-89344500D01*
X113819214Y-89398928D01*
X113710357Y-89453357D01*
X113329357Y-89453357D01*
X114472357Y-90052071D02*
X114472357Y-89290071D01*
X114472357Y-88909071D02*
X114417928Y-88963500D01*
X114472357Y-89017928D01*
X114526785Y-88963500D01*
X114472357Y-88909071D01*
X114472357Y-89017928D01*
X114853357Y-89290071D02*
X115288785Y-89290071D01*
X115016642Y-88909071D02*
X115016642Y-89888785D01*
X115071071Y-89997642D01*
X115179928Y-90052071D01*
X115288785Y-90052071D01*
X117193785Y-89943214D02*
X117139357Y-89997642D01*
X116976071Y-90052071D01*
X116867214Y-90052071D01*
X116703928Y-89997642D01*
X116595071Y-89888785D01*
X116540642Y-89779928D01*
X116486214Y-89562214D01*
X116486214Y-89398928D01*
X116540642Y-89181214D01*
X116595071Y-89072357D01*
X116703928Y-88963500D01*
X116867214Y-88909071D01*
X116976071Y-88909071D01*
X117139357Y-88963500D01*
X117193785Y-89017928D01*
X117846928Y-90052071D02*
X117738071Y-89997642D01*
X117683642Y-89943214D01*
X117629214Y-89834357D01*
X117629214Y-89507785D01*
X117683642Y-89398928D01*
X117738071Y-89344500D01*
X117846928Y-89290071D01*
X118010214Y-89290071D01*
X118119071Y-89344500D01*
X118173500Y-89398928D01*
X118227928Y-89507785D01*
X118227928Y-89834357D01*
X118173500Y-89943214D01*
X118119071Y-89997642D01*
X118010214Y-90052071D01*
X117846928Y-90052071D01*
X118717785Y-90052071D02*
X118717785Y-89290071D01*
X118717785Y-89398928D02*
X118772214Y-89344500D01*
X118881071Y-89290071D01*
X119044357Y-89290071D01*
X119153214Y-89344500D01*
X119207642Y-89453357D01*
X119207642Y-90052071D01*
X119207642Y-89453357D02*
X119262071Y-89344500D01*
X119370928Y-89290071D01*
X119534214Y-89290071D01*
X119643071Y-89344500D01*
X119697500Y-89453357D01*
X119697500Y-90052071D01*
X120241785Y-89290071D02*
X120241785Y-90433071D01*
X120241785Y-89344500D02*
X120350642Y-89290071D01*
X120568357Y-89290071D01*
X120677214Y-89344500D01*
X120731642Y-89398928D01*
X120786071Y-89507785D01*
X120786071Y-89834357D01*
X120731642Y-89943214D01*
X120677214Y-89997642D01*
X120568357Y-90052071D01*
X120350642Y-90052071D01*
X120241785Y-89997642D01*
X121765785Y-89290071D02*
X121765785Y-90052071D01*
X121275928Y-89290071D02*
X121275928Y-89888785D01*
X121330357Y-89997642D01*
X121439214Y-90052071D01*
X121602500Y-90052071D01*
X121711357Y-89997642D01*
X121765785Y-89943214D01*
X122146785Y-89290071D02*
X122582214Y-89290071D01*
X122310071Y-88909071D02*
X122310071Y-89888785D01*
X122364500Y-89997642D01*
X122473357Y-90052071D01*
X122582214Y-90052071D01*
X123398642Y-89997642D02*
X123289785Y-90052071D01*
X123072071Y-90052071D01*
X122963214Y-89997642D01*
X122908785Y-89888785D01*
X122908785Y-89453357D01*
X122963214Y-89344500D01*
X123072071Y-89290071D01*
X123289785Y-89290071D01*
X123398642Y-89344500D01*
X123453071Y-89453357D01*
X123453071Y-89562214D01*
X122908785Y-89671071D01*
X123942928Y-90052071D02*
X123942928Y-89290071D01*
X123942928Y-89507785D02*
X123997357Y-89398928D01*
X124051785Y-89344500D01*
X124160642Y-89290071D01*
X124269500Y-89290071D01*
D12*
X76550017Y-116840000D02*
G75*
G03X76550017Y-116840000I-2890017J0D01*
G01*
X131160017Y-118110000D02*
G75*
G03X131160017Y-118110000I-2890017J0D01*
G01*
X129890017Y-81026000D02*
G75*
G03X129890017Y-81026000I-2890017J0D01*
G01*
X76550017Y-81280000D02*
G75*
G03X76550017Y-81280000I-2890017J0D01*
G01*
D13*
X119747000Y-115474000D02*
X121005000Y-115474000D01*
X119747000Y-113634000D02*
X121005000Y-113634000D01*
X78720000Y-79735000D02*
X78720000Y-82825000D01*
X83780000Y-81280000D02*
G75*
G03X83780000Y-81280000I-2500000J0D01*
G01*
X84270000Y-81279538D02*
G75*
G02X78720000Y-82824830I-2990000J-462D01*
G01*
X84270000Y-81280462D02*
G75*
G03X78720000Y-79735170I-2990000J462D01*
G01*
X95700000Y-81280462D02*
G75*
G03X90150000Y-79735170I-2990000J462D01*
G01*
X95700000Y-81279538D02*
G75*
G02X90150000Y-82824830I-2990000J-462D01*
G01*
X95210000Y-81280000D02*
G75*
G03X95210000Y-81280000I-2500000J0D01*
G01*
X90150000Y-79735000D02*
X90150000Y-82825000D01*
X101580000Y-79735000D02*
X101580000Y-82825000D01*
X106640000Y-81280000D02*
G75*
G03X106640000Y-81280000I-2500000J0D01*
G01*
X107130000Y-81279538D02*
G75*
G02X101580000Y-82824830I-2990000J-462D01*
G01*
X107130000Y-81280462D02*
G75*
G03X101580000Y-79735170I-2990000J462D01*
G01*
X118560000Y-81280462D02*
G75*
G03X113010000Y-79735170I-2990000J462D01*
G01*
X118560000Y-81279538D02*
G75*
G02X113010000Y-82824830I-2990000J-462D01*
G01*
X118070000Y-81280000D02*
G75*
G03X118070000Y-81280000I-2500000J0D01*
G01*
X113010000Y-79735000D02*
X113010000Y-82825000D01*
X94390000Y-115710000D02*
X94110000Y-115710000D01*
X94110000Y-115710000D02*
X94110000Y-114110000D01*
X94110000Y-114110000D02*
X93190000Y-114110000D01*
X93190000Y-114110000D02*
X93190000Y-121930000D01*
X93190000Y-121930000D02*
X105310000Y-121930000D01*
X105310000Y-121930000D02*
X105310000Y-114110000D01*
X105310000Y-114110000D02*
X104390000Y-114110000D01*
X104390000Y-114110000D02*
X104390000Y-115710000D01*
X104390000Y-115710000D02*
X104110000Y-115710000D01*
X95750000Y-121930000D02*
X95750000Y-117570000D01*
X95750000Y-117570000D02*
X102750000Y-117570000D01*
X102750000Y-117570000D02*
X102750000Y-121930000D01*
X93190000Y-115710000D02*
X94110000Y-115710000D01*
X105310000Y-115710000D02*
X104390000Y-115710000D01*
X93950000Y-118070000D02*
X93950000Y-119670000D01*
X93950000Y-119670000D02*
X94950000Y-119670000D01*
X94950000Y-119670000D02*
X94950000Y-118070000D01*
X94950000Y-118070000D02*
X93950000Y-118070000D01*
X104550000Y-118070000D02*
X104550000Y-119670000D01*
X104550000Y-119670000D02*
X103550000Y-119670000D01*
X103550000Y-119670000D02*
X103550000Y-118070000D01*
X103550000Y-118070000D02*
X104550000Y-118070000D01*
X94950000Y-119670000D02*
X94950000Y-121930000D01*
X94450000Y-119670000D02*
X94450000Y-121930000D01*
X94390000Y-115710000D02*
X94390000Y-114495000D01*
X80674000Y-115710000D02*
X80394000Y-115710000D01*
X80394000Y-115710000D02*
X80394000Y-114110000D01*
X80394000Y-114110000D02*
X79474000Y-114110000D01*
X79474000Y-114110000D02*
X79474000Y-121930000D01*
X79474000Y-121930000D02*
X89594000Y-121930000D01*
X89594000Y-121930000D02*
X89594000Y-114110000D01*
X89594000Y-114110000D02*
X88674000Y-114110000D01*
X88674000Y-114110000D02*
X88674000Y-115710000D01*
X88674000Y-115710000D02*
X88394000Y-115710000D01*
X82034000Y-121930000D02*
X82034000Y-117570000D01*
X82034000Y-117570000D02*
X87034000Y-117570000D01*
X87034000Y-117570000D02*
X87034000Y-121930000D01*
X79474000Y-115710000D02*
X80394000Y-115710000D01*
X89594000Y-115710000D02*
X88674000Y-115710000D01*
X80234000Y-118070000D02*
X80234000Y-119670000D01*
X80234000Y-119670000D02*
X81234000Y-119670000D01*
X81234000Y-119670000D02*
X81234000Y-118070000D01*
X81234000Y-118070000D02*
X80234000Y-118070000D01*
X88834000Y-118070000D02*
X88834000Y-119670000D01*
X88834000Y-119670000D02*
X87834000Y-119670000D01*
X87834000Y-119670000D02*
X87834000Y-118070000D01*
X87834000Y-118070000D02*
X88834000Y-118070000D01*
X81234000Y-119670000D02*
X81234000Y-121930000D01*
X80734000Y-119670000D02*
X80734000Y-121930000D01*
X80674000Y-115710000D02*
X80674000Y-114495000D01*
X109630000Y-115710000D02*
X109350000Y-115710000D01*
X109350000Y-115710000D02*
X109350000Y-114110000D01*
X109350000Y-114110000D02*
X108430000Y-114110000D01*
X108430000Y-114110000D02*
X108430000Y-121930000D01*
X108430000Y-121930000D02*
X114550000Y-121930000D01*
X114550000Y-121930000D02*
X114550000Y-114110000D01*
X114550000Y-114110000D02*
X113630000Y-114110000D01*
X113630000Y-114110000D02*
X113630000Y-115710000D01*
X113630000Y-115710000D02*
X113350000Y-115710000D01*
X110990000Y-121930000D02*
X110990000Y-117570000D01*
X110990000Y-117570000D02*
X111990000Y-117570000D01*
X111990000Y-117570000D02*
X111990000Y-121930000D01*
X108430000Y-115710000D02*
X109350000Y-115710000D01*
X114550000Y-115710000D02*
X113630000Y-115710000D01*
X109190000Y-118070000D02*
X109190000Y-119670000D01*
X109190000Y-119670000D02*
X110190000Y-119670000D01*
X110190000Y-119670000D02*
X110190000Y-118070000D01*
X110190000Y-118070000D02*
X109190000Y-118070000D01*
X113790000Y-118070000D02*
X113790000Y-119670000D01*
X113790000Y-119670000D02*
X112790000Y-119670000D01*
X112790000Y-119670000D02*
X112790000Y-118070000D01*
X112790000Y-118070000D02*
X113790000Y-118070000D01*
X110190000Y-119670000D02*
X110190000Y-121930000D01*
X109690000Y-119670000D02*
X109690000Y-121930000D01*
X109630000Y-115710000D02*
X109630000Y-114495000D01*
X85440000Y-79360000D02*
X85440000Y-83200000D01*
X87280000Y-79360000D02*
X87280000Y-83200000D01*
X98710000Y-79360000D02*
X98710000Y-83200000D01*
X96870000Y-79360000D02*
X96870000Y-83200000D01*
X108300000Y-79360000D02*
X108300000Y-83200000D01*
X110140000Y-79360000D02*
X110140000Y-83200000D01*
X121570000Y-79360000D02*
X121570000Y-83200000D01*
X119730000Y-79360000D02*
X119730000Y-83200000D01*
X128590000Y-111440000D02*
X128590000Y-109540000D01*
X128590000Y-109540000D02*
X130490000Y-109540000D01*
X130490000Y-109540000D02*
X130490000Y-111440000D01*
X130490000Y-111440000D02*
X128590000Y-111440000D01*
X130490000Y-100264000D02*
X128590000Y-100264000D01*
X130490000Y-98364000D02*
X130490000Y-100264000D01*
X128590000Y-98364000D02*
X130490000Y-98364000D01*
X128590000Y-100264000D02*
X128590000Y-98364000D01*
X128590000Y-103058000D02*
X128590000Y-101158000D01*
X128590000Y-101158000D02*
X130490000Y-101158000D01*
X130490000Y-101158000D02*
X130490000Y-103058000D01*
X130490000Y-103058000D02*
X128590000Y-103058000D01*
X128590000Y-108646000D02*
X128590000Y-106746000D01*
X128590000Y-106746000D02*
X130490000Y-106746000D01*
X130490000Y-106746000D02*
X130490000Y-108646000D01*
X130490000Y-108646000D02*
X128590000Y-108646000D01*
X130490000Y-105852000D02*
X128590000Y-105852000D01*
X130490000Y-103952000D02*
X130490000Y-105852000D01*
X128590000Y-103952000D02*
X130490000Y-103952000D01*
X128590000Y-105852000D02*
X128590000Y-103952000D01*
X130490000Y-91120000D02*
X128590000Y-91120000D01*
X130490000Y-89220000D02*
X130490000Y-91120000D01*
X128590000Y-89220000D02*
X130490000Y-89220000D01*
X128590000Y-91120000D02*
X128590000Y-89220000D01*
X130490000Y-96708000D02*
X128590000Y-96708000D01*
X130490000Y-94808000D02*
X130490000Y-96708000D01*
X128590000Y-94808000D02*
X130490000Y-94808000D01*
X128590000Y-96708000D02*
X128590000Y-94808000D01*
X128590000Y-93914000D02*
X128590000Y-92014000D01*
X128590000Y-92014000D02*
X130490000Y-92014000D01*
X130490000Y-92014000D02*
X130490000Y-93914000D01*
X130490000Y-93914000D02*
X128590000Y-93914000D01*
X128590000Y-88326000D02*
X128590000Y-86426000D01*
X128590000Y-86426000D02*
X130490000Y-86426000D01*
X130490000Y-86426000D02*
X130490000Y-88326000D01*
X130490000Y-88326000D02*
X128590000Y-88326000D01*
X120970000Y-118430000D02*
X122870000Y-118430000D01*
X122870000Y-118430000D02*
X122870000Y-120330000D01*
X122870000Y-120330000D02*
X120970000Y-120330000D01*
X120970000Y-120330000D02*
X120970000Y-118430000D01*
X118176000Y-120330000D02*
X118176000Y-118430000D01*
X120076000Y-120330000D02*
X118176000Y-120330000D01*
X120076000Y-118430000D02*
X120076000Y-120330000D01*
X118176000Y-118430000D02*
X120076000Y-118430000D01*
X103692000Y-93202000D02*
G75*
G02X103692000Y-91202000I0J1000000D01*
G01*
X103692000Y-91202000D02*
X103692000Y-89552000D01*
X103692000Y-89552000D02*
X78172000Y-89552000D01*
X78172000Y-89552000D02*
X78172000Y-94852000D01*
X78172000Y-94852000D02*
X103692000Y-94852000D01*
X103692000Y-94852000D02*
X103692000Y-93202000D01*
X103752000Y-87062000D02*
X78112000Y-87062000D01*
X78112000Y-87062000D02*
X78112000Y-97342000D01*
X78112000Y-97342000D02*
X103752000Y-97342000D01*
X103752000Y-97342000D02*
X103752000Y-87062000D01*
X78172000Y-103902000D02*
G75*
G02X78172000Y-105902000I0J-1000000D01*
G01*
X78172000Y-105902000D02*
X78172000Y-107552000D01*
X78172000Y-107552000D02*
X98612000Y-107552000D01*
X98612000Y-107552000D02*
X98612000Y-102252000D01*
X98612000Y-102252000D02*
X78172000Y-102252000D01*
X78172000Y-102252000D02*
X78172000Y-103902000D01*
X78112000Y-110042000D02*
X98672000Y-110042000D01*
X98672000Y-110042000D02*
X98672000Y-99762000D01*
X98672000Y-99762000D02*
X78112000Y-99762000D01*
X78112000Y-99762000D02*
X78112000Y-110042000D01*
D14*
X120209333Y-112861142D02*
X120161714Y-112908761D01*
X120018857Y-112956380D01*
X119923619Y-112956380D01*
X119780761Y-112908761D01*
X119685523Y-112813523D01*
X119637904Y-112718285D01*
X119590285Y-112527809D01*
X119590285Y-112384952D01*
X119637904Y-112194476D01*
X119685523Y-112099238D01*
X119780761Y-112004000D01*
X119923619Y-111956380D01*
X120018857Y-111956380D01*
X120161714Y-112004000D01*
X120209333Y-112051619D01*
X121161714Y-112956380D02*
X120590285Y-112956380D01*
X120876000Y-112956380D02*
X120876000Y-111956380D01*
X120780761Y-112099238D01*
X120685523Y-112194476D01*
X120590285Y-112242095D01*
X81184761Y-77096952D02*
X81089523Y-77049333D01*
X81041904Y-77001714D01*
X80994285Y-76906476D01*
X80994285Y-76858857D01*
X81041904Y-76763619D01*
X81089523Y-76716000D01*
X81184761Y-76668380D01*
X81375238Y-76668380D01*
X81470476Y-76716000D01*
X81518095Y-76763619D01*
X81565714Y-76858857D01*
X81565714Y-76906476D01*
X81518095Y-77001714D01*
X81470476Y-77049333D01*
X81375238Y-77096952D01*
X81184761Y-77096952D01*
X81089523Y-77144571D01*
X81041904Y-77192190D01*
X80994285Y-77287428D01*
X80994285Y-77477904D01*
X81041904Y-77573142D01*
X81089523Y-77620761D01*
X81184761Y-77668380D01*
X81375238Y-77668380D01*
X81470476Y-77620761D01*
X81518095Y-77573142D01*
X81565714Y-77477904D01*
X81565714Y-77287428D01*
X81518095Y-77192190D01*
X81470476Y-77144571D01*
X81375238Y-77096952D01*
X92900476Y-77001714D02*
X92900476Y-77668380D01*
X92662380Y-76620761D02*
X92424285Y-77335047D01*
X93043333Y-77335047D01*
X103854285Y-76763619D02*
X103901904Y-76716000D01*
X103997142Y-76668380D01*
X104235238Y-76668380D01*
X104330476Y-76716000D01*
X104378095Y-76763619D01*
X104425714Y-76858857D01*
X104425714Y-76954095D01*
X104378095Y-77096952D01*
X103806666Y-77668380D01*
X104425714Y-77668380D01*
X115855714Y-77668380D02*
X115284285Y-77668380D01*
X115570000Y-77668380D02*
X115570000Y-76668380D01*
X115474761Y-76811238D01*
X115379523Y-76906476D01*
X115284285Y-76954095D01*
X97845238Y-113482380D02*
X97845238Y-112482380D01*
X98178571Y-113196666D01*
X98511904Y-112482380D01*
X98511904Y-113482380D01*
X98988095Y-113482380D02*
X98988095Y-112815714D01*
X98988095Y-112482380D02*
X98940476Y-112530000D01*
X98988095Y-112577619D01*
X99035714Y-112530000D01*
X98988095Y-112482380D01*
X98988095Y-112577619D01*
X99416666Y-113434761D02*
X99511904Y-113482380D01*
X99702380Y-113482380D01*
X99797619Y-113434761D01*
X99845238Y-113339523D01*
X99845238Y-113291904D01*
X99797619Y-113196666D01*
X99702380Y-113149047D01*
X99559523Y-113149047D01*
X99464285Y-113101428D01*
X99416666Y-113006190D01*
X99416666Y-112958571D01*
X99464285Y-112863333D01*
X99559523Y-112815714D01*
X99702380Y-112815714D01*
X99797619Y-112863333D01*
X100702380Y-113434761D02*
X100607142Y-113482380D01*
X100416666Y-113482380D01*
X100321428Y-113434761D01*
X100273809Y-113387142D01*
X100226190Y-113291904D01*
X100226190Y-113006190D01*
X100273809Y-112910952D01*
X100321428Y-112863333D01*
X100416666Y-112815714D01*
X100607142Y-112815714D01*
X100702380Y-112863333D01*
X83796285Y-112958571D02*
X83939142Y-113006190D01*
X83986761Y-113053809D01*
X84034380Y-113149047D01*
X84034380Y-113291904D01*
X83986761Y-113387142D01*
X83939142Y-113434761D01*
X83843904Y-113482380D01*
X83462952Y-113482380D01*
X83462952Y-112482380D01*
X83796285Y-112482380D01*
X83891523Y-112530000D01*
X83939142Y-112577619D01*
X83986761Y-112672857D01*
X83986761Y-112768095D01*
X83939142Y-112863333D01*
X83891523Y-112910952D01*
X83796285Y-112958571D01*
X83462952Y-112958571D01*
X84891523Y-112815714D02*
X84891523Y-113482380D01*
X84462952Y-112815714D02*
X84462952Y-113339523D01*
X84510571Y-113434761D01*
X84605809Y-113482380D01*
X84748666Y-113482380D01*
X84843904Y-113434761D01*
X84891523Y-113387142D01*
X85320095Y-113434761D02*
X85415333Y-113482380D01*
X85605809Y-113482380D01*
X85701047Y-113434761D01*
X85748666Y-113339523D01*
X85748666Y-113291904D01*
X85701047Y-113196666D01*
X85605809Y-113149047D01*
X85462952Y-113149047D01*
X85367714Y-113101428D01*
X85320095Y-113006190D01*
X85320095Y-112958571D01*
X85367714Y-112863333D01*
X85462952Y-112815714D01*
X85605809Y-112815714D01*
X85701047Y-112863333D01*
X109513809Y-113482380D02*
X109513809Y-112482380D01*
X109894761Y-112482380D01*
X109990000Y-112530000D01*
X110037619Y-112577619D01*
X110085238Y-112672857D01*
X110085238Y-112815714D01*
X110037619Y-112910952D01*
X109990000Y-112958571D01*
X109894761Y-113006190D01*
X109513809Y-113006190D01*
X110656666Y-113482380D02*
X110561428Y-113434761D01*
X110513809Y-113387142D01*
X110466190Y-113291904D01*
X110466190Y-113006190D01*
X110513809Y-112910952D01*
X110561428Y-112863333D01*
X110656666Y-112815714D01*
X110799523Y-112815714D01*
X110894761Y-112863333D01*
X110942380Y-112910952D01*
X110990000Y-113006190D01*
X110990000Y-113291904D01*
X110942380Y-113387142D01*
X110894761Y-113434761D01*
X110799523Y-113482380D01*
X110656666Y-113482380D01*
X111323333Y-112815714D02*
X111513809Y-113482380D01*
X111704285Y-113006190D01*
X111894761Y-113482380D01*
X112085238Y-112815714D01*
X112847142Y-113434761D02*
X112751904Y-113482380D01*
X112561428Y-113482380D01*
X112466190Y-113434761D01*
X112418571Y-113339523D01*
X112418571Y-112958571D01*
X112466190Y-112863333D01*
X112561428Y-112815714D01*
X112751904Y-112815714D01*
X112847142Y-112863333D01*
X112894761Y-112958571D01*
X112894761Y-113053809D01*
X112418571Y-113149047D01*
X113323333Y-113482380D02*
X113323333Y-112815714D01*
X113323333Y-113006190D02*
X113370952Y-112910952D01*
X113418571Y-112863333D01*
X113513809Y-112815714D01*
X113609047Y-112815714D01*
X88732380Y-81446666D02*
X88256190Y-81780000D01*
X88732380Y-82018095D02*
X87732380Y-82018095D01*
X87732380Y-81637142D01*
X87780000Y-81541904D01*
X87827619Y-81494285D01*
X87922857Y-81446666D01*
X88065714Y-81446666D01*
X88160952Y-81494285D01*
X88208571Y-81541904D01*
X88256190Y-81637142D01*
X88256190Y-82018095D01*
X88732380Y-80494285D02*
X88732380Y-81065714D01*
X88732380Y-80780000D02*
X87732380Y-80780000D01*
X87875238Y-80875238D01*
X87970476Y-80970476D01*
X88018095Y-81065714D01*
X100162380Y-81446666D02*
X99686190Y-81780000D01*
X100162380Y-82018095D02*
X99162380Y-82018095D01*
X99162380Y-81637142D01*
X99210000Y-81541904D01*
X99257619Y-81494285D01*
X99352857Y-81446666D01*
X99495714Y-81446666D01*
X99590952Y-81494285D01*
X99638571Y-81541904D01*
X99686190Y-81637142D01*
X99686190Y-82018095D01*
X99257619Y-81065714D02*
X99210000Y-81018095D01*
X99162380Y-80922857D01*
X99162380Y-80684761D01*
X99210000Y-80589523D01*
X99257619Y-80541904D01*
X99352857Y-80494285D01*
X99448095Y-80494285D01*
X99590952Y-80541904D01*
X100162380Y-81113333D01*
X100162380Y-80494285D01*
X111592380Y-81446666D02*
X111116190Y-81780000D01*
X111592380Y-82018095D02*
X110592380Y-82018095D01*
X110592380Y-81637142D01*
X110640000Y-81541904D01*
X110687619Y-81494285D01*
X110782857Y-81446666D01*
X110925714Y-81446666D01*
X111020952Y-81494285D01*
X111068571Y-81541904D01*
X111116190Y-81637142D01*
X111116190Y-82018095D01*
X110592380Y-81113333D02*
X110592380Y-80494285D01*
X110973333Y-80827619D01*
X110973333Y-80684761D01*
X111020952Y-80589523D01*
X111068571Y-80541904D01*
X111163809Y-80494285D01*
X111401904Y-80494285D01*
X111497142Y-80541904D01*
X111544761Y-80589523D01*
X111592380Y-80684761D01*
X111592380Y-80970476D01*
X111544761Y-81065714D01*
X111497142Y-81113333D01*
X123022380Y-81446666D02*
X122546190Y-81780000D01*
X123022380Y-82018095D02*
X122022380Y-82018095D01*
X122022380Y-81637142D01*
X122070000Y-81541904D01*
X122117619Y-81494285D01*
X122212857Y-81446666D01*
X122355714Y-81446666D01*
X122450952Y-81494285D01*
X122498571Y-81541904D01*
X122546190Y-81637142D01*
X122546190Y-82018095D01*
X122355714Y-80589523D02*
X123022380Y-80589523D01*
X121974761Y-80827619D02*
X122689047Y-81065714D01*
X122689047Y-80446666D01*
D11*
X130792160Y-111010095D02*
X130792160Y-110502095D01*
X131471428Y-110598857D02*
X131495619Y-110623047D01*
X131519809Y-110695619D01*
X131519809Y-110744000D01*
X131495619Y-110816571D01*
X131447238Y-110864952D01*
X131398857Y-110889142D01*
X131302095Y-110913333D01*
X131229523Y-110913333D01*
X131132761Y-110889142D01*
X131084380Y-110864952D01*
X131036000Y-110816571D01*
X131011809Y-110744000D01*
X131011809Y-110695619D01*
X131036000Y-110623047D01*
X131060190Y-110598857D01*
X130792160Y-110502095D02*
X130792160Y-109969904D01*
X131011809Y-110284380D02*
X131011809Y-110187619D01*
X131036000Y-110139238D01*
X131084380Y-110090857D01*
X131181142Y-110066666D01*
X131350476Y-110066666D01*
X131447238Y-110090857D01*
X131495619Y-110139238D01*
X131519809Y-110187619D01*
X131519809Y-110284380D01*
X131495619Y-110332761D01*
X131447238Y-110381142D01*
X131350476Y-110405333D01*
X131181142Y-110405333D01*
X131084380Y-110381142D01*
X131036000Y-110332761D01*
X131011809Y-110284380D01*
X130792160Y-100027619D02*
X130792160Y-99519619D01*
X131471428Y-99616380D02*
X131495619Y-99640571D01*
X131519809Y-99713142D01*
X131519809Y-99761523D01*
X131495619Y-99834095D01*
X131447238Y-99882476D01*
X131398857Y-99906666D01*
X131302095Y-99930857D01*
X131229523Y-99930857D01*
X131132761Y-99906666D01*
X131084380Y-99882476D01*
X131036000Y-99834095D01*
X131011809Y-99761523D01*
X131011809Y-99713142D01*
X131036000Y-99640571D01*
X131060190Y-99616380D01*
X130792160Y-99519619D02*
X130792160Y-99108380D01*
X131519809Y-99156761D02*
X131519809Y-99398666D01*
X131011809Y-99398666D01*
X130792160Y-99108380D02*
X130792160Y-98600380D01*
X131519809Y-98697142D02*
X131277904Y-98866476D01*
X131519809Y-98987428D02*
X131011809Y-98987428D01*
X131011809Y-98793904D01*
X131036000Y-98745523D01*
X131060190Y-98721333D01*
X131108571Y-98697142D01*
X131181142Y-98697142D01*
X131229523Y-98721333D01*
X131253714Y-98745523D01*
X131277904Y-98793904D01*
X131277904Y-98987428D01*
X131471428Y-102410380D02*
X131495619Y-102434571D01*
X131519809Y-102507142D01*
X131519809Y-102555523D01*
X131495619Y-102628095D01*
X131447238Y-102676476D01*
X131398857Y-102700666D01*
X131302095Y-102724857D01*
X131229523Y-102724857D01*
X131132761Y-102700666D01*
X131084380Y-102676476D01*
X131036000Y-102628095D01*
X131011809Y-102555523D01*
X131011809Y-102507142D01*
X131036000Y-102434571D01*
X131060190Y-102410380D01*
X131519809Y-101950761D02*
X131519809Y-102192666D01*
X131011809Y-102192666D01*
X131519809Y-101781428D02*
X131011809Y-101781428D01*
X131519809Y-101491142D02*
X131229523Y-101708857D01*
X131011809Y-101491142D02*
X131302095Y-101781428D01*
X130792160Y-107889523D02*
X130792160Y-107502476D01*
X131011809Y-107623428D02*
X131374666Y-107623428D01*
X131447238Y-107647619D01*
X131495619Y-107696000D01*
X131519809Y-107768571D01*
X131519809Y-107816952D01*
X131471428Y-104974571D02*
X131495619Y-104998761D01*
X131519809Y-105071333D01*
X131519809Y-105119714D01*
X131495619Y-105192285D01*
X131447238Y-105240666D01*
X131398857Y-105264857D01*
X131302095Y-105289047D01*
X131229523Y-105289047D01*
X131132761Y-105264857D01*
X131084380Y-105240666D01*
X131036000Y-105192285D01*
X131011809Y-105119714D01*
X131011809Y-105071333D01*
X131036000Y-104998761D01*
X131060190Y-104974571D01*
X131253714Y-104756857D02*
X131253714Y-104587523D01*
X131519809Y-104514952D02*
X131519809Y-104756857D01*
X131011809Y-104756857D01*
X131011809Y-104514952D01*
X131253714Y-91077142D02*
X131277904Y-91004571D01*
X131302095Y-90980380D01*
X131350476Y-90956190D01*
X131423047Y-90956190D01*
X131471428Y-90980380D01*
X131495619Y-91004571D01*
X131519809Y-91052952D01*
X131519809Y-91246476D01*
X131011809Y-91246476D01*
X131011809Y-91077142D01*
X131036000Y-91028761D01*
X131060190Y-91004571D01*
X131108571Y-90980380D01*
X131156952Y-90980380D01*
X131205333Y-91004571D01*
X131229523Y-91028761D01*
X131253714Y-91077142D01*
X131253714Y-91246476D01*
X131011809Y-90738476D02*
X131423047Y-90738476D01*
X131471428Y-90714285D01*
X131495619Y-90690095D01*
X131519809Y-90641714D01*
X131519809Y-90544952D01*
X131495619Y-90496571D01*
X131471428Y-90472380D01*
X131423047Y-90448190D01*
X131011809Y-90448190D01*
X131495619Y-90230476D02*
X131519809Y-90157904D01*
X131519809Y-90036952D01*
X131495619Y-89988571D01*
X131471428Y-89964380D01*
X131423047Y-89940190D01*
X131374666Y-89940190D01*
X131326285Y-89964380D01*
X131302095Y-89988571D01*
X131277904Y-90036952D01*
X131253714Y-90133714D01*
X131229523Y-90182095D01*
X131205333Y-90206285D01*
X131156952Y-90230476D01*
X131108571Y-90230476D01*
X131060190Y-90206285D01*
X131036000Y-90182095D01*
X131011809Y-90133714D01*
X131011809Y-90012761D01*
X131036000Y-89940190D01*
X131568190Y-89843428D02*
X131568190Y-89456380D01*
X131060190Y-89359619D02*
X131036000Y-89335428D01*
X131011809Y-89287047D01*
X131011809Y-89166095D01*
X131036000Y-89117714D01*
X131060190Y-89093523D01*
X131108571Y-89069333D01*
X131156952Y-89069333D01*
X131229523Y-89093523D01*
X131519809Y-89383809D01*
X131519809Y-89069333D01*
X131253714Y-96665142D02*
X131277904Y-96592571D01*
X131302095Y-96568380D01*
X131350476Y-96544190D01*
X131423047Y-96544190D01*
X131471428Y-96568380D01*
X131495619Y-96592571D01*
X131519809Y-96640952D01*
X131519809Y-96834476D01*
X131011809Y-96834476D01*
X131011809Y-96665142D01*
X131036000Y-96616761D01*
X131060190Y-96592571D01*
X131108571Y-96568380D01*
X131156952Y-96568380D01*
X131205333Y-96592571D01*
X131229523Y-96616761D01*
X131253714Y-96665142D01*
X131253714Y-96834476D01*
X131011809Y-96326476D02*
X131423047Y-96326476D01*
X131471428Y-96302285D01*
X131495619Y-96278095D01*
X131519809Y-96229714D01*
X131519809Y-96132952D01*
X131495619Y-96084571D01*
X131471428Y-96060380D01*
X131423047Y-96036190D01*
X131011809Y-96036190D01*
X131495619Y-95818476D02*
X131519809Y-95745904D01*
X131519809Y-95624952D01*
X131495619Y-95576571D01*
X131471428Y-95552380D01*
X131423047Y-95528190D01*
X131374666Y-95528190D01*
X131326285Y-95552380D01*
X131302095Y-95576571D01*
X131277904Y-95624952D01*
X131253714Y-95721714D01*
X131229523Y-95770095D01*
X131205333Y-95794285D01*
X131156952Y-95818476D01*
X131108571Y-95818476D01*
X131060190Y-95794285D01*
X131036000Y-95770095D01*
X131011809Y-95721714D01*
X131011809Y-95600761D01*
X131036000Y-95528190D01*
X131568190Y-95431428D02*
X131568190Y-95044380D01*
X131011809Y-94826666D02*
X131011809Y-94778285D01*
X131036000Y-94729904D01*
X131060190Y-94705714D01*
X131108571Y-94681523D01*
X131205333Y-94657333D01*
X131326285Y-94657333D01*
X131423047Y-94681523D01*
X131471428Y-94705714D01*
X131495619Y-94729904D01*
X131519809Y-94778285D01*
X131519809Y-94826666D01*
X131495619Y-94875047D01*
X131471428Y-94899238D01*
X131423047Y-94923428D01*
X131326285Y-94947619D01*
X131205333Y-94947619D01*
X131108571Y-94923428D01*
X131060190Y-94899238D01*
X131036000Y-94875047D01*
X131011809Y-94826666D01*
X131253714Y-93871142D02*
X131277904Y-93798571D01*
X131302095Y-93774380D01*
X131350476Y-93750190D01*
X131423047Y-93750190D01*
X131471428Y-93774380D01*
X131495619Y-93798571D01*
X131519809Y-93846952D01*
X131519809Y-94040476D01*
X131011809Y-94040476D01*
X131011809Y-93871142D01*
X131036000Y-93822761D01*
X131060190Y-93798571D01*
X131108571Y-93774380D01*
X131156952Y-93774380D01*
X131205333Y-93798571D01*
X131229523Y-93822761D01*
X131253714Y-93871142D01*
X131253714Y-94040476D01*
X131011809Y-93532476D02*
X131423047Y-93532476D01*
X131471428Y-93508285D01*
X131495619Y-93484095D01*
X131519809Y-93435714D01*
X131519809Y-93338952D01*
X131495619Y-93290571D01*
X131471428Y-93266380D01*
X131423047Y-93242190D01*
X131011809Y-93242190D01*
X131495619Y-93024476D02*
X131519809Y-92951904D01*
X131519809Y-92830952D01*
X131495619Y-92782571D01*
X131471428Y-92758380D01*
X131423047Y-92734190D01*
X131374666Y-92734190D01*
X131326285Y-92758380D01*
X131302095Y-92782571D01*
X131277904Y-92830952D01*
X131253714Y-92927714D01*
X131229523Y-92976095D01*
X131205333Y-93000285D01*
X131156952Y-93024476D01*
X131108571Y-93024476D01*
X131060190Y-93000285D01*
X131036000Y-92976095D01*
X131011809Y-92927714D01*
X131011809Y-92806761D01*
X131036000Y-92734190D01*
X131568190Y-92637428D02*
X131568190Y-92250380D01*
X131519809Y-91863333D02*
X131519809Y-92153619D01*
X131519809Y-92008476D02*
X131011809Y-92008476D01*
X131084380Y-92056857D01*
X131132761Y-92105238D01*
X131156952Y-92153619D01*
X131253714Y-88283142D02*
X131277904Y-88210571D01*
X131302095Y-88186380D01*
X131350476Y-88162190D01*
X131423047Y-88162190D01*
X131471428Y-88186380D01*
X131495619Y-88210571D01*
X131519809Y-88258952D01*
X131519809Y-88452476D01*
X131011809Y-88452476D01*
X131011809Y-88283142D01*
X131036000Y-88234761D01*
X131060190Y-88210571D01*
X131108571Y-88186380D01*
X131156952Y-88186380D01*
X131205333Y-88210571D01*
X131229523Y-88234761D01*
X131253714Y-88283142D01*
X131253714Y-88452476D01*
X131011809Y-87944476D02*
X131423047Y-87944476D01*
X131471428Y-87920285D01*
X131495619Y-87896095D01*
X131519809Y-87847714D01*
X131519809Y-87750952D01*
X131495619Y-87702571D01*
X131471428Y-87678380D01*
X131423047Y-87654190D01*
X131011809Y-87654190D01*
X131495619Y-87436476D02*
X131519809Y-87363904D01*
X131519809Y-87242952D01*
X131495619Y-87194571D01*
X131471428Y-87170380D01*
X131423047Y-87146190D01*
X131374666Y-87146190D01*
X131326285Y-87170380D01*
X131302095Y-87194571D01*
X131277904Y-87242952D01*
X131253714Y-87339714D01*
X131229523Y-87388095D01*
X131205333Y-87412285D01*
X131156952Y-87436476D01*
X131108571Y-87436476D01*
X131060190Y-87412285D01*
X131036000Y-87388095D01*
X131011809Y-87339714D01*
X131011809Y-87218761D01*
X131036000Y-87146190D01*
X131568190Y-87049428D02*
X131568190Y-86662380D01*
X131011809Y-86589809D02*
X131011809Y-86275333D01*
X131205333Y-86444666D01*
X131205333Y-86372095D01*
X131229523Y-86323714D01*
X131253714Y-86299523D01*
X131302095Y-86275333D01*
X131423047Y-86275333D01*
X131471428Y-86299523D01*
X131495619Y-86323714D01*
X131519809Y-86372095D01*
X131519809Y-86517238D01*
X131495619Y-86565619D01*
X131471428Y-86589809D01*
X121532952Y-120876000D02*
X121484571Y-120851809D01*
X121412000Y-120851809D01*
X121339428Y-120876000D01*
X121291047Y-120924380D01*
X121266857Y-120972761D01*
X121242666Y-121069523D01*
X121242666Y-121142095D01*
X121266857Y-121238857D01*
X121291047Y-121287238D01*
X121339428Y-121335619D01*
X121412000Y-121359809D01*
X121460380Y-121359809D01*
X121532952Y-121335619D01*
X121557142Y-121311428D01*
X121557142Y-121142095D01*
X121460380Y-121142095D01*
X121774857Y-121359809D02*
X121774857Y-120851809D01*
X122065142Y-121359809D01*
X122065142Y-120851809D01*
X122307047Y-121359809D02*
X122307047Y-120851809D01*
X122428000Y-120851809D01*
X122500571Y-120876000D01*
X122548952Y-120924380D01*
X122573142Y-120972761D01*
X122597333Y-121069523D01*
X122597333Y-121142095D01*
X122573142Y-121238857D01*
X122548952Y-121287238D01*
X122500571Y-121335619D01*
X122428000Y-121359809D01*
X122307047Y-121359809D01*
X118472857Y-121166285D02*
X118859904Y-121166285D01*
X118666380Y-121359809D02*
X118666380Y-120972761D01*
X119343714Y-120851809D02*
X119101809Y-120851809D01*
X119077619Y-121093714D01*
X119101809Y-121069523D01*
X119150190Y-121045333D01*
X119271142Y-121045333D01*
X119319523Y-121069523D01*
X119343714Y-121093714D01*
X119367904Y-121142095D01*
X119367904Y-121263047D01*
X119343714Y-121311428D01*
X119319523Y-121335619D01*
X119271142Y-121359809D01*
X119150190Y-121359809D01*
X119101809Y-121335619D01*
X119077619Y-121311428D01*
X119513047Y-120851809D02*
X119682380Y-121359809D01*
X119851714Y-120851809D01*
D14*
X104144380Y-92963904D02*
X104953904Y-92963904D01*
X105049142Y-92916285D01*
X105096761Y-92868666D01*
X105144380Y-92773428D01*
X105144380Y-92582952D01*
X105096761Y-92487714D01*
X105049142Y-92440095D01*
X104953904Y-92392476D01*
X104144380Y-92392476D01*
X105144380Y-91392476D02*
X105144380Y-91963904D01*
X105144380Y-91678190D02*
X104144380Y-91678190D01*
X104287238Y-91773428D01*
X104382476Y-91868666D01*
X104430095Y-91963904D01*
X76624380Y-105663904D02*
X77433904Y-105663904D01*
X77529142Y-105616285D01*
X77576761Y-105568666D01*
X77624380Y-105473428D01*
X77624380Y-105282952D01*
X77576761Y-105187714D01*
X77529142Y-105140095D01*
X77433904Y-105092476D01*
X76624380Y-105092476D01*
X76719619Y-104663904D02*
X76672000Y-104616285D01*
X76624380Y-104521047D01*
X76624380Y-104282952D01*
X76672000Y-104187714D01*
X76719619Y-104140095D01*
X76814857Y-104092476D01*
X76910095Y-104092476D01*
X77052952Y-104140095D01*
X77624380Y-104711523D01*
X77624380Y-104092476D01*
M02*
