G04 #@! TF.GenerationSoftware,KiCad,Pcbnew,(5.1.2-1)-1*
G04 #@! TF.CreationDate,2019-08-22T07:59:40+10:00*
G04 #@! TF.ProjectId,program-counter,70726f67-7261-46d2-9d63-6f756e746572,rev?*
G04 #@! TF.SameCoordinates,Original*
G04 #@! TF.FileFunction,Legend,Top*
G04 #@! TF.FilePolarity,Positive*
%FSLAX46Y46*%
G04 Gerber Fmt 4.6, Leading zero omitted, Abs format (unit mm)*
G04 Created by KiCad (PCBNEW (5.1.2-1)-1) date 2019-08-22 07:59:40*
%MOMM*%
%LPD*%
G04 APERTURE LIST*
%ADD10C,0.127000*%
%ADD11C,0.100000*%
%ADD12C,0.120000*%
%ADD13C,0.150000*%
%ADD14C,0.101600*%
G04 APERTURE END LIST*
D10*
X108521500Y-92592071D02*
X108521500Y-91449071D01*
X108956928Y-91449071D01*
X109065785Y-91503500D01*
X109120214Y-91557928D01*
X109174642Y-91666785D01*
X109174642Y-91830071D01*
X109120214Y-91938928D01*
X109065785Y-91993357D01*
X108956928Y-92047785D01*
X108521500Y-92047785D01*
X109664500Y-92592071D02*
X109664500Y-91830071D01*
X109664500Y-92047785D02*
X109718928Y-91938928D01*
X109773357Y-91884500D01*
X109882214Y-91830071D01*
X109991071Y-91830071D01*
X110535357Y-92592071D02*
X110426500Y-92537642D01*
X110372071Y-92483214D01*
X110317642Y-92374357D01*
X110317642Y-92047785D01*
X110372071Y-91938928D01*
X110426500Y-91884500D01*
X110535357Y-91830071D01*
X110698642Y-91830071D01*
X110807500Y-91884500D01*
X110861928Y-91938928D01*
X110916357Y-92047785D01*
X110916357Y-92374357D01*
X110861928Y-92483214D01*
X110807500Y-92537642D01*
X110698642Y-92592071D01*
X110535357Y-92592071D01*
X111896071Y-91830071D02*
X111896071Y-92755357D01*
X111841642Y-92864214D01*
X111787214Y-92918642D01*
X111678357Y-92973071D01*
X111515071Y-92973071D01*
X111406214Y-92918642D01*
X111896071Y-92537642D02*
X111787214Y-92592071D01*
X111569500Y-92592071D01*
X111460642Y-92537642D01*
X111406214Y-92483214D01*
X111351785Y-92374357D01*
X111351785Y-92047785D01*
X111406214Y-91938928D01*
X111460642Y-91884500D01*
X111569500Y-91830071D01*
X111787214Y-91830071D01*
X111896071Y-91884500D01*
X112440357Y-92592071D02*
X112440357Y-91830071D01*
X112440357Y-92047785D02*
X112494785Y-91938928D01*
X112549214Y-91884500D01*
X112658071Y-91830071D01*
X112766928Y-91830071D01*
X113637785Y-92592071D02*
X113637785Y-91993357D01*
X113583357Y-91884500D01*
X113474500Y-91830071D01*
X113256785Y-91830071D01*
X113147928Y-91884500D01*
X113637785Y-92537642D02*
X113528928Y-92592071D01*
X113256785Y-92592071D01*
X113147928Y-92537642D01*
X113093500Y-92428785D01*
X113093500Y-92319928D01*
X113147928Y-92211071D01*
X113256785Y-92156642D01*
X113528928Y-92156642D01*
X113637785Y-92102214D01*
X114182071Y-92592071D02*
X114182071Y-91830071D01*
X114182071Y-91938928D02*
X114236500Y-91884500D01*
X114345357Y-91830071D01*
X114508642Y-91830071D01*
X114617500Y-91884500D01*
X114671928Y-91993357D01*
X114671928Y-92592071D01*
X114671928Y-91993357D02*
X114726357Y-91884500D01*
X114835214Y-91830071D01*
X114998500Y-91830071D01*
X115107357Y-91884500D01*
X115161785Y-91993357D01*
X115161785Y-92592071D01*
X117230071Y-92483214D02*
X117175642Y-92537642D01*
X117012357Y-92592071D01*
X116903500Y-92592071D01*
X116740214Y-92537642D01*
X116631357Y-92428785D01*
X116576928Y-92319928D01*
X116522500Y-92102214D01*
X116522500Y-91938928D01*
X116576928Y-91721214D01*
X116631357Y-91612357D01*
X116740214Y-91503500D01*
X116903500Y-91449071D01*
X117012357Y-91449071D01*
X117175642Y-91503500D01*
X117230071Y-91557928D01*
X117883214Y-92592071D02*
X117774357Y-92537642D01*
X117719928Y-92483214D01*
X117665500Y-92374357D01*
X117665500Y-92047785D01*
X117719928Y-91938928D01*
X117774357Y-91884500D01*
X117883214Y-91830071D01*
X118046500Y-91830071D01*
X118155357Y-91884500D01*
X118209785Y-91938928D01*
X118264214Y-92047785D01*
X118264214Y-92374357D01*
X118209785Y-92483214D01*
X118155357Y-92537642D01*
X118046500Y-92592071D01*
X117883214Y-92592071D01*
X119243928Y-91830071D02*
X119243928Y-92592071D01*
X118754071Y-91830071D02*
X118754071Y-92428785D01*
X118808500Y-92537642D01*
X118917357Y-92592071D01*
X119080642Y-92592071D01*
X119189500Y-92537642D01*
X119243928Y-92483214D01*
X119788214Y-91830071D02*
X119788214Y-92592071D01*
X119788214Y-91938928D02*
X119842642Y-91884500D01*
X119951500Y-91830071D01*
X120114785Y-91830071D01*
X120223642Y-91884500D01*
X120278071Y-91993357D01*
X120278071Y-92592071D01*
X120659071Y-91830071D02*
X121094500Y-91830071D01*
X120822357Y-91449071D02*
X120822357Y-92428785D01*
X120876785Y-92537642D01*
X120985642Y-92592071D01*
X121094500Y-92592071D01*
X121910928Y-92537642D02*
X121802071Y-92592071D01*
X121584357Y-92592071D01*
X121475500Y-92537642D01*
X121421071Y-92428785D01*
X121421071Y-91993357D01*
X121475500Y-91884500D01*
X121584357Y-91830071D01*
X121802071Y-91830071D01*
X121910928Y-91884500D01*
X121965357Y-91993357D01*
X121965357Y-92102214D01*
X121421071Y-92211071D01*
X122455214Y-92592071D02*
X122455214Y-91830071D01*
X122455214Y-92047785D02*
X122509642Y-91938928D01*
X122564071Y-91884500D01*
X122672928Y-91830071D01*
X122781785Y-91830071D01*
X114862428Y-96356714D02*
X115043857Y-96864714D01*
X115225285Y-96356714D01*
X115914714Y-96864714D02*
X115479285Y-96864714D01*
X115697000Y-96864714D02*
X115697000Y-96102714D01*
X115624428Y-96211571D01*
X115551857Y-96284142D01*
X115479285Y-96320428D01*
X116241285Y-96792142D02*
X116277571Y-96828428D01*
X116241285Y-96864714D01*
X116205000Y-96828428D01*
X116241285Y-96792142D01*
X116241285Y-96864714D01*
X116749285Y-96102714D02*
X116821857Y-96102714D01*
X116894428Y-96139000D01*
X116930714Y-96175285D01*
X116967000Y-96247857D01*
X117003285Y-96393000D01*
X117003285Y-96574428D01*
X116967000Y-96719571D01*
X116930714Y-96792142D01*
X116894428Y-96828428D01*
X116821857Y-96864714D01*
X116749285Y-96864714D01*
X116676714Y-96828428D01*
X116640428Y-96792142D01*
X116604142Y-96719571D01*
X116567857Y-96574428D01*
X116567857Y-96393000D01*
X116604142Y-96247857D01*
X116640428Y-96175285D01*
X116676714Y-96139000D01*
X116749285Y-96102714D01*
X107115428Y-94959714D02*
X107115428Y-94197714D01*
X107296857Y-94197714D01*
X107405714Y-94234000D01*
X107478285Y-94306571D01*
X107514571Y-94379142D01*
X107550857Y-94524285D01*
X107550857Y-94633142D01*
X107514571Y-94778285D01*
X107478285Y-94850857D01*
X107405714Y-94923428D01*
X107296857Y-94959714D01*
X107115428Y-94959714D01*
X108167714Y-94923428D02*
X108095142Y-94959714D01*
X107950000Y-94959714D01*
X107877428Y-94923428D01*
X107841142Y-94850857D01*
X107841142Y-94560571D01*
X107877428Y-94488000D01*
X107950000Y-94451714D01*
X108095142Y-94451714D01*
X108167714Y-94488000D01*
X108204000Y-94560571D01*
X108204000Y-94633142D01*
X107841142Y-94705714D01*
X108494285Y-94923428D02*
X108566857Y-94959714D01*
X108712000Y-94959714D01*
X108784571Y-94923428D01*
X108820857Y-94850857D01*
X108820857Y-94814571D01*
X108784571Y-94742000D01*
X108712000Y-94705714D01*
X108603142Y-94705714D01*
X108530571Y-94669428D01*
X108494285Y-94596857D01*
X108494285Y-94560571D01*
X108530571Y-94488000D01*
X108603142Y-94451714D01*
X108712000Y-94451714D01*
X108784571Y-94488000D01*
X109147428Y-94959714D02*
X109147428Y-94451714D01*
X109147428Y-94197714D02*
X109111142Y-94234000D01*
X109147428Y-94270285D01*
X109183714Y-94234000D01*
X109147428Y-94197714D01*
X109147428Y-94270285D01*
X109836857Y-94451714D02*
X109836857Y-95068571D01*
X109800571Y-95141142D01*
X109764285Y-95177428D01*
X109691714Y-95213714D01*
X109582857Y-95213714D01*
X109510285Y-95177428D01*
X109836857Y-94923428D02*
X109764285Y-94959714D01*
X109619142Y-94959714D01*
X109546571Y-94923428D01*
X109510285Y-94887142D01*
X109474000Y-94814571D01*
X109474000Y-94596857D01*
X109510285Y-94524285D01*
X109546571Y-94488000D01*
X109619142Y-94451714D01*
X109764285Y-94451714D01*
X109836857Y-94488000D01*
X110199714Y-94451714D02*
X110199714Y-94959714D01*
X110199714Y-94524285D02*
X110236000Y-94488000D01*
X110308571Y-94451714D01*
X110417428Y-94451714D01*
X110490000Y-94488000D01*
X110526285Y-94560571D01*
X110526285Y-94959714D01*
X111179428Y-94923428D02*
X111106857Y-94959714D01*
X110961714Y-94959714D01*
X110889142Y-94923428D01*
X110852857Y-94850857D01*
X110852857Y-94560571D01*
X110889142Y-94488000D01*
X110961714Y-94451714D01*
X111106857Y-94451714D01*
X111179428Y-94488000D01*
X111215714Y-94560571D01*
X111215714Y-94633142D01*
X110852857Y-94705714D01*
X111868857Y-94959714D02*
X111868857Y-94197714D01*
X111868857Y-94923428D02*
X111796285Y-94959714D01*
X111651142Y-94959714D01*
X111578571Y-94923428D01*
X111542285Y-94887142D01*
X111506000Y-94814571D01*
X111506000Y-94596857D01*
X111542285Y-94524285D01*
X111578571Y-94488000D01*
X111651142Y-94451714D01*
X111796285Y-94451714D01*
X111868857Y-94488000D01*
X112812285Y-94959714D02*
X112812285Y-94197714D01*
X112812285Y-94488000D02*
X112884857Y-94451714D01*
X113030000Y-94451714D01*
X113102571Y-94488000D01*
X113138857Y-94524285D01*
X113175142Y-94596857D01*
X113175142Y-94814571D01*
X113138857Y-94887142D01*
X113102571Y-94923428D01*
X113030000Y-94959714D01*
X112884857Y-94959714D01*
X112812285Y-94923428D01*
X113429142Y-94451714D02*
X113610571Y-94959714D01*
X113792000Y-94451714D02*
X113610571Y-94959714D01*
X113538000Y-95141142D01*
X113501714Y-95177428D01*
X113429142Y-95213714D01*
X114626571Y-94923428D02*
X114735428Y-94959714D01*
X114916857Y-94959714D01*
X114989428Y-94923428D01*
X115025714Y-94887142D01*
X115062000Y-94814571D01*
X115062000Y-94742000D01*
X115025714Y-94669428D01*
X114989428Y-94633142D01*
X114916857Y-94596857D01*
X114771714Y-94560571D01*
X114699142Y-94524285D01*
X114662857Y-94488000D01*
X114626571Y-94415428D01*
X114626571Y-94342857D01*
X114662857Y-94270285D01*
X114699142Y-94234000D01*
X114771714Y-94197714D01*
X114953142Y-94197714D01*
X115062000Y-94234000D01*
X115388571Y-94959714D02*
X115388571Y-94197714D01*
X115715142Y-94959714D02*
X115715142Y-94560571D01*
X115678857Y-94488000D01*
X115606285Y-94451714D01*
X115497428Y-94451714D01*
X115424857Y-94488000D01*
X115388571Y-94524285D01*
X116404571Y-94959714D02*
X116404571Y-94560571D01*
X116368285Y-94488000D01*
X116295714Y-94451714D01*
X116150571Y-94451714D01*
X116078000Y-94488000D01*
X116404571Y-94923428D02*
X116332000Y-94959714D01*
X116150571Y-94959714D01*
X116078000Y-94923428D01*
X116041714Y-94850857D01*
X116041714Y-94778285D01*
X116078000Y-94705714D01*
X116150571Y-94669428D01*
X116332000Y-94669428D01*
X116404571Y-94633142D01*
X116767428Y-94451714D02*
X116767428Y-94959714D01*
X116767428Y-94524285D02*
X116803714Y-94488000D01*
X116876285Y-94451714D01*
X116985142Y-94451714D01*
X117057714Y-94488000D01*
X117094000Y-94560571D01*
X117094000Y-94959714D01*
X117747142Y-94923428D02*
X117674571Y-94959714D01*
X117529428Y-94959714D01*
X117456857Y-94923428D01*
X117420571Y-94850857D01*
X117420571Y-94560571D01*
X117456857Y-94488000D01*
X117529428Y-94451714D01*
X117674571Y-94451714D01*
X117747142Y-94488000D01*
X117783428Y-94560571D01*
X117783428Y-94633142D01*
X117420571Y-94705714D01*
X118690571Y-94959714D02*
X118690571Y-94197714D01*
X118980857Y-94197714D01*
X119053428Y-94234000D01*
X119089714Y-94270285D01*
X119126000Y-94342857D01*
X119126000Y-94451714D01*
X119089714Y-94524285D01*
X119053428Y-94560571D01*
X118980857Y-94596857D01*
X118690571Y-94596857D01*
X119561428Y-94959714D02*
X119488857Y-94923428D01*
X119452571Y-94887142D01*
X119416285Y-94814571D01*
X119416285Y-94596857D01*
X119452571Y-94524285D01*
X119488857Y-94488000D01*
X119561428Y-94451714D01*
X119670285Y-94451714D01*
X119742857Y-94488000D01*
X119779142Y-94524285D01*
X119815428Y-94596857D01*
X119815428Y-94814571D01*
X119779142Y-94887142D01*
X119742857Y-94923428D01*
X119670285Y-94959714D01*
X119561428Y-94959714D01*
X120142000Y-94451714D02*
X120142000Y-95213714D01*
X120142000Y-94488000D02*
X120214571Y-94451714D01*
X120359714Y-94451714D01*
X120432285Y-94488000D01*
X120468571Y-94524285D01*
X120504857Y-94596857D01*
X120504857Y-94814571D01*
X120468571Y-94887142D01*
X120432285Y-94923428D01*
X120359714Y-94959714D01*
X120214571Y-94959714D01*
X120142000Y-94923428D01*
X120831428Y-94451714D02*
X120831428Y-95213714D01*
X120831428Y-94488000D02*
X120904000Y-94451714D01*
X121049142Y-94451714D01*
X121121714Y-94488000D01*
X121158000Y-94524285D01*
X121194285Y-94596857D01*
X121194285Y-94814571D01*
X121158000Y-94887142D01*
X121121714Y-94923428D01*
X121049142Y-94959714D01*
X120904000Y-94959714D01*
X120831428Y-94923428D01*
X121629714Y-94959714D02*
X121557142Y-94923428D01*
X121520857Y-94850857D01*
X121520857Y-94197714D01*
X122210285Y-94923428D02*
X122137714Y-94959714D01*
X121992571Y-94959714D01*
X121920000Y-94923428D01*
X121883714Y-94850857D01*
X121883714Y-94560571D01*
X121920000Y-94488000D01*
X121992571Y-94451714D01*
X122137714Y-94451714D01*
X122210285Y-94488000D01*
X122246571Y-94560571D01*
X122246571Y-94633142D01*
X121883714Y-94705714D01*
X122464285Y-94451714D02*
X122754571Y-94451714D01*
X122573142Y-94197714D02*
X122573142Y-94850857D01*
X122609428Y-94923428D01*
X122682000Y-94959714D01*
X122754571Y-94959714D01*
X123117428Y-94959714D02*
X123044857Y-94923428D01*
X123008571Y-94887142D01*
X122972285Y-94814571D01*
X122972285Y-94596857D01*
X123008571Y-94524285D01*
X123044857Y-94488000D01*
X123117428Y-94451714D01*
X123226285Y-94451714D01*
X123298857Y-94488000D01*
X123335142Y-94524285D01*
X123371428Y-94596857D01*
X123371428Y-94814571D01*
X123335142Y-94887142D01*
X123298857Y-94923428D01*
X123226285Y-94959714D01*
X123117428Y-94959714D01*
X123698000Y-94451714D02*
X123698000Y-94959714D01*
X123698000Y-94524285D02*
X123734285Y-94488000D01*
X123806857Y-94451714D01*
X123915714Y-94451714D01*
X123988285Y-94488000D01*
X124024571Y-94560571D01*
X124024571Y-94959714D01*
X107287785Y-90052071D02*
X107287785Y-88909071D01*
X107559928Y-88909071D01*
X107723214Y-88963500D01*
X107832071Y-89072357D01*
X107886500Y-89181214D01*
X107940928Y-89398928D01*
X107940928Y-89562214D01*
X107886500Y-89779928D01*
X107832071Y-89888785D01*
X107723214Y-89997642D01*
X107559928Y-90052071D01*
X107287785Y-90052071D01*
X108430785Y-90052071D02*
X108430785Y-88909071D01*
X109192785Y-89507785D02*
X109192785Y-90052071D01*
X108811785Y-88909071D02*
X109192785Y-89507785D01*
X109573785Y-88909071D01*
X110988928Y-89398928D02*
X110880071Y-89344500D01*
X110825642Y-89290071D01*
X110771214Y-89181214D01*
X110771214Y-89126785D01*
X110825642Y-89017928D01*
X110880071Y-88963500D01*
X110988928Y-88909071D01*
X111206642Y-88909071D01*
X111315500Y-88963500D01*
X111369928Y-89017928D01*
X111424357Y-89126785D01*
X111424357Y-89181214D01*
X111369928Y-89290071D01*
X111315500Y-89344500D01*
X111206642Y-89398928D01*
X110988928Y-89398928D01*
X110880071Y-89453357D01*
X110825642Y-89507785D01*
X110771214Y-89616642D01*
X110771214Y-89834357D01*
X110825642Y-89943214D01*
X110880071Y-89997642D01*
X110988928Y-90052071D01*
X111206642Y-90052071D01*
X111315500Y-89997642D01*
X111369928Y-89943214D01*
X111424357Y-89834357D01*
X111424357Y-89616642D01*
X111369928Y-89507785D01*
X111315500Y-89453357D01*
X111206642Y-89398928D01*
X111914214Y-89616642D02*
X112785071Y-89616642D01*
X113710357Y-89453357D02*
X113873642Y-89507785D01*
X113928071Y-89562214D01*
X113982500Y-89671071D01*
X113982500Y-89834357D01*
X113928071Y-89943214D01*
X113873642Y-89997642D01*
X113764785Y-90052071D01*
X113329357Y-90052071D01*
X113329357Y-88909071D01*
X113710357Y-88909071D01*
X113819214Y-88963500D01*
X113873642Y-89017928D01*
X113928071Y-89126785D01*
X113928071Y-89235642D01*
X113873642Y-89344500D01*
X113819214Y-89398928D01*
X113710357Y-89453357D01*
X113329357Y-89453357D01*
X114472357Y-90052071D02*
X114472357Y-89290071D01*
X114472357Y-88909071D02*
X114417928Y-88963500D01*
X114472357Y-89017928D01*
X114526785Y-88963500D01*
X114472357Y-88909071D01*
X114472357Y-89017928D01*
X114853357Y-89290071D02*
X115288785Y-89290071D01*
X115016642Y-88909071D02*
X115016642Y-89888785D01*
X115071071Y-89997642D01*
X115179928Y-90052071D01*
X115288785Y-90052071D01*
X117193785Y-89943214D02*
X117139357Y-89997642D01*
X116976071Y-90052071D01*
X116867214Y-90052071D01*
X116703928Y-89997642D01*
X116595071Y-89888785D01*
X116540642Y-89779928D01*
X116486214Y-89562214D01*
X116486214Y-89398928D01*
X116540642Y-89181214D01*
X116595071Y-89072357D01*
X116703928Y-88963500D01*
X116867214Y-88909071D01*
X116976071Y-88909071D01*
X117139357Y-88963500D01*
X117193785Y-89017928D01*
X117846928Y-90052071D02*
X117738071Y-89997642D01*
X117683642Y-89943214D01*
X117629214Y-89834357D01*
X117629214Y-89507785D01*
X117683642Y-89398928D01*
X117738071Y-89344500D01*
X117846928Y-89290071D01*
X118010214Y-89290071D01*
X118119071Y-89344500D01*
X118173500Y-89398928D01*
X118227928Y-89507785D01*
X118227928Y-89834357D01*
X118173500Y-89943214D01*
X118119071Y-89997642D01*
X118010214Y-90052071D01*
X117846928Y-90052071D01*
X118717785Y-90052071D02*
X118717785Y-89290071D01*
X118717785Y-89398928D02*
X118772214Y-89344500D01*
X118881071Y-89290071D01*
X119044357Y-89290071D01*
X119153214Y-89344500D01*
X119207642Y-89453357D01*
X119207642Y-90052071D01*
X119207642Y-89453357D02*
X119262071Y-89344500D01*
X119370928Y-89290071D01*
X119534214Y-89290071D01*
X119643071Y-89344500D01*
X119697500Y-89453357D01*
X119697500Y-90052071D01*
X120241785Y-89290071D02*
X120241785Y-90433071D01*
X120241785Y-89344500D02*
X120350642Y-89290071D01*
X120568357Y-89290071D01*
X120677214Y-89344500D01*
X120731642Y-89398928D01*
X120786071Y-89507785D01*
X120786071Y-89834357D01*
X120731642Y-89943214D01*
X120677214Y-89997642D01*
X120568357Y-90052071D01*
X120350642Y-90052071D01*
X120241785Y-89997642D01*
X121765785Y-89290071D02*
X121765785Y-90052071D01*
X121275928Y-89290071D02*
X121275928Y-89888785D01*
X121330357Y-89997642D01*
X121439214Y-90052071D01*
X121602500Y-90052071D01*
X121711357Y-89997642D01*
X121765785Y-89943214D01*
X122146785Y-89290071D02*
X122582214Y-89290071D01*
X122310071Y-88909071D02*
X122310071Y-89888785D01*
X122364500Y-89997642D01*
X122473357Y-90052071D01*
X122582214Y-90052071D01*
X123398642Y-89997642D02*
X123289785Y-90052071D01*
X123072071Y-90052071D01*
X122963214Y-89997642D01*
X122908785Y-89888785D01*
X122908785Y-89453357D01*
X122963214Y-89344500D01*
X123072071Y-89290071D01*
X123289785Y-89290071D01*
X123398642Y-89344500D01*
X123453071Y-89453357D01*
X123453071Y-89562214D01*
X122908785Y-89671071D01*
X123942928Y-90052071D02*
X123942928Y-89290071D01*
X123942928Y-89507785D02*
X123997357Y-89398928D01*
X124051785Y-89344500D01*
X124160642Y-89290071D01*
X124269500Y-89290071D01*
D11*
X76550017Y-116840000D02*
G75*
G03X76550017Y-116840000I-2890017J0D01*
G01*
X131160017Y-118110000D02*
G75*
G03X131160017Y-118110000I-2890017J0D01*
G01*
X129890017Y-81026000D02*
G75*
G03X129890017Y-81026000I-2890017J0D01*
G01*
X76550017Y-81280000D02*
G75*
G03X76550017Y-81280000I-2890017J0D01*
G01*
D12*
X119747000Y-115474000D02*
X121005000Y-115474000D01*
X119747000Y-113634000D02*
X121005000Y-113634000D01*
X78720000Y-79735000D02*
X78720000Y-82825000D01*
X83780000Y-81280000D02*
G75*
G03X83780000Y-81280000I-2500000J0D01*
G01*
X84270000Y-81279538D02*
G75*
G02X78720000Y-82824830I-2990000J-462D01*
G01*
X84270000Y-81280462D02*
G75*
G03X78720000Y-79735170I-2990000J462D01*
G01*
X95700000Y-81280462D02*
G75*
G03X90150000Y-79735170I-2990000J462D01*
G01*
X95700000Y-81279538D02*
G75*
G02X90150000Y-82824830I-2990000J-462D01*
G01*
X95210000Y-81280000D02*
G75*
G03X95210000Y-81280000I-2500000J0D01*
G01*
X90150000Y-79735000D02*
X90150000Y-82825000D01*
X101580000Y-79735000D02*
X101580000Y-82825000D01*
X106640000Y-81280000D02*
G75*
G03X106640000Y-81280000I-2500000J0D01*
G01*
X107130000Y-81279538D02*
G75*
G02X101580000Y-82824830I-2990000J-462D01*
G01*
X107130000Y-81280462D02*
G75*
G03X101580000Y-79735170I-2990000J462D01*
G01*
X118560000Y-81280462D02*
G75*
G03X113010000Y-79735170I-2990000J462D01*
G01*
X118560000Y-81279538D02*
G75*
G02X113010000Y-82824830I-2990000J-462D01*
G01*
X118070000Y-81280000D02*
G75*
G03X118070000Y-81280000I-2500000J0D01*
G01*
X113010000Y-79735000D02*
X113010000Y-82825000D01*
X94390000Y-115710000D02*
X94110000Y-115710000D01*
X94110000Y-115710000D02*
X94110000Y-114110000D01*
X94110000Y-114110000D02*
X93190000Y-114110000D01*
X93190000Y-114110000D02*
X93190000Y-121930000D01*
X93190000Y-121930000D02*
X105310000Y-121930000D01*
X105310000Y-121930000D02*
X105310000Y-114110000D01*
X105310000Y-114110000D02*
X104390000Y-114110000D01*
X104390000Y-114110000D02*
X104390000Y-115710000D01*
X104390000Y-115710000D02*
X104110000Y-115710000D01*
X95750000Y-121930000D02*
X95750000Y-117570000D01*
X95750000Y-117570000D02*
X102750000Y-117570000D01*
X102750000Y-117570000D02*
X102750000Y-121930000D01*
X93190000Y-115710000D02*
X94110000Y-115710000D01*
X105310000Y-115710000D02*
X104390000Y-115710000D01*
X93950000Y-118070000D02*
X93950000Y-119670000D01*
X93950000Y-119670000D02*
X94950000Y-119670000D01*
X94950000Y-119670000D02*
X94950000Y-118070000D01*
X94950000Y-118070000D02*
X93950000Y-118070000D01*
X104550000Y-118070000D02*
X104550000Y-119670000D01*
X104550000Y-119670000D02*
X103550000Y-119670000D01*
X103550000Y-119670000D02*
X103550000Y-118070000D01*
X103550000Y-118070000D02*
X104550000Y-118070000D01*
X94950000Y-119670000D02*
X94950000Y-121930000D01*
X94450000Y-119670000D02*
X94450000Y-121930000D01*
X94390000Y-115710000D02*
X94390000Y-114495000D01*
X80674000Y-115710000D02*
X80394000Y-115710000D01*
X80394000Y-115710000D02*
X80394000Y-114110000D01*
X80394000Y-114110000D02*
X79474000Y-114110000D01*
X79474000Y-114110000D02*
X79474000Y-121930000D01*
X79474000Y-121930000D02*
X89594000Y-121930000D01*
X89594000Y-121930000D02*
X89594000Y-114110000D01*
X89594000Y-114110000D02*
X88674000Y-114110000D01*
X88674000Y-114110000D02*
X88674000Y-115710000D01*
X88674000Y-115710000D02*
X88394000Y-115710000D01*
X82034000Y-121930000D02*
X82034000Y-117570000D01*
X82034000Y-117570000D02*
X87034000Y-117570000D01*
X87034000Y-117570000D02*
X87034000Y-121930000D01*
X79474000Y-115710000D02*
X80394000Y-115710000D01*
X89594000Y-115710000D02*
X88674000Y-115710000D01*
X80234000Y-118070000D02*
X80234000Y-119670000D01*
X80234000Y-119670000D02*
X81234000Y-119670000D01*
X81234000Y-119670000D02*
X81234000Y-118070000D01*
X81234000Y-118070000D02*
X80234000Y-118070000D01*
X88834000Y-118070000D02*
X88834000Y-119670000D01*
X88834000Y-119670000D02*
X87834000Y-119670000D01*
X87834000Y-119670000D02*
X87834000Y-118070000D01*
X87834000Y-118070000D02*
X88834000Y-118070000D01*
X81234000Y-119670000D02*
X81234000Y-121930000D01*
X80734000Y-119670000D02*
X80734000Y-121930000D01*
X80674000Y-115710000D02*
X80674000Y-114495000D01*
X109630000Y-115710000D02*
X109350000Y-115710000D01*
X109350000Y-115710000D02*
X109350000Y-114110000D01*
X109350000Y-114110000D02*
X108430000Y-114110000D01*
X108430000Y-114110000D02*
X108430000Y-121930000D01*
X108430000Y-121930000D02*
X114550000Y-121930000D01*
X114550000Y-121930000D02*
X114550000Y-114110000D01*
X114550000Y-114110000D02*
X113630000Y-114110000D01*
X113630000Y-114110000D02*
X113630000Y-115710000D01*
X113630000Y-115710000D02*
X113350000Y-115710000D01*
X110990000Y-121930000D02*
X110990000Y-117570000D01*
X110990000Y-117570000D02*
X111990000Y-117570000D01*
X111990000Y-117570000D02*
X111990000Y-121930000D01*
X108430000Y-115710000D02*
X109350000Y-115710000D01*
X114550000Y-115710000D02*
X113630000Y-115710000D01*
X109190000Y-118070000D02*
X109190000Y-119670000D01*
X109190000Y-119670000D02*
X110190000Y-119670000D01*
X110190000Y-119670000D02*
X110190000Y-118070000D01*
X110190000Y-118070000D02*
X109190000Y-118070000D01*
X113790000Y-118070000D02*
X113790000Y-119670000D01*
X113790000Y-119670000D02*
X112790000Y-119670000D01*
X112790000Y-119670000D02*
X112790000Y-118070000D01*
X112790000Y-118070000D02*
X113790000Y-118070000D01*
X110190000Y-119670000D02*
X110190000Y-121930000D01*
X109690000Y-119670000D02*
X109690000Y-121930000D01*
X109630000Y-115710000D02*
X109630000Y-114495000D01*
X85440000Y-79360000D02*
X85440000Y-83200000D01*
X87280000Y-79360000D02*
X87280000Y-83200000D01*
X98710000Y-79360000D02*
X98710000Y-83200000D01*
X96870000Y-79360000D02*
X96870000Y-83200000D01*
X108300000Y-79360000D02*
X108300000Y-83200000D01*
X110140000Y-79360000D02*
X110140000Y-83200000D01*
X121570000Y-79360000D02*
X121570000Y-83200000D01*
X119730000Y-79360000D02*
X119730000Y-83200000D01*
X128590000Y-111440000D02*
X128590000Y-109540000D01*
X128590000Y-109540000D02*
X130490000Y-109540000D01*
X130490000Y-109540000D02*
X130490000Y-111440000D01*
X130490000Y-111440000D02*
X128590000Y-111440000D01*
X130490000Y-100264000D02*
X128590000Y-100264000D01*
X130490000Y-98364000D02*
X130490000Y-100264000D01*
X128590000Y-98364000D02*
X130490000Y-98364000D01*
X128590000Y-100264000D02*
X128590000Y-98364000D01*
X128590000Y-103058000D02*
X128590000Y-101158000D01*
X128590000Y-101158000D02*
X130490000Y-101158000D01*
X130490000Y-101158000D02*
X130490000Y-103058000D01*
X130490000Y-103058000D02*
X128590000Y-103058000D01*
X128590000Y-108646000D02*
X128590000Y-106746000D01*
X128590000Y-106746000D02*
X130490000Y-106746000D01*
X130490000Y-106746000D02*
X130490000Y-108646000D01*
X130490000Y-108646000D02*
X128590000Y-108646000D01*
X130490000Y-105852000D02*
X128590000Y-105852000D01*
X130490000Y-103952000D02*
X130490000Y-105852000D01*
X128590000Y-103952000D02*
X130490000Y-103952000D01*
X128590000Y-105852000D02*
X128590000Y-103952000D01*
X130490000Y-91120000D02*
X128590000Y-91120000D01*
X130490000Y-89220000D02*
X130490000Y-91120000D01*
X128590000Y-89220000D02*
X130490000Y-89220000D01*
X128590000Y-91120000D02*
X128590000Y-89220000D01*
X130490000Y-96708000D02*
X128590000Y-96708000D01*
X130490000Y-94808000D02*
X130490000Y-96708000D01*
X128590000Y-94808000D02*
X130490000Y-94808000D01*
X128590000Y-96708000D02*
X128590000Y-94808000D01*
X128590000Y-93914000D02*
X128590000Y-92014000D01*
X128590000Y-92014000D02*
X130490000Y-92014000D01*
X130490000Y-92014000D02*
X130490000Y-93914000D01*
X130490000Y-93914000D02*
X128590000Y-93914000D01*
X128590000Y-88326000D02*
X128590000Y-86426000D01*
X128590000Y-86426000D02*
X130490000Y-86426000D01*
X130490000Y-86426000D02*
X130490000Y-88326000D01*
X130490000Y-88326000D02*
X128590000Y-88326000D01*
X120970000Y-118430000D02*
X122870000Y-118430000D01*
X122870000Y-118430000D02*
X122870000Y-120330000D01*
X122870000Y-120330000D02*
X120970000Y-120330000D01*
X120970000Y-120330000D02*
X120970000Y-118430000D01*
X118176000Y-120330000D02*
X118176000Y-118430000D01*
X120076000Y-120330000D02*
X118176000Y-120330000D01*
X120076000Y-118430000D02*
X120076000Y-120330000D01*
X118176000Y-118430000D02*
X120076000Y-118430000D01*
X103692000Y-93202000D02*
G75*
G02X103692000Y-91202000I0J1000000D01*
G01*
X103692000Y-91202000D02*
X103692000Y-89552000D01*
X103692000Y-89552000D02*
X78172000Y-89552000D01*
X78172000Y-89552000D02*
X78172000Y-94852000D01*
X78172000Y-94852000D02*
X103692000Y-94852000D01*
X103692000Y-94852000D02*
X103692000Y-93202000D01*
X103752000Y-87062000D02*
X78112000Y-87062000D01*
X78112000Y-87062000D02*
X78112000Y-97342000D01*
X78112000Y-97342000D02*
X103752000Y-97342000D01*
X103752000Y-97342000D02*
X103752000Y-87062000D01*
X78172000Y-103902000D02*
G75*
G02X78172000Y-105902000I0J-1000000D01*
G01*
X78172000Y-105902000D02*
X78172000Y-107552000D01*
X78172000Y-107552000D02*
X98612000Y-107552000D01*
X98612000Y-107552000D02*
X98612000Y-102252000D01*
X98612000Y-102252000D02*
X78172000Y-102252000D01*
X78172000Y-102252000D02*
X78172000Y-103902000D01*
X78112000Y-110042000D02*
X98672000Y-110042000D01*
X98672000Y-110042000D02*
X98672000Y-99762000D01*
X98672000Y-99762000D02*
X78112000Y-99762000D01*
X78112000Y-99762000D02*
X78112000Y-110042000D01*
D13*
X120209333Y-112861142D02*
X120161714Y-112908761D01*
X120018857Y-112956380D01*
X119923619Y-112956380D01*
X119780761Y-112908761D01*
X119685523Y-112813523D01*
X119637904Y-112718285D01*
X119590285Y-112527809D01*
X119590285Y-112384952D01*
X119637904Y-112194476D01*
X119685523Y-112099238D01*
X119780761Y-112004000D01*
X119923619Y-111956380D01*
X120018857Y-111956380D01*
X120161714Y-112004000D01*
X120209333Y-112051619D01*
X121161714Y-112956380D02*
X120590285Y-112956380D01*
X120876000Y-112956380D02*
X120876000Y-111956380D01*
X120780761Y-112099238D01*
X120685523Y-112194476D01*
X120590285Y-112242095D01*
X81184761Y-77096952D02*
X81089523Y-77049333D01*
X81041904Y-77001714D01*
X80994285Y-76906476D01*
X80994285Y-76858857D01*
X81041904Y-76763619D01*
X81089523Y-76716000D01*
X81184761Y-76668380D01*
X81375238Y-76668380D01*
X81470476Y-76716000D01*
X81518095Y-76763619D01*
X81565714Y-76858857D01*
X81565714Y-76906476D01*
X81518095Y-77001714D01*
X81470476Y-77049333D01*
X81375238Y-77096952D01*
X81184761Y-77096952D01*
X81089523Y-77144571D01*
X81041904Y-77192190D01*
X80994285Y-77287428D01*
X80994285Y-77477904D01*
X81041904Y-77573142D01*
X81089523Y-77620761D01*
X81184761Y-77668380D01*
X81375238Y-77668380D01*
X81470476Y-77620761D01*
X81518095Y-77573142D01*
X81565714Y-77477904D01*
X81565714Y-77287428D01*
X81518095Y-77192190D01*
X81470476Y-77144571D01*
X81375238Y-77096952D01*
X92900476Y-77001714D02*
X92900476Y-77668380D01*
X92662380Y-76620761D02*
X92424285Y-77335047D01*
X93043333Y-77335047D01*
X103854285Y-76763619D02*
X103901904Y-76716000D01*
X103997142Y-76668380D01*
X104235238Y-76668380D01*
X104330476Y-76716000D01*
X104378095Y-76763619D01*
X104425714Y-76858857D01*
X104425714Y-76954095D01*
X104378095Y-77096952D01*
X103806666Y-77668380D01*
X104425714Y-77668380D01*
X115855714Y-77668380D02*
X115284285Y-77668380D01*
X115570000Y-77668380D02*
X115570000Y-76668380D01*
X115474761Y-76811238D01*
X115379523Y-76906476D01*
X115284285Y-76954095D01*
X97845238Y-113482380D02*
X97845238Y-112482380D01*
X98178571Y-113196666D01*
X98511904Y-112482380D01*
X98511904Y-113482380D01*
X98988095Y-113482380D02*
X98988095Y-112815714D01*
X98988095Y-112482380D02*
X98940476Y-112530000D01*
X98988095Y-112577619D01*
X99035714Y-112530000D01*
X98988095Y-112482380D01*
X98988095Y-112577619D01*
X99416666Y-113434761D02*
X99511904Y-113482380D01*
X99702380Y-113482380D01*
X99797619Y-113434761D01*
X99845238Y-113339523D01*
X99845238Y-113291904D01*
X99797619Y-113196666D01*
X99702380Y-113149047D01*
X99559523Y-113149047D01*
X99464285Y-113101428D01*
X99416666Y-113006190D01*
X99416666Y-112958571D01*
X99464285Y-112863333D01*
X99559523Y-112815714D01*
X99702380Y-112815714D01*
X99797619Y-112863333D01*
X100702380Y-113434761D02*
X100607142Y-113482380D01*
X100416666Y-113482380D01*
X100321428Y-113434761D01*
X100273809Y-113387142D01*
X100226190Y-113291904D01*
X100226190Y-113006190D01*
X100273809Y-112910952D01*
X100321428Y-112863333D01*
X100416666Y-112815714D01*
X100607142Y-112815714D01*
X100702380Y-112863333D01*
X83796285Y-112958571D02*
X83939142Y-113006190D01*
X83986761Y-113053809D01*
X84034380Y-113149047D01*
X84034380Y-113291904D01*
X83986761Y-113387142D01*
X83939142Y-113434761D01*
X83843904Y-113482380D01*
X83462952Y-113482380D01*
X83462952Y-112482380D01*
X83796285Y-112482380D01*
X83891523Y-112530000D01*
X83939142Y-112577619D01*
X83986761Y-112672857D01*
X83986761Y-112768095D01*
X83939142Y-112863333D01*
X83891523Y-112910952D01*
X83796285Y-112958571D01*
X83462952Y-112958571D01*
X84891523Y-112815714D02*
X84891523Y-113482380D01*
X84462952Y-112815714D02*
X84462952Y-113339523D01*
X84510571Y-113434761D01*
X84605809Y-113482380D01*
X84748666Y-113482380D01*
X84843904Y-113434761D01*
X84891523Y-113387142D01*
X85320095Y-113434761D02*
X85415333Y-113482380D01*
X85605809Y-113482380D01*
X85701047Y-113434761D01*
X85748666Y-113339523D01*
X85748666Y-113291904D01*
X85701047Y-113196666D01*
X85605809Y-113149047D01*
X85462952Y-113149047D01*
X85367714Y-113101428D01*
X85320095Y-113006190D01*
X85320095Y-112958571D01*
X85367714Y-112863333D01*
X85462952Y-112815714D01*
X85605809Y-112815714D01*
X85701047Y-112863333D01*
X109513809Y-113482380D02*
X109513809Y-112482380D01*
X109894761Y-112482380D01*
X109990000Y-112530000D01*
X110037619Y-112577619D01*
X110085238Y-112672857D01*
X110085238Y-112815714D01*
X110037619Y-112910952D01*
X109990000Y-112958571D01*
X109894761Y-113006190D01*
X109513809Y-113006190D01*
X110656666Y-113482380D02*
X110561428Y-113434761D01*
X110513809Y-113387142D01*
X110466190Y-113291904D01*
X110466190Y-113006190D01*
X110513809Y-112910952D01*
X110561428Y-112863333D01*
X110656666Y-112815714D01*
X110799523Y-112815714D01*
X110894761Y-112863333D01*
X110942380Y-112910952D01*
X110990000Y-113006190D01*
X110990000Y-113291904D01*
X110942380Y-113387142D01*
X110894761Y-113434761D01*
X110799523Y-113482380D01*
X110656666Y-113482380D01*
X111323333Y-112815714D02*
X111513809Y-113482380D01*
X111704285Y-113006190D01*
X111894761Y-113482380D01*
X112085238Y-112815714D01*
X112847142Y-113434761D02*
X112751904Y-113482380D01*
X112561428Y-113482380D01*
X112466190Y-113434761D01*
X112418571Y-113339523D01*
X112418571Y-112958571D01*
X112466190Y-112863333D01*
X112561428Y-112815714D01*
X112751904Y-112815714D01*
X112847142Y-112863333D01*
X112894761Y-112958571D01*
X112894761Y-113053809D01*
X112418571Y-113149047D01*
X113323333Y-113482380D02*
X113323333Y-112815714D01*
X113323333Y-113006190D02*
X113370952Y-112910952D01*
X113418571Y-112863333D01*
X113513809Y-112815714D01*
X113609047Y-112815714D01*
X88732380Y-81446666D02*
X88256190Y-81780000D01*
X88732380Y-82018095D02*
X87732380Y-82018095D01*
X87732380Y-81637142D01*
X87780000Y-81541904D01*
X87827619Y-81494285D01*
X87922857Y-81446666D01*
X88065714Y-81446666D01*
X88160952Y-81494285D01*
X88208571Y-81541904D01*
X88256190Y-81637142D01*
X88256190Y-82018095D01*
X88732380Y-80494285D02*
X88732380Y-81065714D01*
X88732380Y-80780000D02*
X87732380Y-80780000D01*
X87875238Y-80875238D01*
X87970476Y-80970476D01*
X88018095Y-81065714D01*
X100162380Y-81446666D02*
X99686190Y-81780000D01*
X100162380Y-82018095D02*
X99162380Y-82018095D01*
X99162380Y-81637142D01*
X99210000Y-81541904D01*
X99257619Y-81494285D01*
X99352857Y-81446666D01*
X99495714Y-81446666D01*
X99590952Y-81494285D01*
X99638571Y-81541904D01*
X99686190Y-81637142D01*
X99686190Y-82018095D01*
X99257619Y-81065714D02*
X99210000Y-81018095D01*
X99162380Y-80922857D01*
X99162380Y-80684761D01*
X99210000Y-80589523D01*
X99257619Y-80541904D01*
X99352857Y-80494285D01*
X99448095Y-80494285D01*
X99590952Y-80541904D01*
X100162380Y-81113333D01*
X100162380Y-80494285D01*
X111592380Y-81446666D02*
X111116190Y-81780000D01*
X111592380Y-82018095D02*
X110592380Y-82018095D01*
X110592380Y-81637142D01*
X110640000Y-81541904D01*
X110687619Y-81494285D01*
X110782857Y-81446666D01*
X110925714Y-81446666D01*
X111020952Y-81494285D01*
X111068571Y-81541904D01*
X111116190Y-81637142D01*
X111116190Y-82018095D01*
X110592380Y-81113333D02*
X110592380Y-80494285D01*
X110973333Y-80827619D01*
X110973333Y-80684761D01*
X111020952Y-80589523D01*
X111068571Y-80541904D01*
X111163809Y-80494285D01*
X111401904Y-80494285D01*
X111497142Y-80541904D01*
X111544761Y-80589523D01*
X111592380Y-80684761D01*
X111592380Y-80970476D01*
X111544761Y-81065714D01*
X111497142Y-81113333D01*
X123022380Y-81446666D02*
X122546190Y-81780000D01*
X123022380Y-82018095D02*
X122022380Y-82018095D01*
X122022380Y-81637142D01*
X122070000Y-81541904D01*
X122117619Y-81494285D01*
X122212857Y-81446666D01*
X122355714Y-81446666D01*
X122450952Y-81494285D01*
X122498571Y-81541904D01*
X122546190Y-81637142D01*
X122546190Y-82018095D01*
X122355714Y-80589523D02*
X123022380Y-80589523D01*
X121974761Y-80827619D02*
X122689047Y-81065714D01*
X122689047Y-80446666D01*
D14*
X130792160Y-111010095D02*
X130792160Y-110502095D01*
X131471428Y-110598857D02*
X131495619Y-110623047D01*
X131519809Y-110695619D01*
X131519809Y-110744000D01*
X131495619Y-110816571D01*
X131447238Y-110864952D01*
X131398857Y-110889142D01*
X131302095Y-110913333D01*
X131229523Y-110913333D01*
X131132761Y-110889142D01*
X131084380Y-110864952D01*
X131036000Y-110816571D01*
X131011809Y-110744000D01*
X131011809Y-110695619D01*
X131036000Y-110623047D01*
X131060190Y-110598857D01*
X130792160Y-110502095D02*
X130792160Y-109969904D01*
X131011809Y-110284380D02*
X131011809Y-110187619D01*
X131036000Y-110139238D01*
X131084380Y-110090857D01*
X131181142Y-110066666D01*
X131350476Y-110066666D01*
X131447238Y-110090857D01*
X131495619Y-110139238D01*
X131519809Y-110187619D01*
X131519809Y-110284380D01*
X131495619Y-110332761D01*
X131447238Y-110381142D01*
X131350476Y-110405333D01*
X131181142Y-110405333D01*
X131084380Y-110381142D01*
X131036000Y-110332761D01*
X131011809Y-110284380D01*
X130792160Y-100027619D02*
X130792160Y-99519619D01*
X131471428Y-99616380D02*
X131495619Y-99640571D01*
X131519809Y-99713142D01*
X131519809Y-99761523D01*
X131495619Y-99834095D01*
X131447238Y-99882476D01*
X131398857Y-99906666D01*
X131302095Y-99930857D01*
X131229523Y-99930857D01*
X131132761Y-99906666D01*
X131084380Y-99882476D01*
X131036000Y-99834095D01*
X131011809Y-99761523D01*
X131011809Y-99713142D01*
X131036000Y-99640571D01*
X131060190Y-99616380D01*
X130792160Y-99519619D02*
X130792160Y-99108380D01*
X131519809Y-99156761D02*
X131519809Y-99398666D01*
X131011809Y-99398666D01*
X130792160Y-99108380D02*
X130792160Y-98600380D01*
X131519809Y-98697142D02*
X131277904Y-98866476D01*
X131519809Y-98987428D02*
X131011809Y-98987428D01*
X131011809Y-98793904D01*
X131036000Y-98745523D01*
X131060190Y-98721333D01*
X131108571Y-98697142D01*
X131181142Y-98697142D01*
X131229523Y-98721333D01*
X131253714Y-98745523D01*
X131277904Y-98793904D01*
X131277904Y-98987428D01*
X131471428Y-102410380D02*
X131495619Y-102434571D01*
X131519809Y-102507142D01*
X131519809Y-102555523D01*
X131495619Y-102628095D01*
X131447238Y-102676476D01*
X131398857Y-102700666D01*
X131302095Y-102724857D01*
X131229523Y-102724857D01*
X131132761Y-102700666D01*
X131084380Y-102676476D01*
X131036000Y-102628095D01*
X131011809Y-102555523D01*
X131011809Y-102507142D01*
X131036000Y-102434571D01*
X131060190Y-102410380D01*
X131519809Y-101950761D02*
X131519809Y-102192666D01*
X131011809Y-102192666D01*
X131519809Y-101781428D02*
X131011809Y-101781428D01*
X131519809Y-101491142D02*
X131229523Y-101708857D01*
X131011809Y-101491142D02*
X131302095Y-101781428D01*
X130792160Y-107889523D02*
X130792160Y-107502476D01*
X131011809Y-107623428D02*
X131374666Y-107623428D01*
X131447238Y-107647619D01*
X131495619Y-107696000D01*
X131519809Y-107768571D01*
X131519809Y-107816952D01*
X131471428Y-104974571D02*
X131495619Y-104998761D01*
X131519809Y-105071333D01*
X131519809Y-105119714D01*
X131495619Y-105192285D01*
X131447238Y-105240666D01*
X131398857Y-105264857D01*
X131302095Y-105289047D01*
X131229523Y-105289047D01*
X131132761Y-105264857D01*
X131084380Y-105240666D01*
X131036000Y-105192285D01*
X131011809Y-105119714D01*
X131011809Y-105071333D01*
X131036000Y-104998761D01*
X131060190Y-104974571D01*
X131253714Y-104756857D02*
X131253714Y-104587523D01*
X131519809Y-104514952D02*
X131519809Y-104756857D01*
X131011809Y-104756857D01*
X131011809Y-104514952D01*
X131253714Y-91077142D02*
X131277904Y-91004571D01*
X131302095Y-90980380D01*
X131350476Y-90956190D01*
X131423047Y-90956190D01*
X131471428Y-90980380D01*
X131495619Y-91004571D01*
X131519809Y-91052952D01*
X131519809Y-91246476D01*
X131011809Y-91246476D01*
X131011809Y-91077142D01*
X131036000Y-91028761D01*
X131060190Y-91004571D01*
X131108571Y-90980380D01*
X131156952Y-90980380D01*
X131205333Y-91004571D01*
X131229523Y-91028761D01*
X131253714Y-91077142D01*
X131253714Y-91246476D01*
X131011809Y-90738476D02*
X131423047Y-90738476D01*
X131471428Y-90714285D01*
X131495619Y-90690095D01*
X131519809Y-90641714D01*
X131519809Y-90544952D01*
X131495619Y-90496571D01*
X131471428Y-90472380D01*
X131423047Y-90448190D01*
X131011809Y-90448190D01*
X131495619Y-90230476D02*
X131519809Y-90157904D01*
X131519809Y-90036952D01*
X131495619Y-89988571D01*
X131471428Y-89964380D01*
X131423047Y-89940190D01*
X131374666Y-89940190D01*
X131326285Y-89964380D01*
X131302095Y-89988571D01*
X131277904Y-90036952D01*
X131253714Y-90133714D01*
X131229523Y-90182095D01*
X131205333Y-90206285D01*
X131156952Y-90230476D01*
X131108571Y-90230476D01*
X131060190Y-90206285D01*
X131036000Y-90182095D01*
X131011809Y-90133714D01*
X131011809Y-90012761D01*
X131036000Y-89940190D01*
X131568190Y-89843428D02*
X131568190Y-89456380D01*
X131060190Y-89359619D02*
X131036000Y-89335428D01*
X131011809Y-89287047D01*
X131011809Y-89166095D01*
X131036000Y-89117714D01*
X131060190Y-89093523D01*
X131108571Y-89069333D01*
X131156952Y-89069333D01*
X131229523Y-89093523D01*
X131519809Y-89383809D01*
X131519809Y-89069333D01*
X131253714Y-96665142D02*
X131277904Y-96592571D01*
X131302095Y-96568380D01*
X131350476Y-96544190D01*
X131423047Y-96544190D01*
X131471428Y-96568380D01*
X131495619Y-96592571D01*
X131519809Y-96640952D01*
X131519809Y-96834476D01*
X131011809Y-96834476D01*
X131011809Y-96665142D01*
X131036000Y-96616761D01*
X131060190Y-96592571D01*
X131108571Y-96568380D01*
X131156952Y-96568380D01*
X131205333Y-96592571D01*
X131229523Y-96616761D01*
X131253714Y-96665142D01*
X131253714Y-96834476D01*
X131011809Y-96326476D02*
X131423047Y-96326476D01*
X131471428Y-96302285D01*
X131495619Y-96278095D01*
X131519809Y-96229714D01*
X131519809Y-96132952D01*
X131495619Y-96084571D01*
X131471428Y-96060380D01*
X131423047Y-96036190D01*
X131011809Y-96036190D01*
X131495619Y-95818476D02*
X131519809Y-95745904D01*
X131519809Y-95624952D01*
X131495619Y-95576571D01*
X131471428Y-95552380D01*
X131423047Y-95528190D01*
X131374666Y-95528190D01*
X131326285Y-95552380D01*
X131302095Y-95576571D01*
X131277904Y-95624952D01*
X131253714Y-95721714D01*
X131229523Y-95770095D01*
X131205333Y-95794285D01*
X131156952Y-95818476D01*
X131108571Y-95818476D01*
X131060190Y-95794285D01*
X131036000Y-95770095D01*
X131011809Y-95721714D01*
X131011809Y-95600761D01*
X131036000Y-95528190D01*
X131568190Y-95431428D02*
X131568190Y-95044380D01*
X131011809Y-94826666D02*
X131011809Y-94778285D01*
X131036000Y-94729904D01*
X131060190Y-94705714D01*
X131108571Y-94681523D01*
X131205333Y-94657333D01*
X131326285Y-94657333D01*
X131423047Y-94681523D01*
X131471428Y-94705714D01*
X131495619Y-94729904D01*
X131519809Y-94778285D01*
X131519809Y-94826666D01*
X131495619Y-94875047D01*
X131471428Y-94899238D01*
X131423047Y-94923428D01*
X131326285Y-94947619D01*
X131205333Y-94947619D01*
X131108571Y-94923428D01*
X131060190Y-94899238D01*
X131036000Y-94875047D01*
X131011809Y-94826666D01*
X131253714Y-93871142D02*
X131277904Y-93798571D01*
X131302095Y-93774380D01*
X131350476Y-93750190D01*
X131423047Y-93750190D01*
X131471428Y-93774380D01*
X131495619Y-93798571D01*
X131519809Y-93846952D01*
X131519809Y-94040476D01*
X131011809Y-94040476D01*
X131011809Y-93871142D01*
X131036000Y-93822761D01*
X131060190Y-93798571D01*
X131108571Y-93774380D01*
X131156952Y-93774380D01*
X131205333Y-93798571D01*
X131229523Y-93822761D01*
X131253714Y-93871142D01*
X131253714Y-94040476D01*
X131011809Y-93532476D02*
X131423047Y-93532476D01*
X131471428Y-93508285D01*
X131495619Y-93484095D01*
X131519809Y-93435714D01*
X131519809Y-93338952D01*
X131495619Y-93290571D01*
X131471428Y-93266380D01*
X131423047Y-93242190D01*
X131011809Y-93242190D01*
X131495619Y-93024476D02*
X131519809Y-92951904D01*
X131519809Y-92830952D01*
X131495619Y-92782571D01*
X131471428Y-92758380D01*
X131423047Y-92734190D01*
X131374666Y-92734190D01*
X131326285Y-92758380D01*
X131302095Y-92782571D01*
X131277904Y-92830952D01*
X131253714Y-92927714D01*
X131229523Y-92976095D01*
X131205333Y-93000285D01*
X131156952Y-93024476D01*
X131108571Y-93024476D01*
X131060190Y-93000285D01*
X131036000Y-92976095D01*
X131011809Y-92927714D01*
X131011809Y-92806761D01*
X131036000Y-92734190D01*
X131568190Y-92637428D02*
X131568190Y-92250380D01*
X131519809Y-91863333D02*
X131519809Y-92153619D01*
X131519809Y-92008476D02*
X131011809Y-92008476D01*
X131084380Y-92056857D01*
X131132761Y-92105238D01*
X131156952Y-92153619D01*
X131253714Y-88283142D02*
X131277904Y-88210571D01*
X131302095Y-88186380D01*
X131350476Y-88162190D01*
X131423047Y-88162190D01*
X131471428Y-88186380D01*
X131495619Y-88210571D01*
X131519809Y-88258952D01*
X131519809Y-88452476D01*
X131011809Y-88452476D01*
X131011809Y-88283142D01*
X131036000Y-88234761D01*
X131060190Y-88210571D01*
X131108571Y-88186380D01*
X131156952Y-88186380D01*
X131205333Y-88210571D01*
X131229523Y-88234761D01*
X131253714Y-88283142D01*
X131253714Y-88452476D01*
X131011809Y-87944476D02*
X131423047Y-87944476D01*
X131471428Y-87920285D01*
X131495619Y-87896095D01*
X131519809Y-87847714D01*
X131519809Y-87750952D01*
X131495619Y-87702571D01*
X131471428Y-87678380D01*
X131423047Y-87654190D01*
X131011809Y-87654190D01*
X131495619Y-87436476D02*
X131519809Y-87363904D01*
X131519809Y-87242952D01*
X131495619Y-87194571D01*
X131471428Y-87170380D01*
X131423047Y-87146190D01*
X131374666Y-87146190D01*
X131326285Y-87170380D01*
X131302095Y-87194571D01*
X131277904Y-87242952D01*
X131253714Y-87339714D01*
X131229523Y-87388095D01*
X131205333Y-87412285D01*
X131156952Y-87436476D01*
X131108571Y-87436476D01*
X131060190Y-87412285D01*
X131036000Y-87388095D01*
X131011809Y-87339714D01*
X131011809Y-87218761D01*
X131036000Y-87146190D01*
X131568190Y-87049428D02*
X131568190Y-86662380D01*
X131011809Y-86589809D02*
X131011809Y-86275333D01*
X131205333Y-86444666D01*
X131205333Y-86372095D01*
X131229523Y-86323714D01*
X131253714Y-86299523D01*
X131302095Y-86275333D01*
X131423047Y-86275333D01*
X131471428Y-86299523D01*
X131495619Y-86323714D01*
X131519809Y-86372095D01*
X131519809Y-86517238D01*
X131495619Y-86565619D01*
X131471428Y-86589809D01*
X121532952Y-120876000D02*
X121484571Y-120851809D01*
X121412000Y-120851809D01*
X121339428Y-120876000D01*
X121291047Y-120924380D01*
X121266857Y-120972761D01*
X121242666Y-121069523D01*
X121242666Y-121142095D01*
X121266857Y-121238857D01*
X121291047Y-121287238D01*
X121339428Y-121335619D01*
X121412000Y-121359809D01*
X121460380Y-121359809D01*
X121532952Y-121335619D01*
X121557142Y-121311428D01*
X121557142Y-121142095D01*
X121460380Y-121142095D01*
X121774857Y-121359809D02*
X121774857Y-120851809D01*
X122065142Y-121359809D01*
X122065142Y-120851809D01*
X122307047Y-121359809D02*
X122307047Y-120851809D01*
X122428000Y-120851809D01*
X122500571Y-120876000D01*
X122548952Y-120924380D01*
X122573142Y-120972761D01*
X122597333Y-121069523D01*
X122597333Y-121142095D01*
X122573142Y-121238857D01*
X122548952Y-121287238D01*
X122500571Y-121335619D01*
X122428000Y-121359809D01*
X122307047Y-121359809D01*
X118472857Y-121166285D02*
X118859904Y-121166285D01*
X118666380Y-121359809D02*
X118666380Y-120972761D01*
X119343714Y-120851809D02*
X119101809Y-120851809D01*
X119077619Y-121093714D01*
X119101809Y-121069523D01*
X119150190Y-121045333D01*
X119271142Y-121045333D01*
X119319523Y-121069523D01*
X119343714Y-121093714D01*
X119367904Y-121142095D01*
X119367904Y-121263047D01*
X119343714Y-121311428D01*
X119319523Y-121335619D01*
X119271142Y-121359809D01*
X119150190Y-121359809D01*
X119101809Y-121335619D01*
X119077619Y-121311428D01*
X119513047Y-120851809D02*
X119682380Y-121359809D01*
X119851714Y-120851809D01*
D13*
X104144380Y-92963904D02*
X104953904Y-92963904D01*
X105049142Y-92916285D01*
X105096761Y-92868666D01*
X105144380Y-92773428D01*
X105144380Y-92582952D01*
X105096761Y-92487714D01*
X105049142Y-92440095D01*
X104953904Y-92392476D01*
X104144380Y-92392476D01*
X105144380Y-91392476D02*
X105144380Y-91963904D01*
X105144380Y-91678190D02*
X104144380Y-91678190D01*
X104287238Y-91773428D01*
X104382476Y-91868666D01*
X104430095Y-91963904D01*
X76624380Y-105663904D02*
X77433904Y-105663904D01*
X77529142Y-105616285D01*
X77576761Y-105568666D01*
X77624380Y-105473428D01*
X77624380Y-105282952D01*
X77576761Y-105187714D01*
X77529142Y-105140095D01*
X77433904Y-105092476D01*
X76624380Y-105092476D01*
X76719619Y-104663904D02*
X76672000Y-104616285D01*
X76624380Y-104521047D01*
X76624380Y-104282952D01*
X76672000Y-104187714D01*
X76719619Y-104140095D01*
X76814857Y-104092476D01*
X76910095Y-104092476D01*
X77052952Y-104140095D01*
X77624380Y-104711523D01*
X77624380Y-104092476D01*
M02*
